<svg width="121" height="26" viewBox="0 0 121 26" fill="none" xmlns="http://www.w3.org/2000/svg">
<mask id="path-1-outside-1_3129_3466" maskUnits="userSpaceOnUse" x="-0.719727" y="-0.639999" width="121" height="27" fill="black">
<rect fill="white" x="-0.719727" y="-0.639999" width="121" height="27"/>
<path d="M1.00027 24.36V1.96H5.48027V12.04H5.54427L13.8963 1.96H19.2083L10.3763 12.456L20.2003 24.36H14.8243L7.68827 15.656L5.48027 18.248V24.36H1.00027ZM37.014 22.376L33.302 24.52H26.486L22.774 22.376V10.344L26.486 8.2H33.302L37.014 10.344V22.376ZM27.158 11.944V20.776H32.63V11.944H27.158ZM56.0453 10.344V24.36H51.6613V11.944H46.1893V24.36H41.8053V8.2H45.4213L46.1893 9.512L48.4613 8.2H52.3333L56.0453 10.344ZM59.5565 12.104V8.36H62.5005V5.672L66.8845 3.144V8.36H70.4045V12.104H66.8845V20.616H70.4045V24.36H66.2125L62.5005 22.216V12.104H59.5565ZM78.2993 18.056V20.84H82.8113V18.056H78.2993ZM77.6273 24.52L73.9153 22.376V16.84L77.6273 14.696H82.8113V12.104H75.5153V8.36H83.4833L87.1953 10.504V24.52H85.0833L82.8113 23.208L80.5393 24.52H77.6273ZM96.3768 1V14.792H96.4408L101.401 8.36H106.425L100.697 15.496L107.385 24.36H102.297L98.1368 18.696L96.3768 20.904V24.36H91.9928V1H96.3768ZM108.338 12.104V8.36H111.282V5.672L115.666 3.144V8.36H119.186V12.104H115.666V20.616H119.186V24.36H114.994L111.282 22.216V12.104H108.338Z"/>
</mask>
<path d="M1.00027 24.36H0.000273466V25.36H1.00027V24.36ZM1.00027 1.96V0.959999H0.000273466V1.96H1.00027ZM5.48027 1.96H6.48027V0.959999H5.48027V1.96ZM5.48027 12.04H4.48027V13.04H5.48027V12.04ZM5.54427 12.04V13.04H6.01437L6.3143 12.678L5.54427 12.04ZM13.8963 1.96V0.959999H13.4262L13.1263 1.32198L13.8963 1.96ZM19.2083 1.96L19.9734 2.60385L21.3567 0.959999H19.2083V1.96ZM10.3763 12.456L9.61112 11.8122L9.07458 12.4498L9.605 13.0925L10.3763 12.456ZM20.2003 24.36V25.36H22.3221L20.9715 23.7235L20.2003 24.36ZM14.8243 24.36L14.051 24.994L14.351 25.36H14.8243V24.36ZM7.68827 15.656L8.4616 15.022L7.70296 14.0967L6.92703 15.0075L7.68827 15.656ZM5.48027 18.248L4.71903 17.5995L4.48027 17.8798V18.248H5.48027ZM5.48027 24.36V25.36H6.48027V24.36H5.48027ZM1.00027 24.36H2.00027V1.96H1.00027H0.000273466V24.36H1.00027ZM1.00027 1.96V2.96H5.48027V1.96V0.959999H1.00027V1.96ZM5.48027 1.96H4.48027V12.04H5.48027H6.48027V1.96H5.48027ZM5.48027 12.04V13.04H5.54427V12.04V11.04H5.48027V12.04ZM5.54427 12.04L6.3143 12.678L14.6663 2.59802L13.8963 1.96L13.1263 1.32198L4.77425 11.402L5.54427 12.04ZM13.8963 1.96V2.96H19.2083V1.96V0.959999H13.8963V1.96ZM19.2083 1.96L18.4431 1.31615L9.61112 11.8122L10.3763 12.456L11.1414 13.0998L19.9734 2.60385L19.2083 1.96ZM10.3763 12.456L9.605 13.0925L19.429 24.9965L20.2003 24.36L20.9715 23.7235L11.1475 11.8195L10.3763 12.456ZM20.2003 24.36V23.36H14.8243V24.36V25.36H20.2003V24.36ZM14.8243 24.36L15.5976 23.726L8.4616 15.022L7.68827 15.656L6.91495 16.29L14.051 24.994L14.8243 24.36ZM7.68827 15.656L6.92703 15.0075L4.71903 17.5995L5.48027 18.248L6.24152 18.8965L8.44952 16.3045L7.68827 15.656ZM5.48027 18.248H4.48027V24.36H5.48027H6.48027V18.248H5.48027ZM5.48027 24.36V23.36H1.00027V24.36V25.36H5.48027V24.36ZM37.014 22.376L37.5142 23.2419L38.014 22.9532V22.376H37.014ZM33.302 24.52V25.52H33.5701L33.8022 25.3859L33.302 24.52ZM26.486 24.52L25.9859 25.3859L26.218 25.52H26.486V24.52ZM22.774 22.376H21.774V22.9532L22.2739 23.2419L22.774 22.376ZM22.774 10.344L22.2739 9.47806L21.774 9.76677V10.344H22.774ZM26.486 8.2V7.2H26.218L25.9859 7.33406L26.486 8.2ZM33.302 8.2L33.8022 7.33406L33.5701 7.2H33.302V8.2ZM37.014 10.344H38.014V9.76677L37.5142 9.47806L37.014 10.344ZM27.158 11.944V10.944H26.158V11.944H27.158ZM27.158 20.776H26.158V21.776H27.158V20.776ZM32.63 20.776V21.776H33.63V20.776H32.63ZM32.63 11.944H33.63V10.944H32.63V11.944ZM37.014 22.376L36.5139 21.5101L32.8019 23.6541L33.302 24.52L33.8022 25.3859L37.5142 23.2419L37.014 22.376ZM33.302 24.52V23.52H26.486V24.52V25.52H33.302V24.52ZM26.486 24.52L26.9862 23.6541L23.2742 21.5101L22.774 22.376L22.2739 23.2419L25.9859 25.3859L26.486 24.52ZM22.774 22.376H23.774V10.344H22.774H21.774V22.376H22.774ZM22.774 10.344L23.2742 11.2099L26.9862 9.06594L26.486 8.2L25.9859 7.33406L22.2739 9.47806L22.774 10.344ZM26.486 8.2V9.2H33.302V8.2V7.2H26.486V8.2ZM33.302 8.2L32.8019 9.06594L36.5139 11.2099L37.014 10.344L37.5142 9.47806L33.8022 7.33406L33.302 8.2ZM37.014 10.344H36.014V22.376H37.014H38.014V10.344H37.014ZM27.158 11.944H26.158V20.776H27.158H28.158V11.944H27.158ZM27.158 20.776V21.776H32.63V20.776V19.776H27.158V20.776ZM32.63 20.776H33.63V11.944H32.63H31.63V20.776H32.63ZM32.63 11.944V10.944H27.158V11.944V12.944H32.63V11.944ZM56.0453 10.344H57.0453V9.76677L56.5454 9.47806L56.0453 10.344ZM56.0453 24.36V25.36H57.0453V24.36H56.0453ZM51.6613 24.36H50.6613V25.36H51.6613V24.36ZM51.6613 11.944H52.6613V10.944H51.6613V11.944ZM46.1893 11.944V10.944H45.1893V11.944H46.1893ZM46.1893 24.36V25.36H47.1893V24.36H46.1893ZM41.8053 24.36H40.8053V25.36H41.8053V24.36ZM41.8053 8.2V7.2H40.8053V8.2H41.8053ZM45.4213 8.2L46.2843 7.69482L45.9946 7.2H45.4213V8.2ZM46.1893 9.512L45.3263 10.0172L45.8285 10.8751L46.6893 10.378L46.1893 9.512ZM48.4613 8.2V7.2H48.1933L47.9612 7.33402L48.4613 8.2ZM52.3333 8.2L52.8334 7.33406L52.6013 7.2H52.3333V8.2ZM56.0453 10.344H55.0453V24.36H56.0453H57.0453V10.344H56.0453ZM56.0453 24.36V23.36H51.6613V24.36V25.36H56.0453V24.36ZM51.6613 24.36H52.6613V11.944H51.6613H50.6613V24.36H51.6613ZM51.6613 11.944V10.944H46.1893V11.944V12.944H51.6613V11.944ZM46.1893 11.944H45.1893V24.36H46.1893H47.1893V11.944H46.1893ZM46.1893 24.36V23.36H41.8053V24.36V25.36H46.1893V24.36ZM41.8053 24.36H42.8053V8.2H41.8053H40.8053V24.36H41.8053ZM41.8053 8.2V9.2H45.4213V8.2V7.2H41.8053V8.2ZM45.4213 8.2L44.5583 8.70518L45.3263 10.0172L46.1893 9.512L47.0523 9.00682L46.2843 7.69482L45.4213 8.2ZM46.1893 9.512L46.6893 10.378L48.9613 9.06598L48.4613 8.2L47.9612 7.33402L45.6892 8.64602L46.1893 9.512ZM48.4613 8.2V9.2H52.3333V8.2V7.2H48.4613V8.2ZM52.3333 8.2L51.8331 9.06594L55.5451 11.2099L56.0453 10.344L56.5454 9.47806L52.8334 7.33406L52.3333 8.2ZM59.5565 12.104H58.5565V13.104H59.5565V12.104ZM59.5565 8.36V7.36H58.5565V8.36H59.5565ZM62.5005 8.36V9.36H63.5005V8.36H62.5005ZM62.5005 5.672L62.001 4.80571L61.5005 5.0943V5.672H62.5005ZM66.8845 3.144H67.8845V1.41301L66.385 2.27771L66.8845 3.144ZM66.8845 8.36H65.8845V9.36H66.8845V8.36ZM70.4045 8.36H71.4045V7.36H70.4045V8.36ZM70.4045 12.104V13.104H71.4045V12.104H70.4045ZM66.8845 12.104V11.104H65.8845V12.104H66.8845ZM66.8845 20.616H65.8845V21.616H66.8845V20.616ZM70.4045 20.616H71.4045V19.616H70.4045V20.616ZM70.4045 24.36V25.36H71.4045V24.36H70.4045ZM66.2125 24.36L65.7124 25.2259L65.9445 25.36H66.2125V24.36ZM62.5005 22.216H61.5005V22.7932L62.0004 23.0819L62.5005 22.216ZM62.5005 12.104H63.5005V11.104H62.5005V12.104ZM59.5565 12.104H60.5565V8.36H59.5565H58.5565V12.104H59.5565ZM59.5565 8.36V9.36H62.5005V8.36V7.36H59.5565V8.36ZM62.5005 8.36H63.5005V5.672H62.5005H61.5005V8.36H62.5005ZM62.5005 5.672L63.0001 6.53829L67.3841 4.01029L66.8845 3.144L66.385 2.27771L62.001 4.80571L62.5005 5.672ZM66.8845 3.144H65.8845V8.36H66.8845H67.8845V3.144H66.8845ZM66.8845 8.36V9.36H70.4045V8.36V7.36H66.8845V8.36ZM70.4045 8.36H69.4045V12.104H70.4045H71.4045V8.36H70.4045ZM70.4045 12.104V11.104H66.8845V12.104V13.104H70.4045V12.104ZM66.8845 12.104H65.8845V20.616H66.8845H67.8845V12.104H66.8845ZM66.8845 20.616V21.616H70.4045V20.616V19.616H66.8845V20.616ZM70.4045 20.616H69.4045V24.36H70.4045H71.4045V20.616H70.4045ZM70.4045 24.36V23.36H66.2125V24.36V25.36H70.4045V24.36ZM66.2125 24.36L66.7127 23.4941L63.0007 21.3501L62.5005 22.216L62.0004 23.0819L65.7124 25.2259L66.2125 24.36ZM62.5005 22.216H63.5005V12.104H62.5005H61.5005V22.216H62.5005ZM62.5005 12.104V11.104H59.5565V12.104V13.104H62.5005V12.104ZM78.2993 18.056V17.056H77.2993V18.056H78.2993ZM78.2993 20.84H77.2993V21.84H78.2993V20.84ZM82.8113 20.84V21.84H83.8113V20.84H82.8113ZM82.8113 18.056H83.8113V17.056H82.8113V18.056ZM77.6273 24.52L77.1271 25.3859L77.3592 25.52H77.6273V24.52ZM73.9153 22.376H72.9153V22.9532L73.4151 23.2419L73.9153 22.376ZM73.9153 16.84L73.4151 15.9741L72.9153 16.2628V16.84H73.9153ZM77.6273 14.696V13.696H77.3592L77.1271 13.8301L77.6273 14.696ZM82.8113 14.696V15.696H83.8113V14.696H82.8113ZM82.8113 12.104H83.8113V11.104H82.8113V12.104ZM75.5153 12.104H74.5153V13.104H75.5153V12.104ZM75.5153 8.36V7.36H74.5153V8.36H75.5153ZM83.4833 8.36L83.9834 7.49406L83.7513 7.36H83.4833V8.36ZM87.1953 10.504H88.1953V9.92677L87.6954 9.63806L87.1953 10.504ZM87.1953 24.52V25.52H88.1953V24.52H87.1953ZM85.0833 24.52L84.5832 25.386L84.8153 25.52H85.0833V24.52ZM82.8113 23.208L83.3113 22.342L82.8113 22.0532L82.3112 22.342L82.8113 23.208ZM80.5393 24.52V25.52H80.8073L81.0394 25.386L80.5393 24.52ZM78.2993 18.056H77.2993V20.84H78.2993H79.2993V18.056H78.2993ZM78.2993 20.84V21.84H82.8113V20.84V19.84H78.2993V20.84ZM82.8113 20.84H83.8113V18.056H82.8113H81.8113V20.84H82.8113ZM82.8113 18.056V17.056H78.2993V18.056V19.056H82.8113V18.056ZM77.6273 24.52L78.1274 23.6541L74.4154 21.5101L73.9153 22.376L73.4151 23.2419L77.1271 25.3859L77.6273 24.52ZM73.9153 22.376H74.9153V16.84H73.9153H72.9153V22.376H73.9153ZM73.9153 16.84L74.4154 17.7059L78.1274 15.5619L77.6273 14.696L77.1271 13.8301L73.4151 15.9741L73.9153 16.84ZM77.6273 14.696V15.696H82.8113V14.696V13.696H77.6273V14.696ZM82.8113 14.696H83.8113V12.104H82.8113H81.8113V14.696H82.8113ZM82.8113 12.104V11.104H75.5153V12.104V13.104H82.8113V12.104ZM75.5153 12.104H76.5153V8.36H75.5153H74.5153V12.104H75.5153ZM75.5153 8.36V9.36H83.4833V8.36V7.36H75.5153V8.36ZM83.4833 8.36L82.9831 9.22594L86.6951 11.3699L87.1953 10.504L87.6954 9.63806L83.9834 7.49406L83.4833 8.36ZM87.1953 10.504H86.1953V24.52H87.1953H88.1953V10.504H87.1953ZM87.1953 24.52V23.52H85.0833V24.52V25.52H87.1953V24.52ZM85.0833 24.52L85.5834 23.654L83.3113 22.342L82.8113 23.208L82.3112 24.074L84.5832 25.386L85.0833 24.52ZM82.8113 23.208L82.3112 22.342L80.0392 23.654L80.5393 24.52L81.0394 25.386L83.3113 24.074L82.8113 23.208ZM80.5393 24.52V23.52H77.6273V24.52V25.52H80.5393V24.52ZM96.3768 1H97.3768V0H96.3768V1ZM96.3768 14.792H95.3768V15.792H96.3768V14.792ZM96.4408 14.792V15.792H96.9324L97.2327 15.4027L96.4408 14.792ZM101.401 8.36V7.36H100.909L100.609 7.74934L101.401 8.36ZM106.425 8.36L107.205 8.98597L108.51 7.36H106.425V8.36ZM100.697 15.496L99.9169 14.87L99.4297 15.477L99.8985 16.0983L100.697 15.496ZM107.385 24.36V25.36H109.392L108.183 23.7577L107.385 24.36ZM102.297 24.36L101.491 24.952L101.79 25.36H102.297V24.36ZM98.1368 18.696L98.9427 18.104L98.1693 17.0509L97.3548 18.0727L98.1368 18.696ZM96.3768 20.904L95.5948 20.2807L95.3768 20.5542V20.904H96.3768ZM96.3768 24.36V25.36H97.3768V24.36H96.3768ZM91.9928 24.36H90.9928V25.36H91.9928V24.36ZM91.9928 1V0H90.9928V1H91.9928ZM96.3768 1H95.3768V14.792H96.3768H97.3768V1H96.3768ZM96.3768 14.792V15.792H96.4408V14.792V13.792H96.3768V14.792ZM96.4408 14.792L97.2327 15.4027L102.193 8.97066L101.401 8.36L100.609 7.74934L95.6489 14.1813L96.4408 14.792ZM101.401 8.36V9.36H106.425V8.36V7.36H101.401V8.36ZM106.425 8.36L105.645 7.73403L99.9169 14.87L100.697 15.496L101.477 16.122L107.205 8.98597L106.425 8.36ZM100.697 15.496L99.8985 16.0983L106.587 24.9623L107.385 24.36L108.183 23.7577L101.495 14.8937L100.697 15.496ZM107.385 24.36V23.36H102.297V24.36V25.36H107.385V24.36ZM102.297 24.36L103.103 23.768L98.9427 18.104L98.1368 18.696L97.3308 19.288L101.491 24.952L102.297 24.36ZM98.1368 18.696L97.3548 18.0727L95.5948 20.2807L96.3768 20.904L97.1587 21.5273L98.9187 19.3193L98.1368 18.696ZM96.3768 20.904H95.3768V24.36H96.3768H97.3768V20.904H96.3768ZM96.3768 24.36V23.36H91.9928V24.36V25.36H96.3768V24.36ZM91.9928 24.36H92.9928V1H91.9928H90.9928V24.36H91.9928ZM91.9928 1V2H96.3768V1V0H91.9928V1ZM108.338 12.104H107.338V13.104H108.338V12.104ZM108.338 8.36V7.36H107.338V8.36H108.338ZM111.282 8.36V9.36H112.282V8.36H111.282ZM111.282 5.672L110.782 4.80571L110.282 5.0943V5.672H111.282ZM115.666 3.144H116.666V1.41301L115.166 2.27771L115.666 3.144ZM115.666 8.36H114.666V9.36H115.666V8.36ZM119.186 8.36H120.186V7.36H119.186V8.36ZM119.186 12.104V13.104H120.186V12.104H119.186ZM115.666 12.104V11.104H114.666V12.104H115.666ZM115.666 20.616H114.666V21.616H115.666V20.616ZM119.186 20.616H120.186V19.616H119.186V20.616ZM119.186 24.36V25.36H120.186V24.36H119.186ZM114.994 24.36L114.494 25.2259L114.726 25.36H114.994V24.36ZM111.282 22.216H110.282V22.7932L110.782 23.0819L111.282 22.216ZM111.282 12.104H112.282V11.104H111.282V12.104ZM108.338 12.104H109.338V8.36H108.338H107.338V12.104H108.338ZM108.338 8.36V9.36H111.282V8.36V7.36H108.338V8.36ZM111.282 8.36H112.282V5.672H111.282H110.282V8.36H111.282ZM111.282 5.672L111.781 6.53829L116.165 4.01029L115.666 3.144L115.166 2.27771L110.782 4.80571L111.282 5.672ZM115.666 3.144H114.666V8.36H115.666H116.666V3.144H115.666ZM115.666 8.36V9.36H119.186V8.36V7.36H115.666V8.36ZM119.186 8.36H118.186V12.104H119.186H120.186V8.36H119.186ZM119.186 12.104V11.104H115.666V12.104V13.104H119.186V12.104ZM115.666 12.104H114.666V20.616H115.666H116.666V12.104H115.666ZM115.666 20.616V21.616H119.186V20.616V19.616H115.666V20.616ZM119.186 20.616H118.186V24.36H119.186H120.186V20.616H119.186ZM119.186 24.36V23.36H114.994V24.36V25.36H119.186V24.36ZM114.994 24.36L115.494 23.4941L111.782 21.3501L111.282 22.216L110.782 23.0819L114.494 25.2259L114.994 24.36ZM111.282 22.216H112.282V12.104H111.282H110.282V22.216H111.282ZM111.282 12.104V11.104H108.338V12.104V13.104H111.282V12.104Z" fill="#B5E93B" mask="url(#path-1-outside-1_3129_3466)"/>
</svg>
