<svg width="194" height="26" viewBox="0 0 194 26" fill="none" xmlns="http://www.w3.org/2000/svg">
<mask id="path-1-outside-1_3129_3479" maskUnits="userSpaceOnUse" x="-0.719727" y="-0.639893" width="195" height="27" fill="black">
<rect fill="white" x="-0.719727" y="-0.639893" width="195" height="27"/>
<path d="M19.8483 24.3601V9.57611H19.7843L14.7283 24.3601H10.4723L5.38427 9.38411H5.32027V24.3601H1.00027V1.96011H6.95227L12.5843 18.4401H12.6483L18.2483 1.96011H24.1683V24.3601H19.8483ZM42.554 20.6161V24.3601H32.986L29.274 22.2161V10.3441L32.986 8.20011H38.842L42.554 10.3441V17.9921H33.658V20.6161H42.554ZM33.658 11.9441V14.6961H38.17V11.9441H33.658ZM51.7518 8.36011V24.3601H47.3678V8.36011H51.7518ZM47.2078 5.38411V1.00011H51.9118V5.38411H47.2078ZM70.7953 10.3441V24.3601H66.4113V11.9441H60.9393V24.3601H56.5553V8.20011H60.1713L60.9393 9.51211L63.2113 8.20011H67.0833L70.7953 10.3441ZM88.8665 20.6161V24.3601H79.2985L75.5865 22.2161V10.3441L79.2985 8.20011H85.1545L88.8665 10.3441V17.9921H79.9705V20.6161H88.8665ZM79.9705 11.9441V14.6961H84.4825V11.9441H79.9705ZM112.681 1.96011L120.681 24.3601H116.265L114.569 19.5281H106.185L104.489 24.3601H100.073L108.073 1.96011H112.681ZM110.345 7.59211L107.529 15.6881H113.193L110.409 7.59211H110.345ZM133.443 12.1041H127.939V24.3601H123.555V8.36011H127.171L127.939 9.67211L130.211 8.36011H133.443V12.1041ZM143.305 8.20011H147.497L151.209 10.3441V22.3761L147.497 24.5201H143.305L141.033 23.2081L138.761 24.5201H136.649V1.00011H141.033V9.51211L143.305 8.20011ZM141.033 11.9441V20.7761H146.825V11.9441H141.033ZM169.304 20.6161V24.3601H159.736L156.024 22.2161V10.3441L159.736 8.20011H165.592L169.304 10.3441V17.9921H160.408V20.6161H169.304ZM160.408 11.9441V14.6961H164.92V11.9441H160.408ZM178.502 8.36011V24.3601H174.118V8.36011H178.502ZM173.958 5.38411V1.00011H178.662V5.38411H173.958ZM182.025 12.1041V8.36011H184.969V5.67211L189.353 3.14411V8.36011H192.873V12.1041H189.353V20.6161H192.873V24.3601H188.681L184.969 22.2161V12.1041H182.025Z"/>
</mask>
<path d="M19.8483 24.3601H18.8483V25.3601H19.8483V24.3601ZM19.8483 9.57611H20.8483V8.57611H19.8483V9.57611ZM19.7843 9.57611V8.57611H19.0694L18.8381 9.25252L19.7843 9.57611ZM14.7283 24.3601V25.3601H15.4431L15.6745 24.6837L14.7283 24.3601ZM10.4723 24.3601L9.52543 24.6818L9.75588 25.3601H10.4723V24.3601ZM5.38427 9.38411L6.33112 9.06242L6.10067 8.38411H5.38427V9.38411ZM5.32027 9.38411V8.38411H4.32027V9.38411H5.32027ZM5.32027 24.3601V25.3601H6.32027V24.3601H5.32027ZM1.00027 24.3601H0.000273466V25.3601H1.00027V24.3601ZM1.00027 1.96011V0.960106H0.000273466V1.96011H1.00027ZM6.95227 1.96011L7.89854 1.63672L7.66731 0.960106H6.95227V1.96011ZM12.5843 18.4401L11.638 18.7635L11.8692 19.4401H12.5843V18.4401ZM12.6483 18.4401V19.4401H13.3646L13.5951 18.7618L12.6483 18.4401ZM18.2483 1.96011V0.960106H17.5319L17.3014 1.63837L18.2483 1.96011ZM24.1683 1.96011H25.1683V0.960106H24.1683V1.96011ZM24.1683 24.3601V25.3601H25.1683V24.3601H24.1683ZM19.8483 24.3601H20.8483V9.57611H19.8483H18.8483V24.3601H19.8483ZM19.8483 9.57611V8.57611H19.7843V9.57611V10.5761H19.8483V9.57611ZM19.7843 9.57611L18.8381 9.25252L13.7821 24.0365L14.7283 24.3601L15.6745 24.6837L20.7305 9.8997L19.7843 9.57611ZM14.7283 24.3601V23.3601H10.4723V24.3601V25.3601H14.7283V24.3601ZM10.4723 24.3601L11.4191 24.0384L6.33112 9.06242L5.38427 9.38411L4.43743 9.70579L9.52543 24.6818L10.4723 24.3601ZM5.38427 9.38411V8.38411H5.32027V9.38411V10.3841H5.38427V9.38411ZM5.32027 9.38411H4.32027V24.3601H5.32027H6.32027V9.38411H5.32027ZM5.32027 24.3601V23.3601H1.00027V24.3601V25.3601H5.32027V24.3601ZM1.00027 24.3601H2.00027V1.96011H1.00027H0.000273466V24.3601H1.00027ZM1.00027 1.96011V2.96011H6.95227V1.96011V0.960106H1.00027V1.96011ZM6.95227 1.96011L6.00601 2.28349L11.638 18.7635L12.5843 18.4401L13.5305 18.1167L7.89854 1.63672L6.95227 1.96011ZM12.5843 18.4401V19.4401H12.6483V18.4401V17.4401H12.5843V18.4401ZM12.6483 18.4401L13.5951 18.7618L19.1951 2.28184L18.2483 1.96011L17.3014 1.63837L11.7014 18.1184L12.6483 18.4401ZM18.2483 1.96011V2.96011H24.1683V1.96011V0.960106H18.2483V1.96011ZM24.1683 1.96011H23.1683V24.3601H24.1683H25.1683V1.96011H24.1683ZM24.1683 24.3601V23.3601H19.8483V24.3601V25.3601H24.1683V24.3601ZM42.554 20.6161H43.554V19.6161H42.554V20.6161ZM42.554 24.3601V25.3601H43.554V24.3601H42.554ZM32.986 24.3601L32.4859 25.226L32.718 25.3601H32.986V24.3601ZM29.274 22.2161H28.274V22.7933L28.7739 23.082L29.274 22.2161ZM29.274 10.3441L28.7739 9.47817L28.274 9.76687V10.3441H29.274ZM32.986 8.20011V7.20011H32.718L32.4859 7.33417L32.986 8.20011ZM38.842 8.20011L39.3422 7.33417L39.1101 7.20011H38.842V8.20011ZM42.554 10.3441H43.554V9.76687L43.0542 9.47817L42.554 10.3441ZM42.554 17.9921V18.9921H43.554V17.9921H42.554ZM33.658 17.9921V16.9921H32.658V17.9921H33.658ZM33.658 20.6161H32.658V21.6161H33.658V20.6161ZM33.658 11.9441V10.9441H32.658V11.9441H33.658ZM33.658 14.6961H32.658V15.6961H33.658V14.6961ZM38.17 14.6961V15.6961H39.17V14.6961H38.17ZM38.17 11.9441H39.17V10.9441H38.17V11.9441ZM42.554 20.6161H41.554V24.3601H42.554H43.554V20.6161H42.554ZM42.554 24.3601V23.3601H32.986V24.3601V25.3601H42.554V24.3601ZM32.986 24.3601L33.4862 23.4942L29.7742 21.3502L29.274 22.2161L28.7739 23.082L32.4859 25.226L32.986 24.3601ZM29.274 22.2161H30.274V10.3441H29.274H28.274V22.2161H29.274ZM29.274 10.3441L29.7742 11.21L33.4862 9.06604L32.986 8.20011L32.4859 7.33417L28.7739 9.47817L29.274 10.3441ZM32.986 8.20011V9.20011H38.842V8.20011V7.20011H32.986V8.20011ZM38.842 8.20011L38.3419 9.06604L42.0539 11.21L42.554 10.3441L43.0542 9.47817L39.3422 7.33417L38.842 8.20011ZM42.554 10.3441H41.554V17.9921H42.554H43.554V10.3441H42.554ZM42.554 17.9921V16.9921H33.658V17.9921V18.9921H42.554V17.9921ZM33.658 17.9921H32.658V20.6161H33.658H34.658V17.9921H33.658ZM33.658 20.6161V21.6161H42.554V20.6161V19.6161H33.658V20.6161ZM33.658 11.9441H32.658V14.6961H33.658H34.658V11.9441H33.658ZM33.658 14.6961V15.6961H38.17V14.6961V13.6961H33.658V14.6961ZM38.17 14.6961H39.17V11.9441H38.17H37.17V14.6961H38.17ZM38.17 11.9441V10.9441H33.658V11.9441V12.9441H38.17V11.9441ZM51.7518 8.36011H52.7518V7.36011H51.7518V8.36011ZM51.7518 24.3601V25.3601H52.7518V24.3601H51.7518ZM47.3678 24.3601H46.3678V25.3601H47.3678V24.3601ZM47.3678 8.36011V7.36011H46.3678V8.36011H47.3678ZM47.2078 5.38411H46.2078V6.38411H47.2078V5.38411ZM47.2078 1.00011V0.000106812H46.2078V1.00011H47.2078ZM51.9118 1.00011H52.9118V0.000106812H51.9118V1.00011ZM51.9118 5.38411V6.38411H52.9118V5.38411H51.9118ZM51.7518 8.36011H50.7518V24.3601H51.7518H52.7518V8.36011H51.7518ZM51.7518 24.3601V23.3601H47.3678V24.3601V25.3601H51.7518V24.3601ZM47.3678 24.3601H48.3678V8.36011H47.3678H46.3678V24.3601H47.3678ZM47.3678 8.36011V9.36011H51.7518V8.36011V7.36011H47.3678V8.36011ZM47.2078 5.38411H48.2078V1.00011H47.2078H46.2078V5.38411H47.2078ZM47.2078 1.00011V2.00011H51.9118V1.00011V0.000106812H47.2078V1.00011ZM51.9118 1.00011H50.9118V5.38411H51.9118H52.9118V1.00011H51.9118ZM51.9118 5.38411V4.38411H47.2078V5.38411V6.38411H51.9118V5.38411ZM70.7953 10.3441H71.7953V9.76687L71.2954 9.47817L70.7953 10.3441ZM70.7953 24.3601V25.3601H71.7953V24.3601H70.7953ZM66.4113 24.3601H65.4113V25.3601H66.4113V24.3601ZM66.4113 11.9441H67.4113V10.9441H66.4113V11.9441ZM60.9393 11.9441V10.9441H59.9393V11.9441H60.9393ZM60.9393 24.3601V25.3601H61.9393V24.3601H60.9393ZM56.5553 24.3601H55.5553V25.3601H56.5553V24.3601ZM56.5553 8.20011V7.20011H55.5553V8.20011H56.5553ZM60.1713 8.20011L61.0343 7.69493L60.7446 7.20011H60.1713V8.20011ZM60.9393 9.51211L60.0763 10.0173L60.5785 10.8752L61.4393 10.3781L60.9393 9.51211ZM63.2113 8.20011V7.20011H62.9433L62.7112 7.33413L63.2113 8.20011ZM67.0833 8.20011L67.5834 7.33417L67.3513 7.20011H67.0833V8.20011ZM70.7953 10.3441H69.7953V24.3601H70.7953H71.7953V10.3441H70.7953ZM70.7953 24.3601V23.3601H66.4113V24.3601V25.3601H70.7953V24.3601ZM66.4113 24.3601H67.4113V11.9441H66.4113H65.4113V24.3601H66.4113ZM66.4113 11.9441V10.9441H60.9393V11.9441V12.9441H66.4113V11.9441ZM60.9393 11.9441H59.9393V24.3601H60.9393H61.9393V11.9441H60.9393ZM60.9393 24.3601V23.3601H56.5553V24.3601V25.3601H60.9393V24.3601ZM56.5553 24.3601H57.5553V8.20011H56.5553H55.5553V24.3601H56.5553ZM56.5553 8.20011V9.20011H60.1713V8.20011V7.20011H56.5553V8.20011ZM60.1713 8.20011L59.3083 8.70529L60.0763 10.0173L60.9393 9.51211L61.8023 9.00693L61.0343 7.69493L60.1713 8.20011ZM60.9393 9.51211L61.4393 10.3781L63.7113 9.06609L63.2113 8.20011L62.7112 7.33413L60.4392 8.64612L60.9393 9.51211ZM63.2113 8.20011V9.20011H67.0833V8.20011V7.20011H63.2113V8.20011ZM67.0833 8.20011L66.5831 9.06604L70.2951 11.21L70.7953 10.3441L71.2954 9.47817L67.5834 7.33417L67.0833 8.20011ZM88.8665 20.6161H89.8665V19.6161H88.8665V20.6161ZM88.8665 24.3601V25.3601H89.8665V24.3601H88.8665ZM79.2985 24.3601L78.7984 25.226L79.0305 25.3601H79.2985V24.3601ZM75.5865 22.2161H74.5865V22.7933L75.0864 23.082L75.5865 22.2161ZM75.5865 10.3441L75.0864 9.47817L74.5865 9.76687V10.3441H75.5865ZM79.2985 8.20011V7.20011H79.0305L78.7984 7.33417L79.2985 8.20011ZM85.1545 8.20011L85.6547 7.33417L85.4226 7.20011H85.1545V8.20011ZM88.8665 10.3441H89.8665V9.76687L89.3667 9.47817L88.8665 10.3441ZM88.8665 17.9921V18.9921H89.8665V17.9921H88.8665ZM79.9705 17.9921V16.9921H78.9705V17.9921H79.9705ZM79.9705 20.6161H78.9705V21.6161H79.9705V20.6161ZM79.9705 11.9441V10.9441H78.9705V11.9441H79.9705ZM79.9705 14.6961H78.9705V15.6961H79.9705V14.6961ZM84.4825 14.6961V15.6961H85.4825V14.6961H84.4825ZM84.4825 11.9441H85.4825V10.9441H84.4825V11.9441ZM88.8665 20.6161H87.8665V24.3601H88.8665H89.8665V20.6161H88.8665ZM88.8665 24.3601V23.3601H79.2985V24.3601V25.3601H88.8665V24.3601ZM79.2985 24.3601L79.7987 23.4942L76.0867 21.3502L75.5865 22.2161L75.0864 23.082L78.7984 25.226L79.2985 24.3601ZM75.5865 22.2161H76.5865V10.3441H75.5865H74.5865V22.2161H75.5865ZM75.5865 10.3441L76.0867 11.21L79.7987 9.06604L79.2985 8.20011L78.7984 7.33417L75.0864 9.47817L75.5865 10.3441ZM79.2985 8.20011V9.20011H85.1545V8.20011V7.20011H79.2985V8.20011ZM85.1545 8.20011L84.6544 9.06604L88.3664 11.21L88.8665 10.3441L89.3667 9.47817L85.6547 7.33417L85.1545 8.20011ZM88.8665 10.3441H87.8665V17.9921H88.8665H89.8665V10.3441H88.8665ZM88.8665 17.9921V16.9921H79.9705V17.9921V18.9921H88.8665V17.9921ZM79.9705 17.9921H78.9705V20.6161H79.9705H80.9705V17.9921H79.9705ZM79.9705 20.6161V21.6161H88.8665V20.6161V19.6161H79.9705V20.6161ZM79.9705 11.9441H78.9705V14.6961H79.9705H80.9705V11.9441H79.9705ZM79.9705 14.6961V15.6961H84.4825V14.6961V13.6961H79.9705V14.6961ZM84.4825 14.6961H85.4825V11.9441H84.4825H83.4825V14.6961H84.4825ZM84.4825 11.9441V10.9441H79.9705V11.9441V12.9441H84.4825V11.9441ZM112.681 1.96011L113.623 1.62377L113.385 0.960106H112.681V1.96011ZM120.681 24.3601V25.3601H122.1L121.623 24.0238L120.681 24.3601ZM116.265 24.3601L115.321 24.6913L115.556 25.3601H116.265V24.3601ZM114.569 19.5281L115.512 19.1969L115.278 18.5281H114.569V19.5281ZM106.185 19.5281V18.5281H105.476L105.241 19.1969L106.185 19.5281ZM104.489 24.3601V25.3601H105.198L105.432 24.6913L104.489 24.3601ZM100.073 24.3601L99.131 24.0238L98.6538 25.3601H100.073V24.3601ZM108.073 1.96011V0.960106H107.368L107.131 1.62377L108.073 1.96011ZM110.345 7.59211V6.59211H109.634L109.4 7.26359L110.345 7.59211ZM107.529 15.6881L106.584 15.3596L106.122 16.6881H107.529V15.6881ZM113.193 15.6881V16.6881H114.594L114.138 15.3629L113.193 15.6881ZM110.409 7.59211L111.354 7.26692L111.122 6.59211H110.409V7.59211ZM112.681 1.96011L111.739 2.29644L119.739 24.6964L120.681 24.3601L121.623 24.0238L113.623 1.62377L112.681 1.96011ZM120.681 24.3601V23.3601H116.265V24.3601V25.3601H120.681V24.3601ZM116.265 24.3601L117.208 24.0289L115.512 19.1969L114.569 19.5281L113.625 19.8593L115.321 24.6913L116.265 24.3601ZM114.569 19.5281V18.5281H106.185V19.5281V20.5281H114.569V19.5281ZM106.185 19.5281L105.241 19.1969L103.545 24.0289L104.489 24.3601L105.432 24.6913L107.128 19.8593L106.185 19.5281ZM104.489 24.3601V23.3601H100.073V24.3601V25.3601H104.489V24.3601ZM100.073 24.3601L101.015 24.6964L109.015 2.29644L108.073 1.96011L107.131 1.62377L99.131 24.0238L100.073 24.3601ZM108.073 1.96011V2.96011H112.681V1.96011V0.960106H108.073V1.96011ZM110.345 7.59211L109.4 7.26359L106.584 15.3596L107.529 15.6881L108.473 16.0166L111.289 7.92063L110.345 7.59211ZM107.529 15.6881V16.6881H113.193V15.6881V14.6881H107.529V15.6881ZM113.193 15.6881L114.138 15.3629L111.354 7.26692L110.409 7.59211L109.463 7.91729L112.247 16.0133L113.193 15.6881ZM110.409 7.59211V6.59211H110.345V7.59211V8.59211H110.409V7.59211ZM133.443 12.1041V13.1041H134.443V12.1041H133.443ZM127.939 12.1041V11.1041H126.939V12.1041H127.939ZM127.939 24.3601V25.3601H128.939V24.3601H127.939ZM123.555 24.3601H122.555V25.3601H123.555V24.3601ZM123.555 8.36011V7.36011H122.555V8.36011H123.555ZM127.171 8.36011L128.034 7.85493L127.745 7.36011H127.171V8.36011ZM127.939 9.67211L127.076 10.1773L127.578 11.0352L128.439 10.5381L127.939 9.67211ZM130.211 8.36011V7.36011H129.943L129.711 7.49413L130.211 8.36011ZM133.443 8.36011H134.443V7.36011H133.443V8.36011ZM133.443 12.1041V11.1041H127.939V12.1041V13.1041H133.443V12.1041ZM127.939 12.1041H126.939V24.3601H127.939H128.939V12.1041H127.939ZM127.939 24.3601V23.3601H123.555V24.3601V25.3601H127.939V24.3601ZM123.555 24.3601H124.555V8.36011H123.555H122.555V24.3601H123.555ZM123.555 8.36011V9.36011H127.171V8.36011V7.36011H123.555V8.36011ZM127.171 8.36011L126.308 8.86529L127.076 10.1773L127.939 9.67211L128.802 9.16693L128.034 7.85493L127.171 8.36011ZM127.939 9.67211L128.439 10.5381L130.711 9.22609L130.211 8.36011L129.711 7.49413L127.439 8.80612L127.939 9.67211ZM130.211 8.36011V9.36011H133.443V8.36011V7.36011H130.211V8.36011ZM133.443 8.36011H132.443V12.1041H133.443H134.443V8.36011H133.443ZM143.305 8.20011V7.20011H143.037L142.805 7.33413L143.305 8.20011ZM147.497 8.20011L147.997 7.33417L147.765 7.20011H147.497V8.20011ZM151.209 10.3441H152.209V9.76687L151.709 9.47817L151.209 10.3441ZM151.209 22.3761L151.709 23.242L152.209 22.9533V22.3761H151.209ZM147.497 24.5201V25.5201H147.765L147.997 25.386L147.497 24.5201ZM143.305 24.5201L142.805 25.3861L143.037 25.5201H143.305V24.5201ZM141.033 23.2081L141.533 22.3421L141.033 22.0533L140.533 22.3421L141.033 23.2081ZM138.761 24.5201V25.5201H139.029L139.261 25.3861L138.761 24.5201ZM136.649 24.5201H135.649V25.5201H136.649V24.5201ZM136.649 1.00011V0.000106812H135.649V1.00011H136.649ZM141.033 1.00011H142.033V0.000106812H141.033V1.00011ZM141.033 9.51211H140.033V11.2443L141.533 10.3781L141.033 9.51211ZM141.033 11.9441V10.9441H140.033V11.9441H141.033ZM141.033 20.7761H140.033V21.7761H141.033V20.7761ZM146.825 20.7761V21.7761H147.825V20.7761H146.825ZM146.825 11.9441H147.825V10.9441H146.825V11.9441ZM143.305 8.20011V9.20011H147.497V8.20011V7.20011H143.305V8.20011ZM147.497 8.20011L146.997 9.06604L150.709 11.21L151.209 10.3441L151.709 9.47817L147.997 7.33417L147.497 8.20011ZM151.209 10.3441H150.209V22.3761H151.209H152.209V10.3441H151.209ZM151.209 22.3761L150.709 21.5102L146.997 23.6542L147.497 24.5201L147.997 25.386L151.709 23.242L151.209 22.3761ZM147.497 24.5201V23.5201H143.305V24.5201V25.5201H147.497V24.5201ZM143.305 24.5201L143.805 23.6541L141.533 22.3421L141.033 23.2081L140.533 24.0741L142.805 25.3861L143.305 24.5201ZM141.033 23.2081L140.533 22.3421L138.261 23.6541L138.761 24.5201L139.261 25.3861L141.533 24.0741L141.033 23.2081ZM138.761 24.5201V23.5201H136.649V24.5201V25.5201H138.761V24.5201ZM136.649 24.5201H137.649V1.00011H136.649H135.649V24.5201H136.649ZM136.649 1.00011V2.00011H141.033V1.00011V0.000106812H136.649V1.00011ZM141.033 1.00011H140.033V9.51211H141.033H142.033V1.00011H141.033ZM141.033 9.51211L141.533 10.3781L143.805 9.06609L143.305 8.20011L142.805 7.33413L140.533 8.64612L141.033 9.51211ZM141.033 11.9441H140.033V20.7761H141.033H142.033V11.9441H141.033ZM141.033 20.7761V21.7761H146.825V20.7761V19.7761H141.033V20.7761ZM146.825 20.7761H147.825V11.9441H146.825H145.825V20.7761H146.825ZM146.825 11.9441V10.9441H141.033V11.9441V12.9441H146.825V11.9441ZM169.304 20.6161H170.304V19.6161H169.304V20.6161ZM169.304 24.3601V25.3601H170.304V24.3601H169.304ZM159.736 24.3601L159.236 25.226L159.468 25.3601H159.736V24.3601ZM156.024 22.2161H155.024V22.7933L155.524 23.082L156.024 22.2161ZM156.024 10.3441L155.524 9.47817L155.024 9.76687V10.3441H156.024ZM159.736 8.20011V7.20011H159.468L159.236 7.33417L159.736 8.20011ZM165.592 8.20011L166.092 7.33417L165.86 7.20011H165.592V8.20011ZM169.304 10.3441H170.304V9.76687L169.804 9.47817L169.304 10.3441ZM169.304 17.9921V18.9921H170.304V17.9921H169.304ZM160.408 17.9921V16.9921H159.408V17.9921H160.408ZM160.408 20.6161H159.408V21.6161H160.408V20.6161ZM160.408 11.9441V10.9441H159.408V11.9441H160.408ZM160.408 14.6961H159.408V15.6961H160.408V14.6961ZM164.92 14.6961V15.6961H165.92V14.6961H164.92ZM164.92 11.9441H165.92V10.9441H164.92V11.9441ZM169.304 20.6161H168.304V24.3601H169.304H170.304V20.6161H169.304ZM169.304 24.3601V23.3601H159.736V24.3601V25.3601H169.304V24.3601ZM159.736 24.3601L160.236 23.4942L156.524 21.3502L156.024 22.2161L155.524 23.082L159.236 25.226L159.736 24.3601ZM156.024 22.2161H157.024V10.3441H156.024H155.024V22.2161H156.024ZM156.024 10.3441L156.524 11.21L160.236 9.06604L159.736 8.20011L159.236 7.33417L155.524 9.47817L156.024 10.3441ZM159.736 8.20011V9.20011H165.592V8.20011V7.20011H159.736V8.20011ZM165.592 8.20011L165.092 9.06604L168.804 11.21L169.304 10.3441L169.804 9.47817L166.092 7.33417L165.592 8.20011ZM169.304 10.3441H168.304V17.9921H169.304H170.304V10.3441H169.304ZM169.304 17.9921V16.9921H160.408V17.9921V18.9921H169.304V17.9921ZM160.408 17.9921H159.408V20.6161H160.408H161.408V17.9921H160.408ZM160.408 20.6161V21.6161H169.304V20.6161V19.6161H160.408V20.6161ZM160.408 11.9441H159.408V14.6961H160.408H161.408V11.9441H160.408ZM160.408 14.6961V15.6961H164.92V14.6961V13.6961H160.408V14.6961ZM164.92 14.6961H165.92V11.9441H164.92H163.92V14.6961H164.92ZM164.92 11.9441V10.9441H160.408V11.9441V12.9441H164.92V11.9441ZM178.502 8.36011H179.502V7.36011H178.502V8.36011ZM178.502 24.3601V25.3601H179.502V24.3601H178.502ZM174.118 24.3601H173.118V25.3601H174.118V24.3601ZM174.118 8.36011V7.36011H173.118V8.36011H174.118ZM173.958 5.38411H172.958V6.38411H173.958V5.38411ZM173.958 1.00011V0.000106812H172.958V1.00011H173.958ZM178.662 1.00011H179.662V0.000106812H178.662V1.00011ZM178.662 5.38411V6.38411H179.662V5.38411H178.662ZM178.502 8.36011H177.502V24.3601H178.502H179.502V8.36011H178.502ZM178.502 24.3601V23.3601H174.118V24.3601V25.3601H178.502V24.3601ZM174.118 24.3601H175.118V8.36011H174.118H173.118V24.3601H174.118ZM174.118 8.36011V9.36011H178.502V8.36011V7.36011H174.118V8.36011ZM173.958 5.38411H174.958V1.00011H173.958H172.958V5.38411H173.958ZM173.958 1.00011V2.00011H178.662V1.00011V0.000106812H173.958V1.00011ZM178.662 1.00011H177.662V5.38411H178.662H179.662V1.00011H178.662ZM178.662 5.38411V4.38411H173.958V5.38411V6.38411H178.662V5.38411ZM182.025 12.1041H181.025V13.1041H182.025V12.1041ZM182.025 8.36011V7.36011H181.025V8.36011H182.025ZM184.969 8.36011V9.36011H185.969V8.36011H184.969ZM184.969 5.67211L184.47 4.80581L183.969 5.0944V5.67211H184.969ZM189.353 3.14411H190.353V1.41312L188.854 2.27781L189.353 3.14411ZM189.353 8.36011H188.353V9.36011H189.353V8.36011ZM192.873 8.36011H193.873V7.36011H192.873V8.36011ZM192.873 12.1041V13.1041H193.873V12.1041H192.873ZM189.353 12.1041V11.1041H188.353V12.1041H189.353ZM189.353 20.6161H188.353V21.6161H189.353V20.6161ZM192.873 20.6161H193.873V19.6161H192.873V20.6161ZM192.873 24.3601V25.3601H193.873V24.3601H192.873ZM188.681 24.3601L188.181 25.226L188.413 25.3601H188.681V24.3601ZM184.969 22.2161H183.969V22.7933L184.469 23.082L184.969 22.2161ZM184.969 12.1041H185.969V11.1041H184.969V12.1041ZM182.025 12.1041H183.025V8.36011H182.025H181.025V12.1041H182.025ZM182.025 8.36011V9.36011H184.969V8.36011V7.36011H182.025V8.36011ZM184.969 8.36011H185.969V5.67211H184.969H183.969V8.36011H184.969ZM184.969 5.67211L185.469 6.5384L189.853 4.0104L189.353 3.14411L188.854 2.27781L184.47 4.80581L184.969 5.67211ZM189.353 3.14411H188.353V8.36011H189.353H190.353V3.14411H189.353ZM189.353 8.36011V9.36011H192.873V8.36011V7.36011H189.353V8.36011ZM192.873 8.36011H191.873V12.1041H192.873H193.873V8.36011H192.873ZM192.873 12.1041V11.1041H189.353V12.1041V13.1041H192.873V12.1041ZM189.353 12.1041H188.353V20.6161H189.353H190.353V12.1041H189.353ZM189.353 20.6161V21.6161H192.873V20.6161V19.6161H189.353V20.6161ZM192.873 20.6161H191.873V24.3601H192.873H193.873V20.6161H192.873ZM192.873 24.3601V23.3601H188.681V24.3601V25.3601H192.873V24.3601ZM188.681 24.3601L189.181 23.4942L185.469 21.3502L184.969 22.2161L184.469 23.082L188.181 25.226L188.681 24.3601ZM184.969 22.2161H185.969V12.1041H184.969H183.969V22.2161H184.969ZM184.969 12.1041V11.1041H182.025V12.1041V13.1041H184.969V12.1041Z" fill="#B5E93B" mask="url(#path-1-outside-1_3129_3479)"/>
</svg>
