<svg width="113" height="17" viewBox="0 0 113 17" fill="none" xmlns="http://www.w3.org/2000/svg">
<path d="M6.57784 2.64V16.06H4.37784V2.64H-0.000156224V0.659997H10.9558V2.64H6.57784ZM22.0574 14.146V16.06H15.9194L13.3674 14.586V6.424L15.9194 4.95H19.5054L22.0574 6.424V11.308H15.5014V14.146H22.0574ZM15.5014 6.864V9.394H19.9234V6.864H15.5014ZM27.2645 11.55V14.256H31.6865V11.55H27.2645ZM27.6825 16.17L25.1305 14.696V11.11L27.6825 9.636H31.6865V6.974H26.2305V5.06H31.2685L33.8205 6.534V16.17H33.2485L31.6865 15.268L30.1245 16.17H27.6825ZM52.15 6.424V16.06H50.016V6.864H45.814V16.06H43.68V6.864H39.478V16.06H37.344V4.95H38.95L39.478 5.852L41.04 4.95H43.262L45.308 6.138L47.376 4.95H49.598L52.15 6.424ZM57.3642 11.55V14.256H61.7862V11.55H57.3642ZM57.7822 16.17L55.2302 14.696V11.11L57.7822 9.636H61.7862V6.974H56.3302V5.06H61.3682L63.9202 6.534V16.17H63.3482L61.7862 15.268L60.2242 16.17H57.7822ZM73.5816 6.974H69.5776V16.06H67.4436V5.06H69.0496L69.5776 5.962L71.1396 5.06H73.5816V6.974ZM79.6904 4.95H83.0124L85.5644 6.424V14.696L83.0124 16.17H79.6904L78.1284 15.268L76.5664 16.17H75.9944V-2.86102e-06H78.1284V5.852L79.6904 4.95ZM78.1284 6.864V14.256H83.4304V6.864H78.1284ZM97.7684 14.146V16.06H91.6304L89.0784 14.586V6.424L91.6304 4.95H95.2164L97.7684 6.424V11.308H91.2124V14.146H97.7684ZM91.2124 6.864V9.394H95.6344V6.864H91.2124ZM103.415 5.06V16.06H101.281V5.06H103.415ZM101.171 2.354V-2.86102e-06H103.525V2.354H101.171ZM106.052 6.974V5.06H108.076V3.212L110.21 1.98V5.06H112.85V6.974H110.21V14.146H112.85V16.06H110.628L108.076 14.586V6.974H106.052Z" fill="#B5E93B"/>
</svg>
