<svg width="160" height="26" viewBox="0 0 160 26" fill="none" xmlns="http://www.w3.org/2000/svg">
<mask id="path-1-outside-1_3129_3505" maskUnits="userSpaceOnUse" x="-0.513672" y="-0.639893" width="161" height="27" fill="black">
<rect fill="white" x="-0.513672" y="-0.639893" width="161" height="27"/>
<path d="M30.4063 1.96011L24.7103 24.3601H19.9103L15.8783 9.22411H15.8143L11.7823 24.3601H6.98233L1.28633 1.96011H5.63833L9.41433 17.3201H9.47833L13.5743 1.96011H18.1183L22.2143 17.2561H22.2783L26.0543 1.96011H30.4063ZM37.3491 18.0561V20.8401H41.8611V18.0561H37.3491ZM36.6771 24.5201L32.9651 22.3761V16.8401L36.6771 14.6961H41.8611V12.1041H34.5651V8.36011H42.5331L46.2451 10.5041V24.5201H44.1331L41.8611 23.2081L39.5891 24.5201H36.6771ZM60.9306 12.1041H55.4266V24.3601H51.0426V8.36011H54.6586L55.4266 9.67211L57.6986 8.36011H60.9306V12.1041ZM64.1363 22.3761V8.36011H68.5203V20.7761H73.9923V8.36011H78.3763V24.5201H74.7603L73.9923 23.2081L71.7203 24.5201H67.8483L64.1363 22.3761ZM105.664 10.3441V24.3601H101.28V11.9441H96.6076V24.3601H92.2236V11.9441H87.5516V24.3601H83.1676V8.20011H86.7836L87.5516 9.51211L89.8236 8.20011H92.8956L95.8716 9.92811L98.8796 8.20011H101.952L105.664 10.3441ZM123.145 8.36011V24.3601H118.761V8.36011H123.145ZM118.601 5.38411V1.00011H123.305V5.38411H118.601ZM132.333 12.1041V20.6161H140.269V24.3601H131.661L127.949 22.2161V10.5041L131.661 8.36011H140.269V12.1041H132.333ZM148.802 24.3601H144.418V1.00011H148.802V9.51211L151.074 8.20011H155.266L158.978 10.3441V24.3601H154.594V11.9441H148.802V24.3601Z"/>
</mask>
<path d="M30.4063 1.96011L31.3755 2.20655L31.6924 0.960106H30.4063V1.96011ZM24.7103 24.3601V25.3601H25.4879L25.6795 24.6066L24.7103 24.3601ZM19.9103 24.3601L18.944 24.6175L19.1418 25.3601H19.9103V24.3601ZM15.8783 9.22411L16.8446 8.9667L16.6468 8.22411H15.8783V9.22411ZM15.8143 9.22411V8.22411H15.0458L14.848 8.9667L15.8143 9.22411ZM11.7823 24.3601V25.3601H12.5508L12.7486 24.6175L11.7823 24.3601ZM6.98233 24.3601L6.01317 24.6066L6.20479 25.3601H6.98233V24.3601ZM1.28633 1.96011V0.960106H0.000218213L0.317171 2.20655L1.28633 1.96011ZM5.63833 1.96011L6.60942 1.72138L6.42227 0.960106H5.63833V1.96011ZM9.41433 17.3201L8.44324 17.5588L8.63039 18.3201H9.41433V17.3201ZM9.47833 17.3201V18.3201H10.2466L10.4446 17.5778L9.47833 17.3201ZM13.5743 1.96011V0.960106H12.8061L12.6081 1.70244L13.5743 1.96011ZM18.1183 1.96011L19.0843 1.70144L18.8858 0.960106H18.1183V1.96011ZM22.2143 17.2561L21.2484 17.5148L21.4469 18.2561H22.2143V17.2561ZM22.2783 17.2561V18.2561H23.0615L23.2492 17.4958L22.2783 17.2561ZM26.0543 1.96011V0.960106H25.2712L25.0835 1.72044L26.0543 1.96011ZM30.4063 1.96011L29.4372 1.71366L23.7412 24.1137L24.7103 24.3601L25.6795 24.6066L31.3755 2.20655L30.4063 1.96011ZM24.7103 24.3601V23.3601H19.9103V24.3601V25.3601H24.7103V24.3601ZM19.9103 24.3601L20.8766 24.1027L16.8446 8.9667L15.8783 9.22411L14.912 9.48151L18.944 24.6175L19.9103 24.3601ZM15.8783 9.22411V8.22411H15.8143V9.22411V10.2241H15.8783V9.22411ZM15.8143 9.22411L14.848 8.9667L10.816 24.1027L11.7823 24.3601L12.7486 24.6175L16.7806 9.48151L15.8143 9.22411ZM11.7823 24.3601V23.3601H6.98233V24.3601V25.3601H11.7823V24.3601ZM6.98233 24.3601L7.95149 24.1137L2.25549 1.71366L1.28633 1.96011L0.317171 2.20655L6.01317 24.6066L6.98233 24.3601ZM1.28633 1.96011V2.96011H5.63833V1.96011V0.960106H1.28633V1.96011ZM5.63833 1.96011L4.66724 2.19883L8.44324 17.5588L9.41433 17.3201L10.3854 17.0814L6.60942 1.72138L5.63833 1.96011ZM9.41433 17.3201V18.3201H9.47833V17.3201V16.3201H9.41433V17.3201ZM9.47833 17.3201L10.4446 17.5778L14.5406 2.21777L13.5743 1.96011L12.6081 1.70244L8.51209 17.0624L9.47833 17.3201ZM13.5743 1.96011V2.96011H18.1183V1.96011V0.960106H13.5743V1.96011ZM18.1183 1.96011L17.1524 2.21877L21.2484 17.5148L22.2143 17.2561L23.1803 16.9974L19.0843 1.70144L18.1183 1.96011ZM22.2143 17.2561V18.2561H22.2783V17.2561V16.2561H22.2143V17.2561ZM22.2783 17.2561L23.2492 17.4958L27.0252 2.19977L26.0543 1.96011L25.0835 1.72044L21.3075 17.0164L22.2783 17.2561ZM26.0543 1.96011V2.96011H30.4063V1.96011V0.960106H26.0543V1.96011ZM37.3491 18.0561V17.0561H36.3491V18.0561H37.3491ZM37.3491 20.8401H36.3491V21.8401H37.3491V20.8401ZM41.8611 20.8401V21.8401H42.8611V20.8401H41.8611ZM41.8611 18.0561H42.8611V17.0561H41.8611V18.0561ZM36.6771 24.5201L36.1769 25.386L36.409 25.5201H36.6771V24.5201ZM32.9651 22.3761H31.9651V22.9533L32.4649 23.242L32.9651 22.3761ZM32.9651 16.8401L32.4649 15.9742L31.9651 16.2629V16.8401H32.9651ZM36.6771 14.6961V13.6961H36.409L36.1769 13.8302L36.6771 14.6961ZM41.8611 14.6961V15.6961H42.8611V14.6961H41.8611ZM41.8611 12.1041H42.8611V11.1041H41.8611V12.1041ZM34.5651 12.1041H33.5651V13.1041H34.5651V12.1041ZM34.5651 8.36011V7.36011H33.5651V8.36011H34.5651ZM42.5331 8.36011L43.0332 7.49417L42.8011 7.36011H42.5331V8.36011ZM46.2451 10.5041H47.2451V9.92687L46.7452 9.63817L46.2451 10.5041ZM46.2451 24.5201V25.5201H47.2451V24.5201H46.2451ZM44.1331 24.5201L43.633 25.3861L43.8651 25.5201H44.1331V24.5201ZM41.8611 23.2081L42.3612 22.3421L41.8611 22.0533L41.361 22.3421L41.8611 23.2081ZM39.5891 24.5201V25.5201H39.8571L40.0892 25.3861L39.5891 24.5201ZM37.3491 18.0561H36.3491V20.8401H37.3491H38.3491V18.0561H37.3491ZM37.3491 20.8401V21.8401H41.8611V20.8401V19.8401H37.3491V20.8401ZM41.8611 20.8401H42.8611V18.0561H41.8611H40.8611V20.8401H41.8611ZM41.8611 18.0561V17.0561H37.3491V18.0561V19.0561H41.8611V18.0561ZM36.6771 24.5201L37.1772 23.6542L33.4652 21.5102L32.9651 22.3761L32.4649 23.242L36.1769 25.386L36.6771 24.5201ZM32.9651 22.3761H33.9651V16.8401H32.9651H31.9651V22.3761H32.9651ZM32.9651 16.8401L33.4652 17.706L37.1772 15.562L36.6771 14.6961L36.1769 13.8302L32.4649 15.9742L32.9651 16.8401ZM36.6771 14.6961V15.6961H41.8611V14.6961V13.6961H36.6771V14.6961ZM41.8611 14.6961H42.8611V12.1041H41.8611H40.8611V14.6961H41.8611ZM41.8611 12.1041V11.1041H34.5651V12.1041V13.1041H41.8611V12.1041ZM34.5651 12.1041H35.5651V8.36011H34.5651H33.5651V12.1041H34.5651ZM34.5651 8.36011V9.36011H42.5331V8.36011V7.36011H34.5651V8.36011ZM42.5331 8.36011L42.0329 9.22604L45.7449 11.37L46.2451 10.5041L46.7452 9.63817L43.0332 7.49417L42.5331 8.36011ZM46.2451 10.5041H45.2451V24.5201H46.2451H47.2451V10.5041H46.2451ZM46.2451 24.5201V23.5201H44.1331V24.5201V25.5201H46.2451V24.5201ZM44.1331 24.5201L44.6332 23.6541L42.3612 22.3421L41.8611 23.2081L41.361 24.0741L43.633 25.3861L44.1331 24.5201ZM41.8611 23.2081L41.361 22.3421L39.089 23.6541L39.5891 24.5201L40.0892 25.3861L42.3612 24.0741L41.8611 23.2081ZM39.5891 24.5201V23.5201H36.6771V24.5201V25.5201H39.5891V24.5201ZM60.9306 12.1041V13.1041H61.9306V12.1041H60.9306ZM55.4266 12.1041V11.1041H54.4266V12.1041H55.4266ZM55.4266 24.3601V25.3601H56.4266V24.3601H55.4266ZM51.0426 24.3601H50.0426V25.3601H51.0426V24.3601ZM51.0426 8.36011V7.36011H50.0426V8.36011H51.0426ZM54.6586 8.36011L55.5216 7.85493L55.2319 7.36011H54.6586V8.36011ZM55.4266 9.67211L54.5636 10.1773L55.0658 11.0352L55.9267 10.5381L55.4266 9.67211ZM57.6986 8.36011V7.36011H57.4306L57.1985 7.49413L57.6986 8.36011ZM60.9306 8.36011H61.9306V7.36011H60.9306V8.36011ZM60.9306 12.1041V11.1041H55.4266V12.1041V13.1041H60.9306V12.1041ZM55.4266 12.1041H54.4266V24.3601H55.4266H56.4266V12.1041H55.4266ZM55.4266 24.3601V23.3601H51.0426V24.3601V25.3601H55.4266V24.3601ZM51.0426 24.3601H52.0426V8.36011H51.0426H50.0426V24.3601H51.0426ZM51.0426 8.36011V9.36011H54.6586V8.36011V7.36011H51.0426V8.36011ZM54.6586 8.36011L53.7956 8.86529L54.5636 10.1773L55.4266 9.67211L56.2896 9.16693L55.5216 7.85493L54.6586 8.36011ZM55.4266 9.67211L55.9267 10.5381L58.1987 9.22609L57.6986 8.36011L57.1985 7.49413L54.9265 8.80612L55.4266 9.67211ZM57.6986 8.36011V9.36011H60.9306V8.36011V7.36011H57.6986V8.36011ZM60.9306 8.36011H59.9306V12.1041H60.9306H61.9306V8.36011H60.9306ZM64.1363 22.3761H63.1363V22.9533L63.6362 23.242L64.1363 22.3761ZM64.1363 8.36011V7.36011H63.1363V8.36011H64.1363ZM68.5203 8.36011H69.5203V7.36011H68.5203V8.36011ZM68.5203 20.7761H67.5203V21.7761H68.5203V20.7761ZM73.9923 20.7761V21.7761H74.9923V20.7761H73.9923ZM73.9923 8.36011V7.36011H72.9923V8.36011H73.9923ZM78.3763 8.36011H79.3763V7.36011H78.3763V8.36011ZM78.3763 24.5201V25.5201H79.3763V24.5201H78.3763ZM74.7603 24.5201L73.8973 25.0253L74.187 25.5201H74.7603V24.5201ZM73.9923 23.2081L74.8553 22.7029L74.3531 21.845L73.4923 22.3421L73.9923 23.2081ZM71.7203 24.5201V25.5201H71.9883L72.2204 25.3861L71.7203 24.5201ZM67.8483 24.5201L67.3482 25.386L67.5803 25.5201H67.8483V24.5201ZM64.1363 22.3761H65.1363V8.36011H64.1363H63.1363V22.3761H64.1363ZM64.1363 8.36011V9.36011H68.5203V8.36011V7.36011H64.1363V8.36011ZM68.5203 8.36011H67.5203V20.7761H68.5203H69.5203V8.36011H68.5203ZM68.5203 20.7761V21.7761H73.9923V20.7761V19.7761H68.5203V20.7761ZM73.9923 20.7761H74.9923V8.36011H73.9923H72.9923V20.7761H73.9923ZM73.9923 8.36011V9.36011H78.3763V8.36011V7.36011H73.9923V8.36011ZM78.3763 8.36011H77.3763V24.5201H78.3763H79.3763V8.36011H78.3763ZM78.3763 24.5201V23.5201H74.7603V24.5201V25.5201H78.3763V24.5201ZM74.7603 24.5201L75.6233 24.0149L74.8553 22.7029L73.9923 23.2081L73.1293 23.7133L73.8973 25.0253L74.7603 24.5201ZM73.9923 23.2081L73.4923 22.3421L71.2203 23.6541L71.7203 24.5201L72.2204 25.3861L74.4924 24.0741L73.9923 23.2081ZM71.7203 24.5201V23.5201H67.8483V24.5201V25.5201H71.7203V24.5201ZM67.8483 24.5201L68.3485 23.6542L64.6365 21.5102L64.1363 22.3761L63.6362 23.242L67.3482 25.386L67.8483 24.5201ZM105.664 10.3441H106.664V9.76687L106.164 9.47817L105.664 10.3441ZM105.664 24.3601V25.3601H106.664V24.3601H105.664ZM101.28 24.3601H100.28V25.3601H101.28V24.3601ZM101.28 11.9441H102.28V10.9441H101.28V11.9441ZM96.6076 11.9441V10.9441H95.6076V11.9441H96.6076ZM96.6076 24.3601V25.3601H97.6076V24.3601H96.6076ZM92.2236 24.3601H91.2236V25.3601H92.2236V24.3601ZM92.2236 11.9441H93.2236V10.9441H92.2236V11.9441ZM87.5516 11.9441V10.9441H86.5516V11.9441H87.5516ZM87.5516 24.3601V25.3601H88.5516V24.3601H87.5516ZM83.1676 24.3601H82.1676V25.3601H83.1676V24.3601ZM83.1676 8.20011V7.20011H82.1676V8.20011H83.1676ZM86.7836 8.20011L87.6466 7.69493L87.3569 7.20011H86.7836V8.20011ZM87.5516 9.51211L86.6886 10.0173L87.1908 10.8752L88.0517 10.3781L87.5516 9.51211ZM89.8236 8.20011V7.20011H89.5556L89.3235 7.33413L89.8236 8.20011ZM92.8956 8.20011L93.3977 7.33532L93.1648 7.20011H92.8956V8.20011ZM95.8716 9.92811L95.3694 10.7929L95.8689 11.0829L96.3697 10.7952L95.8716 9.92811ZM98.8796 8.20011V7.20011H98.6128L98.3815 7.333L98.8796 8.20011ZM101.952 8.20011L102.452 7.33417L102.22 7.20011H101.952V8.20011ZM105.664 10.3441H104.664V24.3601H105.664H106.664V10.3441H105.664ZM105.664 24.3601V23.3601H101.28V24.3601V25.3601H105.664V24.3601ZM101.28 24.3601H102.28V11.9441H101.28H100.28V24.3601H101.28ZM101.28 11.9441V10.9441H96.6076V11.9441V12.9441H101.28V11.9441ZM96.6076 11.9441H95.6076V24.3601H96.6076H97.6076V11.9441H96.6076ZM96.6076 24.3601V23.3601H92.2236V24.3601V25.3601H96.6076V24.3601ZM92.2236 24.3601H93.2236V11.9441H92.2236H91.2236V24.3601H92.2236ZM92.2236 11.9441V10.9441H87.5516V11.9441V12.9441H92.2236V11.9441ZM87.5516 11.9441H86.5516V24.3601H87.5516H88.5516V11.9441H87.5516ZM87.5516 24.3601V23.3601H83.1676V24.3601V25.3601H87.5516V24.3601ZM83.1676 24.3601H84.1676V8.20011H83.1676H82.1676V24.3601H83.1676ZM83.1676 8.20011V9.20011H86.7836V8.20011V7.20011H83.1676V8.20011ZM86.7836 8.20011L85.9206 8.70529L86.6886 10.0173L87.5516 9.51211L88.4146 9.00693L87.6466 7.69493L86.7836 8.20011ZM87.5516 9.51211L88.0517 10.3781L90.3237 9.06609L89.8236 8.20011L89.3235 7.33413L87.0515 8.64612L87.5516 9.51211ZM89.8236 8.20011V9.20011H92.8956V8.20011V7.20011H89.8236V8.20011ZM92.8956 8.20011L92.3934 9.0649L95.3694 10.7929L95.8716 9.92811L96.3737 9.06332L93.3977 7.33532L92.8956 8.20011ZM95.8716 9.92811L96.3697 10.7952L99.3777 9.06721L98.8796 8.20011L98.3815 7.333L95.3735 9.061L95.8716 9.92811ZM98.8796 8.20011V9.20011H101.952V8.20011V7.20011H98.8796V8.20011ZM101.952 8.20011L101.451 9.06604L105.163 11.21L105.664 10.3441L106.164 9.47817L102.452 7.33417L101.952 8.20011ZM123.145 8.36011H124.145V7.36011H123.145V8.36011ZM123.145 24.3601V25.3601H124.145V24.3601H123.145ZM118.761 24.3601H117.761V25.3601H118.761V24.3601ZM118.761 8.36011V7.36011H117.761V8.36011H118.761ZM118.601 5.38411H117.601V6.38411H118.601V5.38411ZM118.601 1.00011V0.000106812H117.601V1.00011H118.601ZM123.305 1.00011H124.305V0.000106812H123.305V1.00011ZM123.305 5.38411V6.38411H124.305V5.38411H123.305ZM123.145 8.36011H122.145V24.3601H123.145H124.145V8.36011H123.145ZM123.145 24.3601V23.3601H118.761V24.3601V25.3601H123.145V24.3601ZM118.761 24.3601H119.761V8.36011H118.761H117.761V24.3601H118.761ZM118.761 8.36011V9.36011H123.145V8.36011V7.36011H118.761V8.36011ZM118.601 5.38411H119.601V1.00011H118.601H117.601V5.38411H118.601ZM118.601 1.00011V2.00011H123.305V1.00011V0.000106812H118.601V1.00011ZM123.305 1.00011H122.305V5.38411H123.305H124.305V1.00011H123.305ZM123.305 5.38411V4.38411H118.601V5.38411V6.38411H123.305V5.38411ZM132.333 12.1041V11.1041H131.333V12.1041H132.333ZM132.333 20.6161H131.333V21.6161H132.333V20.6161ZM140.269 20.6161H141.269V19.6161H140.269V20.6161ZM140.269 24.3601V25.3601H141.269V24.3601H140.269ZM131.661 24.3601L131.161 25.226L131.393 25.3601H131.661V24.3601ZM127.949 22.2161H126.949V22.7933L127.449 23.082L127.949 22.2161ZM127.949 10.5041L127.449 9.63817L126.949 9.92687V10.5041H127.949ZM131.661 8.36011V7.36011H131.393L131.161 7.49417L131.661 8.36011ZM140.269 8.36011H141.269V7.36011H140.269V8.36011ZM140.269 12.1041V13.1041H141.269V12.1041H140.269ZM132.333 12.1041H131.333V20.6161H132.333H133.333V12.1041H132.333ZM132.333 20.6161V21.6161H140.269V20.6161V19.6161H132.333V20.6161ZM140.269 20.6161H139.269V24.3601H140.269H141.269V20.6161H140.269ZM140.269 24.3601V23.3601H131.661V24.3601V25.3601H140.269V24.3601ZM131.661 24.3601L132.161 23.4942L128.449 21.3502L127.949 22.2161L127.449 23.082L131.161 25.226L131.661 24.3601ZM127.949 22.2161H128.949V10.5041H127.949H126.949V22.2161H127.949ZM127.949 10.5041L128.449 11.37L132.161 9.22604L131.661 8.36011L131.161 7.49417L127.449 9.63817L127.949 10.5041ZM131.661 8.36011V9.36011H140.269V8.36011V7.36011H131.661V8.36011ZM140.269 8.36011H139.269V12.1041H140.269H141.269V8.36011H140.269ZM140.269 12.1041V11.1041H132.333V12.1041V13.1041H140.269V12.1041ZM148.802 24.3601V25.3601H149.802V24.3601H148.802ZM144.418 24.3601H143.418V25.3601H144.418V24.3601ZM144.418 1.00011V0.000106812H143.418V1.00011H144.418ZM148.802 1.00011H149.802V0.000106812H148.802V1.00011ZM148.802 9.51211H147.802V11.2443L149.302 10.3781L148.802 9.51211ZM151.074 8.20011V7.20011H150.806L150.574 7.33413L151.074 8.20011ZM155.266 8.20011L155.766 7.33417L155.534 7.20011H155.266V8.20011ZM158.978 10.3441H159.978V9.76687L159.478 9.47817L158.978 10.3441ZM158.978 24.3601V25.3601H159.978V24.3601H158.978ZM154.594 24.3601H153.594V25.3601H154.594V24.3601ZM154.594 11.9441H155.594V10.9441H154.594V11.9441ZM148.802 11.9441V10.9441H147.802V11.9441H148.802ZM148.802 24.3601V23.3601H144.418V24.3601V25.3601H148.802V24.3601ZM144.418 24.3601H145.418V1.00011H144.418H143.418V24.3601H144.418ZM144.418 1.00011V2.00011H148.802V1.00011V0.000106812H144.418V1.00011ZM148.802 1.00011H147.802V9.51211H148.802H149.802V1.00011H148.802ZM148.802 9.51211L149.302 10.3781L151.574 9.06609L151.074 8.20011L150.574 7.33413L148.301 8.64612L148.802 9.51211ZM151.074 8.20011V9.20011H155.266V8.20011V7.20011H151.074V8.20011ZM155.266 8.20011L154.765 9.06604L158.477 11.21L158.978 10.3441L159.478 9.47817L155.766 7.33417L155.266 8.20011ZM158.978 10.3441H157.978V24.3601H158.978H159.978V10.3441H158.978ZM158.978 24.3601V23.3601H154.594V24.3601V25.3601H158.978V24.3601ZM154.594 24.3601H155.594V11.9441H154.594H153.594V24.3601H154.594ZM154.594 11.9441V10.9441H148.802V11.9441V12.9441H154.594V11.9441ZM148.802 11.9441H147.802V24.3601H148.802H149.802V11.9441H148.802Z" fill="#B5E93B" mask="url(#path-1-outside-1_3129_3505)"/>
</svg>
