<svg width="40" height="40" viewBox="0 0 40 40" fill="none" xmlns="http://www.w3.org/2000/svg">
<mask id="mask0_62121_3826" style="mask-type:alpha" maskUnits="userSpaceOnUse" x="4" y="4" width="32" height="32">
<rect x="4" y="4" width="32" height="32" fill="#D9D9D9"/>
</mask>
<g mask="url(#mask0_62121_3826)">
<path d="M13.2288 20.6667L20.4798 27.918C20.6098 28.0478 20.6778 28.2008 20.6838 28.377C20.6898 28.553 20.6192 28.7146 20.4721 28.8617C20.3252 29.0034 20.168 29.0757 20.0005 29.0783C19.8329 29.0808 19.6757 29.0086 19.5288 28.8617L11.4211 20.754C11.3047 20.6376 11.223 20.5187 11.1761 20.3973C11.129 20.276 11.1055 20.1436 11.1055 20C11.1055 19.8564 11.129 19.724 11.1761 19.6027C11.223 19.4813 11.3047 19.3624 11.4211 19.246L19.5288 11.1383C19.6535 11.0137 19.8051 10.947 19.9838 10.9383C20.1625 10.9299 20.3252 10.9966 20.4721 11.1383C20.6192 11.2854 20.6928 11.444 20.6928 11.614C20.6928 11.7842 20.6192 11.9428 20.4721 12.0897L13.2288 19.3333H28.6671C28.8569 19.3333 29.0155 19.397 29.1428 19.5243C29.2701 19.6517 29.3338 19.8102 29.3338 20C29.3338 20.1898 29.2701 20.3483 29.1428 20.4757C29.0155 20.603 28.8569 20.6667 28.6671 20.6667H13.2288Z" fill="white"/>
</g>
</svg>
