<svg width="57" height="291" viewBox="0 0 57 291" fill="none" xmlns="http://www.w3.org/2000/svg">
<mask id="path-1-outside-1_62121_3759" maskUnits="userSpaceOnUse" x="-0.580078" y="-0.438599" width="58" height="292" fill="black">
<rect fill="white" x="-0.580078" y="-0.438599" width="58" height="292"/>
<path d="M4.61992 266.285L42.4199 252.785V258.077L33.4559 261.263V278.003L42.4199 281.189V286.481L4.61992 272.981V266.285ZM9.96592 269.687L28.5959 276.275V262.991L9.96592 269.579V269.687ZM15.4199 245.492L37.4519 237.554V237.446L15.4199 229.454V224.324L42.4199 234.314V240.632L15.4199 250.622V245.492ZM15.4199 213.667H42.4199V218.905H15.4199V213.667ZM8.77792 219.175H2.99992L2.99992 213.397H8.77792V219.175ZM29.9999 184.732H38.8019L42.4199 190.996V205.036H37.7219V189.97H31.0799V198.772L27.4619 205.036H19.0379L15.4199 198.772V185.272H20.1179V199.798H26.3819V190.996L29.9999 184.732ZM39.0719 153.135L42.6899 159.399V169.821L39.0719 176.085H18.7679L15.1499 169.821V159.399L18.7679 153.135H39.0719ZM19.8479 170.847H37.9919V158.373H19.8479V170.847ZM42.4199 129.93H4.61992V124.53H37.5599L37.5599 110.544H42.4199L42.4199 129.93ZM37.7219 83.3001H42.4199V98.3661L38.8019 104.63H18.7679L15.1499 98.3661L15.1499 89.5641L18.7679 83.3001H30.7559V99.3921H37.7219V83.3001ZM19.8479 99.3921H26.0579V88.5381H19.8479L19.8479 99.3921ZM42.4199 69.4389L39.3959 74.6769H34.5359L32.3219 70.8429L30.1079 74.6769H19.0379L15.4199 68.4129V51.1869H17.2559L20.1179 56.1009L22.0619 52.8069H29.5139L33.1319 59.0709V69.4389H37.7219V57.4509L41.3399 51.1869H49.8719L53.4899 57.4509V69.4929L49.8719 75.7569H46.5239L43.4999 70.5189H48.8999V56.4249H42.4199V69.4389ZM20.0099 69.4389H28.5419V58.0449H20.0099V69.4389ZM31.3499 39.4584H37.9919V28.6044H31.3499V39.4584ZM42.6899 38.4324L39.0719 44.6964H30.2699L26.6519 38.4324V28.6044H20.1179L20.1179 41.9964H15.4199L15.4199 29.6304L19.0379 23.3664H42.6899V24.7704L40.4759 28.6044L42.6899 32.4384V38.4324ZM42.4199 8.45396L38.8019 14.718H2.99992V9.47996H37.7219L37.7219 2.99996H42.4199L42.4199 8.45396Z"/>
</mask>
<path d="M4.61992 266.285L3.61091 263.46L1.61992 264.171V266.285H4.61992ZM42.4199 252.785H45.4199V248.528L41.4109 249.96L42.4199 252.785ZM42.4199 258.077L43.4246 260.904L45.4199 260.195V258.077H42.4199ZM33.4559 261.263L32.4512 258.437L30.4559 259.146V261.263H33.4559ZM33.4559 278.003H30.4559V280.121L32.4512 280.83L33.4559 278.003ZM42.4199 281.189H45.4199V279.072L43.4246 278.363L42.4199 281.189ZM42.4199 286.481L41.4109 289.307L45.4199 290.738V286.481H42.4199ZM4.61992 272.981H1.61992L1.61992 275.096L3.61091 275.807L4.61992 272.981ZM9.96592 269.687H6.96592V271.809L8.96574 272.516L9.96592 269.687ZM28.5959 276.275L27.5957 279.104L31.5959 280.518V276.275H28.5959ZM28.5959 262.991H31.5959V258.748L27.5957 260.163L28.5959 262.991ZM9.96592 269.579L8.96574 266.751L6.96592 267.458V269.579H9.96592ZM4.61992 266.285L5.62893 269.111L43.4289 255.611L42.4199 252.785L41.4109 249.96L3.61091 263.46L4.61992 266.285ZM42.4199 252.785H39.4199V258.077H42.4199H45.4199V252.785H42.4199ZM42.4199 258.077L41.4152 255.251L32.4512 258.437L33.4559 261.263L34.4606 264.09L43.4246 260.904L42.4199 258.077ZM33.4559 261.263H30.4559V278.003H33.4559H36.4559V261.263H33.4559ZM33.4559 278.003L32.4512 280.83L41.4152 284.016L42.4199 281.189L43.4246 278.363L34.4606 275.177L33.4559 278.003ZM42.4199 281.189H39.4199V286.481H42.4199H45.4199V281.189H42.4199ZM42.4199 286.481L43.4289 283.656L5.62893 270.156L4.61992 272.981L3.61091 275.807L41.4109 289.307L42.4199 286.481ZM4.61992 272.981H7.61992V266.285H4.61992H1.61992V272.981H4.61992ZM9.96592 269.687L8.96574 272.516L27.5957 279.104L28.5959 276.275L29.5961 273.447L10.9661 266.859L9.96592 269.687ZM28.5959 276.275H31.5959V262.991H28.5959H25.5959V276.275H28.5959ZM28.5959 262.991L27.5957 260.163L8.96574 266.751L9.96592 269.579L10.9661 272.408L29.5961 265.82L28.5959 262.991ZM9.96592 269.579H6.96592V269.687H9.96592H12.9659V269.579H9.96592ZM15.4199 245.492L14.403 242.67L12.4199 243.384V245.492H15.4199ZM37.4519 237.554L38.4688 240.376L40.4519 239.662V237.554H37.4519ZM37.4519 237.446H40.4519V235.343L38.4749 234.626L37.4519 237.446ZM15.4199 229.454H12.4199V231.557L14.3969 232.274L15.4199 229.454ZM15.4199 224.324L16.4609 221.51L12.4199 220.015V224.324H15.4199ZM42.4199 234.314H45.4199V232.225L43.4609 231.5L42.4199 234.314ZM42.4199 240.632L43.4609 243.446L45.4199 242.721V240.632H42.4199ZM15.4199 250.622H12.4199V254.931L16.4609 253.436L15.4199 250.622ZM15.4199 245.492L16.4368 248.314L38.4688 240.376L37.4519 237.554L36.435 234.732L14.403 242.67L15.4199 245.492ZM37.4519 237.554H40.4519V237.446H37.4519H34.4519V237.554H37.4519ZM37.4519 237.446L38.4749 234.626L16.4429 226.634L15.4199 229.454L14.3969 232.274L36.4289 240.266L37.4519 237.446ZM15.4199 229.454H18.4199V224.324H15.4199H12.4199V229.454H15.4199ZM15.4199 224.324L14.3789 227.138L41.3789 237.128L42.4199 234.314L43.4609 231.5L16.4609 221.51L15.4199 224.324ZM42.4199 234.314H39.4199V240.632H42.4199H45.4199V234.314H42.4199ZM42.4199 240.632L41.3789 237.818L14.3789 247.808L15.4199 250.622L16.4609 253.436L43.4609 243.446L42.4199 240.632ZM15.4199 250.622H18.4199V245.492H15.4199H12.4199V250.622H15.4199ZM15.4199 213.667V210.667H12.4199V213.667H15.4199ZM42.4199 213.667H45.4199V210.667H42.4199V213.667ZM42.4199 218.905V221.905H45.4199V218.905H42.4199ZM15.4199 218.905H12.4199V221.905H15.4199V218.905ZM8.77792 219.175V222.175H11.7779V219.175H8.77792ZM2.99992 219.175H-8.01086e-05V222.175H2.99992V219.175ZM2.99992 213.397V210.397H-8.01086e-05V213.397H2.99992ZM8.77792 213.397H11.7779V210.397H8.77792V213.397ZM15.4199 213.667V216.667H42.4199V213.667V210.667H15.4199V213.667ZM42.4199 213.667H39.4199V218.905H42.4199H45.4199V213.667H42.4199ZM42.4199 218.905V215.905H15.4199V218.905V221.905H42.4199V218.905ZM15.4199 218.905H18.4199V213.667H15.4199H12.4199V218.905H15.4199ZM8.77792 219.175V216.175H2.99992L2.99992 219.175V222.175H8.77792V219.175ZM2.99992 219.175H5.99992L5.99992 213.397H2.99992H-8.01086e-05L-8.01086e-05 219.175H2.99992ZM2.99992 213.397V216.397H8.77792V213.397V210.397H2.99992V213.397ZM8.77792 213.397H5.77792L5.77792 219.175H8.77792H11.7779V213.397H8.77792ZM29.9999 184.732V181.732H28.2682L27.4021 183.232L29.9999 184.732ZM38.8019 184.732L41.3997 183.232L40.5336 181.732H38.8019V184.732ZM42.4199 190.996H45.4199V190.192L45.0177 189.496L42.4199 190.996ZM42.4199 205.036V208.036H45.4199V205.036H42.4199ZM37.7219 205.036H34.7219V208.036H37.7219V205.036ZM37.7219 189.97H40.7219V186.97H37.7219V189.97ZM31.0799 189.97V186.97H28.0799V189.97H31.0799ZM31.0799 198.772L33.6777 200.273L34.0799 199.576V198.772H31.0799ZM27.4619 205.036V208.036H29.1936L30.0597 206.537L27.4619 205.036ZM19.0379 205.036L16.4401 206.537L17.3062 208.036H19.0379V205.036ZM15.4199 198.772H12.4199V199.576L12.8221 200.273L15.4199 198.772ZM15.4199 185.272V182.272H12.4199V185.272H15.4199ZM20.1179 185.272H23.1179V182.272H20.1179V185.272ZM20.1179 199.798H17.1179V202.798H20.1179V199.798ZM26.3819 199.798V202.798H29.3819V199.798H26.3819ZM26.3819 190.996L23.7841 189.496L23.3819 190.192V190.996H26.3819ZM29.9999 184.732V187.732H38.8019V184.732V181.732H29.9999V184.732ZM38.8019 184.732L36.2041 186.233L39.8221 192.497L42.4199 190.996L45.0177 189.496L41.3997 183.232L38.8019 184.732ZM42.4199 190.996H39.4199V205.036H42.4199H45.4199V190.996H42.4199ZM42.4199 205.036V202.036H37.7219V205.036V208.036H42.4199V205.036ZM37.7219 205.036H40.7219V189.97H37.7219H34.7219V205.036H37.7219ZM37.7219 189.97V186.97H31.0799V189.97V192.97H37.7219V189.97ZM31.0799 189.97H28.0799V198.772H31.0799H34.0799V189.97H31.0799ZM31.0799 198.772L28.4821 197.272L24.8641 203.536L27.4619 205.036L30.0597 206.537L33.6777 200.273L31.0799 198.772ZM27.4619 205.036V202.036H19.0379L19.0379 205.036V208.036H27.4619V205.036ZM19.0379 205.036L21.6357 203.536L18.0177 197.272L15.4199 198.772L12.8221 200.273L16.4401 206.537L19.0379 205.036ZM15.4199 198.772H18.4199V185.272H15.4199H12.4199V198.772H15.4199ZM15.4199 185.272V188.272H20.1179V185.272V182.272H15.4199V185.272ZM20.1179 185.272H17.1179V199.798H20.1179H23.1179V185.272H20.1179ZM20.1179 199.798V202.798H26.3819V199.798V196.798H20.1179V199.798ZM26.3819 199.798H29.3819V190.996H26.3819H23.3819V199.798H26.3819ZM26.3819 190.996L28.9797 192.497L32.5977 186.233L29.9999 184.732L27.4021 183.232L23.7841 189.496L26.3819 190.996ZM39.0719 153.135L41.6697 151.635L40.8036 150.135H39.0719V153.135ZM42.6899 159.399H45.6899V158.595L45.2877 157.899L42.6899 159.399ZM42.6899 169.821L45.2877 171.322L45.6899 170.625V169.821H42.6899ZM39.0719 176.085V179.085H40.8036L41.6697 177.586L39.0719 176.085ZM18.7679 176.085L16.1701 177.586L17.0362 179.085H18.7679V176.085ZM15.1499 169.821H12.1499V170.625L12.5521 171.322L15.1499 169.821ZM15.1499 159.399L12.5521 157.899L12.1499 158.595V159.399H15.1499ZM18.7679 153.135V150.135H17.0362L16.1701 151.635L18.7679 153.135ZM19.8479 170.847H16.8479V173.847H19.8479V170.847ZM37.9919 170.847V173.847H40.9919V170.847H37.9919ZM37.9919 158.373H40.9919V155.373H37.9919V158.373ZM19.8479 158.373V155.373H16.8479V158.373H19.8479ZM39.0719 153.135L36.4741 154.636L40.0921 160.9L42.6899 159.399L45.2877 157.899L41.6697 151.635L39.0719 153.135ZM42.6899 159.399H39.6899V169.821H42.6899H45.6899V159.399H42.6899ZM42.6899 169.821L40.0921 168.321L36.4741 174.585L39.0719 176.085L41.6697 177.586L45.2877 171.322L42.6899 169.821ZM39.0719 176.085V173.085H18.7679V176.085V179.085H39.0719V176.085ZM18.7679 176.085L21.3657 174.585L17.7477 168.321L15.1499 169.821L12.5521 171.322L16.1701 177.586L18.7679 176.085ZM15.1499 169.821H18.1499V159.399H15.1499H12.1499V169.821H15.1499ZM15.1499 159.399L17.7477 160.9L21.3657 154.636L18.7679 153.135L16.1701 151.635L12.5521 157.899L15.1499 159.399ZM18.7679 153.135V156.135H39.0719V153.135V150.135H18.7679V153.135ZM19.8479 170.847V173.847H37.9919V170.847V167.847H19.8479V170.847ZM37.9919 170.847H40.9919V158.373H37.9919H34.9919V170.847H37.9919ZM37.9919 158.373V155.373H19.8479V158.373V161.373H37.9919V158.373ZM19.8479 158.373H16.8479V170.847H19.8479H22.8479V158.373H19.8479ZM42.4199 129.93V132.93H45.4199V129.93H42.4199ZM4.61992 129.93H1.61992L1.61992 132.93H4.61992L4.61992 129.93ZM4.61992 124.53V121.53H1.61992V124.53H4.61992ZM37.5599 124.53V127.53H40.5599V124.53H37.5599ZM37.5599 110.544V107.544H34.5599V110.544H37.5599ZM42.4199 110.544H45.4199V107.544H42.4199V110.544ZM42.4199 129.93V126.93H4.61992V129.93L4.61992 132.93H42.4199V129.93ZM4.61992 129.93H7.61992V124.53H4.61992H1.61992V129.93H4.61992ZM4.61992 124.53V127.53H37.5599V124.53V121.53H4.61992V124.53ZM37.5599 124.53H40.5599L40.5599 110.544H37.5599H34.5599L34.5599 124.53H37.5599ZM37.5599 110.544V113.544H42.4199V110.544V107.544H37.5599V110.544ZM42.4199 110.544H39.4199L39.4199 129.93H42.4199H45.4199L45.4199 110.544H42.4199ZM37.7219 83.3001V80.3001H34.7219V83.3001H37.7219ZM42.4199 83.3001H45.4199V80.3001H42.4199V83.3001ZM42.4199 98.3661L45.0177 99.8665L45.4199 99.1702V98.3661H42.4199ZM38.8019 104.63V107.63H40.5336L41.3997 106.131L38.8019 104.63ZM18.7679 104.63L16.1701 106.131L17.0362 107.63H18.7679V104.63ZM15.1499 98.3661H12.1499V99.1702L12.5521 99.8665L15.1499 98.3661ZM15.1499 89.5641L12.5521 88.0636L12.1499 88.7599V89.5641H15.1499ZM18.7679 83.3001V80.3001H17.0362L16.1701 81.7996L18.7679 83.3001ZM30.7559 83.3001H33.7559V80.3001H30.7559V83.3001ZM30.7559 99.3921H27.7559V102.392H30.7559V99.3921ZM37.7219 99.3921V102.392H40.7219V99.3921H37.7219ZM19.8479 99.3921H16.8479V102.392H19.8479V99.3921ZM26.0579 99.3921V102.392H29.0579V99.3921H26.0579ZM26.0579 88.5381H29.0579V85.5381H26.0579V88.5381ZM19.8479 88.5381V85.5381H16.8479V88.5381H19.8479ZM37.7219 83.3001V86.3001H42.4199V83.3001V80.3001H37.7219V83.3001ZM42.4199 83.3001H39.4199V98.3661H42.4199H45.4199V83.3001H42.4199ZM42.4199 98.3661L39.8221 96.8656L36.2041 103.13L38.8019 104.63L41.3997 106.131L45.0177 99.8665L42.4199 98.3661ZM38.8019 104.63V101.63H18.7679V104.63V107.63H38.8019V104.63ZM18.7679 104.63L21.3657 103.13L17.7477 96.8656L15.1499 98.3661L12.5521 99.8665L16.1701 106.131L18.7679 104.63ZM15.1499 98.3661H18.1499L18.1499 89.5641H15.1499H12.1499L12.1499 98.3661H15.1499ZM15.1499 89.5641L17.7477 91.0645L21.3657 84.8005L18.7679 83.3001L16.1701 81.7996L12.5521 88.0636L15.1499 89.5641ZM18.7679 83.3001V86.3001H30.7559V83.3001V80.3001H18.7679V83.3001ZM30.7559 83.3001H27.7559V99.3921H30.7559H33.7559V83.3001H30.7559ZM30.7559 99.3921V102.392H37.7219V99.3921V96.3921H30.7559V99.3921ZM37.7219 99.3921H40.7219V83.3001H37.7219H34.7219V99.3921H37.7219ZM19.8479 99.3921V102.392H26.0579V99.3921V96.3921H19.8479V99.3921ZM26.0579 99.3921H29.0579V88.5381H26.0579H23.0579L23.0579 99.3921H26.0579ZM26.0579 88.5381V85.5381H19.8479V88.5381L19.8479 91.5381H26.0579V88.5381ZM19.8479 88.5381H16.8479L16.8479 99.3921H19.8479H22.8479L22.8479 88.5381H19.8479ZM42.4199 69.4389L45.018 70.9389L45.4199 70.2428V69.4389H42.4199ZM39.3959 74.6769V77.6769H41.128L41.994 76.1769L39.3959 74.6769ZM34.5359 74.6769L31.938 76.1772L32.804 77.6769H34.5359V74.6769ZM32.3219 70.8429L34.9199 69.3427L32.3219 64.8438L29.724 69.3427L32.3219 70.8429ZM30.1079 74.6769V77.6769H31.8398L32.7059 76.1772L30.1079 74.6769ZM19.0379 74.6769L16.4401 76.1774L17.3062 77.6769H19.0379V74.6769ZM15.4199 68.4129H12.4199V69.2171L12.8221 69.9134L15.4199 68.4129ZM15.4199 51.187V48.187H12.4199V51.187H15.4199ZM17.2559 51.187L19.8483 49.6771L18.9804 48.187H17.2559V51.187ZM20.1179 56.101L17.5256 57.6108L20.1008 62.0325L22.7015 57.6257L20.1179 56.101ZM22.0619 52.8069V49.8069H20.3489L19.4783 51.2822L22.0619 52.8069ZM29.5139 52.8069L32.1117 51.3065L31.2456 49.8069H29.5139V52.8069ZM33.1319 59.071H36.1319V58.2668L35.7297 57.5705L33.1319 59.071ZM33.1319 69.4389H30.1319V72.4389H33.1319V69.4389ZM37.7219 69.4389V72.4389H40.7219V69.4389H37.7219ZM37.7219 57.4509L35.1241 55.9505L34.7219 56.6468V57.4509H37.7219ZM41.3399 51.187V48.187H39.6082L38.7421 49.6865L41.3399 51.187ZM49.8719 51.187L52.4697 49.6865L51.6036 48.187H49.8719V51.187ZM53.4899 57.4509H56.4899V56.6468L56.0877 55.9505L53.4899 57.4509ZM53.4899 69.493L56.0877 70.9934L56.4899 70.2971V69.493H53.4899ZM49.8719 75.7569V78.7569H51.6036L52.4697 77.2574L49.8719 75.7569ZM46.5239 75.7569L43.9258 77.2569L44.7918 78.7569H46.5239V75.7569ZM43.4999 70.519V67.519H38.3039L40.9018 72.0189L43.4999 70.519ZM48.8999 70.519V73.519H51.8999V70.519H48.8999ZM48.8999 56.4249H51.8999V53.4249H48.8999V56.4249ZM42.4199 56.4249V53.4249H39.4199V56.4249H42.4199ZM20.0099 69.4389H17.0099V72.4389H20.0099V69.4389ZM28.5419 69.4389V72.4389H31.5419V69.4389H28.5419ZM28.5419 58.045H31.5419V55.045H28.5419V58.045ZM20.0099 58.045V55.045H17.0099V58.045H20.0099ZM42.4199 69.4389L39.8218 67.939L36.7978 73.177L39.3959 74.6769L41.994 76.1769L45.018 70.9389L42.4199 69.4389ZM39.3959 74.6769V71.6769H34.5359V74.6769V77.6769H39.3959V74.6769ZM34.5359 74.6769L37.1339 73.1767L34.9199 69.3427L32.3219 70.8429L29.724 72.3432L31.938 76.1772L34.5359 74.6769ZM32.3219 70.8429L29.724 69.3427L27.51 73.1767L30.1079 74.6769L32.7059 76.1772L34.9199 72.3432L32.3219 70.8429ZM30.1079 74.6769V71.6769H19.0379V74.6769V77.6769H30.1079V74.6769ZM19.0379 74.6769L21.6357 73.1765L18.0177 66.9125L15.4199 68.4129L12.8221 69.9134L16.4401 76.1774L19.0379 74.6769ZM15.4199 68.4129H18.4199V51.187H15.4199H12.4199V68.4129H15.4199ZM15.4199 51.187V54.187H17.2559V51.187V48.187H15.4199V51.187ZM17.2559 51.187L14.6636 52.6968L17.5256 57.6108L20.1179 56.101L22.7103 54.5911L19.8483 49.6771L17.2559 51.187ZM20.1179 56.101L22.7015 57.6257L24.6455 54.3317L22.0619 52.8069L19.4783 51.2822L17.5343 54.5762L20.1179 56.101ZM22.0619 52.8069V55.8069H29.5139V52.8069V49.8069H22.0619V52.8069ZM29.5139 52.8069L26.9161 54.3074L30.5341 60.5714L33.1319 59.071L35.7297 57.5705L32.1117 51.3065L29.5139 52.8069ZM33.1319 59.071H30.1319V69.4389H33.1319H36.1319V59.071H33.1319ZM33.1319 69.4389V72.4389H37.7219V69.4389V66.4389H33.1319V69.4389ZM37.7219 69.4389H40.7219V57.4509H37.7219H34.7219V69.4389H37.7219ZM37.7219 57.4509L40.3197 58.9514L43.9377 52.6874L41.3399 51.187L38.7421 49.6865L35.1241 55.9505L37.7219 57.4509ZM41.3399 51.187V54.187H49.8719V51.187V48.187H41.3399V51.187ZM49.8719 51.187L47.2741 52.6874L50.8921 58.9514L53.4899 57.4509L56.0877 55.9505L52.4697 49.6865L49.8719 51.187ZM53.4899 57.4509H50.4899V69.493H53.4899H56.4899V57.4509H53.4899ZM53.4899 69.493L50.8921 67.9925L47.2741 74.2565L49.8719 75.7569L52.4697 77.2574L56.0877 70.9934L53.4899 69.493ZM49.8719 75.7569V72.7569H46.5239V75.7569V78.7569H49.8719V75.7569ZM46.5239 75.7569L49.122 74.257L46.098 69.019L43.4999 70.519L40.9018 72.0189L43.9258 77.2569L46.5239 75.7569ZM43.4999 70.519V73.519H48.8999V70.519V67.519H43.4999V70.519ZM48.8999 70.519H51.8999V56.4249H48.8999H45.8999V70.519H48.8999ZM48.8999 56.4249V53.4249H42.4199V56.4249V59.4249H48.8999V56.4249ZM42.4199 56.4249H39.4199V69.4389H42.4199H45.4199V56.4249H42.4199ZM20.0099 69.4389V72.4389H28.5419V69.4389V66.4389H20.0099V69.4389ZM28.5419 69.4389H31.5419V58.045H28.5419H25.5419V69.4389H28.5419ZM28.5419 58.045V55.045H20.0099V58.045V61.045H28.5419V58.045ZM20.0099 58.045H17.0099V69.4389H20.0099H23.0099V58.045H20.0099ZM31.3499 39.4584H28.3499V42.4584H31.3499V39.4584ZM37.9919 39.4584V42.4584H40.9919V39.4584H37.9919ZM37.9919 28.6044H40.9919V25.6044H37.9919V28.6044ZM31.3499 28.6044V25.6044H28.3499V28.6044H31.3499ZM42.6899 38.4324L45.2877 39.9329L45.6899 39.2365V38.4324H42.6899ZM39.0719 44.6964V47.6964H40.8036L41.6697 46.1969L39.0719 44.6964ZM30.2699 44.6964L27.6721 46.1969L28.5382 47.6964H30.2699V44.6964ZM26.6519 38.4324H23.6519V39.2365L24.0541 39.9329L26.6519 38.4324ZM26.6519 28.6044H29.6519V25.6044H26.6519V28.6044ZM20.1179 28.6044V25.6044H17.1179V28.6044H20.1179ZM20.1179 41.9964V44.9964H23.1179V41.9964H20.1179ZM15.4199 41.9964H12.4199V44.9964H15.4199V41.9964ZM15.4199 29.6304L12.8221 28.1299L12.4199 28.8263V29.6304H15.4199ZM19.0379 23.3664V20.3664H17.3062L16.4401 21.8659L19.0379 23.3664ZM42.6899 23.3664H45.6899V20.3664H42.6899V23.3664ZM42.6899 24.7704L45.2879 26.2706L45.6899 25.5744V24.7704H42.6899ZM40.4759 28.6044L37.878 27.1042L37.0117 28.6044L37.878 30.1046L40.4759 28.6044ZM42.6899 32.4384H45.6899V31.6344L45.2879 30.9382L42.6899 32.4384ZM31.3499 39.4584V42.4584H37.9919V39.4584V36.4584H31.3499V39.4584ZM37.9919 39.4584H40.9919V28.6044H37.9919H34.9919V39.4584H37.9919ZM37.9919 28.6044V25.6044H31.3499V28.6044V31.6044H37.9919V28.6044ZM31.3499 28.6044H28.3499V39.4584H31.3499H34.3499V28.6044H31.3499ZM42.6899 38.4324L40.0921 36.9319L36.4741 43.1959L39.0719 44.6964L41.6697 46.1969L45.2877 39.9329L42.6899 38.4324ZM39.0719 44.6964V41.6964H30.2699V44.6964V47.6964H39.0719V44.6964ZM30.2699 44.6964L32.8677 43.1959L29.2497 36.9319L26.6519 38.4324L24.0541 39.9329L27.6721 46.1969L30.2699 44.6964ZM26.6519 38.4324H29.6519V28.6044H26.6519H23.6519V38.4324H26.6519ZM26.6519 28.6044V25.6044H20.1179V28.6044V31.6044H26.6519V28.6044ZM20.1179 28.6044H17.1179L17.1179 41.9964H20.1179H23.1179L23.1179 28.6044H20.1179ZM20.1179 41.9964V38.9964H15.4199V41.9964V44.9964H20.1179V41.9964ZM15.4199 41.9964H18.4199L18.4199 29.6304H15.4199H12.4199L12.4199 41.9964H15.4199ZM15.4199 29.6304L18.0177 31.1309L21.6357 24.8669L19.0379 23.3664L16.4401 21.8659L12.8221 28.1299L15.4199 29.6304ZM19.0379 23.3664V26.3664H42.6899V23.3664V20.3664H19.0379V23.3664ZM42.6899 23.3664H39.6899V24.7704H42.6899H45.6899V23.3664H42.6899ZM42.6899 24.7704L40.092 23.2702L37.878 27.1042L40.4759 28.6044L43.0739 30.1046L45.2879 26.2706L42.6899 24.7704ZM40.4759 28.6044L37.878 30.1046L40.092 33.9386L42.6899 32.4384L45.2879 30.9382L43.0739 27.1042L40.4759 28.6044ZM42.6899 32.4384H39.6899V38.4324H42.6899H45.6899V32.4384H42.6899ZM42.4199 8.45395L45.0177 9.95444L45.4199 9.25809V8.45395H42.4199ZM38.8019 14.718V17.718H40.5336L41.3997 16.2184L38.8019 14.718ZM2.99992 14.718H-8.01086e-05V17.718H2.99992V14.718ZM2.99992 9.47995V6.47995H-8.01086e-05V9.47995H2.99992ZM37.7219 9.47995V12.4799H40.7219V9.47995H37.7219ZM37.7219 2.99997V-3.05176e-05H34.7219V2.99997H37.7219ZM42.4199 2.99997H45.4199V-3.05176e-05H42.4199V2.99997ZM42.4199 8.45395L39.8221 6.95349L36.2041 13.2175L38.8019 14.718L41.3997 16.2184L45.0177 9.95444L42.4199 8.45395ZM38.8019 14.718V11.718H2.99992V14.718V17.718H38.8019V14.718ZM2.99992 14.718H5.99992V9.47995H2.99992H-8.01086e-05V14.718H2.99992ZM2.99992 9.47995V12.4799H37.7219V9.47995V6.47995H2.99992V9.47995ZM37.7219 9.47995H40.7219L40.7219 2.99997H37.7219H34.7219L34.7219 9.47995H37.7219ZM37.7219 2.99997L37.7219 5.99997H42.4199L42.4199 2.99997V-3.05176e-05H37.7219V2.99997ZM42.4199 2.99997H39.4199L39.4199 8.45395H42.4199H45.4199L45.4199 2.99997H42.4199Z" fill="#B5E93B" mask="url(#path-1-outside-1_62121_3759)"/>
</svg>
