<svg width="46" height="317" viewBox="0 0 46 317" fill="none" xmlns="http://www.w3.org/2000/svg">
<mask id="path-1-outside-1_62121_3759" maskUnits="userSpaceOnUse" x="-0.580078" y="-0.38562" width="47" height="318" fill="black">
<rect fill="white" x="-0.580078" y="-0.38562" width="47" height="318"/>
<path d="M38.8019 285.404L42.4199 291.668V313.754H4.61992L4.61992 291.668L8.23792 285.404H38.8019ZM9.47992 308.354H37.5599V290.804H9.47992V308.354ZM31.3499 272.062H37.9919L37.9919 261.208H31.3499L31.3499 272.062ZM42.6899 271.036L39.0719 277.3H30.2699L26.6519 271.036L26.6519 261.208H20.1179V274.6H15.4199V262.234L19.0379 255.97H42.6899V257.374L40.4759 261.208L42.6899 265.042V271.036ZM20.1179 249.482H15.4199V244.514H10.8839L7.85992 239.276H15.4199L15.4199 232.796H20.1179L20.1179 239.276H37.7219V232.796H42.4199V238.25L38.8019 244.514H20.1179V249.482ZM37.7219 203.896H42.4199V218.962L38.8019 225.226H18.7679L15.1499 218.962V210.16L18.7679 203.896H30.7559V219.988H37.7219V203.896ZM19.8479 219.988H26.0579V209.134H19.8479V219.988ZM18.7679 172.323H42.4199V177.561H19.8479V190.035H42.4199V195.273H15.1499V191.331L17.3639 190.035L15.1499 186.201V178.587L18.7679 172.323ZM29.9999 143.381H38.8019L42.4199 149.645V163.685H37.7219L37.7219 148.619H31.0799L31.0799 157.421L27.4619 163.685H19.0379L15.4199 157.421V143.921H20.1179V158.447H26.3819V149.645L29.9999 143.381ZM20.1179 129.496H37.7219V114.484H42.4199V128.47L38.8019 134.734H19.0379L15.4199 128.47L15.4199 114.484H20.1179L20.1179 129.496ZM42.4199 101.705V106.943H2.99992V101.705H17.3639L15.1499 97.8708V89.7168L18.7679 83.4528H42.4199V88.6908H19.8479V101.705H42.4199ZM39.0719 74.8276H15.4199V69.5896H37.9919V57.1156H15.4199V51.8776H42.6899V55.8196L40.4759 57.1156L42.6899 60.9496V68.5636L39.0719 74.8276ZM20.1179 45.3997H15.4199V40.4317H10.8839L7.85992 35.1937H15.4199V28.7137H20.1179V35.1937H37.7219V28.7137H42.4199V34.1677L38.8019 40.4317H20.1179V45.3997ZM38.8559 23.304L20.2259 9.69599H20.1179V22.764H15.4199L15.4199 2.99999H18.9839L37.6139 16.608H37.7219V2.99999H42.4199V23.304H38.8559Z"/>
</mask>
<path d="M38.8019 285.404L41.3997 283.904L40.5336 282.404H38.8019V285.404ZM42.4199 291.668H45.4199V290.864L45.0177 290.168L42.4199 291.668ZM42.4199 313.754V316.754H45.4199V313.754H42.4199ZM4.61992 313.754H1.61992V316.754H4.61992V313.754ZM4.61992 291.668L2.02211 290.168L1.61992 290.864V291.668H4.61992ZM8.23792 285.404V282.404H6.50623L5.64011 283.904L8.23792 285.404ZM9.47992 308.354H6.47992V311.354H9.47992V308.354ZM37.5599 308.354V311.354H40.5599V308.354H37.5599ZM37.5599 290.804H40.5599V287.804H37.5599V290.804ZM9.47992 290.804L9.47992 287.804H6.47992V290.804H9.47992ZM38.8019 285.404L36.2041 286.905L39.8221 293.169L42.4199 291.668L45.0177 290.168L41.3997 283.904L38.8019 285.404ZM42.4199 291.668H39.4199V313.754H42.4199H45.4199V291.668H42.4199ZM42.4199 313.754V310.754H4.61992V313.754V316.754H42.4199V313.754ZM4.61992 313.754H7.61992V291.668H4.61992H1.61992L1.61992 313.754H4.61992ZM4.61992 291.668L7.21773 293.169L10.8357 286.905L8.23792 285.404L5.64011 283.904L2.02211 290.168L4.61992 291.668ZM8.23792 285.404V288.404H38.8019V285.404V282.404H8.23792V285.404ZM9.47992 308.354V311.354H37.5599V308.354V305.354H9.47992V308.354ZM37.5599 308.354H40.5599V290.804H37.5599H34.5599V308.354H37.5599ZM37.5599 290.804V287.804H9.47992L9.47992 290.804V293.804H37.5599V290.804ZM9.47992 290.804H6.47992L6.47992 308.354H9.47992H12.4799V290.804H9.47992ZM31.3499 272.062H28.3499V275.062H31.3499V272.062ZM37.9919 272.062V275.062H40.9919V272.062H37.9919ZM37.9919 261.208H40.9919V258.208H37.9919V261.208ZM31.3499 261.208V258.208H28.3499V261.208H31.3499ZM42.6899 271.036L45.2877 272.537L45.6899 271.84V271.036H42.6899ZM39.0719 277.3V280.3H40.8036L41.6697 278.801L39.0719 277.3ZM30.2699 277.3L27.6721 278.801L28.5382 280.3H30.2699V277.3ZM26.6519 271.036H23.6519V271.84L24.0541 272.537L26.6519 271.036ZM26.6519 261.208H29.6519V258.208H26.6519V261.208ZM20.1179 261.208V258.208H17.1179V261.208H20.1179ZM20.1179 274.6V277.6H23.1179V274.6H20.1179ZM15.4199 274.6H12.4199V277.6H15.4199V274.6ZM15.4199 262.234L12.8221 260.734L12.4199 261.43V262.234H15.4199ZM19.0379 255.97V252.97H17.3062L16.4401 254.47L19.0379 255.97ZM42.6899 255.97H45.6899V252.97H42.6899V255.97ZM42.6899 257.374L45.2879 258.874L45.6899 258.178V257.374H42.6899ZM40.4759 261.208L37.878 259.708L37.0117 261.208L37.878 262.708L40.4759 261.208ZM42.6899 265.042H45.6899V264.238L45.2879 263.542L42.6899 265.042ZM31.3499 272.062V275.062H37.9919V272.062V269.062H31.3499V272.062ZM37.9919 272.062H40.9919L40.9919 261.208H37.9919H34.9919L34.9919 272.062H37.9919ZM37.9919 261.208V258.208H31.3499V261.208L31.3499 264.208H37.9919L37.9919 261.208ZM31.3499 261.208H28.3499L28.3499 272.062H31.3499H34.3499L34.3499 261.208H31.3499ZM42.6899 271.036L40.0921 269.536L36.4741 275.8L39.0719 277.3L41.6697 278.801L45.2877 272.537L42.6899 271.036ZM39.0719 277.3V274.3H30.2699V277.3V280.3H39.0719V277.3ZM30.2699 277.3L32.8677 275.8L29.2497 269.536L26.6519 271.036L24.0541 272.537L27.6721 278.801L30.2699 277.3ZM26.6519 271.036H29.6519L29.6519 261.208H26.6519H23.6519L23.6519 271.036H26.6519ZM26.6519 261.208V258.208H20.1179V261.208V264.208H26.6519L26.6519 261.208ZM20.1179 261.208H17.1179V274.6H20.1179H23.1179V261.208H20.1179ZM20.1179 274.6V271.6H15.4199V274.6V277.6H20.1179V274.6ZM15.4199 274.6H18.4199V262.234H15.4199H12.4199V274.6H15.4199ZM15.4199 262.234L18.0177 263.735L21.6357 257.471L19.0379 255.97L16.4401 254.47L12.8221 260.734L15.4199 262.234ZM19.0379 255.97V258.97H42.6899V255.97V252.97H19.0379V255.97ZM42.6899 255.97H39.6899V257.374H42.6899H45.6899V255.97H42.6899ZM42.6899 257.374L40.092 255.874L37.878 259.708L40.4759 261.208L43.0739 262.708L45.2879 258.874L42.6899 257.374ZM40.4759 261.208L37.878 262.708L40.092 266.542L42.6899 265.042L45.2879 263.542L43.0739 259.708L40.4759 261.208ZM42.6899 265.042H39.6899V271.036H42.6899H45.6899V265.042H42.6899ZM20.1179 249.482V252.482H23.1179V249.482H20.1179ZM15.4199 249.482H12.4199V252.482H15.4199V249.482ZM15.4199 244.514H18.4199V241.514H15.4199V244.514ZM10.8839 244.514L8.28581 246.014L9.15182 247.514H10.8839V244.514ZM7.85992 239.276V236.276H2.66391L5.26181 240.776L7.85992 239.276ZM15.4199 239.276V242.276H18.4199V239.276H15.4199ZM15.4199 232.796V229.796H12.4199V232.796H15.4199ZM20.1179 232.796H23.1179V229.796H20.1179V232.796ZM20.1179 239.276H17.1179V242.276H20.1179V239.276ZM37.7219 239.276V242.276H40.7219V239.276H37.7219ZM37.7219 232.796V229.796H34.7219V232.796H37.7219ZM42.4199 232.796H45.4199V229.796H42.4199V232.796ZM42.4199 238.25L45.0177 239.75L45.4199 239.054V238.25H42.4199ZM38.8019 244.514V247.514H40.5336L41.3997 246.014L38.8019 244.514ZM20.1179 244.514V241.514H17.1179V244.514H20.1179ZM20.1179 249.482V246.482H15.4199V249.482V252.482H20.1179V249.482ZM15.4199 249.482H18.4199V244.514H15.4199H12.4199V249.482H15.4199ZM15.4199 244.514V241.514H10.8839V244.514V247.514H15.4199V244.514ZM10.8839 244.514L13.482 243.014L10.458 237.776L7.85992 239.276L5.26181 240.776L8.28581 246.014L10.8839 244.514ZM7.85992 239.276V242.276H15.4199V239.276V236.276H7.85992V239.276ZM15.4199 239.276H18.4199L18.4199 232.796H15.4199H12.4199L12.4199 239.276H15.4199ZM15.4199 232.796L15.4199 235.796H20.1179L20.1179 232.796V229.796H15.4199V232.796ZM20.1179 232.796H17.1179L17.1179 239.276H20.1179H23.1179L23.1179 232.796H20.1179ZM20.1179 239.276V242.276H37.7219V239.276V236.276H20.1179V239.276ZM37.7219 239.276H40.7219V232.796H37.7219H34.7219V239.276H37.7219ZM37.7219 232.796V235.796H42.4199V232.796V229.796H37.7219V232.796ZM42.4199 232.796H39.4199V238.25H42.4199H45.4199V232.796H42.4199ZM42.4199 238.25L39.8221 236.749L36.2041 243.013L38.8019 244.514L41.3997 246.014L45.0177 239.75L42.4199 238.25ZM38.8019 244.514V241.514H20.1179V244.514V247.514H38.8019V244.514ZM20.1179 244.514H17.1179V249.482H20.1179H23.1179V244.514H20.1179ZM37.7219 203.896V200.896H34.7219V203.896H37.7219ZM42.4199 203.896H45.4199V200.896H42.4199V203.896ZM42.4199 218.962L45.0177 220.462L45.4199 219.766V218.962H42.4199ZM38.8019 225.226V228.226H40.5336L41.3997 226.726L38.8019 225.226ZM18.7679 225.226L16.1701 226.726L17.0362 228.226H18.7679V225.226ZM15.1499 218.962H12.1499V219.766L12.5521 220.462L15.1499 218.962ZM15.1499 210.16L12.5521 208.66L12.1499 209.356V210.16H15.1499ZM18.7679 203.896V200.896H17.0362L16.1701 202.396L18.7679 203.896ZM30.7559 203.896H33.7559V200.896H30.7559V203.896ZM30.7559 219.988H27.7559V222.988H30.7559V219.988ZM37.7219 219.988V222.988H40.7219V219.988H37.7219ZM19.8479 219.988H16.8479V222.988H19.8479V219.988ZM26.0579 219.988V222.988H29.0579V219.988H26.0579ZM26.0579 209.134H29.0579V206.134H26.0579V209.134ZM19.8479 209.134V206.134H16.8479V209.134H19.8479ZM37.7219 203.896V206.896H42.4199V203.896V200.896H37.7219V203.896ZM42.4199 203.896H39.4199V218.962H42.4199H45.4199V203.896H42.4199ZM42.4199 218.962L39.8221 217.462L36.2041 223.726L38.8019 225.226L41.3997 226.726L45.0177 220.462L42.4199 218.962ZM38.8019 225.226V222.226H18.7679V225.226V228.226H38.8019V225.226ZM18.7679 225.226L21.3657 223.726L17.7477 217.462L15.1499 218.962L12.5521 220.462L16.1701 226.726L18.7679 225.226ZM15.1499 218.962H18.1499V210.16H15.1499H12.1499V218.962H15.1499ZM15.1499 210.16L17.7477 211.66L21.3657 205.396L18.7679 203.896L16.1701 202.396L12.5521 208.66L15.1499 210.16ZM18.7679 203.896V206.896H30.7559V203.896V200.896H18.7679V203.896ZM30.7559 203.896H27.7559V219.988H30.7559H33.7559V203.896H30.7559ZM30.7559 219.988V222.988H37.7219V219.988V216.988H30.7559V219.988ZM37.7219 219.988H40.7219V203.896H37.7219H34.7219V219.988H37.7219ZM19.8479 219.988V222.988H26.0579V219.988V216.988H19.8479V219.988ZM26.0579 219.988H29.0579V209.134H26.0579H23.0579V219.988H26.0579ZM26.0579 209.134V206.134H19.8479V209.134V212.134H26.0579V209.134ZM19.8479 209.134H16.8479V219.988H19.8479H22.8479V209.134H19.8479ZM18.7679 172.323V169.323H17.0362L16.1701 170.822L18.7679 172.323ZM42.4199 172.323H45.4199V169.323H42.4199V172.323ZM42.4199 177.561V180.561H45.4199V177.561H42.4199ZM19.8479 177.561L19.8479 174.561H16.8479L16.8479 177.561H19.8479ZM19.8479 190.035H16.8479V193.035H19.8479V190.035ZM42.4199 190.035H45.4199V187.035H42.4199V190.035ZM42.4199 195.273V198.273H45.4199V195.273H42.4199ZM15.1499 195.273H12.1499V198.273H15.1499V195.273ZM15.1499 191.331L13.6344 188.742L12.1499 189.611V191.331H15.1499ZM17.3639 190.035L18.8795 192.624L21.4533 191.117L19.9619 188.535L17.3639 190.035ZM15.1499 186.201H12.1499V187.005L12.552 187.701L15.1499 186.201ZM15.1499 178.587L12.5521 177.086L12.1499 177.783V178.587H15.1499ZM18.7679 172.323V175.323H42.4199V172.323V169.323H18.7679V172.323ZM42.4199 172.323H39.4199V177.561H42.4199H45.4199V172.323H42.4199ZM42.4199 177.561V174.561H19.8479L19.8479 177.561V180.561H42.4199V177.561ZM19.8479 177.561H16.8479V190.035H19.8479H22.8479V177.561H19.8479ZM19.8479 190.035V193.035H42.4199V190.035V187.035H19.8479V190.035ZM42.4199 190.035H39.4199V195.273H42.4199H45.4199V190.035H42.4199ZM42.4199 195.273V192.273H15.1499V195.273V198.273H42.4199V195.273ZM15.1499 195.273H18.1499V191.331H15.1499H12.1499V195.273H15.1499ZM15.1499 191.331L16.6655 193.92L18.8795 192.624L17.3639 190.035L15.8484 187.446L13.6344 188.742L15.1499 191.331ZM17.3639 190.035L19.9619 188.535L17.7479 184.701L15.1499 186.201L12.552 187.701L14.766 191.535L17.3639 190.035ZM15.1499 186.201H18.1499V178.587H15.1499H12.1499V186.201H15.1499ZM15.1499 178.587L17.7477 180.087L21.3657 173.823L18.7679 172.323L16.1701 170.822L12.5521 177.086L15.1499 178.587ZM29.9999 143.381V140.381H28.2682L27.4021 141.881L29.9999 143.381ZM38.8019 143.381L41.3997 141.881L40.5336 140.381H38.8019V143.381ZM42.4199 149.645H45.4199L45.4199 148.841L45.0177 148.145L42.4199 149.645ZM42.4199 163.685V166.685H45.4199V163.685H42.4199ZM37.7219 163.685H34.7219V166.685H37.7219V163.685ZM37.7219 148.619H40.7219V145.619H37.7219V148.619ZM31.0799 148.619V145.619H28.0799V148.619H31.0799ZM31.0799 157.421L33.6777 158.921L34.0799 158.225V157.421H31.0799ZM27.4619 163.685V166.685H29.1936L30.0597 165.185L27.4619 163.685ZM19.0379 163.685L16.4401 165.185L17.3062 166.685H19.0379V163.685ZM15.4199 157.421H12.4199V158.225L12.8221 158.921L15.4199 157.421ZM15.4199 143.921V140.921H12.4199V143.921H15.4199ZM20.1179 143.921H23.1179V140.921H20.1179V143.921ZM20.1179 158.447H17.1179V161.447H20.1179V158.447ZM26.3819 158.447V161.447H29.3819V158.447H26.3819ZM26.3819 149.645L23.7841 148.145L23.3819 148.841V149.645H26.3819ZM29.9999 143.381V146.381H38.8019V143.381V140.381H29.9999V143.381ZM38.8019 143.381L36.2041 144.881L39.8221 151.145L42.4199 149.645L45.0177 148.145L41.3997 141.881L38.8019 143.381ZM42.4199 149.645H39.4199V163.685H42.4199H45.4199V149.645H42.4199ZM42.4199 163.685V160.685H37.7219V163.685V166.685H42.4199V163.685ZM37.7219 163.685H40.7219L40.7219 148.619H37.7219H34.7219L34.7219 163.685H37.7219ZM37.7219 148.619V145.619H31.0799V148.619L31.0799 151.619H37.7219L37.7219 148.619ZM31.0799 148.619H28.0799L28.0799 157.421H31.0799H34.0799L34.0799 148.619H31.0799ZM31.0799 157.421L28.4821 155.921L24.8641 162.185L27.4619 163.685L30.0597 165.185L33.6777 158.921L31.0799 157.421ZM27.4619 163.685V160.685H19.0379V163.685V166.685H27.4619V163.685ZM19.0379 163.685L21.6357 162.185L18.0177 155.921L15.4199 157.421L12.8221 158.921L16.4401 165.185L19.0379 163.685ZM15.4199 157.421H18.4199V143.921H15.4199H12.4199V157.421H15.4199ZM15.4199 143.921V146.921H20.1179V143.921V140.921H15.4199V143.921ZM20.1179 143.921H17.1179V158.447H20.1179H23.1179V143.921H20.1179ZM20.1179 158.447V161.447H26.3819V158.447V155.447H20.1179V158.447ZM26.3819 158.447H29.3819V149.645H26.3819H23.3819V158.447H26.3819ZM26.3819 149.645L28.9797 151.145L32.5977 144.881L29.9999 143.381L27.4021 141.881L23.7841 148.145L26.3819 149.645ZM20.1179 129.496H17.1179V132.496H20.1179V129.496ZM37.7219 129.496V132.496H40.7219V129.496H37.7219ZM37.7219 114.484V111.484H34.7219V114.484H37.7219ZM42.4199 114.484H45.4199V111.484H42.4199V114.484ZM42.4199 128.47L45.0177 129.97L45.4199 129.274V128.47H42.4199ZM38.8019 134.734V137.734H40.5336L41.3997 136.234L38.8019 134.734ZM19.0379 134.734L16.4401 136.234L17.3062 137.734H19.0379V134.734ZM15.4199 128.47H12.4199V129.274L12.8221 129.97L15.4199 128.47ZM15.4199 114.484V111.484H12.4199V114.484H15.4199ZM20.1179 114.484H23.1179V111.484H20.1179V114.484ZM20.1179 129.496V132.496H37.7219V129.496V126.496H20.1179V129.496ZM37.7219 129.496H40.7219V114.484H37.7219H34.7219V129.496H37.7219ZM37.7219 114.484V117.484H42.4199V114.484V111.484H37.7219V114.484ZM42.4199 114.484H39.4199V128.47H42.4199H45.4199V114.484H42.4199ZM42.4199 128.47L39.8221 126.969L36.2041 133.233L38.8019 134.734L41.3997 136.234L45.0177 129.97L42.4199 128.47ZM38.8019 134.734V131.734H19.0379V134.734V137.734H38.8019V134.734ZM19.0379 134.734L21.6357 133.233L18.0177 126.969L15.4199 128.47L12.8221 129.97L16.4401 136.234L19.0379 134.734ZM15.4199 128.47H18.4199L18.4199 114.484H15.4199H12.4199L12.4199 128.47H15.4199ZM15.4199 114.484V117.484H20.1179V114.484V111.484H15.4199V114.484ZM20.1179 114.484H17.1179L17.1179 129.496H20.1179H23.1179L23.1179 114.484H20.1179ZM42.4199 101.705H45.4199V98.7048H42.4199V101.705ZM42.4199 106.943V109.943H45.4199V106.943H42.4199ZM2.99992 106.943H-8.01086e-05L-8.01086e-05 109.943H2.99992L2.99992 106.943ZM2.99992 101.705V98.7048H-8.01086e-05V101.705H2.99992ZM17.3639 101.705V104.705H22.5606L19.9619 100.205L17.3639 101.705ZM15.1499 97.8708H12.1499V98.6748L12.552 99.371L15.1499 97.8708ZM15.1499 89.7168L12.5521 88.2164L12.1499 88.9127V89.7168H15.1499ZM18.7679 83.4528V80.4528H17.0362L16.1701 81.9524L18.7679 83.4528ZM42.4199 83.4528H45.4199V80.4528H42.4199V83.4528ZM42.4199 88.6908V91.6908H45.4199V88.6908H42.4199ZM19.8479 88.6908V85.6908H16.8479V88.6908H19.8479ZM19.8479 101.705H16.8479V104.705H19.8479V101.705ZM42.4199 101.705H39.4199V106.943H42.4199H45.4199V101.705H42.4199ZM42.4199 106.943V103.943H2.99992V106.943L2.99992 109.943H42.4199V106.943ZM2.99992 106.943H5.99992V101.705H2.99992H-8.01086e-05V106.943H2.99992ZM2.99992 101.705V104.705H17.3639V101.705V98.7048H2.99992V101.705ZM17.3639 101.705L19.9619 100.205L17.7479 96.3706L15.1499 97.8708L12.552 99.371L14.766 103.205L17.3639 101.705ZM15.1499 97.8708H18.1499V89.7168H15.1499H12.1499V97.8708H15.1499ZM15.1499 89.7168L17.7477 91.2173L21.3657 84.9533L18.7679 83.4528L16.1701 81.9524L12.5521 88.2164L15.1499 89.7168ZM18.7679 83.4528V86.4528H42.4199V83.4528V80.4528H18.7679V83.4528ZM42.4199 83.4528H39.4199V88.6908H42.4199H45.4199V83.4528H42.4199ZM42.4199 88.6908V85.6908H19.8479V88.6908V91.6908H42.4199V88.6908ZM19.8479 88.6908H16.8479V101.705H19.8479H22.8479V88.6908H19.8479ZM19.8479 101.705V104.705H42.4199V101.705V98.7048H19.8479V101.705ZM39.0719 74.8276V77.8276H40.8036L41.6697 76.328L39.0719 74.8276ZM15.4199 74.8276H12.4199V77.8276H15.4199V74.8276ZM15.4199 69.5896V66.5896H12.4199V69.5896H15.4199ZM37.9919 69.5896V72.5896H40.9919V69.5896H37.9919ZM37.9919 57.1156H40.9919V54.1156H37.9919V57.1156ZM15.4199 57.1156H12.4199V60.1156H15.4199V57.1156ZM15.4199 51.8776V48.8776H12.4199V51.8776H15.4199ZM42.6899 51.8776H45.6899V48.8776H42.6899V51.8776ZM42.6899 55.8196L44.2055 58.4086L45.6899 57.5397V55.8196H42.6899ZM40.4759 57.1156L38.9604 54.5266L36.3866 56.0331L37.878 58.6158L40.4759 57.1156ZM42.6899 60.9496H45.6899V60.1456L45.2879 59.4494L42.6899 60.9496ZM42.6899 68.5636L45.2877 70.064L45.6899 69.3677V68.5636H42.6899ZM39.0719 74.8276V71.8276H15.4199V74.8276V77.8276H39.0719V74.8276ZM15.4199 74.8276H18.4199V69.5896H15.4199H12.4199V74.8276H15.4199ZM15.4199 69.5896V72.5896H37.9919V69.5896V66.5896H15.4199V69.5896ZM37.9919 69.5896H40.9919V57.1156H37.9919H34.9919V69.5896H37.9919ZM37.9919 57.1156V54.1156H15.4199V57.1156V60.1156H37.9919V57.1156ZM15.4199 57.1156H18.4199V51.8776H15.4199H12.4199V57.1156H15.4199ZM15.4199 51.8776V54.8776H42.6899V51.8776V48.8776H15.4199V51.8776ZM42.6899 51.8776H39.6899V55.8196H42.6899H45.6899V51.8776H42.6899ZM42.6899 55.8196L41.1744 53.2305L38.9604 54.5266L40.4759 57.1156L41.9915 59.7046L44.2055 58.4086L42.6899 55.8196ZM40.4759 57.1156L37.878 58.6158L40.092 62.4498L42.6899 60.9496L45.2879 59.4494L43.0739 55.6154L40.4759 57.1156ZM42.6899 60.9496H39.6899V68.5636H42.6899H45.6899V60.9496H42.6899ZM42.6899 68.5636L40.0921 67.0631L36.4741 73.3271L39.0719 74.8276L41.6697 76.328L45.2877 70.064L42.6899 68.5636ZM20.1179 45.3997V48.3997H23.1179V45.3997H20.1179ZM15.4199 45.3997H12.4199V48.3997H15.4199V45.3997ZM15.4199 40.4317H18.4199V37.4317H15.4199V40.4317ZM10.8839 40.4317L8.28581 41.9316L9.15182 43.4317H10.8839V40.4317ZM7.85992 35.1937V32.1937H2.66391L5.26181 36.6936L7.85992 35.1937ZM15.4199 35.1937V38.1937H18.4199V35.1937H15.4199ZM15.4199 28.7137V25.7137H12.4199V28.7137H15.4199ZM20.1179 28.7137H23.1179V25.7137H20.1179V28.7137ZM20.1179 35.1937H17.1179V38.1937H20.1179V35.1937ZM37.7219 35.1937L37.7219 38.1937H40.7219L40.7219 35.1937H37.7219ZM37.7219 28.7137V25.7137H34.7219V28.7137H37.7219ZM42.4199 28.7137H45.4199V25.7137H42.4199V28.7137ZM42.4199 34.1677L45.0177 35.6682L45.4199 34.9718V34.1677H42.4199ZM38.8019 40.4317V43.4317H40.5336L41.3997 41.9322L38.8019 40.4317ZM20.1179 40.4317V37.4317H17.1179V40.4317H20.1179ZM20.1179 45.3997V42.3997H15.4199V45.3997V48.3997H20.1179V45.3997ZM15.4199 45.3997H18.4199V40.4317H15.4199H12.4199V45.3997H15.4199ZM15.4199 40.4317V37.4317H10.8839V40.4317V43.4317H15.4199V40.4317ZM10.8839 40.4317L13.482 38.9318L10.458 33.6938L7.85992 35.1937L5.26181 36.6936L8.28581 41.9316L10.8839 40.4317ZM7.85992 35.1937V38.1937H15.4199V35.1937V32.1937H7.85992V35.1937ZM15.4199 35.1937H18.4199V28.7137H15.4199H12.4199V35.1937H15.4199ZM15.4199 28.7137V31.7137H20.1179V28.7137V25.7137H15.4199V28.7137ZM20.1179 28.7137H17.1179V35.1937H20.1179H23.1179V28.7137H20.1179ZM20.1179 35.1937V38.1937H37.7219L37.7219 35.1937V32.1937H20.1179V35.1937ZM37.7219 35.1937H40.7219V28.7137H37.7219H34.7219V35.1937H37.7219ZM37.7219 28.7137V31.7137H42.4199V28.7137V25.7137H37.7219V28.7137ZM42.4199 28.7137H39.4199V34.1677H42.4199H45.4199V28.7137H42.4199ZM42.4199 34.1677L39.8221 32.6672L36.2041 38.9312L38.8019 40.4317L41.3997 41.9322L45.0177 35.6682L42.4199 34.1677ZM38.8019 40.4317V37.4317H20.1179V40.4317V43.4317H38.8019V40.4317ZM20.1179 40.4317H17.1179V45.3997H20.1179H23.1179V40.4317H20.1179ZM38.8559 23.304L37.0864 25.7266L37.8769 26.304H38.8559V23.304ZM20.2259 9.69598L21.9954 7.27344L21.2049 6.69598H20.2259L20.2259 9.69598ZM20.1179 9.69598L20.1179 6.69598H17.1179L17.1179 9.69598H20.1179ZM20.1179 22.764V25.764H23.1179V22.764H20.1179ZM15.4199 22.764H12.4199V25.764H15.4199V22.764ZM15.4199 3V0H12.4199V3H15.4199ZM18.9839 3L20.7534 0.577423L19.9629 0H18.9839V3ZM37.6139 16.608L35.8444 19.0305L36.6349 19.608H37.6139V16.608ZM37.7219 16.608V19.608H40.7219V16.608H37.7219ZM37.7219 3V0H34.7219V3H37.7219ZM42.4199 3H45.4199V0H42.4199V3ZM42.4199 23.304V26.304H45.4199V23.304H42.4199ZM38.8559 23.304L40.6254 20.8814L21.9954 7.27344L20.2259 9.69598L18.4564 12.1186L37.0864 25.7266L38.8559 23.304ZM20.2259 9.69598L20.2259 6.69598H20.1179L20.1179 9.69598V12.696H20.2259V9.69598ZM20.1179 9.69598H17.1179V22.764H20.1179H23.1179V9.69598H20.1179ZM20.1179 22.764V19.764H15.4199V22.764V25.764H20.1179V22.764ZM15.4199 22.764H18.4199L18.4199 3H15.4199H12.4199L12.4199 22.764H15.4199ZM15.4199 3V6H18.9839V3V0H15.4199V3ZM18.9839 3L17.2144 5.42255L35.8444 19.0305L37.6139 16.608L39.3834 14.1854L20.7534 0.577423L18.9839 3ZM37.6139 16.608V19.608H37.7219V16.608V13.608H37.6139V16.608ZM37.7219 16.608H40.7219V3H37.7219H34.7219V16.608H37.7219ZM37.7219 3V6H42.4199V3V0H37.7219V3ZM42.4199 3H39.4199V23.304H42.4199H45.4199V3H42.4199ZM42.4199 23.304V20.304H38.8559V23.304V26.304H42.4199V23.304Z" fill="#B5E93B" mask="url(#path-1-outside-1_62121_3759)"/>
</svg>
