<svg width="55" height="275" viewBox="0 0 55 275" fill="none" xmlns="http://www.w3.org/2000/svg">
<mask id="path-1-outside-1_62121_3759" maskUnits="userSpaceOnUse" x="-0.200195" y="-0.67395" width="55" height="276" fill="black">
<rect fill="white" x="-0.200195" y="-0.67395" width="55" height="276"/>
<path d="M40.7998 271.466H2.9998V266.066H40.7998V271.466ZM17.1478 220.529H40.7998V225.767H18.2278V236.081H40.7998V241.319H18.2278L18.2278 251.633H40.7998V256.871H13.5298V252.929L15.7438 251.633L13.5298 247.799V242.345L16.4458 237.323L13.5298 232.247V226.793L17.1478 220.529ZM41.0698 194.663V202.817L38.8558 206.651H51.5998V211.889H13.5298V207.947L15.7438 206.651L13.5298 202.817V194.663L17.1478 188.399H37.4518L41.0698 194.663ZM18.2278 206.651H36.3718V193.637H18.2278V206.651ZM18.4978 164.708V174.536H40.7998V179.774H13.7998V175.832L16.0138 174.536L13.7998 170.702V164.708H18.4978ZM36.1018 137.455H40.7998V152.521L37.1818 158.785H17.1478L13.5298 152.521V143.719L17.1478 137.455H29.1358V153.547H36.1018V137.455ZM18.2278 153.547H24.4378V142.693H18.2278V153.547ZM28.3798 108.528H37.1818L40.7998 114.792V128.832H36.1018V113.766H29.4598V122.568L25.8418 128.832H17.4178L13.7998 122.568V109.068H18.4978V123.594H24.7618V114.792L28.3798 108.528ZM28.3798 79.577H37.1818L40.7998 85.841V99.881H36.1018V84.815H29.4598V93.617L25.8418 99.881H17.4178L13.7998 93.617V80.117H18.4978V94.643H24.7618V85.841L28.3798 79.577ZM37.4518 70.9299H13.7998V65.6919H36.3718V53.2179H13.7998V47.9799H41.0698V51.9219L38.8558 53.2179L41.0698 57.0519V64.6659L37.4518 70.9299ZM17.1478 2.99999H40.7998V8.23799H18.2278V18.552H40.7998V23.79H18.2278V34.104H40.7998V39.342H13.5298V35.4L15.7438 34.104L13.5298 30.27V24.816L16.4458 19.794L13.5298 14.718V9.26399L17.1478 2.99999Z"/>
</mask>
<path d="M40.7998 271.466V274.466H43.7998V271.466H40.7998ZM2.9998 271.466H-0.000198364V274.466H2.9998V271.466ZM2.9998 266.066V263.066H-0.000198364V266.066H2.9998ZM40.7998 266.066H43.7998V263.066H40.7998V266.066ZM40.7998 271.466V268.466H2.9998V271.466V274.466H40.7998V271.466ZM2.9998 271.466H5.9998V266.066H2.9998H-0.000198364V271.466H2.9998ZM2.9998 266.066V269.066H40.7998V266.066V263.066H2.9998V266.066ZM40.7998 266.066H37.7998V271.466H40.7998H43.7998V266.066H40.7998ZM17.1478 220.529V217.529H15.4161L14.55 219.029L17.1478 220.529ZM40.7998 220.529H43.7998L43.7998 217.529H40.7998L40.7998 220.529ZM40.7998 225.767V228.767H43.7998V225.767H40.7998ZM18.2278 225.767V222.767H15.2278V225.767H18.2278ZM18.2278 236.081H15.2278V239.081H18.2278V236.081ZM40.7998 236.081H43.7998V233.081H40.7998V236.081ZM40.7998 241.319V244.319H43.7998V241.319H40.7998ZM18.2278 241.319V238.319H15.2278V241.319H18.2278ZM18.2278 251.633H15.2278V254.633H18.2278V251.633ZM40.7998 251.633H43.7998V248.633H40.7998V251.633ZM40.7998 256.871V259.871H43.7998V256.871H40.7998ZM13.5298 256.871H10.5298V259.871H13.5298V256.871ZM13.5298 252.929L12.0143 250.34L10.5298 251.209V252.929H13.5298ZM15.7438 251.633L17.2593 254.222L19.8331 252.716L18.3418 250.133L15.7438 251.633ZM13.5298 247.799H10.5298L10.5298 248.603L10.9319 249.3L13.5298 247.799ZM13.5298 242.345L10.9354 240.839L10.5298 241.537V242.345H13.5298ZM16.4458 237.323L19.0402 238.83L19.9102 237.331L19.0471 235.829L16.4458 237.323ZM13.5298 232.247H10.5298V233.048L10.9285 233.742L13.5298 232.247ZM13.5298 226.793L10.932 225.293L10.5298 225.989V226.793H13.5298ZM17.1478 220.529V223.529H40.7998V220.529L40.7998 217.529H17.1478V220.529ZM40.7998 220.529H37.7998V225.767H40.7998H43.7998V220.529H40.7998ZM40.7998 225.767V222.767H18.2278V225.767V228.767H40.7998V225.767ZM18.2278 225.767H15.2278V236.081H18.2278H21.2278V225.767H18.2278ZM18.2278 236.081V239.081H40.7998V236.081V233.081H18.2278V236.081ZM40.7998 236.081H37.7998V241.319H40.7998H43.7998V236.081H40.7998ZM40.7998 241.319V238.319H18.2278V241.319V244.319H40.7998V241.319ZM18.2278 241.319H15.2278L15.2278 251.633H18.2278H21.2278L21.2278 241.319H18.2278ZM18.2278 251.633V254.633H40.7998V251.633V248.633H18.2278V251.633ZM40.7998 251.633H37.7998V256.871H40.7998H43.7998V251.633H40.7998ZM40.7998 256.871V253.871H13.5298V256.871V259.871H40.7998V256.871ZM13.5298 256.871H16.5298V252.929H13.5298H10.5298V256.871H13.5298ZM13.5298 252.929L15.0453 255.518L17.2593 254.222L15.7438 251.633L14.2283 249.044L12.0143 250.34L13.5298 252.929ZM15.7438 251.633L18.3418 250.133L16.1278 246.299L13.5298 247.799L10.9319 249.3L13.1459 253.134L15.7438 251.633ZM13.5298 247.799H16.5298V242.345H13.5298H10.5298V247.799H13.5298ZM13.5298 242.345L16.1242 243.852L19.0402 238.83L16.4458 237.323L13.8514 235.817L10.9354 240.839L13.5298 242.345ZM16.4458 237.323L19.0471 235.829L16.1311 230.753L13.5298 232.247L10.9285 233.742L13.8445 238.818L16.4458 237.323ZM13.5298 232.247H16.5298V226.793H13.5298H10.5298V232.247H13.5298ZM13.5298 226.793L16.1276 228.294L19.7456 222.03L17.1478 220.529L14.55 219.029L10.932 225.293L13.5298 226.793ZM41.0698 194.663H44.0698V193.859L43.6676 193.162L41.0698 194.663ZM41.0698 202.817L43.6678 204.317L44.0698 203.621V202.817H41.0698ZM38.8558 206.651L36.2579 205.151L33.6591 209.651H38.8558V206.651ZM51.5998 206.651H54.5998V203.651H51.5998V206.651ZM51.5998 211.889V214.889H54.5998V211.889H51.5998ZM13.5298 211.889H10.5298V214.889H13.5298V211.889ZM13.5298 207.947L12.0143 205.358L10.5298 206.227V207.947H13.5298ZM15.7438 206.651L17.2593 209.24L19.8331 207.733L18.3418 205.151L15.7438 206.651ZM13.5298 202.817H10.5298V203.621L10.9319 204.317L13.5298 202.817ZM13.5298 194.663L10.932 193.162L10.5298 193.859V194.663H13.5298ZM17.1478 188.399V185.399H15.4161L14.55 186.898L17.1478 188.399ZM37.4518 188.399L40.0496 186.898L39.1835 185.399H37.4518V188.399ZM18.2278 206.651H15.2278V209.651H18.2278V206.651ZM36.3718 206.651V209.651H39.3718V206.651H36.3718ZM36.3718 193.637H39.3718V190.637H36.3718V193.637ZM18.2278 193.637L18.2278 190.637H15.2278L15.2278 193.637H18.2278ZM41.0698 194.663H38.0698V202.817H41.0698H44.0698V194.663H41.0698ZM41.0698 202.817L38.4719 201.317L36.2579 205.151L38.8558 206.651L41.4538 208.151L43.6678 204.317L41.0698 202.817ZM38.8558 206.651V209.651H51.5998V206.651V203.651H38.8558V206.651ZM51.5998 206.651H48.5998V211.889H51.5998H54.5998V206.651H51.5998ZM51.5998 211.889V208.889H13.5298V211.889V214.889H51.5998V211.889ZM13.5298 211.889H16.5298V207.947H13.5298H10.5298V211.889H13.5298ZM13.5298 207.947L15.0453 210.536L17.2593 209.24L15.7438 206.651L14.2283 204.062L12.0143 205.358L13.5298 207.947ZM15.7438 206.651L18.3418 205.151L16.1278 201.317L13.5298 202.817L10.9319 204.317L13.1459 208.151L15.7438 206.651ZM13.5298 202.817H16.5298V194.663H13.5298H10.5298V202.817H13.5298ZM13.5298 194.663L16.1276 196.163L19.7456 189.899L17.1478 188.399L14.55 186.898L10.932 193.162L13.5298 194.663ZM17.1478 188.399V191.399H37.4518V188.399V185.399H17.1478V188.399ZM37.4518 188.399L34.854 189.899L38.472 196.163L41.0698 194.663L43.6676 193.162L40.0496 186.898L37.4518 188.399ZM18.2278 206.651V209.651H36.3718V206.651V203.651H18.2278V206.651ZM36.3718 206.651H39.3718V193.637H36.3718H33.3718V206.651H36.3718ZM36.3718 193.637V190.637H18.2278L18.2278 193.637V196.637H36.3718V193.637ZM18.2278 193.637H15.2278V206.651H18.2278H21.2278V193.637H18.2278ZM18.4978 164.708H21.4978V161.708H18.4978V164.708ZM18.4978 174.536H15.4978V177.536H18.4978V174.536ZM40.7998 174.536H43.7998V171.536H40.7998V174.536ZM40.7998 179.774V182.774H43.7998V179.774H40.7998ZM13.7998 179.774H10.7998V182.774H13.7998V179.774ZM13.7998 175.832L12.2843 173.243L10.7998 174.112V175.832H13.7998ZM16.0138 174.536L17.5293 177.125L20.1031 175.618L18.6118 173.035L16.0138 174.536ZM13.7998 170.702H10.7998V171.506L11.2019 172.202L13.7998 170.702ZM13.7998 164.708V161.708H10.7998V164.708H13.7998ZM18.4978 164.708H15.4978V174.536H18.4978H21.4978V164.708H18.4978ZM18.4978 174.536V177.536H40.7998V174.536V171.536H18.4978V174.536ZM40.7998 174.536H37.7998V179.774H40.7998H43.7998V174.536H40.7998ZM40.7998 179.774V176.774H13.7998V179.774V182.774H40.7998V179.774ZM13.7998 179.774H16.7998V175.832H13.7998H10.7998V179.774H13.7998ZM13.7998 175.832L15.3153 178.421L17.5293 177.125L16.0138 174.536L14.4983 171.947L12.2843 173.243L13.7998 175.832ZM16.0138 174.536L18.6118 173.035L16.3978 169.201L13.7998 170.702L11.2019 172.202L13.4159 176.036L16.0138 174.536ZM13.7998 170.702H16.7998V164.708H13.7998H10.7998V170.702H13.7998ZM13.7998 164.708V167.708H18.4978V164.708V161.708H13.7998V164.708ZM36.1018 137.455V134.455H33.1018V137.455H36.1018ZM40.7998 137.455H43.7998V134.455H40.7998V137.455ZM40.7998 152.521L43.3976 154.022L43.7998 153.325V152.521H40.7998ZM37.1818 158.785V161.785H38.9135L39.7796 160.286L37.1818 158.785ZM17.1478 158.785L14.55 160.286L15.4161 161.785H17.1478V158.785ZM13.5298 152.521H10.5298V153.325L10.932 154.022L13.5298 152.521ZM13.5298 143.719L10.932 142.219L10.5298 142.915V143.719H13.5298ZM17.1478 137.455L17.1478 134.455H15.4161L14.55 135.955L17.1478 137.455ZM29.1358 137.455H32.1358V134.455H29.1358V137.455ZM29.1358 153.547H26.1358V156.547H29.1358V153.547ZM36.1018 153.547V156.547H39.1018V153.547H36.1018ZM18.2278 153.547H15.2278V156.547H18.2278V153.547ZM24.4378 153.547V156.547H27.4378V153.547H24.4378ZM24.4378 142.693H27.4378V139.693H24.4378V142.693ZM18.2278 142.693V139.693H15.2278V142.693H18.2278ZM36.1018 137.455V140.455H40.7998V137.455V134.455H36.1018V137.455ZM40.7998 137.455H37.7998V152.521H40.7998H43.7998V137.455H40.7998ZM40.7998 152.521L38.202 151.021L34.584 157.285L37.1818 158.785L39.7796 160.286L43.3976 154.022L40.7998 152.521ZM37.1818 158.785V155.785H17.1478V158.785V161.785H37.1818V158.785ZM17.1478 158.785L19.7456 157.285L16.1276 151.021L13.5298 152.521L10.932 154.022L14.55 160.286L17.1478 158.785ZM13.5298 152.521H16.5298V143.719H13.5298H10.5298V152.521H13.5298ZM13.5298 143.719L16.1276 145.22L19.7456 138.956L17.1478 137.455L14.55 135.955L10.932 142.219L13.5298 143.719ZM17.1478 137.455V140.455H29.1358V137.455V134.455H17.1478L17.1478 137.455ZM29.1358 137.455H26.1358V153.547H29.1358H32.1358V137.455H29.1358ZM29.1358 153.547V156.547H36.1018V153.547V150.547H29.1358V153.547ZM36.1018 153.547H39.1018V137.455H36.1018H33.1018V153.547H36.1018ZM18.2278 153.547V156.547H24.4378V153.547V150.547H18.2278V153.547ZM24.4378 153.547H27.4378V142.693H24.4378H21.4378V153.547H24.4378ZM24.4378 142.693V139.693H18.2278V142.693V145.693H24.4378V142.693ZM18.2278 142.693H15.2278V153.547H18.2278H21.2278V142.693H18.2278ZM28.3798 108.528L28.3798 105.528H26.6481L25.782 107.028L28.3798 108.528ZM37.1818 108.528L39.7796 107.028L38.9135 105.528H37.1818L37.1818 108.528ZM40.7998 114.792H43.7998V113.988L43.3976 113.292L40.7998 114.792ZM40.7998 128.832V131.832H43.7998V128.832H40.7998ZM36.1018 128.832H33.1018V131.832H36.1018V128.832ZM36.1018 113.766H39.1018V110.766H36.1018V113.766ZM29.4598 113.766V110.766H26.4598V113.766H29.4598ZM29.4598 122.568L32.0576 124.069L32.4598 123.372V122.568H29.4598ZM25.8418 128.832V131.832H27.5735L28.4396 130.333L25.8418 128.832ZM17.4178 128.832L14.82 130.333L15.6861 131.832H17.4178V128.832ZM13.7998 122.568H10.7998V123.372L11.202 124.069L13.7998 122.568ZM13.7998 109.068V106.068H10.7998V109.068H13.7998ZM18.4978 109.068H21.4978V106.068H18.4978V109.068ZM18.4978 123.594H15.4978V126.594H18.4978V123.594ZM24.7618 123.594V126.594H27.7618V123.594H24.7618ZM24.7618 114.792L22.164 113.292L21.7618 113.988V114.792H24.7618ZM28.3798 108.528V111.528H37.1818V108.528L37.1818 105.528H28.3798L28.3798 108.528ZM37.1818 108.528L34.584 110.029L38.202 116.293L40.7998 114.792L43.3976 113.292L39.7796 107.028L37.1818 108.528ZM40.7998 114.792H37.7998V128.832H40.7998H43.7998V114.792H40.7998ZM40.7998 128.832V125.832H36.1018V128.832V131.832H40.7998V128.832ZM36.1018 128.832H39.1018V113.766H36.1018H33.1018V128.832H36.1018ZM36.1018 113.766V110.766H29.4598V113.766V116.766H36.1018V113.766ZM29.4598 113.766H26.4598V122.568H29.4598H32.4598V113.766H29.4598ZM29.4598 122.568L26.862 121.068L23.244 127.332L25.8418 128.832L28.4396 130.333L32.0576 124.069L29.4598 122.568ZM25.8418 128.832V125.832H17.4178V128.832V131.832H25.8418V128.832ZM17.4178 128.832L20.0156 127.332L16.3976 121.068L13.7998 122.568L11.202 124.069L14.82 130.333L17.4178 128.832ZM13.7998 122.568H16.7998V109.068H13.7998H10.7998V122.568H13.7998ZM13.7998 109.068V112.068H18.4978V109.068V106.068H13.7998V109.068ZM18.4978 109.068H15.4978V123.594H18.4978H21.4978V109.068H18.4978ZM18.4978 123.594V126.594H24.7618V123.594V120.594H18.4978V123.594ZM24.7618 123.594H27.7618V114.792H24.7618H21.7618V123.594H24.7618ZM24.7618 114.792L27.3596 116.293L30.9776 110.029L28.3798 108.528L25.782 107.028L22.164 113.292L24.7618 114.792ZM28.3798 79.577V76.577H26.6481L25.782 78.0766L28.3798 79.577ZM37.1818 79.577L39.7796 78.0766L38.9135 76.577H37.1818V79.577ZM40.7998 85.841H43.7998V85.0369L43.3976 84.3406L40.7998 85.841ZM40.7998 99.881V102.881H43.7998V99.881H40.7998ZM36.1018 99.881H33.1018V102.881H36.1018V99.881ZM36.1018 84.815H39.1018V81.815H36.1018V84.815ZM29.4598 84.815V81.815H26.4598V84.815H29.4598ZM29.4598 93.6171L32.0576 95.1175L32.4598 94.4212V93.6171H29.4598ZM25.8418 99.881V102.881H27.5735L28.4396 101.382L25.8418 99.881ZM17.4178 99.881L14.82 101.382L15.6861 102.881H17.4178V99.881ZM13.7998 93.6171H10.7998V94.4212L11.202 95.1175L13.7998 93.6171ZM13.7998 80.1171L13.7998 77.1171H10.7998L10.7998 80.1171H13.7998ZM18.4978 80.1171H21.4978L21.4978 77.1171H18.4978L18.4978 80.1171ZM18.4978 94.6431H15.4978V97.6431H18.4978V94.6431ZM24.7618 94.6431V97.6431H27.7618V94.6431H24.7618ZM24.7618 85.841L22.164 84.3406L21.7618 85.0369V85.841H24.7618ZM28.3798 79.577V82.577H37.1818V79.577V76.577H28.3798V79.577ZM37.1818 79.577L34.584 81.0775L38.202 87.3415L40.7998 85.841L43.3976 84.3406L39.7796 78.0766L37.1818 79.577ZM40.7998 85.841H37.7998V99.881H40.7998H43.7998V85.841H40.7998ZM40.7998 99.881V96.881H36.1018V99.881V102.881H40.7998V99.881ZM36.1018 99.881H39.1018V84.815H36.1018H33.1018V99.881H36.1018ZM36.1018 84.815V81.815H29.4598V84.815V87.815H36.1018V84.815ZM29.4598 84.815H26.4598V93.6171H29.4598H32.4598V84.815H29.4598ZM29.4598 93.6171L26.862 92.1166L23.244 98.3806L25.8418 99.881L28.4396 101.382L32.0576 95.1175L29.4598 93.6171ZM25.8418 99.881V96.881H17.4178V99.881V102.881H25.8418V99.881ZM17.4178 99.881L20.0156 98.3806L16.3976 92.1166L13.7998 93.6171L11.202 95.1175L14.82 101.382L17.4178 99.881ZM13.7998 93.6171H16.7998V80.1171H13.7998H10.7998V93.6171H13.7998ZM13.7998 80.1171V83.1171H18.4978V80.1171L18.4978 77.1171H13.7998L13.7998 80.1171ZM18.4978 80.1171H15.4978V94.6431H18.4978H21.4978V80.1171H18.4978ZM18.4978 94.6431V97.6431H24.7618V94.6431V91.6431H18.4978V94.6431ZM24.7618 94.6431H27.7618V85.841H24.7618H21.7618V94.6431H24.7618ZM24.7618 85.841L27.3596 87.3415L30.9776 81.0775L28.3798 79.577L25.782 78.0766L22.164 84.3406L24.7618 85.841ZM37.4518 70.9299V73.9299H39.1835L40.0496 72.4303L37.4518 70.9299ZM13.7998 70.9299H10.7998V73.9299H13.7998V70.9299ZM13.7998 65.6919V62.6919H10.7998V65.6919H13.7998ZM36.3718 65.6919V68.6919H39.3718V65.6919H36.3718ZM36.3718 53.2179H39.3718V50.2179H36.3718V53.2179ZM13.7998 53.2179H10.7998V56.2179H13.7998V53.2179ZM13.7998 47.9799V44.9799H10.7998V47.9799H13.7998ZM41.0698 47.9799H44.0698V44.9799H41.0698V47.9799ZM41.0698 51.9219L42.5853 54.5109L44.0698 53.642V51.9219H41.0698ZM38.8558 53.2179L37.3403 50.6288L34.7665 52.1355L36.2579 54.7181L38.8558 53.2179ZM41.0698 57.0519H44.0698V56.2479L43.6678 55.5517L41.0698 57.0519ZM41.0698 64.6659L43.6676 66.1663L44.0698 65.47V64.6659H41.0698ZM37.4518 70.9299V67.9299H13.7998V70.9299V73.9299H37.4518V70.9299ZM13.7998 70.9299H16.7998V65.6919H13.7998H10.7998V70.9299H13.7998ZM13.7998 65.6919V68.6919H36.3718V65.6919V62.6919H13.7998V65.6919ZM36.3718 65.6919H39.3718V53.2179H36.3718H33.3718V65.6919H36.3718ZM36.3718 53.2179V50.2179H13.7998V53.2179V56.2179H36.3718V53.2179ZM13.7998 53.2179H16.7998V47.9799H13.7998H10.7998V53.2179H13.7998ZM13.7998 47.9799V50.9799H41.0698V47.9799V44.9799H13.7998V47.9799ZM41.0698 47.9799H38.0698V51.9219H41.0698H44.0698V47.9799H41.0698ZM41.0698 51.9219L39.5543 49.3328L37.3403 50.6288L38.8558 53.2179L40.3713 55.8069L42.5853 54.5109L41.0698 51.9219ZM38.8558 53.2179L36.2579 54.7181L38.4719 58.5521L41.0698 57.0519L43.6678 55.5517L41.4538 51.7177L38.8558 53.2179ZM41.0698 57.0519H38.0698V64.6659H41.0698H44.0698V57.0519H41.0698ZM41.0698 64.6659L38.472 63.1654L34.854 69.4294L37.4518 70.9299L40.0496 72.4303L43.6676 66.1663L41.0698 64.6659ZM17.1478 3V0H15.4161L14.55 1.49951L17.1478 3ZM40.7998 3H43.7998V0H40.7998V3ZM40.7998 8.23798V11.238H43.7998V8.23798H40.7998ZM18.2278 8.23798V5.23798H15.2278V8.23798H18.2278ZM18.2278 18.552H15.2278V21.552H18.2278V18.552ZM40.7998 18.552H43.7998V15.552H40.7998V18.552ZM40.7998 23.79V26.79H43.7998V23.79H40.7998ZM18.2278 23.79L18.2278 20.79H15.2278L15.2278 23.79H18.2278ZM18.2278 34.104H15.2278V37.104H18.2278V34.104ZM40.7998 34.104H43.7998V31.104H40.7998V34.104ZM40.7998 39.342V42.342H43.7998V39.342H40.7998ZM13.5298 39.342H10.5298V42.342H13.5298V39.342ZM13.5298 35.4L12.0143 32.8109L10.5298 33.6799V35.4H13.5298ZM15.7438 34.104L17.2593 36.693L19.8331 35.1864L18.3418 32.6038L15.7438 34.104ZM13.5298 30.27H10.5298V31.074L10.9319 31.7702L13.5298 30.27ZM13.5298 24.816L10.9354 23.3096L10.5298 24.0082V24.816H13.5298ZM16.4458 19.794L19.0402 21.3004L19.9102 19.802L19.0471 18.2996L16.4458 19.794ZM13.5298 14.718H10.5298V15.5183L10.9285 16.2124L13.5298 14.718ZM13.5298 9.26398L10.932 7.76352L10.5298 8.45984V9.26398H13.5298ZM17.1478 3V6H40.7998V3V0H17.1478V3ZM40.7998 3H37.7998V8.23798H40.7998H43.7998V3H40.7998ZM40.7998 8.23798V5.23798H18.2278V8.23798V11.238H40.7998V8.23798ZM18.2278 8.23798H15.2278V18.552H18.2278H21.2278V8.23798H18.2278ZM18.2278 18.552V21.552H40.7998V18.552V15.552H18.2278V18.552ZM40.7998 18.552H37.7998V23.79H40.7998H43.7998V18.552H40.7998ZM40.7998 23.79V20.79H18.2278L18.2278 23.79V26.79H40.7998V23.79ZM18.2278 23.79H15.2278V34.104H18.2278H21.2278V23.79H18.2278ZM18.2278 34.104V37.104H40.7998V34.104V31.104H18.2278V34.104ZM40.7998 34.104H37.7998V39.342H40.7998H43.7998V34.104H40.7998ZM40.7998 39.342V36.342H13.5298V39.342V42.342H40.7998V39.342ZM13.5298 39.342H16.5298V35.4H13.5298H10.5298V39.342H13.5298ZM13.5298 35.4L15.0453 37.989L17.2593 36.693L15.7438 34.104L14.2283 31.5149L12.0143 32.8109L13.5298 35.4ZM15.7438 34.104L18.3418 32.6038L16.1278 28.7698L13.5298 30.27L10.9319 31.7702L13.1459 35.6042L15.7438 34.104ZM13.5298 30.27H16.5298V24.816H13.5298H10.5298V30.27H13.5298ZM13.5298 24.816L16.1242 26.3224L19.0402 21.3004L16.4458 19.794L13.8514 18.2876L10.9354 23.3096L13.5298 24.816ZM16.4458 19.794L19.0471 18.2996L16.1311 13.2236L13.5298 14.718L10.9285 16.2124L13.8445 21.2884L16.4458 19.794ZM13.5298 14.718H16.5298V9.26398H13.5298H10.5298V14.718H13.5298ZM13.5298 9.26398L16.1276 10.7644L19.7456 4.50046L17.1478 3L14.55 1.49951L10.932 7.76352L13.5298 9.26398Z" fill="#B5E93B" mask="url(#path-1-outside-1_62121_3759)"/>
</svg>
