<svg width="66" height="323" viewBox="0 0 66 323" fill="none" xmlns="http://www.w3.org/2000/svg">
<mask id="path-1-outside-1_62121_3758" maskUnits="userSpaceOnUse" x="8" y="13" width="58" height="310" fill="black">
<rect fill="white" x="8" y="13" width="58" height="310"/>
<path d="M51 319.14H13.2V313.74H46.14V299.754H51V319.14ZM46.302 272.51H51V287.576L47.382 293.84H27.348L23.73 287.576V278.774L27.348 272.51H39.336V288.602H46.302V272.51ZM28.428 288.602H34.638V277.748H28.428V288.602ZM51 258.649L47.976 263.887H43.116L40.902 260.053L38.688 263.887H27.618L24 257.623V240.397H25.836L28.698 245.311L30.642 242.017H38.094L41.712 248.281V258.649H46.302V246.661L49.92 240.397H58.452L62.07 246.661V258.703L58.452 264.967H55.104L52.08 259.729H57.48V245.635H51V258.649ZM28.59 258.649H37.122V247.255H28.59V258.649ZM39.93 228.668H46.572V217.814H39.93V228.668ZM51.27 227.642L47.652 233.906H38.85L35.232 227.642V217.814H28.698V231.206H24V218.84L27.618 212.576H51.27V213.98L49.056 217.814L51.27 221.648V227.642ZM51 197.664L47.382 203.928H11.58V198.69H46.302V192.21H51V197.664ZM22.434 166.822H51V172.222H13.2L13.2 167.308L41.766 147.76V147.652H13.2V142.252H51V147.166L22.434 166.714V166.822ZM47.652 110.103L51.27 116.367V126.789L47.652 133.053H27.348L23.73 126.789L23.73 116.367L27.348 110.103H47.652ZM28.428 127.815H46.572V115.341H28.428L28.428 127.815ZM28.698 103.625H24V98.6572H19.464L16.44 93.4192H24V86.9392H28.698V93.4192H46.302V86.9392H51V92.3932L47.382 98.6572H28.698V103.625ZM24 74.1315H51V79.3695H24V74.1315ZM17.358 79.6395H11.58V73.8615H17.358V79.6395ZM28.698 60.2623H46.302V45.2503H51V59.2363L47.382 65.5003H27.618L24 59.2363V45.2503H28.698V60.2623ZM46.302 16.3793H51V31.4453L47.382 37.7093H27.348L23.73 31.4453V22.6433L27.348 16.3793H39.336V32.4713H46.302V16.3793ZM28.428 32.4713H34.638V21.6173H28.428V32.4713Z"/>
</mask>
<path d="M51 319.14V322.14H54V319.14H51ZM13.2 319.14H10.2V322.14H13.2V319.14ZM13.2 313.74V310.74H10.2V313.74H13.2ZM46.14 313.74V316.74H49.14V313.74H46.14ZM46.14 299.754V296.754H43.14V299.754H46.14ZM51 299.754H54V296.754H51V299.754ZM51 319.14V316.14H13.2V319.14V322.14H51V319.14ZM13.2 319.14H16.2V313.74H13.2H10.2V319.14H13.2ZM13.2 313.74V316.74H46.14V313.74V310.74H13.2V313.74ZM46.14 313.74H49.14V299.754H46.14H43.14V313.74H46.14ZM46.14 299.754V302.754H51V299.754V296.754H46.14V299.754ZM51 299.754H48V319.14H51H54V299.754H51ZM46.302 272.51V269.51H43.302V272.51H46.302ZM51 272.51H54V269.51H51V272.51ZM51 287.576L53.5978 289.077L54 288.38V287.576H51ZM47.382 293.84V296.84H49.1137L49.9798 295.341L47.382 293.84ZM27.348 293.84L24.7502 295.341L25.6163 296.84H27.348L27.348 293.84ZM23.73 287.576H20.73V288.38L21.1322 289.077L23.73 287.576ZM23.73 278.774L21.1322 277.274L20.73 277.97V278.774H23.73ZM27.348 272.51V269.51H25.6163L24.7502 271.01L27.348 272.51ZM39.336 272.51H42.336V269.51H39.336V272.51ZM39.336 288.602H36.336V291.602H39.336V288.602ZM46.302 288.602V291.602H49.302V288.602H46.302ZM28.428 288.602H25.428V291.602H28.428V288.602ZM34.638 288.602V291.602H37.638V288.602H34.638ZM34.638 277.748H37.638V274.748H34.638V277.748ZM28.428 277.748V274.748H25.428V277.748H28.428ZM46.302 272.51V275.51H51V272.51V269.51H46.302V272.51ZM51 272.51H48V287.576H51H54V272.51H51ZM51 287.576L48.4022 286.076L44.7842 292.34L47.382 293.84L49.9798 295.341L53.5978 289.077L51 287.576ZM47.382 293.84V290.84H27.348V293.84L27.348 296.84H47.382V293.84ZM27.348 293.84L29.9458 292.34L26.3278 286.076L23.73 287.576L21.1322 289.077L24.7502 295.341L27.348 293.84ZM23.73 287.576H26.73V278.774H23.73H20.73V287.576H23.73ZM23.73 278.774L26.3278 280.275L29.9458 274.011L27.348 272.51L24.7502 271.01L21.1322 277.274L23.73 278.774ZM27.348 272.51V275.51H39.336V272.51V269.51H27.348V272.51ZM39.336 272.51H36.336V288.602H39.336H42.336V272.51H39.336ZM39.336 288.602V291.602H46.302V288.602V285.602H39.336V288.602ZM46.302 288.602H49.302V272.51H46.302H43.302V288.602H46.302ZM28.428 288.602V291.602H34.638V288.602V285.602H28.428V288.602ZM34.638 288.602H37.638V277.748H34.638H31.638V288.602H34.638ZM34.638 277.748V274.748H28.428V277.748V280.748H34.638V277.748ZM28.428 277.748H25.428V288.602H28.428H31.428V277.748H28.428ZM51 258.649L53.5981 260.149L54 259.453V258.649H51ZM47.976 263.887V266.887H49.7081L50.5741 265.387L47.976 263.887ZM43.116 263.887L40.5181 265.387L41.3841 266.887H43.116V263.887ZM40.902 260.053L43.4999 258.553L40.902 254.054L38.3041 258.553L40.902 260.053ZM38.688 263.887V266.887H40.4199L41.2859 265.387L38.688 263.887ZM27.618 263.887L25.0202 265.387L25.8863 266.887H27.618V263.887ZM24 257.623H21V258.427L21.4022 259.123L24 257.623ZM24 240.397L24 237.397H21L21 240.397H24ZM25.836 240.397L28.4284 238.887L27.5605 237.397H25.836L25.836 240.397ZM28.698 245.311L26.1056 246.821L28.6809 251.243L31.2816 246.836L28.698 245.311ZM30.642 242.017L30.642 239.017H28.929L28.0584 240.492L30.642 242.017ZM38.094 242.017L40.6918 240.517L39.8257 239.017H38.094V242.017ZM41.712 248.281H44.712V247.477L44.3098 246.781L41.712 248.281ZM41.712 258.649H38.712V261.649H41.712V258.649ZM46.302 258.649V261.649H49.302V258.649H46.302ZM46.302 246.661L43.7042 245.161L43.302 245.857V246.661H46.302ZM49.92 240.397V237.397H48.1883L47.3222 238.897L49.92 240.397ZM58.452 240.397L61.0498 238.897L60.1837 237.397H58.452V240.397ZM62.07 246.661H65.07V245.857L64.6678 245.161L62.07 246.661ZM62.07 258.703L64.6678 260.203L65.07 259.507V258.703H62.07ZM58.452 264.967L58.452 267.967H60.1837L61.0498 266.467L58.452 264.967ZM55.104 264.967L52.5059 266.467L53.3719 267.967H55.104L55.104 264.967ZM52.08 259.729V256.729H46.884L49.4819 261.229L52.08 259.729ZM57.48 259.729V262.729H60.48V259.729H57.48ZM57.48 245.635H60.48V242.635H57.48V245.635ZM51 245.635V242.635H48V245.635H51ZM28.59 258.649H25.59V261.649H28.59V258.649ZM37.122 258.649V261.649H40.122V258.649H37.122ZM37.122 247.255H40.122V244.255H37.122V247.255ZM28.59 247.255V244.255H25.59V247.255H28.59ZM51 258.649L48.4019 257.149L45.3779 262.387L47.976 263.887L50.5741 265.387L53.5981 260.149L51 258.649ZM47.976 263.887V260.887H43.116V263.887V266.887H47.976V263.887ZM43.116 263.887L45.7139 262.387L43.4999 258.553L40.902 260.053L38.3041 261.553L40.5181 265.387L43.116 263.887ZM40.902 260.053L38.3041 258.553L36.0901 262.387L38.688 263.887L41.2859 265.387L43.4999 261.553L40.902 260.053ZM38.688 263.887V260.887H27.618V263.887V266.887H38.688V263.887ZM27.618 263.887L30.2158 262.387L26.5978 256.123L24 257.623L21.4022 259.123L25.0202 265.387L27.618 263.887ZM24 257.623H27V240.397H24H21V257.623H24ZM24 240.397V243.397H25.836V240.397L25.836 237.397H24L24 240.397ZM25.836 240.397L23.2436 241.907L26.1056 246.821L28.698 245.311L31.2904 243.801L28.4284 238.887L25.836 240.397ZM28.698 245.311L31.2816 246.836L33.2256 243.542L30.642 242.017L28.0584 240.492L26.1144 243.786L28.698 245.311ZM30.642 242.017V245.017H38.094V242.017V239.017H30.642L30.642 242.017ZM38.094 242.017L35.4962 243.517L39.1142 249.781L41.712 248.281L44.3098 246.781L40.6918 240.517L38.094 242.017ZM41.712 248.281H38.712V258.649H41.712H44.712V248.281H41.712ZM41.712 258.649V261.649H46.302V258.649V255.649H41.712V258.649ZM46.302 258.649H49.302V246.661H46.302H43.302V258.649H46.302ZM46.302 246.661L48.8998 248.161L52.5178 241.897L49.92 240.397L47.3222 238.897L43.7042 245.161L46.302 246.661ZM49.92 240.397V243.397H58.452V240.397V237.397H49.92V240.397ZM58.452 240.397L55.8542 241.897L59.4722 248.161L62.07 246.661L64.6678 245.161L61.0498 238.897L58.452 240.397ZM62.07 246.661H59.07V258.703H62.07H65.07V246.661H62.07ZM62.07 258.703L59.4722 257.203L55.8542 263.467L58.452 264.967L61.0498 266.467L64.6678 260.203L62.07 258.703ZM58.452 264.967V261.967H55.104V264.967L55.104 267.967H58.452L58.452 264.967ZM55.104 264.967L57.7021 263.467L54.6781 258.229L52.08 259.729L49.4819 261.229L52.5059 266.467L55.104 264.967ZM52.08 259.729V262.729H57.48V259.729V256.729H52.08V259.729ZM57.48 259.729H60.48V245.635H57.48H54.48V259.729H57.48ZM57.48 245.635V242.635H51V245.635V248.635H57.48V245.635ZM51 245.635H48V258.649H51H54V245.635H51ZM28.59 258.649V261.649H37.122V258.649V255.649H28.59V258.649ZM37.122 258.649H40.122V247.255H37.122H34.122V258.649H37.122ZM37.122 247.255V244.255H28.59V247.255V250.255H37.122V247.255ZM28.59 247.255H25.59V258.649H28.59H31.59V247.255H28.59ZM39.93 228.668H36.93V231.668H39.93V228.668ZM46.572 228.668V231.668H49.572V228.668H46.572ZM46.572 217.814H49.572V214.814H46.572V217.814ZM39.93 217.814V214.814H36.93V217.814H39.93ZM51.27 227.642L53.8678 229.143L54.27 228.447V227.642H51.27ZM47.652 233.906V236.906H49.3837L50.2498 235.407L47.652 233.906ZM38.85 233.906L36.2522 235.407L37.1183 236.906H38.85V233.906ZM35.232 227.642H32.232V228.447L32.6342 229.143L35.232 227.642ZM35.232 217.814H38.232V214.814H35.232V217.814ZM28.698 217.814V214.814H25.698V217.814H28.698ZM28.698 231.206V234.206H31.698V231.206H28.698ZM24 231.206H21V234.206H24V231.206ZM24 218.84L21.4022 217.34L21 218.036V218.84H24ZM27.618 212.576V209.576H25.8863L25.0202 211.076L27.618 212.576ZM51.27 212.576H54.27V209.576H51.27V212.576ZM51.27 213.98L53.8679 215.481L54.27 214.784V213.98H51.27ZM49.056 217.814L46.4581 216.314L45.5917 217.814L46.4581 219.315L49.056 217.814ZM51.27 221.648H54.27V220.844L53.8679 220.148L51.27 221.648ZM39.93 228.668V231.668H46.572V228.668V225.668H39.93V228.668ZM46.572 228.668H49.572V217.814H46.572H43.572V228.668H46.572ZM46.572 217.814V214.814H39.93V217.814V220.814H46.572V217.814ZM39.93 217.814H36.93V228.668H39.93H42.93V217.814H39.93ZM51.27 227.642L48.6722 226.142L45.0542 232.406L47.652 233.906L50.2498 235.407L53.8678 229.143L51.27 227.642ZM47.652 233.906V230.906H38.85V233.906V236.906H47.652V233.906ZM38.85 233.906L41.4478 232.406L37.8298 226.142L35.232 227.642L32.6342 229.143L36.2522 235.407L38.85 233.906ZM35.232 227.642H38.232V217.814H35.232H32.232V227.642H35.232ZM35.232 217.814V214.814H28.698V217.814V220.814H35.232V217.814ZM28.698 217.814H25.698V231.206H28.698H31.698V217.814H28.698ZM28.698 231.206V228.206H24V231.206V234.206H28.698V231.206ZM24 231.206H27V218.84H24H21V231.206H24ZM24 218.84L26.5978 220.341L30.2158 214.077L27.618 212.576L25.0202 211.076L21.4022 217.34L24 218.84ZM27.618 212.576V215.576H51.27V212.576V209.576H27.618V212.576ZM51.27 212.576H48.27V213.98H51.27H54.27V212.576H51.27ZM51.27 213.98L48.6721 212.48L46.4581 216.314L49.056 217.814L51.6539 219.315L53.8679 215.481L51.27 213.98ZM49.056 217.814L46.4581 219.315L48.6721 223.149L51.27 221.648L53.8679 220.148L51.6539 216.314L49.056 217.814ZM51.27 221.648H48.27V227.642H51.27H54.27V221.648H51.27ZM51 197.664L53.5978 199.165L54 198.468V197.664H51ZM47.382 203.928V206.928H49.1137L49.9798 205.429L47.382 203.928ZM11.58 203.928H8.58V206.928H11.58V203.928ZM11.58 198.69L11.58 195.69H8.58L8.58 198.69H11.58ZM46.302 198.69V201.69H49.302V198.69H46.302ZM46.302 192.21V189.21H43.302V192.21H46.302ZM51 192.21H54V189.21H51V192.21ZM51 197.664L48.4022 196.164L44.7842 202.428L47.382 203.928L49.9798 205.429L53.5978 199.165L51 197.664ZM47.382 203.928V200.928H11.58V203.928V206.928H47.382V203.928ZM11.58 203.928H14.58V198.69H11.58H8.58V203.928H11.58ZM11.58 198.69V201.69H46.302V198.69V195.69H11.58L11.58 198.69ZM46.302 198.69H49.302V192.21H46.302H43.302V198.69H46.302ZM46.302 192.21V195.21H51V192.21V189.21H46.302V192.21ZM51 192.21H48V197.664H51H54V192.21H51ZM22.434 166.822H19.434V169.822H22.434V166.822ZM51 166.822H54V163.822H51V166.822ZM51 172.222V175.222H54V172.222H51ZM13.2 172.222H10.2V175.222H13.2V172.222ZM13.2 167.308L11.5058 164.832L10.2 165.726V167.308H13.2ZM41.766 147.76L43.4602 150.236L44.766 149.342V147.76H41.766ZM41.766 147.652H44.766V144.652H41.766V147.652ZM13.2 147.652H10.2V150.652H13.2V147.652ZM13.2 142.252L13.2 139.252H10.2L10.2 142.252H13.2ZM51 142.252H54V139.252H51V142.252ZM51 147.166L52.6942 149.642L54 148.748V147.166H51ZM22.434 166.714L20.7398 164.238L19.434 165.132V166.714H22.434ZM22.434 166.822V169.822H51V166.822V163.822H22.434V166.822ZM51 166.822H48V172.222H51H54V166.822H51ZM51 172.222V169.222H13.2V172.222V175.222H51V172.222ZM13.2 172.222H16.2V167.308H13.2H10.2L10.2 172.222H13.2ZM13.2 167.308L14.8942 169.784L43.4602 150.236L41.766 147.76L40.0718 145.284L11.5058 164.832L13.2 167.308ZM41.766 147.76H44.766V147.652H41.766H38.766V147.76H41.766ZM41.766 147.652V144.652H13.2V147.652V150.652H41.766V147.652ZM13.2 147.652H16.2V142.252H13.2H10.2V147.652H13.2ZM13.2 142.252V145.252H51V142.252V139.252H13.2L13.2 142.252ZM51 142.252H48V147.166H51H54V142.252H51ZM51 147.166L49.3058 144.69L20.7398 164.238L22.434 166.714L24.1282 169.19L52.6942 149.642L51 147.166ZM22.434 166.714H19.434V166.822H22.434H25.434V166.714H22.434ZM47.652 110.103L50.2498 108.603L49.3837 107.103H47.652V110.103ZM51.27 116.367H54.27V115.563L53.8678 114.867L51.27 116.367ZM51.27 126.789L53.8678 128.29L54.27 127.593V126.789H51.27ZM47.652 133.053V136.053H49.3837L50.2498 134.554L47.652 133.053ZM27.348 133.053L24.7502 134.554L25.6163 136.053H27.348V133.053ZM23.73 126.789H20.73V127.593L21.1322 128.29L23.73 126.789ZM23.73 116.367L21.1322 114.867L20.73 115.563V116.367H23.73ZM27.348 110.103V107.103H25.6163L24.7502 108.603L27.348 110.103ZM28.428 127.815H25.428V130.815H28.428V127.815ZM46.572 127.815V130.815H49.572V127.815H46.572ZM46.572 115.341H49.572V112.341H46.572V115.341ZM28.428 115.341V112.341H25.428V115.341H28.428ZM47.652 110.103L45.0542 111.604L48.6722 117.868L51.27 116.367L53.8678 114.867L50.2498 108.603L47.652 110.103ZM51.27 116.367H48.27V126.789H51.27H54.27V116.367H51.27ZM51.27 126.789L48.6722 125.289L45.0542 131.553L47.652 133.053L50.2498 134.554L53.8678 128.29L51.27 126.789ZM47.652 133.053V130.053H27.348V133.053V136.053H47.652V133.053ZM27.348 133.053L29.9458 131.553L26.3278 125.289L23.73 126.789L21.1322 128.29L24.7502 134.554L27.348 133.053ZM23.73 126.789H26.73L26.73 116.367H23.73H20.73L20.73 126.789H23.73ZM23.73 116.367L26.3278 117.868L29.9458 111.604L27.348 110.103L24.7502 108.603L21.1322 114.867L23.73 116.367ZM27.348 110.103V113.103H47.652V110.103V107.103H27.348V110.103ZM28.428 127.815V130.815H46.572V127.815V124.815H28.428L28.428 127.815ZM46.572 127.815H49.572V115.341H46.572H43.572V127.815H46.572ZM46.572 115.341V112.341H28.428V115.341V118.341H46.572V115.341ZM28.428 115.341H25.428L25.428 127.815H28.428H31.428L31.428 115.341H28.428ZM28.698 103.625V106.625H31.698V103.625H28.698ZM24 103.625H21V106.625H24V103.625ZM24 98.6572H27V95.6572H24V98.6572ZM19.464 98.6572L16.8659 100.157L17.7319 101.657H19.464V98.6572ZM16.44 93.4192V90.4192H11.244L13.8419 94.9191L16.44 93.4192ZM24 93.4192V96.4192H27V93.4192H24ZM24 86.9392V83.9392H21V86.9392H24ZM28.698 86.9392H31.698V83.9392H28.698V86.9392ZM28.698 93.4192H25.698V96.4192H28.698V93.4192ZM46.302 93.4192V96.4192H49.302V93.4192H46.302ZM46.302 86.9392V83.9392H43.302V86.9392H46.302ZM51 86.9392H54V83.9392H51V86.9392ZM51 92.3932L53.5978 93.8936L54 93.1973V92.3932H51ZM47.382 98.6572V101.657H49.1137L49.9798 100.158L47.382 98.6572ZM28.698 98.6572V95.6572H25.698V98.6572H28.698ZM28.698 103.625V100.625H24V103.625V106.625H28.698V103.625ZM24 103.625H27V98.6572H24H21V103.625H24ZM24 98.6572V95.6572H19.464V98.6572V101.657H24V98.6572ZM19.464 98.6572L22.0621 97.1572L19.0381 91.9192L16.44 93.4192L13.8419 94.9191L16.8659 100.157L19.464 98.6572ZM16.44 93.4192V96.4192H24V93.4192V90.4192H16.44V93.4192ZM24 93.4192H27V86.9392H24H21V93.4192H24ZM24 86.9392V89.9392H28.698V86.9392V83.9392H24V86.9392ZM28.698 86.9392H25.698V93.4192H28.698H31.698V86.9392H28.698ZM28.698 93.4192V96.4192H46.302V93.4192V90.4192H28.698V93.4192ZM46.302 93.4192H49.302V86.9392H46.302H43.302V93.4192H46.302ZM46.302 86.9392V89.9392H51V86.9392V83.9392H46.302V86.9392ZM51 86.9392H48V92.3932H51H54V86.9392H51ZM51 92.3932L48.4022 90.8927L44.7842 97.1567L47.382 98.6572L49.9798 100.158L53.5978 93.8936L51 92.3932ZM47.382 98.6572V95.6572H28.698V98.6572V101.657H47.382V98.6572ZM28.698 98.6572H25.698V103.625H28.698H31.698V98.6572H28.698ZM24 74.1315V71.1315H21V74.1315H24ZM51 74.1315H54V71.1315H51V74.1315ZM51 79.3694V82.3694H54V79.3694H51ZM24 79.3694H21V82.3694H24V79.3694ZM17.358 79.6395V82.6395H20.358V79.6395H17.358ZM11.58 79.6395H8.58V82.6395H11.58V79.6395ZM11.58 73.8615V70.8615H8.58V73.8615H11.58ZM17.358 73.8615H20.358V70.8615H17.358V73.8615ZM24 74.1315V77.1315H51V74.1315V71.1315H24V74.1315ZM51 74.1315H48V79.3694H51H54V74.1315H51ZM51 79.3694V76.3694H24V79.3694V82.3694H51V79.3694ZM24 79.3694H27V74.1315H24H21V79.3694H24ZM17.358 79.6395V76.6395H11.58V79.6395V82.6395H17.358V79.6395ZM11.58 79.6395H14.58V73.8615H11.58H8.58V79.6395H11.58ZM11.58 73.8615V76.8615H17.358V73.8615V70.8615H11.58V73.8615ZM17.358 73.8615H14.358V79.6395H17.358H20.358V73.8615H17.358ZM28.698 60.2623H25.698V63.2623H28.698V60.2623ZM46.302 60.2623V63.2623H49.302V60.2623H46.302ZM46.302 45.2503V42.2503H43.302V45.2503H46.302ZM51 45.2503H54V42.2503H51V45.2503ZM51 59.2363L53.5978 60.7368L54 60.0404V59.2363H51ZM47.382 65.5003V68.5003H49.1137L49.9798 67.0008L47.382 65.5003ZM27.618 65.5003L25.0202 67.0008L25.8863 68.5003H27.618V65.5003ZM24 59.2363H21V60.0404L21.4022 60.7368L24 59.2363ZM24 45.2503V42.2503H21V45.2503H24ZM28.698 45.2503H31.698V42.2503H28.698V45.2503ZM28.698 60.2623V63.2623H46.302V60.2623V57.2623H28.698V60.2623ZM46.302 60.2623H49.302V45.2503H46.302H43.302V60.2623H46.302ZM46.302 45.2503V48.2503H51V45.2503V42.2503H46.302V45.2503ZM51 45.2503H48V59.2363H51H54V45.2503H51ZM51 59.2363L48.4022 57.7358L44.7842 63.9998L47.382 65.5003L49.9798 67.0008L53.5978 60.7368L51 59.2363ZM47.382 65.5003V62.5003H27.618V65.5003V68.5003H47.382V65.5003ZM27.618 65.5003L30.2158 63.9998L26.5978 57.7358L24 59.2363L21.4022 60.7368L25.0202 67.0008L27.618 65.5003ZM24 59.2363H27V45.2503H24H21V59.2363H24ZM24 45.2503V48.2503H28.698V45.2503V42.2503H24V45.2503ZM28.698 45.2503H25.698V60.2623H28.698H31.698V45.2503H28.698ZM46.302 16.3793V13.3793H43.302V16.3793H46.302ZM51 16.3793H54V13.3793H51V16.3793ZM51 31.4453L53.5978 32.9458L54 32.2494V31.4453H51ZM47.382 37.7093V40.7093H49.1137L49.9798 39.2097L47.382 37.7093ZM27.348 37.7093L24.7502 39.2097L25.6163 40.7093H27.348V37.7093ZM23.73 31.4453H20.73V32.2494L21.1322 32.9458L23.73 31.4453ZM23.73 22.6433L21.1322 21.1428L20.73 21.8392V22.6433H23.73ZM27.348 16.3793L27.348 13.3793H25.6163L24.7502 14.8788L27.348 16.3793ZM39.336 16.3793H42.336V13.3793H39.336V16.3793ZM39.336 32.4713H36.336V35.4713H39.336V32.4713ZM46.302 32.4713V35.4713H49.302V32.4713H46.302ZM28.428 32.4713H25.428V35.4713H28.428V32.4713ZM34.638 32.4713V35.4713H37.638V32.4713H34.638ZM34.638 21.6173H37.638V18.6173H34.638V21.6173ZM28.428 21.6173V18.6173H25.428V21.6173H28.428ZM46.302 16.3793V19.3793H51V16.3793V13.3793H46.302V16.3793ZM51 16.3793H48V31.4453H51H54V16.3793H51ZM51 31.4453L48.4022 29.9448L44.7842 36.2088L47.382 37.7093L49.9798 39.2097L53.5978 32.9458L51 31.4453ZM47.382 37.7093V34.7093H27.348V37.7093V40.7093H47.382V37.7093ZM27.348 37.7093L29.9458 36.2088L26.3278 29.9448L23.73 31.4453L21.1322 32.9458L24.7502 39.2097L27.348 37.7093ZM23.73 31.4453H26.73V22.6433H23.73H20.73V31.4453H23.73ZM23.73 22.6433L26.3278 24.1438L29.9458 17.8798L27.348 16.3793L24.7502 14.8788L21.1322 21.1428L23.73 22.6433ZM27.348 16.3793V19.3793H39.336V16.3793V13.3793H27.348L27.348 16.3793ZM39.336 16.3793H36.336V32.4713H39.336H42.336V16.3793H39.336ZM39.336 32.4713V35.4713H46.302V32.4713V29.4713H39.336V32.4713ZM46.302 32.4713H49.302V16.3793H46.302H43.302V32.4713H46.302ZM28.428 32.4713V35.4713H34.638V32.4713V29.4713H28.428V32.4713ZM34.638 32.4713H37.638V21.6173H34.638H31.638V32.4713H34.638ZM34.638 21.6173V18.6173H28.428V21.6173V24.6173H34.638V21.6173ZM28.428 21.6173H25.428V32.4713H28.428H31.428V21.6173H28.428Z" fill="#B5E93B" mask="url(#path-1-outside-1_62121_3758)"/>
</svg>
