<svg width="111" height="258" viewBox="0 0 111 258" fill="none" xmlns="http://www.w3.org/2000/svg">
<mask id="path-1-outside-1_62121_3759" maskUnits="userSpaceOnUse" x="-0.580078" y="-0.533752" width="112" height="259" fill="black">
<rect fill="white" x="-0.580078" y="-0.533752" width="112" height="259"/>
<path d="M42.4199 254.606H4.61992L4.61992 235.76L8.23792 229.496H24.2759L27.8939 235.76V249.206H42.4199V254.606ZM9.47992 249.206H23.0339V234.896H9.47992V249.206ZM39.0719 198.446L42.6899 204.71V215.132L39.0719 221.396H18.7679L15.1499 215.132V204.71L18.7679 198.446H39.0719ZM19.8479 216.158H37.9919V203.684H19.8479V216.158ZM42.4199 183.544L38.8019 189.808H2.99992L2.99992 184.57H37.7219V178.09H42.4199V183.544ZM15.4199 167.432H42.4199V172.67H15.4199V167.432ZM10.5599 173.75L3.64792 168.674V161.654L10.5599 169.43V173.75ZM20.1179 160.961H15.4199V155.993H10.8839L7.85992 150.755H15.4199V144.275H20.1179V150.755H37.7219V144.275H42.4199V149.729L38.8019 155.993H20.1179V160.961ZM20.1179 131.467H37.7219V116.455H42.4199V130.441L38.8019 136.705H19.0379L15.4199 130.441L15.4199 116.455H20.1179L20.1179 131.467ZM31.3499 104.756H37.9919V93.9018H31.3499V104.756ZM42.6899 103.73L39.0719 109.994H30.2699L26.6519 103.73V93.9018H20.1179V107.294H15.4199V94.9278L19.0379 88.6638H42.6899V90.0678L40.4759 93.9018L42.6899 97.7358V103.73ZM15.1499 59.724V51.57L17.3639 47.736H2.99992V42.498H42.6899V46.44L40.4759 47.736L42.6899 51.57V59.724L39.0719 65.988H18.7679L15.1499 59.724ZM37.9919 47.736H19.8479V60.75H37.9919V47.736ZM37.7219 12.5428H42.4199V27.6088L38.8019 33.8728H18.7679L15.1499 27.6088V18.8068L18.7679 12.5428H30.7559V28.6348H37.7219V12.5428ZM19.8479 28.6348H26.0579V17.7808H19.8479V28.6348ZM107.42 254.606H69.6199V235.76L73.2379 229.496H89.2759L92.8939 235.76V249.206H107.42V254.606ZM74.4799 249.206H88.0339V234.896H74.4799V249.206ZM85.1179 206.33V216.158H107.42V221.396H80.4199V217.454L82.6339 216.158L80.4199 212.324V206.33H85.1179ZM80.4199 195.17H107.42V200.408H80.4199V195.17ZM73.7779 200.678H67.9999V194.9H73.7779V200.678ZM80.4199 184.649L102.452 176.711V176.603L80.4199 168.611V163.481L107.42 173.471V179.789L80.4199 189.779V184.649ZM96.3499 153.904H102.992L102.992 143.05H96.3499L96.3499 153.904ZM107.69 152.878L104.072 159.142H95.2699L91.6519 152.878L91.6519 143.05H85.1179L85.1179 156.442H80.4199L80.4199 144.076L84.0379 137.812H107.69V139.216L105.476 143.05L107.69 146.884V152.878ZM85.1179 123.926H102.722V108.914H107.42V122.9L103.802 129.164H84.0379L80.4199 122.9V108.914H85.1179V123.926ZM80.4199 96.1348H107.42V101.373H80.4199V96.1348ZM73.7779 101.643H67.9999V95.8648H73.7779V101.643ZM80.1499 81.2397V73.0857L82.3639 69.2517H67.9999V64.0137H107.69V67.9557L105.476 69.2517L107.69 73.0857V81.2397L104.072 87.5037H83.7679L80.1499 81.2397ZM102.992 69.2517H84.8479V82.2657H102.992V69.2517ZM96.3499 51.2304H102.992V40.3764H96.3499V51.2304ZM107.69 50.2044L104.072 56.4684H95.2699L91.6519 50.2044V40.3764H85.1179V53.7684H80.4199V41.4024L84.0379 35.1384H107.69V36.5424L105.476 40.3764L107.69 44.2104V50.2044ZM80.1499 20.226V12.072L82.3639 8.238H67.9999V3H107.69V6.942L105.476 8.238L107.69 12.072V20.226L104.072 26.49H83.7679L80.1499 20.226ZM102.992 8.238H84.8479V21.252H102.992V8.238Z"/>
</mask>
<path d="M42.4199 254.606V257.606H45.4199V254.606H42.4199ZM4.61992 254.606H1.61992V257.606H4.61992V254.606ZM4.61992 235.76L2.02211 234.26L1.61992 234.956V235.76H4.61992ZM8.23792 229.496V226.496H6.50623L5.64011 227.996L8.23792 229.496ZM24.2759 229.496L26.8737 227.996L26.0076 226.496H24.2759V229.496ZM27.8939 235.76H30.8939V234.956L30.4917 234.26L27.8939 235.76ZM27.8939 249.206H24.8939V252.206H27.8939V249.206ZM42.4199 249.206H45.4199V246.206H42.4199V249.206ZM9.47992 249.206H6.47992V252.206H9.47992V249.206ZM23.0339 249.206V252.206H26.0339V249.206H23.0339ZM23.0339 234.896H26.0339V231.896H23.0339V234.896ZM9.47992 234.896V231.896H6.47992V234.896H9.47992ZM42.4199 254.606V251.606H4.61992V254.606V257.606H42.4199V254.606ZM4.61992 254.606H7.61992V235.76H4.61992H1.61992L1.61992 254.606H4.61992ZM4.61992 235.76L7.21773 237.261L10.8357 230.997L8.23792 229.496L5.64011 227.996L2.02211 234.26L4.61992 235.76ZM8.23792 229.496L8.23792 232.496H24.2759V229.496V226.496H8.23792V229.496ZM24.2759 229.496L21.6781 230.997L25.2961 237.261L27.8939 235.76L30.4917 234.26L26.8737 227.996L24.2759 229.496ZM27.8939 235.76H24.8939V249.206H27.8939H30.8939V235.76H27.8939ZM27.8939 249.206V252.206H42.4199V249.206V246.206H27.8939V249.206ZM42.4199 249.206H39.4199V254.606H42.4199H45.4199V249.206H42.4199ZM9.47992 249.206V252.206H23.0339V249.206V246.206H9.47992V249.206ZM23.0339 249.206H26.0339V234.896H23.0339H20.0339V249.206H23.0339ZM23.0339 234.896V231.896H9.47992V234.896V237.896H23.0339V234.896ZM9.47992 234.896H6.47992L6.47992 249.206H9.47992H12.4799V234.896H9.47992ZM39.0719 198.446L41.6697 196.946L40.8036 195.446H39.0719V198.446ZM42.6899 204.71H45.6899V203.906L45.2877 203.21L42.6899 204.71ZM42.6899 215.132L45.2877 216.633L45.6899 215.936V215.132H42.6899ZM39.0719 221.396V224.396H40.8036L41.6697 222.897L39.0719 221.396ZM18.7679 221.396L16.1701 222.897L17.0362 224.396H18.7679V221.396ZM15.1499 215.132H12.1499V215.936L12.5521 216.633L15.1499 215.132ZM15.1499 204.71L12.5521 203.21L12.1499 203.906V204.71H15.1499ZM18.7679 198.446V195.446H17.0362L16.1701 196.946L18.7679 198.446ZM19.8479 216.158H16.8479V219.158H19.8479V216.158ZM37.9919 216.158V219.158H40.9919V216.158H37.9919ZM37.9919 203.684H40.9919L40.9919 200.684H37.9919L37.9919 203.684ZM19.8479 203.684V200.684H16.8479V203.684H19.8479ZM39.0719 198.446L36.4741 199.947L40.0921 206.211L42.6899 204.71L45.2877 203.21L41.6697 196.946L39.0719 198.446ZM42.6899 204.71H39.6899V215.132H42.6899H45.6899V204.71H42.6899ZM42.6899 215.132L40.0921 213.632L36.4741 219.896L39.0719 221.396L41.6697 222.897L45.2877 216.633L42.6899 215.132ZM39.0719 221.396V218.396H18.7679V221.396V224.396H39.0719V221.396ZM18.7679 221.396L21.3657 219.896L17.7477 213.632L15.1499 215.132L12.5521 216.633L16.1701 222.897L18.7679 221.396ZM15.1499 215.132H18.1499V204.71H15.1499H12.1499V215.132H15.1499ZM15.1499 204.71L17.7477 206.211L21.3657 199.947L18.7679 198.446L16.1701 196.946L12.5521 203.21L15.1499 204.71ZM18.7679 198.446V201.446H39.0719V198.446V195.446H18.7679V198.446ZM19.8479 216.158V219.158H37.9919V216.158V213.158H19.8479V216.158ZM37.9919 216.158H40.9919V203.684H37.9919H34.9919V216.158H37.9919ZM37.9919 203.684L37.9919 200.684H19.8479V203.684V206.684H37.9919V203.684ZM19.8479 203.684H16.8479V216.158H19.8479H22.8479V203.684H19.8479ZM42.4199 183.544L45.0177 185.045L45.4199 184.348V183.544H42.4199ZM38.8019 189.808V192.808H40.5336L41.3997 191.309L38.8019 189.808ZM2.99992 189.808H-8.01086e-05V192.808H2.99992V189.808ZM2.99992 184.57V181.57H-8.01086e-05V184.57H2.99992ZM37.7219 184.57V187.57H40.7219V184.57H37.7219ZM37.7219 178.09V175.09H34.7219V178.09H37.7219ZM42.4199 178.09H45.4199V175.09H42.4199V178.09ZM42.4199 183.544L39.8221 182.044L36.2041 188.308L38.8019 189.808L41.3997 191.309L45.0177 185.045L42.4199 183.544ZM38.8019 189.808V186.808H2.99992L2.99992 189.808V192.808H38.8019V189.808ZM2.99992 189.808H5.99992L5.99992 184.57H2.99992H-8.01086e-05L-8.01086e-05 189.808H2.99992ZM2.99992 184.57V187.57H37.7219V184.57V181.57H2.99992V184.57ZM37.7219 184.57H40.7219V178.09H37.7219H34.7219V184.57H37.7219ZM37.7219 178.09V181.09H42.4199V178.09V175.09H37.7219V178.09ZM42.4199 178.09H39.4199V183.544H42.4199H45.4199V178.09H42.4199ZM15.4199 167.432V164.432H12.4199V167.432H15.4199ZM42.4199 167.432H45.4199V164.432H42.4199V167.432ZM42.4199 172.67V175.67H45.4199V172.67H42.4199ZM15.4199 172.67H12.4199L12.4199 175.67H15.4199L15.4199 172.67ZM10.5599 173.75L8.78419 176.168L13.5599 179.675L13.5599 173.75H10.5599ZM3.64792 168.674H0.647919V170.193L1.87219 171.092L3.64792 168.674ZM3.64792 161.654L5.89015 159.661L0.647919 153.763L0.647919 161.654H3.64792ZM10.5599 169.43H13.5599V168.289L12.8021 167.437L10.5599 169.43ZM15.4199 167.432V170.432H42.4199V167.432V164.432H15.4199V167.432ZM42.4199 167.432H39.4199V172.67H42.4199H45.4199V167.432H42.4199ZM42.4199 172.67V169.67H15.4199V172.67L15.4199 175.67H42.4199V172.67ZM15.4199 172.67H18.4199V167.432H15.4199H12.4199V172.67H15.4199ZM10.5599 173.75L12.3356 171.332L5.42365 166.256L3.64792 168.674L1.87219 171.092L8.78419 176.168L10.5599 173.75ZM3.64792 168.674H6.64792V161.654H3.64792H0.647919V168.674H3.64792ZM3.64792 161.654L1.40569 163.647L8.31769 171.423L10.5599 169.43L12.8021 167.437L5.89015 159.661L3.64792 161.654ZM10.5599 169.43H7.55992V173.75H10.5599H13.5599V169.43H10.5599ZM20.1179 160.961V163.961H23.1179V160.961H20.1179ZM15.4199 160.961H12.4199V163.961H15.4199V160.961ZM15.4199 155.993H18.4199V152.993H15.4199V155.993ZM10.8839 155.993L8.28581 157.492L9.15182 158.993H10.8839V155.993ZM7.85992 150.755V147.755H2.66391L5.26181 152.254L7.85992 150.755ZM15.4199 150.755V153.755H18.4199V150.755H15.4199ZM15.4199 144.275V141.275H12.4199V144.275H15.4199ZM20.1179 144.275H23.1179V141.275H20.1179V144.275ZM20.1179 150.755H17.1179V153.755H20.1179V150.755ZM37.7219 150.755V153.755H40.7219V150.755H37.7219ZM37.7219 144.275V141.275H34.7219V144.275H37.7219ZM42.4199 144.275H45.4199V141.275H42.4199V144.275ZM42.4199 149.729L45.0177 151.229L45.4199 150.533V149.729H42.4199ZM38.8019 155.993V158.993H40.5336L41.3997 157.493L38.8019 155.993ZM20.1179 155.993V152.993H17.1179V155.993H20.1179ZM20.1179 160.961V157.961H15.4199V160.961V163.961H20.1179V160.961ZM15.4199 160.961H18.4199V155.993H15.4199H12.4199V160.961H15.4199ZM15.4199 155.993V152.993H10.8839V155.993V158.993H15.4199V155.993ZM10.8839 155.993L13.482 154.493L10.458 149.255L7.85992 150.755L5.26181 152.254L8.28581 157.492L10.8839 155.993ZM7.85992 150.755V153.755H15.4199V150.755V147.755H7.85992V150.755ZM15.4199 150.755H18.4199V144.275H15.4199H12.4199V150.755H15.4199ZM15.4199 144.275V147.275H20.1179V144.275V141.275H15.4199V144.275ZM20.1179 144.275H17.1179V150.755H20.1179H23.1179V144.275H20.1179ZM20.1179 150.755V153.755H37.7219V150.755V147.755H20.1179V150.755ZM37.7219 150.755H40.7219V144.275H37.7219H34.7219V150.755H37.7219ZM37.7219 144.275V147.275H42.4199V144.275V141.275H37.7219V144.275ZM42.4199 144.275H39.4199V149.729H42.4199H45.4199V144.275H42.4199ZM42.4199 149.729L39.8221 148.228L36.2041 154.492L38.8019 155.993L41.3997 157.493L45.0177 151.229L42.4199 149.729ZM38.8019 155.993V152.993H20.1179V155.993V158.993H38.8019V155.993ZM20.1179 155.993H17.1179V160.961H20.1179H23.1179V155.993H20.1179ZM20.1179 131.467H17.1179V134.467H20.1179V131.467ZM37.7219 131.467V134.467H40.7219V131.467H37.7219ZM37.7219 116.455V113.455H34.7219V116.455H37.7219ZM42.4199 116.455H45.4199V113.455H42.4199V116.455ZM42.4199 130.441L45.0177 131.941L45.4199 131.245V130.441H42.4199ZM38.8019 136.705V139.705H40.5336L41.3997 138.205L38.8019 136.705ZM19.0379 136.705L16.4401 138.205L17.3062 139.705H19.0379V136.705ZM15.4199 130.441H12.4199V131.245L12.8221 131.941L15.4199 130.441ZM15.4199 116.455V113.455H12.4199V116.455H15.4199ZM20.1179 116.455H23.1179V113.455H20.1179V116.455ZM20.1179 131.467V134.467H37.7219V131.467V128.467H20.1179V131.467ZM37.7219 131.467H40.7219V116.455H37.7219H34.7219V131.467H37.7219ZM37.7219 116.455V119.455H42.4199V116.455V113.455H37.7219V116.455ZM42.4199 116.455H39.4199V130.441H42.4199H45.4199V116.455H42.4199ZM42.4199 130.441L39.8221 128.94L36.2041 135.204L38.8019 136.705L41.3997 138.205L45.0177 131.941L42.4199 130.441ZM38.8019 136.705V133.705H19.0379V136.705V139.705H38.8019V136.705ZM19.0379 136.705L21.6357 135.204L18.0177 128.94L15.4199 130.441L12.8221 131.941L16.4401 138.205L19.0379 136.705ZM15.4199 130.441H18.4199L18.4199 116.455H15.4199H12.4199L12.4199 130.441H15.4199ZM15.4199 116.455L15.4199 119.455H20.1179L20.1179 116.455V113.455H15.4199V116.455ZM20.1179 116.455H17.1179L17.1179 131.467H20.1179H23.1179L23.1179 116.455H20.1179ZM31.3499 104.756H28.3499V107.756H31.3499V104.756ZM37.9919 104.756V107.756H40.9919V104.756H37.9919ZM37.9919 93.9018H40.9919V90.9018H37.9919V93.9018ZM31.3499 93.9018V90.9018H28.3499V93.9018H31.3499ZM42.6899 103.73L45.2877 105.23L45.6899 104.534V103.73H42.6899ZM39.0719 109.994V112.994H40.8036L41.6697 111.494L39.0719 109.994ZM30.2699 109.994L27.6721 111.494L28.5382 112.994H30.2699V109.994ZM26.6519 103.73H23.6519V104.534L24.0541 105.23L26.6519 103.73ZM26.6519 93.9018H29.6519V90.9018H26.6519V93.9018ZM20.1179 93.9018V90.9018H17.1179V93.9018H20.1179ZM20.1179 107.294V110.294H23.1179V107.294H20.1179ZM15.4199 107.294H12.4199V110.294H15.4199V107.294ZM15.4199 94.9278L12.8221 93.4274L12.4199 94.1237V94.9278H15.4199ZM19.0379 88.6638V85.6638H17.3062L16.4401 87.1634L19.0379 88.6638ZM42.6899 88.6638H45.6899V85.6638H42.6899V88.6638ZM42.6899 90.0678L45.2879 91.5681L45.6899 90.8718L45.6899 90.0678H42.6899ZM40.4759 93.9018L37.878 92.4016L37.0117 93.9018L37.878 95.4021L40.4759 93.9018ZM42.6899 97.7358H45.6899V96.9318L45.2879 96.2356L42.6899 97.7358ZM31.3499 104.756V107.756H37.9919V104.756V101.756H31.3499V104.756ZM37.9919 104.756H40.9919V93.9018H37.9919H34.9919V104.756H37.9919ZM37.9919 93.9018V90.9018H31.3499V93.9018V96.9018H37.9919V93.9018ZM31.3499 93.9018H28.3499V104.756H31.3499H34.3499V93.9018H31.3499ZM42.6899 103.73L40.0921 102.229L36.4741 108.493L39.0719 109.994L41.6697 111.494L45.2877 105.23L42.6899 103.73ZM39.0719 109.994V106.994H30.2699V109.994V112.994H39.0719V109.994ZM30.2699 109.994L32.8677 108.493L29.2497 102.229L26.6519 103.73L24.0541 105.23L27.6721 111.494L30.2699 109.994ZM26.6519 103.73H29.6519V93.9018H26.6519H23.6519V103.73H26.6519ZM26.6519 93.9018V90.9018H20.1179V93.9018V96.9018H26.6519V93.9018ZM20.1179 93.9018H17.1179V107.294H20.1179H23.1179V93.9018H20.1179ZM20.1179 107.294V104.294H15.4199V107.294V110.294H20.1179V107.294ZM15.4199 107.294H18.4199V94.9278H15.4199H12.4199V107.294H15.4199ZM15.4199 94.9278L18.0177 96.4283L21.6357 90.1643L19.0379 88.6638L16.4401 87.1634L12.8221 93.4274L15.4199 94.9278ZM19.0379 88.6638V91.6638H42.6899L42.6899 88.6638V85.6638H19.0379V88.6638ZM42.6899 88.6638H39.6899V90.0678H42.6899H45.6899V88.6638H42.6899ZM42.6899 90.0678L40.092 88.5676L37.878 92.4016L40.4759 93.9018L43.0739 95.4021L45.2879 91.5681L42.6899 90.0678ZM40.4759 93.9018L37.878 95.4021L40.092 99.2361L42.6899 97.7358L45.2879 96.2356L43.0739 92.4016L40.4759 93.9018ZM42.6899 97.7358H39.6899V103.73H42.6899H45.6899V97.7358H42.6899ZM15.1499 59.724H12.1499V60.5282L12.5521 61.2245L15.1499 59.724ZM15.1499 51.57L12.552 50.0698L12.1499 50.7661V51.57H15.1499ZM17.3639 47.736L19.9619 49.2363L22.5606 44.736H17.3639V47.736ZM2.99992 47.736H-8.01086e-05L-8.01086e-05 50.736H2.99992L2.99992 47.736ZM2.99992 42.498V39.498H-8.01086e-05V42.498H2.99992ZM42.6899 42.498H45.6899V39.498H42.6899V42.498ZM42.6899 46.44L44.2055 49.0291L45.6899 48.1601V46.44H42.6899ZM40.4759 47.736L38.9604 45.147L36.3866 46.6536L37.878 49.2363L40.4759 47.736ZM42.6899 51.57H45.6899V50.7661L45.2879 50.0698L42.6899 51.57ZM42.6899 59.724L45.2877 61.2245L45.6899 60.5282V59.724H42.6899ZM39.0719 65.988V68.988H40.8036L41.6697 67.4885L39.0719 65.988ZM18.7679 65.988L16.1701 67.4885L17.0362 68.988H18.7679V65.988ZM37.9919 47.736H40.9919V44.736H37.9919V47.736ZM19.8479 47.736V44.736H16.8479V47.736H19.8479ZM19.8479 60.75H16.8479L16.8479 63.75H19.8479L19.8479 60.75ZM37.9919 60.75V63.75H40.9919V60.75H37.9919ZM15.1499 59.724H18.1499V51.57H15.1499H12.1499V59.724H15.1499ZM15.1499 51.57L17.7479 53.0703L19.9619 49.2363L17.3639 47.736L14.766 46.2358L12.552 50.0698L15.1499 51.57ZM17.3639 47.736V44.736H2.99992V47.736L2.99992 50.736H17.3639V47.736ZM2.99992 47.736H5.99992V42.498H2.99992H-8.01086e-05V47.736H2.99992ZM2.99992 42.498V45.498H42.6899V42.498V39.498H2.99992V42.498ZM42.6899 42.498H39.6899V46.44H42.6899H45.6899V42.498H42.6899ZM42.6899 46.44L41.1744 43.851L38.9604 45.147L40.4759 47.736L41.9915 50.3251L44.2055 49.0291L42.6899 46.44ZM40.4759 47.736L37.878 49.2363L40.092 53.0703L42.6899 51.57L45.2879 50.0698L43.0739 46.2358L40.4759 47.736ZM42.6899 51.57H39.6899V59.724H42.6899H45.6899V51.57H42.6899ZM42.6899 59.724L40.0921 58.2236L36.4741 64.4876L39.0719 65.988L41.6697 67.4885L45.2877 61.2245L42.6899 59.724ZM39.0719 65.988V62.988H18.7679V65.988V68.988H39.0719V65.988ZM18.7679 65.988L21.3657 64.4876L17.7477 58.2236L15.1499 59.724L12.5521 61.2245L16.1701 67.4885L18.7679 65.988ZM37.9919 47.736V44.736H19.8479V47.736V50.736H37.9919V47.736ZM19.8479 47.736H16.8479V60.75H19.8479H22.8479V47.736H19.8479ZM19.8479 60.75L19.8479 63.75H37.9919V60.75V57.75H19.8479V60.75ZM37.9919 60.75H40.9919V47.736H37.9919H34.9919V60.75H37.9919ZM37.7219 12.5428V9.54282H34.7219V12.5428H37.7219ZM42.4199 12.5428H45.4199V9.54282H42.4199V12.5428ZM42.4199 27.6088L45.0177 29.1093L45.4199 28.4129V27.6088H42.4199ZM38.8019 33.8728V36.8728H40.5336L41.3997 35.3733L38.8019 33.8728ZM18.7679 33.8728L16.1701 35.3733L17.0362 36.8728H18.7679V33.8728ZM15.1499 27.6088H12.1499V28.4129L12.5521 29.1093L15.1499 27.6088ZM15.1499 18.8068L12.5521 17.3064L12.1499 18.0027V18.8068H15.1499ZM18.7679 12.5428V9.54282H17.0362L16.1701 11.0423L18.7679 12.5428ZM30.7559 12.5428H33.7559V9.54282H30.7559V12.5428ZM30.7559 28.6348H27.7559V31.6348H30.7559V28.6348ZM37.7219 28.6348V31.6348H40.7219V28.6348H37.7219ZM19.8479 28.6348H16.8479V31.6348H19.8479V28.6348ZM26.0579 28.6348V31.6348H29.0579V28.6348H26.0579ZM26.0579 17.7808H29.0579V14.7808H26.0579V17.7808ZM19.8479 17.7808V14.7808H16.8479V17.7808H19.8479ZM37.7219 12.5428V15.5428H42.4199V12.5428V9.54282H37.7219V12.5428ZM42.4199 12.5428H39.4199V27.6088H42.4199H45.4199V12.5428H42.4199ZM42.4199 27.6088L39.8221 26.1084L36.2041 32.3723L38.8019 33.8728L41.3997 35.3733L45.0177 29.1093L42.4199 27.6088ZM38.8019 33.8728V30.8728H18.7679V33.8728V36.8728H38.8019V33.8728ZM18.7679 33.8728L21.3657 32.3723L17.7477 26.1084L15.1499 27.6088L12.5521 29.1093L16.1701 35.3733L18.7679 33.8728ZM15.1499 27.6088H18.1499V18.8068H15.1499H12.1499V27.6088H15.1499ZM15.1499 18.8068L17.7477 20.3073L21.3657 14.0433L18.7679 12.5428L16.1701 11.0423L12.5521 17.3064L15.1499 18.8068ZM18.7679 12.5428V15.5428H30.7559V12.5428V9.54282H18.7679V12.5428ZM30.7559 12.5428H27.7559V28.6348H30.7559H33.7559V12.5428H30.7559ZM30.7559 28.6348V31.6348H37.7219V28.6348V25.6348H30.7559V28.6348ZM37.7219 28.6348H40.7219V12.5428H37.7219H34.7219V28.6348H37.7219ZM19.8479 28.6348V31.6348H26.0579V28.6348V25.6348H19.8479V28.6348ZM26.0579 28.6348H29.0579V17.7808H26.0579H23.0579V28.6348H26.0579ZM26.0579 17.7808V14.7808H19.8479V17.7808V20.7808H26.0579V17.7808ZM19.8479 17.7808H16.8479V28.6348H19.8479H22.8479V17.7808H19.8479ZM107.42 254.606V257.606H110.42V254.606H107.42ZM69.6199 254.606H66.6199V257.606H69.6199V254.606ZM69.6199 235.76L67.0221 234.26L66.6199 234.956V235.76H69.6199ZM73.2379 229.496V226.496H71.5062L70.6401 227.996L73.2379 229.496ZM89.2759 229.496L91.8737 227.996L91.0076 226.496H89.2759V229.496ZM92.8939 235.76H95.8939V234.956L95.4917 234.26L92.8939 235.76ZM92.8939 249.206H89.8939V252.206H92.8939V249.206ZM107.42 249.206H110.42V246.206H107.42V249.206ZM74.4799 249.206H71.4799V252.206H74.4799V249.206ZM88.0339 249.206V252.206H91.0339V249.206H88.0339ZM88.0339 234.896H91.0339V231.896H88.0339V234.896ZM74.4799 234.896V231.896H71.4799V234.896H74.4799ZM107.42 254.606V251.606H69.6199V254.606V257.606H107.42V254.606ZM69.6199 254.606H72.6199V235.76H69.6199H66.6199V254.606H69.6199ZM69.6199 235.76L72.2177 237.261L75.8357 230.997L73.2379 229.496L70.6401 227.996L67.0221 234.26L69.6199 235.76ZM73.2379 229.496V232.496H89.2759V229.496V226.496H73.2379V229.496ZM89.2759 229.496L86.6781 230.997L90.2961 237.261L92.8939 235.76L95.4917 234.26L91.8737 227.996L89.2759 229.496ZM92.8939 235.76H89.8939V249.206H92.8939H95.8939V235.76H92.8939ZM92.8939 249.206V252.206H107.42V249.206V246.206H92.8939V249.206ZM107.42 249.206H104.42V254.606H107.42H110.42V249.206H107.42ZM74.4799 249.206V252.206H88.0339V249.206V246.206H74.4799V249.206ZM88.0339 249.206H91.0339V234.896H88.0339H85.0339V249.206H88.0339ZM88.0339 234.896V231.896H74.4799V234.896V237.896H88.0339V234.896ZM74.4799 234.896H71.4799V249.206H74.4799H77.4799V234.896H74.4799ZM85.1179 206.33H88.1179V203.33H85.1179V206.33ZM85.1179 216.158H82.1179V219.158H85.1179V216.158ZM107.42 216.158H110.42V213.158H107.42V216.158ZM107.42 221.396V224.396H110.42V221.396H107.42ZM80.4199 221.396H77.4199V224.396H80.4199V221.396ZM80.4199 217.454L78.9044 214.865L77.4199 215.734V217.454H80.4199ZM82.6339 216.158L84.1495 218.747L86.7233 217.241L85.2319 214.658L82.6339 216.158ZM80.4199 212.324H77.4199V213.128L77.822 213.824L80.4199 212.324ZM80.4199 206.33V203.33H77.4199V206.33H80.4199ZM85.1179 206.33H82.1179V216.158H85.1179H88.1179V206.33H85.1179ZM85.1179 216.158V219.158H107.42V216.158V213.158H85.1179V216.158ZM107.42 216.158H104.42V221.396H107.42H110.42V216.158H107.42ZM107.42 221.396V218.396H80.4199V221.396V224.396H107.42V221.396ZM80.4199 221.396H83.4199V217.454H80.4199H77.4199V221.396H80.4199ZM80.4199 217.454L81.9355 220.043L84.1495 218.747L82.6339 216.158L81.1184 213.569L78.9044 214.865L80.4199 217.454ZM82.6339 216.158L85.2319 214.658L83.0179 210.824L80.4199 212.324L77.822 213.824L80.036 217.658L82.6339 216.158ZM80.4199 212.324H83.4199V206.33H80.4199H77.4199V212.324H80.4199ZM80.4199 206.33V209.33H85.1179V206.33V203.33H80.4199V206.33ZM80.4199 195.17V192.17H77.4199V195.17H80.4199ZM107.42 195.17H110.42V192.17H107.42V195.17ZM107.42 200.408V203.408H110.42V200.408H107.42ZM80.4199 200.408H77.4199V203.408H80.4199V200.408ZM73.7779 200.678V203.678H76.7779V200.678H73.7779ZM67.9999 200.678H64.9999V203.678H67.9999V200.678ZM67.9999 194.9V191.9H64.9999V194.9H67.9999ZM73.7779 194.9H76.7779V191.9H73.7779V194.9ZM80.4199 195.17V198.17H107.42V195.17V192.17H80.4199V195.17ZM107.42 195.17H104.42V200.408H107.42H110.42V195.17H107.42ZM107.42 200.408V197.408H80.4199V200.408V203.408H107.42V200.408ZM80.4199 200.408H83.4199V195.17H80.4199H77.4199V200.408H80.4199ZM73.7779 200.678V197.678H67.9999V200.678V203.678H73.7779V200.678ZM67.9999 200.678H70.9999V194.9H67.9999H64.9999V200.678H67.9999ZM67.9999 194.9V197.9H73.7779V194.9V191.9H67.9999V194.9ZM73.7779 194.9H70.7779V200.678H73.7779H76.7779V194.9H73.7779ZM80.4199 184.649L79.403 181.826L77.4199 182.541V184.649H80.4199ZM102.452 176.711L103.469 179.533L105.452 178.819V176.711H102.452ZM102.452 176.603H105.452V174.5L103.475 173.783L102.452 176.603ZM80.4199 168.611H77.4199V170.714L79.3969 171.431L80.4199 168.611ZM80.4199 163.481L81.461 160.667L77.4199 159.172V163.481H80.4199ZM107.42 173.471H110.42V171.382L108.461 170.657L107.42 173.471ZM107.42 179.789L108.461 182.602L110.42 181.878V179.789H107.42ZM80.4199 189.779H77.4199V194.088L81.461 192.592L80.4199 189.779ZM80.4199 184.649L81.4368 187.471L103.469 179.533L102.452 176.711L101.435 173.888L79.403 181.826L80.4199 184.649ZM102.452 176.711H105.452V176.603H102.452H99.4519V176.711H102.452ZM102.452 176.603L103.475 173.783L81.4429 165.791L80.4199 168.611L79.3969 171.431L101.429 179.423L102.452 176.603ZM80.4199 168.611H83.4199V163.481H80.4199H77.4199V168.611H80.4199ZM80.4199 163.481L79.3789 166.294L106.379 176.284L107.42 173.471L108.461 170.657L81.461 160.667L80.4199 163.481ZM107.42 173.471H104.42V179.789H107.42H110.42V173.471H107.42ZM107.42 179.789L106.379 176.975L79.3789 186.965L80.4199 189.779L81.461 192.592L108.461 182.602L107.42 179.789ZM80.4199 189.779H83.4199V184.649H80.4199H77.4199V189.779H80.4199ZM96.3499 153.904H93.3499V156.904H96.3499V153.904ZM102.992 153.904V156.904H105.992V153.904H102.992ZM102.992 143.05H105.992V140.05H102.992V143.05ZM96.3499 143.05V140.05H93.3499V143.05H96.3499ZM107.69 152.878L110.288 154.379L110.69 153.682V152.878H107.69ZM104.072 159.142V162.142H105.804L106.67 160.643L104.072 159.142ZM95.2699 159.142L92.6721 160.643L93.5382 162.142H95.2699V159.142ZM91.6519 152.878H88.6519V153.682L89.0541 154.379L91.6519 152.878ZM91.6519 143.05H94.6519V140.05H91.6519V143.05ZM85.1179 143.05V140.05H82.1179V143.05H85.1179ZM85.1179 156.442V159.442H88.1179V156.442H85.1179ZM80.4199 156.442H77.4199V159.442H80.4199V156.442ZM80.4199 144.076L77.8221 142.576L77.4199 143.272V144.076H80.4199ZM84.0379 137.812V134.812H82.3062L81.4401 136.312L84.0379 137.812ZM107.69 137.812H110.69V134.812H107.69V137.812ZM107.69 139.216L110.288 140.716L110.69 140.02V139.216H107.69ZM105.476 143.05L102.878 141.55L102.012 143.05L102.878 144.55L105.476 143.05ZM107.69 146.884H110.69L110.69 146.08L110.288 145.384L107.69 146.884ZM96.3499 153.904V156.904H102.992V153.904V150.904H96.3499V153.904ZM102.992 153.904H105.992L105.992 143.05H102.992H99.9919L99.9919 153.904H102.992ZM102.992 143.05V140.05H96.3499V143.05V146.05H102.992V143.05ZM96.3499 143.05H93.3499L93.3499 153.904H96.3499H99.3499L99.3499 143.05H96.3499ZM107.69 152.878L105.092 151.378L101.474 157.642L104.072 159.142L106.67 160.643L110.288 154.379L107.69 152.878ZM104.072 159.142V156.142H95.2699V159.142V162.142H104.072V159.142ZM95.2699 159.142L97.8677 157.642L94.2497 151.378L91.6519 152.878L89.0541 154.379L92.6721 160.643L95.2699 159.142ZM91.6519 152.878H94.6519L94.6519 143.05H91.6519H88.6519L88.6519 152.878H91.6519ZM91.6519 143.05V140.05H85.1179V143.05V146.05H91.6519V143.05ZM85.1179 143.05H82.1179L82.1179 156.442H85.1179H88.1179L88.1179 143.05H85.1179ZM85.1179 156.442V153.442H80.4199V156.442V159.442H85.1179V156.442ZM80.4199 156.442H83.4199L83.4199 144.076H80.4199H77.4199L77.4199 156.442H80.4199ZM80.4199 144.076L83.0177 145.577L86.6357 139.313L84.0379 137.812L81.4401 136.312L77.8221 142.576L80.4199 144.076ZM84.0379 137.812V140.812H107.69V137.812V134.812H84.0379V137.812ZM107.69 137.812H104.69V139.216H107.69H110.69V137.812H107.69ZM107.69 139.216L105.092 137.716L102.878 141.55L105.476 143.05L108.074 144.55L110.288 140.716L107.69 139.216ZM105.476 143.05L102.878 144.55L105.092 148.384L107.69 146.884L110.288 145.384L108.074 141.55L105.476 143.05ZM107.69 146.884H104.69V152.878H107.69H110.69V146.884H107.69ZM85.1179 123.926H82.1179V126.926H85.1179V123.926ZM102.722 123.926V126.926H105.722V123.926H102.722ZM102.722 108.914V105.914H99.7219V108.914H102.722ZM107.42 108.914H110.42V105.914H107.42V108.914ZM107.42 122.9L110.018 124.4L110.42 123.704V122.9H107.42ZM103.802 129.164V132.164H105.534L106.4 130.664L103.802 129.164ZM84.0379 129.164L81.4401 130.664L82.3062 132.164H84.0379V129.164ZM80.4199 122.9H77.4199V123.704L77.8221 124.4L80.4199 122.9ZM80.4199 108.914V105.914H77.4199V108.914H80.4199ZM85.1179 108.914H88.1179V105.914H85.1179V108.914ZM85.1179 123.926V126.926H102.722V123.926V120.926H85.1179V123.926ZM102.722 123.926H105.722V108.914H102.722H99.7219V123.926H102.722ZM102.722 108.914V111.914H107.42V108.914V105.914H102.722V108.914ZM107.42 108.914H104.42V122.9H107.42H110.42V108.914H107.42ZM107.42 122.9L104.822 121.399L101.204 127.663L103.802 129.164L106.4 130.664L110.018 124.4L107.42 122.9ZM103.802 129.164V126.164H84.0379V129.164V132.164H103.802V129.164ZM84.0379 129.164L86.6357 127.663L83.0177 121.399L80.4199 122.9L77.8221 124.4L81.4401 130.664L84.0379 129.164ZM80.4199 122.9H83.4199V108.914H80.4199H77.4199V122.9H80.4199ZM80.4199 108.914V111.914H85.1179V108.914V105.914H80.4199V108.914ZM85.1179 108.914H82.1179V123.926H85.1179H88.1179V108.914H85.1179ZM80.4199 96.1348V93.1348H77.4199V96.1348H80.4199ZM107.42 96.1348H110.42V93.1348H107.42V96.1348ZM107.42 101.373V104.373H110.42V101.373H107.42ZM80.4199 101.373H77.4199V104.373H80.4199V101.373ZM73.7779 101.643V104.643H76.7779V101.643H73.7779ZM67.9999 101.643H64.9999V104.643H67.9999V101.643ZM67.9999 95.8648V92.8648H64.9999V95.8648H67.9999ZM73.7779 95.8648H76.7779V92.8648H73.7779V95.8648ZM80.4199 96.1348V99.1348H107.42V96.1348V93.1348H80.4199V96.1348ZM107.42 96.1348H104.42V101.373H107.42H110.42V96.1348H107.42ZM107.42 101.373V98.3728H80.4199V101.373V104.373H107.42V101.373ZM80.4199 101.373H83.4199V96.1348H80.4199H77.4199V101.373H80.4199ZM73.7779 101.643V98.6428H67.9999V101.643V104.643H73.7779V101.643ZM67.9999 101.643H70.9999V95.8648H67.9999H64.9999V101.643H67.9999ZM67.9999 95.8648V98.8648H73.7779V95.8648V92.8648H67.9999V95.8648ZM73.7779 95.8648H70.7779V101.643H73.7779H76.7779V95.8648H73.7779ZM80.1499 81.2397H77.1499V82.0438L77.5521 82.7401L80.1499 81.2397ZM80.1499 73.0857L77.552 71.5854L77.1499 72.2817V73.0857H80.1499ZM82.3639 69.2517L84.9619 70.7519L87.5606 66.2517H82.3639V69.2517ZM67.9999 69.2517H64.9999V72.2517H67.9999V69.2517ZM67.9999 64.0137V61.0137H64.9999V64.0137H67.9999ZM107.69 64.0137H110.69V61.0137H107.69V64.0137ZM107.69 67.9557L109.205 70.5447L110.69 69.6758V67.9557H107.69ZM105.476 69.2517L103.96 66.6626L101.387 68.1692L102.878 70.7519L105.476 69.2517ZM107.69 73.0857H110.69V72.2817L110.288 71.5854L107.69 73.0857ZM107.69 81.2397L110.288 82.7401L110.69 82.0438V81.2397H107.69ZM104.072 87.5037V90.5037H105.804L106.67 89.0041L104.072 87.5037ZM83.7679 87.5037L81.1701 89.0041L82.0362 90.5037H83.7679V87.5037ZM102.992 69.2517H105.992V66.2517H102.992V69.2517ZM84.8479 69.2517V66.2517H81.8479V69.2517H84.8479ZM84.8479 82.2657H81.8479V85.2657H84.8479V82.2657ZM102.992 82.2657V85.2657H105.992V82.2657H102.992ZM80.1499 81.2397H83.1499V73.0857H80.1499H77.1499V81.2397H80.1499ZM80.1499 73.0857L82.7479 74.5859L84.9619 70.7519L82.3639 69.2517L79.766 67.7514L77.552 71.5854L80.1499 73.0857ZM82.3639 69.2517V66.2517H67.9999V69.2517V72.2517H82.3639V69.2517ZM67.9999 69.2517H70.9999V64.0137H67.9999H64.9999V69.2517H67.9999ZM67.9999 64.0137V67.0137H107.69V64.0137V61.0137H67.9999V64.0137ZM107.69 64.0137H104.69V67.9557H107.69H110.69V64.0137H107.69ZM107.69 67.9557L106.174 65.3666L103.96 66.6626L105.476 69.2517L106.991 71.8407L109.205 70.5447L107.69 67.9557ZM105.476 69.2517L102.878 70.7519L105.092 74.5859L107.69 73.0857L110.288 71.5854L108.074 67.7514L105.476 69.2517ZM107.69 73.0857H104.69V81.2397H107.69H110.69V73.0857H107.69ZM107.69 81.2397L105.092 79.7392L101.474 86.0032L104.072 87.5037L106.67 89.0041L110.288 82.7401L107.69 81.2397ZM104.072 87.5037V84.5037H83.7679V87.5037V90.5037H104.072V87.5037ZM83.7679 87.5037L86.3657 86.0032L82.7477 79.7392L80.1499 81.2397L77.5521 82.7401L81.1701 89.0041L83.7679 87.5037ZM102.992 69.2517V66.2517H84.8479V69.2517V72.2517H102.992V69.2517ZM84.8479 69.2517H81.8479V82.2657H84.8479H87.8479V69.2517H84.8479ZM84.8479 82.2657V85.2657H102.992V82.2657V79.2657H84.8479V82.2657ZM102.992 82.2657H105.992V69.2517H102.992H99.9919V82.2657H102.992ZM96.3499 51.2304H93.3499V54.2304H96.3499V51.2304ZM102.992 51.2304V54.2304H105.992V51.2304H102.992ZM102.992 40.3764H105.992V37.3764H102.992V40.3764ZM96.3499 40.3764V37.3764H93.3499V40.3764H96.3499ZM107.69 50.2044L110.288 51.7049L110.69 51.0086V50.2044H107.69ZM104.072 56.4684V59.4684H105.804L106.67 57.9689L104.072 56.4684ZM95.2699 56.4684L92.6721 57.9689L93.5382 59.4684H95.2699V56.4684ZM91.6519 50.2044H88.6519V51.0086L89.0541 51.7049L91.6519 50.2044ZM91.6519 40.3764H94.6519V37.3764H91.6519V40.3764ZM85.1179 40.3764V37.3764H82.1179V40.3764H85.1179ZM85.1179 53.7684V56.7684H88.1179V53.7684H85.1179ZM80.4199 53.7684H77.4199V56.7684H80.4199V53.7684ZM80.4199 41.4024L77.8221 39.902L77.4199 40.5983V41.4024H80.4199ZM84.0379 35.1384V32.1384H82.3062L81.4401 33.638L84.0379 35.1384ZM107.69 35.1384H110.69V32.1384H107.69V35.1384ZM107.69 36.5424L110.288 38.0427L110.69 37.3464V36.5424H107.69ZM105.476 40.3764L102.878 38.8762L102.012 40.3764L102.878 41.8767L105.476 40.3764ZM107.69 44.2104H110.69V43.4064L110.288 42.7102L107.69 44.2104ZM96.3499 51.2304V54.2304H102.992V51.2304V48.2304H96.3499V51.2304ZM102.992 51.2304H105.992V40.3764H102.992H99.9919V51.2304H102.992ZM102.992 40.3764V37.3764H96.3499V40.3764V43.3764H102.992V40.3764ZM96.3499 40.3764H93.3499V51.2304H96.3499H99.3499V40.3764H96.3499ZM107.69 50.2044L105.092 48.704L101.474 54.968L104.072 56.4684L106.67 57.9689L110.288 51.7049L107.69 50.2044ZM104.072 56.4684V53.4684H95.2699V56.4684V59.4684H104.072V56.4684ZM95.2699 56.4684L97.8677 54.968L94.2497 48.704L91.6519 50.2044L89.0541 51.7049L92.6721 57.9689L95.2699 56.4684ZM91.6519 50.2044H94.6519V40.3764H91.6519H88.6519V50.2044H91.6519ZM91.6519 40.3764V37.3764H85.1179V40.3764V43.3764H91.6519V40.3764ZM85.1179 40.3764H82.1179V53.7684H85.1179H88.1179V40.3764H85.1179ZM85.1179 53.7684V50.7684H80.4199V53.7684V56.7684H85.1179V53.7684ZM80.4199 53.7684H83.4199V41.4024H80.4199H77.4199V53.7684H80.4199ZM80.4199 41.4024L83.0177 42.9029L86.6357 36.6389L84.0379 35.1384L81.4401 33.638L77.8221 39.902L80.4199 41.4024ZM84.0379 35.1384V38.1384H107.69V35.1384V32.1384H84.0379V35.1384ZM107.69 35.1384H104.69V36.5424H107.69H110.69V35.1384H107.69ZM107.69 36.5424L105.092 35.0422L102.878 38.8762L105.476 40.3764L108.074 41.8767L110.288 38.0427L107.69 36.5424ZM105.476 40.3764L102.878 41.8767L105.092 45.7107L107.69 44.2104L110.288 42.7102L108.074 38.8762L105.476 40.3764ZM107.69 44.2104H104.69V50.2044H107.69H110.69V44.2104H107.69ZM80.1499 20.226H77.1499V21.0301L77.5521 21.7265L80.1499 20.226ZM80.1499 12.072L77.552 10.5718L77.1499 11.268V12.072H80.1499ZM82.3639 8.23799L84.9619 9.73822L87.5606 5.23799H82.3639V8.23799ZM67.9999 8.23799H64.9999V11.238H67.9999V8.23799ZM67.9999 3V0H64.9999V3H67.9999ZM107.69 3H110.69V0H107.69V3ZM107.69 6.942L109.205 9.53104L110.69 8.66208V6.942H107.69ZM105.476 8.23799L103.96 5.64896L101.387 7.15556L102.878 9.73822L105.476 8.23799ZM107.69 12.072H110.69V11.268L110.288 10.5718L107.69 12.072ZM107.69 20.226L110.288 21.7265L110.69 21.0301V20.226H107.69ZM104.072 26.49V29.49H105.804L106.67 27.9905L104.072 26.49ZM83.7679 26.49L81.1701 27.9905L82.0362 29.49H83.7679V26.49ZM102.992 8.23799H105.992V5.23799H102.992V8.23799ZM84.8479 8.23799V5.23799H81.8479V8.23799H84.8479ZM84.8479 21.252H81.8479V24.252H84.8479V21.252ZM102.992 21.252V24.252H105.992V21.252H102.992ZM80.1499 20.226H83.1499V12.072H80.1499H77.1499V20.226H80.1499ZM80.1499 12.072L82.7479 13.5722L84.9619 9.73822L82.3639 8.23799L79.766 6.73778L77.552 10.5718L80.1499 12.072ZM82.3639 8.23799V5.23799H67.9999V8.23799V11.238H82.3639V8.23799ZM67.9999 8.23799H70.9999V3H67.9999H64.9999V8.23799H67.9999ZM67.9999 3V6H107.69V3V0H67.9999V3ZM107.69 3H104.69V6.942H107.69H110.69V3H107.69ZM107.69 6.942L106.174 4.35295L103.96 5.64896L105.476 8.23799L106.991 10.827L109.205 9.53104L107.69 6.942ZM105.476 8.23799L102.878 9.73822L105.092 13.5722L107.69 12.072L110.288 10.5718L108.074 6.73778L105.476 8.23799ZM107.69 12.072H104.69V20.226H107.69H110.69V12.072H107.69ZM107.69 20.226L105.092 18.7255L101.474 24.9895L104.072 26.49L106.67 27.9905L110.288 21.7265L107.69 20.226ZM104.072 26.49V23.49H83.7679V26.49V29.49H104.072V26.49ZM83.7679 26.49L86.3657 24.9895L82.7477 18.7255L80.1499 20.226L77.5521 21.7265L81.1701 27.9905L83.7679 26.49ZM102.992 8.23799V5.23799H84.8479V8.23799V11.238H102.992V8.23799ZM84.8479 8.23799H81.8479V21.252H84.8479H87.8479V8.23799H84.8479ZM84.8479 21.252V24.252H102.992V21.252V18.252H84.8479V21.252ZM102.992 21.252H105.992V8.23799H102.992H99.9919V21.252H102.992Z" fill="#B5E93B" mask="url(#path-1-outside-1_62121_3759)"/>
</svg>
