<svg width="57" height="352" viewBox="0 0 57 352" fill="none" xmlns="http://www.w3.org/2000/svg">
<mask id="path-1-outside-1_62121_3759" maskUnits="userSpaceOnUse" x="-0.580078" y="-0.744019" width="57" height="353" fill="black">
<rect fill="white" x="-0.580078" y="-0.744019" width="57" height="353"/>
<path d="M42.4199 348.396H4.61992L4.61992 329.55L8.23792 323.286H24.2759L27.8939 329.55V342.996H42.4199V348.396ZM9.47992 342.996H23.0339V328.686H9.47992V342.996ZM20.1179 300.12V309.948H42.4199V315.186H15.4199V311.244L17.6339 309.948L15.4199 306.114V300.12H20.1179ZM15.4199 288.96H42.4199V294.198H15.4199V288.96ZM8.77792 294.468H2.99992V288.69H8.77792V294.468ZM15.4199 278.439L37.4519 270.501V270.393L15.4199 262.401V257.271L42.4199 267.261V273.579L15.4199 283.569V278.439ZM31.3499 247.694H37.9919V236.84H31.3499V247.694ZM42.6899 246.668L39.0719 252.932H30.2699L26.6519 246.668V236.84H20.1179V250.232H15.4199V237.866L19.0379 231.602H42.6899V233.006L40.4759 236.84L42.6899 240.674V246.668ZM20.1179 217.716H37.7219V202.704H42.4199V216.69L38.8019 222.954H19.0379L15.4199 216.69L15.4199 202.704H20.1179L20.1179 217.716ZM37.7219 173.833H42.4199L42.4199 188.899L38.8019 195.163H18.7679L15.1499 188.899V180.097L18.7679 173.833H30.7559L30.7559 189.925H37.7219L37.7219 173.833ZM19.8479 189.925H26.0579L26.0579 179.071H19.8479V189.925ZM42.4199 150.642H4.61992L4.61992 131.796L8.23792 125.532H24.2759L27.8939 131.796V145.242H42.4199V150.642ZM9.47992 145.242H23.0339V130.932H9.47992V145.242ZM39.0719 94.4821L42.6899 100.746V111.168L39.0719 117.432H18.7679L15.1499 111.168V100.746L18.7679 94.4821H39.0719ZM19.8479 112.194H37.9919V99.7201H19.8479V112.194ZM42.4199 79.5802L38.8019 85.8442H2.99992L2.99992 80.6062H37.7219V74.1262H42.4199V79.5802ZM15.4199 63.4675H42.4199V68.7055H15.4199V63.4675ZM8.77792 68.9755H2.99992V63.1975H8.77792V68.9755ZM20.1179 49.5984H37.7219V34.5864H42.4199V48.5724L38.8019 54.8364H19.0379L15.4199 48.5724L15.4199 34.5864H20.1179L20.1179 49.5984ZM53.2199 24.5614L41.1779 19.8634L15.4199 30.2854V25.0474L34.6439 17.3794V17.2714L15.4199 9.65736V4.41936L53.2199 19.4314V24.5614Z"/>
</mask>
<path d="M42.4199 348.396V351.396H45.4199V348.396H42.4199ZM4.61992 348.396H1.61992V351.396H4.61992V348.396ZM4.61992 329.55L2.02211 328.05L1.61992 328.746V329.55H4.61992ZM8.23792 323.286V320.286H6.50623L5.64011 321.786L8.23792 323.286ZM24.2759 323.286L26.8737 321.786L26.0076 320.286H24.2759V323.286ZM27.8939 329.55H30.8939V328.746L30.4917 328.05L27.8939 329.55ZM27.8939 342.996H24.8939V345.996H27.8939V342.996ZM42.4199 342.996H45.4199V339.996H42.4199V342.996ZM9.47992 342.996H6.47992V345.996H9.47992V342.996ZM23.0339 342.996V345.996H26.0339V342.996H23.0339ZM23.0339 328.686H26.0339V325.686H23.0339V328.686ZM9.47992 328.686V325.686H6.47992V328.686H9.47992ZM42.4199 348.396V345.396H4.61992V348.396V351.396H42.4199V348.396ZM4.61992 348.396H7.61992V329.55H4.61992H1.61992L1.61992 348.396H4.61992ZM4.61992 329.55L7.21773 331.05L10.8357 324.786L8.23792 323.286L5.64011 321.786L2.02211 328.05L4.61992 329.55ZM8.23792 323.286L8.23792 326.286H24.2759V323.286V320.286H8.23792V323.286ZM24.2759 323.286L21.6781 324.786L25.2961 331.05L27.8939 329.55L30.4917 328.05L26.8737 321.786L24.2759 323.286ZM27.8939 329.55H24.8939V342.996H27.8939H30.8939V329.55H27.8939ZM27.8939 342.996V345.996H42.4199V342.996V339.996H27.8939V342.996ZM42.4199 342.996H39.4199V348.396H42.4199H45.4199V342.996H42.4199ZM9.47992 342.996V345.996H23.0339V342.996V339.996H9.47992V342.996ZM23.0339 342.996H26.0339V328.686H23.0339H20.0339V342.996H23.0339ZM23.0339 328.686V325.686H9.47992V328.686V331.686H23.0339V328.686ZM9.47992 328.686H6.47992L6.47992 342.996H9.47992H12.4799V328.686H9.47992ZM20.1179 300.12H23.1179V297.12H20.1179V300.12ZM20.1179 309.948H17.1179V312.948H20.1179V309.948ZM42.4199 309.948H45.4199V306.948H42.4199V309.948ZM42.4199 315.186V318.186H45.4199V315.186H42.4199ZM15.4199 315.186H12.4199V318.186H15.4199V315.186ZM15.4199 311.244L13.9044 308.655L12.4199 309.524V311.244H15.4199ZM17.6339 309.948L19.1495 312.537L21.7233 311.03L20.2319 308.448L17.6339 309.948ZM15.4199 306.114H12.4199V306.918L12.822 307.614L15.4199 306.114ZM15.4199 300.12V297.12H12.4199V300.12H15.4199ZM20.1179 300.12H17.1179V309.948H20.1179H23.1179V300.12H20.1179ZM20.1179 309.948V312.948H42.4199V309.948V306.948H20.1179V309.948ZM42.4199 309.948H39.4199V315.186H42.4199H45.4199V309.948H42.4199ZM42.4199 315.186V312.186H15.4199V315.186V318.186H42.4199V315.186ZM15.4199 315.186H18.4199V311.244H15.4199H12.4199V315.186H15.4199ZM15.4199 311.244L16.9355 313.833L19.1495 312.537L17.6339 309.948L16.1184 307.359L13.9044 308.655L15.4199 311.244ZM17.6339 309.948L20.2319 308.448L18.0179 304.614L15.4199 306.114L12.822 307.614L15.036 311.448L17.6339 309.948ZM15.4199 306.114H18.4199V300.12H15.4199H12.4199V306.114H15.4199ZM15.4199 300.12V303.12H20.1179V300.12V297.12H15.4199V300.12ZM15.4199 288.96V285.96H12.4199V288.96H15.4199ZM42.4199 288.96H45.4199V285.96H42.4199V288.96ZM42.4199 294.198L42.4199 297.198H45.4199L45.4199 294.198H42.4199ZM15.4199 294.198H12.4199V297.198H15.4199V294.198ZM8.77792 294.468V297.468H11.7779V294.468H8.77792ZM2.99992 294.468H-8.01086e-05V297.468H2.99992V294.468ZM2.99992 288.69V285.69H-8.01086e-05V288.69H2.99992ZM8.77792 288.69H11.7779V285.69H8.77792V288.69ZM15.4199 288.96V291.96H42.4199V288.96V285.96H15.4199V288.96ZM42.4199 288.96H39.4199V294.198H42.4199H45.4199V288.96H42.4199ZM42.4199 294.198V291.198H15.4199V294.198V297.198H42.4199L42.4199 294.198ZM15.4199 294.198H18.4199V288.96H15.4199H12.4199V294.198H15.4199ZM8.77792 294.468V291.468H2.99992V294.468V297.468H8.77792V294.468ZM2.99992 294.468H5.99992V288.69H2.99992H-8.01086e-05V294.468H2.99992ZM2.99992 288.69V291.69H8.77792V288.69V285.69H2.99992V288.69ZM8.77792 288.69H5.77792V294.468H8.77792H11.7779V288.69H8.77792ZM15.4199 278.439L14.403 275.616L12.4199 276.331V278.439H15.4199ZM37.4519 270.501L38.4688 273.323L40.4519 272.608V270.501H37.4519ZM37.4519 270.393H40.4519V268.29L38.4749 267.572L37.4519 270.393ZM15.4199 262.401H12.4199V264.504L14.3969 265.221L15.4199 262.401ZM15.4199 257.271L16.4609 254.457L12.4199 252.962V257.271H15.4199ZM42.4199 267.261H45.4199V265.172L43.4609 264.447L42.4199 267.261ZM42.4199 273.579L43.4609 276.392L45.4199 275.667V273.579H42.4199ZM15.4199 283.569H12.4199V287.877L16.4609 286.382L15.4199 283.569ZM15.4199 278.439L16.4368 281.261L38.4688 273.323L37.4519 270.501L36.435 267.678L14.403 275.616L15.4199 278.439ZM37.4519 270.501H40.4519V270.393H37.4519H34.4519V270.501H37.4519ZM37.4519 270.393L38.4749 267.572L16.4429 259.58L15.4199 262.401L14.3969 265.221L36.4289 273.213L37.4519 270.393ZM15.4199 262.401H18.4199V257.271H15.4199H12.4199V262.401H15.4199ZM15.4199 257.271L14.3789 260.084L41.3789 270.074L42.4199 267.261L43.4609 264.447L16.4609 254.457L15.4199 257.271ZM42.4199 267.261H39.4199V273.579H42.4199H45.4199V267.261H42.4199ZM42.4199 273.579L41.3789 270.765L14.3789 280.755L15.4199 283.569L16.4609 286.382L43.4609 276.392L42.4199 273.579ZM15.4199 283.569H18.4199V278.439H15.4199H12.4199V283.569H15.4199ZM31.3499 247.694H28.3499V250.694H31.3499V247.694ZM37.9919 247.694V250.694H40.9919V247.694H37.9919ZM37.9919 236.84H40.9919V233.84H37.9919V236.84ZM31.3499 236.84V233.84H28.3499V236.84H31.3499ZM42.6899 246.668L45.2877 248.168L45.6899 247.472V246.668H42.6899ZM39.0719 252.932V255.932H40.8036L41.6697 254.432L39.0719 252.932ZM30.2699 252.932L27.6721 254.432L28.5382 255.932H30.2699V252.932ZM26.6519 246.668H23.6519V247.472L24.0541 248.168L26.6519 246.668ZM26.6519 236.84H29.6519V233.84H26.6519V236.84ZM20.1179 236.84V233.84H17.1179V236.84H20.1179ZM20.1179 250.232V253.232H23.1179V250.232H20.1179ZM15.4199 250.232H12.4199V253.232H15.4199V250.232ZM15.4199 237.866L12.8221 236.366L12.4199 237.062V237.866H15.4199ZM19.0379 231.602V228.602H17.3062L16.4401 230.102L19.0379 231.602ZM42.6899 231.602H45.6899V228.602H42.6899V231.602ZM42.6899 233.006L45.2879 234.506L45.6899 233.81V233.006H42.6899ZM40.4759 236.84L37.878 235.34L37.0117 236.84L37.878 238.34L40.4759 236.84ZM42.6899 240.674H45.6899V239.87L45.2879 239.174L42.6899 240.674ZM31.3499 247.694V250.694H37.9919V247.694V244.694H31.3499V247.694ZM37.9919 247.694H40.9919V236.84H37.9919H34.9919V247.694H37.9919ZM37.9919 236.84V233.84H31.3499V236.84V239.84H37.9919V236.84ZM31.3499 236.84H28.3499V247.694H31.3499H34.3499V236.84H31.3499ZM42.6899 246.668L40.0921 245.168L36.4741 251.432L39.0719 252.932L41.6697 254.432L45.2877 248.168L42.6899 246.668ZM39.0719 252.932V249.932H30.2699V252.932V255.932H39.0719V252.932ZM30.2699 252.932L32.8677 251.432L29.2497 245.168L26.6519 246.668L24.0541 248.168L27.6721 254.432L30.2699 252.932ZM26.6519 246.668H29.6519V236.84H26.6519H23.6519V246.668H26.6519ZM26.6519 236.84V233.84H20.1179V236.84V239.84H26.6519V236.84ZM20.1179 236.84H17.1179V250.232H20.1179H23.1179V236.84H20.1179ZM20.1179 250.232V247.232H15.4199V250.232V253.232H20.1179V250.232ZM15.4199 250.232H18.4199V237.866H15.4199H12.4199V250.232H15.4199ZM15.4199 237.866L18.0177 239.366L21.6357 233.102L19.0379 231.602L16.4401 230.102L12.8221 236.366L15.4199 237.866ZM19.0379 231.602V234.602H42.6899V231.602V228.602H19.0379V231.602ZM42.6899 231.602H39.6899V233.006H42.6899H45.6899V231.602H42.6899ZM42.6899 233.006L40.092 231.506L37.878 235.34L40.4759 236.84L43.0739 238.34L45.2879 234.506L42.6899 233.006ZM40.4759 236.84L37.878 238.34L40.092 242.174L42.6899 240.674L45.2879 239.174L43.0739 235.34L40.4759 236.84ZM42.6899 240.674H39.6899V246.668H42.6899H45.6899V240.674H42.6899ZM20.1179 217.716H17.1179V220.716H20.1179V217.716ZM37.7219 217.716V220.716H40.7219V217.716H37.7219ZM37.7219 202.704V199.704H34.7219V202.704H37.7219ZM42.4199 202.704H45.4199V199.704H42.4199V202.704ZM42.4199 216.69L45.0177 218.19L45.4199 217.494V216.69H42.4199ZM38.8019 222.954V225.954H40.5336L41.3997 224.454L38.8019 222.954ZM19.0379 222.954L16.4401 224.454L17.3062 225.954H19.0379V222.954ZM15.4199 216.69H12.4199V217.494L12.8221 218.19L15.4199 216.69ZM15.4199 202.704V199.704H12.4199V202.704H15.4199ZM20.1179 202.704H23.1179V199.704H20.1179V202.704ZM20.1179 217.716V220.716H37.7219V217.716V214.716H20.1179V217.716ZM37.7219 217.716H40.7219V202.704H37.7219H34.7219V217.716H37.7219ZM37.7219 202.704V205.704H42.4199V202.704V199.704H37.7219V202.704ZM42.4199 202.704H39.4199V216.69H42.4199H45.4199V202.704H42.4199ZM42.4199 216.69L39.8221 215.189L36.2041 221.453L38.8019 222.954L41.3997 224.454L45.0177 218.19L42.4199 216.69ZM38.8019 222.954V219.954H19.0379V222.954V225.954H38.8019V222.954ZM19.0379 222.954L21.6357 221.453L18.0177 215.189L15.4199 216.69L12.8221 218.19L16.4401 224.454L19.0379 222.954ZM15.4199 216.69H18.4199L18.4199 202.704H15.4199H12.4199L12.4199 216.69H15.4199ZM15.4199 202.704V205.704H20.1179V202.704V199.704H15.4199V202.704ZM20.1179 202.704H17.1179L17.1179 217.716H20.1179H23.1179L23.1179 202.704H20.1179ZM37.7219 173.833V170.833H34.7219V173.833H37.7219ZM42.4199 173.833H45.4199V170.833H42.4199V173.833ZM42.4199 188.899L45.0177 190.399L45.4199 189.703V188.899H42.4199ZM38.8019 195.163V198.163H40.5336L41.3997 196.663L38.8019 195.163ZM18.7679 195.163L16.1701 196.663L17.0362 198.163H18.7679V195.163ZM15.1499 188.899H12.1499V189.703L12.5521 190.399L15.1499 188.899ZM15.1499 180.097L12.5521 178.596L12.1499 179.292V180.097H15.1499ZM18.7679 173.833V170.833H17.0362L16.1701 172.332L18.7679 173.833ZM30.7559 173.833H33.7559V170.833H30.7559V173.833ZM30.7559 189.925H27.7559V192.925H30.7559V189.925ZM37.7219 189.925V192.925H40.7219V189.925H37.7219ZM19.8479 189.925H16.8479V192.925H19.8479V189.925ZM26.0579 189.925V192.925H29.0579V189.925H26.0579ZM26.0579 179.071H29.0579V176.071H26.0579V179.071ZM19.8479 179.071V176.071H16.8479V179.071H19.8479ZM37.7219 173.833V176.833H42.4199V173.833V170.833H37.7219V173.833ZM42.4199 173.833H39.4199L39.4199 188.899H42.4199H45.4199L45.4199 173.833H42.4199ZM42.4199 188.899L39.8221 187.398L36.2041 193.662L38.8019 195.163L41.3997 196.663L45.0177 190.399L42.4199 188.899ZM38.8019 195.163V192.163H18.7679V195.163V198.163H38.8019V195.163ZM18.7679 195.163L21.3657 193.662L17.7477 187.398L15.1499 188.899L12.5521 190.399L16.1701 196.663L18.7679 195.163ZM15.1499 188.899H18.1499V180.097H15.1499H12.1499V188.899H15.1499ZM15.1499 180.097L17.7477 181.597L21.3657 175.333L18.7679 173.833L16.1701 172.332L12.5521 178.596L15.1499 180.097ZM18.7679 173.833V176.833H30.7559V173.833V170.833H18.7679V173.833ZM30.7559 173.833H27.7559L27.7559 189.925H30.7559H33.7559L33.7559 173.833H30.7559ZM30.7559 189.925V192.925H37.7219V189.925V186.925H30.7559V189.925ZM37.7219 189.925H40.7219L40.7219 173.833H37.7219H34.7219L34.7219 189.925H37.7219ZM19.8479 189.925V192.925H26.0579V189.925V186.925H19.8479V189.925ZM26.0579 189.925H29.0579L29.0579 179.071H26.0579H23.0579V189.925H26.0579ZM26.0579 179.071V176.071H19.8479V179.071V182.071H26.0579V179.071ZM19.8479 179.071H16.8479V189.925H19.8479H22.8479V179.071H19.8479ZM42.4199 150.642V153.642H45.4199V150.642H42.4199ZM4.61992 150.642H1.61992V153.642H4.61992V150.642ZM4.61992 131.796L2.02211 130.296L1.61992 130.992V131.796H4.61992ZM8.23792 125.532V122.532H6.50623L5.64011 124.032L8.23792 125.532ZM24.2759 125.532L26.8737 124.032L26.0076 122.532H24.2759V125.532ZM27.8939 131.796H30.8939V130.992L30.4917 130.296L27.8939 131.796ZM27.8939 145.242H24.8939V148.242H27.8939V145.242ZM42.4199 145.242H45.4199V142.242H42.4199V145.242ZM9.47992 145.242H6.47992V148.242H9.47992V145.242ZM23.0339 145.242V148.242H26.0339V145.242H23.0339ZM23.0339 130.932H26.0339V127.932H23.0339V130.932ZM9.47992 130.932V127.932H6.47992V130.932H9.47992ZM42.4199 150.642V147.642H4.61992V150.642V153.642H42.4199V150.642ZM4.61992 150.642H7.61992V131.796H4.61992H1.61992L1.61992 150.642H4.61992ZM4.61992 131.796L7.21773 133.297L10.8357 127.033L8.23792 125.532L5.64011 124.032L2.02211 130.296L4.61992 131.796ZM8.23792 125.532V128.532H24.2759V125.532V122.532H8.23792V125.532ZM24.2759 125.532L21.6781 127.033L25.2961 133.297L27.8939 131.796L30.4917 130.296L26.8737 124.032L24.2759 125.532ZM27.8939 131.796H24.8939V145.242H27.8939H30.8939V131.796H27.8939ZM27.8939 145.242V148.242H42.4199V145.242V142.242H27.8939V145.242ZM42.4199 145.242H39.4199V150.642H42.4199H45.4199V145.242H42.4199ZM9.47992 145.242V148.242H23.0339V145.242V142.242H9.47992V145.242ZM23.0339 145.242H26.0339V130.932H23.0339H20.0339V145.242H23.0339ZM23.0339 130.932V127.932H9.47992V130.932V133.932H23.0339V130.932ZM9.47992 130.932H6.47992L6.47992 145.242H9.47992H12.4799V130.932H9.47992ZM39.0719 94.4821L41.6697 92.9816L40.8036 91.4821H39.0719V94.4821ZM42.6899 100.746H45.6899V99.9419L45.2877 99.2456L42.6899 100.746ZM42.6899 111.168L45.2877 112.669L45.6899 111.972V111.168H42.6899ZM39.0719 117.432V120.432H40.8036L41.6697 118.933L39.0719 117.432ZM18.7679 117.432L16.1701 118.933L17.0362 120.432H18.7679V117.432ZM15.1499 111.168H12.1499V111.972L12.5521 112.669L15.1499 111.168ZM15.1499 100.746L12.5521 99.2456L12.1499 99.9419V100.746H15.1499ZM18.7679 94.4821V91.4821H17.0362L16.1701 92.9816L18.7679 94.4821ZM19.8479 112.194H16.8479V115.194H19.8479V112.194ZM37.9919 112.194V115.194H40.9919V112.194H37.9919ZM37.9919 99.7201H40.9919V96.7201H37.9919V99.7201ZM19.8479 99.7201L19.8479 96.7201H16.8479L16.8479 99.7201H19.8479ZM39.0719 94.4821L36.4741 95.9825L40.0921 102.247L42.6899 100.746L45.2877 99.2456L41.6697 92.9816L39.0719 94.4821ZM42.6899 100.746H39.6899V111.168H42.6899H45.6899V100.746H42.6899ZM42.6899 111.168L40.0921 109.668L36.4741 115.932L39.0719 117.432L41.6697 118.933L45.2877 112.669L42.6899 111.168ZM39.0719 117.432V114.432H18.7679V117.432V120.432H39.0719V117.432ZM18.7679 117.432L21.3657 115.932L17.7477 109.668L15.1499 111.168L12.5521 112.669L16.1701 118.933L18.7679 117.432ZM15.1499 111.168H18.1499V100.746H15.1499H12.1499V111.168H15.1499ZM15.1499 100.746L17.7477 102.247L21.3657 95.9825L18.7679 94.4821L16.1701 92.9816L12.5521 99.2456L15.1499 100.746ZM18.7679 94.4821V97.4821H39.0719V94.4821V91.4821H18.7679V94.4821ZM19.8479 112.194V115.194H37.9919V112.194V109.194H19.8479V112.194ZM37.9919 112.194H40.9919V99.7201H37.9919H34.9919V112.194H37.9919ZM37.9919 99.7201V96.7201H19.8479L19.8479 99.7201V102.72H37.9919V99.7201ZM19.8479 99.7201H16.8479V112.194H19.8479H22.8479V99.7201H19.8479ZM42.4199 79.5802L45.0177 81.0807L45.4199 80.3843V79.5802H42.4199ZM38.8019 85.8442V88.8442H40.5336L41.3997 87.3446L38.8019 85.8442ZM2.99992 85.8442H-8.01086e-05V88.8442H2.99992V85.8442ZM2.99992 80.6062V77.6062H-8.01086e-05V80.6062H2.99992ZM37.7219 80.6062V83.6062H40.7219V80.6062H37.7219ZM37.7219 74.1262L37.7219 71.1262H34.7219L34.7219 74.1262H37.7219ZM42.4199 74.1262H45.4199L45.4199 71.1262H42.4199L42.4199 74.1262ZM42.4199 79.5802L39.8221 78.0797L36.2041 84.3437L38.8019 85.8442L41.3997 87.3446L45.0177 81.0807L42.4199 79.5802ZM38.8019 85.8442V82.8442H2.99992L2.99992 85.8442V88.8442H38.8019V85.8442ZM2.99992 85.8442H5.99992L5.99992 80.6062H2.99992H-8.01086e-05L-8.01086e-05 85.8442H2.99992ZM2.99992 80.6062V83.6062H37.7219V80.6062V77.6062H2.99992V80.6062ZM37.7219 80.6062H40.7219V74.1262H37.7219H34.7219V80.6062H37.7219ZM37.7219 74.1262V77.1262H42.4199V74.1262L42.4199 71.1262H37.7219L37.7219 74.1262ZM42.4199 74.1262H39.4199V79.5802H42.4199H45.4199V74.1262H42.4199ZM15.4199 63.4675V60.4675H12.4199V63.4675H15.4199ZM42.4199 63.4675H45.4199V60.4675H42.4199V63.4675ZM42.4199 68.7055L42.4199 71.7055H45.4199L45.4199 68.7055H42.4199ZM15.4199 68.7055H12.4199V71.7055H15.4199V68.7055ZM8.77792 68.9755V71.9755H11.7779V68.9755H8.77792ZM2.99992 68.9755H-8.01086e-05V71.9755H2.99992V68.9755ZM2.99992 63.1975V60.1975H-8.01086e-05V63.1975H2.99992ZM8.77792 63.1975H11.7779V60.1975H8.77792V63.1975ZM15.4199 63.4675V66.4675H42.4199V63.4675V60.4675H15.4199V63.4675ZM42.4199 63.4675H39.4199V68.7055H42.4199H45.4199V63.4675H42.4199ZM42.4199 68.7055V65.7055H15.4199V68.7055V71.7055H42.4199L42.4199 68.7055ZM15.4199 68.7055H18.4199V63.4675H15.4199H12.4199V68.7055H15.4199ZM8.77792 68.9755V65.9755H2.99992V68.9755V71.9755H8.77792V68.9755ZM2.99992 68.9755H5.99992V63.1975H2.99992H-8.01086e-05V68.9755H2.99992ZM2.99992 63.1975V66.1975H8.77792V63.1975V60.1975H2.99992V63.1975ZM8.77792 63.1975H5.77792V68.9755H8.77792H11.7779V63.1975H8.77792ZM20.1179 49.5984H17.1179V52.5984H20.1179V49.5984ZM37.7219 49.5984V52.5984H40.7219V49.5984H37.7219ZM37.7219 34.5864V31.5864H34.7219V34.5864H37.7219ZM42.4199 34.5864H45.4199V31.5864H42.4199V34.5864ZM42.4199 48.5724L45.0177 50.0728L45.4199 49.3765V48.5724H42.4199ZM38.8019 54.8364V57.8364H40.5336L41.3997 56.3368L38.8019 54.8364ZM19.0379 54.8364L16.4401 56.3368L17.3062 57.8364H19.0379V54.8364ZM15.4199 48.5724H12.4199V49.3765L12.8221 50.0728L15.4199 48.5724ZM15.4199 34.5864V31.5864H12.4199V34.5864H15.4199ZM20.1179 34.5864H23.1179V31.5864H20.1179V34.5864ZM20.1179 49.5984V52.5984H37.7219V49.5984V46.5984H20.1179V49.5984ZM37.7219 49.5984H40.7219V34.5864H37.7219H34.7219V49.5984H37.7219ZM37.7219 34.5864V37.5864H42.4199V34.5864V31.5864H37.7219V34.5864ZM42.4199 34.5864H39.4199V48.5724H42.4199H45.4199V34.5864H42.4199ZM42.4199 48.5724L39.8221 47.0719L36.2041 53.3359L38.8019 54.8364L41.3997 56.3368L45.0177 50.0728L42.4199 48.5724ZM38.8019 54.8364V51.8364H19.0379V54.8364V57.8364H38.8019V54.8364ZM19.0379 54.8364L21.6357 53.3359L18.0177 47.0719L15.4199 48.5724L12.8221 50.0728L16.4401 56.3368L19.0379 54.8364ZM15.4199 48.5724H18.4199L18.4199 34.5864H15.4199H12.4199L12.4199 48.5724H15.4199ZM15.4199 34.5864V37.5864H20.1179V34.5864V31.5864H15.4199V34.5864ZM20.1179 34.5864H17.1179L17.1179 49.5984H20.1179H23.1179L23.1179 34.5864H20.1179ZM53.2199 24.5614L52.1296 27.3562L56.2199 28.952V24.5614H53.2199ZM41.1779 19.8633L42.2683 17.0685L41.1577 16.6353L40.0527 17.0824L41.1779 19.8633ZM15.4199 30.2854H12.4199V34.7354L16.5451 33.0663L15.4199 30.2854ZM15.4199 25.0474L14.3084 22.2608L12.4199 23.0141V25.0474H15.4199ZM34.6439 17.3794L35.7554 20.1659L37.6439 19.4126V17.3794H34.6439ZM34.6439 17.2714H37.6439V15.2328L35.7486 14.4821L34.6439 17.2714ZM15.4199 9.65735H12.4199V11.6959L14.3152 12.4466L15.4199 9.65735ZM15.4199 4.41934L16.5272 1.6312L12.4199 0V4.41934H15.4199ZM53.2199 19.4314H56.2199V17.3949L54.3272 16.6432L53.2199 19.4314ZM53.2199 24.5614L54.3103 21.7665L42.2683 17.0685L41.1779 19.8633L40.0876 22.6582L52.1296 27.3562L53.2199 24.5614ZM41.1779 19.8633L40.0527 17.0824L14.2947 27.5044L15.4199 30.2854L16.5451 33.0663L42.3031 22.6443L41.1779 19.8633ZM15.4199 30.2854H18.4199V25.0474H15.4199H12.4199V30.2854H15.4199ZM15.4199 25.0474L16.5314 27.8339L35.7554 20.1659L34.6439 17.3794L33.5324 14.5928L14.3084 22.2608L15.4199 25.0474ZM34.6439 17.3794H37.6439V17.2714H34.6439H31.6439V17.3794H34.6439ZM34.6439 17.2714L35.7486 14.4821L16.5246 6.86816L15.4199 9.65735L14.3152 12.4466L33.5392 20.0605L34.6439 17.2714ZM15.4199 9.65735H18.4199V4.41934H15.4199H12.4199V9.65735H15.4199ZM15.4199 4.41934L14.3126 7.20752L52.1126 22.2195L53.2199 19.4314L54.3272 16.6432L16.5272 1.6312L15.4199 4.41934ZM53.2199 19.4314H50.2199V24.5614H53.2199H56.2199V19.4314H53.2199Z" fill="#B5E93B" mask="url(#path-1-outside-1_62121_3759)"/>
</svg>
