<svg width="46" height="258" viewBox="0 0 46 258" fill="none" xmlns="http://www.w3.org/2000/svg">
<mask id="path-1-outside-1_62121_3759" maskUnits="userSpaceOnUse" x="-0.580078" y="-0.533752" width="47" height="259" fill="black">
<rect fill="white" x="-0.580078" y="-0.533752" width="47" height="259"/>
<path d="M42.4199 254.606H4.61992L4.61992 235.76L8.23792 229.496H24.2759L27.8939 235.76L27.8939 249.206H42.4199V254.606ZM9.47992 249.206H23.0339V234.896H9.47992V249.206ZM20.1179 206.33L20.1179 216.158H42.4199V221.396H15.4199V217.454L17.6339 216.158L15.4199 212.324V206.33H20.1179ZM15.4199 195.17H42.4199V200.408H15.4199V195.17ZM8.77792 200.678H2.99992L2.99992 194.9H8.77792V200.678ZM15.4199 184.649L37.4519 176.711V176.603L15.4199 168.611V163.481L42.4199 173.471V179.789L15.4199 189.779V184.649ZM31.3499 153.904H37.9919V143.05H31.3499V153.904ZM42.6899 152.878L39.0719 159.142H30.2699L26.6519 152.878V143.05H20.1179V156.442H15.4199V144.076L19.0379 137.812H42.6899V139.216L40.4759 143.05L42.6899 146.884V152.878ZM20.1179 123.926H37.7219V108.914H42.4199V122.9L38.8019 129.164H19.0379L15.4199 122.9L15.4199 108.914H20.1179L20.1179 123.926ZM15.4199 96.1348H42.4199V101.373H15.4199V96.1348ZM8.77792 101.643H2.99992L2.99992 95.8648H8.77792V101.643ZM15.1499 81.2397V73.0857L17.3639 69.2517H2.99992V64.0137H42.6899V67.9557L40.4759 69.2517L42.6899 73.0857V81.2397L39.0719 87.5037H18.7679L15.1499 81.2397ZM37.9919 69.2517H19.8479V82.2657H37.9919V69.2517ZM31.3499 51.2304H37.9919V40.3764H31.3499V51.2304ZM42.6899 50.2044L39.0719 56.4684H30.2699L26.6519 50.2044V40.3764H20.1179L20.1179 53.7684H15.4199L15.4199 41.4024L19.0379 35.1384H42.6899V36.5424L40.4759 40.3764L42.6899 44.2104V50.2044ZM15.1499 20.226V12.072L17.3639 8.238H2.99992L2.99992 3H42.6899V6.942L40.4759 8.238L42.6899 12.072L42.6899 20.226L39.0719 26.49H18.7679L15.1499 20.226ZM37.9919 8.238H19.8479L19.8479 21.252H37.9919L37.9919 8.238Z"/>
</mask>
<path d="M42.4199 254.606V257.606H45.4199V254.606H42.4199ZM4.61992 254.606H1.61992L1.61992 257.606H4.61992L4.61992 254.606ZM4.61992 235.76L2.02211 234.26L1.61992 234.956V235.76H4.61992ZM8.23792 229.496V226.496H6.50623L5.64011 227.996L8.23792 229.496ZM24.2759 229.496L26.8737 227.996L26.0076 226.496H24.2759V229.496ZM27.8939 235.76H30.8939V234.956L30.4917 234.26L27.8939 235.76ZM27.8939 249.206H24.8939V252.206H27.8939V249.206ZM42.4199 249.206H45.4199V246.206H42.4199V249.206ZM9.47992 249.206H6.47992V252.206H9.47992L9.47992 249.206ZM23.0339 249.206L23.0339 252.206H26.0339V249.206H23.0339ZM23.0339 234.896H26.0339V231.896H23.0339V234.896ZM9.47992 234.896V231.896H6.47992V234.896H9.47992ZM42.4199 254.606V251.606H4.61992V254.606L4.61992 257.606H42.4199V254.606ZM4.61992 254.606H7.61992L7.61992 235.76H4.61992H1.61992L1.61992 254.606H4.61992ZM4.61992 235.76L7.21773 237.261L10.8357 230.997L8.23792 229.496L5.64011 227.996L2.02211 234.26L4.61992 235.76ZM8.23792 229.496L8.23792 232.496H24.2759V229.496V226.496H8.23792V229.496ZM24.2759 229.496L21.6781 230.997L25.2961 237.261L27.8939 235.76L30.4917 234.26L26.8737 227.996L24.2759 229.496ZM27.8939 235.76H24.8939L24.8939 249.206H27.8939H30.8939L30.8939 235.76H27.8939ZM27.8939 249.206V252.206H42.4199V249.206V246.206H27.8939V249.206ZM42.4199 249.206H39.4199V254.606H42.4199H45.4199V249.206H42.4199ZM9.47992 249.206L9.47992 252.206H23.0339L23.0339 249.206V246.206H9.47992V249.206ZM23.0339 249.206H26.0339L26.0339 234.896H23.0339H20.0339V249.206H23.0339ZM23.0339 234.896V231.896H9.47992V234.896V237.896H23.0339V234.896ZM9.47992 234.896H6.47992L6.47992 249.206H9.47992H12.4799V234.896H9.47992ZM20.1179 206.33H23.1179V203.33H20.1179V206.33ZM20.1179 216.158H17.1179V219.158H20.1179V216.158ZM42.4199 216.158H45.4199V213.158H42.4199V216.158ZM42.4199 221.396V224.396H45.4199V221.396H42.4199ZM15.4199 221.396H12.4199V224.396H15.4199V221.396ZM15.4199 217.454L13.9044 214.865L12.4199 215.734V217.454H15.4199ZM17.6339 216.158L19.1495 218.747L21.7233 217.241L20.2319 214.658L17.6339 216.158ZM15.4199 212.324H12.4199V213.128L12.822 213.824L15.4199 212.324ZM15.4199 206.33V203.33H12.4199V206.33H15.4199ZM20.1179 206.33H17.1179L17.1179 216.158H20.1179H23.1179L23.1179 206.33H20.1179ZM20.1179 216.158V219.158H42.4199V216.158V213.158H20.1179L20.1179 216.158ZM42.4199 216.158H39.4199V221.396H42.4199H45.4199V216.158H42.4199ZM42.4199 221.396V218.396H15.4199V221.396V224.396H42.4199V221.396ZM15.4199 221.396H18.4199V217.454H15.4199H12.4199V221.396H15.4199ZM15.4199 217.454L16.9355 220.043L19.1495 218.747L17.6339 216.158L16.1184 213.569L13.9044 214.865L15.4199 217.454ZM17.6339 216.158L20.2319 214.658L18.0179 210.824L15.4199 212.324L12.822 213.824L15.036 217.658L17.6339 216.158ZM15.4199 212.324H18.4199V206.33H15.4199H12.4199V212.324H15.4199ZM15.4199 206.33V209.33H20.1179V206.33V203.33H15.4199V206.33ZM15.4199 195.17L15.4199 192.17H12.4199L12.4199 195.17H15.4199ZM42.4199 195.17H45.4199V192.17H42.4199V195.17ZM42.4199 200.408V203.408H45.4199V200.408H42.4199ZM15.4199 200.408H12.4199V203.408H15.4199V200.408ZM8.77792 200.678V203.678H11.7779V200.678H8.77792ZM2.99992 200.678H-8.01086e-05V203.678H2.99992V200.678ZM2.99992 194.9V191.9H-8.01086e-05V194.9H2.99992ZM8.77792 194.9H11.7779L11.7779 191.9H8.77792L8.77792 194.9ZM15.4199 195.17V198.17H42.4199V195.17V192.17H15.4199L15.4199 195.17ZM42.4199 195.17H39.4199V200.408H42.4199H45.4199V195.17H42.4199ZM42.4199 200.408V197.408H15.4199V200.408V203.408H42.4199V200.408ZM15.4199 200.408H18.4199V195.17H15.4199H12.4199V200.408H15.4199ZM8.77792 200.678V197.678H2.99992L2.99992 200.678V203.678H8.77792V200.678ZM2.99992 200.678H5.99992L5.99992 194.9H2.99992H-8.01086e-05L-8.01086e-05 200.678H2.99992ZM2.99992 194.9V197.9H8.77792V194.9L8.77792 191.9H2.99992V194.9ZM8.77792 194.9H5.77792L5.77792 200.678H8.77792H11.7779V194.9H8.77792ZM15.4199 184.649L14.403 181.826L12.4199 182.541V184.649H15.4199ZM37.4519 176.711L38.4688 179.533L40.4519 178.819V176.711H37.4519ZM37.4519 176.603H40.4519V174.5L38.4749 173.783L37.4519 176.603ZM15.4199 168.611H12.4199V170.714L14.3969 171.431L15.4199 168.611ZM15.4199 163.481L16.4609 160.667L12.4199 159.172V163.481H15.4199ZM42.4199 173.471H45.4199V171.382L43.4609 170.657L42.4199 173.471ZM42.4199 179.789L43.4609 182.602L45.4199 181.878V179.789H42.4199ZM15.4199 189.779H12.4199V194.088L16.4609 192.592L15.4199 189.779ZM15.4199 184.649L16.4368 187.471L38.4688 179.533L37.4519 176.711L36.435 173.888L14.403 181.826L15.4199 184.649ZM37.4519 176.711H40.4519V176.603H37.4519H34.4519V176.711H37.4519ZM37.4519 176.603L38.4749 173.783L16.4429 165.791L15.4199 168.611L14.3969 171.431L36.4289 179.423L37.4519 176.603ZM15.4199 168.611H18.4199V163.481H15.4199H12.4199V168.611H15.4199ZM15.4199 163.481L14.3789 166.294L41.3789 176.284L42.4199 173.471L43.4609 170.657L16.4609 160.667L15.4199 163.481ZM42.4199 173.471H39.4199V179.789H42.4199H45.4199V173.471H42.4199ZM42.4199 179.789L41.3789 176.975L14.3789 186.965L15.4199 189.779L16.4609 192.592L43.4609 182.602L42.4199 179.789ZM15.4199 189.779H18.4199V184.649H15.4199H12.4199V189.779H15.4199ZM31.3499 153.904H28.3499V156.904H31.3499V153.904ZM37.9919 153.904V156.904H40.9919V153.904H37.9919ZM37.9919 143.05H40.9919V140.05H37.9919V143.05ZM31.3499 143.05V140.05H28.3499V143.05H31.3499ZM42.6899 152.878L45.2877 154.379L45.6899 153.682V152.878H42.6899ZM39.0719 159.142V162.142H40.8036L41.6697 160.643L39.0719 159.142ZM30.2699 159.142L27.6721 160.643L28.5382 162.142H30.2699V159.142ZM26.6519 152.878H23.6519V153.682L24.0541 154.379L26.6519 152.878ZM26.6519 143.05H29.6519V140.05H26.6519V143.05ZM20.1179 143.05V140.05H17.1179V143.05H20.1179ZM20.1179 156.442L20.1179 159.442H23.1179L23.1179 156.442H20.1179ZM15.4199 156.442H12.4199L12.4199 159.442H15.4199L15.4199 156.442ZM15.4199 144.076L12.8221 142.576L12.4199 143.272V144.076H15.4199ZM19.0379 137.812V134.812H17.3062L16.4401 136.312L19.0379 137.812ZM42.6899 137.812H45.6899V134.812H42.6899V137.812ZM42.6899 139.216L45.2879 140.716L45.6899 140.02V139.216H42.6899ZM40.4759 143.05L37.878 141.55L37.0117 143.05L37.878 144.55L40.4759 143.05ZM42.6899 146.884H45.6899V146.08L45.2879 145.384L42.6899 146.884ZM31.3499 153.904V156.904H37.9919V153.904V150.904H31.3499V153.904ZM37.9919 153.904H40.9919V143.05H37.9919H34.9919V153.904H37.9919ZM37.9919 143.05V140.05H31.3499V143.05V146.05H37.9919V143.05ZM31.3499 143.05H28.3499V153.904H31.3499H34.3499V143.05H31.3499ZM42.6899 152.878L40.0921 151.378L36.4741 157.642L39.0719 159.142L41.6697 160.643L45.2877 154.379L42.6899 152.878ZM39.0719 159.142V156.142H30.2699V159.142V162.142H39.0719V159.142ZM30.2699 159.142L32.8677 157.642L29.2497 151.378L26.6519 152.878L24.0541 154.379L27.6721 160.643L30.2699 159.142ZM26.6519 152.878H29.6519V143.05H26.6519H23.6519V152.878H26.6519ZM26.6519 143.05V140.05H20.1179V143.05V146.05H26.6519V143.05ZM20.1179 143.05H17.1179V156.442H20.1179H23.1179V143.05H20.1179ZM20.1179 156.442V153.442H15.4199V156.442L15.4199 159.442H20.1179L20.1179 156.442ZM15.4199 156.442H18.4199V144.076H15.4199H12.4199V156.442H15.4199ZM15.4199 144.076L18.0177 145.577L21.6357 139.313L19.0379 137.812L16.4401 136.312L12.8221 142.576L15.4199 144.076ZM19.0379 137.812L19.0379 140.812H42.6899V137.812V134.812H19.0379V137.812ZM42.6899 137.812H39.6899V139.216H42.6899H45.6899V137.812H42.6899ZM42.6899 139.216L40.092 137.716L37.878 141.55L40.4759 143.05L43.0739 144.55L45.2879 140.716L42.6899 139.216ZM40.4759 143.05L37.878 144.55L40.092 148.384L42.6899 146.884L45.2879 145.384L43.0739 141.55L40.4759 143.05ZM42.6899 146.884H39.6899V152.878H42.6899H45.6899V146.884H42.6899ZM20.1179 123.926H17.1179V126.926H20.1179V123.926ZM37.7219 123.926V126.926H40.7219V123.926H37.7219ZM37.7219 108.914V105.914H34.7219V108.914H37.7219ZM42.4199 108.914H45.4199V105.914H42.4199V108.914ZM42.4199 122.9L45.0177 124.4L45.4199 123.704V122.9H42.4199ZM38.8019 129.164L38.8019 132.164H40.5336L41.3997 130.664L38.8019 129.164ZM19.0379 129.164L16.4401 130.664L17.3062 132.164H19.0379V129.164ZM15.4199 122.9H12.4199V123.704L12.8221 124.4L15.4199 122.9ZM15.4199 108.914V105.914H12.4199V108.914H15.4199ZM20.1179 108.914H23.1179V105.914H20.1179V108.914ZM20.1179 123.926V126.926H37.7219V123.926V120.926H20.1179L20.1179 123.926ZM37.7219 123.926H40.7219V108.914H37.7219H34.7219V123.926H37.7219ZM37.7219 108.914V111.914H42.4199V108.914V105.914H37.7219V108.914ZM42.4199 108.914H39.4199V122.9H42.4199H45.4199V108.914H42.4199ZM42.4199 122.9L39.8221 121.399L36.2041 127.663L38.8019 129.164L41.3997 130.664L45.0177 124.4L42.4199 122.9ZM38.8019 129.164V126.164H19.0379V129.164V132.164H38.8019L38.8019 129.164ZM19.0379 129.164L21.6357 127.663L18.0177 121.399L15.4199 122.9L12.8221 124.4L16.4401 130.664L19.0379 129.164ZM15.4199 122.9H18.4199L18.4199 108.914H15.4199H12.4199L12.4199 122.9H15.4199ZM15.4199 108.914V111.914H20.1179V108.914V105.914H15.4199V108.914ZM20.1179 108.914H17.1179L17.1179 123.926H20.1179H23.1179L23.1179 108.914H20.1179ZM15.4199 96.1348V93.1348H12.4199V96.1348H15.4199ZM42.4199 96.1348H45.4199L45.4199 93.1348H42.4199L42.4199 96.1348ZM42.4199 101.373V104.373H45.4199V101.373H42.4199ZM15.4199 101.373H12.4199L12.4199 104.373H15.4199L15.4199 101.373ZM8.77792 101.643L8.77792 104.643H11.7779L11.7779 101.643H8.77792ZM2.99992 101.643H-8.01086e-05V104.643H2.99992V101.643ZM2.99992 95.8648V92.8648H-8.01086e-05V95.8648H2.99992ZM8.77792 95.8648H11.7779V92.8648H8.77792V95.8648ZM15.4199 96.1348V99.1348H42.4199V96.1348L42.4199 93.1348H15.4199V96.1348ZM42.4199 96.1348H39.4199V101.373H42.4199H45.4199V96.1348H42.4199ZM42.4199 101.373V98.3728H15.4199V101.373L15.4199 104.373H42.4199V101.373ZM15.4199 101.373H18.4199V96.1348H15.4199H12.4199V101.373H15.4199ZM8.77792 101.643V98.6428H2.99992V101.643V104.643H8.77792L8.77792 101.643ZM2.99992 101.643H5.99992L5.99992 95.8648H2.99992H-8.01086e-05L-8.01086e-05 101.643H2.99992ZM2.99992 95.8648L2.99992 98.8648H8.77792V95.8648V92.8648H2.99992V95.8648ZM8.77792 95.8648H5.77792L5.77792 101.643H8.77792H11.7779V95.8648H8.77792ZM15.1499 81.2397H12.1499V82.0438L12.5521 82.7401L15.1499 81.2397ZM15.1499 73.0857L12.552 71.5854L12.1499 72.2817V73.0857H15.1499ZM17.3639 69.2517L19.9619 70.7519L22.5606 66.2517H17.3639V69.2517ZM2.99992 69.2517H-8.01086e-05L-8.01086e-05 72.2517H2.99992L2.99992 69.2517ZM2.99992 64.0137L2.99992 61.0137H-8.01086e-05L-8.01086e-05 64.0137H2.99992ZM42.6899 64.0137H45.6899V61.0137H42.6899V64.0137ZM42.6899 67.9557L44.2055 70.5447L45.6899 69.6758V67.9557H42.6899ZM40.4759 69.2517L38.9604 66.6626L36.3866 68.1692L37.878 70.7519L40.4759 69.2517ZM42.6899 73.0857H45.6899V72.2817L45.2879 71.5854L42.6899 73.0857ZM42.6899 81.2397L45.2877 82.7401L45.6899 82.0438V81.2397H42.6899ZM39.0719 87.5037V90.5037H40.8036L41.6697 89.0041L39.0719 87.5037ZM18.7679 87.5037L16.1701 89.0041L17.0362 90.5037H18.7679V87.5037ZM37.9919 69.2517H40.9919V66.2517H37.9919V69.2517ZM19.8479 69.2517V66.2517H16.8479V69.2517H19.8479ZM19.8479 82.2657H16.8479L16.8479 85.2657H19.8479L19.8479 82.2657ZM37.9919 82.2657V85.2657H40.9919V82.2657H37.9919ZM15.1499 81.2397H18.1499V73.0857H15.1499H12.1499V81.2397H15.1499ZM15.1499 73.0857L17.7479 74.5859L19.9619 70.7519L17.3639 69.2517L14.766 67.7514L12.552 71.5854L15.1499 73.0857ZM17.3639 69.2517V66.2517H2.99992V69.2517L2.99992 72.2517H17.3639V69.2517ZM2.99992 69.2517H5.99992V64.0137H2.99992H-8.01086e-05V69.2517H2.99992ZM2.99992 64.0137V67.0137H42.6899V64.0137V61.0137H2.99992L2.99992 64.0137ZM42.6899 64.0137H39.6899V67.9557H42.6899H45.6899V64.0137H42.6899ZM42.6899 67.9557L41.1744 65.3666L38.9604 66.6626L40.4759 69.2517L41.9915 71.8407L44.2055 70.5447L42.6899 67.9557ZM40.4759 69.2517L37.878 70.7519L40.092 74.5859L42.6899 73.0857L45.2879 71.5854L43.0739 67.7514L40.4759 69.2517ZM42.6899 73.0857H39.6899V81.2397H42.6899H45.6899V73.0857H42.6899ZM42.6899 81.2397L40.0921 79.7392L36.4741 86.0032L39.0719 87.5037L41.6697 89.0041L45.2877 82.7401L42.6899 81.2397ZM39.0719 87.5037V84.5037H18.7679V87.5037V90.5037H39.0719V87.5037ZM18.7679 87.5037L21.3657 86.0032L17.7477 79.7392L15.1499 81.2397L12.5521 82.7401L16.1701 89.0041L18.7679 87.5037ZM37.9919 69.2517V66.2517H19.8479V69.2517V72.2517H37.9919V69.2517ZM19.8479 69.2517H16.8479V82.2657H19.8479H22.8479V69.2517H19.8479ZM19.8479 82.2657L19.8479 85.2657H37.9919V82.2657V79.2657H19.8479V82.2657ZM37.9919 82.2657H40.9919V69.2517H37.9919H34.9919V82.2657H37.9919ZM31.3499 51.2304H28.3499V54.2304H31.3499V51.2304ZM37.9919 51.2304V54.2304H40.9919V51.2304H37.9919ZM37.9919 40.3764H40.9919V37.3764H37.9919V40.3764ZM31.3499 40.3764V37.3764H28.3499V40.3764H31.3499ZM42.6899 50.2044L45.2877 51.7049L45.6899 51.0086V50.2044H42.6899ZM39.0719 56.4684L39.0719 59.4684H40.8036L41.6697 57.9689L39.0719 56.4684ZM30.2699 56.4684L27.6721 57.9689L28.5382 59.4684H30.2699L30.2699 56.4684ZM26.6519 50.2044H23.6519V51.0086L24.0541 51.7049L26.6519 50.2044ZM26.6519 40.3764H29.6519V37.3764H26.6519V40.3764ZM20.1179 40.3764V37.3764H17.1179V40.3764H20.1179ZM20.1179 53.7684V56.7684H23.1179V53.7684H20.1179ZM15.4199 53.7684H12.4199V56.7684H15.4199V53.7684ZM15.4199 41.4024L12.8221 39.902L12.4199 40.5983V41.4024H15.4199ZM19.0379 35.1384V32.1384H17.3062L16.4401 33.638L19.0379 35.1384ZM42.6899 35.1384H45.6899V32.1384H42.6899V35.1384ZM42.6899 36.5424L45.2879 38.0427L45.6899 37.3464V36.5424H42.6899ZM40.4759 40.3764L37.878 38.8762L37.0117 40.3764L37.878 41.8767L40.4759 40.3764ZM42.6899 44.2104H45.6899V43.4064L45.2879 42.7102L42.6899 44.2104ZM31.3499 51.2304V54.2304H37.9919V51.2304V48.2304H31.3499V51.2304ZM37.9919 51.2304H40.9919V40.3764H37.9919H34.9919V51.2304H37.9919ZM37.9919 40.3764V37.3764H31.3499V40.3764V43.3764H37.9919V40.3764ZM31.3499 40.3764H28.3499V51.2304H31.3499H34.3499V40.3764H31.3499ZM42.6899 50.2044L40.0921 48.704L36.4741 54.968L39.0719 56.4684L41.6697 57.9689L45.2877 51.7049L42.6899 50.2044ZM39.0719 56.4684V53.4684H30.2699V56.4684L30.2699 59.4684H39.0719L39.0719 56.4684ZM30.2699 56.4684L32.8677 54.968L29.2497 48.704L26.6519 50.2044L24.0541 51.7049L27.6721 57.9689L30.2699 56.4684ZM26.6519 50.2044H29.6519V40.3764H26.6519H23.6519V50.2044H26.6519ZM26.6519 40.3764V37.3764H20.1179V40.3764V43.3764H26.6519V40.3764ZM20.1179 40.3764H17.1179L17.1179 53.7684H20.1179H23.1179L23.1179 40.3764H20.1179ZM20.1179 53.7684V50.7684H15.4199V53.7684V56.7684H20.1179V53.7684ZM15.4199 53.7684H18.4199L18.4199 41.4024H15.4199H12.4199L12.4199 53.7684H15.4199ZM15.4199 41.4024L18.0177 42.9029L21.6357 36.6389L19.0379 35.1384L16.4401 33.638L12.8221 39.902L15.4199 41.4024ZM19.0379 35.1384V38.1384H42.6899V35.1384V32.1384H19.0379V35.1384ZM42.6899 35.1384H39.6899V36.5424H42.6899H45.6899V35.1384H42.6899ZM42.6899 36.5424L40.092 35.0422L37.878 38.8762L40.4759 40.3764L43.0739 41.8767L45.2879 38.0427L42.6899 36.5424ZM40.4759 40.3764L37.878 41.8767L40.092 45.7107L42.6899 44.2104L45.2879 42.7102L43.0739 38.8762L40.4759 40.3764ZM42.6899 44.2104H39.6899V50.2044H42.6899H45.6899V44.2104H42.6899ZM15.1499 20.226H12.1499V21.0301L12.5521 21.7265L15.1499 20.226ZM15.1499 12.072L12.552 10.5718L12.1499 11.268V12.072H15.1499ZM17.3639 8.23799L19.9619 9.73822L22.5606 5.23799H17.3639V8.23799ZM2.99992 8.23799H-8.01086e-05V11.238H2.99992V8.23799ZM2.99992 3V0H-8.01086e-05V3H2.99992ZM42.6899 3H45.6899V0H42.6899V3ZM42.6899 6.942L44.2055 9.53104L45.6899 8.66208V6.942H42.6899ZM40.4759 8.23799L38.9604 5.64896L36.3866 7.15556L37.878 9.73822L40.4759 8.23799ZM42.6899 12.072H45.6899V11.268L45.2879 10.5718L42.6899 12.072ZM42.6899 20.226L45.2877 21.7265L45.6899 21.0301V20.226H42.6899ZM39.0719 26.49V29.49H40.8036L41.6697 27.9905L39.0719 26.49ZM18.7679 26.49L16.1701 27.9905L17.0362 29.49H18.7679L18.7679 26.49ZM37.9919 8.23799H40.9919V5.23799H37.9919V8.23799ZM19.8479 8.23799V5.23799H16.8479V8.23799H19.8479ZM19.8479 21.252H16.8479V24.252H19.8479V21.252ZM37.9919 21.252V24.252H40.9919V21.252H37.9919ZM15.1499 20.226H18.1499V12.072H15.1499H12.1499V20.226H15.1499ZM15.1499 12.072L17.7479 13.5722L19.9619 9.73822L17.3639 8.23799L14.766 6.73778L12.552 10.5718L15.1499 12.072ZM17.3639 8.23799V5.23799H2.99992L2.99992 8.23799V11.238H17.3639L17.3639 8.23799ZM2.99992 8.23799H5.99992L5.99992 3H2.99992H-8.01086e-05L-8.01086e-05 8.23799H2.99992ZM2.99992 3L2.99992 6H42.6899V3V0H2.99992V3ZM42.6899 3H39.6899V6.942H42.6899H45.6899V3H42.6899ZM42.6899 6.942L41.1744 4.35295L38.9604 5.64896L40.4759 8.23799L41.9915 10.827L44.2055 9.53104L42.6899 6.942ZM40.4759 8.23799L37.878 9.73822L40.092 13.5722L42.6899 12.072L45.2879 10.5718L43.0739 6.73778L40.4759 8.23799ZM42.6899 12.072H39.6899L39.6899 20.226H42.6899H45.6899L45.6899 12.072H42.6899ZM42.6899 20.226L40.0921 18.7255L36.4741 24.9895L39.0719 26.49L41.6697 27.9905L45.2877 21.7265L42.6899 20.226ZM39.0719 26.49V23.49H18.7679V26.49L18.7679 29.49H39.0719V26.49ZM18.7679 26.49L21.3657 24.9895L17.7477 18.7255L15.1499 20.226L12.5521 21.7265L16.1701 27.9905L18.7679 26.49ZM37.9919 8.23799V5.23799H19.8479V8.23799L19.8479 11.238H37.9919V8.23799ZM19.8479 8.23799H16.8479L16.8479 21.252H19.8479H22.8479L22.8479 8.23799H19.8479ZM19.8479 21.252V24.252H37.9919V21.252L37.9919 18.252H19.8479V21.252ZM37.9919 21.252H40.9919L40.9919 8.23799H37.9919H34.9919L34.9919 21.252H37.9919Z" fill="#B5E93B" mask="url(#path-1-outside-1_62121_3759)"/>
</svg>
