<svg width="119" height="22" viewBox="0 0 119 22" fill="none" xmlns="http://www.w3.org/2000/svg">
<path d="M1.26 8.81988V5.06788L2.884 4.12988H6.146L7.77 5.06788V6.50988H6.37V5.38988H2.66V8.35788H6.146L7.77 9.29588V13.1319L6.146 14.0699H2.744L1.12 13.1319V11.6899H2.52V12.8099H6.37V9.75788H2.884L1.26 8.81988ZM11.5014 13.9999H10.1434V3.77988H11.5014V7.50388L12.4954 6.92988H14.6094L16.2334 7.86788V13.9999H14.8754V8.14788H11.5014V13.9999ZM24.4196 13.1319L22.7956 14.0699H20.0936L18.4696 13.1319V7.86788L20.0936 6.92988H22.7956L24.4196 7.86788V13.1319ZM19.8276 8.14788V12.8519H23.0616V8.14788H19.8276ZM32.3571 13.9999L30.8451 8.65188H30.8171L29.3191 13.9999H27.7091L25.9591 6.99988H27.2191L28.5491 12.4739H28.5771L30.1171 6.99988H31.5591L33.0991 12.4739H33.1271L34.4571 6.99988H35.7171L33.9671 13.9999H32.3571ZM50.3135 7.86788V13.9999H48.9555V8.14788H46.2815V13.9999H44.9235V8.14788H42.2495V13.9999H40.8915V6.92988H41.9135L42.2495 7.50388L43.2435 6.92988H44.6575L45.9595 7.68588L47.2755 6.92988H48.6895L50.3135 7.86788ZM58.0836 12.7819V13.9999H54.1776L52.5536 13.0619V7.86788L54.1776 6.92988H56.4596L58.0836 7.86788V10.9759H53.9116V12.7819H58.0836ZM53.9116 8.14788V9.75788H56.7256V8.14788H53.9116ZM73.3779 7.86788V13.9999H72.0199V8.14788H69.3459V13.9999H67.9879V8.14788H65.3139V13.9999H63.9559V6.92988H64.9779L65.3139 7.50388L66.3079 6.92988H67.7219L69.0239 7.68588L70.3399 6.92988H71.7539L73.3779 7.86788ZM81.568 13.1319L79.944 14.0699H77.242L75.618 13.1319V7.86788L77.242 6.92988H79.944L81.568 7.86788V13.1319ZM76.976 8.14788V12.8519H80.21V8.14788H76.976ZM87.7135 8.21788H85.1655V13.9999H83.8075V6.99988H84.8295L85.1655 7.57388L86.1595 6.99988H87.7135V8.21788ZM94.7789 12.7819V13.9999H90.8729L89.2489 13.0619V7.86788L90.8729 6.92988H93.1549L94.7789 7.86788V10.9759H90.6069V12.7819H94.7789ZM90.6069 8.14788V9.75788H93.4209V8.14788H90.6069Z" fill="#B5E93B"/>
<path d="M0 15.3999H95.8989V16.0999H0V15.3999Z" fill="#B5E93B"/>
<path d="M100.66 6.82854L114.832 6.81183L108.492 18.6392L100.66 6.82854Z" fill="#B5E93B"/>
</svg>
