<svg width="20" height="13" viewBox="0 0 20 13" fill="none" xmlns="http://www.w3.org/2000/svg">
<path d="M0 12.7969V0H3.31348C3.90527 0 4.45898 0.0732422 4.97461 0.219727C5.49023 0.360352 5.95898 0.5625 6.38086 0.826172C6.75 1.04297 7.07812 1.30957 7.36523 1.62598C7.6582 1.93652 7.91309 2.27637 8.12988 2.64551C8.38184 3.09668 8.5752 3.59473 8.70996 4.13965C8.85059 4.68457 8.9209 5.26465 8.9209 5.87988V6.93457C8.9209 7.52637 8.85645 8.08594 8.72754 8.61328C8.59863 9.14062 8.41699 9.62402 8.18262 10.0635C7.95996 10.4561 7.69922 10.8193 7.40039 11.1533C7.10156 11.4814 6.77344 11.7568 6.41602 11.9795C6 12.2432 5.54004 12.4453 5.03613 12.5859C4.53809 12.7266 4.00488 12.7969 3.43652 12.7969H0ZM2.4873 2.00391V10.8105H3.43652C3.74121 10.8105 4.02539 10.7725 4.28906 10.6963C4.55273 10.6201 4.79297 10.5088 5.00977 10.3623C5.23242 10.21 5.43164 10.0166 5.60742 9.78223C5.78906 9.54199 5.94434 9.26367 6.07324 8.94727C6.17871 8.67188 6.25781 8.36719 6.31055 8.0332C6.36914 7.69336 6.39844 7.32715 6.39844 6.93457V5.8623C6.39844 5.49316 6.36914 5.14453 6.31055 4.81641C6.25781 4.48242 6.17871 4.17773 6.07324 3.90234C5.94434 3.57422 5.77441 3.28125 5.56348 3.02344C5.3584 2.76562 5.11816 2.55469 4.84277 2.39062C4.63184 2.26758 4.39746 2.17383 4.13965 2.10938C3.8877 2.03906 3.6123 2.00391 3.31348 2.00391H2.4873ZM18.7383 7.18945H13.4824V10.8018H19.626V12.7969H11.0039V0H19.5996V2.0127H13.4824V5.23828H18.7383V7.18945Z" fill="#FFFDFD"/>
</svg>
