<svg width="20" height="13" viewBox="0 0 20 13" fill="none" xmlns="http://www.w3.org/2000/svg">
<path d="M7.73438 7.18945H2.47852V10.8018H8.62207V12.7969H0V0H8.5957V2.0127H2.47852V5.23828H7.73438V7.18945Z" fill="#FFFDFD"/>
<path d="M 16.52 12.48 L 15.20 12.48 L 13.89 12.48 L 12.57 12.48 L 11.92 11.84 L 10.93 11.52 L 10.93 10.24 L 11.92 9.92 L 13.23 9.92 L 13.89 10.56 L 15.20 10.56 L 15.86 9.92 L 16.19 8.96 L 15.86 8.00 L 14.88 7.68 L 13.89 7.36 L 13.23 6.72 L 12.57 6.08 L 11.92 5.44 L 11.59 4.48 L 10.93 3.84 L 11.26 2.88 L 11.59 1.92 L 12.24 1.28 L 13.23 0.96 L 13.89 0.32 L 15.20 0.32 L 16.52 0.32 L 17.51 0.64 L 18.49 0.96 L 18.82 1.92 L 18.16 2.56 L 17.18 2.88 L 16.19 2.56 L 15.20 2.24 L 14.22 2.56 L 13.56 3.20 L 13.89 4.16 L 14.55 4.80 L 15.53 5.12 L 16.52 5.44 L 17.18 6.08 L 17.83 6.72 L 18.49 7.36 L 18.82 8.32 L 18.82 9.60 L 18.49 10.56 L 17.83 11.20 L 17.18 11.84 L 16.52 12.48 Z" fill="#FFFDFD"/>
</svg>
