<svg width="20" height="14" viewBox="0 0 20 14" fill="none" xmlns="http://www.w3.org/2000/svg">
<path d="M7.73438 7.36523H2.47852V10.9775H8.62207V12.9727H0V0.175781H8.5957V2.18848H2.47852V5.41406H7.73438V7.36523ZM17.3145 9.63281C17.3145 9.4043 17.2734 9.19043 17.1914 8.99121C17.1152 8.79199 16.9834 8.60449 16.7959 8.42871C16.6025 8.25879 16.3506 8.10352 16.04 7.96289C15.7354 7.81641 15.3545 7.68164 14.8975 7.55859C14.1885 7.36523 13.5645 7.13086 13.0254 6.85547C12.4922 6.58008 12.0557 6.27832 11.7158 5.9502C11.376 5.62207 11.1182 5.25879 10.9424 4.86035C10.7725 4.46191 10.6875 4.02832 10.6875 3.55957C10.6875 3.02051 10.8018 2.53125 11.0303 2.0918C11.2588 1.65234 11.5752 1.27734 11.9795 0.966797C12.3838 0.65625 12.8613 0.418945 13.4121 0.254883C13.9629 0.0849609 14.5605 0 15.2051 0C15.873 0 16.4824 0.0966797 17.0332 0.290039C17.5898 0.483398 18.0674 0.75293 18.4658 1.09863C18.8643 1.4502 19.1748 1.86621 19.3975 2.34668C19.6201 2.82715 19.7314 3.35449 19.7314 3.92871H17.3232C17.3115 3.6416 17.2588 3.37793 17.165 3.1377C17.0771 2.89746 16.9453 2.68945 16.7695 2.51367C16.5879 2.34375 16.3623 2.21191 16.0928 2.11816C15.8291 2.01855 15.5186 1.96875 15.1611 1.96875C14.833 1.96875 14.54 2.00977 14.2822 2.0918C14.0303 2.16797 13.8164 2.27637 13.6406 2.41699C13.4648 2.56348 13.3301 2.73633 13.2363 2.93555C13.1484 3.12891 13.1045 3.33984 13.1045 3.56836C13.1045 3.80859 13.1631 4.02539 13.2803 4.21875C13.4033 4.41211 13.5791 4.58496 13.8076 4.7373C14.0361 4.89551 14.3115 5.03906 14.6338 5.16797C14.9619 5.29688 15.3311 5.41699 15.7412 5.52832C16.1807 5.65137 16.5996 5.80078 16.998 5.97656C17.3965 6.15234 17.7627 6.35449 18.0967 6.58301C18.6006 6.95801 19.002 7.39453 19.3008 7.89258C19.5996 8.39062 19.749 8.96484 19.749 9.61523C19.749 10.1777 19.6348 10.6787 19.4062 11.1182C19.1836 11.5518 18.873 11.918 18.4746 12.2168C18.0762 12.5215 17.6016 12.7529 17.0508 12.9111C16.5 13.0635 15.8994 13.1396 15.249 13.1396C14.6104 13.1396 13.9775 13.0459 13.3506 12.8584C12.7295 12.665 12.1875 12.3838 11.7246 12.0146C11.2852 11.6514 10.9365 11.2236 10.6787 10.7314C10.4268 10.2393 10.3008 9.66211 10.3008 9H12.7266C12.7383 9.38672 12.8057 9.71777 12.9287 9.99316C13.0518 10.2686 13.2246 10.4941 13.4473 10.6699C13.6641 10.8457 13.9248 10.9746 14.2295 11.0566C14.54 11.1387 14.8799 11.1797 15.249 11.1797C15.5771 11.1797 15.8672 11.1416 16.1191 11.0654C16.377 10.9893 16.5938 10.8838 16.7695 10.749C16.9453 10.6143 17.0801 10.4531 17.1738 10.2656C17.2676 10.0723 17.3145 9.86133 17.3145 9.63281Z" fill="#B5E93B"/>
</svg>
