<svg width="237" height="900" viewBox="0 0 237 900" fill="none" xmlns="http://www.w3.org/2000/svg">
<rect width="172" height="900" fill="#B5E93B"/>
<rect width="172" height="900" fill="#B5E93B"/>
<path d="M78 292.972L99 298.372V301.942L82.17 306.382V306.442L99 310.882V314.452L78 319.852V316.942L95.16 312.682V312.622L78 308.092V304.732L95.16 300.232V300.172L78 295.882V292.972ZM99 286.76V289.67H77.1V286.76H85.08L83.85 284.63V280.1L85.86 276.62H99V279.53H86.46V286.76H99ZM105 270.449L98.31 267.839L84 273.629V270.719L94.68 266.459V266.399L84 262.169V259.259L105 267.599V270.449ZM85.86 228.289H99V231.199H86.46V236.929H99V239.839H86.46V245.569H99V248.479H83.85V246.289L85.08 245.569L83.85 243.439V240.409L85.47 237.619L83.85 234.799V231.769L85.86 228.289ZM96.39 211.639H99V220.009L96.99 223.489H85.86L83.85 220.009V215.119L85.86 211.639H92.52V220.579H96.39V211.639ZM86.46 220.579H89.91V214.549H86.46V220.579Z" fill="#4A4A4A"/>
<path d="M87.9 439.353H79.86L77.85 435.873V428.883L79.86 425.403H82.95V428.403H80.55V436.353H86.91V428.883L88.92 425.403H97.14L99.15 428.883V436.173L97.14 439.653H94.05V436.653H96.45V428.403H89.91V435.873L87.9 439.353ZM77.1 417.407H91.47V417.347L84 411.167V407.687L90.78 413.477L99 406.787V410.357L92.85 415.217L95.43 417.407H99V420.317H77.1V417.407ZM84 401.469H99V404.379H84V401.469ZM80.31 404.529H77.1V401.319H80.31V404.529ZM99 393.194L96.99 396.674H77.1V393.764H96.39V390.164H99V393.194ZM99 383.673L96.99 387.153H77.1V384.243H96.39V380.643H99V383.673ZM92.1 366.351H96.99L99 369.831V377.631H96.39V369.261H92.7V374.151L90.69 377.631H86.01L84 374.151V366.651H86.61V374.721H90.09V369.831L92.1 366.351Z" fill="#4A4A4A"/>
<path d="M99 593.86H81.9V593.92L99 600.1V603.1L81.9 609.25V609.31H99V612.16H78V607.93L95.52 601.63V601.57L78 595.24V591.01H99V593.86ZM105 584.537L98.31 581.927L84 587.717V584.807L94.68 580.547V580.487L84 576.257V573.347L105 581.687V584.537ZM78 537.188L99 542.588V546.158L82.17 550.598V550.658L99 555.098V558.668L78 564.068V561.158L95.16 556.898V556.838L78 552.308V548.948L95.16 544.448V544.388L78 540.098V537.188ZM97.14 521.136L99.15 524.616V530.406L97.14 533.886H85.86L83.85 530.406V524.616L85.86 521.136H97.14ZM86.46 530.976H96.54V524.046H86.46V530.976ZM86.61 507.967V513.427H99V516.337H84V514.147L85.23 513.427L84 511.297V507.967H86.61ZM77.1 501.767H91.47V501.707L84 495.527L84 492.047L90.78 497.837L99 491.147V494.717L92.85 499.577L95.43 501.767H99V504.677H77.1V501.767Z" fill="#4A4A4A"/>
<path d="M93.75 750.497V747.497H97.14L99.15 750.977V758.867L97.14 762.347H79.86L77.85 758.867V750.977L79.86 747.497H83.25V750.497H80.55V759.347H96.45V750.497H93.75ZM97.14 729.946L99.15 733.426V739.216L97.14 742.696H85.86L83.85 739.216V733.426L85.86 729.946H97.14ZM86.46 739.786H96.54V732.856H86.46V739.786ZM85.86 712.397H99V715.307H86.46V722.237H99V725.147H83.85V722.957L85.08 722.237L83.85 720.107V715.877L85.86 712.397ZM86.61 708.798H84V706.038H81.48L79.8 703.128H84V699.528H86.61V703.128H96.39V699.528H99V702.558L96.99 706.038H86.61V708.798ZM92.85 693.013H96.54V686.983H92.85V693.013ZM99.15 692.443L97.14 695.923H92.25L90.24 692.443V686.983H86.61V694.423H84V687.553L86.01 684.073H99.15V684.853L97.92 686.983L99.15 689.113V692.443ZM86.61 676.358H96.39V668.018H99V675.788L96.99 679.268H86.01L84 675.788V668.018H86.61V676.358ZM86.61 665.029H84V662.269H81.48L79.8 659.359H84V655.759H86.61V659.359H96.39V655.759H99V658.789L96.99 662.269H86.61V665.029Z" fill="#4A4A4A"/>
<path d="M36.593 95.303L35.0312 95.1883L35.1525 93.5368L32.2264 93.3219L31.1765 91.1512L31.3097 89.3381L32.8715 89.4528L32.7133 91.607L35.2804 91.7954L35.4385 89.6412L37.0003 89.7559L36.8422 91.9101L44.2562 92.4545L44.1283 94.1958L36.7143 93.6514L36.593 95.303Z" fill="#4A4A4A"/>
<path d="M38.3812 82.547L37.7184 85.7552L44.9986 87.2595L44.6453 88.9693L35.8315 87.1482L36.0973 85.8614L36.9075 85.5877L36.4433 84.1868L36.8476 82.2301L38.3812 82.547Z" fill="#4A4A4A"/>
<path d="M47.6152 75.5217L47.975 77.906L46.706 81.1399L44.8205 82.643L38.5203 80.1706L38.1604 77.7863L39.4295 74.5524L41.3149 73.0493L47.6152 75.5217ZM39.4933 78.6768L45.1233 80.8861L46.6422 77.0155L41.0122 74.8061L39.4933 78.6768Z" fill="#4A4A4A"/>
<path d="M47.0645 63.4676L53.6692 67.7729L52.7158 69.2356L46.4126 65.1269L44.1421 68.6103L50.4452 72.7189L49.4918 74.1816L41.8767 69.2178L42.5943 68.117L43.4484 68.1581L43.528 66.6845L44.914 64.5583L47.0645 63.4676Z" fill="#4A4A4A"/>
<path d="M49.3387 61.3313L48.1997 60.2566L49.3361 59.0521L48.2364 58.0145L48.7014 56.0528L50.5343 57.7822L52.0167 56.2111L53.1557 57.2857L51.6734 58.8568L55.9415 62.8838L57.4238 61.3127L58.5629 62.3874L57.3153 63.7097L55.0052 64.4008L50.4752 60.1268L49.3387 61.3313Z" fill="#4A4A4A"/>
<path d="M64.8243 55.3228L65.7685 56.5722L61.7619 59.6L59.369 59.8967L55.3427 54.5689L56.2814 52.3479L58.6222 50.579L61.0152 50.2823L63.4244 53.4703L59.1449 56.7043L60.5449 58.5568L64.8243 55.3228ZM56.9528 53.8035L58.2008 55.4549L61.0872 53.2736L59.8392 51.6221L56.9528 53.8035Z" fill="#4A4A4A"/>
<path d="M70.529 45.2471L73.9744 52.3384L72.4039 53.1014L69.1159 46.3339L65.3759 48.151L68.664 54.9185L67.0935 55.6815L63.1211 47.5054L64.303 46.9312L65.0141 47.4062L65.8411 46.1839L68.1239 45.0748L70.529 45.2471Z" fill="#4A4A4A"/>
<path d="M75.7188 42.2286L78.3552 41.5676L79.7743 41.9727L78.6099 37.3284L80.3035 36.9038L83.5209 49.7366L82.2463 50.0562L81.6478 49.4454L80.5876 50.472L77.9512 51.133L75.6326 50.471L73.9867 43.9062L75.7188 42.2286ZM81.4464 48.6423L79.9756 42.7758L75.7679 43.8308L77.2387 49.6972L81.4464 48.6423Z" fill="#4A4A4A"/>
<path d="M98.087 40.3488L100.774 40.7555L101.928 41.6764L102.644 36.9423L104.37 37.2035L102.391 50.2846L101.092 50.088L100.775 49.2937L99.4009 49.8322L96.7135 49.4255L94.8294 47.9207L95.8421 41.2288L98.087 40.3488ZM100.899 48.475L101.804 42.4951L97.5145 41.846L96.6096 47.8259L100.899 48.475Z" fill="#4A4A4A"/>
<path d="M111.567 51.6454L111.034 53.1177L106.312 51.4065L104.76 49.5612L107.036 43.2828L109.41 42.8605L112.168 43.8602L113.72 45.7055L112.359 49.4623L107.316 47.6346L106.524 49.8177L111.567 51.6454ZM108.555 44.2162L107.849 46.1623L111.251 47.3951L111.956 45.449L108.555 44.2162Z" fill="#4A4A4A"/>
<path d="M117.622 46.3578L116.165 54.0267L116.196 54.045L122.225 49.0769L123.698 49.9466L116.253 56.0018L114.44 54.9306L116.15 45.488L117.622 46.3578Z" fill="#4A4A4A"/>
<path d="M126.487 61.9551L125.454 63.1324L121.678 59.821L120.904 57.5376L125.307 52.5169L127.672 52.987L129.878 54.9216L130.653 57.2051L128.018 60.2093L123.985 56.6725L122.454 58.4182L126.487 61.9551ZM126.382 53.9389L125.018 55.4951L127.738 57.8807L129.103 56.3245L126.382 53.9389Z" fill="#4A4A4A"/>
<path d="M128.15 66.2865L127.723 63.9133L136.837 56.2089L137.964 57.5423L129.125 65.0143L130.52 66.6638L129.324 67.6748L128.15 66.2865Z" fill="#4A4A4A"/>
<path d="M135.131 74.6766L133.022 73.5078L131.233 70.5298L131.191 68.1189L136.993 64.6337L139.102 65.8026L140.891 68.7806L140.932 71.1915L135.131 74.6766ZM137.583 66.3158L132.399 69.4302L134.54 72.9945L139.725 69.8801L137.583 66.3158Z" fill="#4A4A4A"/>
<path d="M136.888 82.4952L135.991 79.9296L136.265 78.4796L132.255 79.8819L131.679 78.2338L143.658 74.0447L144.091 75.285L143.537 75.9364L144.656 76.8992L145.553 79.4648L145.104 81.8339L138.715 84.068L136.888 82.4952ZM142.756 76.2098L137.047 78.2063L138.479 82.3011L144.188 80.3046L142.756 76.2098Z" fill="#4A4A4A"/>
<path d="M140.662 93.2557L139.111 93.4722L138.417 88.4984L139.323 86.2637L145.937 85.3406L147.42 87.2419L147.825 90.1477L146.92 92.3823L142.962 92.9347L142.22 87.6222L139.921 87.9432L140.662 93.2557ZM145.821 87.1196L143.771 87.4057L144.271 90.989L146.322 90.7029L145.821 87.1196Z" fill="#4A4A4A"/>
<mask id="path-22-outside-1_3113_1942" maskUnits="userSpaceOnUse" x="61" y="68" width="39" height="37" fill="black">
<rect fill="white" x="61" y="68" width="39" height="37"/>
<path d="M91.004 103V81.748H90.912L83.644 103H77.526L70.212 81.472H70.12V103H63.91V70.8H72.466L80.562 94.49H80.654L88.704 70.8H97.214V103H91.004Z"/>
</mask>
<path d="M91.004 103H89.004V105H91.004V103ZM91.004 81.748H93.004V79.748H91.004V81.748ZM90.912 81.748V79.748H89.4823L89.0196 81.1008L90.912 81.748ZM83.644 103V105H85.0737L85.5364 103.647L83.644 103ZM77.526 103L75.6323 103.643L76.0932 105H77.526V103ZM70.212 81.472L72.1057 80.8286L71.6448 79.472H70.212V81.472ZM70.12 81.472V79.472H68.12V81.472H70.12ZM70.12 103V105H72.12V103H70.12ZM63.91 103H61.91V105H63.91V103ZM63.91 70.8V68.8H61.91V70.8H63.91ZM72.466 70.8L74.3585 70.1532L73.8961 68.8H72.466V70.8ZM80.562 94.49L78.6695 95.1368L79.1319 96.49H80.562V94.49ZM80.654 94.49V96.49H82.0867L82.5477 95.1335L80.654 94.49ZM88.704 70.8V68.8H87.2713L86.8103 70.1565L88.704 70.8ZM97.214 70.8H99.214V68.8H97.214V70.8ZM97.214 103V105H99.214V103H97.214ZM93.004 103V81.748H89.004V103H93.004ZM91.004 79.748H90.912V83.748H91.004V79.748ZM89.0196 81.1008L81.7516 102.353L85.5364 103.647L92.8044 82.3952L89.0196 81.1008ZM83.644 101H77.526V105H83.644V101ZM79.4197 102.357L72.1057 80.8286L68.3183 82.1154L75.6323 103.643L79.4197 102.357ZM70.212 79.472H70.12V83.472H70.212V79.472ZM68.12 81.472V103H72.12V81.472H68.12ZM70.12 101H63.91V105H70.12V101ZM65.91 103V70.8H61.91V103H65.91ZM63.91 72.8H72.466V68.8H63.91V72.8ZM70.5735 71.4468L78.6695 95.1368L82.4545 93.8432L74.3585 70.1532L70.5735 71.4468ZM80.562 96.49H80.654V92.49H80.562V96.49ZM82.5477 95.1335L90.5977 71.4435L86.8103 70.1565L78.7603 93.8465L82.5477 95.1335ZM88.704 72.8H97.214V68.8H88.704V72.8ZM95.214 70.8V103H99.214V70.8H95.214ZM97.214 101H91.004V105H97.214V101Z" fill="#4A4A4A" mask="url(#path-22-outside-1_3113_1942)"/>
<mask id="path-24-outside-2_3113_1942" maskUnits="userSpaceOnUse" x="88.1045" y="68" width="31" height="37" fill="black">
<rect fill="white" x="88.1045" y="68" width="31" height="37"/>
<path d="M97.4545 89.2V103H91.0145V70.8H97.4545V83.68H110.104V70.8H116.544V103H110.104V89.2H97.4545Z"/>
</mask>
<path d="M97.4545 89.2V87.2H95.4545V89.2H97.4545ZM97.4545 103V105H99.4545V103H97.4545ZM91.0145 103H89.0145V105H91.0145V103ZM91.0145 70.8V68.8H89.0145V70.8H91.0145ZM97.4545 70.8H99.4545V68.8H97.4545V70.8ZM97.4545 83.68H95.4545V85.68H97.4545V83.68ZM110.104 83.68V85.68H112.104V83.68H110.104ZM110.104 70.8V68.8H108.104V70.8H110.104ZM116.544 70.8H118.544V68.8H116.544V70.8ZM116.544 103V105H118.544V103H116.544ZM110.104 103H108.104V105H110.104V103ZM110.104 89.2H112.104V87.2H110.104V89.2ZM95.4545 89.2V103H99.4545V89.2H95.4545ZM97.4545 101H91.0145V105H97.4545V101ZM93.0145 103V70.8H89.0145V103H93.0145ZM91.0145 72.8H97.4545V68.8H91.0145V72.8ZM95.4545 70.8V83.68H99.4545V70.8H95.4545ZM97.4545 85.68H110.104V81.68H97.4545V85.68ZM112.104 83.68V70.8H108.104V83.68H112.104ZM110.104 72.8H116.544V68.8H110.104V72.8ZM114.544 70.8V103H118.544V70.8H114.544ZM116.544 101H110.104V105H116.544V101ZM112.104 103V89.2H108.104V103H112.104ZM110.104 87.2H97.4545V91.2H110.104V87.2Z" fill="#4A4A4A" mask="url(#path-24-outside-2_3113_1942)"/>
<path d="M146.718 100.889L146.801 97.6143L139.37 97.4243L139.415 95.6788L148.412 95.9089L148.378 97.2224L147.629 97.6354L148.334 98.9319L148.283 100.929L146.718 100.889Z" fill="#252525"/>
<g filter="url(#filter0_f_3113_1942)">
<rect x="169" y="1" width="44" height="898" fill="black" fill-opacity="0.42"/>
</g>
<defs>
<filter id="filter0_f_3113_1942" x="145.5" y="-22.5" width="91" height="945" filterUnits="userSpaceOnUse" color-interpolation-filters="sRGB">
<feFlood flood-opacity="0" result="BackgroundImageFix"/>
<feBlend mode="normal" in="SourceGraphic" in2="BackgroundImageFix" result="shape"/>
<feGaussianBlur stdDeviation="11.75" result="effect1_foregroundBlur_3113_1942"/>
</filter>
</defs>
</svg>
