<svg width="390" height="73" viewBox="0 0 390 73" fill="none" xmlns="http://www.w3.org/2000/svg">
<rect width="390" height="73" fill="url(#paint0_linear_3129_3521)"/>
<path d="M340 19H370" stroke="#4A4A4A" stroke-width="2" stroke-linecap="round"/>
<path d="M340 33H370" stroke="#4A4A4A" stroke-width="2" stroke-linecap="round"/>
<path d="M340 47H370" stroke="#4A4A4A" stroke-width="2" stroke-linecap="round"/>
<path d="M21.0573 52.4603L20.0142 52.4148L20.0624 51.3119L18.1082 51.2266L17.3657 49.8009L17.4185 48.59L18.4615 48.6355L18.3987 50.0742L20.1131 50.149L20.1759 48.7104L21.2189 48.7559L21.1561 50.1945L26.1074 50.4105L26.0567 51.5734L21.1054 51.3574L21.0573 52.4603Z" fill="#4A4A4A"/>
<path d="M21.9874 44.0005L21.6091 46.1515L26.4902 47.0098L26.2886 48.1562L20.3793 47.1171L20.531 46.2543L21.0655 46.0559L20.7285 45.1315L20.9591 43.8197L21.9874 44.0005Z" fill="#4A4A4A"/>
<path d="M27.9739 39.2353L28.2609 40.817L27.4792 42.9971L26.2525 44.036L22.0053 42.5132L21.7183 40.9315L22.5 38.7514L23.7266 37.7124L27.9739 39.2353ZM22.6241 41.4985L26.4195 42.8593L27.3551 40.25L23.5597 38.8891L22.6241 41.4985Z" fill="#4A4A4A"/>
<path d="M27.3159 31.3221L31.8023 34.0603L31.1959 35.0539L26.9144 32.4407L25.4703 34.8068L29.7518 37.42L29.1454 38.4136L23.9727 35.2565L24.4291 34.5088L24.9991 34.5193L25.023 33.5357L25.9045 32.0915L27.3159 31.3221Z" fill="#4A4A4A"/>
<path d="M28.7272 29.9363L27.9469 29.2427L28.6804 28.4175L27.927 27.7479L28.198 26.4314L29.4537 27.5475L30.4104 26.4713L31.1907 27.1649L30.234 28.2411L33.1578 30.8401L34.1145 29.7639L34.8948 30.4575L34.0896 31.3633L32.5639 31.8696L29.4607 29.1111L28.7272 29.9363Z" fill="#4A4A4A"/>
<path d="M38.8534 25.6935L39.5073 26.5073L36.8973 28.6043L35.3086 28.8494L32.5202 25.3787L33.1018 23.8801L34.6266 22.655L36.2153 22.41L37.8838 24.4867L35.0961 26.7265L36.0657 27.9332L38.8534 25.6935ZM33.5779 24.8368L34.4422 25.9126L36.3225 24.4019L35.4582 23.3261L33.5779 24.8368Z" fill="#4A4A4A"/>
<path d="M42.3579 18.9296L44.7942 23.5869L43.7628 24.1264L41.4378 19.6818L38.9815 20.9666L41.3065 25.4113L40.2751 25.9508L37.4662 20.5811L38.2424 20.1751L38.7257 20.4775L39.2526 19.6466L40.7518 18.8624L42.3579 18.9296Z" fill="#4A4A4A"/>
<path d="M45.643 16.859L47.3867 16.3664L48.3404 16.6082L47.4726 13.5365L48.5927 13.22L50.9907 21.7078L50.1477 21.946L49.7367 21.5508L49.0506 22.2559L47.3068 22.7485L45.7487 22.3533L44.522 18.0112L45.643 16.859ZM49.5867 21.0196L48.4905 17.1394L45.7074 17.9257L46.8036 21.8058L49.5867 21.0196Z" fill="#4A4A4A"/>
<path d="M60.2801 15.1797L62.0789 15.3975L62.8656 15.9883L63.2493 12.8195L64.4049 12.9594L63.3447 21.7154L62.475 21.6101L62.2482 21.0871L61.3433 21.4731L59.5444 21.2553L58.2592 20.2898L58.8015 15.8105L60.2801 15.1797ZM62.3146 20.5391L62.7993 16.5363L59.9282 16.1887L59.4436 20.1914L62.3146 20.5391Z" fill="#4A4A4A"/>
<path d="M69.3742 22.4145L69.0478 23.4062L65.8676 22.3593L64.7968 21.1604L66.1889 16.9316L67.7625 16.6032L69.6204 17.2148L70.6912 18.4137L69.8582 20.9441L66.4615 19.826L65.9775 21.2964L69.3742 22.4145ZM67.2195 17.5235L66.788 18.8343L69.079 19.5885L69.5105 18.2777L67.2195 17.5235Z" fill="#4A4A4A"/>
<path d="M73.204 18.7253L72.3848 23.8645L72.4058 23.876L76.325 20.4461L77.3233 20.9965L72.4822 25.1789L71.2527 24.501L72.2057 18.1748L73.204 18.7253Z" fill="#4A4A4A"/>
<path d="M79.3288 28.881L78.664 29.686L76.0825 27.5541L75.5212 26.0478L78.356 22.615L79.9413 22.8815L81.4495 24.127L82.0109 25.6333L80.3145 27.6874L77.5572 25.4103L76.5715 26.6039L79.3288 28.881ZM79.1007 23.5413L78.222 24.6053L80.0818 26.1412L80.9605 25.0771L79.1007 23.5413Z" fill="#4A4A4A"/>
<path d="M80.4621 31.6752L80.1306 30.1022L86.0514 24.7878L86.8289 25.6541L81.0867 30.8081L82.0486 31.8797L81.2717 32.5771L80.4621 31.6752Z" fill="#4A4A4A"/>
<path d="M85.2207 37.0491L83.7922 36.3119L82.5412 34.3628L82.4659 32.7571L86.263 30.3199L87.6915 31.0571L88.9425 33.0061L89.0178 34.6119L85.2207 37.0491ZM86.6898 31.4291L83.2966 33.607L84.7939 35.9399L88.1871 33.7619L86.6898 31.4291Z" fill="#4A4A4A"/>
<path d="M86.4933 42.1161L85.8446 40.4242L85.999 39.4525L83.3547 40.4663L82.938 39.3795L90.8374 36.3509L91.151 37.1689L90.7947 37.6139L91.5591 38.2333L92.2077 39.9252L91.9553 41.5128L87.7423 43.128L86.4933 42.1161ZM90.2792 37.8115L86.5145 39.2549L87.5497 41.9553L91.3145 40.5119L90.2792 37.8115Z" fill="#4A4A4A"/>
<path d="M89.1921 49.0998L88.1629 49.2748L87.6019 45.9741L88.1613 44.4671L92.5503 43.721L93.5762 44.9586L93.904 46.887L93.3446 48.394L90.7183 48.8404L90.119 45.315L88.5929 45.5744L89.1921 49.0998ZM92.5088 44.9088L91.1483 45.14L91.5524 47.5179L92.9129 47.2867L92.5088 44.9088Z" fill="#4A4A4A"/>
<path d="M93.3713 53.9718L93.3623 51.7878L88.4063 51.8082L88.4015 50.6442L94.4015 50.6195L94.4051 51.4955L93.9143 51.7855L94.4098 52.6355L94.4153 53.9675L93.3713 53.9718Z" fill="#4A4A4A"/>
<mask id="path-21-outside-1_3129_3521" maskUnits="userSpaceOnUse" x="38" y="30" width="25" height="24" fill="black">
<rect fill="white" x="38" y="30" width="25" height="24"/>
<path d="M56.872 52V39.064H56.816L52.392 52H48.668L44.216 38.896H44.16V52H40.38V32.4H45.588L50.516 46.82H50.572L55.472 32.4H60.652V52H56.872Z"/>
</mask>
<path d="M56.872 52H54.872V54H56.872V52ZM56.872 39.064H58.872V37.064H56.872V39.064ZM56.816 39.064V37.064H55.3863L54.9236 38.4168L56.816 39.064ZM52.392 52V54H53.8217L54.2844 52.6472L52.392 52ZM48.668 52L46.7743 52.6434L47.2352 54H48.668V52ZM44.216 38.896L46.1097 38.2526L45.6488 36.896H44.216V38.896ZM44.16 38.896V36.896H42.16V38.896H44.16ZM44.16 52V54H46.16V52H44.16ZM40.38 52H38.38V54H40.38V52ZM40.38 32.4V30.4H38.38V32.4H40.38ZM45.588 32.4L47.4805 31.7532L47.0181 30.4H45.588V32.4ZM50.516 46.82L48.6235 47.4668L49.0859 48.82H50.516V46.82ZM50.572 46.82V48.82H52.0047L52.4657 47.4635L50.572 46.82ZM55.472 32.4V30.4H54.0393L53.5783 31.7565L55.472 32.4ZM60.652 32.4H62.652V30.4H60.652V32.4ZM60.652 52V54H62.652V52H60.652ZM58.872 52V39.064H54.872V52H58.872ZM56.872 37.064H56.816V41.064H56.872V37.064ZM54.9236 38.4168L50.4996 51.3528L54.2844 52.6472L58.7084 39.7112L54.9236 38.4168ZM52.392 50H48.668V54H52.392V50ZM50.5617 51.3566L46.1097 38.2526L42.3223 39.5394L46.7743 52.6434L50.5617 51.3566ZM44.216 36.896H44.16V40.896H44.216V36.896ZM42.16 38.896V52H46.16V38.896H42.16ZM44.16 50H40.38V54H44.16V50ZM42.38 52V32.4H38.38V52H42.38ZM40.38 34.4H45.588V30.4H40.38V34.4ZM43.6955 33.0468L48.6235 47.4668L52.4085 46.1732L47.4805 31.7532L43.6955 33.0468ZM50.516 48.82H50.572V44.82H50.516V48.82ZM52.4657 47.4635L57.3657 33.0435L53.5783 31.7565L48.6783 46.1765L52.4657 47.4635ZM55.472 34.4H60.652V30.4H55.472V34.4ZM58.652 32.4V52H62.652V32.4H58.652ZM60.652 50H56.872V54H60.652V50Z" fill="#4A4A4A" mask="url(#path-21-outside-1_3129_3521)"/>
<mask id="path-23-outside-2_3129_3521" maskUnits="userSpaceOnUse" x="55.3604" y="30" width="20" height="24" fill="black">
<rect fill="white" x="55.3604" y="30" width="20" height="24"/>
<path d="M61.6604 43.6V52H57.7404V32.4H61.6604V40.24H69.3604V32.4H73.2804V52H69.3604V43.6H61.6604Z"/>
</mask>
<path d="M61.6604 43.6V41.6H59.6604V43.6H61.6604ZM61.6604 52V54H63.6604V52H61.6604ZM57.7404 52H55.7404V54H57.7404V52ZM57.7404 32.4V30.4H55.7404V32.4H57.7404ZM61.6604 32.4H63.6604V30.4H61.6604V32.4ZM61.6604 40.24H59.6604V42.24H61.6604V40.24ZM69.3604 40.24V42.24H71.3604V40.24H69.3604ZM69.3604 32.4V30.4H67.3604V32.4H69.3604ZM73.2804 32.4H75.2804V30.4H73.2804V32.4ZM73.2804 52V54H75.2804V52H73.2804ZM69.3604 52H67.3604V54H69.3604V52ZM69.3604 43.6H71.3604V41.6H69.3604V43.6ZM59.6604 43.6V52H63.6604V43.6H59.6604ZM61.6604 50H57.7404V54H61.6604V50ZM59.7404 52V32.4H55.7404V52H59.7404ZM57.7404 34.4H61.6604V30.4H57.7404V34.4ZM59.6604 32.4V40.24H63.6604V32.4H59.6604ZM61.6604 42.24H69.3604V38.24H61.6604V42.24ZM71.3604 40.24V32.4H67.3604V40.24H71.3604ZM69.3604 34.4H73.2804V30.4H69.3604V34.4ZM71.2804 32.4V52H75.2804V32.4H71.2804ZM73.2804 50H69.3604V54H73.2804V50ZM71.3604 52V43.6H67.3604V52H71.3604ZM69.3604 41.6H61.6604V45.6H69.3604V41.6Z" fill="#4A4A4A" mask="url(#path-23-outside-2_3129_3521)"/>
<defs>
<linearGradient id="paint0_linear_3129_3521" x1="127.5" y1="1.87714" x2="135.62" y2="123.25" gradientUnits="userSpaceOnUse">
<stop offset="0.327344" stop-color="#B5E93B"/>
<stop offset="1" stop-color="#547800"/>
</linearGradient>
</defs>
</svg>
