<svg width="86" height="90" viewBox="0 0 86 90" fill="none" xmlns="http://www.w3.org/2000/svg">
<path d="M42.9 0L70.8 9.96L66.546 46.89L42.9 60L19.254 46.89L15 9.96L42.9 0ZM42.9 6.63L25.458 45.78H31.962L35.469 37.02H50.271L53.781 45.78H60.282L42.9 6.63ZM47.994 31.62H37.806L42.9 19.35L47.994 31.62Z" fill="#B5E93B"/>
<path d="M17.2385 72.4L21.7385 85H19.9745L18.9125 82.012H13.3325L12.2705 85H10.5065L15.0065 72.4H17.2385ZM16.1045 74.182L13.9085 80.392H18.3365L16.1405 74.182H16.1045ZM31.1896 77.116V85H29.4436V77.476H25.2856V85H23.5396V75.91H24.8536L25.2856 76.648L26.5636 75.91H29.1016L31.1896 77.116ZM35.8149 85L34.0689 83.992V82.372L35.3469 81.634L34.0689 80.896V77.206L36.1569 76H41.8989V76.612L40.2609 77.566L41.3589 78.214V80.698L39.2709 81.904H35.8149V83.434H39.8109L41.8989 84.64V87.484L39.8109 88.69H35.7969L33.7089 87.484V86.368L35.4549 85.36V87.16H40.1529V85H35.8149ZM35.8149 77.53V80.374H39.6129V77.53H35.8149ZM44.4224 83.884V76H46.1684V83.524H50.3264V76H52.0724V85.09H50.7584L50.3264 84.352L49.0484 85.09H46.5104L44.4224 83.884ZM57.0397 85L54.9517 83.794V71.86H56.6977V83.434H58.8577V85H57.0397ZM62.0506 81.31V83.524H65.6686V81.31H62.0506ZM62.3926 85.09L60.3046 83.884V80.95L62.3926 79.744H65.6686V77.566H61.2046V76H65.3266L67.4146 77.206V85.09H66.9466L65.6686 84.352L64.3906 85.09H62.3926ZM75.3194 77.566H72.0434V85H70.2974V76H71.6114L72.0434 76.738L73.3214 76H75.3194V77.566Z" fill="#FFFDFD"/>
</svg>
