<svg width="87" height="110" viewBox="0 0 87 110" fill="none" xmlns="http://www.w3.org/2000/svg">
<path d="M7.10988 81.85H8.90988V83.884L6.82188 85.09H2.08788L-0.000117123 83.884V73.516L2.08788 72.31H6.82188L8.90988 73.516V75.55H7.10988V73.93H1.79988V83.47H7.10988V81.85ZM13.5366 85H11.7906V71.86H13.5366V76.648L14.8146 75.91H17.5326L19.6206 77.116V85H17.8746V77.476H13.5366V85ZM23.8817 81.31V83.524H27.4997V81.31H23.8817ZM24.2237 85.09L22.1357 83.884V80.95L24.2237 79.744H27.4997V77.566H23.0357V76H27.1577L29.2457 77.206V85.09H28.7777L27.4997 84.352L26.2217 85.09H24.2237ZM34.2165 85L32.1285 83.794V71.86H33.8745V83.434H36.0345V85H34.2165ZM39.9294 85L37.8414 83.794V71.86H39.5874V83.434H41.7474V85H39.9294ZM50.6643 83.434V85H45.6423L43.5543 83.794V77.116L45.6423 75.91H48.5763L50.6643 77.116V81.112H45.3003V83.434H50.6643ZM45.3003 77.476V79.546H48.9183V77.476H45.3003ZM61.1886 77.116V85H59.4426V77.476H55.2846V85H53.5386V75.91H54.8526L55.2846 76.648L56.5626 75.91H59.1006L61.1886 77.116ZM65.8139 85L64.0679 83.992V82.372L65.3459 81.634L64.0679 80.896V77.206L66.1559 76H71.8979V76.612L70.2599 77.566L71.3579 78.214V80.698L69.2699 81.904H65.8139V83.434H69.8099L71.8979 84.64V87.484L69.8099 88.69H65.7959L63.7079 87.484V86.368L65.4539 85.36V87.16H70.1519V85H65.8139ZM65.8139 77.53V80.374H69.6119V77.53H65.8139ZM81.5314 83.434V85H76.5094L74.4214 83.794V77.116L76.5094 75.91H79.4434L81.5314 77.116V81.112H76.1674V83.434H81.5314ZM76.1674 77.476V79.546H79.7854V77.476H76.1674ZM44.0755 99.116V107H42.3295V99.476H38.8915V107H37.1455V99.476H33.7075V107H31.9615V97.91H33.2755L33.7075 98.648L34.9855 97.91H36.8035L38.4775 98.882L40.1695 97.91H41.9875L44.0755 99.116ZM54.0656 105.434V107H49.0436L46.9556 105.794V99.116L49.0436 97.91H51.9776L54.0656 99.116V103.112H48.7016V105.434H54.0656ZM48.7016 99.476V101.546H52.3196V99.476H48.7016Z" fill="#FFFDFD"/>
<path d="M14.0107 5.00507C14.0107 2.79313 15.7993 1 18.0057 1L68.7738 0.999999C70.9802 0.999999 72.7688 2.79313 72.7688 5.00507L72.7688 54.9949C72.7688 57.2069 70.9802 59 68.7738 59L18.0057 59C15.7993 59 14.0107 57.2069 14.0107 54.9949L14.0107 5.00507Z" fill="#FFFDFD"/>
<path d="M40.6912 38.6883C40.6912 37.6088 40.7146 36.6936 40.7614 35.9426C40.8239 35.1917 40.9565 34.5111 41.1594 33.901C41.3622 33.3065 41.6665 32.7589 42.0723 32.2583C42.478 31.742 43.0476 31.1945 43.781 30.6156C44.3116 30.1306 44.8422 29.6222 45.3728 29.0902C45.9033 28.5427 46.3871 27.9794 46.824 27.4006C47.2454 26.8374 47.5887 26.2585 47.854 25.664C48.1193 25.0695 48.2519 24.475 48.2519 23.8805C48.2519 23.1609 48.1505 22.5429 47.9476 22.0266C47.7448 21.4947 47.4561 21.0566 47.0815 20.7124C46.6914 20.3995 46.2154 20.1649 45.6537 20.0084C45.1075 19.852 44.4755 19.7738 43.7576 19.7738C43.1958 19.7738 42.6497 19.852 42.1191 20.0084C41.5885 20.1492 41.1204 20.3839 40.7146 20.7124C40.2933 21.041 39.95 21.4634 39.6847 21.9797C39.435 22.4959 39.3024 23.1139 39.2867 23.8336L32.756 23.8336C32.7716 22.2378 33.0681 20.8532 33.6455 19.6799C34.2229 18.4909 35.0031 17.5053 35.9863 16.723C36.9694 15.9408 38.1242 15.3619 39.4506 14.9864C40.777 14.5953 42.2127 14.3998 43.7576 14.3998C45.4898 14.3998 47.0425 14.5953 48.4158 14.9864C49.789 15.3776 50.9516 15.9564 51.9035 16.723C52.8398 17.5053 53.5577 18.4674 54.057 19.6095C54.5564 20.7516 54.8061 22.0735 54.8061 23.5754C54.8061 24.6862 54.6188 25.7031 54.2443 26.6262C53.8698 27.5336 53.386 28.3784 52.793 29.1606C52.2 29.9585 51.5212 30.7173 50.7565 31.4369C50.0075 32.141 49.2506 32.8293 48.486 33.5021C48.0178 33.9714 47.6511 34.386 47.3858 34.7458C47.1205 35.1057 46.9333 35.4733 46.824 35.8488C46.6992 36.2243 46.6212 36.6388 46.59 37.0925C46.5588 37.5306 46.5432 38.0625 46.5432 38.6883L40.6912 38.6883ZM39.7315 45.7989C39.7315 44.7663 40.067 43.9058 40.738 43.2175C41.4091 42.5135 42.3376 42.1615 43.5236 42.1615C44.6783 42.1615 45.599 42.5135 46.2857 43.2175C46.9879 43.9058 47.339 44.7663 47.339 45.7989C47.339 46.8001 46.9879 47.645 46.2857 48.3333C45.599 49.0061 44.6783 49.3424 43.5236 49.3424C42.3376 49.3424 41.4091 49.0061 40.738 48.3333C40.067 47.645 39.7315 46.8001 39.7315 45.7989Z" fill="#5A5959"/>
</svg>
