<svg width="86" height="90" viewBox="0 0 86 90" fill="none" xmlns="http://www.w3.org/2000/svg">
<path d="M34.1431 81.85H35.9431V83.884L33.8551 85.09H29.1211L27.0331 83.884V73.516L29.1211 72.31H33.8551L35.9431 73.516V75.55H34.1431V73.93H28.8331V83.47H34.1431V81.85ZM39.0038 78.34V73.516L41.0918 72.31H45.2858L47.3738 73.516V75.37H45.5738V73.93H40.8038V77.746H45.2858L47.3738 78.952V83.884L45.2858 85.09H40.9118L38.8238 83.884V82.03H40.6238V83.47H45.5738V79.546H41.0918L39.0038 78.34ZM50.6054 78.34V73.516L52.6934 72.31H56.8874L58.9754 73.516V75.37H57.1754V73.93H52.4054V77.746H56.8874L58.9754 78.952V83.884L56.8874 85.09H52.5134L50.4254 83.884V82.03H52.2254V83.47H57.1754V79.546H52.6934L50.6054 78.34Z" fill="#FFFDFD"/>
<path d="M17.0047 0.0105726C17.0047 0.243169 16.9941 0.401758 17.0047 0.560346C17.4068 4.95854 17.8089 9.35673 18.2004 13.7655C18.7507 20.0033 19.2903 26.2411 19.8405 32.4684C20.4649 39.4674 21.0997 46.4559 21.7029 53.4549C21.7452 53.9624 21.9251 54.1844 22.4013 54.3113C29.1734 56.1721 35.9244 58.0434 42.6966 59.8936C43.1516 60.0205 43.7018 60.0416 44.1568 59.9148C50.9502 58.054 57.7329 56.1615 64.5262 54.2902C65.0447 54.1421 65.2246 53.9095 65.2669 53.3809C65.4786 50.7378 65.7325 48.0841 65.9653 45.4409C66.3568 41.0639 66.7378 36.6868 67.1293 32.3098C67.5843 27.1715 68.0499 22.0438 68.5049 16.9055C68.8435 13.0783 69.2033 9.26157 69.5419 5.4343C69.7006 3.63696 69.8382 1.83963 69.9863 0H17.0047V0.0105726ZM59.7646 15.2774C59.4154 19.1469 59.0662 23.0271 58.717 26.8966C58.3149 31.3477 57.9128 35.7987 57.5107 40.2392C57.3943 41.5185 57.225 42.7978 57.1933 44.0876C57.1721 44.7748 56.8758 44.9546 56.3044 45.1132C52.2199 46.2127 48.1461 47.344 44.0722 48.4647C43.8923 48.5175 43.723 48.581 43.5431 48.6338C43.4796 48.6021 43.4161 48.581 43.3421 48.5492C38.9825 47.3651 34.6229 46.1704 30.2633 44.9651C30.0834 44.9123 29.8506 44.6268 29.8295 44.4259C29.5226 41.1273 29.2475 37.8287 28.9512 34.4666H35.607C35.7234 35.7882 35.8504 37.1309 35.9562 38.4842C36.0514 39.7317 36.0408 39.7317 37.2154 40.0489C39.3211 40.6092 41.4374 41.159 43.5431 41.7088L43.522 41.6559C45.8287 41.0427 48.1355 40.4401 50.4423 39.7846C50.6539 39.7212 50.8973 39.3828 50.929 39.1502C51.0666 38.1353 51.1406 37.1097 51.2253 36.0948C51.3628 34.456 51.5004 32.8173 51.6485 31.1045H43.522L43.5431 31.0622C43.4902 31.0622 43.4267 31.0622 43.3738 31.0622H28.6444C28.4433 28.8737 28.2528 26.7063 28.0518 24.4755H43.3844C43.4373 24.4755 43.5008 24.4755 43.5537 24.4755L43.5325 24.4332H52.2411C52.4422 22.1601 52.6432 19.9399 52.8443 17.6773H43.522L43.5431 17.635C43.4902 17.635 43.4267 17.635 43.3738 17.635C38.1571 17.6456 32.9404 17.6456 27.7238 17.6562C27.6497 17.6562 27.5756 17.6245 27.4381 17.5822C27.2476 15.4254 27.0465 13.2686 26.8561 11.0483H43.3738C43.4267 11.0483 43.4902 11.0483 43.5431 11.0483L43.522 11.006H60.1137C59.9974 12.4862 59.881 13.8818 59.7646 15.2774Z" fill="#B5E93B"/>
</svg>
