<svg width="86" height="90" viewBox="0 0 86 90" fill="none" xmlns="http://www.w3.org/2000/svg">
<path d="M10.8682 79.33V85H9.06824V72.4H16.4302V74.02H10.8682V77.71H15.3502V79.33H10.8682ZM20.1616 76V85H18.4156V76H20.1616ZM18.3256 73.786V71.86H20.2516V73.786H18.3256ZM28.0606 77.566H24.7846V85H23.0386V76H24.3526L24.7846 76.738L26.0626 76H28.0606V77.566ZM37.1447 83.434V85H32.1227L30.0347 83.794V77.116L32.1227 75.91H35.0567L37.1447 77.116V81.112H31.7807V83.434H37.1447ZM31.7807 77.476V79.546H35.3987V77.476H31.7807ZM43.0431 75.91H45.7611L47.8491 77.116V83.884L45.7611 85.09H43.0431L41.7651 84.352L40.4871 85.09H40.0191V71.86H41.7651V76.648L43.0431 75.91ZM41.7651 77.476V83.524H46.1031V77.476H41.7651ZM52.1102 81.31V83.524H55.7282V81.31H52.1102ZM52.4522 85.09L50.3642 83.884V80.95L52.4522 79.744H55.7282V77.566H51.2642V76H55.3862L57.4742 77.206V85.09H57.0062L55.7282 84.352L54.4502 85.09H52.4522ZM67.125 80.86V83.794L65.037 85H60.357V83.434H65.379V81.22H62.445L60.357 80.014V77.206L62.445 76H66.945V77.566H62.103V79.654H65.037L67.125 80.86ZM77.1174 83.434V85H72.0954L70.0074 83.794V77.116L72.0954 75.91H75.0294L77.1174 77.116V81.112H71.7534V83.434H77.1174ZM71.7534 77.476V79.546H75.3714V77.476H71.7534Z" fill="#FFFDFD"/>
<path d="M22.6494 39.1719L28.5808 1.16324C28.7853 -0.132123 30.5238 -0.43892 31.1374 0.720089L37.512 12.6511L22.6494 39.1719ZM64.8169 48.4099L59.1582 13.401C58.9878 12.3102 57.6242 11.867 56.8402 12.6511L21.1836 48.4099L40.9208 59.4887C42.148 60.1704 43.682 60.1704 44.9092 59.4887L64.8169 48.4099ZM48.7953 17.8666L44.2274 9.17404C43.7161 8.18547 42.3185 8.18547 41.8071 9.17404L21.729 44.967L48.7953 17.8666Z" fill="#B5E93B"/>
</svg>
