<svg width="86" height="90" viewBox="0 0 86 90" fill="none" xmlns="http://www.w3.org/2000/svg">
<path d="M38.0926 80.32V78.7H41.9626V83.884L39.8746 85.09H35.1406L33.0526 83.884V73.516L35.1406 72.31H39.8746L41.9626 73.516V75.55H40.1626V73.93H34.8526V83.47H40.1626V80.32H38.0926ZM46.7651 76V85H45.0191V76H46.7651ZM44.9291 73.786V71.86H46.8551V73.786H44.9291ZM48.9221 77.566V76H50.5781V74.488L52.3241 73.48V76H54.4841V77.566H52.3241V83.434H54.4841V85H52.6661L50.5781 83.794V77.566H48.9221Z" fill="#FFFDFD"/>
<path d="M71.8783 27.3573L45.6466 1.12561C44.1458 -0.375204 41.6662 -0.375204 40.1654 1.12561L34.7494 6.5416L41.6662 13.4584C43.2975 12.9364 45.1246 13.2626 46.3644 14.5677C47.6695 15.8728 47.9958 17.6998 47.4737 19.3312L54.1295 25.9869C55.7608 25.4649 57.5879 25.7912 58.893 27.0962C60.7201 28.8581 60.7201 31.7945 58.893 33.6215C57.0659 35.4486 54.1948 35.4486 52.3677 33.6215C50.9974 32.2512 50.6711 30.2936 51.3889 28.5971L45.1899 22.398V38.7113C45.6467 38.907 46.0382 39.2333 46.4297 39.5595C48.2568 41.3214 48.2568 44.2577 46.4297 46.0848C44.6026 47.8467 41.7315 47.8467 39.9044 46.0848C38.0773 44.2577 38.0773 41.3866 39.9044 39.5595C40.3612 39.1028 40.8832 38.7765 41.4052 38.5807V22.0718C40.8832 21.876 40.3612 21.4845 39.9044 21.093C38.5341 19.7227 38.2078 17.7651 38.9256 16.0685L32.0741 9.28222L14.1295 27.2268C12.6287 28.7276 12.6287 31.2072 14.1295 32.708L40.2959 58.8744C41.7967 60.3752 44.2763 60.3752 45.7772 58.8744L71.813 32.8385C73.3791 31.2724 73.3791 28.8581 71.8783 27.3573Z" fill="#B5E93B"/>
</svg>
