<svg width="86" height="90" viewBox="0 0 86 90" fill="none" xmlns="http://www.w3.org/2000/svg">
<path d="M22.6983 79.33V85H20.8983V72.4H22.6983V77.71H28.7283V72.4H30.5283V85H28.7283V79.33H22.6983ZM38.0675 74.02V85H36.2675V74.02H32.6855V72.4H41.6495V74.02H38.0675ZM54.7826 85V74.74H54.7466L51.0386 85H49.2386L45.5486 74.74H45.5126V85H43.8026V72.4H46.3406L50.1206 82.912H50.1566L53.9546 72.4H56.4926V85H54.7826ZM59.7284 85V72.4H61.5284V83.38H66.1904V85H59.7284Z" fill="#FFFDFD"/>
<path d="M43 48.534L56.86 44.766L58.729 24.432H34.078L33.466 17.67H59.344L60.025 11.037H25.975L27.883 31.071H51.343L50.56 39.669L43 41.67L35.44 39.669L34.966 34.137H28.156L29.143 44.769L43 48.534ZM16 0H70L65.131 54L43 60L20.869 54L16 0Z" fill="#B5E93B"/>
</svg>
