<svg width="88" height="90" viewBox="0 0 88 90" fill="none" xmlns="http://www.w3.org/2000/svg">
<path d="M5.84965 83.47V72.4H7.64965V83.884L5.56165 85.09H2.08765L-0.000351537 83.884V80.95H1.79965V83.47H5.84965ZM12.0985 81.31V83.524H15.7165V81.31H12.0985ZM12.4405 85.09L10.3525 83.884V80.95L12.4405 79.744H15.7165V77.566H11.2525V76H15.3745L17.4625 77.206V85.09H16.9945L15.7165 84.352L14.4385 85.09H12.4405ZM20.9753 76L23.6213 83.344H23.6573L26.3213 76H28.0313L24.7013 85H22.5953L19.2653 76H20.9753ZM31.2235 81.31V83.524H34.8415V81.31H31.2235ZM31.5655 85.09L29.4775 83.884V80.95L31.5655 79.744H34.8415V77.566H30.3775V76H34.4995L36.5875 77.206V85.09H36.1195L34.8415 84.352L33.5635 85.09H31.5655ZM39.6503 78.34V73.516L41.7383 72.31H45.9323L48.0203 73.516V75.37H46.2203V73.93H41.4503V77.746H45.9323L48.0203 78.952V83.884L45.9323 85.09H41.5583L39.4703 83.884V82.03H41.2703V83.47H46.2203V79.546H41.7383L39.6503 78.34ZM52.8178 77.566V83.434H57.8218V85H53.1598L51.0718 83.794V77.206L53.1598 76H57.8218V77.566H52.8178ZM65.3575 77.566H62.0815V85H60.3355V76H61.6495L62.0815 76.738L63.3595 76H65.3575V77.566ZM69.0776 76V85H67.3316V76H69.0776ZM67.2416 73.786V71.86H69.1676V73.786H67.2416ZM77.6966 85.09H74.9786L73.7006 84.352V88.6H71.9546V75.91H73.2686L73.7006 76.648L74.9786 75.91H77.6966L79.7846 77.116V83.884L77.6966 85.09ZM73.7006 77.476V83.524H78.0386V77.476H73.7006ZM81.9397 77.566V76H83.5957V74.488L85.3417 73.48V76H87.5017V77.566H85.3417V83.434H87.5017V85H85.6837L83.5957 83.794V77.566H81.9397Z" fill="#FFFDFD"/>
<path d="M13.6123 0C33.6258 0 53.5988 0 73.6123 0C73.6123 20.0135 73.6123 40.027 73.6123 60C53.6393 60 33.6258 60 13.6123 60C13.6123 39.946 13.6123 19.973 13.6123 0ZM67.2922 31.7623C66.0769 29.5746 64.4158 28.0756 62.0255 27.549C60.324 27.1438 58.6224 27.1438 56.9209 27.5084C51.4111 28.6428 49.0613 35.287 52.6265 39.7029C53.8824 41.2424 55.5434 42.1742 57.2855 42.9845C58.825 43.7137 60.405 44.4024 61.9445 45.1722C62.9978 45.6989 63.4435 46.6712 63.322 47.8461C63.2004 49.0209 62.3902 49.6691 61.3773 50.0338C59.1086 50.844 56.4752 50.1148 54.9357 48.2107C54.6116 47.8055 54.2875 47.3599 53.9634 46.9142C52.4239 47.8055 50.9249 48.6563 49.4259 49.5476C50.3577 51.3707 51.6542 52.8292 53.4367 53.8015C56.4752 55.4625 59.6758 55.7056 62.9573 54.8953C65.1045 54.3687 66.9276 53.2748 68.062 51.2897C70.1687 47.5219 68.9533 42.8224 65.2261 40.5132C63.565 39.5003 61.7014 38.8116 59.9594 37.9203C59.1086 37.4747 58.2173 37.0695 57.4881 36.5024C56.1916 35.449 56.4347 33.3423 57.8932 32.5321C59.3112 31.7218 61.2963 32.208 62.3902 33.6259C62.6332 33.9095 62.7953 34.2336 63.0384 34.5577C64.4158 33.6259 65.8338 32.6941 67.2922 31.7623ZM29.4124 50.1553C30.2227 51.8974 31.3976 53.2748 33.0586 54.1661C35.2058 55.341 37.5556 55.5436 39.9459 55.1789C42.0931 54.8548 43.8756 53.8825 45.0505 51.9379C46.0228 50.3174 46.3064 48.5348 46.3064 46.6307C46.3064 40.4727 46.3064 34.3147 46.3064 28.1567C46.3064 27.9946 46.3064 27.792 46.3064 27.5895C44.4023 27.5895 42.5792 27.5895 40.6751 27.5895C40.6751 27.8325 40.6751 28.0351 40.6751 28.2782C40.6751 34.3552 40.6751 40.3916 40.6751 46.4686C40.6751 47.0358 40.6346 47.6435 40.5536 48.2107C40.3915 49.1425 39.9053 49.8312 38.9735 50.1148C37.2315 50.6415 35.8135 50.1148 34.8007 48.6158C34.5576 48.2107 34.3145 47.8055 34.0309 47.4004C32.4509 48.3322 30.9519 49.2235 29.4124 50.1553Z" fill="#B5E93B"/>
</svg>
