<svg width="86" height="111" viewBox="0 0 86 111" fill="none" xmlns="http://www.w3.org/2000/svg">
<path d="M18.8256 85V74.74H18.7896L15.0816 85H13.2816L9.59159 74.74H9.55559V85H7.84559V72.4H10.3836L14.1636 82.912H14.1996L17.9976 72.4H20.5356V85H18.8256ZM24.9774 81.31V83.524H28.5954V81.31H24.9774ZM25.3194 85.09L23.2314 83.884V80.95L25.3194 79.744H28.5954V77.566H24.1314V76H28.2534L30.3414 77.206V85.09H29.8734L28.5954 84.352L27.3174 85.09H25.3194ZM32.5042 77.566V76H34.1602V74.488L35.9062 73.48V76H38.0662V77.566H35.9062V83.434H38.0662V85H36.2482L34.1602 83.794V77.566H32.5042ZM47.6994 83.434V85H42.6774L40.5894 83.794V77.116L42.6774 75.91H45.6114L47.6994 77.116V81.112H42.3354V83.434H47.6994ZM42.3354 77.476V79.546H45.9534V77.476H42.3354ZM55.5958 77.566H52.3198V85H50.5738V76H51.8878L52.3198 76.738L53.5978 76H55.5958V77.566ZM59.3159 76V85H57.5699V76H59.3159ZM57.4799 73.786V71.86H59.4059V73.786H57.4799ZM63.5789 81.31V83.524H67.1969V81.31H63.5789ZM63.9209 85.09L61.8329 83.884V80.95L63.9209 79.744H67.1969V77.566H62.7329V76H66.8549L68.9429 77.206V85.09H68.4749L67.1969 84.352L65.9189 85.09H63.9209ZM73.9137 85L71.8257 83.794V71.86H73.5717V83.434H75.7317V85H73.9137ZM19.1051 97.91H21.8231L23.1011 98.648V93.86H24.8471V107.09H23.5331L23.1011 106.352L21.8231 107.09H19.1051L17.0171 105.884V99.116L19.1051 97.91ZM23.1011 105.524V99.476H18.7631V105.524H23.1011ZM34.8322 105.434V107H29.8102L27.7222 105.794V99.116L29.8102 97.91H32.7442L34.8322 99.116V103.112H29.4682V105.434H34.8322ZM29.4682 99.476V101.546H33.0862V99.476H29.4682ZM44.4746 102.86V105.794L42.3866 107H37.7066V105.434H42.7286V103.22H39.7946L37.7066 102.014V99.206L39.7946 98H44.2946V99.566H39.4526V101.654H42.3866L44.4746 102.86ZM49.103 98V107H47.357V98H49.103ZM47.267 95.786V93.86H49.193V95.786H47.267ZM53.726 107L51.98 105.992V104.372L53.258 103.634L51.98 102.896V99.206L54.068 98H59.81V98.612L58.172 99.566L59.27 100.214V102.698L57.182 103.904H53.726V105.434H57.722L59.81 106.64V109.484L57.722 110.69H53.708L51.62 109.484V108.368L53.366 107.36V109.16H58.064V107H53.726ZM53.726 99.53V102.374H57.524V99.53H53.726ZM69.9836 99.116V107H68.2376V99.476H64.0796V107H62.3336V97.91H63.6476L64.0796 98.648L65.3576 97.91H67.8956L69.9836 99.116Z" fill="#FFFDFD"/>
<path d="M20.9 10.3V50.8C16 45.4 13 38.3 13 30.5C13 22.7 16 15.6 20.9 10.3Z" fill="#B5E93B"/>
<path d="M24.0996 14.7002L41.3996 49.4002H24.0996V14.7002Z" fill="#B5E93B"/>
<path d="M43 45.5001L26 11.6001H60L43 45.5001Z" fill="#B5E93B"/>
<path d="M43.0008 0.5C50.8008 0.5 57.9008 3.5 63.2008 8.4H22.8008C28.1008 3.5 35.2008 0.5 43.0008 0.5Z" fill="#B5E93B"/>
<path d="M61.8996 49.4002H44.5996L61.8996 14.7002V49.4002Z" fill="#B5E93B"/>
<path d="M63.2008 52.6001C57.9008 57.5001 50.8008 60.5001 43.0008 60.5001C35.2008 60.5001 28.1008 57.5001 22.8008 52.6001H63.2008Z" fill="#B5E93B"/>
<path d="M65.0996 50.6998V10.2998C69.9996 15.5998 72.9996 22.6998 72.9996 30.4998C72.9996 38.2998 69.9996 45.3998 65.0996 50.6998Z" fill="#B5E93B"/>
<path d="M24.0996 14.7002L41.3996 49.4002H24.0996V14.7002Z" fill="#B5E93B"/>
<path d="M43 45.5001L26 11.6001H60L43 45.5001Z" fill="#B5E93B"/>
<path d="M44.5996 49.4002L61.8996 14.7002V49.4002H44.5996Z" fill="#B5E93B"/>
<path d="M26 11.6001H60L43 45.5001L26 11.6001Z" fill="#B5E93B"/>
</svg>
