<svg width="86" height="90" viewBox="0 0 86 90" fill="none" xmlns="http://www.w3.org/2000/svg">
<path d="M25.6175 79.978H22.8995V85H21.0995V72.4H27.5615L29.6495 73.606V78.772L27.5615 79.978L30.4595 85H28.4615L25.6175 79.978ZM22.8995 74.02V78.358H27.8495V74.02H22.8995ZM39.8244 83.434V85H34.8024L32.7144 83.794V77.116L34.8024 75.91H37.7364L39.8244 77.116V81.112H34.4604V83.434H39.8244ZM34.4604 77.476V79.546H38.0784V77.476H34.4604ZM44.0848 81.31V83.524H47.7028V81.31H44.0848ZM44.4268 85.09L42.3388 83.884V80.95L44.4268 79.744H47.7028V77.566H43.2388V76H47.3608L49.4488 77.206V85.09H48.9808L47.7028 84.352L46.4248 85.09H44.4268ZM54.0776 77.566V83.434H59.0816V85H54.4196L52.3316 83.794V77.206L54.4196 76H59.0816V77.566H54.0776ZM60.8753 77.566V76H62.5313V74.488L64.2773 73.48V76H66.4373V77.566H64.2773V83.434H66.4373V85H64.6193L62.5313 83.794V77.566H60.8753Z" fill="#FFFDFD"/>
<path d="M43.0013 40.8376C58.6773 40.8376 71.3853 35.9855 71.3853 30.0001C71.3853 24.0147 58.6773 19.1626 43.0013 19.1626C27.3252 19.1626 14.6173 24.0147 14.6173 30.0001C14.6173 35.9855 27.3252 40.8376 43.0013 40.8376Z" stroke="#B5E93B" stroke-width="2.5"/>
<path d="M33.6155 35.4188C41.4535 48.9946 52.0095 57.5739 57.193 54.5812C62.3765 51.5885 60.2246 38.1571 52.3866 24.5812C44.5486 11.0054 33.9926 2.42606 28.809 5.41876C23.6255 8.41146 25.7775 21.8429 33.6155 35.4188Z" stroke="#B5E93B" stroke-width="2.5"/>
<path d="M33.6155 24.5811C25.7775 38.157 23.6255 51.5884 28.809 54.5811C33.9926 57.5738 44.5486 48.9945 52.3866 35.4186C60.2246 21.8428 62.3765 8.41134 57.193 5.41864C52.0095 2.42595 41.4535 11.0053 33.6155 24.5811Z" stroke="#B5E93B" stroke-width="2.5"/>
<path d="M43.0015 25.2102C45.6466 25.2104 47.7905 27.355 47.7905 30.0002C47.7904 32.6453 45.6465 34.7891 43.0015 34.7893C40.3563 34.7893 38.2116 32.6454 38.2114 30.0002C38.2114 27.3549 40.3562 25.2102 43.0015 25.2102Z" fill="#B5E93B" stroke="#B5E93B"/>
</svg>
