<svg width="86" height="90" viewBox="0 0 86 90" fill="none" xmlns="http://www.w3.org/2000/svg">
<path d="M9.49933 79.978H6.78133V85H4.98133V72.4H11.4433L13.5313 73.606V78.772L11.4433 79.978L14.3413 85H12.3433L9.49933 79.978ZM6.78133 74.02V78.358H11.7313V74.02H6.78133ZM18.5763 79.33V83.38H23.9583V85H16.7763V72.4H23.9583V74.02H18.5763V77.71H22.8783V79.33H18.5763ZM26.4794 78.34V73.516L28.5674 72.31H32.7614L34.8494 73.516V75.37H33.0494V73.93H28.2794V77.746H32.7614L34.8494 78.952V83.884L32.7614 85.09H28.3874L26.2994 83.884V82.03H28.0994V83.47H33.0494V79.546H28.5674L26.4794 78.34ZM42.3829 74.02V85H40.5829V74.02H37.0009V72.4H45.9649V74.02H42.3829ZM47.758 81.076V79.51H53.122V81.076H47.758ZM61.4826 72.4L65.9826 85H64.2186L63.1566 82.012H57.5766L56.5146 85H54.7506L59.2506 72.4H61.4826ZM60.3486 74.182L58.1526 80.392H62.5806L60.3846 74.182H60.3486ZM67.9638 85V72.4H74.2458L76.3338 73.606V78.952L74.2458 80.158H69.7638V85H67.9638ZM69.7638 74.02V78.538H74.5338V74.02H69.7638ZM79.2138 85V72.4H81.0138V85H79.2138Z" fill="#FFFDFD"/>
<path d="M36.0703 54.8917C32.027 53.7545 28.471 51.6607 25.3663 48.7365C24.3916 49.0794 23.3988 49.4224 22.388 49.7473C21.9187 49.8917 21.4494 49.8375 20.962 49.657C20.0956 49.3321 19.5721 48.7004 19.1931 47.9242C18.6696 46.8953 18.0017 45.9567 17.4783 44.9278C17.0089 43.9711 16.323 43.1408 15.9259 42.148C15.7274 41.6607 15.2039 41.3357 15.2039 40.722C14.7346 39.9639 15.1858 39.296 15.4566 38.6282C15.5288 38.4477 15.619 38.213 15.7815 38.1408C16.4313 37.852 16.7562 37.2022 17.2977 36.8051C17.5505 36.6245 17.8212 36.426 18.11 36.2094C17.6949 34.1336 17.3339 32.0578 17.3339 29.9278C17.3339 27.8159 17.7129 25.7762 18.11 23.7545C17.4061 23.1047 16.7562 22.4729 16.0703 21.8773C15.3663 21.2635 14.9512 20.5054 15.0414 19.7112C15.0956 19.278 15.2219 18.8087 15.4385 18.4477C16.1064 17.3827 16.7201 16.2635 17.37 15.1805C17.8934 14.3141 18.3447 13.4116 18.9223 12.5632C19.2292 12.13 19.4097 11.6245 19.7165 11.1733C20.3122 10.3249 21.5035 9.90975 22.4783 10.1986C23.3447 10.4513 24.157 10.8303 25.0414 10.9928C25.1317 11.0108 25.2039 11.1372 25.2941 11.2274C28.4169 8.3213 31.9728 6.24549 36.0523 5.0361C36.2147 4.54874 36.2508 4.02527 36.4494 3.51986C36.5938 3.14079 36.5577 2.67148 36.6299 2.25632C36.8284 1.17329 37.4963 0.541516 38.453 0.216606C38.7959 0.108303 39.1389 0 39.5541 0C42.0811 0.0361011 44.6082 0.0361011 47.1353 0C47.8573 0 48.471 0.288809 49.0487 0.613718C49.5721 0.884477 49.8609 1.46209 50.0053 2.00361C50.258 2.99639 50.4024 4.00722 50.601 5.05415C54.6624 6.20939 58.2183 8.2852 61.323 11.2094C62.2978 10.8664 63.2905 10.5235 64.3014 10.1986C64.7707 10.0542 65.24 10.1083 65.7274 10.2888C66.5938 10.6137 67.1172 11.2455 67.4963 12.0217C68.0198 13.0505 68.6876 13.9892 69.2111 15.0181C69.6804 15.9747 70.3663 16.8051 70.7635 17.7978C70.962 18.2852 71.4855 18.6101 71.4855 19.2238C71.9548 19.982 71.5035 20.6498 71.2328 21.3177C71.1606 21.4982 71.0703 21.7329 70.9079 21.8051C70.258 22.0939 69.9331 22.7437 69.3916 23.1408C69.1389 23.3213 68.8681 23.5199 68.5793 23.7365C68.9945 25.8123 69.3555 27.8881 69.3555 30.018C69.3555 32.13 69.0306 34.1697 68.5793 36.1913C69.2833 36.8412 69.9331 37.4729 70.6191 38.0686C71.323 38.6823 71.7382 39.4404 71.6479 40.2347C71.5938 40.6679 71.4855 41.1372 71.2508 41.4982C70.601 42.5451 69.9873 43.6282 69.3555 44.6931C68.5613 46.0108 67.9115 47.4368 66.9909 48.6823C66.8284 49.3682 66.1786 49.4224 65.7093 49.6751C65.2039 49.9458 64.6985 49.8736 64.1389 49.7112C63.3086 49.4765 62.5144 49.0614 61.6479 48.9531C61.5577 48.935 61.4855 48.8087 61.3952 48.7184C58.2725 51.6607 54.7346 53.7545 50.601 54.9278C50.4024 55.9025 50.2219 56.9134 50.0053 57.9061C49.7887 58.8809 49.1389 59.4946 48.2183 59.7834C47.8754 59.8917 47.5144 60 47.1172 60C44.5902 59.9639 42.0631 59.9639 39.536 60C38.814 60 38.2003 59.7112 37.6227 59.3863C37.0992 59.1155 36.7923 58.5379 36.684 57.9964C36.4855 56.9314 36.2869 55.9386 36.0703 54.8917ZM37.2436 38.9892C37.6046 38.7906 38.0198 38.6643 38.0378 38.231C38.0739 37.5812 38.1642 36.9134 38.0198 36.2996C37.7671 35.2527 37.3158 34.2419 37.045 33.1949C36.8645 32.5271 36.4674 31.8953 36.4855 31.1733C35.9079 29.7473 35.5468 28.2491 35.0595 26.8051C34.6624 25.6137 34.3736 24.3863 33.9403 23.213C33.7057 22.5632 33.6515 21.8412 33.2183 21.2635C33.1822 21.2094 33.1642 21.1733 33.1642 21.1733C32.6768 20.8484 32.1714 20.9567 31.7382 20.9567C31.4855 21.1913 31.2689 21.3899 31.0703 21.5704C31.0523 22.148 30.6371 22.5993 30.7093 23.1588C30.0775 24.5668 29.8068 26.083 29.2833 27.5271C29.0126 28.2671 28.8501 29.0253 28.6335 29.7834C28.4349 30.5415 28.0017 31.2274 28.0017 32.0397C27.3158 33.574 26.9728 35.2166 26.4674 36.8231C26.3411 37.2202 26.2689 37.5993 26.5216 37.9783C26.5938 38.0866 26.5577 38.2491 26.5577 38.231C26.8465 38.5379 27.0631 38.7545 27.2436 38.9711C27.5866 38.9711 27.9476 38.9711 28.3266 38.9711C28.5793 38.6462 28.832 38.3394 29.0667 38.0325C29.0126 37.0036 29.2292 36.3177 29.6985 35.2166C31.4674 35.2166 33.2364 35.2166 35.0053 35.2166C35.1497 35.7942 35.2219 36.3538 35.4205 36.8773C35.5107 37.0939 35.601 37.3105 35.5649 37.5271C35.5107 38.1949 35.7274 38.7184 36.4855 38.9711C36.666 38.9892 36.9367 38.9892 37.2436 38.9892ZM41.4674 38.9892C41.9548 38.9531 42.5144 39.0975 42.9115 38.7004C43.0559 38.5199 43.1822 38.3394 43.3627 38.0866C43.3627 36.2816 43.3627 34.3863 43.3627 32.491C44.6804 32.491 45.9801 32.4368 47.2617 32.509C48.0378 32.5451 48.6696 32.3105 49.2833 31.9314C49.5721 31.7509 49.8248 31.4801 50.0775 31.2274C50.7454 30.5776 51.0703 29.7834 51.0884 28.8448C51.0884 27.3646 51.0884 25.9025 51.0884 24.4224C51.0884 24.2058 51.0342 23.9711 50.9801 23.7545C50.7815 22.9783 50.3663 22.4007 49.8068 21.8953C49.157 21.2996 48.3988 20.9386 47.4963 20.9386C45.4746 20.9386 43.471 20.9386 41.4313 20.9386C41.2328 21.1552 41.0342 21.3718 40.7996 21.5884C40.7996 27.148 40.7996 32.7437 40.7996 38.3574C41.0342 38.556 41.2508 38.7726 41.4674 38.9892ZM54.4638 38.9892C55.7093 38.9892 56.9728 38.9892 58.2183 38.9892C58.4349 38.7726 58.6515 38.556 58.8681 38.3574C58.8681 38.0144 58.8681 37.6895 58.8681 37.3466C58.8681 37.3105 58.8681 37.2924 58.8681 37.2744C58.5974 36.769 58.1822 36.4621 57.6407 36.4079C57.6407 32.0939 57.6407 27.7978 57.6407 23.5921C58.0378 23.3935 58.3808 23.213 58.7779 22.9964C58.8321 22.5271 58.8681 22.0397 58.9043 21.6968C58.6154 21.3718 58.4169 21.1372 58.2544 20.9567C56.9548 20.9567 55.6913 20.9567 54.5721 20.9567C54.2653 21.2274 54.0487 21.426 53.7779 21.6787C53.832 22.1119 53.9042 22.5993 53.9584 23.0144C54.3916 23.231 54.7346 23.4116 55.0414 23.574C55.0414 27.87 55.0414 32.1661 55.0414 36.426C54.8609 36.4621 54.6624 36.426 54.5902 36.5162C54.3375 36.769 53.9043 36.8412 53.814 37.2563C53.814 37.6173 53.814 37.9783 53.814 38.3394C54.0306 38.556 54.2472 38.7726 54.4638 38.9892Z" fill="#B5E93B"/>
<path d="M34.0487 32.4546C32.9837 32.4907 31.8646 32.5088 30.7454 32.5449C30.7093 32.5449 30.6552 32.6171 30.5469 32.7073C30.5649 31.5882 31.1967 30.6857 31.2689 29.6568C31.8104 28.7543 31.8646 27.6893 32.2256 26.6785C32.3339 26.7868 32.4963 26.8951 32.4963 26.9853C32.5144 27.7615 32.9656 28.4294 33.1101 29.1694C33.2184 29.6749 33.5072 30.1622 33.5794 30.6676C33.6516 31.3175 34.0848 31.8048 34.0487 32.4546Z" fill="#B5E93B"/>
<path d="M48.5794 28.9534C48.4531 29.1519 48.3448 29.3505 48.2004 29.531C47.9476 29.8198 47.6227 29.9823 47.2076 29.9642C45.944 29.9462 44.6805 29.9642 43.3809 29.9642C43.3809 27.8162 43.3809 25.6682 43.3809 23.466C44.6985 23.466 46.0523 23.448 47.3881 23.466C48.0198 23.4841 48.5614 24.1339 48.5794 24.8198C48.5794 25.957 48.5794 27.0942 48.5794 28.2314C48.5794 28.4841 48.5794 28.7187 48.5794 28.9534Z" fill="#B5E93B"/>
</svg>
