<svg width="86" height="90" viewBox="0 0 86 90" fill="none" xmlns="http://www.w3.org/2000/svg">
<path d="M17.9276 78.34V73.516L20.0156 72.31H24.2096L26.2976 73.516V75.37H24.4976V73.93H19.7276V77.746H24.2096L26.2976 78.952V83.884L24.2096 85.09H19.8356L17.7476 83.884V82.03H19.5476V83.47H24.4976V79.546H20.0156L17.9276 78.34ZM31.0952 77.566V83.434H36.0992V85H31.4372L29.3492 83.794V77.206L31.4372 76H36.0992V77.566H31.0952ZM43.6349 77.566H40.3589V85H38.6129V76H39.9269L40.3589 76.738L41.6369 76H43.6349V77.566ZM45.6089 83.884V76H47.3549V83.524H51.5129V76H53.2589V85.09H51.9449L51.5129 84.352L50.2349 85.09H47.6969L45.6089 83.884ZM68.2522 77.116V85H66.5062V77.476H63.0682V85H61.3222V77.476H57.8842V85H56.1382V75.91H57.4522L57.8842 76.648L59.1622 75.91H60.9802L62.6542 76.882L64.3462 75.91H66.1642L68.2522 77.116Z" fill="#FFFDFD"/>
<path fill-rule="evenodd" clip-rule="evenodd" d="M73.6955 15.7639L68.0137 23.7083L62.3319 15.7639H65.4298C65.1937 9.86111 60.3176 5.13889 54.358 5.13889C49.3291 5.13889 45.0643 8.51389 43.7168 13.1111C42.0776 12.5833 40.3828 12.25 38.6602 12.0972C38.8546 11.3611 39.1047 10.625 39.4103 9.91667C40.2299 7.98611 41.3969 6.25 42.8833 4.76389C44.3697 3.27778 46.1062 2.09722 48.0372 1.29167C50.0376 0.430556 52.1631 0 54.358 0C56.5529 0 58.6784 0.430556 60.6788 1.27778C62.6098 2.09722 64.3463 3.26389 65.8327 4.75C67.3191 6.23611 68.4861 7.97222 69.3057 9.90278C70.0975 11.7639 70.5282 13.7361 70.5698 15.7639H73.6955Z" fill="#B5E93B"/>
<path fill-rule="evenodd" clip-rule="evenodd" d="M65.7497 59.9999V56.5832H46.1621C46.301 56.5138 46.4399 56.4582 46.5789 56.3888C48.7043 55.3749 50.6631 54.0554 52.4135 52.4443C52.6496 52.2221 52.8719 52.0138 53.0803 51.8054C53.3164 51.5693 53.5665 51.3193 53.8027 51.0554C54.0805 50.7499 54.3583 50.4304 54.6084 50.111H65.7497V46.6943L75.0573 53.3471L65.7497 59.9999Z" fill="#B5E93B"/>
<path fill-rule="evenodd" clip-rule="evenodd" d="M58.5251 35.3195C58.5251 38.2778 57.9416 41.1528 56.8025 43.8611C55.83 46.1667 54.4686 48.2778 52.7738 50.125C52.5515 50.3611 52.3293 50.5973 52.107 50.8334C51.8986 51.0417 51.6902 51.2361 51.4819 51.4445C49.8426 52.9584 48.0089 54.1945 46.0085 55.1528C45.7306 55.2917 45.4389 55.4167 45.1472 55.5417C45.1333 55.5417 45.1333 55.5556 45.1194 55.5556C43.4524 56.2639 41.6603 56.6111 39.8405 56.6111H10.9453V50.1528H37.7706C45.8834 50.1528 52.5377 43.6667 52.6488 35.5556C52.6488 35.4861 52.6488 35.4167 52.6488 35.3473C52.6488 26.4861 45.4528 19.2917 36.5898 19.2917C27.7267 19.2639 20.5307 26.4445 20.5307 35.3195H24.2538L17.5995 44.625L10.9453 35.3195H14.6683C14.6683 32.3611 15.2518 29.4861 16.3909 26.7778C17.5023 24.1667 19.0721 21.8195 21.0864 19.8056C23.1007 17.7917 25.4485 16.2084 28.0601 15.1111C30.7691 13.9722 33.6447 13.3889 36.6036 13.3889C37.201 13.3889 37.7845 13.4167 38.3679 13.4584C40.0905 13.5972 41.7714 13.9306 43.4107 14.4722C43.9941 14.6667 44.5637 14.875 45.1333 15.125C47.745 16.2361 50.0927 17.8056 52.107 19.8195C54.1213 21.8334 55.705 24.1806 56.8025 26.7917C57.9416 29.4861 58.5251 32.3611 58.5251 35.3195Z" fill="#B5E93B"/>
</svg>
