<svg width="89" height="90" viewBox="0 0 89 90" fill="none" xmlns="http://www.w3.org/2000/svg">
<path d="M5.38196 74.02V85H3.58196V74.02H-3.9041e-05V72.4H8.96396V74.02H5.38196ZM11.7651 88.6L13.3311 84.586L9.85707 76H11.6031L14.1591 82.408H14.1951L16.7331 76H18.4791L13.4751 88.6H11.7651ZM26.0131 85.09H23.2951L22.0171 84.352V88.6H20.2711V75.91H21.5851L22.0171 76.648L23.2951 75.91H26.0131L28.1011 77.116V83.884L26.0131 85.09ZM22.0171 77.476V83.524H26.3551V77.476H22.0171ZM38.0861 83.434V85H33.0641L30.9761 83.794V77.116L33.0641 75.91H35.9981L38.0861 77.116V81.112H32.7221V83.434H38.0861ZM32.7221 77.476V79.546H36.3401V77.476H32.7221ZM41.1405 78.34V73.516L43.2285 72.31H47.4225L49.5105 73.516V75.37H47.7105V73.93H42.9405V77.746H47.4225L49.5105 78.952V83.884L47.4225 85.09H43.0485L40.9605 83.884V82.03H42.7605V83.47H47.7105V79.546H43.2285L41.1405 78.34ZM54.3081 77.566V83.434H59.3121V85H54.6501L52.5621 83.794V77.206L54.6501 76H59.3121V77.566H54.3081ZM66.8477 77.566H63.5717V85H61.8257V76H63.1397L63.5717 76.738L64.8497 76H66.8477V77.566ZM70.5678 76V85H68.8218V76H70.5678ZM68.7318 73.786V71.86H70.6578V73.786H68.7318ZM79.1869 85.09H76.4689L75.1909 84.352V88.6H73.4449V75.91H74.7589L75.1909 76.648L76.4689 75.91H79.1869L81.2749 77.116V83.884L79.1869 85.09ZM75.1909 77.476V83.524H79.5289V77.476H75.1909ZM83.43 77.566V76H85.086V74.488L86.832 73.48V76H88.992V77.566H86.832V83.434H88.992V85H87.174L85.086 83.794V77.566H83.43Z" fill="#FFFDFD"/>
<path d="M74.1584 4.7749C73.7219 2.48295 71.9483 0.627558 69.6837 0.136426C69.5745 0.109141 69.4654 0.109141 69.329 0.0818554C69.3017 0.0818554 69.2744 0.0272851 69.2471 0H19.2062C19.1789 0.0272851 19.1516 0.0818554 19.097 0.0818554C16.8324 0.463847 14.9224 2.26467 14.404 4.55662C14.3767 4.63847 14.3221 4.74761 14.2676 4.85675V55.0341C14.2949 55.0887 14.3494 55.116 14.3494 55.1705C14.8951 57.6808 16.4231 59.236 18.9061 59.8636C18.9879 59.8909 19.0425 59.9454 19.097 60H69.329C69.3835 59.9727 69.4108 59.9181 69.4654 59.8909C71.9483 59.3179 73.4763 57.8172 74.1039 55.3342C74.1312 55.2524 74.1039 55.1432 74.1312 55.0614C74.1312 55.0341 74.1857 55.0068 74.213 54.9795V4.93861C74.213 4.88404 74.1584 4.85675 74.1584 4.7749ZM49.0561 33.2606H48.756C46.4913 33.2606 44.1994 33.2606 41.9347 33.2606C41.8256 33.2606 41.7164 33.2606 41.6073 33.2606C41.6073 33.2879 41.58 33.2879 41.58 33.3151C41.58 33.4243 41.58 33.5334 41.58 33.6426V54.6794H35.6045V33.2879H28.1011V28.513H49.0288V33.2606H49.0561ZM69.1925 47.5307C69.138 48.4584 69.0015 49.3588 68.6196 50.2319C68.5104 50.5048 68.4286 50.7503 68.2921 51.0232C67.801 52.06 66.9824 52.7967 66.0275 53.397C64.9361 54.0791 63.7355 54.4611 62.4804 54.7067C61.0889 54.9795 59.6973 55.0614 58.2785 55.0068C57.5964 54.9795 56.9142 54.9795 56.2321 54.8977C54.6223 54.7067 53.0397 54.352 51.5663 53.6426C51.4845 53.6153 51.3754 53.4789 51.3754 53.397C51.3754 51.6235 51.3754 49.8499 51.3754 48.0764C51.3754 48.0491 51.3754 48.0218 51.3754 47.9673C51.8119 48.2674 52.2485 48.5675 52.685 48.8131C53.7492 49.4407 54.9224 49.8772 56.123 50.1501C57.1598 50.3956 58.1966 50.4229 59.2335 50.3684C60.0247 50.3411 60.816 50.1501 61.5254 49.7954C62.153 49.4679 62.6714 49.0314 62.8078 48.2947C62.9442 47.6398 62.8897 46.985 62.5077 46.412C61.962 45.5935 61.198 45.075 60.3522 44.6385C59.3972 44.1746 58.4422 43.7653 57.4599 43.3288C56.0138 42.6739 54.595 41.9645 53.4217 40.8731C52.4668 39.9727 51.7573 38.9086 51.4299 37.6262C51.2389 36.8622 51.1844 36.0982 51.2116 35.3342C51.2389 33.4516 51.9211 31.8417 53.258 30.5048C54.3494 29.4134 55.6864 28.7585 57.1598 28.3765C58.1694 28.131 59.1789 27.94 60.2157 27.9127C60.9524 27.9127 61.6891 27.8308 62.3985 27.8581C63.5172 27.8854 64.6086 27.94 65.7 28.2128C66.4095 28.4038 67.1462 28.5948 67.8556 28.7585C67.992 28.7858 68.0466 28.8677 68.0466 29.0314C68.0466 30.7231 68.0466 32.442 68.0466 34.1337C68.0466 34.1883 68.0466 34.2428 68.0193 34.3247C67.801 34.1883 67.61 34.0791 67.419 33.97C66.5459 33.4789 65.6182 33.1514 64.6632 32.9059C63.5991 32.6603 62.535 32.4966 61.4436 32.5239C60.7069 32.5512 59.9429 32.6603 59.2608 32.9059C58.4149 33.206 57.7328 33.6971 57.4327 34.5975C57.1871 35.307 57.3781 35.9072 57.8146 36.4802C58.3604 37.1896 59.097 37.6808 59.8883 38.0628C60.9524 38.5812 62.0438 39.0177 63.0807 39.5089C64.2812 40.0819 65.4818 40.6548 66.4913 41.5007C67.3644 42.2374 68.1557 43.0559 68.5923 44.1473C68.8378 44.8022 69.0561 45.4843 69.0561 46.221C69.1653 46.6576 69.2198 47.0941 69.1925 47.5307Z" fill="#B5E93B"/>
</svg>
