<svg width="151" height="45" viewBox="0 0 151 45" fill="none" xmlns="http://www.w3.org/2000/svg">
<rect width="151" height="45" rx="22.5" fill="#B5E93B"/>
<path d="M37.76 25.2H39.36V27.008L37.504 28.08H33.296L31.44 27.008V17.792L33.296 16.72H37.504L39.36 17.792V19.6H37.76V18.16H33.04V26.64H37.76V25.2ZM48.7206 27.008L46.8646 28.08H43.7766L41.9206 27.008V20.992L43.7766 19.92H46.8646L48.7206 20.992V27.008ZM43.4726 21.312V26.688H47.1686V21.312H43.4726ZM58.08 20.992V28H56.528V21.312H52.832V28H51.28V19.92H52.448L52.832 20.576L53.968 19.92H56.224L58.08 20.992ZM59.9994 21.392V20H61.4714V18.656L63.0234 17.76V20H64.9434V21.392H63.0234V26.608H64.9434V28H63.3274L61.4714 26.928V21.392H59.9994ZM68.4183 24.72V26.688H71.6343V24.72H68.4183ZM68.7223 28.08L66.8663 27.008V24.4L68.7223 23.328H71.6343V21.392H67.6663V20H71.3303L73.1863 21.072V28.08H72.7703L71.6343 27.424L70.4983 28.08H68.7223ZM68.8663 18.56L70.3703 16.512H72.4503L70.1463 18.56H68.8663ZM77.3008 21.392V26.608H81.7488V28H77.6048L75.7488 26.928V21.072L77.6048 20H81.7488V21.392H77.3008ZM83.3431 21.392V20H84.8151V18.656L86.3671 17.76V20H88.2871V21.392H86.3671V26.608H88.2871V28H86.6711L84.8151 26.928V21.392H83.3431ZM91.762 24.72V26.688H94.978V24.72H91.762ZM92.066 28.08L90.21 27.008V24.4L92.066 23.328H94.978V21.392H91.01V20H94.674L96.53 21.072V28.08H96.114L94.978 27.424L93.842 28.08H92.066ZM109.861 20.992V28H108.309V21.312H105.253V28H103.701V21.312H100.645V28H99.0925V19.92H100.261L100.645 20.576L101.781 19.92H103.397L104.885 20.784L106.389 19.92H108.005L109.861 20.992ZM118.741 26.608V28H114.277L112.421 26.928V20.992L114.277 19.92H116.885L118.741 20.992V24.544H113.973V26.608H118.741ZM113.973 21.312V23.152H117.189V21.312H113.973Z" fill="#252525"/>
</svg>
