<svg width="137" height="25" viewBox="0 0 137 25" fill="none" xmlns="http://www.w3.org/2000/svg">
<mask id="path-1-outside-1_3129_3466" maskUnits="userSpaceOnUse" x="-0.719727" y="-0.440002" width="138" height="26" fill="black">
<rect fill="white" x="-0.719727" y="-0.440002" width="138" height="26"/>
<path d="M13.0003 17H17.4803V21.576L13.7683 23.72H4.71227L1.00027 21.576V3.144L4.71227 0.999996H13.7683L17.4803 3.144V7.72H13.0003V4.84H5.48027V19.88H13.0003V17ZM36.514 21.576L32.802 23.72H25.986L22.274 21.576V9.544L25.986 7.4H32.802L36.514 9.544V21.576ZM26.658 11.144V19.976H32.13V11.144H26.658ZM55.5453 9.544V23.56H51.1613V11.144H45.6893V23.56H41.3053V7.4H44.9213L45.6893 8.712L47.9613 7.4H51.8333L55.5453 9.544ZM59.0565 11.304V7.56H62.0005V4.872L66.3845 2.344V7.56H69.9045V11.304H66.3845V19.816H69.9045V23.56H65.7125L62.0005 21.416V11.304H59.0565ZM77.7993 17.256V20.04H82.3113V17.256H77.7993ZM77.1273 23.72L73.4153 21.576V16.04L77.1273 13.896H82.3113V11.304H75.0153V7.56H82.9833L86.6953 9.704V23.72H84.5833L82.3113 22.408L80.0393 23.72H77.1273ZM95.8768 11.304V19.816H103.813V23.56H95.2048L91.4928 21.416V9.704L95.2048 7.56H103.813V11.304H95.8768ZM106.682 11.304V7.56H109.626V4.872L114.01 2.344V7.56H117.53V11.304H114.01V19.816H117.53V23.56H113.338L109.626 21.416V11.304H106.682ZM135.92 21.576L132.208 23.72H125.392L121.68 21.576V9.544L125.392 7.4H132.208L135.92 9.544V21.576ZM126.064 11.144V19.976H131.536V11.144H126.064Z"/>
</mask>
<path d="M13.0003 17V16H12.0003V17H13.0003ZM17.4803 17H18.4803V16H17.4803V17ZM17.4803 21.576L17.9804 22.4419L18.4803 22.1532V21.576H17.4803ZM13.7683 23.72V24.72H14.0363L14.2684 24.5859L13.7683 23.72ZM4.71227 23.72L4.21212 24.5859L4.44423 24.72H4.71227V23.72ZM1.00027 21.576H0.000273466V22.1532L0.50012 22.4419L1.00027 21.576ZM1.00027 3.144L0.50012 2.27806L0.000273466 2.56676V3.144H1.00027ZM4.71227 0.999996V-3.8147e-06H4.44423L4.21212 0.13406L4.71227 0.999996ZM13.7683 0.999996L14.2684 0.13406L14.0363 -3.8147e-06H13.7683V0.999996ZM17.4803 3.144H18.4803V2.56676L17.9804 2.27806L17.4803 3.144ZM17.4803 7.72V8.72H18.4803V7.72H17.4803ZM13.0003 7.72H12.0003V8.72H13.0003V7.72ZM13.0003 4.84H14.0003V3.84H13.0003V4.84ZM5.48027 4.84V3.84H4.48027V4.84H5.48027ZM5.48027 19.88H4.48027V20.88H5.48027V19.88ZM13.0003 19.88V20.88H14.0003V19.88H13.0003ZM13.0003 17V18H17.4803V17V16H13.0003V17ZM17.4803 17H16.4803V21.576H17.4803H18.4803V17H17.4803ZM17.4803 21.576L16.9801 20.7101L13.2681 22.8541L13.7683 23.72L14.2684 24.5859L17.9804 22.4419L17.4803 21.576ZM13.7683 23.72V22.72H4.71227V23.72V24.72H13.7683V23.72ZM4.71227 23.72L5.21243 22.8541L1.50043 20.7101L1.00027 21.576L0.50012 22.4419L4.21212 24.5859L4.71227 23.72ZM1.00027 21.576H2.00027V3.144H1.00027H0.000273466V21.576H1.00027ZM1.00027 3.144L1.50043 4.00993L5.21243 1.86593L4.71227 0.999996L4.21212 0.13406L0.50012 2.27806L1.00027 3.144ZM4.71227 0.999996V2H13.7683V0.999996V-3.8147e-06H4.71227V0.999996ZM13.7683 0.999996L13.2681 1.86593L16.9801 4.00993L17.4803 3.144L17.9804 2.27806L14.2684 0.13406L13.7683 0.999996ZM17.4803 3.144H16.4803V7.72H17.4803H18.4803V3.144H17.4803ZM17.4803 7.72V6.72H13.0003V7.72V8.72H17.4803V7.72ZM13.0003 7.72H14.0003V4.84H13.0003H12.0003V7.72H13.0003ZM13.0003 4.84V3.84H5.48027V4.84V5.84H13.0003V4.84ZM5.48027 4.84H4.48027V19.88H5.48027H6.48027V4.84H5.48027ZM5.48027 19.88V20.88H13.0003V19.88V18.88H5.48027V19.88ZM13.0003 19.88H14.0003V17H13.0003H12.0003V19.88H13.0003ZM36.514 21.576L37.0142 22.4419L37.514 22.1532V21.576H36.514ZM32.802 23.72V24.72H33.0701L33.3022 24.5859L32.802 23.72ZM25.986 23.72L25.4859 24.5859L25.718 24.72H25.986V23.72ZM22.274 21.576H21.274V22.1532L21.7739 22.4419L22.274 21.576ZM22.274 9.544L21.7739 8.67806L21.274 8.96676V9.544H22.274ZM25.986 7.4V6.4H25.718L25.4859 6.53406L25.986 7.4ZM32.802 7.4L33.3022 6.53406L33.0701 6.4H32.802V7.4ZM36.514 9.544H37.514V8.96676L37.0142 8.67806L36.514 9.544ZM26.658 11.144V10.144H25.658V11.144H26.658ZM26.658 19.976H25.658V20.976H26.658V19.976ZM32.13 19.976V20.976H33.13V19.976H32.13ZM32.13 11.144H33.13V10.144H32.13V11.144ZM36.514 21.576L36.0139 20.7101L32.3019 22.8541L32.802 23.72L33.3022 24.5859L37.0142 22.4419L36.514 21.576ZM32.802 23.72V22.72H25.986V23.72V24.72H32.802V23.72ZM25.986 23.72L26.4862 22.8541L22.7742 20.7101L22.274 21.576L21.7739 22.4419L25.4859 24.5859L25.986 23.72ZM22.274 21.576H23.274V9.544H22.274H21.274V21.576H22.274ZM22.274 9.544L22.7742 10.4099L26.4862 8.26593L25.986 7.4L25.4859 6.53406L21.7739 8.67806L22.274 9.544ZM25.986 7.4V8.4H32.802V7.4V6.4H25.986V7.4ZM32.802 7.4L32.3019 8.26593L36.0139 10.4099L36.514 9.544L37.0142 8.67806L33.3022 6.53406L32.802 7.4ZM36.514 9.544H35.514V21.576H36.514H37.514V9.544H36.514ZM26.658 11.144H25.658V19.976H26.658H27.658V11.144H26.658ZM26.658 19.976V20.976H32.13V19.976V18.976H26.658V19.976ZM32.13 19.976H33.13V11.144H32.13H31.13V19.976H32.13ZM32.13 11.144V10.144H26.658V11.144V12.144H32.13V11.144ZM55.5453 9.544H56.5453V8.96676L56.0454 8.67806L55.5453 9.544ZM55.5453 23.56V24.56H56.5453V23.56H55.5453ZM51.1613 23.56H50.1613V24.56H51.1613V23.56ZM51.1613 11.144H52.1613V10.144H51.1613V11.144ZM45.6893 11.144V10.144H44.6893V11.144H45.6893ZM45.6893 23.56V24.56H46.6893V23.56H45.6893ZM41.3053 23.56H40.3053V24.56H41.3053V23.56ZM41.3053 7.4V6.4H40.3053V7.4H41.3053ZM44.9213 7.4L45.7843 6.89482L45.4946 6.4H44.9213V7.4ZM45.6893 8.712L44.8263 9.21718L45.3285 10.0751L46.1893 9.57798L45.6893 8.712ZM47.9613 7.4V6.4H47.6933L47.4612 6.53402L47.9613 7.4ZM51.8333 7.4L52.3334 6.53406L52.1013 6.4H51.8333V7.4ZM55.5453 9.544H54.5453V23.56H55.5453H56.5453V9.544H55.5453ZM55.5453 23.56V22.56H51.1613V23.56V24.56H55.5453V23.56ZM51.1613 23.56H52.1613V11.144H51.1613H50.1613V23.56H51.1613ZM51.1613 11.144V10.144H45.6893V11.144V12.144H51.1613V11.144ZM45.6893 11.144H44.6893V23.56H45.6893H46.6893V11.144H45.6893ZM45.6893 23.56V22.56H41.3053V23.56V24.56H45.6893V23.56ZM41.3053 23.56H42.3053V7.4H41.3053H40.3053V23.56H41.3053ZM41.3053 7.4V8.4H44.9213V7.4V6.4H41.3053V7.4ZM44.9213 7.4L44.0583 7.90518L44.8263 9.21718L45.6893 8.712L46.5523 8.20682L45.7843 6.89482L44.9213 7.4ZM45.6893 8.712L46.1893 9.57798L48.4613 8.26598L47.9613 7.4L47.4612 6.53402L45.1892 7.84601L45.6893 8.712ZM47.9613 7.4V8.4H51.8333V7.4V6.4H47.9613V7.4ZM51.8333 7.4L51.3331 8.26593L55.0451 10.4099L55.5453 9.544L56.0454 8.67806L52.3334 6.53406L51.8333 7.4ZM59.0565 11.304H58.0565V12.304H59.0565V11.304ZM59.0565 7.56V6.56H58.0565V7.56H59.0565ZM62.0005 7.56V8.56H63.0005V7.56H62.0005ZM62.0005 4.872L61.501 4.0057L61.0005 4.29429V4.872H62.0005ZM66.3845 2.344H67.3845V0.613007L65.885 1.47771L66.3845 2.344ZM66.3845 7.56H65.3845V8.56H66.3845V7.56ZM69.9045 7.56H70.9045V6.56H69.9045V7.56ZM69.9045 11.304V12.304H70.9045V11.304H69.9045ZM66.3845 11.304V10.304H65.3845V11.304H66.3845ZM66.3845 19.816H65.3845V20.816H66.3845V19.816ZM69.9045 19.816H70.9045V18.816H69.9045V19.816ZM69.9045 23.56V24.56H70.9045V23.56H69.9045ZM65.7125 23.56L65.2124 24.4259L65.4445 24.56H65.7125V23.56ZM62.0005 21.416H61.0005V21.9932L61.5004 22.2819L62.0005 21.416ZM62.0005 11.304H63.0005V10.304H62.0005V11.304ZM59.0565 11.304H60.0565V7.56H59.0565H58.0565V11.304H59.0565ZM59.0565 7.56V8.56H62.0005V7.56V6.56H59.0565V7.56ZM62.0005 7.56H63.0005V4.872H62.0005H61.0005V7.56H62.0005ZM62.0005 4.872L62.5001 5.73829L66.8841 3.21029L66.3845 2.344L65.885 1.47771L61.501 4.0057L62.0005 4.872ZM66.3845 2.344H65.3845V7.56H66.3845H67.3845V2.344H66.3845ZM66.3845 7.56V8.56H69.9045V7.56V6.56H66.3845V7.56ZM69.9045 7.56H68.9045V11.304H69.9045H70.9045V7.56H69.9045ZM69.9045 11.304V10.304H66.3845V11.304V12.304H69.9045V11.304ZM66.3845 11.304H65.3845V19.816H66.3845H67.3845V11.304H66.3845ZM66.3845 19.816V20.816H69.9045V19.816V18.816H66.3845V19.816ZM69.9045 19.816H68.9045V23.56H69.9045H70.9045V19.816H69.9045ZM69.9045 23.56V22.56H65.7125V23.56V24.56H69.9045V23.56ZM65.7125 23.56L66.2127 22.6941L62.5007 20.5501L62.0005 21.416L61.5004 22.2819L65.2124 24.4259L65.7125 23.56ZM62.0005 21.416H63.0005V11.304H62.0005H61.0005V21.416H62.0005ZM62.0005 11.304V10.304H59.0565V11.304V12.304H62.0005V11.304ZM77.7993 17.256V16.256H76.7993V17.256H77.7993ZM77.7993 20.04H76.7993V21.04H77.7993V20.04ZM82.3113 20.04V21.04H83.3113V20.04H82.3113ZM82.3113 17.256H83.3113V16.256H82.3113V17.256ZM77.1273 23.72L76.6271 24.5859L76.8592 24.72H77.1273V23.72ZM73.4153 21.576H72.4153V22.1532L72.9151 22.4419L73.4153 21.576ZM73.4153 16.04L72.9151 15.1741L72.4153 15.4628V16.04H73.4153ZM77.1273 13.896V12.896H76.8592L76.6271 13.0301L77.1273 13.896ZM82.3113 13.896V14.896H83.3113V13.896H82.3113ZM82.3113 11.304H83.3113V10.304H82.3113V11.304ZM75.0153 11.304H74.0153V12.304H75.0153V11.304ZM75.0153 7.56V6.56H74.0153V7.56H75.0153ZM82.9833 7.56L83.4834 6.69406L83.2513 6.56H82.9833V7.56ZM86.6953 9.704H87.6953V9.12676L87.1954 8.83806L86.6953 9.704ZM86.6953 23.72V24.72H87.6953V23.72H86.6953ZM84.5833 23.72L84.0832 24.586L84.3153 24.72H84.5833V23.72ZM82.3113 22.408L82.8113 21.542L82.3113 21.2532L81.8112 21.542L82.3113 22.408ZM80.0393 23.72V24.72H80.3073L80.5394 24.586L80.0393 23.72ZM77.7993 17.256H76.7993V20.04H77.7993H78.7993V17.256H77.7993ZM77.7993 20.04V21.04H82.3113V20.04V19.04H77.7993V20.04ZM82.3113 20.04H83.3113V17.256H82.3113H81.3113V20.04H82.3113ZM82.3113 17.256V16.256H77.7993V17.256V18.256H82.3113V17.256ZM77.1273 23.72L77.6274 22.8541L73.9154 20.7101L73.4153 21.576L72.9151 22.4419L76.6271 24.5859L77.1273 23.72ZM73.4153 21.576H74.4153V16.04H73.4153H72.4153V21.576H73.4153ZM73.4153 16.04L73.9154 16.9059L77.6274 14.7619L77.1273 13.896L76.6271 13.0301L72.9151 15.1741L73.4153 16.04ZM77.1273 13.896V14.896H82.3113V13.896V12.896H77.1273V13.896ZM82.3113 13.896H83.3113V11.304H82.3113H81.3113V13.896H82.3113ZM82.3113 11.304V10.304H75.0153V11.304V12.304H82.3113V11.304ZM75.0153 11.304H76.0153V7.56H75.0153H74.0153V11.304H75.0153ZM75.0153 7.56V8.56H82.9833V7.56V6.56H75.0153V7.56ZM82.9833 7.56L82.4831 8.42593L86.1951 10.5699L86.6953 9.704L87.1954 8.83806L83.4834 6.69406L82.9833 7.56ZM86.6953 9.704H85.6953V23.72H86.6953H87.6953V9.704H86.6953ZM86.6953 23.72V22.72H84.5833V23.72V24.72H86.6953V23.72ZM84.5833 23.72L85.0834 22.854L82.8113 21.542L82.3113 22.408L81.8112 23.274L84.0832 24.586L84.5833 23.72ZM82.3113 22.408L81.8112 21.542L79.5392 22.854L80.0393 23.72L80.5394 24.586L82.8113 23.274L82.3113 22.408ZM80.0393 23.72V22.72H77.1273V23.72V24.72H80.0393V23.72ZM95.8768 11.304V10.304H94.8768V11.304H95.8768ZM95.8768 19.816H94.8768V20.816H95.8768V19.816ZM103.813 19.816H104.813V18.816H103.813V19.816ZM103.813 23.56V24.56H104.813V23.56H103.813ZM95.2048 23.56L94.7046 24.4259L94.9367 24.56H95.2048V23.56ZM91.4928 21.416H90.4928V21.9932L90.9926 22.2819L91.4928 21.416ZM91.4928 9.704L90.9926 8.83806L90.4928 9.12676V9.704H91.4928ZM95.2048 7.56V6.56H94.9367L94.7046 6.69406L95.2048 7.56ZM103.813 7.56H104.813V6.56H103.813V7.56ZM103.813 11.304V12.304H104.813V11.304H103.813ZM95.8768 11.304H94.8768V19.816H95.8768H96.8768V11.304H95.8768ZM95.8768 19.816V20.816H103.813V19.816V18.816H95.8768V19.816ZM103.813 19.816H102.813V23.56H103.813H104.813V19.816H103.813ZM103.813 23.56V22.56H95.2048V23.56V24.56H103.813V23.56ZM95.2048 23.56L95.7049 22.6941L91.9929 20.5501L91.4928 21.416L90.9926 22.2819L94.7046 24.4259L95.2048 23.56ZM91.4928 21.416H92.4928V9.704H91.4928H90.4928V21.416H91.4928ZM91.4928 9.704L91.9929 10.5699L95.7049 8.42593L95.2048 7.56L94.7046 6.69406L90.9926 8.83806L91.4928 9.704ZM95.2048 7.56V8.56H103.813V7.56V6.56H95.2048V7.56ZM103.813 7.56H102.813V11.304H103.813H104.813V7.56H103.813ZM103.813 11.304V10.304H95.8768V11.304V12.304H103.813V11.304ZM106.682 11.304H105.682V12.304H106.682V11.304ZM106.682 7.56V6.56H105.682V7.56H106.682ZM109.626 7.56V8.56H110.626V7.56H109.626ZM109.626 4.872L109.126 4.0057L108.626 4.29429V4.872H109.626ZM114.01 2.344H115.01V0.613007L113.51 1.47771L114.01 2.344ZM114.01 7.56H113.01V8.56H114.01V7.56ZM117.53 7.56H118.53V6.56H117.53V7.56ZM117.53 11.304V12.304H118.53V11.304H117.53ZM114.01 11.304V10.304H113.01V11.304H114.01ZM114.01 19.816H113.01V20.816H114.01V19.816ZM117.53 19.816H118.53V18.816H117.53V19.816ZM117.53 23.56V24.56H118.53V23.56H117.53ZM113.338 23.56L112.837 24.4259L113.069 24.56H113.338V23.56ZM109.626 21.416H108.626V21.9932L109.125 22.2819L109.626 21.416ZM109.626 11.304H110.626V10.304H109.626V11.304ZM106.682 11.304H107.682V7.56H106.682H105.682V11.304H106.682ZM106.682 7.56V8.56H109.626V7.56V6.56H106.682V7.56ZM109.626 7.56H110.626V4.872H109.626H108.626V7.56H109.626ZM109.626 4.872L110.125 5.73829L114.509 3.21029L114.01 2.344L113.51 1.47771L109.126 4.0057L109.626 4.872ZM114.01 2.344H113.01V7.56H114.01H115.01V2.344H114.01ZM114.01 7.56V8.56H117.53V7.56V6.56H114.01V7.56ZM117.53 7.56H116.53V11.304H117.53H118.53V7.56H117.53ZM117.53 11.304V10.304H114.01V11.304V12.304H117.53V11.304ZM114.01 11.304H113.01V19.816H114.01H115.01V11.304H114.01ZM114.01 19.816V20.816H117.53V19.816V18.816H114.01V19.816ZM117.53 19.816H116.53V23.56H117.53H118.53V19.816H117.53ZM117.53 23.56V22.56H113.338V23.56V24.56H117.53V23.56ZM113.338 23.56L113.838 22.6941L110.126 20.5501L109.626 21.416L109.125 22.2819L112.837 24.4259L113.338 23.56ZM109.626 21.416H110.626V11.304H109.626H108.626V21.416H109.626ZM109.626 11.304V10.304H106.682V11.304V12.304H109.626V11.304ZM135.92 21.576L136.42 22.4419L136.92 22.1532V21.576H135.92ZM132.208 23.72V24.72H132.476L132.708 24.5859L132.208 23.72ZM125.392 23.72L124.892 24.5859L125.124 24.72H125.392V23.72ZM121.68 21.576H120.68V22.1532L121.18 22.4419L121.68 21.576ZM121.68 9.544L121.18 8.67806L120.68 8.96676V9.544H121.68ZM125.392 7.4V6.4H125.124L124.892 6.53406L125.392 7.4ZM132.208 7.4L132.708 6.53406L132.476 6.4H132.208V7.4ZM135.92 9.544H136.92V8.96676L136.42 8.67806L135.92 9.544ZM126.064 11.144V10.144H125.064V11.144H126.064ZM126.064 19.976H125.064V20.976H126.064V19.976ZM131.536 19.976V20.976H132.536V19.976H131.536ZM131.536 11.144H132.536V10.144H131.536V11.144ZM135.92 21.576L135.42 20.7101L131.708 22.8541L132.208 23.72L132.708 24.5859L136.42 22.4419L135.92 21.576ZM132.208 23.72V22.72H125.392V23.72V24.72H132.208V23.72ZM125.392 23.72L125.892 22.8541L122.18 20.7101L121.68 21.576L121.18 22.4419L124.892 24.5859L125.392 23.72ZM121.68 21.576H122.68V9.544H121.68H120.68V21.576H121.68ZM121.68 9.544L122.18 10.4099L125.892 8.26593L125.392 7.4L124.892 6.53406L121.18 8.67806L121.68 9.544ZM125.392 7.4V8.4H132.208V7.4V6.4H125.392V7.4ZM132.208 7.4L131.708 8.26593L135.42 10.4099L135.92 9.544L136.42 8.67806L132.708 6.53406L132.208 7.4ZM135.92 9.544H134.92V21.576H135.92H136.92V9.544H135.92ZM126.064 11.144H125.064V19.976H126.064H127.064V11.144H126.064ZM126.064 19.976V20.976H131.536V19.976V18.976H126.064V19.976ZM131.536 19.976H132.536V11.144H131.536H130.536V19.976H131.536ZM131.536 11.144V10.144H126.064V11.144V12.144H131.536V11.144Z" fill="#B5E93B" mask="url(#path-1-outside-1_3129_3466)"/>
</svg>
