<svg width="174" height="44" viewBox="0 0 174 44" fill="none" xmlns="http://www.w3.org/2000/svg">
<path d="M6.71992 19.2001V27.8401H20.1119V33.6001H-7.80821e-05V9.53674e-05H20.1119V5.7601H6.71992V13.4401H17.2319V19.2001H6.71992ZM44.8717 21.7921V30.3841L39.3037 33.6001H25.8637V27.9841H38.2957V24.2881H31.4317L25.8637 21.0721V12.8161L31.4317 9.6001H44.3917V15.2161H32.4397V18.5761H39.3037L44.8717 21.7921ZM50.1468 15.2161V9.6001H54.5628V5.5681L61.1388 1.7761V9.6001H66.4188V15.2161H61.1388V27.9841H66.4188V33.6001H60.1308L54.5628 30.3841V15.2161H50.1468ZM94.0049 30.6241L88.4369 33.8401H78.2129L72.6449 30.6241V12.5761L78.2129 9.3601H88.4369L94.0049 12.5761V30.6241ZM79.2209 14.9761V28.2241H87.4289V14.9761H79.2209ZM103.064 43.2001L107.48 31.9201L98.3118 9.6001H104.888L110.792 23.7121H110.888L116.456 9.6001H123.032L109.544 43.2001H103.064ZM128.308 33.6001V24.4801H137.428V33.6001H128.308ZM146.542 33.6001V24.4801H155.662V33.6001H146.542ZM164.777 33.6001V24.4801H173.897V33.6001H164.777Z" fill="#B5E93B"/>
</svg>
