<svg width="178" height="26" viewBox="0 0 178 26" fill="none" xmlns="http://www.w3.org/2000/svg">
<mask id="path-1-outside-1_3129_3500" maskUnits="userSpaceOnUse" x="-0.719727" y="-0.639893" width="179" height="27" fill="black">
<rect fill="white" x="-0.719727" y="-0.639893" width="179" height="27"/>
<path d="M5.48027 14.7601V24.3601H1.00027V1.96011H5.48027V10.9201H14.2803V1.96011H18.7603V24.3601H14.2803V14.7601H5.48027ZM27.6118 18.0561V20.8401H32.1238V18.0561H27.6118ZM26.9398 24.5201L23.2278 22.3761V16.8401L26.9398 14.6961H32.1238V12.1041H24.8278V8.36011H32.7958L36.5078 10.5041V24.5201H34.3958L32.1238 23.2081L29.8518 24.5201H26.9398ZM47.9613 8.20011H52.1533L55.8653 10.3441V22.3761L52.1533 24.5201H47.9613L45.6893 23.2081L43.4173 24.5201H41.3053V1.00011H45.6893V9.51211L47.9613 8.20011ZM45.6893 11.9441V20.7761H51.4813V11.9441H45.6893ZM65.0643 8.36011V24.3601H60.6803V8.36011H65.0643ZM60.5203 5.38411V1.00011H65.2243V5.38411H60.5203ZM73.5798 24.3601L69.8678 22.2161V1.00011H74.2518V20.6161H77.4518V24.3601H73.5798ZM84.7205 8.36011V24.3601H80.3365V8.36011H84.7205ZM80.1765 5.38411V1.00011H84.8805V5.38411H80.1765ZM93.236 8.20011H97.428L99.7 9.51211V1.00011H104.084V24.5201H100.468L99.7 23.2081L97.428 24.5201H93.236L89.524 22.3761V10.3441L93.236 8.20011ZM99.7 20.7761V11.9441H93.908V20.7761H99.7ZM112.643 18.0561V20.8401H117.155V18.0561H112.643ZM111.971 24.5201L108.259 22.3761V16.8401L111.971 14.6961H117.155V12.1041H109.859V8.36011H117.827L121.539 10.5041V24.5201H119.427L117.155 23.2081L114.883 24.5201H111.971ZM130.049 8.20011H134.241L136.513 9.51211V1.00011H140.897V24.5201H137.281L136.513 23.2081L134.241 24.5201H130.049L126.337 22.3761V10.3441L130.049 8.20011ZM136.513 20.7761V11.9441H130.721V20.7761H136.513ZM158.992 20.6161V24.3601H149.424L145.712 22.2161V10.3441L149.424 8.20011H155.28L158.992 10.3441V17.9921H150.096V20.6161H158.992ZM150.096 11.9441V14.6961H154.608V11.9441H150.096ZM176.477 16.4881V22.2161L172.765 24.3601H163.805V20.6161H172.093V18.1521H167.517L163.805 16.0081V10.5041L167.517 8.36011H176.157V12.1041H168.189V14.3441H172.765L176.477 16.4881Z"/>
</mask>
<path d="M5.48027 14.7601V13.7601H4.48027V14.7601H5.48027ZM5.48027 24.3601V25.3601H6.48027V24.3601H5.48027ZM1.00027 24.3601H0.000273466V25.3601H1.00027V24.3601ZM1.00027 1.96011V0.960106H0.000273466V1.96011H1.00027ZM5.48027 1.96011H6.48027V0.960106H5.48027V1.96011ZM5.48027 10.9201H4.48027V11.9201H5.48027V10.9201ZM14.2803 10.9201V11.9201H15.2803V10.9201H14.2803ZM14.2803 1.96011V0.960106H13.2803V1.96011H14.2803ZM18.7603 1.96011H19.7603V0.960106H18.7603V1.96011ZM18.7603 24.3601V25.3601H19.7603V24.3601H18.7603ZM14.2803 24.3601H13.2803V25.3601H14.2803V24.3601ZM14.2803 14.7601H15.2803V13.7601H14.2803V14.7601ZM5.48027 14.7601H4.48027V24.3601H5.48027H6.48027V14.7601H5.48027ZM5.48027 24.3601V23.3601H1.00027V24.3601V25.3601H5.48027V24.3601ZM1.00027 24.3601H2.00027V1.96011H1.00027H0.000273466V24.3601H1.00027ZM1.00027 1.96011V2.96011H5.48027V1.96011V0.960106H1.00027V1.96011ZM5.48027 1.96011H4.48027V10.9201H5.48027H6.48027V1.96011H5.48027ZM5.48027 10.9201V11.9201H14.2803V10.9201V9.92011H5.48027V10.9201ZM14.2803 10.9201H15.2803V1.96011H14.2803H13.2803V10.9201H14.2803ZM14.2803 1.96011V2.96011H18.7603V1.96011V0.960106H14.2803V1.96011ZM18.7603 1.96011H17.7603V24.3601H18.7603H19.7603V1.96011H18.7603ZM18.7603 24.3601V23.3601H14.2803V24.3601V25.3601H18.7603V24.3601ZM14.2803 24.3601H15.2803V14.7601H14.2803H13.2803V24.3601H14.2803ZM14.2803 14.7601V13.7601H5.48027V14.7601V15.7601H14.2803V14.7601ZM27.6118 18.0561V17.0561H26.6118V18.0561H27.6118ZM27.6118 20.8401H26.6118V21.8401H27.6118V20.8401ZM32.1238 20.8401V21.8401H33.1238V20.8401H32.1238ZM32.1238 18.0561H33.1238V17.0561H32.1238V18.0561ZM26.9398 24.5201L26.4396 25.386L26.6717 25.5201H26.9398V24.5201ZM23.2278 22.3761H22.2278V22.9533L22.7276 23.242L23.2278 22.3761ZM23.2278 16.8401L22.7276 15.9742L22.2278 16.2629V16.8401H23.2278ZM26.9398 14.6961V13.6961H26.6717L26.4396 13.8302L26.9398 14.6961ZM32.1238 14.6961V15.6961H33.1238V14.6961H32.1238ZM32.1238 12.1041H33.1238V11.1041H32.1238V12.1041ZM24.8278 12.1041H23.8278V13.1041H24.8278V12.1041ZM24.8278 8.36011V7.36011H23.8278V8.36011H24.8278ZM32.7958 8.36011L33.2959 7.49417L33.0638 7.36011H32.7958V8.36011ZM36.5078 10.5041H37.5078V9.92687L37.0079 9.63817L36.5078 10.5041ZM36.5078 24.5201V25.5201H37.5078V24.5201H36.5078ZM34.3958 24.5201L33.8957 25.3861L34.1278 25.5201H34.3958V24.5201ZM32.1238 23.2081L32.6238 22.3421L32.1238 22.0533L31.6237 22.3421L32.1238 23.2081ZM29.8518 24.5201V25.5201H30.1198L30.3518 25.3861L29.8518 24.5201ZM27.6118 18.0561H26.6118V20.8401H27.6118H28.6118V18.0561H27.6118ZM27.6118 20.8401V21.8401H32.1238V20.8401V19.8401H27.6118V20.8401ZM32.1238 20.8401H33.1238V18.0561H32.1238H31.1238V20.8401H32.1238ZM32.1238 18.0561V17.0561H27.6118V18.0561V19.0561H32.1238V18.0561ZM26.9398 24.5201L27.4399 23.6542L23.7279 21.5102L23.2278 22.3761L22.7276 23.242L26.4396 25.386L26.9398 24.5201ZM23.2278 22.3761H24.2278V16.8401H23.2278H22.2278V22.3761H23.2278ZM23.2278 16.8401L23.7279 17.706L27.4399 15.562L26.9398 14.6961L26.4396 13.8302L22.7276 15.9742L23.2278 16.8401ZM26.9398 14.6961V15.6961H32.1238V14.6961V13.6961H26.9398V14.6961ZM32.1238 14.6961H33.1238V12.1041H32.1238H31.1238V14.6961H32.1238ZM32.1238 12.1041V11.1041H24.8278V12.1041V13.1041H32.1238V12.1041ZM24.8278 12.1041H25.8278V8.36011H24.8278H23.8278V12.1041H24.8278ZM24.8278 8.36011V9.36011H32.7958V8.36011V7.36011H24.8278V8.36011ZM32.7958 8.36011L32.2956 9.22604L36.0076 11.37L36.5078 10.5041L37.0079 9.63817L33.2959 7.49417L32.7958 8.36011ZM36.5078 10.5041H35.5078V24.5201H36.5078H37.5078V10.5041H36.5078ZM36.5078 24.5201V23.5201H34.3958V24.5201V25.5201H36.5078V24.5201ZM34.3958 24.5201L34.8958 23.6541L32.6238 22.3421L32.1238 23.2081L31.6237 24.0741L33.8957 25.3861L34.3958 24.5201ZM32.1238 23.2081L31.6237 22.3421L29.3517 23.6541L29.8518 24.5201L30.3518 25.3861L32.6238 24.0741L32.1238 23.2081ZM29.8518 24.5201V23.5201H26.9398V24.5201V25.5201H29.8518V24.5201ZM47.9613 8.20011V7.20011H47.6933L47.4612 7.33413L47.9613 8.20011ZM52.1533 8.20011L52.6534 7.33417L52.4213 7.20011H52.1533V8.20011ZM55.8653 10.3441H56.8653V9.76687L56.3654 9.47817L55.8653 10.3441ZM55.8653 22.3761L56.3654 23.242L56.8653 22.9533V22.3761H55.8653ZM52.1533 24.5201V25.5201H52.4213L52.6534 25.386L52.1533 24.5201ZM47.9613 24.5201L47.4612 25.3861L47.6933 25.5201H47.9613V24.5201ZM45.6893 23.2081L46.1893 22.3421L45.6893 22.0533L45.1892 22.3421L45.6893 23.2081ZM43.4173 24.5201V25.5201H43.6853L43.9173 25.3861L43.4173 24.5201ZM41.3053 24.5201H40.3053V25.5201H41.3053V24.5201ZM41.3053 1.00011V0.000106812H40.3053V1.00011H41.3053ZM45.6893 1.00011H46.6893V0.000106812H45.6893V1.00011ZM45.6893 9.51211H44.6893V11.2443L46.1893 10.3781L45.6893 9.51211ZM45.6893 11.9441V10.9441H44.6893V11.9441H45.6893ZM45.6893 20.7761H44.6893V21.7761H45.6893V20.7761ZM51.4813 20.7761V21.7761H52.4813V20.7761H51.4813ZM51.4813 11.9441H52.4813V10.9441H51.4813V11.9441ZM47.9613 8.20011V9.20011H52.1533V8.20011V7.20011H47.9613V8.20011ZM52.1533 8.20011L51.6531 9.06604L55.3651 11.21L55.8653 10.3441L56.3654 9.47817L52.6534 7.33417L52.1533 8.20011ZM55.8653 10.3441H54.8653V22.3761H55.8653H56.8653V10.3441H55.8653ZM55.8653 22.3761L55.3651 21.5102L51.6531 23.6542L52.1533 24.5201L52.6534 25.386L56.3654 23.242L55.8653 22.3761ZM52.1533 24.5201V23.5201H47.9613V24.5201V25.5201H52.1533V24.5201ZM47.9613 24.5201L48.4613 23.6541L46.1893 22.3421L45.6893 23.2081L45.1892 24.0741L47.4612 25.3861L47.9613 24.5201ZM45.6893 23.2081L45.1892 22.3421L42.9172 23.6541L43.4173 24.5201L43.9173 25.3861L46.1893 24.0741L45.6893 23.2081ZM43.4173 24.5201V23.5201H41.3053V24.5201V25.5201H43.4173V24.5201ZM41.3053 24.5201H42.3053V1.00011H41.3053H40.3053V24.5201H41.3053ZM41.3053 1.00011V2.00011H45.6893V1.00011V0.000106812H41.3053V1.00011ZM45.6893 1.00011H44.6893V9.51211H45.6893H46.6893V1.00011H45.6893ZM45.6893 9.51211L46.1893 10.3781L48.4613 9.06609L47.9613 8.20011L47.4612 7.33413L45.1892 8.64612L45.6893 9.51211ZM45.6893 11.9441H44.6893V20.7761H45.6893H46.6893V11.9441H45.6893ZM45.6893 20.7761V21.7761H51.4813V20.7761V19.7761H45.6893V20.7761ZM51.4813 20.7761H52.4813V11.9441H51.4813H50.4813V20.7761H51.4813ZM51.4813 11.9441V10.9441H45.6893V11.9441V12.9441H51.4813V11.9441ZM65.0643 8.36011H66.0643V7.36011H65.0643V8.36011ZM65.0643 24.3601V25.3601H66.0643V24.3601H65.0643ZM60.6803 24.3601H59.6803V25.3601H60.6803V24.3601ZM60.6803 8.36011V7.36011H59.6803V8.36011H60.6803ZM60.5203 5.38411H59.5203V6.38411H60.5203V5.38411ZM60.5203 1.00011V0.000106812H59.5203V1.00011H60.5203ZM65.2243 1.00011H66.2243V0.000106812H65.2243V1.00011ZM65.2243 5.38411V6.38411H66.2243V5.38411H65.2243ZM65.0643 8.36011H64.0643V24.3601H65.0643H66.0643V8.36011H65.0643ZM65.0643 24.3601V23.3601H60.6803V24.3601V25.3601H65.0643V24.3601ZM60.6803 24.3601H61.6803V8.36011H60.6803H59.6803V24.3601H60.6803ZM60.6803 8.36011V9.36011H65.0643V8.36011V7.36011H60.6803V8.36011ZM60.5203 5.38411H61.5203V1.00011H60.5203H59.5203V5.38411H60.5203ZM60.5203 1.00011V2.00011H65.2243V1.00011V0.000106812H60.5203V1.00011ZM65.2243 1.00011H64.2243V5.38411H65.2243H66.2243V1.00011H65.2243ZM65.2243 5.38411V4.38411H60.5203V5.38411V6.38411H65.2243V5.38411ZM73.5798 24.3601L73.0796 25.226L73.3117 25.3601H73.5798V24.3601ZM69.8678 22.2161H68.8678V22.7933L69.3676 23.082L69.8678 22.2161ZM69.8678 1.00011V0.000106812H68.8678V1.00011H69.8678ZM74.2518 1.00011H75.2518V0.000106812H74.2518V1.00011ZM74.2518 20.6161H73.2518V21.6161H74.2518V20.6161ZM77.4518 20.6161H78.4518V19.6161H77.4518V20.6161ZM77.4518 24.3601V25.3601H78.4518V24.3601H77.4518ZM73.5798 24.3601L74.0799 23.4942L70.3679 21.3502L69.8678 22.2161L69.3676 23.082L73.0796 25.226L73.5798 24.3601ZM69.8678 22.2161H70.8678V1.00011H69.8678H68.8678V22.2161H69.8678ZM69.8678 1.00011V2.00011H74.2518V1.00011V0.000106812H69.8678V1.00011ZM74.2518 1.00011H73.2518V20.6161H74.2518H75.2518V1.00011H74.2518ZM74.2518 20.6161V21.6161H77.4518V20.6161V19.6161H74.2518V20.6161ZM77.4518 20.6161H76.4518V24.3601H77.4518H78.4518V20.6161H77.4518ZM77.4518 24.3601V23.3601H73.5798V24.3601V25.3601H77.4518V24.3601ZM84.7205 8.36011H85.7205V7.36011H84.7205V8.36011ZM84.7205 24.3601V25.3601H85.7205V24.3601H84.7205ZM80.3365 24.3601H79.3365V25.3601H80.3365V24.3601ZM80.3365 8.36011V7.36011H79.3365V8.36011H80.3365ZM80.1765 5.38411H79.1765V6.38411H80.1765V5.38411ZM80.1765 1.00011V0.000106812H79.1765V1.00011H80.1765ZM84.8805 1.00011H85.8805V0.000106812H84.8805V1.00011ZM84.8805 5.38411V6.38411H85.8805V5.38411H84.8805ZM84.7205 8.36011H83.7205V24.3601H84.7205H85.7205V8.36011H84.7205ZM84.7205 24.3601V23.3601H80.3365V24.3601V25.3601H84.7205V24.3601ZM80.3365 24.3601H81.3365V8.36011H80.3365H79.3365V24.3601H80.3365ZM80.3365 8.36011V9.36011H84.7205V8.36011V7.36011H80.3365V8.36011ZM80.1765 5.38411H81.1765V1.00011H80.1765H79.1765V5.38411H80.1765ZM80.1765 1.00011V2.00011H84.8805V1.00011V0.000106812H80.1765V1.00011ZM84.8805 1.00011H83.8805V5.38411H84.8805H85.8805V1.00011H84.8805ZM84.8805 5.38411V4.38411H80.1765V5.38411V6.38411H84.8805V5.38411ZM93.236 8.20011V7.20011H92.968L92.7359 7.33417L93.236 8.20011ZM97.428 8.20011L97.9281 7.33413L97.696 7.20011H97.428V8.20011ZM99.7 9.51211L99.2 10.3781L100.7 11.2443V9.51211H99.7ZM99.7 1.00011V0.000106812H98.7V1.00011H99.7ZM104.084 1.00011H105.084V0.000106812H104.084V1.00011ZM104.084 24.5201V25.5201H105.084V24.5201H104.084ZM100.468 24.5201L99.605 25.0253L99.8947 25.5201H100.468V24.5201ZM99.7 23.2081L100.563 22.7029L100.061 21.845L99.2 22.3421L99.7 23.2081ZM97.428 24.5201V25.5201H97.696L97.9281 25.3861L97.428 24.5201ZM93.236 24.5201L92.7359 25.386L92.968 25.5201H93.236V24.5201ZM89.524 22.3761H88.524V22.9533L89.0239 23.242L89.524 22.3761ZM89.524 10.3441L89.0239 9.47817L88.524 9.76687V10.3441H89.524ZM99.7 20.7761V21.7761H100.7V20.7761H99.7ZM99.7 11.9441H100.7V10.9441H99.7V11.9441ZM93.908 11.9441V10.9441H92.908V11.9441H93.908ZM93.908 20.7761H92.908V21.7761H93.908V20.7761ZM93.236 8.20011V9.20011H97.428V8.20011V7.20011H93.236V8.20011ZM97.428 8.20011L96.9279 9.06609L99.2 10.3781L99.7 9.51211L100.2 8.64612L97.9281 7.33413L97.428 8.20011ZM99.7 9.51211H100.7V1.00011H99.7H98.7V9.51211H99.7ZM99.7 1.00011V2.00011H104.084V1.00011V0.000106812H99.7V1.00011ZM104.084 1.00011H103.084V24.5201H104.084H105.084V1.00011H104.084ZM104.084 24.5201V23.5201H100.468V24.5201V25.5201H104.084V24.5201ZM100.468 24.5201L101.331 24.0149L100.563 22.7029L99.7 23.2081L98.837 23.7133L99.605 25.0253L100.468 24.5201ZM99.7 23.2081L99.2 22.3421L96.9279 23.6541L97.428 24.5201L97.9281 25.3861L100.2 24.0741L99.7 23.2081ZM97.428 24.5201V23.5201H93.236V24.5201V25.5201H97.428V24.5201ZM93.236 24.5201L93.7362 23.6542L90.0242 21.5102L89.524 22.3761L89.0239 23.242L92.7359 25.386L93.236 24.5201ZM89.524 22.3761H90.524V10.3441H89.524H88.524V22.3761H89.524ZM89.524 10.3441L90.0242 11.21L93.7362 9.06604L93.236 8.20011L92.7359 7.33417L89.0239 9.47817L89.524 10.3441ZM99.7 20.7761H100.7V11.9441H99.7H98.7V20.7761H99.7ZM99.7 11.9441V10.9441H93.908V11.9441V12.9441H99.7V11.9441ZM93.908 11.9441H92.908V20.7761H93.908H94.908V11.9441H93.908ZM93.908 20.7761V21.7761H99.7V20.7761V19.7761H93.908V20.7761ZM112.643 18.0561V17.0561H111.643V18.0561H112.643ZM112.643 20.8401H111.643V21.8401H112.643V20.8401ZM117.155 20.8401V21.8401H118.155V20.8401H117.155ZM117.155 18.0561H118.155V17.0561H117.155V18.0561ZM111.971 24.5201L111.471 25.386L111.703 25.5201H111.971V24.5201ZM108.259 22.3761H107.259V22.9533L107.759 23.242L108.259 22.3761ZM108.259 16.8401L107.759 15.9742L107.259 16.2629V16.8401H108.259ZM111.971 14.6961V13.6961H111.703L111.471 13.8302L111.971 14.6961ZM117.155 14.6961V15.6961H118.155V14.6961H117.155ZM117.155 12.1041H118.155V11.1041H117.155V12.1041ZM109.859 12.1041H108.859V13.1041H109.859V12.1041ZM109.859 8.36011V7.36011H108.859V8.36011H109.859ZM117.827 8.36011L118.327 7.49417L118.095 7.36011H117.827V8.36011ZM121.539 10.5041H122.539V9.92687L122.039 9.63817L121.539 10.5041ZM121.539 24.5201V25.5201H122.539V24.5201H121.539ZM119.427 24.5201L118.927 25.3861L119.159 25.5201H119.427V24.5201ZM117.155 23.2081L117.655 22.3421L117.155 22.0533L116.655 22.3421L117.155 23.2081ZM114.883 24.5201V25.5201H115.151L115.383 25.3861L114.883 24.5201ZM112.643 18.0561H111.643V20.8401H112.643H113.643V18.0561H112.643ZM112.643 20.8401V21.8401H117.155V20.8401V19.8401H112.643V20.8401ZM117.155 20.8401H118.155V18.0561H117.155H116.155V20.8401H117.155ZM117.155 18.0561V17.0561H112.643V18.0561V19.0561H117.155V18.0561ZM111.971 24.5201L112.471 23.6542L108.759 21.5102L108.259 22.3761L107.759 23.242L111.471 25.386L111.971 24.5201ZM108.259 22.3761H109.259V16.8401H108.259H107.259V22.3761H108.259ZM108.259 16.8401L108.759 17.706L112.471 15.562L111.971 14.6961L111.471 13.8302L107.759 15.9742L108.259 16.8401ZM111.971 14.6961V15.6961H117.155V14.6961V13.6961H111.971V14.6961ZM117.155 14.6961H118.155V12.1041H117.155H116.155V14.6961H117.155ZM117.155 12.1041V11.1041H109.859V12.1041V13.1041H117.155V12.1041ZM109.859 12.1041H110.859V8.36011H109.859H108.859V12.1041H109.859ZM109.859 8.36011V9.36011H117.827V8.36011V7.36011H109.859V8.36011ZM117.827 8.36011L117.327 9.22604L121.039 11.37L121.539 10.5041L122.039 9.63817L118.327 7.49417L117.827 8.36011ZM121.539 10.5041H120.539V24.5201H121.539H122.539V10.5041H121.539ZM121.539 24.5201V23.5201H119.427V24.5201V25.5201H121.539V24.5201ZM119.427 24.5201L119.927 23.6541L117.655 22.3421L117.155 23.2081L116.655 24.0741L118.927 25.3861L119.427 24.5201ZM117.155 23.2081L116.655 22.3421L114.383 23.6541L114.883 24.5201L115.383 25.3861L117.655 24.0741L117.155 23.2081ZM114.883 24.5201V23.5201H111.971V24.5201V25.5201H114.883V24.5201ZM130.049 8.20011V7.20011H129.78L129.548 7.33417L130.049 8.20011ZM134.241 8.20011L134.741 7.33413L134.509 7.20011H134.241V8.20011ZM136.513 9.51211L136.012 10.3781L137.513 11.2443V9.51211H136.513ZM136.513 1.00011V0.000106812H135.513V1.00011H136.513ZM140.897 1.00011H141.897V0.000106812H140.897V1.00011ZM140.897 24.5201V25.5201H141.897V24.5201H140.897ZM137.281 24.5201L136.418 25.0253L136.707 25.5201H137.281V24.5201ZM136.513 23.2081L137.376 22.7029L136.873 21.845L136.012 22.3421L136.513 23.2081ZM134.241 24.5201V25.5201H134.509L134.741 25.3861L134.241 24.5201ZM130.049 24.5201L129.548 25.386L129.78 25.5201H130.049V24.5201ZM126.337 22.3761H125.337V22.9533L125.836 23.242L126.337 22.3761ZM126.337 10.3441L125.836 9.47817L125.337 9.76687V10.3441H126.337ZM136.513 20.7761V21.7761H137.513V20.7761H136.513ZM136.513 11.9441H137.513V10.9441H136.513V11.9441ZM130.721 11.9441V10.9441H129.721V11.9441H130.721ZM130.721 20.7761H129.721V21.7761H130.721V20.7761ZM130.049 8.20011V9.20011H134.241V8.20011V7.20011H130.049V8.20011ZM134.241 8.20011L133.74 9.06609L136.012 10.3781L136.513 9.51211L137.013 8.64612L134.741 7.33413L134.241 8.20011ZM136.513 9.51211H137.513V1.00011H136.513H135.513V9.51211H136.513ZM136.513 1.00011V2.00011H140.897V1.00011V0.000106812H136.513V1.00011ZM140.897 1.00011H139.897V24.5201H140.897H141.897V1.00011H140.897ZM140.897 24.5201V23.5201H137.281V24.5201V25.5201H140.897V24.5201ZM137.281 24.5201L138.144 24.0149L137.376 22.7029L136.513 23.2081L135.65 23.7133L136.418 25.0253L137.281 24.5201ZM136.513 23.2081L136.012 22.3421L133.74 23.6541L134.241 24.5201L134.741 25.3861L137.013 24.0741L136.513 23.2081ZM134.241 24.5201V23.5201H130.049V24.5201V25.5201H134.241V24.5201ZM130.049 24.5201L130.549 23.6542L126.837 21.5102L126.337 22.3761L125.836 23.242L129.548 25.386L130.049 24.5201ZM126.337 22.3761H127.337V10.3441H126.337H125.337V22.3761H126.337ZM126.337 10.3441L126.837 11.21L130.549 9.06604L130.049 8.20011L129.548 7.33417L125.836 9.47817L126.337 10.3441ZM136.513 20.7761H137.513V11.9441H136.513H135.513V20.7761H136.513ZM136.513 11.9441V10.9441H130.721V11.9441V12.9441H136.513V11.9441ZM130.721 11.9441H129.721V20.7761H130.721H131.721V11.9441H130.721ZM130.721 20.7761V21.7761H136.513V20.7761V19.7761H130.721V20.7761ZM158.992 20.6161H159.992V19.6161H158.992V20.6161ZM158.992 24.3601V25.3601H159.992V24.3601H158.992ZM149.424 24.3601L148.923 25.226L149.155 25.3601H149.424V24.3601ZM145.712 22.2161H144.712V22.7933L145.211 23.082L145.712 22.2161ZM145.712 10.3441L145.211 9.47817L144.712 9.76687V10.3441H145.712ZM149.424 8.20011V7.20011H149.155L148.923 7.33417L149.424 8.20011ZM155.28 8.20011L155.78 7.33417L155.548 7.20011H155.28V8.20011ZM158.992 10.3441H159.992V9.76687L159.492 9.47817L158.992 10.3441ZM158.992 17.9921V18.9921H159.992V17.9921H158.992ZM150.096 17.9921V16.9921H149.096V17.9921H150.096ZM150.096 20.6161H149.096V21.6161H150.096V20.6161ZM150.096 11.9441V10.9441H149.096V11.9441H150.096ZM150.096 14.6961H149.096V15.6961H150.096V14.6961ZM154.608 14.6961V15.6961H155.608V14.6961H154.608ZM154.608 11.9441H155.608V10.9441H154.608V11.9441ZM158.992 20.6161H157.992V24.3601H158.992H159.992V20.6161H158.992ZM158.992 24.3601V23.3601H149.424V24.3601V25.3601H158.992V24.3601ZM149.424 24.3601L149.924 23.4942L146.212 21.3502L145.712 22.2161L145.211 23.082L148.923 25.226L149.424 24.3601ZM145.712 22.2161H146.712V10.3441H145.712H144.712V22.2161H145.712ZM145.712 10.3441L146.212 11.21L149.924 9.06604L149.424 8.20011L148.923 7.33417L145.211 9.47817L145.712 10.3441ZM149.424 8.20011V9.20011H155.28V8.20011V7.20011H149.424V8.20011ZM155.28 8.20011L154.779 9.06604L158.491 11.21L158.992 10.3441L159.492 9.47817L155.78 7.33417L155.28 8.20011ZM158.992 10.3441H157.992V17.9921H158.992H159.992V10.3441H158.992ZM158.992 17.9921V16.9921H150.096V17.9921V18.9921H158.992V17.9921ZM150.096 17.9921H149.096V20.6161H150.096H151.096V17.9921H150.096ZM150.096 20.6161V21.6161H158.992V20.6161V19.6161H150.096V20.6161ZM150.096 11.9441H149.096V14.6961H150.096H151.096V11.9441H150.096ZM150.096 14.6961V15.6961H154.608V14.6961V13.6961H150.096V14.6961ZM154.608 14.6961H155.608V11.9441H154.608H153.608V14.6961H154.608ZM154.608 11.9441V10.9441H150.096V11.9441V12.9441H154.608V11.9441ZM176.477 16.4881H177.477V15.9109L176.977 15.6222L176.477 16.4881ZM176.477 22.2161L176.977 23.082L177.477 22.7933V22.2161H176.477ZM172.765 24.3601V25.3601H173.033L173.265 25.226L172.765 24.3601ZM163.805 24.3601H162.805V25.3601H163.805V24.3601ZM163.805 20.6161V19.6161H162.805V20.6161H163.805ZM172.093 20.6161V21.6161H173.093V20.6161H172.093ZM172.093 18.1521H173.093V17.1521H172.093V18.1521ZM167.517 18.1521L167.017 19.018L167.249 19.1521H167.517V18.1521ZM163.805 16.0081H162.805V16.5853L163.305 16.874L163.805 16.0081ZM163.805 10.5041L163.305 9.63817L162.805 9.92687V10.5041H163.805ZM167.517 8.36011V7.36011H167.249L167.017 7.49417L167.517 8.36011ZM176.157 8.36011H177.157V7.36011H176.157V8.36011ZM176.157 12.1041V13.1041H177.157V12.1041H176.157ZM168.189 12.1041V11.1041H167.189V12.1041H168.189ZM168.189 14.3441H167.189V15.3441H168.189V14.3441ZM172.765 14.3441L173.265 13.4782L173.033 13.3441H172.765V14.3441ZM176.477 16.4881H175.477V22.2161H176.477H177.477V16.4881H176.477ZM176.477 22.2161L175.977 21.3502L172.265 23.4942L172.765 24.3601L173.265 25.226L176.977 23.082L176.477 22.2161ZM172.765 24.3601V23.3601H163.805V24.3601V25.3601H172.765V24.3601ZM163.805 24.3601H164.805V20.6161H163.805H162.805V24.3601H163.805ZM163.805 20.6161V21.6161H172.093V20.6161V19.6161H163.805V20.6161ZM172.093 20.6161H173.093V18.1521H172.093H171.093V20.6161H172.093ZM172.093 18.1521V17.1521H167.517V18.1521V19.1521H172.093V18.1521ZM167.517 18.1521L168.017 17.2862L164.305 15.1422L163.805 16.0081L163.305 16.874L167.017 19.018L167.517 18.1521ZM163.805 16.0081H164.805V10.5041H163.805H162.805V16.0081H163.805ZM163.805 10.5041L164.305 11.37L168.017 9.22604L167.517 8.36011L167.017 7.49417L163.305 9.63817L163.805 10.5041ZM167.517 8.36011V9.36011H176.157V8.36011V7.36011H167.517V8.36011ZM176.157 8.36011H175.157V12.1041H176.157H177.157V8.36011H176.157ZM176.157 12.1041V11.1041H168.189V12.1041V13.1041H176.157V12.1041ZM168.189 12.1041H167.189V14.3441H168.189H169.189V12.1041H168.189ZM168.189 14.3441V15.3441H172.765V14.3441V13.3441H168.189V14.3441ZM172.765 14.3441L172.265 15.21L175.977 17.354L176.477 16.4881L176.977 15.6222L173.265 13.4782L172.765 14.3441Z" fill="#B5E93B" mask="url(#path-1-outside-1_3129_3500)"/>
</svg>
