<svg width="65" height="297" viewBox="0 0 65 297" fill="none" xmlns="http://www.w3.org/2000/svg">
<mask id="path-1-outside-1_3113_1888" maskUnits="userSpaceOnUse" x="8" y="1" width="47" height="295" fill="black">
<rect fill="white" x="8" y="1" width="47" height="295"/>
<path d="M33.99 286.74H51V292.14H13.2V286.74H29.13L29.13 268.65H13.2V263.25H51V268.65H33.99V286.74ZM39.93 249.92H46.572L46.572 239.066H39.93L39.93 249.92ZM51.27 248.894L47.652 255.158H38.85L35.232 248.894L35.232 239.066H28.698V252.458H24V240.092L27.618 233.828H51.27V235.232L49.056 239.066L51.27 242.9V248.894ZM23.73 216.108L23.73 207.954L27.348 201.69H47.652L51.27 207.954V216.108L49.056 219.942L51.27 223.776V225.18H11.58V219.942H25.944L23.73 216.108ZM28.428 219.942H46.572V206.928H28.428L28.428 219.942ZM24 187.827H51V193.065H24V187.827ZM17.358 193.335H11.58V187.557H17.358V193.335ZM51 172.932L47.382 179.196H11.58V173.958H46.302V167.478H51V172.932ZM24 156.819H51V162.057H24V156.819ZM17.358 162.327H11.58V156.549H17.358V162.327ZM23.73 141.924V133.77L25.944 129.936H11.58V124.698H51.27L51.27 128.64L49.056 129.936L51.27 133.77V141.924L47.652 148.188H27.348L23.73 141.924ZM46.572 129.936H28.428V142.95H46.572V129.936ZM39.93 111.915H46.572V101.061H39.93V111.915ZM51.27 110.889L47.652 117.153H38.85L35.232 110.889V101.061H28.698V114.453H24V102.087L27.618 95.8226H51.27V97.2266L49.056 101.061L51.27 104.895V110.889ZM23.73 80.9101V72.7561L25.944 68.9221H11.58V63.6841H51.27V67.6261L49.056 68.9221L51.27 72.7561V80.9101L47.652 87.1741H27.348L23.73 80.9101ZM46.572 68.9221H28.428V81.9361H46.572V68.9221ZM46.302 33.7289H51V48.7949L47.382 55.0589H27.348L23.73 48.7949L23.73 39.9929L27.348 33.7289H39.336V49.8209H46.302V33.7289ZM28.428 49.8209H34.638V38.9669H28.428L28.428 49.8209ZM38.58 4.80178H47.382L51 11.0658L51 25.1058H46.302L46.302 10.0398H39.66L39.66 18.8418L36.042 25.1058H27.618L24 18.8418V5.34178H28.698V19.8678H34.962L34.962 11.0658L38.58 4.80178Z"/>
</mask>
<path d="M33.99 286.74H30.99V289.74H33.99V286.74ZM51 286.74H54V283.74H51V286.74ZM51 292.14V295.14H54V292.14H51ZM13.2 292.14H10.2V295.14H13.2V292.14ZM13.2 286.74V283.74H10.2V286.74H13.2ZM29.13 286.74V289.74H32.13V286.74H29.13ZM29.13 268.65H32.13V265.65H29.13V268.65ZM13.2 268.65H10.2V271.65H13.2V268.65ZM13.2 263.25V260.25H10.2V263.25H13.2ZM51 263.25H54V260.25H51V263.25ZM51 268.65V271.65H54V268.65H51ZM33.99 268.65V265.65H30.99V268.65H33.99ZM33.99 286.74V289.74H51V286.74V283.74H33.99V286.74ZM51 286.74H48V292.14H51H54V286.74H51ZM51 292.14V289.14H13.2V292.14V295.14H51V292.14ZM13.2 292.14H16.2V286.74H13.2H10.2V292.14H13.2ZM13.2 286.74V289.74H29.13V286.74V283.74H13.2V286.74ZM29.13 286.74H32.13V268.65H29.13H26.13L26.13 286.74H29.13ZM29.13 268.65V265.65H13.2V268.65V271.65H29.13L29.13 268.65ZM13.2 268.65H16.2V263.25H13.2H10.2V268.65H13.2ZM13.2 263.25V266.25H51V263.25V260.25H13.2V263.25ZM51 263.25H48V268.65H51H54V263.25H51ZM51 268.65V265.65H33.99V268.65V271.65H51V268.65ZM33.99 268.65H30.99L30.99 286.74H33.99H36.99V268.65H33.99ZM39.93 249.92H36.93V252.92H39.93V249.92ZM46.572 249.92V252.92H49.572V249.92H46.572ZM46.572 239.066H49.572V236.066H46.572V239.066ZM39.93 239.066V236.066H36.93V239.066H39.93ZM51.27 248.894L53.8678 250.395L54.27 249.699V248.894H51.27ZM47.652 255.158V258.158H49.3837L50.2498 256.659L47.652 255.158ZM38.85 255.158L36.2522 256.659L37.1183 258.158H38.85V255.158ZM35.232 248.894H32.232V249.699L32.6342 250.395L35.232 248.894ZM35.232 239.066H38.232V236.066H35.232V239.066ZM28.698 239.066V236.066H25.698V239.066H28.698ZM28.698 252.458V255.458H31.698V252.458H28.698ZM24 252.458H21V255.458H24V252.458ZM24 240.092L21.4022 238.592L21 239.288V240.092H24ZM27.618 233.828V230.828H25.8863L25.0202 232.328L27.618 233.828ZM51.27 233.828H54.27V230.828H51.27V233.828ZM51.27 235.232L53.8679 236.733L54.27 236.036V235.232H51.27ZM49.056 239.066L46.4581 237.566L45.5917 239.066L46.4581 240.567L49.056 239.066ZM51.27 242.9H54.27V242.096L53.8679 241.4L51.27 242.9ZM39.93 249.92V252.92H46.572V249.92V246.92H39.93V249.92ZM46.572 249.92H49.572L49.572 239.066H46.572H43.572L43.572 249.92H46.572ZM46.572 239.066V236.066H39.93V239.066L39.93 242.066H46.572L46.572 239.066ZM39.93 239.066H36.93L36.93 249.92H39.93H42.93L42.93 239.066H39.93ZM51.27 248.894L48.6722 247.394L45.0542 253.658L47.652 255.158L50.2498 256.659L53.8678 250.395L51.27 248.894ZM47.652 255.158V252.158H38.85V255.158V258.158H47.652V255.158ZM38.85 255.158L41.4478 253.658L37.8298 247.394L35.232 248.894L32.6342 250.395L36.2522 256.659L38.85 255.158ZM35.232 248.894H38.232L38.232 239.066H35.232H32.232L32.232 248.894H35.232ZM35.232 239.066V236.066H28.698V239.066V242.066H35.232L35.232 239.066ZM28.698 239.066H25.698V252.458H28.698H31.698V239.066H28.698ZM28.698 252.458V249.458H24V252.458V255.458H28.698V252.458ZM24 252.458H27V240.092H24H21V252.458H24ZM24 240.092L26.5978 241.593L30.2158 235.329L27.618 233.828L25.0202 232.328L21.4022 238.592L24 240.092ZM27.618 233.828V236.828H51.27V233.828V230.828H27.618V233.828ZM51.27 233.828H48.27V235.232H51.27H54.27V233.828H51.27ZM51.27 235.232L48.6721 233.732L46.4581 237.566L49.056 239.066L51.6539 240.567L53.8679 236.733L51.27 235.232ZM49.056 239.066L46.4581 240.567L48.6721 244.401L51.27 242.9L53.8679 241.4L51.6539 237.566L49.056 239.066ZM51.27 242.9H48.27V248.894H51.27H54.27V242.9H51.27ZM23.73 216.108H20.73V216.912L21.1321 217.608L23.73 216.108ZM23.73 207.954L21.1322 206.454L20.73 207.15V207.954H23.73ZM27.348 201.69V198.69H25.6163L24.7502 200.19L27.348 201.69ZM47.652 201.69L50.2498 200.19L49.3837 198.69H47.652V201.69ZM51.27 207.954H54.27V207.15L53.8678 206.454L51.27 207.954ZM51.27 216.108L53.8679 217.608L54.27 216.912V216.108H51.27ZM49.056 219.942L46.4581 218.442L45.5917 219.942L46.4581 221.442L49.056 219.942ZM51.27 223.776H54.27V222.972L53.8679 222.276L51.27 223.776ZM51.27 225.18V228.18H54.27V225.18H51.27ZM11.58 225.18H8.58L8.58 228.18H11.58L11.58 225.18ZM11.58 219.942V216.942H8.58V219.942H11.58ZM25.944 219.942V222.942H31.1407L28.5419 218.442L25.944 219.942ZM28.428 219.942H25.428V222.942H28.428V219.942ZM46.572 219.942V222.942H49.572V219.942H46.572ZM46.572 206.928H49.572V203.928H46.572V206.928ZM28.428 206.928V203.928H25.428V206.928H28.428ZM23.73 216.108H26.73L26.73 207.954H23.73H20.73L20.73 216.108H23.73ZM23.73 207.954L26.3278 209.454L29.9458 203.19L27.348 201.69L24.7502 200.19L21.1322 206.454L23.73 207.954ZM27.348 201.69V204.69H47.652V201.69V198.69H27.348V201.69ZM47.652 201.69L45.0542 203.19L48.6722 209.454L51.27 207.954L53.8678 206.454L50.2498 200.19L47.652 201.69ZM51.27 207.954H48.27V216.108H51.27H54.27V207.954H51.27ZM51.27 216.108L48.6721 214.608L46.4581 218.442L49.056 219.942L51.6539 221.442L53.8679 217.608L51.27 216.108ZM49.056 219.942L46.4581 221.442L48.6721 225.276L51.27 223.776L53.8679 222.276L51.6539 218.442L49.056 219.942ZM51.27 223.776H48.27V225.18H51.27H54.27V223.776H51.27ZM51.27 225.18V222.18H11.58V225.18L11.58 228.18H51.27V225.18ZM11.58 225.18H14.58V219.942H11.58H8.58V225.18H11.58ZM11.58 219.942V222.942H25.944V219.942V216.942H11.58V219.942ZM25.944 219.942L28.5419 218.442L26.3279 214.608L23.73 216.108L21.1321 217.608L23.3461 221.442L25.944 219.942ZM28.428 219.942V222.942H46.572V219.942V216.942H28.428V219.942ZM46.572 219.942H49.572V206.928H46.572H43.572V219.942H46.572ZM46.572 206.928V203.928H28.428V206.928V209.928H46.572V206.928ZM28.428 206.928H25.428L25.428 219.942H28.428H31.428L31.428 206.928H28.428ZM24 187.827V184.827H21V187.827H24ZM51 187.827H54V184.827H51V187.827ZM51 193.065V196.065H54V193.065H51ZM24 193.065H21V196.065H24V193.065ZM17.358 193.335V196.335H20.358V193.335H17.358ZM11.58 193.335H8.58V196.335H11.58V193.335ZM11.58 187.557V184.557H8.58V187.557H11.58ZM17.358 187.557H20.358V184.557H17.358V187.557ZM24 187.827V190.827H51V187.827V184.827H24V187.827ZM51 187.827H48V193.065H51H54V187.827H51ZM51 193.065V190.065H24V193.065V196.065H51V193.065ZM24 193.065H27V187.827H24H21V193.065H24ZM17.358 193.335V190.335H11.58V193.335V196.335H17.358V193.335ZM11.58 193.335H14.58V187.557H11.58H8.58V193.335H11.58ZM11.58 187.557V190.557H17.358V187.557V184.557H11.58V187.557ZM17.358 187.557H14.358V193.335H17.358H20.358V187.557H17.358ZM51 172.932L53.5978 174.432L54 173.736V172.932H51ZM47.382 179.196V182.196H49.1137L49.9798 180.696L47.382 179.196ZM11.58 179.196H8.58V182.196H11.58V179.196ZM11.58 173.958V170.958H8.58V173.958H11.58ZM46.302 173.958V176.958H49.302V173.958H46.302ZM46.302 167.478V164.478H43.302V167.478H46.302ZM51 167.478H54V164.478H51V167.478ZM51 172.932L48.4022 171.431L44.7842 177.695L47.382 179.196L49.9798 180.696L53.5978 174.432L51 172.932ZM47.382 179.196V176.196H11.58V179.196V182.196H47.382V179.196ZM11.58 179.196H14.58V173.958H11.58H8.58V179.196H11.58ZM11.58 173.958V176.958H46.302V173.958V170.958H11.58V173.958ZM46.302 173.958H49.302V167.478H46.302H43.302V173.958H46.302ZM46.302 167.478V170.478H51V167.478V164.478H46.302V167.478ZM51 167.478H48V172.932H51H54V167.478H51ZM24 156.819L24 153.819H21L21 156.819H24ZM51 156.819H54V153.819H51V156.819ZM51 162.057V165.057H54V162.057H51ZM24 162.057H21V165.057H24V162.057ZM17.358 162.327V165.327H20.358V162.327H17.358ZM11.58 162.327H8.58V165.327H11.58V162.327ZM11.58 156.549V153.549H8.58V156.549H11.58ZM17.358 156.549H20.358L20.358 153.549H17.358L17.358 156.549ZM24 156.819V159.819H51V156.819V153.819H24L24 156.819ZM51 156.819H48V162.057H51H54V156.819H51ZM51 162.057V159.057H24V162.057V165.057H51V162.057ZM24 162.057H27V156.819H24H21V162.057H24ZM17.358 162.327V159.327H11.58V162.327V165.327H17.358V162.327ZM11.58 162.327H14.58V156.549H11.58H8.58V162.327H11.58ZM11.58 156.549V159.549H17.358V156.549L17.358 153.549H11.58V156.549ZM17.358 156.549H14.358V162.327H17.358H20.358V156.549H17.358ZM23.73 141.924H20.73V142.728L21.1322 143.424L23.73 141.924ZM23.73 133.77L21.1321 132.27L20.73 132.966V133.77H23.73ZM25.944 129.936L28.5419 131.436L31.1407 126.936H25.944V129.936ZM11.58 129.936H8.58V132.936H11.58V129.936ZM11.58 124.698V121.698H8.58V124.698H11.58ZM51.27 124.698H54.27V121.698H51.27V124.698ZM51.27 128.64L52.7855 131.229L54.27 130.36V128.64H51.27ZM49.056 129.936L47.5405 127.347L44.9667 128.853L46.4581 131.436L49.056 129.936ZM51.27 133.77H54.27V132.966L53.8679 132.27L51.27 133.77ZM51.27 141.924L53.8678 143.424L54.27 142.728V141.924H51.27ZM47.652 148.188V151.188H49.3837L50.2498 149.688L47.652 148.188ZM27.348 148.188L24.7502 149.688L25.6163 151.188H27.348V148.188ZM46.572 129.936H49.572L49.572 126.936H46.572L46.572 129.936ZM28.428 129.936V126.936H25.428V129.936H28.428ZM28.428 142.95H25.428V145.95H28.428V142.95ZM46.572 142.95V145.95H49.572V142.95H46.572ZM23.73 141.924H26.73V133.77H23.73H20.73V141.924H23.73ZM23.73 133.77L26.3279 135.27L28.5419 131.436L25.944 129.936L23.3461 128.436L21.1321 132.27L23.73 133.77ZM25.944 129.936V126.936H11.58V129.936V132.936H25.944V129.936ZM11.58 129.936H14.58V124.698H11.58H8.58V129.936H11.58ZM11.58 124.698V127.698H51.27V124.698V121.698H11.58V124.698ZM51.27 124.698H48.27L48.27 128.64H51.27H54.27L54.27 124.698H51.27ZM51.27 128.64L49.7545 126.051L47.5405 127.347L49.056 129.936L50.5715 132.525L52.7855 131.229L51.27 128.64ZM49.056 129.936L46.4581 131.436L48.6721 135.27L51.27 133.77L53.8679 132.27L51.6539 128.436L49.056 129.936ZM51.27 133.77H48.27V141.924H51.27H54.27V133.77H51.27ZM51.27 141.924L48.6722 140.423L45.0542 146.687L47.652 148.188L50.2498 149.688L53.8678 143.424L51.27 141.924ZM47.652 148.188V145.188H27.348V148.188V151.188H47.652V148.188ZM27.348 148.188L29.9458 146.687L26.3278 140.423L23.73 141.924L21.1322 143.424L24.7502 149.688L27.348 148.188ZM46.572 129.936L46.572 126.936H28.428V129.936V132.936H46.572V129.936ZM28.428 129.936H25.428V142.95H28.428H31.428V129.936H28.428ZM28.428 142.95V145.95H46.572V142.95V139.95H28.428V142.95ZM46.572 142.95H49.572V129.936H46.572H43.572V142.95H46.572ZM39.93 111.915H36.93V114.915H39.93V111.915ZM46.572 111.915V114.915H49.572V111.915H46.572ZM46.572 101.061H49.572V98.0606H46.572V101.061ZM39.93 101.061V98.0606H36.93V101.061H39.93ZM51.27 110.889L53.8678 112.389L54.27 111.693V110.889H51.27ZM47.652 117.153V120.153H49.3837L50.2498 118.653L47.652 117.153ZM38.85 117.153L36.2522 118.653L37.1183 120.153H38.85V117.153ZM35.232 110.889H32.232V111.693L32.6342 112.389L35.232 110.889ZM35.232 101.061H38.232V98.0606H35.232V101.061ZM28.698 101.061L28.698 98.0606H25.698L25.698 101.061H28.698ZM28.698 114.453V117.453H31.698V114.453H28.698ZM24 114.453H21V117.453H24V114.453ZM24 102.087L21.4022 100.586L21 101.282V102.087H24ZM27.618 95.8226V92.8226H25.8863L25.0202 94.3221L27.618 95.8226ZM51.27 95.8226H54.27V92.8226H51.27V95.8226ZM51.27 97.2266L53.8679 98.7268L54.27 98.0306V97.2266H51.27ZM49.056 101.061L46.4581 99.5603L45.5917 101.061L46.4581 102.561L49.056 101.061ZM51.27 104.895H54.27V104.091L53.8679 103.394L51.27 104.895ZM39.93 111.915V114.915H46.572V111.915V108.915H39.93V111.915ZM46.572 111.915H49.572V101.061H46.572H43.572V111.915H46.572ZM46.572 101.061V98.0606H39.93V101.061V104.061H46.572V101.061ZM39.93 101.061H36.93V111.915H39.93H42.93V101.061H39.93ZM51.27 110.889L48.6722 109.388L45.0542 115.652L47.652 117.153L50.2498 118.653L53.8678 112.389L51.27 110.889ZM47.652 117.153V114.153H38.85V117.153V120.153H47.652V117.153ZM38.85 117.153L41.4478 115.652L37.8298 109.388L35.232 110.889L32.6342 112.389L36.2522 118.653L38.85 117.153ZM35.232 110.889H38.232V101.061H35.232H32.232V110.889H35.232ZM35.232 101.061V98.0606H28.698L28.698 101.061V104.061H35.232V101.061ZM28.698 101.061H25.698V114.453H28.698H31.698V101.061H28.698ZM28.698 114.453V111.453H24V114.453V117.453H28.698V114.453ZM24 114.453H27V102.087H24H21V114.453H24ZM24 102.087L26.5978 103.587L30.2158 97.323L27.618 95.8226L25.0202 94.3221L21.4022 100.586L24 102.087ZM27.618 95.8226V98.8226H51.27V95.8226V92.8226H27.618V95.8226ZM51.27 95.8226H48.27V97.2266H51.27H54.27V95.8226H51.27ZM51.27 97.2266L48.6721 95.7263L46.4581 99.5603L49.056 101.061L51.6539 102.561L53.8679 98.7268L51.27 97.2266ZM49.056 101.061L46.4581 102.561L48.6721 106.395L51.27 104.895L53.8679 103.394L51.6539 99.5603L49.056 101.061ZM51.27 104.895H48.27V110.889H51.27H54.27V104.895H51.27ZM23.73 80.9101H20.73V81.7143L21.1322 82.4106L23.73 80.9101ZM23.73 72.7561L21.1321 71.2559L20.73 71.9521V72.7561H23.73ZM25.944 68.9221L28.5419 70.4224L31.1407 65.9221H25.944V68.9221ZM11.58 68.9221H8.58V71.9221H11.58V68.9221ZM11.58 63.6841V60.6841H8.58V63.6841H11.58ZM51.27 63.6841H54.27V60.6841H51.27V63.6841ZM51.27 67.6261L52.7855 70.2152L54.27 69.3462V67.6261H51.27ZM49.056 68.9221L47.5405 66.3331L44.9667 67.8397L46.4581 70.4224L49.056 68.9221ZM51.27 72.7561H54.27V71.9521L53.8679 71.2559L51.27 72.7561ZM51.27 80.9101L53.8678 82.4106L54.27 81.7143V80.9101H51.27ZM47.652 87.1741V90.1741H49.3837L50.2498 88.6746L47.652 87.1741ZM27.348 87.1741L24.7502 88.6746L25.6163 90.1741H27.348V87.1741ZM46.572 68.9221H49.572V65.9221H46.572V68.9221ZM28.428 68.9221V65.9221H25.428V68.9221H28.428ZM28.428 81.9361H25.428V84.9361H28.428V81.9361ZM46.572 81.9361V84.9361H49.572V81.9361H46.572ZM23.73 80.9101H26.73V72.7561H23.73H20.73V80.9101H23.73ZM23.73 72.7561L26.3279 74.2564L28.5419 70.4224L25.944 68.9221L23.3461 67.4219L21.1321 71.2559L23.73 72.7561ZM25.944 68.9221V65.9221H11.58V68.9221V71.9221H25.944V68.9221ZM11.58 68.9221H14.58V63.6841H11.58H8.58V68.9221H11.58ZM11.58 63.6841V66.6841H51.27V63.6841V60.6841H11.58V63.6841ZM51.27 63.6841H48.27V67.6261H51.27H54.27V63.6841H51.27ZM51.27 67.6261L49.7545 65.0371L47.5405 66.3331L49.056 68.9221L50.5715 71.5112L52.7855 70.2152L51.27 67.6261ZM49.056 68.9221L46.4581 70.4224L48.6721 74.2564L51.27 72.7561L53.8679 71.2559L51.6539 67.4219L49.056 68.9221ZM51.27 72.7561H48.27V80.9101H51.27H54.27V72.7561H51.27ZM51.27 80.9101L48.6722 79.4097L45.0542 85.6737L47.652 87.1741L50.2498 88.6746L53.8678 82.4106L51.27 80.9101ZM47.652 87.1741V84.1741H27.348V87.1741V90.1741H47.652V87.1741ZM27.348 87.1741L29.9458 85.6737L26.3278 79.4097L23.73 80.9101L21.1322 82.4106L24.7502 88.6746L27.348 87.1741ZM46.572 68.9221V65.9221H28.428V68.9221V71.9221H46.572V68.9221ZM28.428 68.9221H25.428V81.9361H28.428H31.428V68.9221H28.428ZM28.428 81.9361V84.9361H46.572V81.9361V78.9361H28.428V81.9361ZM46.572 81.9361H49.572V68.9221H46.572H43.572V81.9361H46.572ZM46.302 33.7289V30.7289H43.302V33.7289H46.302ZM51 33.7289H54V30.7289H51V33.7289ZM51 48.7949L53.5978 50.2954L54 49.599V48.7949H51ZM47.382 55.0589V58.0589H49.1137L49.9798 56.5594L47.382 55.0589ZM27.348 55.0589L24.7502 56.5594L25.6163 58.0589H27.348V55.0589ZM23.73 48.7949H20.73V49.599L21.1322 50.2954L23.73 48.7949ZM23.73 39.9929L21.1322 38.4924L20.73 39.1888V39.9929H23.73ZM27.348 33.7289V30.7289H25.6163L24.7502 32.2285L27.348 33.7289ZM39.336 33.7289H42.336V30.7289H39.336V33.7289ZM39.336 49.8209H36.336V52.8209H39.336V49.8209ZM46.302 49.8209V52.8209H49.302V49.8209H46.302ZM28.428 49.8209H25.428V52.8209H28.428V49.8209ZM34.638 49.8209V52.8209H37.638V49.8209H34.638ZM34.638 38.9669H37.638V35.9669H34.638V38.9669ZM28.428 38.9669V35.9669H25.428V38.9669H28.428ZM46.302 33.7289V36.7289H51V33.7289V30.7289H46.302V33.7289ZM51 33.7289H48V48.7949H51H54V33.7289H51ZM51 48.7949L48.4022 47.2944L44.7842 53.5584L47.382 55.0589L49.9798 56.5594L53.5978 50.2954L51 48.7949ZM47.382 55.0589V52.0589H27.348V55.0589V58.0589H47.382V55.0589ZM27.348 55.0589L29.9458 53.5584L26.3278 47.2944L23.73 48.7949L21.1322 50.2954L24.7502 56.5594L27.348 55.0589ZM23.73 48.7949H26.73L26.73 39.9929H23.73H20.73L20.73 48.7949H23.73ZM23.73 39.9929L26.3278 41.4934L29.9458 35.2294L27.348 33.7289L24.7502 32.2285L21.1322 38.4924L23.73 39.9929ZM27.348 33.7289V36.7289H39.336V33.7289V30.7289H27.348V33.7289ZM39.336 33.7289H36.336V49.8209H39.336H42.336V33.7289H39.336ZM39.336 49.8209V52.8209H46.302V49.8209V46.8209H39.336V49.8209ZM46.302 49.8209H49.302V33.7289H46.302H43.302V49.8209H46.302ZM28.428 49.8209V52.8209H34.638V49.8209V46.8209H28.428V49.8209ZM34.638 49.8209H37.638V38.9669H34.638H31.638L31.638 49.8209H34.638ZM34.638 38.9669V35.9669H28.428V38.9669V41.9669H34.638V38.9669ZM28.428 38.9669H25.428L25.428 49.8209H28.428H31.428L31.428 38.9669H28.428ZM38.58 4.80179V1.80179H36.8483L35.9822 3.30133L38.58 4.80179ZM47.382 4.80179L49.9798 3.30133L49.1137 1.80179H47.382V4.80179ZM51 11.0658H54V10.2617L53.5978 9.56531L51 11.0658ZM51 25.1058V28.1058H54V25.1058H51ZM46.302 25.1058H43.302V28.1058H46.302V25.1058ZM46.302 10.0398H49.302V7.03979H46.302V10.0398ZM39.66 10.0398V7.03979H36.66V10.0398H39.66ZM39.66 18.8418L42.2578 20.3423L42.66 19.6459V18.8418H39.66ZM36.042 25.1058V28.1058H37.7737L38.6398 26.6062L36.042 25.1058ZM27.618 25.1058L25.0202 26.6062L25.8863 28.1058H27.618V25.1058ZM24 18.8418H21V19.6459L21.4022 20.3423L24 18.8418ZM24 5.3418V2.3418H21V5.3418H24ZM28.698 5.3418H31.698V2.3418H28.698V5.3418ZM28.698 19.8678H25.698V22.8678H28.698V19.8678ZM34.962 19.8678V22.8678H37.962V19.8678H34.962ZM34.962 11.0658L32.3642 9.56531L31.962 10.2617V11.0658H34.962ZM38.58 4.80179V7.80179H47.382V4.80179V1.80179H38.58V4.80179ZM47.382 4.80179L44.7842 6.30225L48.4022 12.5663L51 11.0658L53.5978 9.56531L49.9798 3.30133L47.382 4.80179ZM51 11.0658H48L48 25.1058H51H54L54 11.0658H51ZM51 25.1058V22.1058H46.302V25.1058V28.1058H51V25.1058ZM46.302 25.1058H49.302L49.302 10.0398H46.302H43.302L43.302 25.1058H46.302ZM46.302 10.0398V7.03979H39.66V10.0398V13.0398H46.302V10.0398ZM39.66 10.0398H36.66L36.66 18.8418H39.66H42.66L42.66 10.0398H39.66ZM39.66 18.8418L37.0622 17.3413L33.4442 23.6053L36.042 25.1058L38.6398 26.6062L42.2578 20.3423L39.66 18.8418ZM36.042 25.1058V22.1058H27.618V25.1058V28.1058H36.042V25.1058ZM27.618 25.1058L30.2158 23.6053L26.5978 17.3413L24 18.8418L21.4022 20.3423L25.0202 26.6062L27.618 25.1058ZM24 18.8418H27V5.3418H24H21V18.8418H24ZM24 5.3418V8.3418H28.698V5.3418V2.3418H24V5.3418ZM28.698 5.3418H25.698V19.8678H28.698H31.698V5.3418H28.698ZM28.698 19.8678V22.8678H34.962V19.8678V16.8678H28.698V19.8678ZM34.962 19.8678H37.962L37.962 11.0658H34.962H31.962V19.8678H34.962ZM34.962 11.0658L37.5598 12.5663L41.1778 6.30225L38.58 4.80179L35.9822 3.30133L32.3642 9.56531L34.962 11.0658Z" fill="#B5E93B" mask="url(#path-1-outside-1_3113_1888)"/>
</svg>
