<svg width="45" height="229" viewBox="0 0 45 229" fill="none" xmlns="http://www.w3.org/2000/svg">
<mask id="path-1-outside-1_3113_1859" maskUnits="userSpaceOnUse" x="-0.929688" y="-0.76123" width="46" height="230" fill="black">
<rect fill="white" x="-0.929688" y="-0.76123" width="46" height="230"/>
<path d="M31.6203 204.049V198.649H37.7223L41.3403 204.913V219.115L37.7223 225.379H6.61831L3.00031 219.115L3.00031 204.913L6.61831 198.649H12.7203L12.7203 204.049H7.86031V219.979H36.4803V204.049H31.6203ZM37.7223 167.057L41.3403 173.321L41.3403 183.743L37.7223 190.007H17.4183L13.8003 183.743V173.321L17.4183 167.057H37.7223ZM18.4983 184.769H36.6423L36.6423 172.295H18.4983V184.769ZM17.4183 135.469H41.0703V140.707H18.4983L18.4983 153.181H41.0703V158.419H13.8003V154.477L16.0143 153.181L13.8003 149.347L13.8003 141.733L17.4183 135.469ZM18.7683 128.991H14.0703V124.023H9.53431L6.51031 118.785H14.0703V112.305H18.7683V118.785H36.3723V112.305H41.0703V117.759L37.4523 124.023H18.7683V128.991ZM30.0003 100.577H36.6423V89.7232H30.0003V100.577ZM41.3403 99.5512L37.7223 105.815H28.9203L25.3023 99.5512V89.7232H18.7683V103.115H14.0703V90.7492L17.6883 84.4852H41.3403V85.8892L39.1263 89.7232L41.3403 93.5572V99.5512ZM18.7683 70.5987H36.3723L36.3723 55.5867H41.0703L41.0703 69.5727L37.4523 75.8367H17.6883L14.0703 69.5727V55.5867H18.7683V70.5987ZM18.7683 50.2057H14.0703V45.2377H9.53431L6.51031 39.9997H14.0703V33.5197H18.7683V39.9997H36.3723V33.5197H41.0703V38.9737L37.4523 45.2377H18.7683V50.2057ZM37.7223 3.00002L41.3403 9.26402V19.686L37.7223 25.95H17.4183L13.8003 19.686V9.26402L17.4183 3.00002H37.7223ZM18.4983 20.712H36.6423V8.23802H18.4983V20.712Z"/>
</mask>
<path d="M31.6203 204.049H28.6203V207.049H31.6203V204.049ZM31.6203 198.649V195.649H28.6203V198.649H31.6203ZM37.7223 198.649L40.3201 197.148L39.454 195.649H37.7223V198.649ZM41.3403 204.913H44.3403V204.109L43.9381 203.412L41.3403 204.913ZM41.3403 219.115L43.9381 220.615L44.3403 219.919V219.115H41.3403ZM37.7223 225.379V228.379H39.454L40.3201 226.879L37.7223 225.379ZM6.61831 225.379L4.0205 226.879L4.88662 228.379H6.61831V225.379ZM3.00031 219.115H0.00030899V219.919L0.4025 220.615L3.00031 219.115ZM3.00031 204.913L0.4025 203.412L0.00030899 204.109V204.913H3.00031ZM6.61831 198.649V195.649H4.88662L4.0205 197.148L6.61831 198.649ZM12.7203 198.649H15.7203V195.649H12.7203V198.649ZM12.7203 204.049V207.049H15.7203V204.049H12.7203ZM7.86031 204.049L7.86031 201.049H4.86031V204.049H7.86031ZM7.86031 219.979H4.86031V222.979H7.86031V219.979ZM36.4803 219.979V222.979H39.4803V219.979H36.4803ZM36.4803 204.049H39.4803V201.049H36.4803V204.049ZM31.6203 204.049H34.6203V198.649H31.6203H28.6203V204.049H31.6203ZM31.6203 198.649V201.649H37.7223V198.649V195.649H31.6203V198.649ZM37.7223 198.649L35.1245 200.149L38.7425 206.413L41.3403 204.913L43.9381 203.412L40.3201 197.148L37.7223 198.649ZM41.3403 204.913H38.3403V219.115H41.3403H44.3403V204.913H41.3403ZM41.3403 219.115L38.7425 217.614L35.1245 223.878L37.7223 225.379L40.3201 226.879L43.9381 220.615L41.3403 219.115ZM37.7223 225.379V222.379H6.61831V225.379V228.379H37.7223V225.379ZM6.61831 225.379L9.21612 223.878L5.59812 217.614L3.00031 219.115L0.4025 220.615L4.0205 226.879L6.61831 225.379ZM3.00031 219.115H6.00031L6.00031 204.913H3.00031H0.00030899L0.00030899 219.115H3.00031ZM3.00031 204.913L5.59812 206.413L9.21612 200.149L6.61831 198.649L4.0205 197.148L0.4025 203.412L3.00031 204.913ZM6.61831 198.649V201.649H12.7203V198.649V195.649H6.61831V198.649ZM12.7203 198.649H9.72031L9.72031 204.049H12.7203H15.7203L15.7203 198.649H12.7203ZM12.7203 204.049L12.7203 201.049H7.86031L7.86031 204.049V207.049H12.7203V204.049ZM7.86031 204.049H4.86031L4.86031 219.979H7.86031H10.8603V204.049H7.86031ZM7.86031 219.979V222.979H36.4803V219.979V216.979H7.86031V219.979ZM36.4803 219.979H39.4803V204.049H36.4803H33.4803V219.979H36.4803ZM36.4803 204.049V201.049H31.6203V204.049V207.049H36.4803V204.049ZM37.7223 167.057L40.3201 165.556L39.454 164.057H37.7223V167.057ZM41.3403 173.321H44.3403V172.517L43.9381 171.82L41.3403 173.321ZM41.3403 183.743L43.9381 185.243L44.3403 184.547V183.743H41.3403ZM37.7223 190.007V193.007H39.454L40.3201 191.507L37.7223 190.007ZM17.4183 190.007L14.8205 191.507L15.6866 193.007H17.4183V190.007ZM13.8003 183.743H10.8003V184.547L11.2025 185.243L13.8003 183.743ZM13.8003 173.321L11.2025 171.82L10.8003 172.517V173.321H13.8003ZM17.4183 167.057V164.057H15.6866L14.8205 165.556L17.4183 167.057ZM18.4983 184.769H15.4983V187.769H18.4983V184.769ZM36.6423 184.769V187.769H39.6423V184.769H36.6423ZM36.6423 172.295H39.6423V169.295H36.6423V172.295ZM18.4983 172.295V169.295H15.4983V172.295H18.4983ZM37.7223 167.057L35.1245 168.557L38.7425 174.821L41.3403 173.321L43.9381 171.82L40.3201 165.556L37.7223 167.057ZM41.3403 173.321H38.3403L38.3403 183.743H41.3403H44.3403L44.3403 173.321H41.3403ZM41.3403 183.743L38.7425 182.242L35.1245 188.506L37.7223 190.007L40.3201 191.507L43.9381 185.243L41.3403 183.743ZM37.7223 190.007V187.007H17.4183V190.007V193.007H37.7223V190.007ZM17.4183 190.007L20.0161 188.506L16.3981 182.242L13.8003 183.743L11.2025 185.243L14.8205 191.507L17.4183 190.007ZM13.8003 183.743H16.8003V173.321H13.8003H10.8003V183.743H13.8003ZM13.8003 173.321L16.3981 174.821L20.0161 168.557L17.4183 167.057L14.8205 165.556L11.2025 171.82L13.8003 173.321ZM17.4183 167.057V170.057H37.7223V167.057V164.057H17.4183V167.057ZM18.4983 184.769V187.769H36.6423V184.769V181.769H18.4983V184.769ZM36.6423 184.769H39.6423L39.6423 172.295H36.6423H33.6423L33.6423 184.769H36.6423ZM36.6423 172.295V169.295H18.4983V172.295V175.295H36.6423L36.6423 172.295ZM18.4983 172.295H15.4983V184.769H18.4983H21.4983V172.295H18.4983ZM17.4183 135.469V132.469H15.6866L14.8205 133.968L17.4183 135.469ZM41.0703 135.469H44.0703V132.469H41.0703V135.469ZM41.0703 140.707V143.707H44.0703V140.707H41.0703ZM18.4983 140.707V137.707H15.4983V140.707H18.4983ZM18.4983 153.181H15.4983V156.181H18.4983V153.181ZM41.0703 153.181H44.0703V150.181H41.0703V153.181ZM41.0703 158.419V161.419H44.0703V158.419H41.0703ZM13.8003 158.419H10.8003V161.419H13.8003V158.419ZM13.8003 154.477L12.2848 151.888L10.8003 152.757V154.477H13.8003ZM16.0143 153.181L17.5299 155.77L20.1036 154.263L18.6123 151.681L16.0143 153.181ZM13.8003 149.347H10.8003V150.151L11.2024 150.847L13.8003 149.347ZM13.8003 141.733L11.2025 140.232L10.8003 140.929V141.733H13.8003ZM17.4183 135.469V138.469H41.0703V135.469V132.469H17.4183V135.469ZM41.0703 135.469H38.0703V140.707H41.0703H44.0703V135.469H41.0703ZM41.0703 140.707V137.707H18.4983V140.707V143.707H41.0703V140.707ZM18.4983 140.707H15.4983L15.4983 153.181H18.4983H21.4983L21.4983 140.707H18.4983ZM18.4983 153.181V156.181H41.0703V153.181V150.181H18.4983V153.181ZM41.0703 153.181H38.0703V158.419H41.0703H44.0703V153.181H41.0703ZM41.0703 158.419V155.419H13.8003V158.419V161.419H41.0703V158.419ZM13.8003 158.419H16.8003V154.477H13.8003H10.8003V158.419H13.8003ZM13.8003 154.477L15.3159 157.066L17.5299 155.77L16.0143 153.181L14.4988 150.592L12.2848 151.888L13.8003 154.477ZM16.0143 153.181L18.6123 151.681L16.3983 147.847L13.8003 149.347L11.2024 150.847L13.4164 154.681L16.0143 153.181ZM13.8003 149.347H16.8003L16.8003 141.733H13.8003H10.8003L10.8003 149.347H13.8003ZM13.8003 141.733L16.3981 143.233L20.0161 136.969L17.4183 135.469L14.8205 133.968L11.2025 140.232L13.8003 141.733ZM18.7683 128.991V131.991H21.7683V128.991H18.7683ZM14.0703 128.991H11.0703V131.991H14.0703V128.991ZM14.0703 124.023H17.0703V121.023H14.0703V124.023ZM9.53431 124.023L6.9362 125.523L7.80221 127.023H9.53431V124.023ZM6.51031 118.785V115.785H1.3143L3.9122 120.285L6.51031 118.785ZM14.0703 118.785V121.785H17.0703V118.785H14.0703ZM14.0703 112.305V109.305H11.0703V112.305H14.0703ZM18.7683 112.305H21.7683V109.305H18.7683V112.305ZM18.7683 118.785H15.7683V121.785H18.7683V118.785ZM36.3723 118.785V121.785H39.3723V118.785H36.3723ZM36.3723 112.305V109.305H33.3723V112.305H36.3723ZM41.0703 112.305H44.0703V109.305H41.0703V112.305ZM41.0703 117.759L43.6681 119.259L44.0703 118.563V117.759H41.0703ZM37.4523 124.023V127.023H39.184L40.0501 125.523L37.4523 124.023ZM18.7683 124.023V121.023H15.7683V124.023H18.7683ZM18.7683 128.991V125.991H14.0703V128.991V131.991H18.7683V128.991ZM14.0703 128.991H17.0703V124.023H14.0703H11.0703V128.991H14.0703ZM14.0703 124.023V121.023H9.53431V124.023V127.023H14.0703V124.023ZM9.53431 124.023L12.1324 122.523L9.10842 117.285L6.51031 118.785L3.9122 120.285L6.9362 125.523L9.53431 124.023ZM6.51031 118.785V121.785H14.0703V118.785V115.785H6.51031V118.785ZM14.0703 118.785H17.0703V112.305H14.0703H11.0703V118.785H14.0703ZM14.0703 112.305V115.305H18.7683V112.305V109.305H14.0703V112.305ZM18.7683 112.305H15.7683V118.785H18.7683H21.7683V112.305H18.7683ZM18.7683 118.785V121.785H36.3723V118.785V115.785H18.7683V118.785ZM36.3723 118.785H39.3723V112.305H36.3723H33.3723V118.785H36.3723ZM36.3723 112.305V115.305H41.0703V112.305V109.305H36.3723V112.305ZM41.0703 112.305H38.0703V117.759H41.0703H44.0703V112.305H41.0703ZM41.0703 117.759L38.4725 116.258L34.8545 122.522L37.4523 124.023L40.0501 125.523L43.6681 119.259L41.0703 117.759ZM37.4523 124.023V121.023H18.7683V124.023V127.023H37.4523V124.023ZM18.7683 124.023H15.7683V128.991H18.7683H21.7683V124.023H18.7683ZM30.0003 100.577H27.0003V103.577H30.0003V100.577ZM36.6423 100.577V103.577H39.6423V100.577H36.6423ZM36.6423 89.7232H39.6423V86.7232H36.6423V89.7232ZM30.0003 89.7232V86.7232H27.0003V89.7232H30.0003ZM41.3403 99.5512L43.9381 101.052L44.3403 100.355V99.5512H41.3403ZM37.7223 105.815V108.815H39.454L40.3201 107.316L37.7223 105.815ZM28.9203 105.815L26.3225 107.316L27.1886 108.815H28.9203V105.815ZM25.3023 99.5512H22.3023V100.355L22.7045 101.052L25.3023 99.5512ZM25.3023 89.7232H28.3023V86.7232H25.3023V89.7232ZM18.7683 89.7232L18.7683 86.7232H15.7683L15.7683 89.7232H18.7683ZM18.7683 103.115V106.115H21.7683V103.115H18.7683ZM14.0703 103.115H11.0703V106.115H14.0703V103.115ZM14.0703 90.7492L11.4725 89.2487L11.0703 89.945V90.7492H14.0703ZM17.6883 84.4852V81.4852H15.9566L15.0905 82.9847L17.6883 84.4852ZM41.3403 84.4852H44.3403V81.4852H41.3403V84.4852ZM41.3403 85.8892L43.9383 87.3894L44.3403 86.6932V85.8892H41.3403ZM39.1263 89.7232L36.5284 88.2229L35.662 89.7232L36.5284 91.2234L39.1263 89.7232ZM41.3403 93.5572H44.3403V92.7532L43.9383 92.0569L41.3403 93.5572ZM30.0003 100.577V103.577H36.6423V100.577V97.5772H30.0003V100.577ZM36.6423 100.577H39.6423V89.7232H36.6423H33.6423V100.577H36.6423ZM36.6423 89.7232V86.7232H30.0003V89.7232V92.7232H36.6423V89.7232ZM30.0003 89.7232H27.0003V100.577H30.0003H33.0003V89.7232H30.0003ZM41.3403 99.5512L38.7425 98.0507L35.1245 104.315L37.7223 105.815L40.3201 107.316L43.9381 101.052L41.3403 99.5512ZM37.7223 105.815V102.815H28.9203V105.815V108.815H37.7223V105.815ZM28.9203 105.815L31.5181 104.315L27.9001 98.0507L25.3023 99.5512L22.7045 101.052L26.3225 107.316L28.9203 105.815ZM25.3023 99.5512H28.3023V89.7232H25.3023H22.3023V99.5512H25.3023ZM25.3023 89.7232V86.7232H18.7683L18.7683 89.7232V92.7232H25.3023V89.7232ZM18.7683 89.7232H15.7683V103.115H18.7683H21.7683V89.7232H18.7683ZM18.7683 103.115V100.115H14.0703V103.115V106.115H18.7683V103.115ZM14.0703 103.115H17.0703V90.7492H14.0703H11.0703V103.115H14.0703ZM14.0703 90.7492L16.6681 92.2496L20.2861 85.9856L17.6883 84.4852L15.0905 82.9847L11.4725 89.2487L14.0703 90.7492ZM17.6883 84.4852V87.4852H41.3403V84.4852V81.4852H17.6883V84.4852ZM41.3403 84.4852H38.3403V85.8892H41.3403H44.3403V84.4852H41.3403ZM41.3403 85.8892L38.7424 84.3889L36.5284 88.2229L39.1263 89.7232L41.7243 91.2234L43.9383 87.3894L41.3403 85.8892ZM39.1263 89.7232L36.5284 91.2234L38.7424 95.0574L41.3403 93.5572L43.9383 92.0569L41.7243 88.2229L39.1263 89.7232ZM41.3403 93.5572H38.3403V99.5512H41.3403H44.3403V93.5572H41.3403ZM18.7683 70.5987H15.7683V73.5987H18.7683V70.5987ZM36.3723 70.5987V73.5987H39.3723V70.5987H36.3723ZM36.3723 55.5867V52.5867H33.3723V55.5867H36.3723ZM41.0703 55.5867H44.0703V52.5867H41.0703V55.5867ZM41.0703 69.5727L43.6681 71.0732L44.0703 70.3769V69.5727H41.0703ZM37.4523 75.8367V78.8367H39.184L40.0501 77.3372L37.4523 75.8367ZM17.6883 75.8367L15.0905 77.3372L15.9566 78.8367H17.6883V75.8367ZM14.0703 69.5727H11.0703V70.3769L11.4725 71.0732L14.0703 69.5727ZM14.0703 55.5867V52.5867H11.0703V55.5867H14.0703ZM18.7683 55.5867H21.7683V52.5867H18.7683V55.5867ZM18.7683 70.5987V73.5987H36.3723V70.5987V67.5987H18.7683V70.5987ZM36.3723 70.5987H39.3723L39.3723 55.5867H36.3723H33.3723L33.3723 70.5987H36.3723ZM36.3723 55.5867V58.5867H41.0703V55.5867V52.5867H36.3723V55.5867ZM41.0703 55.5867H38.0703L38.0703 69.5727H41.0703H44.0703L44.0703 55.5867H41.0703ZM41.0703 69.5727L38.4725 68.0723L34.8545 74.3363L37.4523 75.8367L40.0501 77.3372L43.6681 71.0732L41.0703 69.5727ZM37.4523 75.8367V72.8367H17.6883V75.8367V78.8367H37.4523V75.8367ZM17.6883 75.8367L20.2861 74.3363L16.6681 68.0723L14.0703 69.5727L11.4725 71.0732L15.0905 77.3372L17.6883 75.8367ZM14.0703 69.5727H17.0703V55.5867H14.0703H11.0703V69.5727H14.0703ZM14.0703 55.5867V58.5867H18.7683V55.5867V52.5867H14.0703V55.5867ZM18.7683 55.5867H15.7683V70.5987H18.7683H21.7683V55.5867H18.7683ZM18.7683 50.2057V53.2057H21.7683V50.2057H18.7683ZM14.0703 50.2057H11.0703V53.2057H14.0703V50.2057ZM14.0703 45.2377H17.0703V42.2377H14.0703V45.2377ZM9.53431 45.2377L6.9362 46.7377L7.80221 48.2377H9.53431V45.2377ZM6.51031 39.9997V36.9997H1.3143L3.9122 41.4997L6.51031 39.9997ZM14.0703 39.9997V42.9997H17.0703V39.9997H14.0703ZM14.0703 33.5197L14.0703 30.5197H11.0703L11.0703 33.5197H14.0703ZM18.7683 33.5197H21.7683L21.7683 30.5197H18.7683L18.7683 33.5197ZM18.7683 39.9997H15.7683V42.9997H18.7683V39.9997ZM36.3723 39.9997V42.9997H39.3723V39.9997H36.3723ZM36.3723 33.5197V30.5197H33.3723V33.5197H36.3723ZM41.0703 33.5197H44.0703V30.5197H41.0703V33.5197ZM41.0703 38.9737L43.6681 40.4742L44.0703 39.7778V38.9737H41.0703ZM37.4523 45.2377V48.2377H39.184L40.0501 46.7382L37.4523 45.2377ZM18.7683 45.2377V42.2377H15.7683V45.2377H18.7683ZM18.7683 50.2057V47.2057H14.0703V50.2057V53.2057H18.7683V50.2057ZM14.0703 50.2057H17.0703V45.2377H14.0703H11.0703V50.2057H14.0703ZM14.0703 45.2377V42.2377H9.53431V45.2377V48.2377H14.0703V45.2377ZM9.53431 45.2377L12.1324 43.7378L9.10842 38.4998L6.51031 39.9997L3.9122 41.4997L6.9362 46.7377L9.53431 45.2377ZM6.51031 39.9997V42.9997H14.0703V39.9997V36.9997H6.51031V39.9997ZM14.0703 39.9997H17.0703V33.5197H14.0703H11.0703V39.9997H14.0703ZM14.0703 33.5197V36.5197H18.7683V33.5197L18.7683 30.5197H14.0703L14.0703 33.5197ZM18.7683 33.5197H15.7683V39.9997H18.7683H21.7683V33.5197H18.7683ZM18.7683 39.9997V42.9997H36.3723V39.9997V36.9997H18.7683V39.9997ZM36.3723 39.9997H39.3723V33.5197H36.3723H33.3723V39.9997H36.3723ZM36.3723 33.5197V36.5197H41.0703V33.5197V30.5197H36.3723V33.5197ZM41.0703 33.5197H38.0703V38.9737H41.0703H44.0703V33.5197H41.0703ZM41.0703 38.9737L38.4725 37.4733L34.8545 43.7373L37.4523 45.2377L40.0501 46.7382L43.6681 40.4742L41.0703 38.9737ZM37.4523 45.2377V42.2377H18.7683V45.2377V48.2377H37.4523V45.2377ZM18.7683 45.2377H15.7683V50.2057H18.7683H21.7683V45.2377H18.7683ZM37.7223 3.00002L40.3201 1.49956L39.454 1.52588e-05H37.7223V3.00002ZM41.3403 9.26402H44.3403V8.45988L43.9381 7.76355L41.3403 9.26402ZM41.3403 19.686L43.9381 21.1865L44.3403 20.4902V19.686H41.3403ZM37.7223 25.95V28.95H39.454L40.3201 27.4505L37.7223 25.95ZM17.4183 25.95L14.8205 27.4505L15.6866 28.95H17.4183V25.95ZM13.8003 19.686H10.8003V20.4901L11.2025 21.1865L13.8003 19.686ZM13.8003 9.26402L11.2025 7.76357L10.8003 8.45988V9.26402H13.8003ZM17.4183 3.00002V1.52588e-05H15.6866L14.8205 1.49956L17.4183 3.00002ZM18.4983 20.712H15.4983V23.712H18.4983V20.712ZM36.6423 20.712V23.712H39.6423V20.712H36.6423ZM36.6423 8.23802H39.6423V5.23802H36.6423V8.23802ZM18.4983 8.23802V5.23802H15.4983V8.23802H18.4983ZM37.7223 3.00002L35.1245 4.50049L38.7425 10.7645L41.3403 9.26402L43.9381 7.76355L40.3201 1.49956L37.7223 3.00002ZM41.3403 9.26402H38.3403V19.686H41.3403H44.3403V9.26402H41.3403ZM41.3403 19.686L38.7425 18.1856L35.1245 24.4496L37.7223 25.95L40.3201 27.4505L43.9381 21.1865L41.3403 19.686ZM37.7223 25.95V22.95H17.4183V25.95V28.95H37.7223V25.95ZM17.4183 25.95L20.0161 24.4496L16.3981 18.1856L13.8003 19.686L11.2025 21.1865L14.8205 27.4505L17.4183 25.95ZM13.8003 19.686H16.8003V9.26402H13.8003H10.8003V19.686H13.8003ZM13.8003 9.26402L16.3981 10.7645L20.0161 4.50047L17.4183 3.00002L14.8205 1.49956L11.2025 7.76357L13.8003 9.26402ZM17.4183 3.00002V6.00002H37.7223V3.00002V1.52588e-05H17.4183V3.00002ZM18.4983 20.712V23.712H36.6423V20.712V17.712H18.4983V20.712ZM36.6423 20.712H39.6423V8.23802H36.6423H33.6423V20.712H36.6423ZM36.6423 8.23802V5.23802H18.4983V8.23802V11.238H36.6423V8.23802ZM18.4983 8.23802H15.4983V20.712H18.4983H21.4983V8.23802H18.4983Z" fill="#B5E93B" mask="url(#path-1-outside-1_3113_1859)"/>
</svg>
