<svg width="181" height="122" viewBox="0 0 181 122" fill="none" xmlns="http://www.w3.org/2000/svg">
<path d="M73 39.6266C73 47.6113 82.1099 57.3381 89.3097 63C95.6278 57.7736 104.811 49.4259 105.472 39.6266C105.972 32.2258 99.6685 22.7859 89.3097 23.0037C76.8937 23.2647 73 33.0209 73 39.6266Z" fill="#B5E93B"/>
<path d="M93.0312 37.7778C92.9651 39.9256 91.2524 41.6169 89.2057 41.5555C87.1591 41.4941 85.5535 39.7032 85.6196 37.5555C85.6857 35.4078 87.3984 33.7164 89.445 33.7778C91.4917 33.8392 93.0972 35.6301 93.0312 37.7778Z" fill="#4A4A4A"/>
<path d="M49.4025 90.434V92H44.3805L42.2925 90.794V84.116L44.3805 82.91H47.3145L49.4025 84.116V88.112H44.0385V90.434H49.4025ZM44.0385 84.476V86.546H47.6565V84.476H44.0385ZM59.9269 84.116V92H58.1809V84.476H54.0229V92H52.2769V82.91H53.5909L54.0229 83.648L55.3009 82.91H57.8389L59.9269 84.116ZM69.462 86.33V90.38H74.844V92H67.662V79.4H74.844V81.02H69.462V84.71H73.764V86.33H69.462ZM77.1851 90.884V83H78.9311V90.524H83.0891V83H84.8351V92.09H83.5211L83.0891 91.352L81.8111 92.09H79.2731L77.1851 90.884ZM92.7364 84.566H89.4604V92H87.7144V83H89.0284L89.4604 83.738L90.7384 83H92.7364V84.566ZM102.361 90.884L100.273 92.09H96.7985L94.7105 90.884V84.116L96.7985 82.91H100.273L102.361 84.116V90.884ZM96.4565 84.476V90.524H100.615V84.476H96.4565ZM110.982 92.09H108.264L106.986 91.352V95.6H105.24V82.91H106.554L106.986 83.648L108.264 82.91H110.982L113.07 84.116V90.884L110.982 92.09ZM106.986 84.476V90.524H111.324V84.476H106.986ZM117.331 88.31V90.524H120.949V88.31H117.331ZM117.673 92.09L115.585 90.884V87.95L117.673 86.744H120.949V84.566H116.485V83H120.607L122.695 84.206V92.09H122.227L120.949 91.352L119.671 92.09H117.673ZM131.081 95.6L132.647 91.586L129.173 83H130.919L133.475 89.408H133.511L136.049 83H137.795L132.791 95.6H131.081ZM35.2216 114V101.4H37.0216V112.38H41.6836V114H35.2216ZM45.0408 110.31V112.524H48.6588V110.31H45.0408ZM45.3828 114.09L43.2948 112.884V109.95L45.3828 108.744H48.6588V106.566H44.1948V105H48.3168L50.4048 106.206V114.09H49.9368L48.6588 113.352L47.3808 114.09H45.3828ZM52.5677 106.566V105H54.2237V103.488L55.9697 102.48V105H58.1297V106.566H55.9697V112.434H58.1297V114H56.3117L54.2237 112.794V106.566H52.5677ZM62.3989 105V114H60.6529V105H62.3989ZM60.5629 102.786V100.86H62.4889V102.786H60.5629ZM72.9259 106.116V114H71.1799V106.476H67.0219V114H65.2759V104.91H66.5899L67.0219 105.648L68.2999 104.91H70.8379L72.9259 106.116ZM83.4552 112.884L81.3672 114.09H77.8932L75.8052 112.884V106.116L77.8932 104.91H81.3672L83.4552 106.116V112.884ZM77.5512 106.476V112.524H81.7092V106.476H77.5512ZM87.7205 110.31V112.524H91.3385V110.31H87.7205ZM88.0625 114.09L85.9745 112.884V109.95L88.0625 108.744H91.3385V106.566H86.8745V105H90.9965L93.0845 106.206V114.09H92.6165L91.3385 113.352L90.0605 114.09H88.0625ZM108.081 106.116V114H106.335V106.476H102.897V114H101.151V106.476H97.7133V114H95.9673V104.91H97.2813L97.7133 105.648L98.9913 104.91H100.809L102.483 105.882L104.175 104.91H105.993L108.081 106.116ZM118.071 112.434V114H113.049L110.961 112.794V106.116L113.049 104.91H115.983L118.071 106.116V110.112H112.707V112.434H118.071ZM112.707 106.476V108.546H116.325V106.476H112.707ZM112.851 103.38L114.543 101.076H116.883L114.291 103.38H112.851ZM125.968 106.566H122.692V114H120.946V105H122.26L122.692 105.738L123.97 105H125.968V106.566ZM129.688 106.566V112.434H134.692V114H130.03L127.942 112.794V106.206L130.03 105H134.692V106.566H129.688ZM138.592 110.31V112.524H142.21V110.31H138.592ZM138.934 114.09L136.846 112.884V109.95L138.934 108.744H142.21V106.566H137.746V105H141.868L143.956 106.206V114.09H143.488L142.21 113.352L140.932 114.09H138.934Z" fill="#FFFDFD"/>
</svg>
