<svg width="57" height="259" viewBox="0 0 57 259" fill="none" xmlns="http://www.w3.org/2000/svg">
<mask id="path-1-outside-1_3113_1878" maskUnits="userSpaceOnUse" x="-0.580078" y="-0.175293" width="57" height="260" fill="black">
<rect fill="white" x="-0.580078" y="-0.175293" width="57" height="260"/>
<path d="M42.4199 223.025H11.6399V223.133L42.4199 234.257V239.657L11.6399 250.727V250.835H42.4199V255.965H4.61992V248.351L36.1559 237.011V236.903L4.61992 225.509L4.61992 217.895H42.4199V223.025ZM15.4199 203.489H42.4199L42.4199 208.727H15.4199V203.489ZM8.77792 208.997H2.99992V203.219H8.77792V208.997ZM9.47992 167.385H42.4199V172.785H9.47992L9.47992 183.531H4.61992L4.61992 156.639H9.47992V167.385ZM20.1179 135.654V145.482H42.4199V150.72H15.4199V146.778L17.6339 145.482L15.4199 141.648V135.654H20.1179ZM31.3499 125.573H37.9919V114.719H31.3499V125.573ZM42.6899 124.547L39.0719 130.811H30.2699L26.6519 124.547V114.719H20.1179L20.1179 128.111H15.4199L15.4199 115.745L19.0379 109.481H42.6899V110.885L40.4759 114.719L42.6899 118.553V124.547ZM15.1499 91.7608V83.6068L18.7679 77.3428H39.0719L42.6899 83.6068L42.6899 91.7608L40.4759 95.5948L42.6899 99.4288V100.833H2.99992V95.5948H17.3639L15.1499 91.7608ZM19.8479 95.5948H37.9919L37.9919 82.5808H19.8479V95.5948ZM31.3499 64.5596H37.9919V53.7056H31.3499V64.5596ZM42.6899 63.5336L39.0719 69.7976H30.2699L26.6519 63.5336V53.7056H20.1179L20.1179 67.0976H15.4199L15.4199 54.7316L19.0379 48.4676H42.6899V49.8716L40.4759 53.7056L42.6899 57.5396V63.5336ZM8.77792 40.0892H2.99992V34.3112H8.77792V40.0892ZM15.4199 34.5812H49.6019L53.2199 40.8452V46.2992H48.5219V39.8192H15.4199V34.5812ZM39.0719 3.00002L42.6899 9.26402V19.686L39.0719 25.95H18.7679L15.1499 19.686V9.26402L18.7679 3.00002H39.0719ZM19.8479 20.712H37.9919V8.23802H19.8479V20.712Z"/>
</mask>
<path d="M42.4199 223.025V226.025H45.4199V223.025H42.4199ZM11.6399 223.025V220.025H8.63992V223.025H11.6399ZM11.6399 223.133H8.63992V225.238L10.6203 225.954L11.6399 223.133ZM42.4199 234.257H45.4199V232.151L43.4396 231.435L42.4199 234.257ZM42.4199 239.657L43.4352 242.48L45.4199 241.766V239.657H42.4199ZM11.6399 250.727L10.6246 247.904L8.63992 248.618V250.727H11.6399ZM11.6399 250.835H8.63992V253.835H11.6399V250.835ZM42.4199 250.835H45.4199V247.835H42.4199V250.835ZM42.4199 255.965V258.965H45.4199V255.965H42.4199ZM4.61992 255.965H1.61992V258.965H4.61992V255.965ZM4.61992 248.351L3.60479 245.528L1.61992 246.241L1.61992 248.351H4.61992ZM36.1559 237.011L37.1711 239.834L39.1559 239.12V237.011H36.1559ZM36.1559 236.903H39.1559V234.797L37.1753 234.081L36.1559 236.903ZM4.61992 225.509H1.61992V227.615L3.60051 228.33L4.61992 225.509ZM4.61992 217.895V214.895H1.61992V217.895H4.61992ZM42.4199 217.895H45.4199V214.895H42.4199V217.895ZM42.4199 223.025V220.025H11.6399V223.025V226.025H42.4199V223.025ZM11.6399 223.025H8.63992V223.133H11.6399H14.6399V223.025H11.6399ZM11.6399 223.133L10.6203 225.954L41.4003 237.078L42.4199 234.257L43.4396 231.435L12.6596 220.311L11.6399 223.133ZM42.4199 234.257H39.4199V239.657H42.4199H45.4199V234.257H42.4199ZM42.4199 239.657L41.4046 236.834L10.6246 247.904L11.6399 250.727L12.6552 253.55L43.4352 242.48L42.4199 239.657ZM11.6399 250.727H8.63992V250.835H11.6399H14.6399V250.727H11.6399ZM11.6399 250.835V253.835H42.4199V250.835V247.835H11.6399V250.835ZM42.4199 250.835H39.4199V255.965H42.4199H45.4199V250.835H42.4199ZM42.4199 255.965V252.965H4.61992V255.965V258.965H42.4199V255.965ZM4.61992 255.965H7.61992V248.351H4.61992H1.61992V255.965H4.61992ZM4.61992 248.351L5.63505 251.174L37.1711 239.834L36.1559 237.011L35.1408 234.188L3.60479 245.528L4.61992 248.351ZM36.1559 237.011H39.1559V236.903H36.1559H33.1559V237.011H36.1559ZM36.1559 236.903L37.1753 234.081L5.63933 222.687L4.61992 225.509L3.60051 228.33L35.1365 239.724L36.1559 236.903ZM4.61992 225.509H7.61992V217.895H4.61992H1.61992L1.61992 225.509H4.61992ZM4.61992 217.895L4.61992 220.895H42.4199V217.895V214.895H4.61992V217.895ZM42.4199 217.895H39.4199V223.025H42.4199H45.4199V217.895H42.4199ZM15.4199 203.489V200.489H12.4199V203.489H15.4199ZM42.4199 203.489H45.4199V200.489H42.4199V203.489ZM42.4199 208.727V211.727H45.4199V208.727H42.4199ZM15.4199 208.727H12.4199V211.727H15.4199V208.727ZM8.77792 208.997V211.997H11.7779V208.997H8.77792ZM2.99992 208.997H-8.01086e-05V211.997H2.99992V208.997ZM2.99992 203.219V200.219H-8.01086e-05V203.219H2.99992ZM8.77792 203.219H11.7779V200.219H8.77792V203.219ZM15.4199 203.489V206.489H42.4199L42.4199 203.489V200.489H15.4199V203.489ZM42.4199 203.489H39.4199L39.4199 208.727H42.4199H45.4199L45.4199 203.489H42.4199ZM42.4199 208.727V205.727H15.4199V208.727V211.727H42.4199V208.727ZM15.4199 208.727H18.4199V203.489H15.4199H12.4199V208.727H15.4199ZM8.77792 208.997V205.997H2.99992V208.997V211.997H8.77792V208.997ZM2.99992 208.997H5.99992V203.219H2.99992H-8.01086e-05V208.997H2.99992ZM2.99992 203.219V206.219H8.77792V203.219V200.219H2.99992V203.219ZM8.77792 203.219H5.77792V208.997H8.77792H11.7779V203.219H8.77792ZM9.47992 167.385H6.47992V170.385H9.47992V167.385ZM42.4199 167.385H45.4199V164.385H42.4199V167.385ZM42.4199 172.785V175.785H45.4199V172.785H42.4199ZM9.47992 172.785V169.785H6.47992V172.785H9.47992ZM9.47992 183.531V186.531H12.4799V183.531H9.47992ZM4.61992 183.531H1.61992V186.531H4.61992V183.531ZM4.61992 156.639V153.639H1.61992V156.639H4.61992ZM9.47992 156.639H12.4799V153.639H9.47992V156.639ZM9.47992 167.385V170.385H42.4199V167.385V164.385H9.47992V167.385ZM42.4199 167.385H39.4199V172.785H42.4199H45.4199V167.385H42.4199ZM42.4199 172.785V169.785H9.47992V172.785V175.785H42.4199V172.785ZM9.47992 172.785H6.47992V183.531H9.47992H12.4799L12.4799 172.785H9.47992ZM9.47992 183.531V180.531H4.61992V183.531V186.531H9.47992V183.531ZM4.61992 183.531H7.61992L7.61992 156.639H4.61992H1.61992L1.61992 183.531H4.61992ZM4.61992 156.639V159.639H9.47992V156.639V153.639H4.61992V156.639ZM9.47992 156.639H6.47992L6.47992 167.385H9.47992H12.4799V156.639H9.47992ZM20.1179 135.654H23.1179V132.654H20.1179V135.654ZM20.1179 145.482H17.1179V148.482H20.1179V145.482ZM42.4199 145.482H45.4199V142.482H42.4199V145.482ZM42.4199 150.72V153.72H45.4199V150.72H42.4199ZM15.4199 150.72H12.4199V153.72H15.4199V150.72ZM15.4199 146.778L13.9044 144.189L12.4199 145.057V146.778H15.4199ZM17.6339 145.482L19.1495 148.071L21.7233 146.564L20.2319 143.981L17.6339 145.482ZM15.4199 141.648H12.4199V142.452L12.822 143.148L15.4199 141.648ZM15.4199 135.654V132.654H12.4199V135.654H15.4199ZM20.1179 135.654H17.1179V145.482H20.1179H23.1179V135.654H20.1179ZM20.1179 145.482V148.482H42.4199V145.482V142.482H20.1179V145.482ZM42.4199 145.482H39.4199V150.72H42.4199H45.4199V145.482H42.4199ZM42.4199 150.72V147.72H15.4199V150.72V153.72H42.4199V150.72ZM15.4199 150.72H18.4199V146.778H15.4199H12.4199V150.72H15.4199ZM15.4199 146.778L16.9355 149.367L19.1495 148.071L17.6339 145.482L16.1184 142.893L13.9044 144.189L15.4199 146.778ZM17.6339 145.482L20.2319 143.981L18.0179 140.147L15.4199 141.648L12.822 143.148L15.036 146.982L17.6339 145.482ZM15.4199 141.648H18.4199V135.654H15.4199H12.4199V141.648H15.4199ZM15.4199 135.654V138.654H20.1179V135.654V132.654H15.4199V135.654ZM31.3499 125.573H28.3499V128.573H31.3499V125.573ZM37.9919 125.573V128.573H40.9919V125.573H37.9919ZM37.9919 114.719H40.9919V111.719H37.9919V114.719ZM31.3499 114.719V111.719H28.3499V114.719H31.3499ZM42.6899 124.547L45.2877 126.048L45.6899 125.351V124.547H42.6899ZM39.0719 130.811V133.811H40.8036L41.6697 132.312L39.0719 130.811ZM30.2699 130.811L27.6721 132.312L28.5382 133.811H30.2699V130.811ZM26.6519 124.547H23.6519V125.351L24.0541 126.048L26.6519 124.547ZM26.6519 114.719H29.6519V111.719H26.6519V114.719ZM20.1179 114.719V111.719H17.1179V114.719H20.1179ZM20.1179 128.111V131.111H23.1179V128.111H20.1179ZM15.4199 128.111H12.4199V131.111H15.4199V128.111ZM15.4199 115.745L12.8221 114.245L12.4199 114.941V115.745H15.4199ZM19.0379 109.481V106.481H17.3062L16.4401 107.981L19.0379 109.481ZM42.6899 109.481H45.6899V106.481H42.6899V109.481ZM42.6899 110.885L45.2879 112.385L45.6899 111.689V110.885H42.6899ZM40.4759 114.719L37.878 113.219L37.0117 114.719L37.878 116.219L40.4759 114.719ZM42.6899 118.553H45.6899V117.749L45.2879 117.053L42.6899 118.553ZM31.3499 125.573V128.573H37.9919V125.573V122.573H31.3499V125.573ZM37.9919 125.573H40.9919V114.719H37.9919H34.9919V125.573H37.9919ZM37.9919 114.719V111.719H31.3499V114.719V117.719H37.9919V114.719ZM31.3499 114.719H28.3499V125.573H31.3499H34.3499V114.719H31.3499ZM42.6899 124.547L40.0921 123.047L36.4741 129.311L39.0719 130.811L41.6697 132.312L45.2877 126.048L42.6899 124.547ZM39.0719 130.811V127.811H30.2699V130.811V133.811H39.0719V130.811ZM30.2699 130.811L32.8677 129.311L29.2497 123.047L26.6519 124.547L24.0541 126.048L27.6721 132.312L30.2699 130.811ZM26.6519 124.547H29.6519V114.719H26.6519H23.6519V124.547H26.6519ZM26.6519 114.719V111.719H20.1179V114.719V117.719H26.6519V114.719ZM20.1179 114.719H17.1179L17.1179 128.111H20.1179H23.1179L23.1179 114.719H20.1179ZM20.1179 128.111V125.111H15.4199V128.111V131.111H20.1179V128.111ZM15.4199 128.111H18.4199L18.4199 115.745H15.4199H12.4199L12.4199 128.111H15.4199ZM15.4199 115.745L18.0177 117.246L21.6357 110.982L19.0379 109.481L16.4401 107.981L12.8221 114.245L15.4199 115.745ZM19.0379 109.481V112.481H42.6899V109.481V106.481H19.0379V109.481ZM42.6899 109.481H39.6899V110.885H42.6899H45.6899V109.481H42.6899ZM42.6899 110.885L40.092 109.385L37.878 113.219L40.4759 114.719L43.0739 116.219L45.2879 112.385L42.6899 110.885ZM40.4759 114.719L37.878 116.219L40.092 120.053L42.6899 118.553L45.2879 117.053L43.0739 113.219L40.4759 114.719ZM42.6899 118.553H39.6899V124.547H42.6899H45.6899V118.553H42.6899ZM15.1499 91.7608H12.1499V92.5648L12.552 93.261L15.1499 91.7608ZM15.1499 83.6068L12.5521 82.1064L12.1499 82.8027V83.6068H15.1499ZM18.7679 77.3428V74.3428H17.0362L16.1701 75.8424L18.7679 77.3428ZM39.0719 77.3428L41.6697 75.8424L40.8036 74.3428H39.0719V77.3428ZM42.6899 83.6068H45.6899V82.8027L45.2877 82.1064L42.6899 83.6068ZM42.6899 91.7608L45.2879 93.261L45.6899 92.5648V91.7608H42.6899ZM40.4759 95.5948L37.878 94.0946L37.0117 95.5948L37.878 97.0951L40.4759 95.5948ZM42.6899 99.4288H45.6899V98.6248L45.2879 97.9286L42.6899 99.4288ZM42.6899 100.833V103.833H45.6899V100.833H42.6899ZM2.99992 100.833H-8.01086e-05V103.833H2.99992V100.833ZM2.99992 95.5948V92.5948H-8.01086e-05V95.5948H2.99992ZM17.3639 95.5948V98.5948H22.5606L19.9619 94.0946L17.3639 95.5948ZM19.8479 95.5948H16.8479V98.5948H19.8479V95.5948ZM37.9919 95.5948V98.5948H40.9919V95.5948H37.9919ZM37.9919 82.5808H40.9919V79.5808H37.9919V82.5808ZM19.8479 82.5808V79.5808H16.8479V82.5808H19.8479ZM15.1499 91.7608H18.1499V83.6068H15.1499H12.1499V91.7608H15.1499ZM15.1499 83.6068L17.7477 85.1073L21.3657 78.8433L18.7679 77.3428L16.1701 75.8424L12.5521 82.1064L15.1499 83.6068ZM18.7679 77.3428V80.3428H39.0719V77.3428V74.3428H18.7679V77.3428ZM39.0719 77.3428L36.4741 78.8433L40.0921 85.1073L42.6899 83.6068L45.2877 82.1064L41.6697 75.8424L39.0719 77.3428ZM42.6899 83.6068H39.6899L39.6899 91.7608H42.6899H45.6899L45.6899 83.6068H42.6899ZM42.6899 91.7608L40.092 90.2606L37.878 94.0946L40.4759 95.5948L43.0739 97.0951L45.2879 93.261L42.6899 91.7608ZM40.4759 95.5948L37.878 97.0951L40.092 100.929L42.6899 99.4288L45.2879 97.9286L43.0739 94.0946L40.4759 95.5948ZM42.6899 99.4288H39.6899V100.833H42.6899H45.6899V99.4288H42.6899ZM42.6899 100.833V97.8328H2.99992V100.833V103.833H42.6899V100.833ZM2.99992 100.833H5.99992V95.5948H2.99992H-8.01086e-05V100.833H2.99992ZM2.99992 95.5948V98.5948H17.3639V95.5948V92.5948H2.99992V95.5948ZM17.3639 95.5948L19.9619 94.0946L17.7479 90.2606L15.1499 91.7608L12.552 93.261L14.766 97.0951L17.3639 95.5948ZM19.8479 95.5948V98.5948H37.9919V95.5948V92.5948H19.8479V95.5948ZM37.9919 95.5948H40.9919L40.9919 82.5808H37.9919H34.9919L34.9919 95.5948H37.9919ZM37.9919 82.5808V79.5808H19.8479V82.5808V85.5808H37.9919V82.5808ZM19.8479 82.5808H16.8479V95.5948H19.8479H22.8479V82.5808H19.8479ZM31.3499 64.5596H28.3499V67.5596H31.3499V64.5596ZM37.9919 64.5596V67.5596H40.9919V64.5596H37.9919ZM37.9919 53.7056H40.9919V50.7056H37.9919V53.7056ZM31.3499 53.7056V50.7056H28.3499V53.7056H31.3499ZM42.6899 63.5336L45.2877 65.0341L45.6899 64.3377V63.5336H42.6899ZM39.0719 69.7976V72.7976H40.8036L41.6697 71.298L39.0719 69.7976ZM30.2699 69.7976L27.6721 71.298L28.5382 72.7976H30.2699V69.7976ZM26.6519 63.5336H23.6519V64.3377L24.0541 65.0341L26.6519 63.5336ZM26.6519 53.7056H29.6519V50.7056H26.6519V53.7056ZM20.1179 53.7056V50.7056H17.1179V53.7056H20.1179ZM20.1179 67.0976V70.0976H23.1179V67.0976H20.1179ZM15.4199 67.0976H12.4199V70.0976H15.4199V67.0976ZM15.4199 54.7316L12.8221 53.2311L12.4199 53.9275V54.7316H15.4199ZM19.0379 48.4676V45.4676H17.3062L16.4401 46.9671L19.0379 48.4676ZM42.6899 48.4676H45.6899V45.4676H42.6899V48.4676ZM42.6899 49.8716L45.2879 51.3718L45.6899 50.6756V49.8716H42.6899ZM40.4759 53.7056L37.878 52.2054L37.0117 53.7056L37.878 55.2058L40.4759 53.7056ZM42.6899 57.5396H45.6899V56.7356L45.2879 56.0394L42.6899 57.5396ZM31.3499 64.5596V67.5596H37.9919V64.5596V61.5596H31.3499V64.5596ZM37.9919 64.5596H40.9919V53.7056H37.9919H34.9919V64.5596H37.9919ZM37.9919 53.7056V50.7056H31.3499V53.7056V56.7056H37.9919V53.7056ZM31.3499 53.7056H28.3499V64.5596H31.3499H34.3499V53.7056H31.3499ZM42.6899 63.5336L40.0921 62.0331L36.4741 68.2971L39.0719 69.7976L41.6697 71.298L45.2877 65.0341L42.6899 63.5336ZM39.0719 69.7976V66.7976H30.2699V69.7976V72.7976H39.0719V69.7976ZM30.2699 69.7976L32.8677 68.2971L29.2497 62.0331L26.6519 63.5336L24.0541 65.0341L27.6721 71.298L30.2699 69.7976ZM26.6519 63.5336H29.6519V53.7056H26.6519H23.6519V63.5336H26.6519ZM26.6519 53.7056V50.7056H20.1179V53.7056V56.7056H26.6519V53.7056ZM20.1179 53.7056H17.1179L17.1179 67.0976H20.1179H23.1179L23.1179 53.7056H20.1179ZM20.1179 67.0976V64.0976H15.4199V67.0976V70.0976H20.1179V67.0976ZM15.4199 67.0976H18.4199L18.4199 54.7316H15.4199H12.4199L12.4199 67.0976H15.4199ZM15.4199 54.7316L18.0177 56.2321L21.6357 49.968L19.0379 48.4676L16.4401 46.9671L12.8221 53.2311L15.4199 54.7316ZM19.0379 48.4676V51.4676H42.6899V48.4676V45.4676H19.0379V48.4676ZM42.6899 48.4676H39.6899V49.8716H42.6899H45.6899V48.4676H42.6899ZM42.6899 49.8716L40.092 48.3714L37.878 52.2054L40.4759 53.7056L43.0739 55.2058L45.2879 51.3718L42.6899 49.8716ZM40.4759 53.7056L37.878 55.2058L40.092 59.0398L42.6899 57.5396L45.2879 56.0394L43.0739 52.2054L40.4759 53.7056ZM42.6899 57.5396H39.6899V63.5336H42.6899H45.6899V57.5396H42.6899ZM8.77792 40.0892V43.0892H11.7779V40.0892H8.77792ZM2.99992 40.0892H-8.01086e-05V43.0892H2.99992V40.0892ZM2.99992 34.3112V31.3112H-8.01086e-05V34.3112H2.99992ZM8.77792 34.3112H11.7779V31.3112H8.77792V34.3112ZM15.4199 34.5812V31.5812H12.4199V34.5812H15.4199ZM49.6019 34.5812L52.1997 33.0807L51.3336 31.5812H49.6019V34.5812ZM53.2199 40.8452H56.2199V40.041L55.8177 39.3447L53.2199 40.8452ZM53.2199 46.2992V49.2992H56.2199V46.2992H53.2199ZM48.5219 46.2992H45.5219V49.2992H48.5219V46.2992ZM48.5219 39.8192H51.5219V36.8192H48.5219V39.8192ZM15.4199 39.8192H12.4199V42.8192H15.4199V39.8192ZM8.77792 40.0892V37.0892H2.99992V40.0892V43.0892H8.77792V40.0892ZM2.99992 40.0892H5.99992V34.3112H2.99992H-8.01086e-05V40.0892H2.99992ZM2.99992 34.3112V37.3112H8.77792V34.3112V31.3112H2.99992V34.3112ZM8.77792 34.3112H5.77792V40.0892H8.77792H11.7779V34.3112H8.77792ZM15.4199 34.5812V37.5812H49.6019V34.5812V31.5812H15.4199V34.5812ZM49.6019 34.5812L47.0041 36.0816L50.6221 42.3456L53.2199 40.8452L55.8177 39.3447L52.1997 33.0807L49.6019 34.5812ZM53.2199 40.8452H50.2199V46.2992H53.2199H56.2199V40.8452H53.2199ZM53.2199 46.2992V43.2992H48.5219V46.2992V49.2992H53.2199V46.2992ZM48.5219 46.2992H51.5219V39.8192H48.5219H45.5219V46.2992H48.5219ZM48.5219 39.8192V36.8192H15.4199V39.8192V42.8192H48.5219V39.8192ZM15.4199 39.8192H18.4199V34.5812H15.4199H12.4199V39.8192H15.4199ZM39.0719 3.00003L41.6697 1.49957L40.8036 3.05176e-05H39.0719V3.00003ZM42.6899 9.26402H45.6899V8.45988L45.2877 7.76355L42.6899 9.26402ZM42.6899 19.686L45.2877 21.1865L45.6899 20.4902V19.686H42.6899ZM39.0719 25.95V28.95H40.8036L41.6697 27.4505L39.0719 25.95ZM18.7679 25.95L16.1701 27.4505L17.0362 28.95H18.7679V25.95ZM15.1499 19.686H12.1499V20.4901L12.5521 21.1865L15.1499 19.686ZM15.1499 9.26402L12.5521 7.76357L12.1499 8.45988V9.26402H15.1499ZM18.7679 3.00003V3.05176e-05H17.0362L16.1701 1.49957L18.7679 3.00003ZM19.8479 20.712H16.8479V23.712H19.8479V20.712ZM37.9919 20.712V23.712H40.9919V20.712H37.9919ZM37.9919 8.23802H40.9919V5.23802H37.9919V8.23802ZM19.8479 8.23802L19.8479 5.23802H16.8479L16.8479 8.23802H19.8479ZM39.0719 3.00003L36.4741 4.50049L40.0921 10.7645L42.6899 9.26402L45.2877 7.76355L41.6697 1.49957L39.0719 3.00003ZM42.6899 9.26402H39.6899V19.686H42.6899H45.6899V9.26402H42.6899ZM42.6899 19.686L40.0921 18.1856L36.4741 24.4496L39.0719 25.95L41.6697 27.4505L45.2877 21.1865L42.6899 19.686ZM39.0719 25.95V22.95H18.7679V25.95V28.95H39.0719V25.95ZM18.7679 25.95L21.3657 24.4496L17.7477 18.1856L15.1499 19.686L12.5521 21.1865L16.1701 27.4505L18.7679 25.95ZM15.1499 19.686H18.1499V9.26402H15.1499H12.1499V19.686H15.1499ZM15.1499 9.26402L17.7477 10.7645L21.3657 4.50049L18.7679 3.00003L16.1701 1.49957L12.5521 7.76357L15.1499 9.26402ZM18.7679 3.00003V6.00002H39.0719V3.00003V3.05176e-05H18.7679V3.00003ZM19.8479 20.712V23.712H37.9919V20.712V17.712H19.8479V20.712ZM37.9919 20.712H40.9919V8.23802H37.9919H34.9919V20.712H37.9919ZM37.9919 8.23802V5.23802H19.8479L19.8479 8.23802V11.238H37.9919V8.23802ZM19.8479 8.23802H16.8479V20.712H19.8479H22.8479V8.23802H19.8479Z" fill="#B5E93B" mask="url(#path-1-outside-1_3113_1878)"/>
</svg>
