<svg width="157" height="32" viewBox="0 0 157 32" fill="none" xmlns="http://www.w3.org/2000/svg">
<mask id="path-1-outside-1_3129_3479" maskUnits="userSpaceOnUse" x="-0.719727" y="-0.639893" width="158" height="33" fill="black">
<rect fill="white" x="-0.719727" y="-0.639893" width="158" height="33"/>
<path d="M19.8483 24.3601V9.57611H19.7843L14.7283 24.3601H10.4723L5.38427 9.38411H5.32027V24.3601H1.00027V1.96011H6.95227L12.5843 18.4401H12.6483L18.2483 1.96011H24.1683V24.3601H19.8483ZM33.658 8.36011V24.3601H29.274V8.36011H33.658ZM29.114 5.38411V1.00011H33.818V5.38411H29.114ZM55.702 5.80011V24.3601H51.222V5.80011H45.174V1.96011H61.75V5.80011H55.702ZM74.8495 12.1041H69.3455V24.3601H64.9615V8.36011H68.5775L69.3455 9.67211L71.6175 8.36011H74.8495V12.1041ZM81.7993 18.0561V20.8401H86.3113V18.0561H81.7993ZM81.1273 24.5201L77.4153 22.3761V16.8401L81.1273 14.6961H86.3113V12.1041H79.0153V8.36011H86.9833L90.6953 10.5041V24.5201H88.5833L86.3113 23.2081L84.0393 24.5201H81.1273ZM102.149 8.20011H106.341L110.053 10.3441V22.3761L106.341 24.5201H102.149L99.8768 23.2081L97.6048 24.5201H95.4928V1.00011H99.8768V9.51211L102.149 8.20011ZM99.8768 11.9441V20.7761H105.669V11.9441H99.8768ZM118.612 18.0561V20.8401H123.124V18.0561H118.612ZM117.94 24.5201L114.228 22.3761V16.8401L117.94 14.6961H123.124V12.1041H115.828V8.36011H123.796L127.508 10.5041V24.5201H125.396L123.124 23.2081L120.852 24.5201H117.94ZM132.145 5.38411V1.00011H136.849V5.38411H132.145ZM136.689 8.36011V28.6161L132.977 30.7601H129.105V27.0161H132.305V8.36011H136.689ZM155.733 22.3761L152.021 24.5201H145.205L141.493 22.3761V10.3441L145.205 8.20011H152.021L155.733 10.3441V22.3761ZM145.877 11.9441V20.7761H151.349V11.9441H145.877Z"/>
</mask>
<path d="M19.8483 24.3601H18.8483V25.3601H19.8483V24.3601ZM19.8483 9.57611H20.8483V8.57611H19.8483V9.57611ZM19.7843 9.57611V8.57611H19.0694L18.8381 9.25252L19.7843 9.57611ZM14.7283 24.3601V25.3601H15.4431L15.6745 24.6837L14.7283 24.3601ZM10.4723 24.3601L9.52543 24.6818L9.75588 25.3601H10.4723V24.3601ZM5.38427 9.38411L6.33112 9.06242L6.10067 8.38411H5.38427V9.38411ZM5.32027 9.38411V8.38411H4.32027V9.38411H5.32027ZM5.32027 24.3601V25.3601H6.32027V24.3601H5.32027ZM1.00027 24.3601H0.000273466V25.3601H1.00027V24.3601ZM1.00027 1.96011V0.960106H0.000273466V1.96011H1.00027ZM6.95227 1.96011L7.89854 1.63672L7.66731 0.960106H6.95227V1.96011ZM12.5843 18.4401L11.638 18.7635L11.8692 19.4401H12.5843V18.4401ZM12.6483 18.4401V19.4401H13.3646L13.5951 18.7618L12.6483 18.4401ZM18.2483 1.96011V0.960106H17.5319L17.3014 1.63837L18.2483 1.96011ZM24.1683 1.96011H25.1683V0.960106H24.1683V1.96011ZM24.1683 24.3601V25.3601H25.1683V24.3601H24.1683ZM19.8483 24.3601H20.8483V9.57611H19.8483H18.8483V24.3601H19.8483ZM19.8483 9.57611V8.57611H19.7843V9.57611V10.5761H19.8483V9.57611ZM19.7843 9.57611L18.8381 9.25252L13.7821 24.0365L14.7283 24.3601L15.6745 24.6837L20.7305 9.8997L19.7843 9.57611ZM14.7283 24.3601V23.3601H10.4723V24.3601V25.3601H14.7283V24.3601ZM10.4723 24.3601L11.4191 24.0384L6.33112 9.06242L5.38427 9.38411L4.43743 9.70579L9.52543 24.6818L10.4723 24.3601ZM5.38427 9.38411V8.38411H5.32027V9.38411V10.3841H5.38427V9.38411ZM5.32027 9.38411H4.32027V24.3601H5.32027H6.32027V9.38411H5.32027ZM5.32027 24.3601V23.3601H1.00027V24.3601V25.3601H5.32027V24.3601ZM1.00027 24.3601H2.00027V1.96011H1.00027H0.000273466V24.3601H1.00027ZM1.00027 1.96011V2.96011H6.95227V1.96011V0.960106H1.00027V1.96011ZM6.95227 1.96011L6.00601 2.28349L11.638 18.7635L12.5843 18.4401L13.5305 18.1167L7.89854 1.63672L6.95227 1.96011ZM12.5843 18.4401V19.4401H12.6483V18.4401V17.4401H12.5843V18.4401ZM12.6483 18.4401L13.5951 18.7618L19.1951 2.28184L18.2483 1.96011L17.3014 1.63837L11.7014 18.1184L12.6483 18.4401ZM18.2483 1.96011V2.96011H24.1683V1.96011V0.960106H18.2483V1.96011ZM24.1683 1.96011H23.1683V24.3601H24.1683H25.1683V1.96011H24.1683ZM24.1683 24.3601V23.3601H19.8483V24.3601V25.3601H24.1683V24.3601ZM33.658 8.36011H34.658V7.36011H33.658V8.36011ZM33.658 24.3601V25.3601H34.658V24.3601H33.658ZM29.274 24.3601H28.274V25.3601H29.274V24.3601ZM29.274 8.36011V7.36011H28.274V8.36011H29.274ZM29.114 5.38411H28.114V6.38411H29.114V5.38411ZM29.114 1.00011V0.000106812H28.114V1.00011H29.114ZM33.818 1.00011H34.818V0.000106812H33.818V1.00011ZM33.818 5.38411V6.38411H34.818V5.38411H33.818ZM33.658 8.36011H32.658V24.3601H33.658H34.658V8.36011H33.658ZM33.658 24.3601V23.3601H29.274V24.3601V25.3601H33.658V24.3601ZM29.274 24.3601H30.274V8.36011H29.274H28.274V24.3601H29.274ZM29.274 8.36011V9.36011H33.658V8.36011V7.36011H29.274V8.36011ZM29.114 5.38411H30.114V1.00011H29.114H28.114V5.38411H29.114ZM29.114 1.00011V2.00011H33.818V1.00011V0.000106812H29.114V1.00011ZM33.818 1.00011H32.818V5.38411H33.818H34.818V1.00011H33.818ZM33.818 5.38411V4.38411H29.114V5.38411V6.38411H33.818V5.38411ZM55.702 5.80011V4.80011H54.702V5.80011H55.702ZM55.702 24.3601V25.3601H56.702V24.3601H55.702ZM51.222 24.3601H50.222V25.3601H51.222V24.3601ZM51.222 5.80011H52.222V4.80011H51.222V5.80011ZM45.174 5.80011H44.174V6.80011H45.174V5.80011ZM45.174 1.96011V0.960106H44.174V1.96011H45.174ZM61.75 1.96011H62.75V0.960106H61.75V1.96011ZM61.75 5.80011V6.80011H62.75V5.80011H61.75ZM55.702 5.80011H54.702V24.3601H55.702H56.702V5.80011H55.702ZM55.702 24.3601V23.3601H51.222V24.3601V25.3601H55.702V24.3601ZM51.222 24.3601H52.222V5.80011H51.222H50.222V24.3601H51.222ZM51.222 5.80011V4.80011H45.174V5.80011V6.80011H51.222V5.80011ZM45.174 5.80011H46.174V1.96011H45.174H44.174V5.80011H45.174ZM45.174 1.96011V2.96011H61.75V1.96011V0.960106H45.174V1.96011ZM61.75 1.96011H60.75V5.80011H61.75H62.75V1.96011H61.75ZM61.75 5.80011V4.80011H55.702V5.80011V6.80011H61.75V5.80011ZM74.8495 12.1041V13.1041H75.8495V12.1041H74.8495ZM69.3455 12.1041V11.1041H68.3455V12.1041H69.3455ZM69.3455 24.3601V25.3601H70.3455V24.3601H69.3455ZM64.9615 24.3601H63.9615V25.3601H64.9615V24.3601ZM64.9615 8.36011V7.36011H63.9615V8.36011H64.9615ZM68.5775 8.36011L69.4405 7.85493L69.1509 7.36011H68.5775V8.36011ZM69.3455 9.67211L68.4825 10.1773L68.9847 11.0352L69.8456 10.5381L69.3455 9.67211ZM71.6175 8.36011V7.36011H71.3495L71.1174 7.49413L71.6175 8.36011ZM74.8495 8.36011H75.8495V7.36011H74.8495V8.36011ZM74.8495 12.1041V11.1041H69.3455V12.1041V13.1041H74.8495V12.1041ZM69.3455 12.1041H68.3455V24.3601H69.3455H70.3455V12.1041H69.3455ZM69.3455 24.3601V23.3601H64.9615V24.3601V25.3601H69.3455V24.3601ZM64.9615 24.3601H65.9615V8.36011H64.9615H63.9615V24.3601H64.9615ZM64.9615 8.36011V9.36011H68.5775V8.36011V7.36011H64.9615V8.36011ZM68.5775 8.36011L67.7145 8.86529L68.4825 10.1773L69.3455 9.67211L70.2085 9.16693L69.4405 7.85493L68.5775 8.36011ZM69.3455 9.67211L69.8456 10.5381L72.1176 9.22609L71.6175 8.36011L71.1174 7.49413L68.8455 8.80612L69.3455 9.67211ZM71.6175 8.36011V9.36011H74.8495V8.36011V7.36011H71.6175V8.36011ZM74.8495 8.36011H73.8495V12.1041H74.8495H75.8495V8.36011H74.8495ZM81.7993 18.0561V17.0561H80.7993V18.0561H81.7993ZM81.7993 20.8401H80.7993V21.8401H81.7993V20.8401ZM86.3113 20.8401V21.8401H87.3113V20.8401H86.3113ZM86.3113 18.0561H87.3113V17.0561H86.3113V18.0561ZM81.1273 24.5201L80.6271 25.386L80.8592 25.5201H81.1273V24.5201ZM77.4153 22.3761H76.4153V22.9533L76.9151 23.242L77.4153 22.3761ZM77.4153 16.8401L76.9151 15.9742L76.4153 16.2629V16.8401H77.4153ZM81.1273 14.6961V13.6961H80.8592L80.6271 13.8302L81.1273 14.6961ZM86.3113 14.6961V15.6961H87.3113V14.6961H86.3113ZM86.3113 12.1041H87.3113V11.1041H86.3113V12.1041ZM79.0153 12.1041H78.0153V13.1041H79.0153V12.1041ZM79.0153 8.36011V7.36011H78.0153V8.36011H79.0153ZM86.9833 8.36011L87.4834 7.49417L87.2513 7.36011H86.9833V8.36011ZM90.6953 10.5041H91.6953V9.92687L91.1954 9.63817L90.6953 10.5041ZM90.6953 24.5201V25.5201H91.6953V24.5201H90.6953ZM88.5833 24.5201L88.0832 25.3861L88.3153 25.5201H88.5833V24.5201ZM86.3113 23.2081L86.8113 22.3421L86.3113 22.0533L85.8112 22.3421L86.3113 23.2081ZM84.0393 24.5201V25.5201H84.3073L84.5394 25.3861L84.0393 24.5201ZM81.7993 18.0561H80.7993V20.8401H81.7993H82.7993V18.0561H81.7993ZM81.7993 20.8401V21.8401H86.3113V20.8401V19.8401H81.7993V20.8401ZM86.3113 20.8401H87.3113V18.0561H86.3113H85.3113V20.8401H86.3113ZM86.3113 18.0561V17.0561H81.7993V18.0561V19.0561H86.3113V18.0561ZM81.1273 24.5201L81.6274 23.6542L77.9154 21.5102L77.4153 22.3761L76.9151 23.242L80.6271 25.386L81.1273 24.5201ZM77.4153 22.3761H78.4153V16.8401H77.4153H76.4153V22.3761H77.4153ZM77.4153 16.8401L77.9154 17.706L81.6274 15.562L81.1273 14.6961L80.6271 13.8302L76.9151 15.9742L77.4153 16.8401ZM81.1273 14.6961V15.6961H86.3113V14.6961V13.6961H81.1273V14.6961ZM86.3113 14.6961H87.3113V12.1041H86.3113H85.3113V14.6961H86.3113ZM86.3113 12.1041V11.1041H79.0153V12.1041V13.1041H86.3113V12.1041ZM79.0153 12.1041H80.0153V8.36011H79.0153H78.0153V12.1041H79.0153ZM79.0153 8.36011V9.36011H86.9833V8.36011V7.36011H79.0153V8.36011ZM86.9833 8.36011L86.4831 9.22604L90.1951 11.37L90.6953 10.5041L91.1954 9.63817L87.4834 7.49417L86.9833 8.36011ZM90.6953 10.5041H89.6953V24.5201H90.6953H91.6953V10.5041H90.6953ZM90.6953 24.5201V23.5201H88.5833V24.5201V25.5201H90.6953V24.5201ZM88.5833 24.5201L89.0834 23.6541L86.8113 22.3421L86.3113 23.2081L85.8112 24.0741L88.0832 25.3861L88.5833 24.5201ZM86.3113 23.2081L85.8112 22.3421L83.5392 23.6541L84.0393 24.5201L84.5394 25.3861L86.8113 24.0741L86.3113 23.2081ZM84.0393 24.5201V23.5201H81.1273V24.5201V25.5201H84.0393V24.5201ZM102.149 8.20011V7.20011H101.881L101.649 7.33413L102.149 8.20011ZM106.341 8.20011L106.841 7.33417L106.609 7.20011H106.341V8.20011ZM110.053 10.3441H111.053V9.76687L110.553 9.47817L110.053 10.3441ZM110.053 22.3761L110.553 23.242L111.053 22.9533V22.3761H110.053ZM106.341 24.5201V25.5201H106.609L106.841 25.386L106.341 24.5201ZM102.149 24.5201L101.649 25.3861L101.881 25.5201H102.149V24.5201ZM99.8768 23.2081L100.377 22.3421L99.8768 22.0533L99.3767 22.3421L99.8768 23.2081ZM97.6048 24.5201V25.5201H97.8728L98.1049 25.3861L97.6048 24.5201ZM95.4928 24.5201H94.4928V25.5201H95.4928V24.5201ZM95.4928 1.00011V0.000106812H94.4928V1.00011H95.4928ZM99.8768 1.00011H100.877V0.000106812H99.8768V1.00011ZM99.8768 9.51211H98.8768V11.2443L100.377 10.3781L99.8768 9.51211ZM99.8768 11.9441V10.9441H98.8768V11.9441H99.8768ZM99.8768 20.7761H98.8768V21.7761H99.8768V20.7761ZM105.669 20.7761V21.7761H106.669V20.7761H105.669ZM105.669 11.9441H106.669V10.9441H105.669V11.9441ZM102.149 8.20011V9.20011H106.341V8.20011V7.20011H102.149V8.20011ZM106.341 8.20011L105.841 9.06604L109.553 11.21L110.053 10.3441L110.553 9.47817L106.841 7.33417L106.341 8.20011ZM110.053 10.3441H109.053V22.3761H110.053H111.053V10.3441H110.053ZM110.053 22.3761L109.553 21.5102L105.841 23.6542L106.341 24.5201L106.841 25.386L110.553 23.242L110.053 22.3761ZM106.341 24.5201V23.5201H102.149V24.5201V25.5201H106.341V24.5201ZM102.149 24.5201L102.649 23.6541L100.377 22.3421L99.8768 23.2081L99.3767 24.0741L101.649 25.3861L102.149 24.5201ZM99.8768 23.2081L99.3767 22.3421L97.1047 23.6541L97.6048 24.5201L98.1049 25.3861L100.377 24.0741L99.8768 23.2081ZM97.6048 24.5201V23.5201H95.4928V24.5201V25.5201H97.6048V24.5201ZM95.4928 24.5201H96.4928V1.00011H95.4928H94.4928V24.5201H95.4928ZM95.4928 1.00011V2.00011H99.8768V1.00011V0.000106812H95.4928V1.00011ZM99.8768 1.00011H98.8768V9.51211H99.8768H100.877V1.00011H99.8768ZM99.8768 9.51211L100.377 10.3781L102.649 9.06609L102.149 8.20011L101.649 7.33413L99.3767 8.64612L99.8768 9.51211ZM99.8768 11.9441H98.8768V20.7761H99.8768H100.877V11.9441H99.8768ZM99.8768 20.7761V21.7761H105.669V20.7761V19.7761H99.8768V20.7761ZM105.669 20.7761H106.669V11.9441H105.669H104.669V20.7761H105.669ZM105.669 11.9441V10.9441H99.8768V11.9441V12.9441H105.669V11.9441ZM118.612 18.0561V17.0561H117.612V18.0561H118.612ZM118.612 20.8401H117.612V21.8401H118.612V20.8401ZM123.124 20.8401V21.8401H124.124V20.8401H123.124ZM123.124 18.0561H124.124V17.0561H123.124V18.0561ZM117.94 24.5201L117.44 25.386L117.672 25.5201H117.94V24.5201ZM114.228 22.3761H113.228V22.9533L113.728 23.242L114.228 22.3761ZM114.228 16.8401L113.728 15.9742L113.228 16.2629V16.8401H114.228ZM117.94 14.6961V13.6961H117.672L117.44 13.8302L117.94 14.6961ZM123.124 14.6961V15.6961H124.124V14.6961H123.124ZM123.124 12.1041H124.124V11.1041H123.124V12.1041ZM115.828 12.1041H114.828V13.1041H115.828V12.1041ZM115.828 8.36011V7.36011H114.828V8.36011H115.828ZM123.796 8.36011L124.296 7.49417L124.064 7.36011H123.796V8.36011ZM127.508 10.5041H128.508V9.92687L128.008 9.63817L127.508 10.5041ZM127.508 24.5201V25.5201H128.508V24.5201H127.508ZM125.396 24.5201L124.896 25.3861L125.128 25.5201H125.396V24.5201ZM123.124 23.2081L123.624 22.3421L123.124 22.0533L122.624 22.3421L123.124 23.2081ZM120.852 24.5201V25.5201H121.12L121.352 25.3861L120.852 24.5201ZM118.612 18.0561H117.612V20.8401H118.612H119.612V18.0561H118.612ZM118.612 20.8401V21.8401H123.124V20.8401V19.8401H118.612V20.8401ZM123.124 20.8401H124.124V18.0561H123.124H122.124V20.8401H123.124ZM123.124 18.0561V17.0561H118.612V18.0561V19.0561H123.124V18.0561ZM117.94 24.5201L118.44 23.6542L114.728 21.5102L114.228 22.3761L113.728 23.242L117.44 25.386L117.94 24.5201ZM114.228 22.3761H115.228V16.8401H114.228H113.228V22.3761H114.228ZM114.228 16.8401L114.728 17.706L118.44 15.562L117.94 14.6961L117.44 13.8302L113.728 15.9742L114.228 16.8401ZM117.94 14.6961V15.6961H123.124V14.6961V13.6961H117.94V14.6961ZM123.124 14.6961H124.124V12.1041H123.124H122.124V14.6961H123.124ZM123.124 12.1041V11.1041H115.828V12.1041V13.1041H123.124V12.1041ZM115.828 12.1041H116.828V8.36011H115.828H114.828V12.1041H115.828ZM115.828 8.36011V9.36011H123.796V8.36011V7.36011H115.828V8.36011ZM123.796 8.36011L123.296 9.22604L127.008 11.37L127.508 10.5041L128.008 9.63817L124.296 7.49417L123.796 8.36011ZM127.508 10.5041H126.508V24.5201H127.508H128.508V10.5041H127.508ZM127.508 24.5201V23.5201H125.396V24.5201V25.5201H127.508V24.5201ZM125.396 24.5201L125.896 23.6541L123.624 22.3421L123.124 23.2081L122.624 24.0741L124.896 25.3861L125.396 24.5201ZM123.124 23.2081L122.624 22.3421L120.352 23.6541L120.852 24.5201L121.352 25.3861L123.624 24.0741L123.124 23.2081ZM120.852 24.5201V23.5201H117.94V24.5201V25.5201H120.852V24.5201ZM132.145 5.38411H131.145V6.38411H132.145V5.38411ZM132.145 1.00011V0.000106812H131.145V1.00011H132.145ZM136.849 1.00011H137.849V0.000106812H136.849V1.00011ZM136.849 5.38411V6.38411H137.849V5.38411H136.849ZM136.689 8.36011H137.689V7.36011H136.689V8.36011ZM136.689 28.6161L137.189 29.482L137.689 29.1933V28.6161H136.689ZM132.977 30.7601V31.7601H133.245L133.477 31.626L132.977 30.7601ZM129.105 30.7601H128.105V31.7601H129.105V30.7601ZM129.105 27.0161V26.0161H128.105V27.0161H129.105ZM132.305 27.0161V28.0161H133.305V27.0161H132.305ZM132.305 8.36011V7.36011H131.305V8.36011H132.305ZM132.145 5.38411H133.145V1.00011H132.145H131.145V5.38411H132.145ZM132.145 1.00011V2.00011H136.849V1.00011V0.000106812H132.145V1.00011ZM136.849 1.00011H135.849V5.38411H136.849H137.849V1.00011H136.849ZM136.849 5.38411V4.38411H132.145V5.38411V6.38411H136.849V5.38411ZM136.689 8.36011H135.689V28.6161H136.689H137.689V8.36011H136.689ZM136.689 28.6161L136.189 27.7502L132.477 29.8942L132.977 30.7601L133.477 31.626L137.189 29.482L136.689 28.6161ZM132.977 30.7601V29.7601H129.105V30.7601V31.7601H132.977V30.7601ZM129.105 30.7601H130.105V27.0161H129.105H128.105V30.7601H129.105ZM129.105 27.0161V28.0161H132.305V27.0161V26.0161H129.105V27.0161ZM132.305 27.0161H133.305V8.36011H132.305H131.305V27.0161H132.305ZM132.305 8.36011V9.36011H136.689V8.36011V7.36011H132.305V8.36011ZM155.733 22.3761L156.233 23.242L156.733 22.9533V22.3761H155.733ZM152.021 24.5201V25.5201H152.289L152.521 25.386L152.021 24.5201ZM145.205 24.5201L144.705 25.386L144.937 25.5201H145.205V24.5201ZM141.493 22.3761H140.493V22.9533L140.993 23.242L141.493 22.3761ZM141.493 10.3441L140.993 9.47817L140.493 9.76687V10.3441H141.493ZM145.205 8.20011V7.20011H144.937L144.705 7.33417L145.205 8.20011ZM152.021 8.20011L152.521 7.33417L152.289 7.20011H152.021V8.20011ZM155.733 10.3441H156.733V9.76687L156.233 9.47817L155.733 10.3441ZM145.877 11.9441V10.9441H144.877V11.9441H145.877ZM145.877 20.7761H144.877V21.7761H145.877V20.7761ZM151.349 20.7761V21.7761H152.349V20.7761H151.349ZM151.349 11.9441H152.349V10.9441H151.349V11.9441ZM155.733 22.3761L155.233 21.5102L151.521 23.6542L152.021 24.5201L152.521 25.386L156.233 23.242L155.733 22.3761ZM152.021 24.5201V23.5201H145.205V24.5201V25.5201H152.021V24.5201ZM145.205 24.5201L145.705 23.6542L141.993 21.5102L141.493 22.3761L140.993 23.242L144.705 25.386L145.205 24.5201ZM141.493 22.3761H142.493V10.3441H141.493H140.493V22.3761H141.493ZM141.493 10.3441L141.993 11.21L145.705 9.06604L145.205 8.20011L144.705 7.33417L140.993 9.47817L141.493 10.3441ZM145.205 8.20011V9.20011H152.021V8.20011V7.20011H145.205V8.20011ZM152.021 8.20011L151.521 9.06604L155.233 11.21L155.733 10.3441L156.233 9.47817L152.521 7.33417L152.021 8.20011ZM155.733 10.3441H154.733V22.3761H155.733H156.733V10.3441H155.733ZM145.877 11.9441H144.877V20.7761H145.877H146.877V11.9441H145.877ZM145.877 20.7761V21.7761H151.349V20.7761V19.7761H145.877V20.7761ZM151.349 20.7761H152.349V11.9441H151.349H150.349V20.7761H151.349ZM151.349 11.9441V10.9441H145.877V11.9441V12.9441H151.349V11.9441Z" fill="#B5E93B" mask="url(#path-1-outside-1_3129_3479)"/>
</svg>
