<svg width="46" height="296" viewBox="0 0 46 296" fill="none" xmlns="http://www.w3.org/2000/svg">
<mask id="path-1-outside-1_3113_1862" maskUnits="userSpaceOnUse" x="-0.580078" y="-0.00878906" width="47" height="296" fill="black">
<rect fill="white" x="-0.580078" y="-0.00878906" width="47" height="296"/>
<path d="M27.3539 278.577V286.731H42.4199V292.131H4.61992L4.61992 272.745L8.23792 266.481H23.7359L27.3539 272.745L42.4199 264.051V270.045L27.3539 278.577ZM9.47992 286.731H22.4939V271.881H9.47992V286.731ZM37.7219 235.956H42.4199L42.4199 251.022L38.8019 257.286H18.7679L15.1499 251.022V242.22L18.7679 235.956H30.7559L30.7559 252.048H37.7219L37.7219 235.956ZM19.8479 252.048H26.0579V241.194H19.8479V252.048ZM20.1179 229.493H15.4199V224.525H6.61792L2.99992 218.261V212.807H7.69792V219.287H15.4199V212.807H20.1179V219.287H42.4199V224.525H20.1179V229.493ZM37.7219 185.015H42.4199V200.081L38.8019 206.345H18.7679L15.1499 200.081V191.279L18.7679 185.015H30.7559V201.107H37.7219V185.015ZM19.8479 201.107H26.0579V190.253H19.8479V201.107ZM20.1179 161.326V171.154H42.4199V176.392H15.4199V172.45L17.6339 171.154L15.4199 167.32V161.326H20.1179ZM37.7219 134.074H42.4199V149.14L38.8019 155.404H18.7679L15.1499 149.14V140.338L18.7679 134.074H30.7559V150.166H37.7219V134.074ZM19.8479 150.166H26.0579V139.312H19.8479V150.166ZM18.7679 102.501H42.4199V107.739H19.8479V120.213H42.4199V125.451H15.1499V121.509L17.3639 120.213L15.1499 116.379V108.765L18.7679 102.501ZM20.1179 88.6246H37.7219V73.6126H42.4199V87.5986L38.8019 93.8626H19.0379L15.4199 87.5986V73.6126H20.1179V88.6246ZM15.4199 60.8336H42.4199V66.0716H15.4199V60.8336ZM8.77792 66.3416H2.99992V60.5636H8.77792V66.3416ZM31.3499 48.0445H37.9919V37.1905H31.3499V48.0445ZM42.6899 47.0185L39.0719 53.2825H30.2699L26.6519 47.0185V37.1905H20.1179L20.1179 50.5825H15.4199L15.4199 38.2165L19.0379 31.9525H42.6899V33.3565L40.4759 37.1905L42.6899 41.0245V47.0185ZM29.9999 3.00002H38.8019L42.4199 9.26402L42.4199 23.304H37.7219L37.7219 8.23802H31.0799L31.0799 17.04L27.4619 23.304H19.0379L15.4199 17.04V3.54002H20.1179V18.066H26.3819L26.3819 9.26402L29.9999 3.00002Z"/>
</mask>
<path d="M27.3539 278.577L25.8756 275.967L24.3539 276.828V278.577H27.3539ZM27.3539 286.731H24.3539V289.731H27.3539V286.731ZM42.4199 286.731H45.4199V283.731H42.4199V286.731ZM42.4199 292.131V295.131H45.4199V292.131H42.4199ZM4.61992 292.131H1.61992V295.131H4.61992V292.131ZM4.61992 272.745L2.02211 271.245L1.61992 271.941V272.745H4.61992ZM8.23792 266.481V263.481H6.50623L5.64011 264.981L8.23792 266.481ZM23.7359 266.481L26.3337 264.981L25.4676 263.481H23.7359V266.481ZM27.3539 272.745L24.7561 274.246L26.256 276.842L28.8534 275.344L27.3539 272.745ZM42.4199 264.051H45.4199V258.856L40.9205 261.453L42.4199 264.051ZM42.4199 270.045L43.8983 272.656L45.4199 271.794V270.045H42.4199ZM9.47992 286.731H6.47992V289.731H9.47992V286.731ZM22.4939 286.731V289.731H25.4939V286.731H22.4939ZM22.4939 271.881H25.4939V268.881H22.4939V271.881ZM9.47992 271.881V268.881H6.47992V271.881H9.47992ZM27.3539 278.577H24.3539V286.731H27.3539H30.3539V278.577H27.3539ZM27.3539 286.731V289.731H42.4199V286.731V283.731H27.3539V286.731ZM42.4199 286.731H39.4199V292.131H42.4199H45.4199V286.731H42.4199ZM42.4199 292.131V289.131H4.61992V292.131V295.131H42.4199V292.131ZM4.61992 292.131H7.61992V272.745H4.61992H1.61992L1.61992 292.131H4.61992ZM4.61992 272.745L7.21773 274.246L10.8357 267.982L8.23792 266.481L5.64011 264.981L2.02211 271.245L4.61992 272.745ZM8.23792 266.481L8.23792 269.481H23.7359V266.481V263.481H8.23792V266.481ZM23.7359 266.481L21.1381 267.982L24.7561 274.246L27.3539 272.745L29.9517 271.245L26.3337 264.981L23.7359 266.481ZM27.3539 272.745L28.8534 275.344L43.9194 266.65L42.4199 264.051L40.9205 261.453L25.8545 270.147L27.3539 272.745ZM42.4199 264.051H39.4199V270.045H42.4199H45.4199V264.051H42.4199ZM42.4199 270.045L40.9416 267.435L25.8756 275.967L27.3539 278.577L28.8323 281.188L43.8983 272.656L42.4199 270.045ZM9.47992 286.731V289.731H22.4939V286.731V283.731H9.47992V286.731ZM22.4939 286.731H25.4939V271.881H22.4939H19.4939V286.731H22.4939ZM22.4939 271.881V268.881H9.47992V271.881V274.881H22.4939V271.881ZM9.47992 271.881H6.47992L6.47992 286.731H9.47992H12.4799V271.881H9.47992ZM37.7219 235.956V232.956H34.7219V235.956H37.7219ZM42.4199 235.956H45.4199V232.956H42.4199V235.956ZM42.4199 251.022L45.0177 252.523L45.4199 251.827V251.022H42.4199ZM38.8019 257.286V260.286H40.5336L41.3997 258.787L38.8019 257.286ZM18.7679 257.286L16.1701 258.787L17.0362 260.286H18.7679V257.286ZM15.1499 251.022H12.1499V251.827L12.5521 252.523L15.1499 251.022ZM15.1499 242.22L12.5521 240.72L12.1499 241.416V242.22H15.1499ZM18.7679 235.956V232.956H17.0362L16.1701 234.456L18.7679 235.956ZM30.7559 235.956H33.7559V232.956H30.7559V235.956ZM30.7559 252.048H27.7559V255.048H30.7559V252.048ZM37.7219 252.048V255.048H40.7219V252.048H37.7219ZM19.8479 252.048H16.8479V255.048H19.8479V252.048ZM26.0579 252.048V255.048H29.0579V252.048H26.0579ZM26.0579 241.194H29.0579L29.0579 238.194H26.0579L26.0579 241.194ZM19.8479 241.194V238.194H16.8479V241.194H19.8479ZM37.7219 235.956V238.956H42.4199V235.956V232.956H37.7219V235.956ZM42.4199 235.956H39.4199L39.4199 251.022H42.4199H45.4199L45.4199 235.956H42.4199ZM42.4199 251.022L39.8221 249.522L36.2041 255.786L38.8019 257.286L41.3997 258.787L45.0177 252.523L42.4199 251.022ZM38.8019 257.286V254.286H18.7679V257.286V260.286H38.8019V257.286ZM18.7679 257.286L21.3657 255.786L17.7477 249.522L15.1499 251.022L12.5521 252.523L16.1701 258.787L18.7679 257.286ZM15.1499 251.022H18.1499V242.22H15.1499H12.1499V251.022H15.1499ZM15.1499 242.22L17.7477 243.721L21.3657 237.457L18.7679 235.956L16.1701 234.456L12.5521 240.72L15.1499 242.22ZM18.7679 235.956V238.956H30.7559V235.956V232.956H18.7679V235.956ZM30.7559 235.956H27.7559L27.7559 252.048H30.7559H33.7559L33.7559 235.956H30.7559ZM30.7559 252.048V255.048H37.7219V252.048V249.048H30.7559V252.048ZM37.7219 252.048H40.7219L40.7219 235.956H37.7219H34.7219L34.7219 252.048H37.7219ZM19.8479 252.048V255.048H26.0579V252.048V249.048H19.8479V252.048ZM26.0579 252.048H29.0579V241.194H26.0579H23.0579V252.048H26.0579ZM26.0579 241.194L26.0579 238.194H19.8479V241.194V244.194H26.0579V241.194ZM19.8479 241.194H16.8479V252.048H19.8479H22.8479V241.194H19.8479ZM20.1179 229.493V232.493H23.1179V229.493H20.1179ZM15.4199 229.493H12.4199V232.493H15.4199V229.493ZM15.4199 224.525H18.4199V221.525H15.4199V224.525ZM6.61792 224.525L4.02011 226.026L4.88622 227.525H6.61792L6.61792 224.525ZM2.99992 218.261H-8.01086e-05V219.065L0.402111 219.762L2.99992 218.261ZM2.99992 212.807V209.807H-8.01086e-05V212.807H2.99992ZM7.69792 212.807H10.6979L10.6979 209.807H7.69792L7.69792 212.807ZM7.69792 219.287H4.69792V222.287H7.69792V219.287ZM15.4199 219.287V222.287H18.4199V219.287H15.4199ZM15.4199 212.807L15.4199 209.807H12.4199L12.4199 212.807H15.4199ZM20.1179 212.807H23.1179L23.1179 209.807H20.1179L20.1179 212.807ZM20.1179 219.287H17.1179V222.287H20.1179V219.287ZM42.4199 219.287H45.4199V216.287H42.4199V219.287ZM42.4199 224.525V227.525H45.4199V224.525H42.4199ZM20.1179 224.525V221.525H17.1179V224.525H20.1179ZM20.1179 229.493V226.493H15.4199V229.493V232.493H20.1179V229.493ZM15.4199 229.493H18.4199V224.525H15.4199H12.4199V229.493H15.4199ZM15.4199 224.525V221.525H6.61792V224.525L6.61792 227.525H15.4199V224.525ZM6.61792 224.525L9.21573 223.025L5.59773 216.761L2.99992 218.261L0.402111 219.762L4.02011 226.026L6.61792 224.525ZM2.99992 218.261H5.99992V212.807H2.99992H-8.01086e-05V218.261H2.99992ZM2.99992 212.807V215.807H7.69792V212.807L7.69792 209.807H2.99992V212.807ZM7.69792 212.807H4.69792V219.287H7.69792H10.6979V212.807H7.69792ZM7.69792 219.287V222.287H15.4199V219.287V216.287H7.69792V219.287ZM15.4199 219.287H18.4199V212.807H15.4199H12.4199V219.287H15.4199ZM15.4199 212.807V215.807H20.1179V212.807L20.1179 209.807H15.4199L15.4199 212.807ZM20.1179 212.807H17.1179V219.287H20.1179H23.1179V212.807H20.1179ZM20.1179 219.287V222.287H42.4199V219.287V216.287H20.1179V219.287ZM42.4199 219.287H39.4199V224.525H42.4199H45.4199V219.287H42.4199ZM42.4199 224.525V221.525H20.1179V224.525V227.525H42.4199V224.525ZM20.1179 224.525H17.1179V229.493H20.1179H23.1179V224.525H20.1179ZM37.7219 185.015V182.015H34.7219V185.015H37.7219ZM42.4199 185.015H45.4199V182.015H42.4199V185.015ZM42.4199 200.081L45.0177 201.581L45.4199 200.885V200.081H42.4199ZM38.8019 206.345V209.345H40.5336L41.3997 207.845L38.8019 206.345ZM18.7679 206.345L16.1701 207.845L17.0362 209.345H18.7679V206.345ZM15.1499 200.081H12.1499V200.885L12.5521 201.581L15.1499 200.081ZM15.1499 191.279L12.5521 189.779L12.1499 190.475V191.279H15.1499ZM18.7679 185.015V182.015H17.0362L16.1701 183.515L18.7679 185.015ZM30.7559 185.015H33.7559V182.015H30.7559V185.015ZM30.7559 201.107H27.7559V204.107H30.7559V201.107ZM37.7219 201.107V204.107H40.7219V201.107H37.7219ZM19.8479 201.107H16.8479V204.107H19.8479V201.107ZM26.0579 201.107V204.107H29.0579V201.107H26.0579ZM26.0579 190.253H29.0579V187.253H26.0579V190.253ZM19.8479 190.253V187.253H16.8479V190.253H19.8479ZM37.7219 185.015V188.015H42.4199V185.015V182.015H37.7219V185.015ZM42.4199 185.015H39.4199V200.081H42.4199H45.4199V185.015H42.4199ZM42.4199 200.081L39.8221 198.581L36.2041 204.845L38.8019 206.345L41.3997 207.845L45.0177 201.581L42.4199 200.081ZM38.8019 206.345V203.345H18.7679V206.345V209.345H38.8019V206.345ZM18.7679 206.345L21.3657 204.845L17.7477 198.581L15.1499 200.081L12.5521 201.581L16.1701 207.845L18.7679 206.345ZM15.1499 200.081H18.1499V191.279H15.1499H12.1499V200.081H15.1499ZM15.1499 191.279L17.7477 192.779L21.3657 186.515L18.7679 185.015L16.1701 183.515L12.5521 189.779L15.1499 191.279ZM18.7679 185.015V188.015H30.7559V185.015V182.015H18.7679V185.015ZM30.7559 185.015H27.7559V201.107H30.7559H33.7559V185.015H30.7559ZM30.7559 201.107V204.107H37.7219V201.107V198.107H30.7559V201.107ZM37.7219 201.107H40.7219V185.015H37.7219H34.7219V201.107H37.7219ZM19.8479 201.107V204.107H26.0579V201.107V198.107H19.8479V201.107ZM26.0579 201.107H29.0579V190.253H26.0579H23.0579V201.107H26.0579ZM26.0579 190.253V187.253H19.8479V190.253V193.253H26.0579V190.253ZM19.8479 190.253H16.8479V201.107H19.8479H22.8479V190.253H19.8479ZM20.1179 161.326H23.1179V158.326H20.1179V161.326ZM20.1179 171.154H17.1179V174.154H20.1179V171.154ZM42.4199 171.154H45.4199V168.154H42.4199V171.154ZM42.4199 176.392V179.392H45.4199V176.392H42.4199ZM15.4199 176.392H12.4199V179.392H15.4199V176.392ZM15.4199 172.45L13.9044 169.861L12.4199 170.73V172.45H15.4199ZM17.6339 171.154L19.1495 173.743L21.7233 172.236L20.2319 169.654L17.6339 171.154ZM15.4199 167.32H12.4199V168.124L12.822 168.82L15.4199 167.32ZM15.4199 161.326V158.326H12.4199V161.326H15.4199ZM20.1179 161.326H17.1179V171.154H20.1179H23.1179V161.326H20.1179ZM20.1179 171.154V174.154H42.4199V171.154V168.154H20.1179V171.154ZM42.4199 171.154H39.4199V176.392H42.4199H45.4199V171.154H42.4199ZM42.4199 176.392V173.392H15.4199V176.392V179.392H42.4199V176.392ZM15.4199 176.392H18.4199V172.45H15.4199H12.4199V176.392H15.4199ZM15.4199 172.45L16.9355 175.039L19.1495 173.743L17.6339 171.154L16.1184 168.565L13.9044 169.861L15.4199 172.45ZM17.6339 171.154L20.2319 169.654L18.0179 165.82L15.4199 167.32L12.822 168.82L15.036 172.654L17.6339 171.154ZM15.4199 167.32H18.4199V161.326H15.4199H12.4199V167.32H15.4199ZM15.4199 161.326V164.326H20.1179V161.326V158.326H15.4199V161.326ZM37.7219 134.074V131.074H34.7219V134.074H37.7219ZM42.4199 134.074H45.4199V131.074H42.4199V134.074ZM42.4199 149.14L45.0177 150.64L45.4199 149.944V149.14H42.4199ZM38.8019 155.404V158.404H40.5336L41.3997 156.904L38.8019 155.404ZM18.7679 155.404L16.1701 156.904L17.0362 158.404H18.7679L18.7679 155.404ZM15.1499 149.14H12.1499V149.944L12.5521 150.64L15.1499 149.14ZM15.1499 140.338L12.5521 138.837L12.1499 139.533V140.338H15.1499ZM18.7679 134.074V131.074H17.0362L16.1701 132.573L18.7679 134.074ZM30.7559 134.074H33.7559V131.074H30.7559V134.074ZM30.7559 150.166H27.7559V153.166H30.7559V150.166ZM37.7219 150.166V153.166H40.7219V150.166H37.7219ZM19.8479 150.166H16.8479V153.166H19.8479V150.166ZM26.0579 150.166V153.166H29.0579V150.166H26.0579ZM26.0579 139.312H29.0579V136.312H26.0579V139.312ZM19.8479 139.312V136.312H16.8479V139.312H19.8479ZM37.7219 134.074V137.074H42.4199V134.074V131.074H37.7219V134.074ZM42.4199 134.074H39.4199V149.14H42.4199H45.4199V134.074H42.4199ZM42.4199 149.14L39.8221 147.639L36.2041 153.903L38.8019 155.404L41.3997 156.904L45.0177 150.64L42.4199 149.14ZM38.8019 155.404V152.404H18.7679V155.404L18.7679 158.404H38.8019V155.404ZM18.7679 155.404L21.3657 153.903L17.7477 147.639L15.1499 149.14L12.5521 150.64L16.1701 156.904L18.7679 155.404ZM15.1499 149.14H18.1499V140.338H15.1499H12.1499V149.14H15.1499ZM15.1499 140.338L17.7477 141.838L21.3657 135.574L18.7679 134.074L16.1701 132.573L12.5521 138.837L15.1499 140.338ZM18.7679 134.074V137.074H30.7559V134.074V131.074H18.7679V134.074ZM30.7559 134.074H27.7559V150.166H30.7559H33.7559V134.074H30.7559ZM30.7559 150.166V153.166H37.7219V150.166V147.166H30.7559V150.166ZM37.7219 150.166H40.7219V134.074H37.7219H34.7219V150.166H37.7219ZM19.8479 150.166V153.166H26.0579V150.166V147.166H19.8479V150.166ZM26.0579 150.166H29.0579V139.312H26.0579H23.0579V150.166H26.0579ZM26.0579 139.312V136.312H19.8479V139.312V142.312H26.0579V139.312ZM19.8479 139.312H16.8479V150.166H19.8479H22.8479V139.312H19.8479ZM18.7679 102.501L18.7679 99.5005H17.0362L16.1701 101L18.7679 102.501ZM42.4199 102.501H45.4199V99.5005H42.4199V102.501ZM42.4199 107.739V110.739H45.4199V107.739H42.4199ZM19.8479 107.739V104.739H16.8479V107.739H19.8479ZM19.8479 120.213H16.8479V123.213H19.8479V120.213ZM42.4199 120.213H45.4199V117.213H42.4199V120.213ZM42.4199 125.451L42.4199 128.451H45.4199L45.4199 125.451H42.4199ZM15.1499 125.451H12.1499V128.451H15.1499V125.451ZM15.1499 121.509L13.6344 118.919L12.1499 119.788V121.509H15.1499ZM17.3639 120.213L18.8795 122.802L21.4533 121.295L19.9619 118.712L17.3639 120.213ZM15.1499 116.379H12.1499V117.182L12.552 117.879L15.1499 116.379ZM15.1499 108.765L12.5521 107.264L12.1499 107.96V108.765H15.1499ZM18.7679 102.501V105.501H42.4199V102.501V99.5005H18.7679L18.7679 102.501ZM42.4199 102.501H39.4199V107.739H42.4199H45.4199V102.501H42.4199ZM42.4199 107.739V104.739H19.8479V107.739V110.739H42.4199V107.739ZM19.8479 107.739H16.8479V120.213H19.8479H22.8479V107.739H19.8479ZM19.8479 120.213V123.213H42.4199V120.213V117.213H19.8479V120.213ZM42.4199 120.213H39.4199V125.451H42.4199H45.4199V120.213H42.4199ZM42.4199 125.451V122.451H15.1499V125.451V128.451H42.4199L42.4199 125.451ZM15.1499 125.451H18.1499V121.509H15.1499H12.1499V125.451H15.1499ZM15.1499 121.509L16.6655 124.098L18.8795 122.802L17.3639 120.213L15.8484 117.623L13.6344 118.919L15.1499 121.509ZM17.3639 120.213L19.9619 118.712L17.7479 114.878L15.1499 116.379L12.552 117.879L14.766 121.713L17.3639 120.213ZM15.1499 116.379H18.1499V108.765H15.1499H12.1499V116.379H15.1499ZM15.1499 108.765L17.7477 110.265L21.3657 104.001L18.7679 102.501L16.1701 101L12.5521 107.264L15.1499 108.765ZM20.1179 88.6246H17.1179V91.6246H20.1179V88.6246ZM37.7219 88.6246V91.6246H40.7219V88.6246H37.7219ZM37.7219 73.6126V70.6126H34.7219V73.6126H37.7219ZM42.4199 73.6126H45.4199V70.6126H42.4199V73.6126ZM42.4199 87.5986L45.0177 89.0991L45.4199 88.4028V87.5986H42.4199ZM38.8019 93.8626V96.8626H40.5336L41.3997 95.3631L38.8019 93.8626ZM19.0379 93.8626L16.4401 95.3631L17.3062 96.8626H19.0379V93.8626ZM15.4199 87.5986H12.4199V88.4027L12.8221 89.0991L15.4199 87.5986ZM15.4199 73.6126V70.6126H12.4199V73.6126H15.4199ZM20.1179 73.6126H23.1179V70.6126H20.1179V73.6126ZM20.1179 88.6246V91.6246H37.7219V88.6246V85.6246H20.1179V88.6246ZM37.7219 88.6246H40.7219V73.6126H37.7219H34.7219V88.6246H37.7219ZM37.7219 73.6126V76.6126H42.4199V73.6126V70.6126H37.7219V73.6126ZM42.4199 73.6126H39.4199V87.5986H42.4199H45.4199V73.6126H42.4199ZM42.4199 87.5986L39.8221 86.0982L36.2041 92.3622L38.8019 93.8626L41.3997 95.3631L45.0177 89.0991L42.4199 87.5986ZM38.8019 93.8626V90.8626H19.0379V93.8626V96.8626H38.8019V93.8626ZM19.0379 93.8626L21.6357 92.3622L18.0177 86.0982L15.4199 87.5986L12.8221 89.0991L16.4401 95.3631L19.0379 93.8626ZM15.4199 87.5986H18.4199V73.6126H15.4199H12.4199V87.5986H15.4199ZM15.4199 73.6126V76.6126H20.1179V73.6126V70.6126H15.4199V73.6126ZM20.1179 73.6126H17.1179V88.6246H20.1179H23.1179V73.6126H20.1179ZM15.4199 60.8336V57.8336H12.4199V60.8336H15.4199ZM42.4199 60.8336H45.4199V57.8336H42.4199V60.8336ZM42.4199 66.0716V69.0716H45.4199V66.0716H42.4199ZM15.4199 66.0716H12.4199V69.0716H15.4199V66.0716ZM8.77792 66.3416V69.3416H11.7779V66.3416H8.77792ZM2.99992 66.3416H-8.01086e-05V69.3416H2.99992V66.3416ZM2.99992 60.5636V57.5636H-8.01086e-05V60.5636H2.99992ZM8.77792 60.5636H11.7779V57.5636H8.77792V60.5636ZM15.4199 60.8336V63.8336H42.4199V60.8336V57.8336H15.4199V60.8336ZM42.4199 60.8336H39.4199V66.0716H42.4199H45.4199V60.8336H42.4199ZM42.4199 66.0716V63.0716H15.4199V66.0716V69.0716H42.4199V66.0716ZM15.4199 66.0716H18.4199V60.8336H15.4199H12.4199V66.0716H15.4199ZM8.77792 66.3416V63.3416H2.99992V66.3416V69.3416H8.77792V66.3416ZM2.99992 66.3416H5.99992V60.5636H2.99992H-8.01086e-05V66.3416H2.99992ZM2.99992 60.5636V63.5636H8.77792V60.5636V57.5636H2.99992V60.5636ZM8.77792 60.5636H5.77792V66.3416H8.77792H11.7779V60.5636H8.77792ZM31.3499 48.0445H28.3499V51.0445H31.3499V48.0445ZM37.9919 48.0445V51.0445H40.9919V48.0445H37.9919ZM37.9919 37.1905H40.9919V34.1905H37.9919V37.1905ZM31.3499 37.1905V34.1905H28.3499V37.1905H31.3499ZM42.6899 47.0185L45.2877 48.5189L45.6899 47.8226V47.0185H42.6899ZM39.0719 53.2825V56.2825H40.8036L41.6697 54.7829L39.0719 53.2825ZM30.2699 53.2825L27.6721 54.7829L28.5382 56.2825H30.2699V53.2825ZM26.6519 47.0185H23.6519V47.8226L24.0541 48.5189L26.6519 47.0185ZM26.6519 37.1905H29.6519V34.1905H26.6519V37.1905ZM20.1179 37.1905V34.1905H17.1179V37.1905H20.1179ZM20.1179 50.5825V53.5825H23.1179V50.5825H20.1179ZM15.4199 50.5825H12.4199V53.5825H15.4199V50.5825ZM15.4199 38.2165L12.8221 36.716L12.4199 37.4123V38.2165H15.4199ZM19.0379 31.9525V28.9525H17.3062L16.4401 30.452L19.0379 31.9525ZM42.6899 31.9525H45.6899V28.9525H42.6899V31.9525ZM42.6899 33.3564L45.2879 34.8567L45.6899 34.1605V33.3564H42.6899ZM40.4759 37.1905L37.878 35.6902L37.0117 37.1905L37.878 38.6907L40.4759 37.1905ZM42.6899 41.0245H45.6899V40.2205L45.2879 39.5242L42.6899 41.0245ZM31.3499 48.0445V51.0445H37.9919V48.0445V45.0445H31.3499V48.0445ZM37.9919 48.0445H40.9919V37.1905H37.9919H34.9919V48.0445H37.9919ZM37.9919 37.1905V34.1905H31.3499V37.1905V40.1905H37.9919V37.1905ZM31.3499 37.1905H28.3499V48.0445H31.3499H34.3499V37.1905H31.3499ZM42.6899 47.0185L40.0921 45.518L36.4741 51.782L39.0719 53.2825L41.6697 54.7829L45.2877 48.5189L42.6899 47.0185ZM39.0719 53.2825V50.2825H30.2699V53.2825V56.2825H39.0719V53.2825ZM30.2699 53.2825L32.8677 51.782L29.2497 45.518L26.6519 47.0185L24.0541 48.5189L27.6721 54.7829L30.2699 53.2825ZM26.6519 47.0185H29.6519V37.1905H26.6519H23.6519V47.0185H26.6519ZM26.6519 37.1905V34.1905H20.1179V37.1905V40.1905H26.6519V37.1905ZM20.1179 37.1905H17.1179L17.1179 50.5825H20.1179H23.1179L23.1179 37.1905H20.1179ZM20.1179 50.5825V47.5825H15.4199V50.5825V53.5825H20.1179V50.5825ZM15.4199 50.5825H18.4199L18.4199 38.2165H15.4199H12.4199L12.4199 50.5825H15.4199ZM15.4199 38.2165L18.0177 39.7169L21.6357 33.4529L19.0379 31.9525L16.4401 30.452L12.8221 36.716L15.4199 38.2165ZM19.0379 31.9525V34.9525H42.6899V31.9525V28.9525H19.0379V31.9525ZM42.6899 31.9525H39.6899V33.3564H42.6899H45.6899V31.9525H42.6899ZM42.6899 33.3564L40.092 31.8562L37.878 35.6902L40.4759 37.1905L43.0739 38.6907L45.2879 34.8567L42.6899 33.3564ZM40.4759 37.1905L37.878 38.6907L40.092 42.5247L42.6899 41.0245L45.2879 39.5242L43.0739 35.6902L40.4759 37.1905ZM42.6899 41.0245H39.6899V47.0185H42.6899H45.6899V41.0245H42.6899ZM29.9999 3.00003V3.05176e-05H28.2682L27.4021 1.49957L29.9999 3.00003ZM38.8019 3.00003L41.3997 1.49957L40.5336 3.05176e-05H38.8019V3.00003ZM42.4199 9.26404H45.4199V8.4599L45.0177 7.76355L42.4199 9.26404ZM42.4199 23.304V26.304H45.4199V23.304H42.4199ZM37.7219 23.304H34.7219V26.304H37.7219V23.304ZM37.7219 8.23804H40.7219V5.23804H37.7219V8.23804ZM31.0799 8.23804V5.23804H28.0799V8.23804H31.0799ZM31.0799 17.04L33.6777 18.5405L34.0799 17.8441V17.04H31.0799ZM27.4619 23.304V26.304H29.1936L30.0597 24.8045L27.4619 23.304ZM19.0379 23.304L16.4401 24.8045L17.3062 26.304H19.0379V23.304ZM15.4199 17.04H12.4199V17.8441L12.8221 18.5405L15.4199 17.04ZM15.4199 3.54004V0.540039H12.4199V3.54004H15.4199ZM20.1179 3.54004H23.1179V0.540039H20.1179V3.54004ZM20.1179 18.066H17.1179V21.066H20.1179V18.066ZM26.3819 18.066V21.066H29.3819V18.066H26.3819ZM26.3819 9.26404L23.7841 7.76355L23.3819 8.4599V9.26404H26.3819ZM29.9999 3.00003V6.00003H38.8019V3.00003V3.05176e-05H29.9999V3.00003ZM38.8019 3.00003L36.2041 4.50049L39.8221 10.7645L42.4199 9.26404L45.0177 7.76355L41.3997 1.49957L38.8019 3.00003ZM42.4199 9.26404H39.4199L39.4199 23.304H42.4199H45.4199L45.4199 9.26404H42.4199ZM42.4199 23.304V20.304H37.7219V23.304V26.304H42.4199V23.304ZM37.7219 23.304H40.7219L40.7219 8.23804H37.7219H34.7219L34.7219 23.304H37.7219ZM37.7219 8.23804V5.23804H31.0799V8.23804V11.238H37.7219V8.23804ZM31.0799 8.23804H28.0799L28.0799 17.04H31.0799H34.0799L34.0799 8.23804H31.0799ZM31.0799 17.04L28.4821 15.5396L24.8641 21.8036L27.4619 23.304L30.0597 24.8045L33.6777 18.5405L31.0799 17.04ZM27.4619 23.304V20.304H19.0379V23.304V26.304H27.4619V23.304ZM19.0379 23.304L21.6357 21.8036L18.0177 15.5396L15.4199 17.04L12.8221 18.5405L16.4401 24.8045L19.0379 23.304ZM15.4199 17.04H18.4199V3.54004H15.4199H12.4199V17.04H15.4199ZM15.4199 3.54004V6.54004H20.1179V3.54004V0.540039H15.4199V3.54004ZM20.1179 3.54004H17.1179V18.066H20.1179H23.1179V3.54004H20.1179ZM20.1179 18.066V21.066H26.3819V18.066V15.066H20.1179V18.066ZM26.3819 18.066H29.3819L29.3819 9.26404H26.3819H23.3819V18.066H26.3819ZM26.3819 9.26404L28.9797 10.7645L32.5977 4.50049L29.9999 3.00003L27.4021 1.49957L23.7841 7.76355L26.3819 9.26404Z" fill="#B5E93B" mask="url(#path-1-outside-1_3113_1862)"/>
</svg>
