<svg width="147" height="124" viewBox="0 0 147 124" fill="none" xmlns="http://www.w3.org/2000/svg">
<path d="M41.7537 88.31V90.524H45.3717V88.31H41.7537ZM42.0957 92.09L40.0077 90.884V87.95L42.0957 86.744H45.3717V84.566H40.9077V83H45.0297L47.1177 84.206V92.09H46.6497L45.3717 91.352L44.0937 92.09H42.0957ZM53.0245 82.91H55.7425L57.8305 84.116V90.884L55.7425 92.09H53.0245L51.7465 91.352L50.4685 92.09H50.0005V78.86H51.7465V83.648L53.0245 82.91ZM51.7465 84.476V90.524H56.0845V84.476H51.7465ZM62.4516 83V92H60.7056V83H62.4516ZM60.6156 80.786V78.86H62.5416V80.786H60.6156ZM72.4387 90.434V92H67.4167L65.3287 90.794V84.116L67.4167 82.91H70.3507L72.4387 84.116V88.112H67.0747V90.434H72.4387ZM67.0747 84.476V86.546H70.6927V84.476H67.0747ZM80.335 84.566H77.059V92H75.313V83H76.627L77.059 83.738L78.337 83H80.335V84.566ZM81.5891 84.566V83H83.2451V81.488L84.9911 80.48V83H87.1511V84.566H84.9911V90.434H87.1511V92H85.3331L83.2451 90.794V84.566H81.5891ZM97.3244 90.884L95.2364 92.09H91.7624L89.6744 90.884V84.116L91.7624 82.91H95.2364L97.3244 84.116V90.884ZM91.4204 84.476V90.524H95.5784V84.476H91.4204ZM106.265 88.31V90.524H109.883V88.31H106.265ZM106.607 92.09L104.519 90.884V87.95L106.607 86.744H109.883V84.566H105.419V83H109.541L111.629 84.206V92.09H111.161L109.883 91.352L108.605 92.09H106.607ZM34.1134 106.566H30.8374V114H29.0914V105H30.4054L30.8374 105.738L32.1154 105H34.1134V106.566ZM43.1975 112.434V114H38.1755L36.0875 112.794V106.116L38.1755 104.91H41.1095L43.1975 106.116V110.112H37.8335V112.434H43.1975ZM37.8335 106.476V108.546H41.4515V106.476H37.8335ZM47.4578 110.31V112.524H51.0758V110.31H47.4578ZM47.7998 114.09L45.7118 112.884V109.95L47.7998 108.744H51.0758V106.566H46.6118V105H50.7338L52.8218 106.206V114.09H52.3538L51.0758 113.352L49.7978 114.09H47.7998ZM57.7926 114L55.7046 112.794V100.86H57.4506V112.434H59.6106V114H57.7926ZM69.0675 112.884L66.9795 114.09H63.5055L61.4175 112.884V106.116L63.5055 104.91H66.9795L69.0675 106.116V112.884ZM63.1635 106.476V112.524H67.3215V106.476H63.1635ZM73.6928 106.566V112.434H78.6968V114H74.0348L71.9468 112.794V106.206L74.0348 105H78.6968V106.566H73.6928ZM82.5965 110.31V112.524H86.2145V110.31H82.5965ZM82.9385 114.09L80.8505 112.884V109.95L82.9385 108.744H86.2145V106.566H81.7505V105H85.8725L87.9605 106.206V114.09H87.4925L86.2145 113.352L84.9365 114.09H82.9385ZM92.5893 106.566V112.434H97.5933V114H92.9313L90.8433 112.794V106.206L92.9313 105H97.5933V106.566H92.5893ZM101.853 105V114H100.107V105H101.853ZM100.017 102.786V100.86H101.943V102.786H100.017ZM112.38 112.884L110.292 114.09H106.818L104.73 112.884V106.116L106.818 104.91H110.292L112.38 106.116V112.884ZM106.476 106.476V112.524H110.634V106.476H106.476ZM107.214 103.38L108.906 101.076H111.246L108.654 103.38H107.214ZM122.909 106.116V114H121.163V106.476H117.005V114H115.259V104.91H116.573L117.005 105.648L118.283 104.91H120.821L122.909 106.116Z" fill="#FFFDFD"/>
<ellipse cx="3.46154" cy="3.30082" rx="3.46154" ry="3.30082" transform="matrix(0.990909 0.134535 -0.169599 0.985513 64.4287 59.5386)" fill="#FFFDFD"/>
<ellipse cx="3.46154" cy="3.30082" rx="3.46154" ry="3.30082" transform="matrix(0.990909 0.134535 -0.169599 0.985513 81.6387 59.5386)" fill="#FFFDFD"/>
<rect x="69" y="19" width="14.1538" height="13.525" rx="1" stroke="#FFFDFD" stroke-width="2"/>
<rect x="61" y="27.8796" width="30" height="33.8728" rx="2" fill="#B5E93B"/>
</svg>
