<svg width="138" height="26" viewBox="0 0 138 26" fill="none" xmlns="http://www.w3.org/2000/svg">
<mask id="path-1-outside-1_3129_3505" maskUnits="userSpaceOnUse" x="-0.400391" y="-0.639893" width="139" height="27" fill="black">
<rect fill="white" x="-0.400391" y="-0.639893" width="139" height="27"/>
<path d="M1.31961 13.0001V3.94411L5.03161 1.80011H13.1276L16.8396 3.94411V8.20011H12.3596V5.64011H5.79961V10.9841H13.1276L16.8396 13.1281V22.3761L13.1276 24.5201H4.71161L0.999609 22.3761V18.1201H5.47961V20.6801H12.3596V15.1441H5.03161L1.31961 13.0001ZM36.2084 22.3761L32.4964 24.5201H25.6804L21.9684 22.3761V10.3441L25.6804 8.20011H32.4964L36.2084 10.3441V22.3761ZM26.3524 11.9441V20.7761H31.8244V11.9441H26.3524ZM47.6556 8.20011H51.8476L55.5596 10.3441V22.3761L51.8476 24.5201H47.6556L45.3836 23.2081L43.1116 24.5201H40.9996V1.00011H45.3836V9.51211L47.6556 8.20011ZM45.3836 11.9441V20.7761H51.1756V11.9441H45.3836ZM70.2626 12.1041H64.7586V24.3601H60.3746V8.36011H63.9906L64.7586 9.67211L67.0306 8.36011H70.2626V12.1041ZM86.7484 20.6161V24.3601H77.1804L73.4684 22.2161V10.3441L77.1804 8.20011H83.0364L86.7484 10.3441V17.9921H77.8524V20.6161H86.7484ZM77.8524 11.9441V14.6961H82.3644V11.9441H77.8524ZM122.371 10.3441V24.3601H117.987V11.9441H113.315V24.3601H108.931V11.9441H104.259V24.3601H99.8746V8.20011H103.491L104.259 9.51211L106.531 8.20011H109.603L112.579 9.92811L115.587 8.20011H118.659L122.371 10.3441ZM131.54 8.36011V24.3601H127.156V8.36011H131.54ZM126.772 5.48011L129.78 1.38411H135.22L130.612 5.48011H126.772Z"/>
</mask>
<path d="M1.31961 13.0001H0.319609V13.5773L0.819456 13.866L1.31961 13.0001ZM1.31961 3.94411L0.819456 3.07817L0.319609 3.36687V3.94411H1.31961ZM5.03161 1.80011V0.800106H4.76357L4.53146 0.93417L5.03161 1.80011ZM13.1276 1.80011L13.6278 0.93417L13.3957 0.800106H13.1276V1.80011ZM16.8396 3.94411H17.8396V3.36687L17.3398 3.07817L16.8396 3.94411ZM16.8396 8.20011V9.20011H17.8396V8.20011H16.8396ZM12.3596 8.20011H11.3596V9.20011H12.3596V8.20011ZM12.3596 5.64011H13.3596V4.64011H12.3596V5.64011ZM5.79961 5.64011V4.64011H4.79961V5.64011H5.79961ZM5.79961 10.9841H4.79961V11.9841H5.79961V10.9841ZM13.1276 10.9841L13.6278 10.1182L13.3957 9.98411H13.1276V10.9841ZM16.8396 13.1281H17.8396V12.5509L17.3398 12.2622L16.8396 13.1281ZM16.8396 22.3761L17.3398 23.242L17.8396 22.9533V22.3761H16.8396ZM13.1276 24.5201V25.5201H13.3957L13.6278 25.386L13.1276 24.5201ZM4.71161 24.5201L4.21146 25.386L4.44357 25.5201H4.71161V24.5201ZM0.999609 22.3761H-0.00039053V22.9533L0.499456 23.242L0.999609 22.3761ZM0.999609 18.1201V17.1201H-0.00039053V18.1201H0.999609ZM5.47961 18.1201H6.47961V17.1201H5.47961V18.1201ZM5.47961 20.6801H4.47961V21.6801H5.47961V20.6801ZM12.3596 20.6801V21.6801H13.3596V20.6801H12.3596ZM12.3596 15.1441H13.3596V14.1441H12.3596V15.1441ZM5.03161 15.1441L4.53146 16.01L4.76357 16.1441H5.03161V15.1441ZM1.31961 13.0001H2.31961V3.94411H1.31961H0.319609V13.0001H1.31961ZM1.31961 3.94411L1.81976 4.81004L5.53176 2.66604L5.03161 1.80011L4.53146 0.93417L0.819456 3.07817L1.31961 3.94411ZM5.03161 1.80011V2.80011H13.1276V1.80011V0.800106H5.03161V1.80011ZM13.1276 1.80011L12.6275 2.66604L16.3395 4.81004L16.8396 3.94411L17.3398 3.07817L13.6278 0.93417L13.1276 1.80011ZM16.8396 3.94411H15.8396V8.20011H16.8396H17.8396V3.94411H16.8396ZM16.8396 8.20011V7.20011H12.3596V8.20011V9.20011H16.8396V8.20011ZM12.3596 8.20011H13.3596V5.64011H12.3596H11.3596V8.20011H12.3596ZM12.3596 5.64011V4.64011H5.79961V5.64011V6.64011H12.3596V5.64011ZM5.79961 5.64011H4.79961V10.9841H5.79961H6.79961V5.64011H5.79961ZM5.79961 10.9841V11.9841H13.1276V10.9841V9.98411H5.79961V10.9841ZM13.1276 10.9841L12.6275 11.85L16.3395 13.994L16.8396 13.1281L17.3398 12.2622L13.6278 10.1182L13.1276 10.9841ZM16.8396 13.1281H15.8396V22.3761H16.8396H17.8396V13.1281H16.8396ZM16.8396 22.3761L16.3395 21.5102L12.6275 23.6542L13.1276 24.5201L13.6278 25.386L17.3398 23.242L16.8396 22.3761ZM13.1276 24.5201V23.5201H4.71161V24.5201V25.5201H13.1276V24.5201ZM4.71161 24.5201L5.21176 23.6542L1.49976 21.5102L0.999609 22.3761L0.499456 23.242L4.21146 25.386L4.71161 24.5201ZM0.999609 22.3761H1.99961V18.1201H0.999609H-0.00039053V22.3761H0.999609ZM0.999609 18.1201V19.1201H5.47961V18.1201V17.1201H0.999609V18.1201ZM5.47961 18.1201H4.47961V20.6801H5.47961H6.47961V18.1201H5.47961ZM5.47961 20.6801V21.6801H12.3596V20.6801V19.6801H5.47961V20.6801ZM12.3596 20.6801H13.3596V15.1441H12.3596H11.3596V20.6801H12.3596ZM12.3596 15.1441V14.1441H5.03161V15.1441V16.1441H12.3596V15.1441ZM5.03161 15.1441L5.53176 14.2782L1.81976 12.1342L1.31961 13.0001L0.819456 13.866L4.53146 16.01L5.03161 15.1441ZM36.2084 22.3761L36.7085 23.242L37.2084 22.9533V22.3761H36.2084ZM32.4964 24.5201V25.5201H32.7644L32.9965 25.386L32.4964 24.5201ZM25.6804 24.5201L25.1802 25.386L25.4123 25.5201H25.6804V24.5201ZM21.9684 22.3761H20.9684V22.9533L21.4682 23.242L21.9684 22.3761ZM21.9684 10.3441L21.4682 9.47817L20.9684 9.76687V10.3441H21.9684ZM25.6804 8.20011V7.20011H25.4123L25.1802 7.33417L25.6804 8.20011ZM32.4964 8.20011L32.9965 7.33417L32.7644 7.20011H32.4964V8.20011ZM36.2084 10.3441H37.2084V9.76687L36.7085 9.47817L36.2084 10.3441ZM26.3524 11.9441V10.9441H25.3524V11.9441H26.3524ZM26.3524 20.7761H25.3524V21.7761H26.3524V20.7761ZM31.8244 20.7761V21.7761H32.8244V20.7761H31.8244ZM31.8244 11.9441H32.8244V10.9441H31.8244V11.9441ZM36.2084 22.3761L35.7082 21.5102L31.9962 23.6542L32.4964 24.5201L32.9965 25.386L36.7085 23.242L36.2084 22.3761ZM32.4964 24.5201V23.5201H25.6804V24.5201V25.5201H32.4964V24.5201ZM25.6804 24.5201L26.1805 23.6542L22.4685 21.5102L21.9684 22.3761L21.4682 23.242L25.1802 25.386L25.6804 24.5201ZM21.9684 22.3761H22.9684V10.3441H21.9684H20.9684V22.3761H21.9684ZM21.9684 10.3441L22.4685 11.21L26.1805 9.06604L25.6804 8.20011L25.1802 7.33417L21.4682 9.47817L21.9684 10.3441ZM25.6804 8.20011V9.20011H32.4964V8.20011V7.20011H25.6804V8.20011ZM32.4964 8.20011L31.9962 9.06604L35.7082 11.21L36.2084 10.3441L36.7085 9.47817L32.9965 7.33417L32.4964 8.20011ZM36.2084 10.3441H35.2084V22.3761H36.2084H37.2084V10.3441H36.2084ZM26.3524 11.9441H25.3524V20.7761H26.3524H27.3524V11.9441H26.3524ZM26.3524 20.7761V21.7761H31.8244V20.7761V19.7761H26.3524V20.7761ZM31.8244 20.7761H32.8244V11.9441H31.8244H30.8244V20.7761H31.8244ZM31.8244 11.9441V10.9441H26.3524V11.9441V12.9441H31.8244V11.9441ZM47.6556 8.20011V7.20011H47.3876L47.1555 7.33413L47.6556 8.20011ZM51.8476 8.20011L52.3478 7.33417L52.1157 7.20011H51.8476V8.20011ZM55.5596 10.3441H56.5596V9.76687L56.0598 9.47817L55.5596 10.3441ZM55.5596 22.3761L56.0598 23.242L56.5596 22.9533V22.3761H55.5596ZM51.8476 24.5201V25.5201H52.1157L52.3478 25.386L51.8476 24.5201ZM47.6556 24.5201L47.1555 25.3861L47.3876 25.5201H47.6556V24.5201ZM45.3836 23.2081L45.8837 22.3421L45.3836 22.0533L44.8835 22.3421L45.3836 23.2081ZM43.1116 24.5201V25.5201H43.3796L43.6117 25.3861L43.1116 24.5201ZM40.9996 24.5201H39.9996V25.5201H40.9996V24.5201ZM40.9996 1.00011V0.000106812H39.9996V1.00011H40.9996ZM45.3836 1.00011H46.3836V0.000106812H45.3836V1.00011ZM45.3836 9.51211H44.3836V11.2443L45.8837 10.3781L45.3836 9.51211ZM45.3836 11.9441V10.9441H44.3836V11.9441H45.3836ZM45.3836 20.7761H44.3836V21.7761H45.3836V20.7761ZM51.1756 20.7761V21.7761H52.1756V20.7761H51.1756ZM51.1756 11.9441H52.1756V10.9441H51.1756V11.9441ZM47.6556 8.20011V9.20011H51.8476V8.20011V7.20011H47.6556V8.20011ZM51.8476 8.20011L51.3475 9.06604L55.0595 11.21L55.5596 10.3441L56.0598 9.47817L52.3478 7.33417L51.8476 8.20011ZM55.5596 10.3441H54.5596V22.3761H55.5596H56.5596V10.3441H55.5596ZM55.5596 22.3761L55.0595 21.5102L51.3475 23.6542L51.8476 24.5201L52.3478 25.386L56.0598 23.242L55.5596 22.3761ZM51.8476 24.5201V23.5201H47.6556V24.5201V25.5201H51.8476V24.5201ZM47.6556 24.5201L48.1557 23.6541L45.8837 22.3421L45.3836 23.2081L44.8835 24.0741L47.1555 25.3861L47.6556 24.5201ZM45.3836 23.2081L44.8835 22.3421L42.6115 23.6541L43.1116 24.5201L43.6117 25.3861L45.8837 24.0741L45.3836 23.2081ZM43.1116 24.5201V23.5201H40.9996V24.5201V25.5201H43.1116V24.5201ZM40.9996 24.5201H41.9996V1.00011H40.9996H39.9996V24.5201H40.9996ZM40.9996 1.00011V2.00011H45.3836V1.00011V0.000106812H40.9996V1.00011ZM45.3836 1.00011H44.3836V9.51211H45.3836H46.3836V1.00011H45.3836ZM45.3836 9.51211L45.8837 10.3781L48.1557 9.06609L47.6556 8.20011L47.1555 7.33413L44.8835 8.64612L45.3836 9.51211ZM45.3836 11.9441H44.3836V20.7761H45.3836H46.3836V11.9441H45.3836ZM45.3836 20.7761V21.7761H51.1756V20.7761V19.7761H45.3836V20.7761ZM51.1756 20.7761H52.1756V11.9441H51.1756H50.1756V20.7761H51.1756ZM51.1756 11.9441V10.9441H45.3836V11.9441V12.9441H51.1756V11.9441ZM70.2626 12.1041V13.1041H71.2626V12.1041H70.2626ZM64.7586 12.1041V11.1041H63.7586V12.1041H64.7586ZM64.7586 24.3601V25.3601H65.7586V24.3601H64.7586ZM60.3746 24.3601H59.3746V25.3601H60.3746V24.3601ZM60.3746 8.36011V7.36011H59.3746V8.36011H60.3746ZM63.9906 8.36011L64.8536 7.85493L64.564 7.36011H63.9906V8.36011ZM64.7586 9.67211L63.8956 10.1773L64.3978 11.0352L65.2587 10.5381L64.7586 9.67211ZM67.0306 8.36011V7.36011H66.7626L66.5305 7.49413L67.0306 8.36011ZM70.2626 8.36011H71.2626V7.36011H70.2626V8.36011ZM70.2626 12.1041V11.1041H64.7586V12.1041V13.1041H70.2626V12.1041ZM64.7586 12.1041H63.7586V24.3601H64.7586H65.7586V12.1041H64.7586ZM64.7586 24.3601V23.3601H60.3746V24.3601V25.3601H64.7586V24.3601ZM60.3746 24.3601H61.3746V8.36011H60.3746H59.3746V24.3601H60.3746ZM60.3746 8.36011V9.36011H63.9906V8.36011V7.36011H60.3746V8.36011ZM63.9906 8.36011L63.1276 8.86529L63.8956 10.1773L64.7586 9.67211L65.6216 9.16693L64.8536 7.85493L63.9906 8.36011ZM64.7586 9.67211L65.2587 10.5381L67.5307 9.22609L67.0306 8.36011L66.5305 7.49413L64.2585 8.80612L64.7586 9.67211ZM67.0306 8.36011V9.36011H70.2626V8.36011V7.36011H67.0306V8.36011ZM70.2626 8.36011H69.2626V12.1041H70.2626H71.2626V8.36011H70.2626ZM86.7484 20.6161H87.7484V19.6161H86.7484V20.6161ZM86.7484 24.3601V25.3601H87.7484V24.3601H86.7484ZM77.1804 24.3601L76.6802 25.226L76.9123 25.3601H77.1804V24.3601ZM73.4684 22.2161H72.4684V22.7933L72.9682 23.082L73.4684 22.2161ZM73.4684 10.3441L72.9682 9.47817L72.4684 9.76687V10.3441H73.4684ZM77.1804 8.20011V7.20011H76.9123L76.6802 7.33417L77.1804 8.20011ZM83.0364 8.20011L83.5365 7.33417L83.3044 7.20011H83.0364V8.20011ZM86.7484 10.3441H87.7484V9.76687L87.2485 9.47817L86.7484 10.3441ZM86.7484 17.9921V18.9921H87.7484V17.9921H86.7484ZM77.8524 17.9921V16.9921H76.8524V17.9921H77.8524ZM77.8524 20.6161H76.8524V21.6161H77.8524V20.6161ZM77.8524 11.9441V10.9441H76.8524V11.9441H77.8524ZM77.8524 14.6961H76.8524V15.6961H77.8524V14.6961ZM82.3644 14.6961V15.6961H83.3644V14.6961H82.3644ZM82.3644 11.9441H83.3644V10.9441H82.3644V11.9441ZM86.7484 20.6161H85.7484V24.3601H86.7484H87.7484V20.6161H86.7484ZM86.7484 24.3601V23.3601H77.1804V24.3601V25.3601H86.7484V24.3601ZM77.1804 24.3601L77.6805 23.4942L73.9685 21.3502L73.4684 22.2161L72.9682 23.082L76.6802 25.226L77.1804 24.3601ZM73.4684 22.2161H74.4684V10.3441H73.4684H72.4684V22.2161H73.4684ZM73.4684 10.3441L73.9685 11.21L77.6805 9.06604L77.1804 8.20011L76.6802 7.33417L72.9682 9.47817L73.4684 10.3441ZM77.1804 8.20011V9.20011H83.0364V8.20011V7.20011H77.1804V8.20011ZM83.0364 8.20011L82.5362 9.06604L86.2482 11.21L86.7484 10.3441L87.2485 9.47817L83.5365 7.33417L83.0364 8.20011ZM86.7484 10.3441H85.7484V17.9921H86.7484H87.7484V10.3441H86.7484ZM86.7484 17.9921V16.9921H77.8524V17.9921V18.9921H86.7484V17.9921ZM77.8524 17.9921H76.8524V20.6161H77.8524H78.8524V17.9921H77.8524ZM77.8524 20.6161V21.6161H86.7484V20.6161V19.6161H77.8524V20.6161ZM77.8524 11.9441H76.8524V14.6961H77.8524H78.8524V11.9441H77.8524ZM77.8524 14.6961V15.6961H82.3644V14.6961V13.6961H77.8524V14.6961ZM82.3644 14.6961H83.3644V11.9441H82.3644H81.3644V14.6961H82.3644ZM82.3644 11.9441V10.9441H77.8524V11.9441V12.9441H82.3644V11.9441ZM122.371 10.3441H123.371V9.76687L122.871 9.47817L122.371 10.3441ZM122.371 24.3601V25.3601H123.371V24.3601H122.371ZM117.987 24.3601H116.987V25.3601H117.987V24.3601ZM117.987 11.9441H118.987V10.9441H117.987V11.9441ZM113.315 11.9441V10.9441H112.315V11.9441H113.315ZM113.315 24.3601V25.3601H114.315V24.3601H113.315ZM108.931 24.3601H107.931V25.3601H108.931V24.3601ZM108.931 11.9441H109.931V10.9441H108.931V11.9441ZM104.259 11.9441V10.9441H103.259V11.9441H104.259ZM104.259 24.3601V25.3601H105.259V24.3601H104.259ZM99.8746 24.3601H98.8746V25.3601H99.8746V24.3601ZM99.8746 8.20011V7.20011H98.8746V8.20011H99.8746ZM103.491 8.20011L104.354 7.69493L104.064 7.20011H103.491V8.20011ZM104.259 9.51211L103.396 10.0173L103.898 10.8752L104.759 10.3781L104.259 9.51211ZM106.531 8.20011V7.20011H106.263L106.031 7.33413L106.531 8.20011ZM109.603 8.20011L110.105 7.33532L109.872 7.20011H109.603V8.20011ZM112.579 9.92811L112.076 10.7929L112.576 11.0829L113.077 10.7952L112.579 9.92811ZM115.587 8.20011V7.20011H115.32L115.088 7.333L115.587 8.20011ZM118.659 8.20011L119.159 7.33417L118.927 7.20011H118.659V8.20011ZM122.371 10.3441H121.371V24.3601H122.371H123.371V10.3441H122.371ZM122.371 24.3601V23.3601H117.987V24.3601V25.3601H122.371V24.3601ZM117.987 24.3601H118.987V11.9441H117.987H116.987V24.3601H117.987ZM117.987 11.9441V10.9441H113.315V11.9441V12.9441H117.987V11.9441ZM113.315 11.9441H112.315V24.3601H113.315H114.315V11.9441H113.315ZM113.315 24.3601V23.3601H108.931V24.3601V25.3601H113.315V24.3601ZM108.931 24.3601H109.931V11.9441H108.931H107.931V24.3601H108.931ZM108.931 11.9441V10.9441H104.259V11.9441V12.9441H108.931V11.9441ZM104.259 11.9441H103.259V24.3601H104.259H105.259V11.9441H104.259ZM104.259 24.3601V23.3601H99.8746V24.3601V25.3601H104.259V24.3601ZM99.8746 24.3601H100.875V8.20011H99.8746H98.8746V24.3601H99.8746ZM99.8746 8.20011V9.20011H103.491V8.20011V7.20011H99.8746V8.20011ZM103.491 8.20011L102.628 8.70529L103.396 10.0173L104.259 9.51211L105.122 9.00693L104.354 7.69493L103.491 8.20011ZM104.259 9.51211L104.759 10.3781L107.031 9.06609L106.531 8.20011L106.031 7.33413L103.759 8.64612L104.259 9.51211ZM106.531 8.20011V9.20011H109.603V8.20011V7.20011H106.531V8.20011ZM109.603 8.20011L109.1 9.0649L112.076 10.7929L112.579 9.92811L113.081 9.06332L110.105 7.33532L109.603 8.20011ZM112.579 9.92811L113.077 10.7952L116.085 9.06721L115.587 8.20011L115.088 7.333L112.08 9.061L112.579 9.92811ZM115.587 8.20011V9.20011H118.659V8.20011V7.20011H115.587V8.20011ZM118.659 8.20011L118.158 9.06604L121.87 11.21L122.371 10.3441L122.871 9.47817L119.159 7.33417L118.659 8.20011ZM131.54 8.36011H132.54V7.36011H131.54V8.36011ZM131.54 24.3601V25.3601H132.54V24.3601H131.54ZM127.156 24.3601H126.156V25.3601H127.156V24.3601ZM127.156 8.36011V7.36011H126.156V8.36011H127.156ZM126.772 5.48011L125.966 4.8882L124.797 6.48011H126.772V5.48011ZM129.78 1.38411V0.384106H129.274L128.974 0.792196L129.78 1.38411ZM135.22 1.38411L135.884 2.13152L137.85 0.384106H135.22V1.38411ZM130.612 5.48011V6.48011H130.992L131.276 6.22752L130.612 5.48011ZM131.54 8.36011H130.54V24.3601H131.54H132.54V8.36011H131.54ZM131.54 24.3601V23.3601H127.156V24.3601V25.3601H131.54V24.3601ZM127.156 24.3601H128.156V8.36011H127.156H126.156V24.3601H127.156ZM127.156 8.36011V9.36011H131.54V8.36011V7.36011H127.156V8.36011ZM126.772 5.48011L127.578 6.07202L130.586 1.97602L129.78 1.38411L128.974 0.792196L125.966 4.8882L126.772 5.48011ZM129.78 1.38411V2.38411H135.22V1.38411V0.384106H129.78V1.38411ZM135.22 1.38411L134.555 0.636696L129.947 4.7327L130.612 5.48011L131.276 6.22752L135.884 2.13152L135.22 1.38411ZM130.612 5.48011V4.48011H126.772V5.48011V6.48011H130.612V5.48011Z" fill="#B5E93B" mask="url(#path-1-outside-1_3129_3505)"/>
</svg>
