<svg width="46" height="231" viewBox="0 0 46 231" fill="none" xmlns="http://www.w3.org/2000/svg">
<mask id="path-1-outside-1_3113_1920" maskUnits="userSpaceOnUse" x="-0.580078" y="-0.314453" width="47" height="231" fill="black">
<rect fill="white" x="-0.580078" y="-0.314453" width="47" height="231"/>
<path d="M22.4399 226.826H7.96792L4.34992 220.562L4.34992 207.98L7.96792 201.716H13.5299L13.5299 207.116H9.20992V221.426H20.6579V207.98L24.2759 201.716H39.0719L42.6899 207.98V221.102L39.0719 227.366H33.5099V221.966H37.8299V207.116H26.0579V220.562L22.4399 226.826ZM39.0719 169.611L42.6899 175.875V186.297L39.0719 192.561H18.7679L15.1499 186.297V175.875L18.7679 169.611H39.0719ZM19.8479 187.323H37.9919L37.9919 174.849H19.8479V187.323ZM15.1499 151.901L15.1499 143.747L18.7679 137.483H39.0719L42.6899 143.747V151.901L40.4759 155.735L42.6899 159.569V160.973H2.99992V155.735H17.3639L15.1499 151.901ZM19.8479 155.735H37.9919V142.721H19.8479L19.8479 155.735ZM20.1179 113.792V123.62H42.4199V128.858H15.4199V124.916L17.6339 123.62L15.4199 119.786V113.792H20.1179ZM37.7219 86.5395H42.4199V101.605L38.8019 107.869H18.7679L15.1499 101.605V92.8035L18.7679 86.5395H30.7559V102.631H37.7219V86.5395ZM19.8479 102.631H26.0579V91.7775H19.8479V102.631ZM18.7679 27.547H42.4199V32.785H19.8479L19.8479 43.099H42.4199V48.337H19.8479V58.651H42.4199L42.4199 63.889H15.1499V59.947L17.3639 58.651L15.1499 54.817V49.363L18.0659 44.341L15.1499 39.265L15.1499 33.811L18.7679 27.547ZM15.4199 13.6686H42.4199V18.9066H15.4199V13.6686ZM10.5599 19.9866L3.64792 14.9106V7.89056L10.5599 15.6666V19.9866Z"/>
</mask>
<path d="M22.4399 226.826V229.826H24.1716L25.0377 228.326L22.4399 226.826ZM7.96792 226.826L5.37011 228.326L6.23623 229.826H7.96792V226.826ZM4.34992 220.562H1.34992V221.366L1.75211 222.062L4.34992 220.562ZM4.34992 207.98L1.75211 206.479L1.34992 207.175V207.98H4.34992ZM7.96792 201.716V198.716H6.23623L5.37011 200.215L7.96792 201.716ZM13.5299 201.716H16.5299V198.716H13.5299V201.716ZM13.5299 207.116V210.116H16.5299V207.116H13.5299ZM9.20992 207.116V204.116H6.20992V207.116H9.20992ZM9.20992 221.426H6.20992V224.426H9.20992V221.426ZM20.6579 221.426V224.426H23.6579V221.426H20.6579ZM20.6579 207.98L18.0601 206.479L17.6579 207.175V207.98H20.6579ZM24.2759 201.716V198.716H22.5442L21.6781 200.215L24.2759 201.716ZM39.0719 201.716L41.6697 200.215L40.8036 198.716H39.0719V201.716ZM42.6899 207.98H45.6899V207.175L45.2877 206.479L42.6899 207.98ZM42.6899 221.102L45.2877 222.602L45.6899 221.906V221.102H42.6899ZM39.0719 227.366V230.366H40.8036L41.6697 228.866L39.0719 227.366ZM33.5099 227.366H30.5099V230.366H33.5099V227.366ZM33.5099 221.966V218.966H30.5099V221.966H33.5099ZM37.8299 221.966V224.966H40.8299V221.966H37.8299ZM37.8299 207.116H40.8299V204.116H37.8299V207.116ZM26.0579 207.116V204.116H23.0579V207.116H26.0579ZM26.0579 220.562L28.6557 222.062L29.0579 221.366V220.562H26.0579ZM22.4399 226.826V223.826H7.96792V226.826V229.826H22.4399V226.826ZM7.96792 226.826L10.5657 225.325L6.94773 219.061L4.34992 220.562L1.75211 222.062L5.37011 228.326L7.96792 226.826ZM4.34992 220.562H7.34992L7.34992 207.98H4.34992H1.34992L1.34992 220.562H4.34992ZM4.34992 207.98L6.94773 209.48L10.5657 203.216L7.96792 201.716L5.37011 200.215L1.75211 206.479L4.34992 207.98ZM7.96792 201.716L7.96792 204.716H13.5299L13.5299 201.716V198.716H7.96792V201.716ZM13.5299 201.716H10.5299L10.5299 207.116H13.5299H16.5299L16.5299 201.716H13.5299ZM13.5299 207.116V204.116H9.20992V207.116V210.116H13.5299V207.116ZM9.20992 207.116H6.20992L6.20992 221.426H9.20992H12.2099V207.116H9.20992ZM9.20992 221.426V224.426H20.6579V221.426V218.426H9.20992V221.426ZM20.6579 221.426H23.6579V207.98H20.6579H17.6579V221.426H20.6579ZM20.6579 207.98L23.2557 209.48L26.8737 203.216L24.2759 201.716L21.6781 200.215L18.0601 206.479L20.6579 207.98ZM24.2759 201.716V204.716H39.0719V201.716V198.716H24.2759V201.716ZM39.0719 201.716L36.4741 203.216L40.0921 209.48L42.6899 207.98L45.2877 206.479L41.6697 200.215L39.0719 201.716ZM42.6899 207.98H39.6899V221.102H42.6899H45.6899V207.98H42.6899ZM42.6899 221.102L40.0921 219.601L36.4741 225.865L39.0719 227.366L41.6697 228.866L45.2877 222.602L42.6899 221.102ZM39.0719 227.366V224.366H33.5099V227.366V230.366H39.0719V227.366ZM33.5099 227.366H36.5099V221.966H33.5099H30.5099V227.366H33.5099ZM33.5099 221.966V224.966H37.8299V221.966V218.966H33.5099V221.966ZM37.8299 221.966H40.8299V207.116H37.8299H34.8299V221.966H37.8299ZM37.8299 207.116V204.116H26.0579V207.116V210.116H37.8299V207.116ZM26.0579 207.116H23.0579V220.562H26.0579H29.0579V207.116H26.0579ZM26.0579 220.562L23.4601 219.061L19.8421 225.325L22.4399 226.826L25.0377 228.326L28.6557 222.062L26.0579 220.562ZM39.0719 169.611L41.6697 168.11L40.8036 166.611H39.0719V169.611ZM42.6899 175.875H45.6899L45.6899 175.071L45.2877 174.374L42.6899 175.875ZM42.6899 186.297L45.2877 187.797L45.6899 187.101V186.297H42.6899ZM39.0719 192.561V195.561H40.8036L41.6697 194.061L39.0719 192.561ZM18.7679 192.561L16.1701 194.061L17.0362 195.561H18.7679V192.561ZM15.1499 186.297H12.1499V187.101L12.5521 187.797L15.1499 186.297ZM15.1499 175.875L12.5521 174.374L12.1499 175.071V175.875H15.1499ZM18.7679 169.611V166.611H17.0362L16.1701 168.11L18.7679 169.611ZM19.8479 187.323H16.8479V190.323H19.8479V187.323ZM37.9919 187.323V190.323H40.9919V187.323H37.9919ZM37.9919 174.849H40.9919V171.849H37.9919V174.849ZM19.8479 174.849V171.849H16.8479V174.849H19.8479ZM39.0719 169.611L36.4741 171.111L40.0921 177.375L42.6899 175.875L45.2877 174.374L41.6697 168.11L39.0719 169.611ZM42.6899 175.875H39.6899V186.297H42.6899H45.6899V175.875H42.6899ZM42.6899 186.297L40.0921 184.796L36.4741 191.06L39.0719 192.561L41.6697 194.061L45.2877 187.797L42.6899 186.297ZM39.0719 192.561V189.561H18.7679V192.561V195.561H39.0719V192.561ZM18.7679 192.561L21.3657 191.06L17.7477 184.796L15.1499 186.297L12.5521 187.797L16.1701 194.061L18.7679 192.561ZM15.1499 186.297H18.1499V175.875H15.1499H12.1499V186.297H15.1499ZM15.1499 175.875L17.7477 177.375L21.3657 171.111L18.7679 169.611L16.1701 168.11L12.5521 174.374L15.1499 175.875ZM18.7679 169.611V172.611H39.0719V169.611V166.611H18.7679V169.611ZM19.8479 187.323V190.323H37.9919V187.323V184.323H19.8479V187.323ZM37.9919 187.323H40.9919L40.9919 174.849H37.9919H34.9919L34.9919 187.323H37.9919ZM37.9919 174.849V171.849H19.8479V174.849V177.849H37.9919L37.9919 174.849ZM19.8479 174.849H16.8479V187.323H19.8479H22.8479V174.849H19.8479ZM15.1499 151.901H12.1499V152.705L12.552 153.401L15.1499 151.901ZM15.1499 143.747L12.5521 142.247L12.1499 142.943V143.747H15.1499ZM18.7679 137.483V134.483H17.0362L16.1701 135.983L18.7679 137.483ZM39.0719 137.483L41.6697 135.983L40.8036 134.483H39.0719V137.483ZM42.6899 143.747H45.6899V142.943L45.2877 142.247L42.6899 143.747ZM42.6899 151.901L45.2879 153.401L45.6899 152.705V151.901H42.6899ZM40.4759 155.735L37.878 154.235L37.0117 155.735L37.878 157.235L40.4759 155.735ZM42.6899 159.569H45.6899V158.765L45.2879 158.069L42.6899 159.569ZM42.6899 160.973V163.973H45.6899V160.973H42.6899ZM2.99992 160.973H-8.01086e-05L-8.01086e-05 163.973H2.99992L2.99992 160.973ZM2.99992 155.735V152.735H-8.01086e-05V155.735H2.99992ZM17.3639 155.735V158.735H22.5606L19.9619 154.235L17.3639 155.735ZM19.8479 155.735H16.8479V158.735H19.8479V155.735ZM37.9919 155.735V158.735H40.9919V155.735H37.9919ZM37.9919 142.721H40.9919V139.721H37.9919V142.721ZM19.8479 142.721V139.721H16.8479V142.721H19.8479ZM15.1499 151.901H18.1499L18.1499 143.747H15.1499H12.1499L12.1499 151.901H15.1499ZM15.1499 143.747L17.7477 145.247L21.3657 138.983L18.7679 137.483L16.1701 135.983L12.5521 142.247L15.1499 143.747ZM18.7679 137.483V140.483H39.0719V137.483V134.483H18.7679V137.483ZM39.0719 137.483L36.4741 138.983L40.0921 145.247L42.6899 143.747L45.2877 142.247L41.6697 135.983L39.0719 137.483ZM42.6899 143.747H39.6899V151.901H42.6899H45.6899V143.747H42.6899ZM42.6899 151.901L40.092 150.401L37.878 154.235L40.4759 155.735L43.0739 157.235L45.2879 153.401L42.6899 151.901ZM40.4759 155.735L37.878 157.235L40.092 161.069L42.6899 159.569L45.2879 158.069L43.0739 154.235L40.4759 155.735ZM42.6899 159.569H39.6899V160.973H42.6899H45.6899V159.569H42.6899ZM42.6899 160.973V157.973H2.99992V160.973L2.99992 163.973H42.6899V160.973ZM2.99992 160.973H5.99992V155.735H2.99992H-8.01086e-05V160.973H2.99992ZM2.99992 155.735V158.735H17.3639V155.735V152.735H2.99992V155.735ZM17.3639 155.735L19.9619 154.235L17.7479 150.401L15.1499 151.901L12.552 153.401L14.766 157.235L17.3639 155.735ZM19.8479 155.735V158.735H37.9919V155.735V152.735H19.8479V155.735ZM37.9919 155.735H40.9919V142.721H37.9919H34.9919V155.735H37.9919ZM37.9919 142.721V139.721H19.8479V142.721V145.721H37.9919V142.721ZM19.8479 142.721H16.8479L16.8479 155.735H19.8479H22.8479L22.8479 142.721H19.8479ZM20.1179 113.792H23.1179V110.792H20.1179V113.792ZM20.1179 123.62H17.1179V126.62H20.1179V123.62ZM42.4199 123.62H45.4199V120.62H42.4199V123.62ZM42.4199 128.858V131.858H45.4199V128.858H42.4199ZM15.4199 128.858H12.4199V131.858H15.4199V128.858ZM15.4199 124.916L13.9044 122.327L12.4199 123.196V124.916H15.4199ZM17.6339 123.62L19.1495 126.209L21.7233 124.702L20.2319 122.12L17.6339 123.62ZM15.4199 119.786H12.4199V120.59L12.822 121.286L15.4199 119.786ZM15.4199 113.792V110.792H12.4199V113.792H15.4199ZM20.1179 113.792H17.1179V123.62H20.1179H23.1179V113.792H20.1179ZM20.1179 123.62V126.62H42.4199V123.62V120.62H20.1179V123.62ZM42.4199 123.62H39.4199V128.858H42.4199H45.4199V123.62H42.4199ZM42.4199 128.858V125.858H15.4199V128.858V131.858H42.4199V128.858ZM15.4199 128.858H18.4199V124.916H15.4199H12.4199V128.858H15.4199ZM15.4199 124.916L16.9355 127.505L19.1495 126.209L17.6339 123.62L16.1184 121.031L13.9044 122.327L15.4199 124.916ZM17.6339 123.62L20.2319 122.12L18.0179 118.286L15.4199 119.786L12.822 121.286L15.036 125.12L17.6339 123.62ZM15.4199 119.786H18.4199V113.792H15.4199H12.4199V119.786H15.4199ZM15.4199 113.792V116.792H20.1179V113.792V110.792H15.4199V113.792ZM37.7219 86.5395V83.5395H34.7219V86.5395H37.7219ZM42.4199 86.5395H45.4199V83.5395H42.4199V86.5395ZM42.4199 101.605L45.0177 103.106L45.4199 102.41V101.605H42.4199ZM38.8019 107.869V110.869H40.5336L41.3997 109.37L38.8019 107.869ZM18.7679 107.869L16.1701 109.37L17.0362 110.869H18.7679V107.869ZM15.1499 101.605H12.1499V102.41L12.5521 103.106L15.1499 101.605ZM15.1499 92.8035L12.5521 91.303L12.1499 91.9993V92.8035H15.1499ZM18.7679 86.5395V83.5395H17.0362L16.1701 85.039L18.7679 86.5395ZM30.7559 86.5395H33.7559V83.5395H30.7559V86.5395ZM30.7559 102.631H27.7559V105.631H30.7559V102.631ZM37.7219 102.631V105.631H40.7219V102.631H37.7219ZM19.8479 102.631H16.8479V105.631H19.8479V102.631ZM26.0579 102.631V105.631H29.0579V102.631H26.0579ZM26.0579 91.7775H29.0579V88.7775H26.0579V91.7775ZM19.8479 91.7775L19.8479 88.7775H16.8479L16.8479 91.7775H19.8479ZM37.7219 86.5395V89.5395H42.4199V86.5395V83.5395H37.7219V86.5395ZM42.4199 86.5395H39.4199V101.605H42.4199H45.4199V86.5395H42.4199ZM42.4199 101.605L39.8221 100.105L36.2041 106.369L38.8019 107.869L41.3997 109.37L45.0177 103.106L42.4199 101.605ZM38.8019 107.869V104.869H18.7679V107.869V110.869H38.8019V107.869ZM18.7679 107.869L21.3657 106.369L17.7477 100.105L15.1499 101.605L12.5521 103.106L16.1701 109.37L18.7679 107.869ZM15.1499 101.605H18.1499V92.8035H15.1499H12.1499V101.605H15.1499ZM15.1499 92.8035L17.7477 94.3039L21.3657 88.0399L18.7679 86.5395L16.1701 85.039L12.5521 91.303L15.1499 92.8035ZM18.7679 86.5395V89.5395H30.7559V86.5395V83.5395H18.7679V86.5395ZM30.7559 86.5395H27.7559V102.631H30.7559H33.7559V86.5395H30.7559ZM30.7559 102.631V105.631H37.7219V102.631V99.6315H30.7559V102.631ZM37.7219 102.631H40.7219V86.5395H37.7219H34.7219V102.631H37.7219ZM19.8479 102.631V105.631H26.0579V102.631V99.6315H19.8479V102.631ZM26.0579 102.631H29.0579V91.7775H26.0579H23.0579V102.631H26.0579ZM26.0579 91.7775V88.7775H19.8479L19.8479 91.7775V94.7775H26.0579V91.7775ZM19.8479 91.7775H16.8479V102.631H19.8479H22.8479V91.7775H19.8479ZM18.7679 27.547V24.547H17.0362L16.1701 26.0465L18.7679 27.547ZM42.4199 27.547H45.4199V24.547H42.4199V27.547ZM42.4199 32.785V35.785H45.4199V32.785H42.4199ZM19.8479 32.785V29.785H16.8479V32.785H19.8479ZM19.8479 43.099H16.8479V46.099H19.8479V43.099ZM42.4199 43.099H45.4199V40.099H42.4199V43.099ZM42.4199 48.337V51.337H45.4199V48.337H42.4199ZM19.8479 48.337V45.337H16.8479V48.337H19.8479ZM19.8479 58.651H16.8479V61.651H19.8479V58.651ZM42.4199 58.651H45.4199V55.651H42.4199V58.651ZM42.4199 63.889V66.889H45.4199V63.889H42.4199ZM15.1499 63.889H12.1499V66.889H15.1499V63.889ZM15.1499 59.947L13.6344 57.3579L12.1499 58.2269V59.947H15.1499ZM17.3639 58.651L18.8795 61.24L21.4533 59.7334L19.9619 57.1508L17.3639 58.651ZM15.1499 54.817H12.1499V55.621L12.552 56.3172L15.1499 54.817ZM15.1499 49.363L12.5556 47.8566L12.1499 48.5552V49.363H15.1499ZM18.0659 44.341L20.6603 45.8474L21.5303 44.349L20.6672 42.8466L18.0659 44.341ZM15.1499 39.265H12.1499V40.0654L12.5486 40.7594L15.1499 39.265ZM15.1499 33.811L12.5521 32.3105L12.1499 33.0069V33.811H15.1499ZM18.7679 27.547V30.547H42.4199V27.547V24.547H18.7679V27.547ZM42.4199 27.547H39.4199V32.785H42.4199H45.4199V27.547H42.4199ZM42.4199 32.785V29.785H19.8479V32.785L19.8479 35.785H42.4199V32.785ZM19.8479 32.785H16.8479L16.8479 43.099H19.8479H22.8479L22.8479 32.785H19.8479ZM19.8479 43.099V46.099H42.4199V43.099V40.099H19.8479V43.099ZM42.4199 43.099H39.4199V48.337H42.4199H45.4199V43.099H42.4199ZM42.4199 48.337V45.337H19.8479V48.337V51.337H42.4199V48.337ZM19.8479 48.337H16.8479V58.651H19.8479H22.8479V48.337H19.8479ZM19.8479 58.651V61.651H42.4199V58.651V55.651H19.8479V58.651ZM42.4199 58.651H39.4199L39.4199 63.889H42.4199H45.4199L45.4199 58.651H42.4199ZM42.4199 63.889L42.4199 60.889H15.1499V63.889V66.889H42.4199V63.889ZM15.1499 63.889H18.1499V59.947H15.1499H12.1499V63.889H15.1499ZM15.1499 59.947L16.6655 62.536L18.8795 61.24L17.3639 58.651L15.8484 56.0619L13.6344 57.3579L15.1499 59.947ZM17.3639 58.651L19.9619 57.1508L17.7479 53.3168L15.1499 54.817L12.552 56.3172L14.766 60.1512L17.3639 58.651ZM15.1499 54.817H18.1499V49.363H15.1499H12.1499V54.817H15.1499ZM15.1499 49.363L17.7443 50.8694L20.6603 45.8474L18.0659 44.341L15.4716 42.8346L12.5556 47.8566L15.1499 49.363ZM18.0659 44.341L20.6672 42.8466L17.7512 37.7706L15.1499 39.265L12.5486 40.7594L15.4646 45.8354L18.0659 44.341ZM15.1499 39.265H18.1499L18.1499 33.811H15.1499H12.1499L12.1499 39.265H15.1499ZM15.1499 33.811L17.7477 35.3114L21.3657 29.0474L18.7679 27.547L16.1701 26.0465L12.5521 32.3105L15.1499 33.811ZM15.4199 13.6686V10.6686H12.4199V13.6686H15.4199ZM42.4199 13.6686H45.4199V10.6686H42.4199V13.6686ZM42.4199 18.9066V21.9066H45.4199V18.9066H42.4199ZM15.4199 18.9066H12.4199V21.9066H15.4199V18.9066ZM10.5599 19.9866L8.78419 22.4046L13.5599 25.9118V19.9866H10.5599ZM3.64792 14.9106H0.647919V16.4295L1.87219 17.3286L3.64792 14.9106ZM3.64792 7.89056L5.89015 5.89748L0.647919 -3.05176e-05V7.89056H3.64792ZM10.5599 15.6666H13.5599V14.526L12.8021 13.6735L10.5599 15.6666ZM15.4199 13.6686V16.6686H42.4199V13.6686V10.6686H15.4199V13.6686ZM42.4199 13.6686H39.4199V18.9066H42.4199H45.4199V13.6686H42.4199ZM42.4199 18.9066V15.9066H15.4199V18.9066V21.9066H42.4199V18.9066ZM15.4199 18.9066H18.4199V13.6686H15.4199H12.4199V18.9066H15.4199ZM10.5599 19.9866L12.3356 17.5685L5.42365 12.4926L3.64792 14.9106L1.87219 17.3286L8.78419 22.4046L10.5599 19.9866ZM3.64792 14.9106H6.64792V7.89056H3.64792H0.647919V14.9106H3.64792ZM3.64792 7.89056L1.40569 9.88365L8.31769 17.6597L10.5599 15.6666L12.8021 13.6735L5.89015 5.89748L3.64792 7.89056ZM10.5599 15.6666H7.55992V19.9866H10.5599H13.5599V15.6666H10.5599Z" fill="#B5E93B" mask="url(#path-1-outside-1_3113_1920)"/>
</svg>
