<svg width="193" height="21" viewBox="0 0 193 21" fill="none" xmlns="http://www.w3.org/2000/svg">
<path d="M6.57784 2.64V16.06H4.37784V2.64H-0.000156224V0.659997H10.9558V2.64H6.57784ZM19.5054 6.974H15.5014V16.06H13.3674V5.06H14.9734L15.5014 5.962L17.0634 5.06H19.5054V6.974ZM23.6122 11.55V14.256H28.0342V11.55H23.6122ZM24.0302 16.17L21.4782 14.696V11.11L24.0302 9.636H28.0342V6.974H22.5782V5.06H27.6162L30.1682 6.534V16.17H29.5962L28.0342 15.268L26.4722 16.17H24.0302ZM37.3876 4.95H40.7096L43.2616 6.424V14.696L40.7096 16.17H37.3876L35.8256 15.268L34.2636 16.17H33.6916V-2.86102e-06H35.8256V5.852L37.3876 4.95ZM35.8256 6.864V14.256H41.1276V6.864H35.8256ZM48.4696 11.55V14.256H52.8916V11.55H48.4696ZM48.8876 16.17L46.3356 14.696V11.11L48.8876 9.636H52.8916V6.974H47.4356V5.06H52.4736L55.0256 6.534V16.17H54.4536L52.8916 15.268L51.3296 16.17H48.8876ZM58.4391 2.354V-2.86102e-06H60.7931V2.354H58.4391ZM60.6831 5.06V18.986L58.1311 20.46H55.9091V18.546H58.5491V5.06H60.6831ZM73.5495 14.696L70.9975 16.17H66.7515L64.1995 14.696V6.424L66.7515 4.95H70.9975L73.5495 6.424V14.696ZM66.3335 6.864V14.256H71.4155V6.864H66.3335ZM91.4734 14.146V16.06H85.3354L82.7834 14.586V6.424L85.3354 4.95H88.9214L91.4734 6.424V11.308H84.9174V14.146H91.4734ZM84.9174 6.864V9.394H89.3394V6.864H84.9174ZM104.337 6.424V16.06H102.203V6.864H97.1206V16.06H94.9866V4.95H96.5926L97.1206 5.852L98.6826 4.95H101.785L104.337 6.424ZM122.261 14.146V16.06H116.123L113.571 14.586V6.424L116.123 4.95H119.709L122.261 6.424V11.308H115.705V14.146H122.261ZM115.705 6.864V9.394H120.127V6.864H115.705ZM131.648 16.17H128.326L125.774 14.696V6.424L128.326 4.95H131.648L133.21 5.852L134.772 4.95H135.344V20.46H133.21V15.268L131.648 16.17ZM133.21 14.256V6.864H127.908V14.256H133.21ZM138.858 14.696V5.06H140.992V14.256H146.074V5.06H148.208V16.17H146.602L146.074 15.268L144.512 16.17H141.41L138.858 14.696ZM153.861 5.06V16.06H151.727V5.06H153.861ZM151.617 2.354V-2.86102e-06H153.971V2.354H151.617ZM164.395 16.17H161.073L159.511 15.268V20.46H157.377V4.95H158.983L159.511 5.852L161.073 4.95H164.395L166.947 6.424V14.696L164.395 16.17ZM159.511 6.864V14.256H164.813V6.864H159.511ZM179.811 14.696L177.259 16.17H173.013L170.461 14.696V6.424L173.013 4.95H177.259L179.811 6.424V14.696ZM172.595 6.864V14.256H177.677V6.864H172.595ZM188.104 7.458L187.906 10.164H186.146L185.926 6.952L188.478 5.478H190.15V1.98H185.75V3.96H183.55V1.474L186.102 -2.86102e-06H189.798L192.35 1.474V5.984L189.798 7.458H188.104ZM185.376 16.06V12.76H188.676V16.06H185.376Z" fill="#B5E93B"/>
</svg>
