<svg width="167" height="86" viewBox="0 0 167 86" fill="none" xmlns="http://www.w3.org/2000/svg">
<path d="M24.676 80.434V82H19.654L17.566 80.794V74.116L19.654 72.91H22.588L24.676 74.116V78.112H19.312V80.434H24.676ZM19.312 74.476V76.546H22.93V74.476H19.312ZM35.2004 74.116V82H33.4544V74.476H29.2964V82H27.5504V72.91H28.8644L29.2964 73.648L30.5744 72.91H33.1124L35.2004 74.116ZM42.0354 74.566V73H43.6914V71.488L45.4374 70.48V73H47.5974V74.566H45.4374V80.434H47.5974V82H45.7794L43.6914 80.794V74.566H42.0354ZM55.1427 74.566H51.8667V82H50.1207V73H51.4347L51.8667 73.738L53.1447 73H55.1427V74.566ZM58.5028 78.31V80.524H62.1208V78.31H58.5028ZM58.8448 82.09L56.7568 80.884V77.95L58.8448 76.744H62.1208V74.566H57.6568V73H61.7788L63.8668 74.206V82.09H63.3988L62.1208 81.352L60.8428 82.09H58.8448ZM69.7736 72.91H72.4916L74.5796 74.116V80.884L72.4916 82.09H69.7736L68.4956 81.352L67.2176 82.09H66.7496V68.86H68.4956V73.648L69.7736 72.91ZM68.4956 74.476V80.524H72.8336V74.476H68.4956ZM78.8406 78.31V80.524H82.4586V78.31H78.8406ZM79.1826 82.09L77.0946 80.884V77.95L79.1826 76.744H82.4586V74.566H77.9946V73H82.1166L84.2046 74.206V82.09H83.7366L82.4586 81.352L81.1806 82.09H79.1826ZM86.9975 70.786V68.86H88.9235V70.786H86.9975ZM88.8335 73V84.394L86.7455 85.6H84.9275V84.034H87.0875V73H88.8335ZM99.3605 80.884L97.2725 82.09H93.7985L91.7105 80.884V74.116L93.7985 72.91H97.2725L99.3605 74.116V80.884ZM93.4565 74.476V80.524H97.6145V74.476H93.4565ZM111.938 74.566H108.662V82H106.916V73H108.23L108.662 73.738L109.94 73H111.938V74.566ZM121.022 80.434V82H116L113.912 80.794V74.116L116 72.91H118.934L121.022 74.116V78.112H115.658V80.434H121.022ZM115.658 74.476V76.546H119.276V74.476H115.658ZM136.01 74.116V82H134.264V74.476H130.826V82H129.08V74.476H125.642V82H123.896V72.91H125.21L125.642 73.648L126.92 72.91H128.738L130.412 73.882L132.104 72.91H133.922L136.01 74.116ZM146.54 80.884L144.452 82.09H140.978L138.89 80.884V74.116L140.978 72.91H144.452L146.54 74.116V80.884ZM140.636 74.476V80.524H144.794V74.476H140.636ZM148.699 74.566V73H150.355V71.488L152.101 70.48V73H154.261V74.566H152.101V80.434H154.261V82H152.443L150.355 80.794V74.566H148.699ZM164.435 80.884L162.347 82.09H158.873L156.785 80.884V74.116L158.873 72.91H162.347L164.435 74.116V80.884ZM158.531 74.476V80.524H162.689V74.476H158.531Z" fill="#FFFDFD"/>
<path d="M76.8613 28.8879H103.335C104.025 28.8879 104.585 29.4476 104.585 30.1379V47.176H75.6113V30.1379C75.6113 29.4476 76.171 28.8879 76.8613 28.8879Z" fill="#4A4A4A" stroke="#B5E93B" stroke-width="1.5"/>
<path d="M71.4893 49.4932H108.58V50.989C108.58 52.6459 107.237 53.989 105.58 53.989H74.4893C72.8324 53.989 71.4893 52.6459 71.4893 50.989V49.4932Z" fill="#B5E93B"/>
<rect x="87.2246" y="50.6172" width="6.74379" height="1.12396" rx="0.561982" fill="#140754"/>
<path d="M77.4889 20.5133C70.9889 19.5133 68.489 23.0132 67.7146 29.0278" stroke="#FFFDFD" stroke-width="2" stroke-linecap="round"/>
<path d="M77.9893 15.0132C67.926 14.0474 62.2313 20.0162 61.8278 28.8931" stroke="#FFFDFD" stroke-width="2" stroke-linecap="round"/>
</svg>
