<svg width="178" height="85" viewBox="0 0 178 85" fill="none" xmlns="http://www.w3.org/2000/svg">
<path d="M33.3068 70.02V81H31.5068V70.02H27.9248V68.4H36.8888V70.02H33.3068ZM43.8839 73.566H40.6079V81H38.8619V72H40.1759L40.6079 72.738L41.8859 72H43.8839V73.566ZM47.244 77.31V79.524H50.862V77.31H47.244ZM47.586 81.09L45.498 79.884V76.95L47.586 75.744H50.862V73.566H46.398V72H50.52L52.608 73.206V81.09H52.14L50.862 80.352L49.584 81.09H47.586ZM58.5148 71.91H61.2328L63.3208 73.116V79.884L61.2328 81.09H58.5148L57.2368 80.352L55.9588 81.09H55.4908V67.86H57.2368V72.648L58.5148 71.91ZM57.2368 73.476V79.524H61.5748V73.476H57.2368ZM67.5819 77.31V79.524H71.1999V77.31H67.5819ZM67.9239 81.09L65.8359 79.884V76.95L67.9239 75.744H71.1999V73.566H66.7359V72H70.8579L72.9459 73.206V81.09H72.4779L71.1999 80.352L69.9219 81.09H67.9239ZM75.7387 69.786V67.86H77.6647V69.786H75.7387ZM77.5747 72V83.394L75.4867 84.6H73.6687V83.034H75.8287V72H77.5747ZM88.1017 79.884L86.0137 81.09H82.5397L80.4517 79.884V73.116L82.5397 71.91H86.0137L88.1017 73.116V79.884ZM82.1977 73.476V79.524H86.3557V73.476H82.1977ZM100.679 73.566H97.4028V81H95.6568V72H96.9708L97.4028 72.738L98.6808 72H100.679V73.566ZM109.763 79.434V81H104.741L102.653 79.794V73.116L104.741 71.91H107.675L109.763 73.116V77.112H104.399V79.434H109.763ZM104.399 73.476V75.546H108.017V73.476H104.399ZM124.751 73.116V81H123.005V73.476H119.567V81H117.821V73.476H114.383V81H112.637V71.91H113.951L114.383 72.648L115.661 71.91H117.479L119.153 72.882L120.845 71.91H122.663L124.751 73.116ZM135.281 79.884L133.193 81.09H129.719L127.631 79.884V73.116L129.719 71.91H133.193L135.281 73.116V79.884ZM129.377 73.476V79.524H133.535V73.476H129.377ZM137.441 73.566V72H139.097V70.488L140.843 69.48V72H143.003V73.566H140.843V79.434H143.003V81H141.185L139.097 79.794V73.566H137.441ZM153.176 79.884L151.088 81.09H147.614L145.526 79.884V73.116L147.614 71.91H151.088L153.176 73.116V79.884ZM147.272 73.476V79.524H151.43V73.476H147.272Z" fill="#FFFDFD"/>
<path d="M76.8613 28.8879H103.335C104.025 28.8879 104.585 29.4476 104.585 30.1379V47.176H75.6113V30.1379C75.6113 29.4476 76.171 28.8879 76.8613 28.8879Z" fill="#4A4A4A" stroke="#B5E93B" stroke-width="1.5"/>
<path d="M71.4893 49.4932H108.58V50.989C108.58 52.6459 107.237 53.989 105.58 53.989H74.4893C72.8324 53.989 71.4893 52.6459 71.4893 50.989V49.4932Z" fill="#B5E93B"/>
<rect x="87.2246" y="50.6172" width="6.74379" height="1.12396" rx="0.561982" fill="#140754"/>
<path d="M77.4889 20.5133C70.9889 19.5133 68.489 23.0132 67.7146 29.0278" stroke="#FFFDFD" stroke-width="2" stroke-linecap="round"/>
<path d="M77.9893 15.0132C67.926 14.0474 62.2313 20.0162 61.8278 28.8931" stroke="#FFFDFD" stroke-width="2" stroke-linecap="round"/>
</svg>
