<svg width="174" height="83" viewBox="0 0 174 83" fill="none" xmlns="http://www.w3.org/2000/svg">
<path d="M18.363 80.884L16.275 82.09H11.001L8.91297 80.884V70.516L11.001 69.31H16.275L18.363 70.516V80.884ZM10.713 70.93V80.47H16.563V70.93H10.713ZM20.7044 74.566V73H22.3604V70.066L24.4484 68.86H26.2664V70.426H24.1064V73H26.2664V74.566H24.1064V82H22.3604V74.566H20.7044ZM27.7005 74.566V73H29.3565V70.066L31.4445 68.86H33.2625V70.426H31.1025V73H33.2625V74.566H31.1025V82H29.3565V74.566H27.7005ZM42.5266 80.434V82H37.5046L35.4166 80.794V74.116L37.5046 72.91H40.4386L42.5266 74.116V78.112H37.1626V80.434H42.5266ZM37.1626 74.476V76.546H40.7806V74.476H37.1626ZM53.0509 74.116V82H51.3049V74.476H47.1469V82H45.4009V72.91H46.7149L47.1469 73.648L48.4249 72.91H50.9629L53.0509 74.116ZM59.886 74.566V73H61.542V70.066L63.63 68.86H65.448V70.426H63.288V73H65.448V74.566H63.288V82H61.542V74.566H59.886ZM67.6021 80.884V73H69.3481V80.524H73.5061V73H75.2521V82.09H73.9381L73.5061 81.352L72.2281 82.09H69.6901L67.6021 80.884ZM68.5021 71.29V69.4H70.3921V71.29H68.5021ZM72.4441 71.29V69.4H74.3341V71.29H72.4441ZM83.1534 74.566H79.8774V82H78.1314V73H79.4454L79.8774 73.738L81.1554 73H83.1534V74.566ZM91.7833 76.33V82H89.9833V69.4H97.3453V71.02H91.7833V74.71H96.2653V76.33H91.7833ZM106.441 80.434V82H101.419L99.3306 80.794V74.116L101.419 72.91H104.353L106.441 74.116V78.112H101.077V80.434H106.441ZM101.077 74.476V76.546H104.695V74.476H101.077ZM114.337 74.566H111.061V82H109.315V73H110.629L111.061 73.738L112.339 73H114.337V74.566ZM123.961 74.116V82H122.215V74.476H118.057V82H116.311V72.91H117.625L118.057 73.648L119.335 72.91H121.873L123.961 74.116ZM128.226 78.31V80.524H131.844V78.31H128.226ZM128.568 82.09L126.48 80.884V77.95L128.568 76.744H131.844V74.566H127.38V73H131.502L133.59 74.206V82.09H133.122L131.844 81.352L130.566 82.09H128.568ZM141.495 74.566H138.219V82H136.473V73H137.787L138.219 73.738L139.497 73H141.495V74.566ZM146.493 72.91H149.211L151.299 74.116V80.884L149.211 82.09H146.493L145.215 81.352L143.937 82.09H143.469V68.86H145.215V73.648L146.493 72.91ZM145.215 74.476V80.524H149.553V74.476H145.215ZM161.284 80.434V82H156.262L154.174 80.794V74.116L156.262 72.91H159.196L161.284 74.116V78.112H155.92V80.434H161.284ZM155.92 74.476V76.546H159.538V74.476H155.92ZM165.905 73V82H164.159V73H165.905ZM164.069 70.786V68.86H165.995V70.786H164.069ZM168.062 74.566V73H169.718V71.488L171.464 70.48V73H173.624V74.566H171.464V80.434H173.624V82H171.806L169.718 80.794V74.566H168.062Z" fill="#FFFDFD"/>
<path d="M76.8613 28.8879H103.335C104.025 28.8879 104.585 29.4476 104.585 30.1379V47.176H75.6113V30.1379C75.6113 29.4476 76.171 28.8879 76.8613 28.8879Z" fill="#4A4A4A" stroke="#B5E93B" stroke-width="1.5"/>
<path d="M71.4893 49.4932H108.58V50.989C108.58 52.6459 107.237 53.989 105.58 53.989H74.4893C72.8324 53.989 71.4893 52.6459 71.4893 50.989V49.4932Z" fill="#B5E93B"/>
<rect x="87.2246" y="50.6172" width="6.74379" height="1.12396" rx="0.561982" fill="#140754"/>
<path d="M77.4889 20.5133C70.9889 19.5133 68.489 23.0132 67.7146 29.0278" stroke="#FFFDFD" stroke-width="2" stroke-linecap="round"/>
<path d="M77.9893 15.0132C67.926 14.0474 62.2313 20.0162 61.8278 28.8931" stroke="#FFFDFD" stroke-width="2" stroke-linecap="round"/>
</svg>
