<svg width="145" height="36" viewBox="0 0 145 36" fill="none" xmlns="http://www.w3.org/2000/svg">
<path d="M-7.80821e-05 35.04V1.44004H6.71992V35.04H-7.80821e-05ZM20.9553 16.656V29.424H32.8593V35.04H19.9473L14.3793 31.824V14.256L19.9473 11.04H32.8593V16.656H20.9553ZM45.6584 35.04H39.0824V3.8147e-05H45.6584V12.768L49.0664 10.8H55.3544L60.9224 14.016V35.04H54.3464V16.416H45.6584V35.04ZM90.5977 10.8H96.8857L102.454 14.016V32.064L96.8857 35.28H90.5977L87.1897 33.312L83.7817 35.28H80.6137V3.8147e-05H87.1897V12.768L90.5977 10.8ZM87.1897 16.416V29.664H95.8777V16.416H87.1897ZM116.252 11.04V35.04H109.676V11.04H116.252ZM109.436 6.57604V3.8147e-05H116.492V6.57604H109.436ZM144.817 14.016V35.04H138.241V16.416H130.033V35.04H123.457V10.8H128.881L130.033 12.768L133.441 10.8H139.249L144.817 14.016Z" fill="#B5E93B"/>
</svg>
