<svg width="187" height="45" viewBox="0 0 187 45" fill="none" xmlns="http://www.w3.org/2000/svg">
<rect width="187" height="45" rx="22.5" fill="#B5E93B"/>
<path d="M31.44 28V16.8H33.04V22.72H33.072L38.016 16.8H39.936L35.536 22.032L40.448 28H38.496L34.56 23.184L33.04 24.992V28H31.44ZM48.6894 27.008L46.8334 28.08H43.7454L41.8894 27.008V20.992L43.7454 19.92H46.8334L48.6894 20.992V27.008ZM43.4414 21.312V26.688H47.1374V21.312H43.4414ZM58.0487 20.992V28H56.4968V21.312H52.8008V28H51.2488V19.92H52.4168L52.8008 20.576L53.9368 19.92H56.1928L58.0487 20.992ZM59.9681 21.392V20H61.4401V18.656L62.9921 17.76V20H64.9121V21.392H62.9921V26.608H64.9121V28H63.2961L61.4401 26.928V21.392H59.9681ZM68.387 24.72V26.688H71.603V24.72H68.387ZM68.691 28.08L66.835 27.008V24.4L68.691 23.328H71.603V21.392H67.635V20H71.299L73.155 21.072V28.08H72.739L71.603 27.424L70.467 28.08H68.691ZM77.2695 16.32V23.984H77.3015L80.5975 20H82.4535L79.3655 23.616L82.9335 28H81.0295L78.4375 24.72L77.2695 26.096V28H75.7175V16.32H77.2695ZM83.5775 21.392V20H85.0495V18.656L86.6015 17.76V20H88.5215V21.392H86.6015V26.608H88.5215V28H86.9055L85.0495 26.928V21.392H83.5775ZM92.3164 20V28H90.7644V20H92.3164ZM90.6844 18.032V16.32H92.3964V18.032H90.6844ZM101.194 26.608V28H96.7298L94.8738 26.928V20.992L96.7298 19.92H99.3378L101.194 20.992V24.544H96.4258V26.608H101.194ZM96.4258 21.312V23.152H99.6418V21.312H96.4258ZM108.213 21.392H105.301V28H103.749V20H104.917L105.301 20.656L106.437 20H108.213V21.392ZM116.288 26.608V28H111.824L109.968 26.928V20.992L111.824 19.92H114.432L116.288 20.992V24.544H111.52V26.608H116.288ZM111.52 21.312V23.152H114.736V21.312H111.52ZM133.767 20.992V28H132.215V21.312H129.159V28H127.607V21.312H124.551V28H122.999V19.92H124.167L124.551 20.576L125.687 19.92H127.303L128.791 20.784L130.295 19.92H131.911L133.767 20.992ZM137.879 20V28H136.327V20H137.879ZM136.247 18.032V16.32H137.959V18.032H136.247ZM141.988 21.392V26.608H146.436V28H142.292L140.436 26.928V21.072L142.292 20H146.436V21.392H141.988ZM150.223 28H148.671V16.32H150.223V20.576L151.359 19.92H153.775L155.631 20.992V28H154.079V21.312H150.223V28Z" fill="#252525"/>
</svg>
