<svg width="46" height="199" viewBox="0 0 46 199" fill="none" xmlns="http://www.w3.org/2000/svg">
<mask id="path-1-outside-1_3113_1859" maskUnits="userSpaceOnUse" x="-0.580078" y="-0.48999" width="47" height="200" fill="black">
<rect fill="white" x="-0.580078" y="-0.48999" width="47" height="200"/>
<path d="M42.4199 195.65H4.61992V190.25H24.5999V190.142L4.61992 173.456V166.976L22.2779 181.826L42.4199 165.248V171.836L26.1659 185.12L32.2679 190.25H42.4199V195.65ZM39.0719 137.433L42.6899 143.697L42.6899 154.119L39.0719 160.383H18.7679L15.1499 154.119V143.697L18.7679 137.433H39.0719ZM19.8479 155.145H37.9919L37.9919 142.671H19.8479V155.145ZM18.7679 105.845H42.4199V111.083H19.8479L19.8479 123.557H42.4199V128.795H15.1499V124.853L17.3639 123.557L15.1499 119.723L15.1499 112.109L18.7679 105.845ZM20.1179 99.3676H15.4199V94.3996H10.8839L7.85992 89.1616H15.4199V82.6816H20.1179V89.1616H37.7219V82.6816H42.4199V88.1356L38.8019 94.3996H20.1179V99.3676ZM31.3499 70.9539H37.9919V60.0999H31.3499V70.9539ZM42.6899 69.9279L39.0719 76.1919H30.2699L26.6519 69.9279V60.0999H20.1179V73.4919H15.4199V61.1259L19.0379 54.8619H42.6899V56.2659L40.4759 60.0999L42.6899 63.9339V69.9279ZM2.99992 40.9754H28.8659V40.8674L15.4199 29.7434V23.4794L27.6239 33.9014L42.4199 21.8594V28.2854L31.3499 37.0334L35.9939 40.9754H42.4199V46.2134H2.99992L2.99992 40.9754ZM20.1179 19.6859H15.4199V14.7179H10.8839L7.85992 9.47995H15.4199L15.4199 2.99995H20.1179L20.1179 9.47995H37.7219V2.99995H42.4199V8.45395L38.8019 14.7179H20.1179V19.6859Z"/>
</mask>
<path d="M42.4199 195.65V198.65H45.4199V195.65H42.4199ZM4.61992 195.65H1.61992V198.65H4.61992V195.65ZM4.61992 190.25V187.25H1.61992V190.25H4.61992ZM24.5999 190.25V193.25H27.5999V190.25H24.5999ZM24.5999 190.142H27.5999V188.739L26.5229 187.839L24.5999 190.142ZM4.61992 173.456H1.61992V174.859L2.69692 175.759L4.61992 173.456ZM4.61992 166.976L6.55081 164.68L1.61992 160.533V166.976H4.61992ZM22.2779 181.826L20.347 184.122L22.2573 185.728L24.1844 184.142L22.2779 181.826ZM42.4199 165.248H45.4199V158.893L40.5135 162.932L42.4199 165.248ZM42.4199 171.836L44.3184 174.159L45.4199 173.259V171.836H42.4199ZM26.1659 185.12L24.2675 182.797L21.4652 185.087L24.2354 187.416L26.1659 185.12ZM32.2679 190.25L30.3374 192.546L31.1744 193.25H32.2679V190.25ZM42.4199 190.25H45.4199V187.25H42.4199V190.25ZM42.4199 195.65V192.65H4.61992V195.65V198.65H42.4199V195.65ZM4.61992 195.65H7.61992V190.25H4.61992H1.61992V195.65H4.61992ZM4.61992 190.25V193.25H24.5999V190.25V187.25H4.61992V190.25ZM24.5999 190.25H27.5999V190.142H24.5999H21.5999V190.25H24.5999ZM24.5999 190.142L26.5229 187.839L6.54292 171.153L4.61992 173.456L2.69692 175.759L22.6769 192.445L24.5999 190.142ZM4.61992 173.456H7.61992L7.61992 166.976H4.61992H1.61992V173.456H4.61992ZM4.61992 166.976L2.68903 169.272L20.347 184.122L22.2779 181.826L24.2088 179.53L6.55081 164.68L4.61992 166.976ZM22.2779 181.826L24.1844 184.142L44.3264 167.564L42.4199 165.248L40.5135 162.932L20.3715 179.51L22.2779 181.826ZM42.4199 165.248H39.4199V171.836H42.4199H45.4199V165.248H42.4199ZM42.4199 171.836L40.5215 169.513L24.2675 182.797L26.1659 185.12L28.0644 187.443L44.3184 174.159L42.4199 171.836ZM26.1659 185.12L24.2354 187.416L30.3374 192.546L32.2679 190.25L34.1985 187.954L28.0965 182.824L26.1659 185.12ZM32.2679 190.25V193.25H42.4199V190.25V187.25H32.2679V190.25ZM42.4199 190.25H39.4199V195.65H42.4199H45.4199V190.25H42.4199ZM39.0719 137.433L41.6697 135.933L40.8036 134.433H39.0719V137.433ZM42.6899 143.697H45.6899V142.893L45.2877 142.197L42.6899 143.697ZM42.6899 154.119L45.2877 155.62L45.6899 154.924V154.119H42.6899ZM39.0719 160.383V163.383H40.8036L41.6697 161.884L39.0719 160.383ZM18.7679 160.383L16.1701 161.884L17.0362 163.383H18.7679V160.383ZM15.1499 154.119H12.1499V154.924L12.5521 155.62L15.1499 154.119ZM15.1499 143.697L12.5521 142.197L12.1499 142.893V143.697H15.1499ZM18.7679 137.433V134.433H17.0362L16.1701 135.933L18.7679 137.433ZM19.8479 155.145H16.8479V158.145H19.8479V155.145ZM37.9919 155.145V158.145H40.9919V155.145H37.9919ZM37.9919 142.671H40.9919V139.671H37.9919V142.671ZM19.8479 142.671V139.671H16.8479V142.671H19.8479ZM39.0719 137.433L36.4741 138.934L40.0921 145.198L42.6899 143.697L45.2877 142.197L41.6697 135.933L39.0719 137.433ZM42.6899 143.697H39.6899L39.6899 154.119H42.6899H45.6899L45.6899 143.697H42.6899ZM42.6899 154.119L40.0921 152.619L36.4741 158.883L39.0719 160.383L41.6697 161.884L45.2877 155.62L42.6899 154.119ZM39.0719 160.383V157.383H18.7679V160.383V163.383H39.0719V160.383ZM18.7679 160.383L21.3657 158.883L17.7477 152.619L15.1499 154.119L12.5521 155.62L16.1701 161.884L18.7679 160.383ZM15.1499 154.119H18.1499V143.697H15.1499H12.1499V154.119H15.1499ZM15.1499 143.697L17.7477 145.198L21.3657 138.934L18.7679 137.433L16.1701 135.933L12.5521 142.197L15.1499 143.697ZM18.7679 137.433V140.433H39.0719V137.433V134.433H18.7679V137.433ZM19.8479 155.145V158.145H37.9919V155.145V152.145H19.8479V155.145ZM37.9919 155.145H40.9919L40.9919 142.671H37.9919H34.9919L34.9919 155.145H37.9919ZM37.9919 142.671V139.671H19.8479V142.671V145.671H37.9919L37.9919 142.671ZM19.8479 142.671H16.8479V155.145H19.8479H22.8479V142.671H19.8479ZM18.7679 105.845V102.845H17.0362L16.1701 104.345L18.7679 105.845ZM42.4199 105.845H45.4199V102.845H42.4199V105.845ZM42.4199 111.083V114.083H45.4199V111.083H42.4199ZM19.8479 111.083V108.083H16.8479V111.083H19.8479ZM19.8479 123.557H16.8479V126.557H19.8479V123.557ZM42.4199 123.557H45.4199V120.557H42.4199V123.557ZM42.4199 128.795V131.795H45.4199V128.795H42.4199ZM15.1499 128.795H12.1499V131.795H15.1499V128.795ZM15.1499 124.853L13.6344 122.264L12.1499 123.133V124.853H15.1499ZM17.3639 123.557L18.8795 126.147L21.4533 124.64L19.9619 122.057L17.3639 123.557ZM15.1499 119.723H12.1499V120.527L12.552 121.224L15.1499 119.723ZM15.1499 112.109L12.5521 110.609L12.1499 111.305V112.109H15.1499ZM18.7679 105.845V108.845H42.4199V105.845V102.845H18.7679V105.845ZM42.4199 105.845H39.4199V111.083H42.4199H45.4199V105.845H42.4199ZM42.4199 111.083V108.083H19.8479V111.083V114.083H42.4199V111.083ZM19.8479 111.083H16.8479L16.8479 123.557H19.8479H22.8479L22.8479 111.083H19.8479ZM19.8479 123.557V126.557H42.4199V123.557V120.557H19.8479V123.557ZM42.4199 123.557H39.4199V128.795H42.4199H45.4199V123.557H42.4199ZM42.4199 128.795V125.795H15.1499V128.795V131.795H42.4199V128.795ZM15.1499 128.795H18.1499V124.853H15.1499H12.1499V128.795H15.1499ZM15.1499 124.853L16.6655 127.443L18.8795 126.147L17.3639 123.557L15.8484 120.968L13.6344 122.264L15.1499 124.853ZM17.3639 123.557L19.9619 122.057L17.7479 118.223L15.1499 119.723L12.552 121.224L14.766 125.058L17.3639 123.557ZM15.1499 119.723H18.1499L18.1499 112.109H15.1499H12.1499L12.1499 119.723H15.1499ZM15.1499 112.109L17.7477 113.61L21.3657 107.346L18.7679 105.845L16.1701 104.345L12.5521 110.609L15.1499 112.109ZM20.1179 99.3676V102.368H23.1179V99.3676H20.1179ZM15.4199 99.3676H12.4199V102.368H15.4199V99.3676ZM15.4199 94.3996H18.4199V91.3996H15.4199V94.3996ZM10.8839 94.3996L8.28581 95.8995L9.15182 97.3996H10.8839V94.3996ZM7.85992 89.1616V86.1616H2.66391L5.26181 90.6615L7.85992 89.1616ZM15.4199 89.1616V92.1616H18.4199V89.1616H15.4199ZM15.4199 82.6816V79.6816H12.4199V82.6816H15.4199ZM20.1179 82.6816H23.1179V79.6816H20.1179V82.6816ZM20.1179 89.1616H17.1179V92.1616H20.1179V89.1616ZM37.7219 89.1616V92.1616H40.7219V89.1616H37.7219ZM37.7219 82.6816V79.6816H34.7219V82.6816H37.7219ZM42.4199 82.6816H45.4199V79.6816H42.4199V82.6816ZM42.4199 88.1356L45.0177 89.636L45.4199 88.9397V88.1356H42.4199ZM38.8019 94.3996V97.3996H40.5336L41.3997 95.9L38.8019 94.3996ZM20.1179 94.3996V91.3996H17.1179V94.3996H20.1179ZM20.1179 99.3676V96.3676H15.4199V99.3676V102.368H20.1179V99.3676ZM15.4199 99.3676H18.4199V94.3996H15.4199H12.4199V99.3676H15.4199ZM15.4199 94.3996V91.3996H10.8839V94.3996V97.3996H15.4199V94.3996ZM10.8839 94.3996L13.482 92.8997L10.458 87.6616L7.85992 89.1616L5.26181 90.6615L8.28581 95.8995L10.8839 94.3996ZM7.85992 89.1616V92.1616H15.4199V89.1616V86.1616H7.85992V89.1616ZM15.4199 89.1616H18.4199V82.6816H15.4199H12.4199V89.1616H15.4199ZM15.4199 82.6816V85.6816H20.1179V82.6816V79.6816H15.4199V82.6816ZM20.1179 82.6816H17.1179V89.1616H20.1179H23.1179V82.6816H20.1179ZM20.1179 89.1616V92.1616H37.7219V89.1616V86.1616H20.1179V89.1616ZM37.7219 89.1616H40.7219V82.6816H37.7219H34.7219V89.1616H37.7219ZM37.7219 82.6816V85.6816H42.4199V82.6816V79.6816H37.7219V82.6816ZM42.4199 82.6816H39.4199V88.1356H42.4199H45.4199V82.6816H42.4199ZM42.4199 88.1356L39.8221 86.6351L36.2041 92.8991L38.8019 94.3996L41.3997 95.9L45.0177 89.636L42.4199 88.1356ZM38.8019 94.3996V91.3996H20.1179V94.3996V97.3996H38.8019V94.3996ZM20.1179 94.3996H17.1179V99.3676H20.1179H23.1179V94.3996H20.1179ZM31.3499 70.9539H28.3499V73.9539H31.3499V70.9539ZM37.9919 70.9539V73.9539H40.9919V70.9539H37.9919ZM37.9919 60.0999H40.9919V57.0999H37.9919V60.0999ZM31.3499 60.0999V57.0999H28.3499V60.0999H31.3499ZM42.6899 69.9279L45.2877 71.4283L45.6899 70.732V69.9279H42.6899ZM39.0719 76.1919V79.1919H40.8036L41.6697 77.6923L39.0719 76.1919ZM30.2699 76.1919L27.6721 77.6923L28.5382 79.1919H30.2699V76.1919ZM26.6519 69.9279H23.6519V70.732L24.0541 71.4283L26.6519 69.9279ZM26.6519 60.0999H29.6519V57.0999H26.6519V60.0999ZM20.1179 60.0999L20.1179 57.0999H17.1179L17.1179 60.0999H20.1179ZM20.1179 73.4919V76.4919H23.1179V73.4919H20.1179ZM15.4199 73.4919H12.4199V76.4919H15.4199V73.4919ZM15.4199 61.1259L12.8221 59.6254L12.4199 60.3217V61.1259H15.4199ZM19.0379 54.8619V51.8619H17.3062L16.4401 53.3614L19.0379 54.8619ZM42.6899 54.8619H45.6899V51.8619H42.6899V54.8619ZM42.6899 56.2659L45.2879 57.7661L45.6899 57.0699V56.2659H42.6899ZM40.4759 60.0999L37.878 58.5997L37.0117 60.0999L37.878 61.6001L40.4759 60.0999ZM42.6899 63.9339H45.6899V63.1299L45.2879 62.4337L42.6899 63.9339ZM31.3499 70.9539V73.9539H37.9919V70.9539V67.9539H31.3499V70.9539ZM37.9919 70.9539H40.9919V60.0999H37.9919H34.9919V70.9539H37.9919ZM37.9919 60.0999V57.0999H31.3499V60.0999V63.0999H37.9919V60.0999ZM31.3499 60.0999H28.3499V70.9539H31.3499H34.3499V60.0999H31.3499ZM42.6899 69.9279L40.0921 68.4274L36.4741 74.6914L39.0719 76.1919L41.6697 77.6923L45.2877 71.4283L42.6899 69.9279ZM39.0719 76.1919V73.1919H30.2699V76.1919V79.1919H39.0719V76.1919ZM30.2699 76.1919L32.8677 74.6914L29.2497 68.4274L26.6519 69.9279L24.0541 71.4283L27.6721 77.6923L30.2699 76.1919ZM26.6519 69.9279H29.6519V60.0999H26.6519H23.6519V69.9279H26.6519ZM26.6519 60.0999V57.0999H20.1179L20.1179 60.0999V63.0999H26.6519V60.0999ZM20.1179 60.0999H17.1179V73.4919H20.1179H23.1179V60.0999H20.1179ZM20.1179 73.4919V70.4919H15.4199V73.4919V76.4919H20.1179V73.4919ZM15.4199 73.4919H18.4199V61.1259H15.4199H12.4199V73.4919H15.4199ZM15.4199 61.1259L18.0177 62.6263L21.6357 56.3623L19.0379 54.8619L16.4401 53.3614L12.8221 59.6254L15.4199 61.1259ZM19.0379 54.8619V57.8619H42.6899V54.8619V51.8619H19.0379V54.8619ZM42.6899 54.8619H39.6899V56.2659H42.6899H45.6899V54.8619H42.6899ZM42.6899 56.2659L40.092 54.7657L37.878 58.5997L40.4759 60.0999L43.0739 61.6001L45.2879 57.7661L42.6899 56.2659ZM40.4759 60.0999L37.878 61.6001L40.092 65.4341L42.6899 63.9339L45.2879 62.4337L43.0739 58.5997L40.4759 60.0999ZM42.6899 63.9339H39.6899V69.9279H42.6899H45.6899V63.9339H42.6899ZM2.99992 40.9754V37.9754H-8.01086e-05V40.9754H2.99992ZM28.8659 40.9754V43.9754H31.8659V40.9754H28.8659ZM28.8659 40.8674H31.8659V39.4558L30.7782 38.556L28.8659 40.8674ZM15.4199 29.7434H12.4199V31.1551L13.5076 32.0549L15.4199 29.7434ZM15.4199 23.4794L17.3681 21.1981L12.4199 16.9724V23.4794H15.4199ZM27.6239 33.9014L25.6757 36.1828L27.5777 37.8071L29.5176 36.2282L27.6239 33.9014ZM42.4199 21.8595H45.4199V15.5498L40.5262 19.5327L42.4199 21.8595ZM42.4199 28.2854L44.28 30.6392L45.4199 29.7384V28.2854H42.4199ZM31.3499 37.0334L29.4899 34.6797L26.6163 36.9505L29.4085 39.3206L31.3499 37.0334ZM35.9939 40.9754L34.0525 43.2626L34.8923 43.9754H35.9939V40.9754ZM42.4199 40.9754H45.4199V37.9754H42.4199V40.9754ZM42.4199 46.2134V49.2134H45.4199V46.2134H42.4199ZM2.99992 46.2134H-8.01086e-05V49.2134H2.99992V46.2134ZM2.99992 40.9754V43.9754H28.8659V40.9754V37.9754H2.99992V40.9754ZM28.8659 40.9754H31.8659V40.8674H28.8659H25.8659V40.9754H28.8659ZM28.8659 40.8674L30.7782 38.556L17.3322 27.4319L15.4199 29.7434L13.5076 32.0549L26.9536 43.1789L28.8659 40.8674ZM15.4199 29.7434H18.4199V23.4794H15.4199H12.4199V29.7434H15.4199ZM15.4199 23.4794L13.4717 25.7608L25.6757 36.1828L27.6239 33.9014L29.5721 31.6201L17.3681 21.1981L15.4199 23.4794ZM27.6239 33.9014L29.5176 36.2282L44.3136 24.1862L42.4199 21.8595L40.5262 19.5327L25.7302 31.5747L27.6239 33.9014ZM42.4199 21.8595H39.4199V28.2854H42.4199H45.4199V21.8595H42.4199ZM42.4199 28.2854L40.5599 25.9317L29.4899 34.6797L31.3499 37.0334L33.21 39.3872L44.28 30.6392L42.4199 28.2854ZM31.3499 37.0334L29.4085 39.3206L34.0525 43.2626L35.9939 40.9754L37.9353 38.6883L33.2913 34.7463L31.3499 37.0334ZM35.9939 40.9754V43.9754H42.4199V40.9754V37.9754H35.9939V40.9754ZM42.4199 40.9754H39.4199V46.2134H42.4199H45.4199V40.9754H42.4199ZM42.4199 46.2134V43.2134H2.99992L2.99992 46.2134V49.2134H42.4199V46.2134ZM2.99992 46.2134H5.99992L5.99992 40.9754H2.99992H-8.01086e-05L-8.01086e-05 46.2134H2.99992ZM20.1179 19.6859V22.6859H23.1179V19.6859H20.1179ZM15.4199 19.6859H12.4199V22.6859H15.4199V19.6859ZM15.4199 14.7179H18.4199V11.7179H15.4199V14.7179ZM10.8839 14.7179L8.28581 16.2179L9.15182 17.7179H10.8839V14.7179ZM7.85992 9.47995V6.47995H2.66391L5.26181 10.9799L7.85992 9.47995ZM15.4199 9.47995V12.4799H18.4199V9.47995H15.4199ZM15.4199 2.99994V-6.10352e-05H12.4199V2.99994H15.4199ZM20.1179 2.99994H23.1179V-6.10352e-05H20.1179V2.99994ZM20.1179 9.47995H17.1179V12.4799H20.1179V9.47995ZM37.7219 9.47995V12.4799H40.7219V9.47995H37.7219ZM37.7219 2.99994V-6.10352e-05H34.7219V2.99994H37.7219ZM42.4199 2.99994H45.4199V-6.10352e-05H42.4199V2.99994ZM42.4199 8.45395L45.0177 9.95441L45.4199 9.25807V8.45395H42.4199ZM38.8019 14.7179V17.7179H40.5336L41.3997 16.2184L38.8019 14.7179ZM20.1179 14.7179V11.7179H17.1179V14.7179H20.1179ZM20.1179 19.6859V16.6859H15.4199V19.6859V22.6859H20.1179V19.6859ZM15.4199 19.6859H18.4199V14.7179H15.4199H12.4199V19.6859H15.4199ZM15.4199 14.7179V11.7179H10.8839V14.7179V17.7179H15.4199V14.7179ZM10.8839 14.7179L13.482 13.218L10.458 7.98001L7.85992 9.47995L5.26181 10.9799L8.28581 16.2179L10.8839 14.7179ZM7.85992 9.47995V12.4799H15.4199V9.47995V6.47995H7.85992V9.47995ZM15.4199 9.47995H18.4199L18.4199 2.99994H15.4199H12.4199L12.4199 9.47995H15.4199ZM15.4199 2.99994L15.4199 5.99994H20.1179L20.1179 2.99994V-6.10352e-05H15.4199V2.99994ZM20.1179 2.99994H17.1179L17.1179 9.47995H20.1179H23.1179L23.1179 2.99994H20.1179ZM20.1179 9.47995V12.4799H37.7219V9.47995V6.47995H20.1179V9.47995ZM37.7219 9.47995H40.7219V2.99994H37.7219H34.7219V9.47995H37.7219ZM37.7219 2.99994V5.99994H42.4199V2.99994V-6.10352e-05H37.7219V2.99994ZM42.4199 2.99994H39.4199V8.45395H42.4199H45.4199V2.99994H42.4199ZM42.4199 8.45395L39.8221 6.95349L36.2041 13.2175L38.8019 14.7179L41.3997 16.2184L45.0177 9.95441L42.4199 8.45395ZM38.8019 14.7179V11.7179H20.1179V14.7179V17.7179H38.8019V14.7179ZM20.1179 14.7179H17.1179V19.6859H20.1179H23.1179V14.7179H20.1179Z" fill="#B5E93B" mask="url(#path-1-outside-1_3113_1859)"/>
</svg>
