<svg width="181" height="122" viewBox="0 0 181 122" fill="none" xmlns="http://www.w3.org/2000/svg">
<path d="M73 39.6266C73 47.6113 82.1099 57.3381 89.3097 63C95.6278 57.7736 104.811 49.4259 105.472 39.6266C105.972 32.2258 99.6685 22.7859 89.3097 23.0037C76.8937 23.2647 73 33.0209 73 39.6266Z" fill="#B5E93B"/>
<path d="M93.0312 37.7778C92.9651 39.9256 91.2524 41.6169 89.2057 41.5555C87.1591 41.4941 85.5535 39.7032 85.6196 37.5555C85.6857 35.4078 87.3984 33.7164 89.445 33.7778C91.4917 33.8392 93.0972 35.6301 93.0312 37.7778Z" fill="#4A4A4A"/>
<path d="M35.5044 83V92H33.7584V83H35.5044ZM33.6684 80.786V78.86H35.5944V80.786H33.6684ZM46.0314 84.116V92H44.2854V84.476H40.1274V92H38.3814V82.91H39.6954L40.1274 83.648L41.4054 82.91H43.9434L46.0314 84.116ZM55.5665 86.33V90.38H60.9485V92H53.7665V79.4H60.9485V81.02H55.5665V84.71H59.8685V86.33H55.5665ZM63.2896 90.884V83H65.0356V90.524H69.1936V83H70.9396V92.09H69.6256L69.1936 91.352L67.9156 92.09H65.3776L63.2896 90.884ZM78.8409 84.566H75.5649V92H73.8189V83H75.1329L75.5649 83.738L76.8429 83H78.8409V84.566ZM88.465 90.884L86.377 92.09H82.903L80.815 90.884V84.116L82.903 82.91H86.377L88.465 84.116V90.884ZM82.561 84.476V90.524H86.719V84.476H82.561ZM97.0863 92.09H94.3683L93.0903 91.352V95.6H91.3443V82.91H92.6583L93.0903 83.648L94.3683 82.91H97.0863L99.1743 84.116V90.884L97.0863 92.09ZM93.0903 84.476V90.524H97.4283V84.476H93.0903ZM103.435 88.31V90.524H107.053V88.31H103.435ZM103.777 92.09L101.689 90.884V87.95L103.777 86.744H107.053V84.566H102.589V83H106.711L108.799 84.206V92.09H108.331L107.053 91.352L105.775 92.09H103.777ZM116.358 90.884V83H118.104V90.524H122.262V83H124.008V92.09H122.694L122.262 91.352L120.984 92.09H118.446L116.358 90.884ZM134.537 84.116V92H132.791V84.476H128.633V92H126.887V82.91H128.201L128.633 83.648L129.911 82.91H132.449L134.537 84.116ZM139.505 82.91H142.223L143.501 83.648V78.86H145.247V92.09H143.933L143.501 91.352L142.223 92.09H139.505L137.417 90.884V84.116L139.505 82.91ZM143.501 90.524V84.476H139.163V90.524H143.501ZM33.1825 114V101.4H34.9825V112.38H39.6445V114H33.1825ZM43.0018 110.31V112.524H46.6198V110.31H43.0018ZM43.3438 114.09L41.2558 112.884V109.95L43.3438 108.744H46.6198V106.566H42.1558V105H46.2778L48.3658 106.206V114.09H47.8978L46.6198 113.352L45.3418 114.09H43.3438ZM50.5286 106.566V105H52.1846V103.488L53.9306 102.48V105H56.0906V106.566H53.9306V112.434H56.0906V114H54.2726L52.1846 112.794V106.566H50.5286ZM65.7238 112.434V114H60.7018L58.6138 112.794V106.116L60.7018 104.91H63.6358L65.7238 106.116V110.112H60.3598V112.434H65.7238ZM60.3598 106.476V108.546H63.9778V106.476H60.3598ZM70.3442 105V114H68.5982V105H70.3442ZM68.5082 102.786V100.86H70.4342V102.786H68.5082ZM80.8712 106.116V114H79.1253V106.476H74.9673V114H73.2213V104.91H74.5353L74.9673 105.648L76.2453 104.91H78.7833L80.8712 106.116ZM85.1365 110.31V112.524H88.7545V110.31H85.1365ZM85.4785 114.09L83.3905 112.884V109.95L85.4785 108.744H88.7545V106.566H84.2905V105H88.4125L90.5005 106.206V114.09H90.0325L88.7545 113.352L87.4765 114.09H85.4785ZM105.497 106.116V114H103.751V106.476H100.313V114H98.5674V106.476H95.1294V114H93.3834V104.91H94.6974L95.1294 105.648L96.4074 104.91H98.2254L99.8994 105.882L101.591 104.91H103.409L105.497 106.116ZM115.488 112.434V114H110.466L108.378 112.794V106.116L110.466 104.91H113.4L115.488 106.116V110.112H110.124V112.434H115.488ZM110.124 106.476V108.546H113.742V106.476H110.124ZM123.384 106.566H120.108V114H118.362V105H119.676L120.108 105.738L121.386 105H123.384V106.566ZM127.104 105V114H125.358V105H127.104ZM125.268 102.786V100.86H127.194V102.786H125.268ZM131.727 106.566V112.434H136.731V114H132.069L129.981 112.794V106.206L132.069 105H136.731V106.566H131.727ZM140.631 110.31V112.524H144.249V110.31H140.631ZM140.973 114.09L138.885 112.884V109.95L140.973 108.744H144.249V106.566H139.785V105H143.907L145.995 106.206V114.09H145.527L144.249 113.352L142.971 114.09H140.973Z" fill="#FFFDFD"/>
</svg>
