<svg width="46" height="320" viewBox="0 0 46 320" fill="none" xmlns="http://www.w3.org/2000/svg">
<mask id="path-1-outside-1_3113_1878" maskUnits="userSpaceOnUse" x="-0.580078" y="-0.200928" width="47" height="321" fill="black">
<rect fill="white" x="-0.580078" y="-0.200928" width="47" height="321"/>
<path d="M42.4199 283.999H11.6399V284.107L42.4199 295.231V300.631L11.6399 311.701V311.809H42.4199V316.939H4.61992V309.325L36.1559 297.985V297.877L4.61992 286.483L4.61992 278.869H42.4199V283.999ZM37.7219 248.372H42.4199V263.438L38.8019 269.702H18.7679L15.1499 263.438V254.636L18.7679 248.372H30.7559V264.464H37.7219V248.372ZM19.8479 264.464H26.0579V253.61H19.8479V264.464ZM15.4199 234.511H42.4199V239.749H15.4199L15.4199 234.511ZM8.77792 240.019H2.99992V234.241H8.77792L8.77792 240.019ZM18.7679 202.929H42.4199V208.167H19.8479V220.641H42.4199V225.879H15.1499V221.937L17.3639 220.641L15.1499 216.807V209.193L18.7679 202.929ZM37.7219 172.962H42.4199V188.028L38.8019 194.292H18.7679L15.1499 188.028L15.1499 179.226L18.7679 172.962H30.7559V189.054H37.7219V172.962ZM19.8479 189.054H26.0579V178.2H19.8479L19.8479 189.054ZM4.61992 133.355L42.4199 119.855V125.147L33.4559 128.333V145.073L42.4199 148.259L42.4199 153.551L4.61992 140.051L4.61992 133.355ZM9.96592 136.757L28.5959 143.345V130.061L9.96592 136.649V136.757ZM20.1179 99.3857V109.214H42.4199V114.452H15.4199V110.51L17.6339 109.214L15.4199 105.38V99.3857H20.1179ZM15.1499 84.3914V76.2374L18.7679 69.9734H39.0719L42.6899 76.2374V84.3914L40.4759 88.2254L42.6899 92.0594V93.4634H2.99992V88.2254H17.3639L15.1499 84.3914ZM19.8479 88.2254H37.9919V75.2114H19.8479V88.2254ZM37.7219 40.0182H42.4199V55.0842L38.8019 61.3482H18.7679L15.1499 55.0842V46.2822L18.7679 40.0182H30.7559V56.1102H37.7219V40.0182ZM19.8479 56.1102H26.0579V45.2562H19.8479V56.1102ZM15.4199 26.1571H42.4199V31.3951H15.4199V26.1571ZM8.77792 31.6651H2.99992V25.8871H8.77792V31.6651ZM20.1179 19.6859H15.4199V14.7179H10.8839L7.85992 9.47995H15.4199V2.99995H20.1179V9.47995H37.7219V2.99995H42.4199V8.45395L38.8019 14.7179H20.1179V19.6859Z"/>
</mask>
<path d="M42.4199 283.999V286.999H45.4199V283.999H42.4199ZM11.6399 283.999V280.999H8.63992V283.999H11.6399ZM11.6399 284.107H8.63992V286.213L10.6203 286.928L11.6399 284.107ZM42.4199 295.231H45.4199V293.125L43.4396 292.41L42.4199 295.231ZM42.4199 300.631L43.4352 303.454L45.4199 302.74V300.631H42.4199ZM11.6399 311.701L10.6246 308.878L8.63992 309.592V311.701H11.6399ZM11.6399 311.809H8.63992V314.809H11.6399V311.809ZM42.4199 311.809H45.4199V308.809H42.4199V311.809ZM42.4199 316.939V319.939H45.4199V316.939H42.4199ZM4.61992 316.939H1.61992V319.939H4.61992V316.939ZM4.61992 309.325L3.60479 306.502L1.61992 307.216L1.61992 309.325H4.61992ZM36.1559 297.985L37.1711 300.808L39.1559 300.094V297.985H36.1559ZM36.1559 297.877H39.1559V295.771L37.1753 295.056L36.1559 297.877ZM4.61992 286.483H1.61992V288.589L3.60051 289.305L4.61992 286.483ZM4.61992 278.869V275.869H1.61992V278.869H4.61992ZM42.4199 278.869H45.4199V275.869H42.4199V278.869ZM42.4199 283.999V280.999H11.6399V283.999V286.999H42.4199V283.999ZM11.6399 283.999H8.63992V284.107H11.6399H14.6399V283.999H11.6399ZM11.6399 284.107L10.6203 286.928L41.4003 298.052L42.4199 295.231L43.4396 292.41L12.6596 281.286L11.6399 284.107ZM42.4199 295.231H39.4199V300.631H42.4199H45.4199V295.231H42.4199ZM42.4199 300.631L41.4046 297.808L10.6246 308.878L11.6399 311.701L12.6552 314.524L43.4352 303.454L42.4199 300.631ZM11.6399 311.701H8.63992V311.809H11.6399H14.6399V311.701H11.6399ZM11.6399 311.809V314.809H42.4199V311.809V308.809H11.6399V311.809ZM42.4199 311.809H39.4199V316.939H42.4199H45.4199V311.809H42.4199ZM42.4199 316.939V313.939H4.61992V316.939V319.939H42.4199V316.939ZM4.61992 316.939H7.61992V309.325H4.61992H1.61992V316.939H4.61992ZM4.61992 309.325L5.63505 312.148L37.1711 300.808L36.1559 297.985L35.1408 295.162L3.60479 306.502L4.61992 309.325ZM36.1559 297.985H39.1559V297.877H36.1559H33.1559V297.985H36.1559ZM36.1559 297.877L37.1753 295.056L5.63933 283.662L4.61992 286.483L3.60051 289.305L35.1365 300.699L36.1559 297.877ZM4.61992 286.483H7.61992V278.869H4.61992H1.61992L1.61992 286.483H4.61992ZM4.61992 278.869L4.61992 281.869H42.4199V278.869V275.869H4.61992V278.869ZM42.4199 278.869H39.4199V283.999H42.4199H45.4199V278.869H42.4199ZM37.7219 248.372V245.372H34.7219V248.372H37.7219ZM42.4199 248.372H45.4199V245.372H42.4199V248.372ZM42.4199 263.438L45.0177 264.938L45.4199 264.242V263.438H42.4199ZM38.8019 269.702V272.702H40.5336L41.3997 271.202L38.8019 269.702ZM18.7679 269.702L16.1701 271.202L17.0362 272.702H18.7679V269.702ZM15.1499 263.438H12.1499V264.242L12.5521 264.938L15.1499 263.438ZM15.1499 254.636L12.5521 253.135L12.1499 253.832V254.636H15.1499ZM18.7679 248.372V245.372H17.0362L16.1701 246.871L18.7679 248.372ZM30.7559 248.372H33.7559V245.372H30.7559V248.372ZM30.7559 264.464H27.7559L27.7559 267.464H30.7559L30.7559 264.464ZM37.7219 264.464L37.7219 267.464H40.7219L40.7219 264.464H37.7219ZM19.8479 264.464H16.8479V267.464H19.8479V264.464ZM26.0579 264.464L26.0579 267.464H29.0579L29.0579 264.464H26.0579ZM26.0579 253.61H29.0579V250.61H26.0579V253.61ZM19.8479 253.61V250.61H16.8479V253.61H19.8479ZM37.7219 248.372V251.372H42.4199V248.372V245.372H37.7219V248.372ZM42.4199 248.372H39.4199V263.438H42.4199H45.4199V248.372H42.4199ZM42.4199 263.438L39.8221 261.937L36.2041 268.201L38.8019 269.702L41.3997 271.202L45.0177 264.938L42.4199 263.438ZM38.8019 269.702V266.702H18.7679V269.702V272.702H38.8019V269.702ZM18.7679 269.702L21.3657 268.201L17.7477 261.937L15.1499 263.438L12.5521 264.938L16.1701 271.202L18.7679 269.702ZM15.1499 263.438H18.1499V254.636H15.1499H12.1499V263.438H15.1499ZM15.1499 254.636L17.7477 256.136L21.3657 249.872L18.7679 248.372L16.1701 246.871L12.5521 253.135L15.1499 254.636ZM18.7679 248.372V251.372H30.7559V248.372V245.372H18.7679V248.372ZM30.7559 248.372H27.7559V264.464H30.7559H33.7559V248.372H30.7559ZM30.7559 264.464L30.7559 267.464H37.7219L37.7219 264.464V261.464H30.7559V264.464ZM37.7219 264.464H40.7219V248.372H37.7219H34.7219V264.464H37.7219ZM19.8479 264.464V267.464H26.0579L26.0579 264.464V261.464H19.8479V264.464ZM26.0579 264.464H29.0579V253.61H26.0579H23.0579V264.464H26.0579ZM26.0579 253.61V250.61H19.8479V253.61V256.61H26.0579V253.61ZM19.8479 253.61H16.8479V264.464H19.8479H22.8479V253.61H19.8479ZM15.4199 234.511V231.511H12.4199V234.511H15.4199ZM42.4199 234.511H45.4199V231.511H42.4199V234.511ZM42.4199 239.749V242.749H45.4199V239.749H42.4199ZM15.4199 239.749H12.4199V242.749H15.4199V239.749ZM8.77792 240.019V243.019H11.7779V240.019H8.77792ZM2.99992 240.019H-8.01086e-05V243.019H2.99992V240.019ZM2.99992 234.241V231.241H-8.01086e-05V234.241H2.99992ZM8.77792 234.241H11.7779V231.241H8.77792V234.241ZM15.4199 234.511L15.4199 237.511H42.4199V234.511V231.511H15.4199V234.511ZM42.4199 234.511H39.4199V239.749H42.4199H45.4199V234.511H42.4199ZM42.4199 239.749V236.749H15.4199L15.4199 239.749V242.749H42.4199V239.749ZM15.4199 239.749H18.4199L18.4199 234.511H15.4199H12.4199L12.4199 239.749H15.4199ZM8.77792 240.019L8.77792 237.019H2.99992V240.019V243.019H8.77792V240.019ZM2.99992 240.019H5.99992V234.241H2.99992H-8.01086e-05V240.019H2.99992ZM2.99992 234.241V237.241H8.77792L8.77792 234.241V231.241H2.99992V234.241ZM8.77792 234.241H5.77792V240.019H8.77792H11.7779L11.7779 234.241H8.77792ZM18.7679 202.929V199.929H17.0362L16.1701 201.429L18.7679 202.929ZM42.4199 202.929H45.4199V199.929H42.4199V202.929ZM42.4199 208.167V211.167H45.4199V208.167H42.4199ZM19.8479 208.167V205.167H16.8479V208.167H19.8479ZM19.8479 220.641H16.8479V223.641H19.8479V220.641ZM42.4199 220.641H45.4199V217.641H42.4199V220.641ZM42.4199 225.879V228.879H45.4199V225.879H42.4199ZM15.1499 225.879H12.1499V228.879H15.1499V225.879ZM15.1499 221.937L13.6344 219.348L12.1499 220.217V221.937H15.1499ZM17.3639 220.641L18.8795 223.231L21.4533 221.724L19.9619 219.141L17.3639 220.641ZM15.1499 216.807H12.1499V217.611L12.552 218.308L15.1499 216.807ZM15.1499 209.193L12.5521 207.693L12.1499 208.389V209.193H15.1499ZM18.7679 202.929V205.929H42.4199V202.929V199.929H18.7679V202.929ZM42.4199 202.929H39.4199V208.167H42.4199H45.4199V202.929H42.4199ZM42.4199 208.167V205.167H19.8479V208.167V211.167H42.4199V208.167ZM19.8479 208.167H16.8479V220.641H19.8479H22.8479V208.167H19.8479ZM19.8479 220.641V223.641H42.4199V220.641V217.641H19.8479V220.641ZM42.4199 220.641H39.4199V225.879H42.4199H45.4199V220.641H42.4199ZM42.4199 225.879V222.879H15.1499V225.879V228.879H42.4199V225.879ZM15.1499 225.879H18.1499V221.937H15.1499H12.1499V225.879H15.1499ZM15.1499 221.937L16.6655 224.527L18.8795 223.231L17.3639 220.641L15.8484 218.052L13.6344 219.348L15.1499 221.937ZM17.3639 220.641L19.9619 219.141L17.7479 215.307L15.1499 216.807L12.552 218.308L14.766 222.142L17.3639 220.641ZM15.1499 216.807H18.1499V209.193H15.1499H12.1499V216.807H15.1499ZM15.1499 209.193L17.7477 210.694L21.3657 204.43L18.7679 202.929L16.1701 201.429L12.5521 207.693L15.1499 209.193ZM37.7219 172.962V169.962H34.7219V172.962H37.7219ZM42.4199 172.962H45.4199V169.962H42.4199V172.962ZM42.4199 188.028L45.0177 189.528L45.4199 188.832V188.028H42.4199ZM38.8019 194.292V197.292H40.5336L41.3997 195.792L38.8019 194.292ZM18.7679 194.292L16.1701 195.792L17.0362 197.292H18.7679V194.292ZM15.1499 188.028H12.1499V188.832L12.5521 189.528L15.1499 188.028ZM15.1499 179.226L12.5521 177.725L12.1499 178.421V179.226H15.1499ZM18.7679 172.962V169.962H17.0362L16.1701 171.461L18.7679 172.962ZM30.7559 172.962H33.7559V169.962H30.7559V172.962ZM30.7559 189.054H27.7559V192.054H30.7559V189.054ZM37.7219 189.054V192.054H40.7219V189.054H37.7219ZM19.8479 189.054H16.8479V192.054H19.8479V189.054ZM26.0579 189.054V192.054H29.0579V189.054H26.0579ZM26.0579 178.2H29.0579V175.2H26.0579V178.2ZM19.8479 178.2V175.2H16.8479V178.2H19.8479ZM37.7219 172.962V175.962H42.4199V172.962V169.962H37.7219V172.962ZM42.4199 172.962H39.4199V188.028H42.4199H45.4199V172.962H42.4199ZM42.4199 188.028L39.8221 186.527L36.2041 192.791L38.8019 194.292L41.3997 195.792L45.0177 189.528L42.4199 188.028ZM38.8019 194.292V191.292H18.7679V194.292V197.292H38.8019V194.292ZM18.7679 194.292L21.3657 192.791L17.7477 186.527L15.1499 188.028L12.5521 189.528L16.1701 195.792L18.7679 194.292ZM15.1499 188.028H18.1499L18.1499 179.226H15.1499H12.1499L12.1499 188.028H15.1499ZM15.1499 179.226L17.7477 180.726L21.3657 174.462L18.7679 172.962L16.1701 171.461L12.5521 177.725L15.1499 179.226ZM18.7679 172.962V175.962H30.7559V172.962V169.962H18.7679V172.962ZM30.7559 172.962H27.7559V189.054H30.7559H33.7559V172.962H30.7559ZM30.7559 189.054V192.054H37.7219V189.054V186.054H30.7559V189.054ZM37.7219 189.054H40.7219V172.962H37.7219H34.7219V189.054H37.7219ZM19.8479 189.054V192.054H26.0579V189.054V186.054H19.8479V189.054ZM26.0579 189.054H29.0579V178.2H26.0579H23.0579L23.0579 189.054H26.0579ZM26.0579 178.2V175.2H19.8479V178.2L19.8479 181.2H26.0579V178.2ZM19.8479 178.2H16.8479L16.8479 189.054H19.8479H22.8479L22.8479 178.2H19.8479ZM4.61992 133.355L3.61091 130.53L1.61992 131.241V133.355H4.61992ZM42.4199 119.855H45.4199V115.598L41.4109 117.03L42.4199 119.855ZM42.4199 125.147L43.4246 127.974L45.4199 127.265V125.147H42.4199ZM33.4559 128.333L32.4512 125.506L30.4559 126.216V128.333H33.4559ZM33.4559 145.073H30.4559V147.191L32.4512 147.9L33.4559 145.073ZM42.4199 148.259H45.4199V146.142L43.4246 145.432L42.4199 148.259ZM42.4199 153.551L41.4109 156.376L45.4199 157.808V153.551H42.4199ZM4.61992 140.051H1.61992V142.165L3.61091 142.876L4.61992 140.051ZM9.96592 136.757H6.96592L6.96592 138.878L8.96574 139.585L9.96592 136.757ZM28.5959 143.345L27.5957 146.173L31.5959 147.588V143.345H28.5959ZM28.5959 130.061H31.5959V125.818L27.5957 127.233L28.5959 130.061ZM9.96592 136.649L8.96574 133.821L6.96592 134.528V136.649H9.96592ZM4.61992 133.355L5.62893 136.18L43.4289 122.68L42.4199 119.855L41.4109 117.03L3.61091 130.53L4.61992 133.355ZM42.4199 119.855H39.4199V125.147H42.4199H45.4199V119.855H42.4199ZM42.4199 125.147L41.4152 122.32L32.4512 125.506L33.4559 128.333L34.4606 131.16L43.4246 127.974L42.4199 125.147ZM33.4559 128.333H30.4559V145.073H33.4559H36.4559V128.333H33.4559ZM33.4559 145.073L32.4512 147.9L41.4152 151.086L42.4199 148.259L43.4246 145.432L34.4606 142.246L33.4559 145.073ZM42.4199 148.259H39.4199L39.4199 153.551H42.4199H45.4199L45.4199 148.259H42.4199ZM42.4199 153.551L43.4289 150.726L5.62893 137.226L4.61992 140.051L3.61091 142.876L41.4109 156.376L42.4199 153.551ZM4.61992 140.051H7.61992V133.355H4.61992H1.61992L1.61992 140.051H4.61992ZM9.96592 136.757L8.96574 139.585L27.5957 146.173L28.5959 143.345L29.5961 140.517L10.9661 133.929L9.96592 136.757ZM28.5959 143.345H31.5959V130.061H28.5959H25.5959V143.345H28.5959ZM28.5959 130.061L27.5957 127.233L8.96574 133.821L9.96592 136.649L10.9661 139.477L29.5961 132.889L28.5959 130.061ZM9.96592 136.649H6.96592V136.757H9.96592H12.9659V136.649H9.96592ZM20.1179 99.3857H23.1179V96.3857H20.1179V99.3857ZM20.1179 109.214H17.1179V112.214H20.1179V109.214ZM42.4199 109.214H45.4199V106.214H42.4199V109.214ZM42.4199 114.452V117.452H45.4199V114.452H42.4199ZM15.4199 114.452H12.4199V117.452H15.4199V114.452ZM15.4199 110.51L13.9044 107.921L12.4199 108.79V110.51H15.4199ZM17.6339 109.214L19.1495 111.803L21.7233 110.296L20.2319 107.714L17.6339 109.214ZM15.4199 105.38H12.4199V106.184L12.822 106.88L15.4199 105.38ZM15.4199 99.3857V96.3857H12.4199V99.3857H15.4199ZM20.1179 99.3857H17.1179V109.214H20.1179H23.1179V99.3857H20.1179ZM20.1179 109.214V112.214H42.4199V109.214V106.214H20.1179V109.214ZM42.4199 109.214H39.4199V114.452H42.4199H45.4199V109.214H42.4199ZM42.4199 114.452V111.452H15.4199V114.452V117.452H42.4199V114.452ZM15.4199 114.452H18.4199V110.51H15.4199H12.4199V114.452H15.4199ZM15.4199 110.51L16.9355 113.099L19.1495 111.803L17.6339 109.214L16.1184 106.625L13.9044 107.921L15.4199 110.51ZM17.6339 109.214L20.2319 107.714L18.0179 103.88L15.4199 105.38L12.822 106.88L15.036 110.714L17.6339 109.214ZM15.4199 105.38H18.4199V99.3857H15.4199H12.4199V105.38H15.4199ZM15.4199 99.3857V102.386H20.1179V99.3857V96.3857H15.4199V99.3857ZM15.1499 84.3914H12.1499V85.1954L12.552 85.8917L15.1499 84.3914ZM15.1499 76.2374L12.5521 74.737L12.1499 75.4333V76.2374H15.1499ZM18.7679 69.9734L18.7679 66.9734H17.0362L16.1701 68.473L18.7679 69.9734ZM39.0719 69.9734L41.6697 68.473L40.8036 66.9734H39.0719V69.9734ZM42.6899 76.2374H45.6899V75.4333L45.2877 74.737L42.6899 76.2374ZM42.6899 84.3914L45.2879 85.8917L45.6899 85.1954V84.3914H42.6899ZM40.4759 88.2254L37.878 86.7252L37.0117 88.2254L37.878 89.7257L40.4759 88.2254ZM42.6899 92.0594H45.6899V91.2555L45.2879 90.5592L42.6899 92.0594ZM42.6899 93.4634V96.4634H45.6899V93.4634H42.6899ZM2.99992 93.4634H-8.01086e-05V96.4634H2.99992V93.4634ZM2.99992 88.2254V85.2254H-8.01086e-05V88.2254H2.99992ZM17.3639 88.2254V91.2254H22.5606L19.9619 86.7252L17.3639 88.2254ZM19.8479 88.2254H16.8479V91.2254H19.8479V88.2254ZM37.9919 88.2254V91.2254H40.9919V88.2254H37.9919ZM37.9919 75.2114H40.9919V72.2114H37.9919V75.2114ZM19.8479 75.2114V72.2114H16.8479V75.2114H19.8479ZM15.1499 84.3914H18.1499V76.2374H15.1499H12.1499V84.3914H15.1499ZM15.1499 76.2374L17.7477 77.7379L21.3657 71.4739L18.7679 69.9734L16.1701 68.473L12.5521 74.737L15.1499 76.2374ZM18.7679 69.9734V72.9734H39.0719V69.9734V66.9734H18.7679L18.7679 69.9734ZM39.0719 69.9734L36.4741 71.4739L40.0921 77.7379L42.6899 76.2374L45.2877 74.737L41.6697 68.473L39.0719 69.9734ZM42.6899 76.2374H39.6899V84.3914H42.6899H45.6899V76.2374H42.6899ZM42.6899 84.3914L40.092 82.8912L37.878 86.7252L40.4759 88.2254L43.0739 89.7257L45.2879 85.8917L42.6899 84.3914ZM40.4759 88.2254L37.878 89.7257L40.092 93.5597L42.6899 92.0594L45.2879 90.5592L43.0739 86.7252L40.4759 88.2254ZM42.6899 92.0594H39.6899V93.4634H42.6899H45.6899V92.0594H42.6899ZM42.6899 93.4634V90.4634H2.99992V93.4634V96.4634H42.6899V93.4634ZM2.99992 93.4634H5.99992V88.2254H2.99992H-8.01086e-05V93.4634H2.99992ZM2.99992 88.2254V91.2254H17.3639V88.2254V85.2254H2.99992V88.2254ZM17.3639 88.2254L19.9619 86.7252L17.7479 82.8912L15.1499 84.3914L12.552 85.8917L14.766 89.7257L17.3639 88.2254ZM19.8479 88.2254V91.2254H37.9919V88.2254V85.2254H19.8479V88.2254ZM37.9919 88.2254H40.9919V75.2114H37.9919H34.9919V88.2254H37.9919ZM37.9919 75.2114V72.2114H19.8479V75.2114V78.2114H37.9919V75.2114ZM19.8479 75.2114H16.8479V88.2254H19.8479H22.8479V75.2114H19.8479ZM37.7219 40.0182L37.7219 37.0182H34.7219L34.7219 40.0182H37.7219ZM42.4199 40.0182H45.4199L45.4199 37.0182H42.4199L42.4199 40.0182ZM42.4199 55.0842L45.0177 56.5847L45.4199 55.8883V55.0842H42.4199ZM38.8019 61.3482V64.3482H40.5336L41.3997 62.8487L38.8019 61.3482ZM18.7679 61.3482L16.1701 62.8487L17.0362 64.3482H18.7679V61.3482ZM15.1499 55.0842H12.1499V55.8883L12.5521 56.5847L15.1499 55.0842ZM15.1499 46.2822L12.5521 44.7817L12.1499 45.4781V46.2822H15.1499ZM18.7679 40.0182V37.0182H17.0362L16.1701 38.5178L18.7679 40.0182ZM30.7559 40.0182H33.7559L33.7559 37.0182H30.7559L30.7559 40.0182ZM30.7559 56.1102H27.7559V59.1102H30.7559V56.1102ZM37.7219 56.1102V59.1102H40.7219V56.1102H37.7219ZM19.8479 56.1102H16.8479V59.1102H19.8479V56.1102ZM26.0579 56.1102V59.1102H29.0579V56.1102H26.0579ZM26.0579 45.2562H29.0579V42.2562H26.0579V45.2562ZM19.8479 45.2562V42.2562H16.8479V45.2562H19.8479ZM37.7219 40.0182V43.0182H42.4199V40.0182L42.4199 37.0182H37.7219L37.7219 40.0182ZM42.4199 40.0182H39.4199V55.0842H42.4199H45.4199V40.0182H42.4199ZM42.4199 55.0842L39.8221 53.5837L36.2041 59.8477L38.8019 61.3482L41.3997 62.8487L45.0177 56.5847L42.4199 55.0842ZM38.8019 61.3482V58.3482H18.7679V61.3482V64.3482H38.8019V61.3482ZM18.7679 61.3482L21.3657 59.8477L17.7477 53.5837L15.1499 55.0842L12.5521 56.5847L16.1701 62.8487L18.7679 61.3482ZM15.1499 55.0842H18.1499V46.2822H15.1499H12.1499V55.0842H15.1499ZM15.1499 46.2822L17.7477 47.7827L21.3657 41.5187L18.7679 40.0182L16.1701 38.5178L12.5521 44.7817L15.1499 46.2822ZM18.7679 40.0182V43.0182H30.7559V40.0182L30.7559 37.0182H18.7679V40.0182ZM30.7559 40.0182H27.7559V56.1102H30.7559H33.7559V40.0182H30.7559ZM30.7559 56.1102V59.1102H37.7219V56.1102V53.1102H30.7559V56.1102ZM37.7219 56.1102H40.7219V40.0182H37.7219H34.7219V56.1102H37.7219ZM19.8479 56.1102V59.1102H26.0579V56.1102V53.1102H19.8479V56.1102ZM26.0579 56.1102H29.0579V45.2562H26.0579H23.0579V56.1102H26.0579ZM26.0579 45.2562V42.2562H19.8479V45.2562V48.2562H26.0579V45.2562ZM19.8479 45.2562H16.8479V56.1102H19.8479H22.8479V45.2562H19.8479ZM15.4199 26.1571V23.1571H12.4199V26.1571H15.4199ZM42.4199 26.1571H45.4199V23.1571H42.4199V26.1571ZM42.4199 31.3951V34.3951H45.4199V31.3951H42.4199ZM15.4199 31.3951H12.4199V34.3951H15.4199V31.3951ZM8.77792 31.6651V34.6651H11.7779V31.6651H8.77792ZM2.99992 31.6651H-8.01086e-05V34.6651H2.99992V31.6651ZM2.99992 25.8871L2.99992 22.8871H-8.01086e-05L-8.01086e-05 25.8871H2.99992ZM8.77792 25.8871H11.7779V22.8871H8.77792V25.8871ZM15.4199 26.1571V29.1571H42.4199V26.1571V23.1571H15.4199V26.1571ZM42.4199 26.1571H39.4199V31.3951H42.4199H45.4199V26.1571H42.4199ZM42.4199 31.3951V28.3951H15.4199V31.3951V34.3951H42.4199V31.3951ZM15.4199 31.3951H18.4199V26.1571H15.4199H12.4199V31.3951H15.4199ZM8.77792 31.6651V28.6651H2.99992V31.6651V34.6651H8.77792V31.6651ZM2.99992 31.6651H5.99992V25.8871H2.99992H-8.01086e-05V31.6651H2.99992ZM2.99992 25.8871V28.8871H8.77792V25.8871V22.8871H2.99992L2.99992 25.8871ZM8.77792 25.8871H5.77792V31.6651H8.77792H11.7779V25.8871H8.77792ZM20.1179 19.6859V22.6859H23.1179V19.6859H20.1179ZM15.4199 19.6859H12.4199V22.6859H15.4199V19.6859ZM15.4199 14.718H18.4199V11.718H15.4199V14.718ZM10.8839 14.718L8.28581 16.2179L9.15182 17.718H10.8839V14.718ZM7.85992 9.47995V6.47995H2.66391L5.26181 10.9799L7.85992 9.47995ZM15.4199 9.47995L15.4199 12.4799H18.4199L18.4199 9.47995H15.4199ZM15.4199 2.99994V-6.10352e-05H12.4199V2.99994H15.4199ZM20.1179 2.99994H23.1179V-6.10352e-05H20.1179V2.99994ZM20.1179 9.47995H17.1179L17.1179 12.4799H20.1179L20.1179 9.47995ZM37.7219 9.47995V12.4799H40.7219V9.47995H37.7219ZM37.7219 2.99994V-6.10352e-05H34.7219V2.99994H37.7219ZM42.4199 2.99994H45.4199V-6.10352e-05H42.4199V2.99994ZM42.4199 8.45395L45.0177 9.95441L45.4199 9.25809V8.45395H42.4199ZM38.8019 14.718V17.718H40.5336L41.3997 16.2184L38.8019 14.718ZM20.1179 14.718V11.718H17.1179V14.718H20.1179ZM20.1179 19.6859V16.6859H15.4199V19.6859V22.6859H20.1179V19.6859ZM15.4199 19.6859H18.4199V14.718H15.4199H12.4199V19.6859H15.4199ZM15.4199 14.718V11.718H10.8839V14.718V17.718H15.4199V14.718ZM10.8839 14.718L13.482 13.218L10.458 7.98001L7.85992 9.47995L5.26181 10.9799L8.28581 16.2179L10.8839 14.718ZM7.85992 9.47995L7.85992 12.4799H15.4199L15.4199 9.47995V6.47995H7.85992V9.47995ZM15.4199 9.47995H18.4199V2.99994H15.4199H12.4199V9.47995H15.4199ZM15.4199 2.99994V5.99994H20.1179V2.99994V-6.10352e-05H15.4199V2.99994ZM20.1179 2.99994H17.1179V9.47995H20.1179H23.1179V2.99994H20.1179ZM20.1179 9.47995L20.1179 12.4799H37.7219V9.47995V6.47995H20.1179V9.47995ZM37.7219 9.47995H40.7219V2.99994H37.7219H34.7219V9.47995H37.7219ZM37.7219 2.99994V5.99994H42.4199V2.99994V-6.10352e-05H37.7219V2.99994ZM42.4199 2.99994H39.4199V8.45395H42.4199H45.4199V2.99994H42.4199ZM42.4199 8.45395L39.8221 6.95349L36.2041 13.2175L38.8019 14.718L41.3997 16.2184L45.0177 9.95441L42.4199 8.45395ZM38.8019 14.718V11.718H20.1179V14.718V17.718H38.8019V14.718ZM20.1179 14.718H17.1179V19.6859H20.1179H23.1179V14.718H20.1179Z" fill="#B5E93B" mask="url(#path-1-outside-1_3113_1878)"/>
</svg>
