<svg width="46" height="283" viewBox="0 0 46 283" fill="none" xmlns="http://www.w3.org/2000/svg">
<mask id="path-1-outside-1_3113_1862" maskUnits="userSpaceOnUse" x="-0.580078" y="-0.813965" width="46" height="284" fill="black">
<rect fill="white" x="-0.580078" y="-0.813965" width="46" height="284"/>
<path d="M27.3539 265.772V273.926H42.4199V279.326H4.61992L4.61992 259.94L8.23792 253.676H23.7359L27.3539 259.94L42.4199 251.246V257.24L27.3539 265.772ZM9.47992 273.926H22.4939V259.076H9.47992V273.926ZM37.7219 223.151H42.4199L42.4199 238.217L38.8019 244.481H18.7679L15.1499 238.217V229.415L18.7679 223.151H30.7559L30.7559 239.243H37.7219L37.7219 223.151ZM19.8479 239.243H26.0579V228.389H19.8479V239.243ZM20.1179 216.688H15.4199V211.72H6.61792L2.99992 205.456V200.002H7.69792V206.482H15.4199V200.002H20.1179V206.482H42.4199V211.72H20.1179V216.688ZM37.7219 172.21H42.4199V187.276L38.8019 193.54H18.7679L15.1499 187.276V178.474L18.7679 172.21H30.7559V188.302H37.7219V172.21ZM19.8479 188.302H26.0579V177.448H19.8479V188.302ZM20.1179 148.521V158.349H42.4199V163.587H15.4199V159.645L17.6339 158.349L15.4199 154.515V148.521H20.1179ZM37.7219 121.268H42.4199V136.334L38.8019 142.598H18.7679L15.1499 136.334V127.532L18.7679 121.268H30.7559V137.36H37.7219V121.268ZM19.8479 137.36H26.0579V126.506H19.8479V137.36ZM18.7679 89.6953H42.4199V94.9333H19.8479V107.407H42.4199V112.645H15.1499V108.703L17.3639 107.407L15.1499 103.573V95.9593L18.7679 89.6953ZM38.8559 83.2174L20.2259 69.6094H20.1179V82.6774H15.4199V62.9134H18.9839L37.6139 76.5214H37.7219V62.9134H42.4199V83.2174H38.8559ZM37.7219 34.5731H42.4199V49.6391L38.8019 55.9031H18.7679L15.1499 49.6391V40.8371L18.7679 34.5731H30.7559V50.6651H37.7219V34.5731ZM19.8479 50.6651H26.0579V39.8111H19.8479V50.6651ZM18.7679 3.00002H42.4199V8.23802H19.8479V20.712H42.4199V25.95H15.1499V22.008L17.3639 20.712L15.1499 16.878V9.26402L18.7679 3.00002Z"/>
</mask>
<path d="M27.3539 265.772L25.8756 263.162L24.3539 264.023V265.772H27.3539ZM27.3539 273.926H24.3539V276.926H27.3539V273.926ZM42.4199 273.926H45.4199V270.926H42.4199V273.926ZM42.4199 279.326V282.326H45.4199V279.326H42.4199ZM4.61992 279.326H1.61992V282.326H4.61992V279.326ZM4.61992 259.94L2.02211 258.44L1.61992 259.136V259.94H4.61992ZM8.23792 253.676V250.676H6.50623L5.64011 252.176L8.23792 253.676ZM23.7359 253.676L26.3337 252.176L25.4676 250.676H23.7359V253.676ZM27.3539 259.94L24.7561 261.44L26.256 264.037L28.8534 262.538L27.3539 259.94ZM42.4199 251.246H45.4199V246.051L40.9205 248.648L42.4199 251.246ZM42.4199 257.24L43.8983 259.851L45.4199 258.989V257.24H42.4199ZM9.47992 273.926H6.47992V276.926H9.47992V273.926ZM22.4939 273.926V276.926H25.4939V273.926H22.4939ZM22.4939 259.076H25.4939V256.076H22.4939V259.076ZM9.47992 259.076V256.076H6.47992V259.076H9.47992ZM27.3539 265.772H24.3539V273.926H27.3539H30.3539V265.772H27.3539ZM27.3539 273.926V276.926H42.4199V273.926V270.926H27.3539V273.926ZM42.4199 273.926H39.4199V279.326H42.4199H45.4199V273.926H42.4199ZM42.4199 279.326V276.326H4.61992V279.326V282.326H42.4199V279.326ZM4.61992 279.326H7.61992V259.94H4.61992H1.61992L1.61992 279.326H4.61992ZM4.61992 259.94L7.21773 261.44L10.8357 255.176L8.23792 253.676L5.64011 252.176L2.02211 258.44L4.61992 259.94ZM8.23792 253.676L8.23792 256.676H23.7359V253.676V250.676H8.23792V253.676ZM23.7359 253.676L21.1381 255.176L24.7561 261.44L27.3539 259.94L29.9517 258.44L26.3337 252.176L23.7359 253.676ZM27.3539 259.94L28.8534 262.538L43.9194 253.844L42.4199 251.246L40.9205 248.648L25.8545 257.342L27.3539 259.94ZM42.4199 251.246H39.4199V257.24H42.4199H45.4199V251.246H42.4199ZM42.4199 257.24L40.9416 254.63L25.8756 263.162L27.3539 265.772L28.8323 268.383L43.8983 259.851L42.4199 257.24ZM9.47992 273.926V276.926H22.4939V273.926V270.926H9.47992V273.926ZM22.4939 273.926H25.4939V259.076H22.4939H19.4939V273.926H22.4939ZM22.4939 259.076V256.076H9.47992V259.076V262.076H22.4939V259.076ZM9.47992 259.076H6.47992L6.47992 273.926H9.47992H12.4799V259.076H9.47992ZM37.7219 223.151V220.151H34.7219V223.151H37.7219ZM42.4199 223.151H45.4199V220.151H42.4199V223.151ZM42.4199 238.217L45.0177 239.718L45.4199 239.021V238.217H42.4199ZM38.8019 244.481V247.481H40.5336L41.3997 245.982L38.8019 244.481ZM18.7679 244.481L16.1701 245.982L17.0362 247.481H18.7679V244.481ZM15.1499 238.217H12.1499V239.021L12.5521 239.718L15.1499 238.217ZM15.1499 229.415L12.5521 227.915L12.1499 228.611V229.415H15.1499ZM18.7679 223.151V220.151H17.0362L16.1701 221.651L18.7679 223.151ZM30.7559 223.151H33.7559V220.151H30.7559V223.151ZM30.7559 239.243H27.7559V242.243H30.7559V239.243ZM37.7219 239.243V242.243H40.7219V239.243H37.7219ZM19.8479 239.243H16.8479V242.243H19.8479V239.243ZM26.0579 239.243V242.243H29.0579V239.243H26.0579ZM26.0579 228.389H29.0579L29.0579 225.389H26.0579L26.0579 228.389ZM19.8479 228.389V225.389H16.8479V228.389H19.8479ZM37.7219 223.151V226.151H42.4199V223.151V220.151H37.7219V223.151ZM42.4199 223.151H39.4199L39.4199 238.217H42.4199H45.4199L45.4199 223.151H42.4199ZM42.4199 238.217L39.8221 236.717L36.2041 242.981L38.8019 244.481L41.3997 245.982L45.0177 239.718L42.4199 238.217ZM38.8019 244.481V241.481H18.7679V244.481V247.481H38.8019V244.481ZM18.7679 244.481L21.3657 242.981L17.7477 236.717L15.1499 238.217L12.5521 239.718L16.1701 245.982L18.7679 244.481ZM15.1499 238.217H18.1499V229.415H15.1499H12.1499V238.217H15.1499ZM15.1499 229.415L17.7477 230.916L21.3657 224.652L18.7679 223.151L16.1701 221.651L12.5521 227.915L15.1499 229.415ZM18.7679 223.151V226.151H30.7559V223.151V220.151H18.7679V223.151ZM30.7559 223.151H27.7559L27.7559 239.243H30.7559H33.7559L33.7559 223.151H30.7559ZM30.7559 239.243V242.243H37.7219V239.243V236.243H30.7559V239.243ZM37.7219 239.243H40.7219L40.7219 223.151H37.7219H34.7219L34.7219 239.243H37.7219ZM19.8479 239.243V242.243H26.0579V239.243V236.243H19.8479V239.243ZM26.0579 239.243H29.0579V228.389H26.0579H23.0579V239.243H26.0579ZM26.0579 228.389L26.0579 225.389H19.8479V228.389V231.389H26.0579V228.389ZM19.8479 228.389H16.8479V239.243H19.8479H22.8479V228.389H19.8479ZM20.1179 216.688V219.688H23.1179V216.688H20.1179ZM15.4199 216.688H12.4199V219.688H15.4199V216.688ZM15.4199 211.72H18.4199V208.72H15.4199V211.72ZM6.61792 211.72L4.02011 213.221L4.88622 214.72H6.61792L6.61792 211.72ZM2.99992 205.456H-8.01086e-05V206.26L0.402111 206.957L2.99992 205.456ZM2.99992 200.002V197.002H-8.01086e-05V200.002H2.99992ZM7.69792 200.002H10.6979L10.6979 197.002H7.69792L7.69792 200.002ZM7.69792 206.482H4.69792V209.482H7.69792V206.482ZM15.4199 206.482V209.482H18.4199V206.482H15.4199ZM15.4199 200.002L15.4199 197.002H12.4199L12.4199 200.002H15.4199ZM20.1179 200.002H23.1179L23.1179 197.002H20.1179L20.1179 200.002ZM20.1179 206.482H17.1179V209.482H20.1179V206.482ZM42.4199 206.482H45.4199V203.482H42.4199V206.482ZM42.4199 211.72V214.72H45.4199V211.72H42.4199ZM20.1179 211.72V208.72H17.1179V211.72H20.1179ZM20.1179 216.688V213.688H15.4199V216.688V219.688H20.1179V216.688ZM15.4199 216.688H18.4199V211.72H15.4199H12.4199V216.688H15.4199ZM15.4199 211.72V208.72H6.61792V211.72L6.61792 214.72H15.4199V211.72ZM6.61792 211.72L9.21573 210.22L5.59773 203.956L2.99992 205.456L0.402111 206.957L4.02011 213.221L6.61792 211.72ZM2.99992 205.456H5.99992V200.002H2.99992H-8.01086e-05V205.456H2.99992ZM2.99992 200.002V203.002H7.69792V200.002L7.69792 197.002H2.99992V200.002ZM7.69792 200.002H4.69792V206.482H7.69792H10.6979V200.002H7.69792ZM7.69792 206.482V209.482H15.4199V206.482V203.482H7.69792V206.482ZM15.4199 206.482H18.4199V200.002H15.4199H12.4199V206.482H15.4199ZM15.4199 200.002V203.002H20.1179V200.002L20.1179 197.002H15.4199L15.4199 200.002ZM20.1179 200.002H17.1179V206.482H20.1179H23.1179V200.002H20.1179ZM20.1179 206.482V209.482H42.4199V206.482V203.482H20.1179V206.482ZM42.4199 206.482H39.4199V211.72H42.4199H45.4199V206.482H42.4199ZM42.4199 211.72V208.72H20.1179V211.72V214.72H42.4199V211.72ZM20.1179 211.72H17.1179V216.688H20.1179H23.1179V211.72H20.1179ZM37.7219 172.21V169.21H34.7219V172.21H37.7219ZM42.4199 172.21H45.4199V169.21H42.4199V172.21ZM42.4199 187.276L45.0177 188.776L45.4199 188.08V187.276H42.4199ZM38.8019 193.54V196.54H40.5336L41.3997 195.04L38.8019 193.54ZM18.7679 193.54L16.1701 195.04L17.0362 196.54H18.7679V193.54ZM15.1499 187.276H12.1499V188.08L12.5521 188.776L15.1499 187.276ZM15.1499 178.474L12.5521 176.973L12.1499 177.67V178.474H15.1499ZM18.7679 172.21V169.21H17.0362L16.1701 170.709L18.7679 172.21ZM30.7559 172.21H33.7559V169.21H30.7559V172.21ZM30.7559 188.302H27.7559V191.302H30.7559V188.302ZM37.7219 188.302V191.302H40.7219V188.302H37.7219ZM19.8479 188.302H16.8479V191.302H19.8479V188.302ZM26.0579 188.302V191.302H29.0579V188.302H26.0579ZM26.0579 177.448H29.0579V174.448H26.0579V177.448ZM19.8479 177.448V174.448H16.8479V177.448H19.8479ZM37.7219 172.21V175.21H42.4199V172.21V169.21H37.7219V172.21ZM42.4199 172.21H39.4199V187.276H42.4199H45.4199V172.21H42.4199ZM42.4199 187.276L39.8221 185.775L36.2041 192.039L38.8019 193.54L41.3997 195.04L45.0177 188.776L42.4199 187.276ZM38.8019 193.54V190.54H18.7679V193.54V196.54H38.8019V193.54ZM18.7679 193.54L21.3657 192.039L17.7477 185.775L15.1499 187.276L12.5521 188.776L16.1701 195.04L18.7679 193.54ZM15.1499 187.276H18.1499V178.474H15.1499H12.1499V187.276H15.1499ZM15.1499 178.474L17.7477 179.974L21.3657 173.71L18.7679 172.21L16.1701 170.709L12.5521 176.973L15.1499 178.474ZM18.7679 172.21V175.21H30.7559V172.21V169.21H18.7679V172.21ZM30.7559 172.21H27.7559V188.302H30.7559H33.7559V172.21H30.7559ZM30.7559 188.302V191.302H37.7219V188.302V185.302H30.7559V188.302ZM37.7219 188.302H40.7219V172.21H37.7219H34.7219V188.302H37.7219ZM19.8479 188.302V191.302H26.0579V188.302V185.302H19.8479V188.302ZM26.0579 188.302H29.0579V177.448H26.0579H23.0579V188.302H26.0579ZM26.0579 177.448V174.448H19.8479V177.448V180.448H26.0579V177.448ZM19.8479 177.448H16.8479V188.302H19.8479H22.8479V177.448H19.8479ZM20.1179 148.521H23.1179V145.521H20.1179V148.521ZM20.1179 158.349H17.1179V161.349H20.1179V158.349ZM42.4199 158.349H45.4199V155.349H42.4199V158.349ZM42.4199 163.587V166.587H45.4199V163.587H42.4199ZM15.4199 163.587H12.4199V166.587H15.4199V163.587ZM15.4199 159.645L13.9044 157.056L12.4199 157.925V159.645H15.4199ZM17.6339 158.349L19.1495 160.938L21.7233 159.431L20.2319 156.849L17.6339 158.349ZM15.4199 154.515H12.4199V155.319L12.822 156.015L15.4199 154.515ZM15.4199 148.521V145.521H12.4199V148.521H15.4199ZM20.1179 148.521H17.1179V158.349H20.1179H23.1179V148.521H20.1179ZM20.1179 158.349V161.349H42.4199V158.349V155.349H20.1179V158.349ZM42.4199 158.349H39.4199V163.587H42.4199H45.4199V158.349H42.4199ZM42.4199 163.587V160.587H15.4199V163.587V166.587H42.4199V163.587ZM15.4199 163.587H18.4199V159.645H15.4199H12.4199V163.587H15.4199ZM15.4199 159.645L16.9355 162.234L19.1495 160.938L17.6339 158.349L16.1184 155.76L13.9044 157.056L15.4199 159.645ZM17.6339 158.349L20.2319 156.849L18.0179 153.015L15.4199 154.515L12.822 156.015L15.036 159.849L17.6339 158.349ZM15.4199 154.515H18.4199V148.521H15.4199H12.4199V154.515H15.4199ZM15.4199 148.521V151.521H20.1179V148.521V145.521H15.4199V148.521ZM37.7219 121.268V118.268H34.7219V121.268H37.7219ZM42.4199 121.268H45.4199V118.268H42.4199V121.268ZM42.4199 136.334L45.0177 137.835L45.4199 137.139V136.334H42.4199ZM38.8019 142.598V145.598H40.5336L41.3997 144.099L38.8019 142.598ZM18.7679 142.598L16.1701 144.099L17.0362 145.598H18.7679L18.7679 142.598ZM15.1499 136.334H12.1499V137.139L12.5521 137.835L15.1499 136.334ZM15.1499 127.532L12.5521 126.032L12.1499 126.728V127.532H15.1499ZM18.7679 121.268V118.268H17.0362L16.1701 119.768L18.7679 121.268ZM30.7559 121.268H33.7559V118.268H30.7559V121.268ZM30.7559 137.36H27.7559V140.36H30.7559V137.36ZM37.7219 137.36V140.36H40.7219V137.36H37.7219ZM19.8479 137.36H16.8479V140.36H19.8479V137.36ZM26.0579 137.36V140.36H29.0579V137.36H26.0579ZM26.0579 126.506H29.0579V123.506H26.0579V126.506ZM19.8479 126.506V123.506H16.8479V126.506H19.8479ZM37.7219 121.268V124.268H42.4199V121.268V118.268H37.7219V121.268ZM42.4199 121.268H39.4199V136.334H42.4199H45.4199V121.268H42.4199ZM42.4199 136.334L39.8221 134.834L36.2041 141.098L38.8019 142.598L41.3997 144.099L45.0177 137.835L42.4199 136.334ZM38.8019 142.598V139.598H18.7679V142.598L18.7679 145.598H38.8019V142.598ZM18.7679 142.598L21.3657 141.098L17.7477 134.834L15.1499 136.334L12.5521 137.835L16.1701 144.099L18.7679 142.598ZM15.1499 136.334H18.1499V127.532H15.1499H12.1499V136.334H15.1499ZM15.1499 127.532L17.7477 129.033L21.3657 122.769L18.7679 121.268L16.1701 119.768L12.5521 126.032L15.1499 127.532ZM18.7679 121.268V124.268H30.7559V121.268V118.268H18.7679V121.268ZM30.7559 121.268H27.7559V137.36H30.7559H33.7559V121.268H30.7559ZM30.7559 137.36V140.36H37.7219V137.36V134.36H30.7559V137.36ZM37.7219 137.36H40.7219V121.268H37.7219H34.7219V137.36H37.7219ZM19.8479 137.36V140.36H26.0579V137.36V134.36H19.8479V137.36ZM26.0579 137.36H29.0579V126.506H26.0579H23.0579V137.36H26.0579ZM26.0579 126.506V123.506H19.8479V126.506V129.506H26.0579V126.506ZM19.8479 126.506H16.8479V137.36H19.8479H22.8479V126.506H19.8479ZM18.7679 89.6953L18.7679 86.6953H17.0362L16.1701 88.1949L18.7679 89.6953ZM42.4199 89.6953H45.4199V86.6953H42.4199V89.6953ZM42.4199 94.9333V97.9333H45.4199V94.9333H42.4199ZM19.8479 94.9333V91.9333H16.8479V94.9333H19.8479ZM19.8479 107.407H16.8479V110.407H19.8479V107.407ZM42.4199 107.407H45.4199V104.407H42.4199V107.407ZM42.4199 112.645L42.4199 115.645H45.4199L45.4199 112.645H42.4199ZM15.1499 112.645H12.1499V115.645H15.1499V112.645ZM15.1499 108.703L13.6344 106.114L12.1499 106.983V108.703H15.1499ZM17.3639 107.407L18.8795 109.996L21.4533 108.49L19.9619 105.907L17.3639 107.407ZM15.1499 103.573H12.1499V104.377L12.552 105.074L15.1499 103.573ZM15.1499 95.9593L12.5521 94.4589L12.1499 95.1552V95.9593H15.1499ZM18.7679 89.6953V92.6953H42.4199V89.6953V86.6953H18.7679L18.7679 89.6953ZM42.4199 89.6953H39.4199V94.9333H42.4199H45.4199V89.6953H42.4199ZM42.4199 94.9333V91.9333H19.8479V94.9333V97.9333H42.4199V94.9333ZM19.8479 94.9333H16.8479V107.407H19.8479H22.8479V94.9333H19.8479ZM19.8479 107.407V110.407H42.4199V107.407V104.407H19.8479V107.407ZM42.4199 107.407H39.4199V112.645H42.4199H45.4199V107.407H42.4199ZM42.4199 112.645V109.645H15.1499V112.645V115.645H42.4199L42.4199 112.645ZM15.1499 112.645H18.1499V108.703H15.1499H12.1499V112.645H15.1499ZM15.1499 108.703L16.6655 111.292L18.8795 109.996L17.3639 107.407L15.8484 104.818L13.6344 106.114L15.1499 108.703ZM17.3639 107.407L19.9619 105.907L17.7479 102.073L15.1499 103.573L12.552 105.074L14.766 108.908L17.3639 107.407ZM15.1499 103.573H18.1499V95.9593H15.1499H12.1499V103.573H15.1499ZM15.1499 95.9593L17.7477 97.4598L21.3657 91.1958L18.7679 89.6953L16.1701 88.1949L12.5521 94.4589L15.1499 95.9593ZM38.8559 83.2174L37.0864 85.64L37.8769 86.2174H38.8559V83.2174ZM20.2259 69.6094L21.9954 67.1869L21.2049 66.6094H20.2259V69.6094ZM20.1179 69.6094V66.6094H17.1179V69.6094H20.1179ZM20.1179 82.6774V85.6774H23.1179V82.6774H20.1179ZM15.4199 82.6774H12.4199V85.6774H15.4199V82.6774ZM15.4199 62.9134V59.9134H12.4199V62.9134H15.4199ZM18.9839 62.9134L20.7534 60.4909L19.9629 59.9134H18.9839V62.9134ZM37.6139 76.5214L35.8444 78.944L36.6349 79.5214H37.6139V76.5214ZM37.7219 76.5214V79.5214H40.7219V76.5214H37.7219ZM37.7219 62.9134V59.9134H34.7219V62.9134H37.7219ZM42.4199 62.9134H45.4199V59.9134H42.4199V62.9134ZM42.4199 83.2174V86.2174H45.4199V83.2174H42.4199ZM38.8559 83.2174L40.6254 80.7949L21.9954 67.1869L20.2259 69.6094L18.4564 72.032L37.0864 85.64L38.8559 83.2174ZM20.2259 69.6094V66.6094H20.1179V69.6094V72.6094H20.2259V69.6094ZM20.1179 69.6094H17.1179V82.6774H20.1179H23.1179V69.6094H20.1179ZM20.1179 82.6774V79.6774H15.4199V82.6774V85.6774H20.1179V82.6774ZM15.4199 82.6774H18.4199V62.9134H15.4199H12.4199V82.6774H15.4199ZM15.4199 62.9134V65.9134H18.9839V62.9134V59.9134H15.4199V62.9134ZM18.9839 62.9134L17.2144 65.336L35.8444 78.944L37.6139 76.5214L39.3834 74.0989L20.7534 60.4909L18.9839 62.9134ZM37.6139 76.5214V79.5214H37.7219V76.5214V73.5214H37.6139V76.5214ZM37.7219 76.5214H40.7219V62.9134H37.7219H34.7219V76.5214H37.7219ZM37.7219 62.9134V65.9134H42.4199V62.9134V59.9134H37.7219V62.9134ZM42.4199 62.9134H39.4199V83.2174H42.4199H45.4199V62.9134H42.4199ZM42.4199 83.2174V80.2174H38.8559V83.2174V86.2174H42.4199V83.2174ZM37.7219 34.5732V31.5732H34.7219V34.5732H37.7219ZM42.4199 34.5732H45.4199V31.5732H42.4199V34.5732ZM42.4199 49.6391L45.0177 51.1396L45.4199 50.4433V49.6391H42.4199ZM38.8019 55.9031V58.9031H40.5336L41.3997 57.4036L38.8019 55.9031ZM18.7679 55.9031L16.1701 57.4036L17.0362 58.9031H18.7679V55.9031ZM15.1499 49.6391H12.1499V50.4433L12.5521 51.1396L15.1499 49.6391ZM15.1499 40.8371L12.5521 39.3367L12.1499 40.033V40.8371H15.1499ZM18.7679 34.5732V31.5732H17.0362L16.1701 33.0727L18.7679 34.5732ZM30.7559 34.5732H33.7559V31.5732H30.7559V34.5732ZM30.7559 50.6651H27.7559V53.6651H30.7559V50.6651ZM37.7219 50.6651V53.6651H40.7219V50.6651H37.7219ZM19.8479 50.6651H16.8479V53.6651H19.8479V50.6651ZM26.0579 50.6651V53.6651H29.0579V50.6651H26.0579ZM26.0579 39.8111H29.0579V36.8111H26.0579V39.8111ZM19.8479 39.8111V36.8111H16.8479V39.8111H19.8479ZM37.7219 34.5732V37.5732H42.4199V34.5732V31.5732H37.7219V34.5732ZM42.4199 34.5732H39.4199V49.6391H42.4199H45.4199V34.5732H42.4199ZM42.4199 49.6391L39.8221 48.1387L36.2041 54.4027L38.8019 55.9031L41.3997 57.4036L45.0177 51.1396L42.4199 49.6391ZM38.8019 55.9031V52.9031H18.7679V55.9031V58.9031H38.8019V55.9031ZM18.7679 55.9031L21.3657 54.4027L17.7477 48.1387L15.1499 49.6391L12.5521 51.1396L16.1701 57.4036L18.7679 55.9031ZM15.1499 49.6391H18.1499V40.8371H15.1499H12.1499V49.6391H15.1499ZM15.1499 40.8371L17.7477 42.3376L21.3657 36.0736L18.7679 34.5732L16.1701 33.0727L12.5521 39.3367L15.1499 40.8371ZM18.7679 34.5732V37.5732H30.7559V34.5732V31.5732H18.7679V34.5732ZM30.7559 34.5732H27.7559V50.6651H30.7559H33.7559V34.5732H30.7559ZM30.7559 50.6651V53.6651H37.7219V50.6651V47.6651H30.7559V50.6651ZM37.7219 50.6651H40.7219V34.5732H37.7219H34.7219V50.6651H37.7219ZM19.8479 50.6651V53.6651H26.0579V50.6651V47.6651H19.8479V50.6651ZM26.0579 50.6651H29.0579V39.8111H26.0579H23.0579V50.6651H26.0579ZM26.0579 39.8111V36.8111H19.8479V39.8111V42.8111H26.0579V39.8111ZM19.8479 39.8111H16.8479V50.6651H19.8479H22.8479V39.8111H19.8479ZM18.7679 3.00003V3.05176e-05H17.0362L16.1701 1.49957L18.7679 3.00003ZM42.4199 3.00003H45.4199L45.4199 3.05176e-05H42.4199L42.4199 3.00003ZM42.4199 8.23801V11.238H45.4199V8.23801H42.4199ZM19.8479 8.23801V5.23801H16.8479V8.23801H19.8479ZM19.8479 20.712H16.8479V23.712H19.8479V20.712ZM42.4199 20.712H45.4199V17.712H42.4199V20.712ZM42.4199 25.95V28.95H45.4199V25.95H42.4199ZM15.1499 25.95H12.1499V28.95H15.1499V25.95ZM15.1499 22.008L13.6344 19.419L12.1499 20.2879V22.008H15.1499ZM17.3639 20.712L18.8795 23.3011L21.4533 21.7944L19.9619 19.2118L17.3639 20.712ZM15.1499 16.878H12.1499V17.682L12.552 18.3782L15.1499 16.878ZM15.1499 9.26401L12.5521 7.76355L12.1499 8.4599V9.26401H15.1499ZM18.7679 3.00003V6.00003H42.4199V3.00003L42.4199 3.05176e-05H18.7679V3.00003ZM42.4199 3.00003H39.4199V8.23801H42.4199H45.4199V3.00003H42.4199ZM42.4199 8.23801V5.23801H19.8479V8.23801V11.238H42.4199V8.23801ZM19.8479 8.23801H16.8479V20.712H19.8479H22.8479V8.23801H19.8479ZM19.8479 20.712V23.712H42.4199V20.712V17.712H19.8479V20.712ZM42.4199 20.712H39.4199V25.95H42.4199H45.4199V20.712H42.4199ZM42.4199 25.95V22.95H15.1499V25.95V28.95H42.4199V25.95ZM15.1499 25.95H18.1499V22.008H15.1499H12.1499V25.95H15.1499ZM15.1499 22.008L16.6655 24.5971L18.8795 23.3011L17.3639 20.712L15.8484 18.123L13.6344 19.419L15.1499 22.008ZM17.3639 20.712L19.9619 19.2118L17.7479 15.3778L15.1499 16.878L12.552 18.3782L14.766 22.2122L17.3639 20.712ZM15.1499 16.878H18.1499V9.26401H15.1499H12.1499V16.878H15.1499ZM15.1499 9.26401L17.7477 10.7645L21.3657 4.50049L18.7679 3.00003L16.1701 1.49957L12.5521 7.76355L15.1499 9.26401Z" fill="#B5E93B" mask="url(#path-1-outside-1_3113_1862)"/>
</svg>
