<svg width="147" height="96" viewBox="0 0 147 96" fill="none" xmlns="http://www.w3.org/2000/svg">
<path d="M27.1391 79.4H28.9391V90.884L26.8511 92.09H21.5771L19.4891 90.884V79.4H21.2891V90.29H27.1391V79.4ZM44.1145 84.116V92H42.3685V84.476H38.9305V92H37.1845V84.476H33.7465V92H32.0005V82.91H33.3145L33.7465 83.648L35.0245 82.91H36.8425L38.5165 83.882L40.2085 82.91H42.0265L44.1145 84.116ZM46.2747 90.812L50.8107 84.602V84.566H46.4547V83H53.0427V84.188L48.5067 90.398V90.434H53.0427V92H46.2747V90.812ZM55.3795 90.884V83H57.1255V90.524H61.2835V83H63.0295V92.09H61.7155L61.2835 91.352L60.0055 92.09H57.4675L55.3795 90.884ZM67.6548 92L65.9088 90.992V89.372L67.1868 88.634L65.9088 87.896V84.206L67.9968 83H73.7388V83.612L72.1008 84.566L73.1988 85.214V87.698L71.1108 88.904H67.6548V90.434H71.6508L73.7388 91.64V94.484L71.6508 95.69H67.6368L65.5488 94.484V93.368L67.2948 92.36V94.16H71.9928V92H67.6548ZM67.6548 84.53V87.374H71.4528V84.53H67.6548ZM83.0303 87.86V90.794L80.9423 92H76.2623V90.434H81.2843V88.22H78.3503L76.2623 87.014V84.206L78.3503 83H82.8503V84.566H78.0083V86.654H80.9423L83.0303 87.86ZM88.9367 82.91H91.6547L93.7427 84.116V90.884L91.6547 92.09H88.9367L87.6587 91.352L86.3807 92.09H85.9127V78.86H87.6587V83.648L88.9367 82.91ZM87.6587 84.476V90.524H91.9967V84.476H87.6587ZM103.728 90.434V92H98.7057L96.6177 90.794V84.116L98.7057 82.91H101.64L103.728 84.116V88.112H98.3637V90.434H103.728ZM98.3637 84.476V86.546H101.982V84.476H98.3637ZM111.624 84.566H108.348V92H106.602V83H107.916L108.348 83.738L109.626 83H111.624V84.566ZM120.708 90.434V92H115.686L113.598 90.794V84.116L115.686 82.91H118.62L120.708 84.116V88.112H115.344V90.434H120.708ZM115.344 84.476V86.546H118.962V84.476H115.344ZM125.329 83V92H123.583V83H125.329ZM123.493 80.786V78.86H125.419V80.786H123.493ZM127.486 84.566V83H129.142V81.488L130.888 80.48V83H133.048V84.566H130.888V90.434H133.048V92H131.23L129.142 90.794V84.566H127.486Z" fill="#FFFDFD"/>
<ellipse cx="3.46154" cy="3.30082" rx="3.46154" ry="3.30082" transform="matrix(0.990909 0.134535 -0.169599 0.985513 64.4287 59.5386)" fill="#FFFDFD"/>
<ellipse cx="3.46154" cy="3.30082" rx="3.46154" ry="3.30082" transform="matrix(0.990909 0.134535 -0.169599 0.985513 81.6387 59.5386)" fill="#FFFDFD"/>
<rect x="69" y="19" width="14.1538" height="13.525" rx="1" stroke="#FFFDFD" stroke-width="2"/>
<rect x="61" y="27.8796" width="30" height="33.8728" rx="2" fill="#B5E93B"/>
</svg>
