<svg width="178" height="84" viewBox="0 0 178 84" fill="none" xmlns="http://www.w3.org/2000/svg">
<path d="M36.6605 75.978H33.9425V81H32.1425V68.4H38.6045L40.6925 69.606V74.772L38.6045 75.978L41.5025 81H39.5045L36.6605 75.978ZM33.9425 70.02V74.358H38.8925V70.02H33.9425ZM50.8674 79.434V81H45.8454L43.7574 79.794V73.116L45.8454 71.91H48.7794L50.8674 73.116V77.112H45.5034V79.434H50.8674ZM45.5034 73.476V75.546H49.1214V73.476H45.5034ZM65.8558 73.116V81H64.1098V73.476H60.6718V81H58.9258V73.476H55.4878V81H53.7418V71.91H55.0558L55.4878 72.648L56.7658 71.91H58.5838L60.2578 72.882L61.9498 71.91H63.7678L65.8558 73.116ZM76.3859 79.884L74.2979 81.09H70.8239L68.7359 79.884V73.116L70.8239 71.91H74.2979L76.3859 73.116V79.884ZM70.4819 73.476V79.524H74.6399V73.476H70.4819ZM78.5452 73.566V72H80.2012V70.488L81.9472 69.48V72H84.1072V73.566H81.9472V79.434H84.1072V81H82.2892L80.2012 79.794V73.566H78.5452ZM93.7404 79.434V81H88.7184L86.6304 79.794V73.116L88.7184 71.91H91.6524L93.7404 73.116V77.112H88.3764V79.434H93.7404ZM88.3764 73.476V75.546H91.9944V73.476H88.3764ZM106.943 68.4L111.443 81H109.679L108.617 78.012H103.037L101.975 81H100.211L104.711 68.4H106.943ZM105.809 70.182L103.613 76.392H108.041L105.845 70.182H105.809ZM118.266 73.566H114.99V81H113.244V72H114.558L114.99 72.738L116.268 72H118.266V73.566ZM123.264 71.91H125.982L128.07 73.116V79.884L125.982 81.09H123.264L121.986 80.352L120.708 81.09H120.24V67.86H121.986V72.648L123.264 71.91ZM121.986 73.476V79.524H126.324V73.476H121.986ZM138.055 79.434V81H133.033L130.945 79.794V73.116L133.033 71.91H135.967L138.055 73.116V77.112H132.691V79.434H138.055ZM132.691 73.476V75.546H136.309V73.476H132.691ZM142.675 72V81H140.929V72H142.675ZM140.839 69.786V67.86H142.765V69.786H140.839ZM144.832 73.566V72H146.488V70.488L148.234 69.48V72H150.394V73.566H148.234V79.434H150.394V81H148.576L146.488 79.794V73.566H144.832Z" fill="#FFFDFD"/>
<path d="M76.8613 28.8879H103.335C104.025 28.8879 104.585 29.4476 104.585 30.1379V47.176H75.6113V30.1379C75.6113 29.4476 76.171 28.8879 76.8613 28.8879Z" fill="#4A4A4A" stroke="#B5E93B" stroke-width="1.5"/>
<path d="M71.4893 49.4932H108.58V50.989C108.58 52.6459 107.237 53.989 105.58 53.989H74.4893C72.8324 53.989 71.4893 52.6459 71.4893 50.989V49.4932Z" fill="#B5E93B"/>
<rect x="87.2246" y="50.6172" width="6.74379" height="1.12396" rx="0.561982" fill="#140754"/>
<path d="M77.4889 20.5133C70.9889 19.5133 68.489 23.0132 67.7146 29.0278" stroke="#FFFDFD" stroke-width="2" stroke-linecap="round"/>
<path d="M77.9893 15.0132C67.926 14.0474 62.2313 20.0162 61.8278 28.8931" stroke="#FFFDFD" stroke-width="2" stroke-linecap="round"/>
</svg>
