<svg width="46" height="267" viewBox="0 0 46 267" fill="none" xmlns="http://www.w3.org/2000/svg">
<mask id="path-1-outside-1_3113_1920" maskUnits="userSpaceOnUse" x="-0.580078" y="-0.418457" width="47" height="268" fill="black">
<rect fill="white" x="-0.580078" y="-0.418457" width="47" height="268"/>
<path d="M4.61992 214.578L42.4199 224.298V230.724L12.1259 238.716V238.824L42.4199 246.816V253.242L4.61992 262.962V257.724L35.5079 250.056V249.948L4.61992 241.794V235.746L35.5079 227.646V227.538L4.61992 219.816V214.578ZM31.3499 204.477H37.9919V193.623H31.3499V204.477ZM42.6899 203.451L39.0719 209.715H30.2699L26.6519 203.451V193.623H20.1179V207.015H15.4199V194.649L19.0379 188.385H42.6899V189.789L40.4759 193.623L42.6899 197.457V203.451ZM20.1179 164.67V174.498H42.4199V179.736H15.4199V175.794L17.6339 174.498L15.4199 170.664V164.67H20.1179ZM39.0719 158.748H15.4199V153.51H37.9919V141.036H15.4199V135.798H42.6899V139.74L40.4759 141.036L42.6899 144.87V152.484L39.0719 158.748ZM18.7679 90.818H42.4199L42.4199 96.056H19.8479V106.37H42.4199V111.608H19.8479V121.922H42.4199V127.16H15.1499L15.1499 123.218L17.3639 121.922L15.1499 118.088V112.634L18.0659 107.612L15.1499 102.536V97.082L18.7679 90.818ZM15.4199 62.9122H42.4199V68.1502H15.4199L15.4199 62.9122ZM8.77792 68.4202H2.99992V62.6422H8.77792L8.77792 68.4202ZM20.1179 49.0431H37.7219V34.0311H42.4199V48.0171L38.8019 54.2811H19.0379L15.4199 48.0171V34.0311H20.1179V49.0431ZM42.4199 21.2521V26.4901H2.99992L2.99992 21.2521H17.3639L15.1499 17.4181L15.1499 9.26406L18.7679 3.00006H42.4199V8.23806H19.8479L19.8479 21.2521H42.4199Z"/>
</mask>
<path d="M4.61992 214.578L5.36704 211.672L1.61992 210.709V214.578H4.61992ZM42.4199 224.298H45.4199V221.971L43.167 221.392L42.4199 224.298ZM42.4199 230.724L43.1852 233.624L45.4199 233.035V230.724H42.4199ZM12.1259 238.716L11.3607 235.815L9.12592 236.404V238.716H12.1259ZM12.1259 238.824H9.12592V241.135L11.3607 241.724L12.1259 238.824ZM42.4199 246.816H45.4199V244.504L43.1852 243.915L42.4199 246.816ZM42.4199 253.242L43.167 256.147L45.4199 255.568V253.242H42.4199ZM4.61992 262.962H1.61992V266.831L5.36704 265.867L4.61992 262.962ZM4.61992 257.724L3.8971 254.812L1.61992 255.377V257.724H4.61992ZM35.5079 250.056L36.2307 252.967L38.5079 252.402V250.056H35.5079ZM35.5079 249.948H38.5079V247.637L36.2736 247.047L35.5079 249.948ZM4.61992 241.794H1.61992V244.104L3.85419 244.694L4.61992 241.794ZM4.61992 235.746L3.85894 232.844L1.61992 233.431V235.746H4.61992ZM35.5079 227.646L36.2689 230.547L38.5079 229.96V227.646H35.5079ZM35.5079 227.538H38.5079V225.195L36.2355 224.627L35.5079 227.538ZM4.61992 219.816H1.61992V222.158L3.89231 222.726L4.61992 219.816ZM4.61992 214.578L3.8728 217.483L41.6728 227.203L42.4199 224.298L43.167 221.392L5.36704 211.672L4.61992 214.578ZM42.4199 224.298H39.4199V230.724H42.4199H45.4199V224.298H42.4199ZM42.4199 230.724L41.6547 227.823L11.3607 235.815L12.1259 238.716L12.8912 241.616L43.1852 233.624L42.4199 230.724ZM12.1259 238.716H9.12592V238.824H12.1259H15.1259V238.716H12.1259ZM12.1259 238.824L11.3607 241.724L41.6547 249.716L42.4199 246.816L43.1852 243.915L12.8912 235.923L12.1259 238.824ZM42.4199 246.816H39.4199V253.242H42.4199H45.4199V246.816H42.4199ZM42.4199 253.242L41.6728 250.336L3.8728 260.056L4.61992 262.962L5.36704 265.867L43.167 256.147L42.4199 253.242ZM4.61992 262.962H7.61992V257.724H4.61992H1.61992V262.962H4.61992ZM4.61992 257.724L5.34274 260.635L36.2307 252.967L35.5079 250.056L34.7851 247.144L3.8971 254.812L4.61992 257.724ZM35.5079 250.056H38.5079V249.948H35.5079H32.5079V250.056H35.5079ZM35.5079 249.948L36.2736 247.047L5.38565 238.893L4.61992 241.794L3.85419 244.694L34.7422 252.848L35.5079 249.948ZM4.61992 241.794H7.61992L7.61992 235.746H4.61992H1.61992V241.794H4.61992ZM4.61992 235.746L5.3809 238.647L36.2689 230.547L35.5079 227.646L34.7469 224.744L3.85894 232.844L4.61992 235.746ZM35.5079 227.646H38.5079V227.538H35.5079H32.5079V227.646H35.5079ZM35.5079 227.538L36.2355 224.627L5.34753 216.905L4.61992 219.816L3.89231 222.726L34.7803 230.448L35.5079 227.538ZM4.61992 219.816H7.61992V214.578H4.61992H1.61992V219.816H4.61992ZM31.3499 204.477H28.3499V207.477H31.3499V204.477ZM37.9919 204.477V207.477H40.9919V204.477H37.9919ZM37.9919 193.623H40.9919V190.623H37.9919V193.623ZM31.3499 193.623V190.623H28.3499V193.623H31.3499ZM42.6899 203.451L45.2877 204.951L45.6899 204.255V203.451H42.6899ZM39.0719 209.715V212.715H40.8036L41.6697 211.215L39.0719 209.715ZM30.2699 209.715L27.6721 211.215L28.5382 212.715H30.2699V209.715ZM26.6519 203.451H23.6519V204.255L24.0541 204.951L26.6519 203.451ZM26.6519 193.623H29.6519V190.623H26.6519V193.623ZM20.1179 193.623V190.623H17.1179V193.623H20.1179ZM20.1179 207.015V210.015H23.1179V207.015H20.1179ZM15.4199 207.015H12.4199V210.015H15.4199V207.015ZM15.4199 194.649L12.8221 193.148L12.4199 193.844V194.649H15.4199ZM19.0379 188.385V185.385H17.3062L16.4401 186.884L19.0379 188.385ZM42.6899 188.385H45.6899V185.385H42.6899V188.385ZM42.6899 189.789L45.2879 191.289L45.6899 190.593V189.789H42.6899ZM40.4759 193.623L37.878 192.122L37.0117 193.623L37.878 195.123L40.4759 193.623ZM42.6899 197.457H45.6899V196.653L45.2879 195.956L42.6899 197.457ZM31.3499 204.477V207.477H37.9919V204.477V201.477H31.3499V204.477ZM37.9919 204.477H40.9919V193.623H37.9919H34.9919V204.477H37.9919ZM37.9919 193.623V190.623H31.3499V193.623V196.623H37.9919V193.623ZM31.3499 193.623H28.3499V204.477H31.3499H34.3499V193.623H31.3499ZM42.6899 203.451L40.0921 201.95L36.4741 208.214L39.0719 209.715L41.6697 211.215L45.2877 204.951L42.6899 203.451ZM39.0719 209.715L39.0719 206.715H30.2699L30.2699 209.715V212.715H39.0719V209.715ZM30.2699 209.715L32.8677 208.214L29.2497 201.95L26.6519 203.451L24.0541 204.951L27.6721 211.215L30.2699 209.715ZM26.6519 203.451H29.6519V193.623H26.6519H23.6519V203.451H26.6519ZM26.6519 193.623V190.623H20.1179V193.623V196.623H26.6519V193.623ZM20.1179 193.623H17.1179V207.015H20.1179H23.1179V193.623H20.1179ZM20.1179 207.015V204.015H15.4199V207.015V210.015H20.1179V207.015ZM15.4199 207.015H18.4199V194.649H15.4199H12.4199V207.015H15.4199ZM15.4199 194.649L18.0177 196.149L21.6357 189.885L19.0379 188.385L16.4401 186.884L12.8221 193.148L15.4199 194.649ZM19.0379 188.385V191.385H42.6899V188.385V185.385H19.0379V188.385ZM42.6899 188.385H39.6899V189.789H42.6899H45.6899V188.385H42.6899ZM42.6899 189.789L40.092 188.288L37.878 192.122L40.4759 193.623L43.0739 195.123L45.2879 191.289L42.6899 189.789ZM40.4759 193.623L37.878 195.123L40.092 198.957L42.6899 197.457L45.2879 195.956L43.0739 192.122L40.4759 193.623ZM42.6899 197.457H39.6899V203.451H42.6899H45.6899V197.457H42.6899ZM20.1179 164.67H23.1179V161.67H20.1179V164.67ZM20.1179 174.498H17.1179V177.498H20.1179V174.498ZM42.4199 174.498H45.4199V171.498H42.4199V174.498ZM42.4199 179.736V182.736H45.4199V179.736H42.4199ZM15.4199 179.736H12.4199L12.4199 182.736H15.4199L15.4199 179.736ZM15.4199 175.794L13.9044 173.205L12.4199 174.074V175.794H15.4199ZM17.6339 174.498L19.1495 177.087L21.7233 175.581L20.2319 172.998L17.6339 174.498ZM15.4199 170.664H12.4199V171.468L12.822 172.164L15.4199 170.664ZM15.4199 164.67V161.67H12.4199V164.67H15.4199ZM20.1179 164.67H17.1179V174.498H20.1179H23.1179V164.67H20.1179ZM20.1179 174.498V177.498H42.4199V174.498V171.498H20.1179V174.498ZM42.4199 174.498H39.4199V179.736H42.4199H45.4199V174.498H42.4199ZM42.4199 179.736V176.736H15.4199V179.736L15.4199 182.736H42.4199V179.736ZM15.4199 179.736H18.4199V175.794H15.4199H12.4199V179.736H15.4199ZM15.4199 175.794L16.9355 178.383L19.1495 177.087L17.6339 174.498L16.1184 171.909L13.9044 173.205L15.4199 175.794ZM17.6339 174.498L20.2319 172.998L18.0179 169.164L15.4199 170.664L12.822 172.164L15.036 175.998L17.6339 174.498ZM15.4199 170.664H18.4199V164.67H15.4199H12.4199V170.664H15.4199ZM15.4199 164.67V167.67H20.1179V164.67V161.67H15.4199V164.67ZM39.0719 158.748V161.748H40.8036L41.6697 160.248L39.0719 158.748ZM15.4199 158.748H12.4199V161.748H15.4199V158.748ZM15.4199 153.51V150.51H12.4199V153.51H15.4199ZM37.9919 153.51V156.51H40.9919V153.51H37.9919ZM37.9919 141.036H40.9919V138.036H37.9919V141.036ZM15.4199 141.036H12.4199V144.036H15.4199V141.036ZM15.4199 135.798V132.798H12.4199V135.798H15.4199ZM42.6899 135.798H45.6899V132.798H42.6899V135.798ZM42.6899 139.74L44.2055 142.329L45.6899 141.46V139.74H42.6899ZM40.4759 141.036L38.9604 138.447L36.3866 139.953L37.878 142.536L40.4759 141.036ZM42.6899 144.87H45.6899V144.066L45.2879 143.37L42.6899 144.87ZM42.6899 152.484L45.2877 153.984L45.6899 153.288V152.484H42.6899ZM39.0719 158.748V155.748H15.4199V158.748V161.748H39.0719V158.748ZM15.4199 158.748H18.4199V153.51H15.4199H12.4199V158.748H15.4199ZM15.4199 153.51V156.51H37.9919V153.51V150.51H15.4199V153.51ZM37.9919 153.51H40.9919V141.036H37.9919H34.9919V153.51H37.9919ZM37.9919 141.036V138.036H15.4199V141.036V144.036H37.9919V141.036ZM15.4199 141.036H18.4199V135.798H15.4199H12.4199V141.036H15.4199ZM15.4199 135.798V138.798H42.6899V135.798V132.798H15.4199V135.798ZM42.6899 135.798H39.6899V139.74H42.6899H45.6899V135.798H42.6899ZM42.6899 139.74L41.1744 137.151L38.9604 138.447L40.4759 141.036L41.9915 143.625L44.2055 142.329L42.6899 139.74ZM40.4759 141.036L37.878 142.536L40.092 146.37L42.6899 144.87L45.2879 143.37L43.0739 139.536L40.4759 141.036ZM42.6899 144.87H39.6899V152.484H42.6899H45.6899V144.87H42.6899ZM42.6899 152.484L40.0921 150.983L36.4741 157.247L39.0719 158.748L41.6697 160.248L45.2877 153.984L42.6899 152.484ZM18.7679 90.818V87.818H17.0362L16.1701 89.3175L18.7679 90.818ZM42.4199 90.818H45.4199V87.818H42.4199V90.818ZM42.4199 96.056V99.056H45.4199V96.056H42.4199ZM19.8479 96.056V93.056H16.8479V96.056H19.8479ZM19.8479 106.37H16.8479V109.37H19.8479V106.37ZM42.4199 106.37H45.4199V103.37H42.4199V106.37ZM42.4199 111.608V114.608H45.4199V111.608H42.4199ZM19.8479 111.608V108.608H16.8479V111.608H19.8479ZM19.8479 121.922H16.8479L16.8479 124.922H19.8479L19.8479 121.922ZM42.4199 121.922H45.4199V118.922H42.4199V121.922ZM42.4199 127.16V130.16H45.4199V127.16H42.4199ZM15.1499 127.16H12.1499V130.16H15.1499V127.16ZM15.1499 123.218L13.6344 120.629L12.1499 121.498V123.218H15.1499ZM17.3639 121.922L18.8795 124.511L21.4533 123.004L19.9619 120.422L17.3639 121.922ZM15.1499 118.088H12.1499V118.892L12.552 119.588L15.1499 118.088ZM15.1499 112.634L12.5556 111.128L12.1499 111.826V112.634H15.1499ZM18.0659 107.612L20.6603 109.118L21.5303 107.62L20.6672 106.118L18.0659 107.612ZM15.1499 102.536H12.1499V103.336L12.5486 104.03L15.1499 102.536ZM15.1499 97.082L12.5521 95.5815L12.1499 96.2778V97.082H15.1499ZM18.7679 90.818V93.818H42.4199V90.818V87.818H18.7679V90.818ZM42.4199 90.818H39.4199L39.4199 96.056H42.4199H45.4199L45.4199 90.818H42.4199ZM42.4199 96.056L42.4199 93.056H19.8479V96.056V99.056H42.4199V96.056ZM19.8479 96.056H16.8479V106.37H19.8479H22.8479V96.056H19.8479ZM19.8479 106.37V109.37H42.4199V106.37V103.37H19.8479V106.37ZM42.4199 106.37H39.4199V111.608H42.4199H45.4199V106.37H42.4199ZM42.4199 111.608V108.608H19.8479V111.608V114.608H42.4199V111.608ZM19.8479 111.608H16.8479V121.922H19.8479H22.8479V111.608H19.8479ZM19.8479 121.922L19.8479 124.922H42.4199V121.922V118.922H19.8479V121.922ZM42.4199 121.922H39.4199V127.16H42.4199H45.4199V121.922H42.4199ZM42.4199 127.16V124.16H15.1499V127.16V130.16H42.4199V127.16ZM15.1499 127.16H18.1499L18.1499 123.218H15.1499H12.1499L12.1499 127.16H15.1499ZM15.1499 123.218L16.6655 125.807L18.8795 124.511L17.3639 121.922L15.8484 119.333L13.6344 120.629L15.1499 123.218ZM17.3639 121.922L19.9619 120.422L17.7479 116.588L15.1499 118.088L12.552 119.588L14.766 123.422L17.3639 121.922ZM15.1499 118.088H18.1499V112.634H15.1499H12.1499V118.088H15.1499ZM15.1499 112.634L17.7443 114.14L20.6603 109.118L18.0659 107.612L15.4716 106.106L12.5556 111.128L15.1499 112.634ZM18.0659 107.612L20.6672 106.118L17.7512 101.042L15.1499 102.536L12.5486 104.03L15.4646 109.106L18.0659 107.612ZM15.1499 102.536H18.1499V97.082H15.1499H12.1499V102.536H15.1499ZM15.1499 97.082L17.7477 98.5824L21.3657 92.3184L18.7679 90.818L16.1701 89.3175L12.5521 95.5815L15.1499 97.082ZM15.4199 62.9122V59.9122H12.4199V62.9122H15.4199ZM42.4199 62.9122H45.4199V59.9122H42.4199V62.9122ZM42.4199 68.1502V71.1502H45.4199V68.1502H42.4199ZM15.4199 68.1502H12.4199V71.1502H15.4199V68.1502ZM8.77792 68.4202V71.4202H11.7779V68.4202H8.77792ZM2.99992 68.4202H-8.01086e-05V71.4202H2.99992V68.4202ZM2.99992 62.6422V59.6422H-8.01086e-05V62.6422H2.99992ZM8.77792 62.6422H11.7779V59.6422H8.77792V62.6422ZM15.4199 62.9122V65.9122H42.4199V62.9122V59.9122H15.4199V62.9122ZM42.4199 62.9122H39.4199V68.1502H42.4199H45.4199V62.9122H42.4199ZM42.4199 68.1502V65.1502H15.4199L15.4199 68.1502V71.1502H42.4199V68.1502ZM15.4199 68.1502H18.4199L18.4199 62.9122H15.4199H12.4199L12.4199 68.1502H15.4199ZM8.77792 68.4202L8.77792 65.4202H2.99992V68.4202V71.4202H8.77792V68.4202ZM2.99992 68.4202H5.99992V62.6422H2.99992H-8.01086e-05V68.4202H2.99992ZM2.99992 62.6422V65.6422H8.77792V62.6422V59.6422H2.99992V62.6422ZM8.77792 62.6422H5.77792V68.4202H8.77792H11.7779L11.7779 62.6422H8.77792ZM20.1179 49.0431H17.1179V52.0431H20.1179V49.0431ZM37.7219 49.0431V52.0431H40.7219V49.0431H37.7219ZM37.7219 34.0311V31.0311H34.7219V34.0311H37.7219ZM42.4199 34.0311H45.4199V31.0311H42.4199V34.0311ZM42.4199 48.0171L45.0177 49.5175L45.4199 48.8212V48.0171H42.4199ZM38.8019 54.2811V57.2811H40.5336L41.3997 55.7815L38.8019 54.2811ZM19.0379 54.2811L16.4401 55.7815L17.3062 57.2811H19.0379V54.2811ZM15.4199 48.0171H12.4199V48.8212L12.8221 49.5175L15.4199 48.0171ZM15.4199 34.0311V31.0311H12.4199V34.0311H15.4199ZM20.1179 34.0311H23.1179V31.0311H20.1179V34.0311ZM20.1179 49.0431V52.0431H37.7219V49.0431V46.0431H20.1179V49.0431ZM37.7219 49.0431H40.7219V34.0311H37.7219H34.7219V49.0431H37.7219ZM37.7219 34.0311V37.0311H42.4199V34.0311V31.0311H37.7219V34.0311ZM42.4199 34.0311H39.4199V48.0171H42.4199H45.4199V34.0311H42.4199ZM42.4199 48.0171L39.8221 46.5166L36.2041 52.7806L38.8019 54.2811L41.3997 55.7815L45.0177 49.5175L42.4199 48.0171ZM38.8019 54.2811V51.2811H19.0379V54.2811V57.2811H38.8019V54.2811ZM19.0379 54.2811L21.6357 52.7806L18.0177 46.5166L15.4199 48.0171L12.8221 49.5175L16.4401 55.7815L19.0379 54.2811ZM15.4199 48.0171H18.4199V34.0311H15.4199H12.4199V48.0171H15.4199ZM15.4199 34.0311V37.0311H20.1179V34.0311V31.0311H15.4199V34.0311ZM20.1179 34.0311H17.1179V49.0431H20.1179H23.1179V34.0311H20.1179ZM42.4199 21.2521H45.4199V18.2521H42.4199V21.2521ZM42.4199 26.4901V29.4901H45.4199V26.4901H42.4199ZM2.99992 26.4901H-8.01086e-05V29.4901H2.99992V26.4901ZM2.99992 21.2521V18.2521H-8.01086e-05V21.2521H2.99992ZM17.3639 21.2521V24.2521H22.5606L19.9619 19.7518L17.3639 21.2521ZM15.1499 17.4181H12.1499V18.222L12.552 18.9183L15.1499 17.4181ZM15.1499 9.26405L12.5521 7.76361L12.1499 8.45993V9.26405H15.1499ZM18.7679 3.00006V6.10352e-05H17.0362L16.1701 1.4996L18.7679 3.00006ZM42.4199 3.00006H45.4199V6.10352e-05H42.4199V3.00006ZM42.4199 8.23807V11.2381H45.4199V8.23807H42.4199ZM19.8479 8.23807V5.23807H16.8479V8.23807H19.8479ZM19.8479 21.2521H16.8479V24.2521H19.8479V21.2521ZM42.4199 21.2521H39.4199V26.4901H42.4199H45.4199V21.2521H42.4199ZM42.4199 26.4901V23.4901H2.99992L2.99992 26.4901V29.4901H42.4199V26.4901ZM2.99992 26.4901H5.99992L5.99992 21.2521H2.99992H-8.01086e-05L-8.01086e-05 26.4901H2.99992ZM2.99992 21.2521V24.2521H17.3639V21.2521V18.2521H2.99992V21.2521ZM17.3639 21.2521L19.9619 19.7518L17.7479 15.9178L15.1499 17.4181L12.552 18.9183L14.766 22.7523L17.3639 21.2521ZM15.1499 17.4181H18.1499L18.1499 9.26405H15.1499H12.1499L12.1499 17.4181H15.1499ZM15.1499 9.26405L17.7477 10.7645L21.3657 4.50052L18.7679 3.00006L16.1701 1.4996L12.5521 7.76361L15.1499 9.26405ZM18.7679 3.00006V6.00006H42.4199V3.00006V6.10352e-05H18.7679V3.00006ZM42.4199 3.00006H39.4199V8.23807H42.4199H45.4199V3.00006H42.4199ZM42.4199 8.23807V5.23807H19.8479V8.23807L19.8479 11.2381H42.4199V8.23807ZM19.8479 8.23807H16.8479L16.8479 21.2521H19.8479H22.8479L22.8479 8.23807H19.8479ZM19.8479 21.2521V24.2521H42.4199V21.2521V18.2521H19.8479V21.2521Z" fill="#B5E93B" mask="url(#path-1-outside-1_3113_1920)"/>
</svg>
