<svg width="64" height="256" viewBox="0 0 64 256" fill="none" xmlns="http://www.w3.org/2000/svg">
<mask id="path-1-outside-1_3113_1919" maskUnits="userSpaceOnUse" x="8" y="9" width="47" height="247" fill="black">
<rect fill="white" x="8" y="9" width="47" height="247"/>
<path d="M13.2 202.996L51 212.716V219.142L20.706 227.134V227.242L51 235.234V241.66L13.2 251.38V246.142L44.088 238.474V238.366L13.2 230.212V224.164L44.088 216.064V215.956L13.2 208.234V202.996ZM39.93 192.895H46.572V182.041H39.93V192.895ZM51.27 191.869L47.652 198.133H38.85L35.232 191.869V182.041H28.698V195.433H24V183.067L27.618 176.803H51.27V178.207L49.056 182.041L51.27 185.875V191.869ZM47.652 168.155H24V162.917H46.572V150.443H24V145.205H51.27V149.147L49.056 150.443L51.27 154.277V161.891L47.652 168.155ZM27.348 100.225H51V105.463H28.428L28.428 115.777H51V121.015H28.428V131.329H51V136.567H23.73V132.625L25.944 131.329L23.73 127.495V122.041L26.646 117.019L23.73 111.943V106.489L27.348 100.225ZM24 72.319H51V77.557H24V72.319ZM17.358 77.827H11.58V72.049H17.358V77.827ZM28.698 58.4498H46.302V43.4378H51V57.4238L47.382 63.6878H27.618L24 57.4238L24 43.4378H28.698L28.698 58.4498ZM51 30.6588V35.8968H11.58V30.6588H25.944L23.73 26.8248V18.6708L27.348 12.4068H51V17.6448H28.428V30.6588H51Z"/>
</mask>
<path d="M13.2 202.996L13.9471 200.091L10.2 199.127V202.996H13.2ZM51 212.716H54V210.39L51.7471 209.811L51 212.716ZM51 219.142L51.7653 222.043L54 221.453V219.142H51ZM20.706 227.134L19.9407 224.233L17.706 224.823V227.134H20.706ZM20.706 227.242H17.706V229.553L19.9407 230.143L20.706 227.242ZM51 235.234H54V232.923L51.7653 232.333L51 235.234ZM51 241.66L51.7471 244.565L54 243.986V241.66H51ZM13.2 251.38H10.2V255.249L13.9471 254.285L13.2 251.38ZM13.2 246.142L12.4772 243.23L10.2 243.796V246.142H13.2ZM44.088 238.474L44.8108 241.386L47.088 240.82V238.474H44.088ZM44.088 238.366H47.088V236.055L44.8537 235.465L44.088 238.366ZM13.2 230.212H10.2V232.523L12.4343 233.113L13.2 230.212ZM13.2 224.164L12.439 221.262L10.2 221.849V224.164H13.2ZM44.088 216.064L44.849 218.966L47.088 218.379V216.064H44.088ZM44.088 215.956H47.088V213.614L44.8156 213.046L44.088 215.956ZM13.2 208.234H10.2V210.576L12.4724 211.144L13.2 208.234ZM13.2 202.996L12.4529 205.901L50.2529 215.621L51 212.716L51.7471 209.811L13.9471 200.091L13.2 202.996ZM51 212.716H48V219.142H51H54V212.716H51ZM51 219.142L50.2347 216.241L19.9407 224.233L20.706 227.134L21.4713 230.035L51.7653 222.043L51 219.142ZM20.706 227.134H17.706V227.242H20.706H23.706V227.134H20.706ZM20.706 227.242L19.9407 230.143L50.2347 238.135L51 235.234L51.7653 232.333L21.4713 224.341L20.706 227.242ZM51 235.234H48V241.66H51H54V235.234H51ZM51 241.66L50.2529 238.755L12.4529 248.475L13.2 251.38L13.9471 254.285L51.7471 244.565L51 241.66ZM13.2 251.38H16.2V246.142H13.2H10.2V251.38H13.2ZM13.2 246.142L13.9228 249.054L44.8108 241.386L44.088 238.474L43.3652 235.562L12.4772 243.23L13.2 246.142ZM44.088 238.474H47.088V238.366H44.088H41.088V238.474H44.088ZM44.088 238.366L44.8537 235.465L13.9657 227.311L13.2 230.212L12.4343 233.113L43.3223 241.267L44.088 238.366ZM13.2 230.212H16.2L16.2 224.164H13.2H10.2V230.212H13.2ZM13.2 224.164L13.961 227.066L44.849 218.966L44.088 216.064L43.327 213.162L12.439 221.262L13.2 224.164ZM44.088 216.064H47.088V215.956H44.088H41.088V216.064H44.088ZM44.088 215.956L44.8156 213.046L13.9276 205.324L13.2 208.234L12.4724 211.144L43.3604 218.866L44.088 215.956ZM13.2 208.234H16.2V202.996H13.2H10.2V208.234H13.2ZM39.93 192.895H36.93V195.895H39.93V192.895ZM46.572 192.895V195.895H49.572V192.895H46.572ZM46.572 182.041H49.572V179.041H46.572V182.041ZM39.93 182.041V179.041H36.93V182.041H39.93ZM51.27 191.869L53.8678 193.37L54.27 192.673V191.869H51.27ZM47.652 198.133V201.133H49.3837L50.2498 199.634L47.652 198.133ZM38.85 198.133L36.2522 199.634L37.1183 201.133H38.85V198.133ZM35.232 191.869H32.232V192.673L32.6342 193.37L35.232 191.869ZM35.232 182.041H38.232V179.041H35.232V182.041ZM28.698 182.041V179.041H25.698V182.041H28.698ZM28.698 195.433V198.433H31.698V195.433H28.698ZM24 195.433H21V198.433H24V195.433ZM24 183.067L21.4022 181.567L21 182.263V183.067H24ZM27.618 176.803V173.803H25.8863L25.0202 175.303L27.618 176.803ZM51.27 176.803H54.27V173.803H51.27V176.803ZM51.27 178.207L53.8679 179.707L54.27 179.011V178.207H51.27ZM49.056 182.041L46.4581 180.541L45.5917 182.041L46.4581 183.541L49.056 182.041ZM51.27 185.875H54.27V185.071L53.8679 184.375L51.27 185.875ZM39.93 192.895V195.895H46.572V192.895V189.895H39.93V192.895ZM46.572 192.895H49.572V182.041H46.572H43.572V192.895H46.572ZM46.572 182.041V179.041H39.93V182.041V185.041H46.572V182.041ZM39.93 182.041H36.93V192.895H39.93H42.93V182.041H39.93ZM51.27 191.869L48.6722 190.369L45.0542 196.633L47.652 198.133L50.2498 199.634L53.8678 193.37L51.27 191.869ZM47.652 198.133L47.652 195.133H38.85L38.85 198.133V201.133H47.652V198.133ZM38.85 198.133L41.4478 196.633L37.8298 190.369L35.232 191.869L32.6342 193.37L36.2522 199.634L38.85 198.133ZM35.232 191.869H38.232V182.041H35.232H32.232V191.869H35.232ZM35.232 182.041V179.041H28.698V182.041V185.041H35.232V182.041ZM28.698 182.041H25.698V195.433H28.698H31.698V182.041H28.698ZM28.698 195.433V192.433H24V195.433V198.433H28.698V195.433ZM24 195.433H27V183.067H24H21V195.433H24ZM24 183.067L26.5978 184.568L30.2158 178.304L27.618 176.803L25.0202 175.303L21.4022 181.567L24 183.067ZM27.618 176.803V179.803H51.27V176.803V173.803H27.618V176.803ZM51.27 176.803H48.27V178.207H51.27H54.27V176.803H51.27ZM51.27 178.207L48.6721 176.707L46.4581 180.541L49.056 182.041L51.6539 183.541L53.8679 179.707L51.27 178.207ZM49.056 182.041L46.4581 183.541L48.6721 187.375L51.27 185.875L53.8679 184.375L51.6539 180.541L49.056 182.041ZM51.27 185.875H48.27V191.869H51.27H54.27V185.875H51.27ZM47.652 168.155V171.155H49.3837L50.2498 169.655L47.652 168.155ZM24 168.155H21L21 171.155H24L24 168.155ZM24 162.917V159.917H21V162.917H24ZM46.572 162.917V165.917H49.572V162.917H46.572ZM46.572 150.443H49.572V147.443H46.572V150.443ZM24 150.443H21V153.443H24V150.443ZM24 145.205V142.205H21V145.205H24ZM51.27 145.205H54.27V142.205H51.27V145.205ZM51.27 149.147L52.7855 151.736L54.27 150.867V149.147H51.27ZM49.056 150.443L47.5405 147.854L44.9667 149.36L46.4581 151.943L49.056 150.443ZM51.27 154.277H54.27V153.473L53.8679 152.776L51.27 154.277ZM51.27 161.891L53.8678 163.391L54.27 162.695V161.891H51.27ZM47.652 168.155V165.155H24V168.155L24 171.155H47.652V168.155ZM24 168.155H27V162.917H24H21V168.155H24ZM24 162.917V165.917H46.572V162.917V159.917H24V162.917ZM46.572 162.917H49.572V150.443H46.572H43.572V162.917H46.572ZM46.572 150.443V147.443H24V150.443V153.443H46.572V150.443ZM24 150.443H27V145.205H24H21V150.443H24ZM24 145.205V148.205H51.27V145.205V142.205H24V145.205ZM51.27 145.205H48.27V149.147H51.27H54.27V145.205H51.27ZM51.27 149.147L49.7545 146.558L47.5405 147.854L49.056 150.443L50.5715 153.032L52.7855 151.736L51.27 149.147ZM49.056 150.443L46.4581 151.943L48.6721 155.777L51.27 154.277L53.8679 152.776L51.6539 148.942L49.056 150.443ZM51.27 154.277H48.27V161.891H51.27H54.27V154.277H51.27ZM51.27 161.891L48.6722 160.39L45.0542 166.654L47.652 168.155L50.2498 169.655L53.8678 163.391L51.27 161.891ZM27.348 100.225V97.2247H25.6163L24.7502 98.7243L27.348 100.225ZM51 100.225H54V97.2247H51V100.225ZM51 105.463V108.463H54V105.463H51ZM28.428 105.463V102.463H25.428V105.463H28.428ZM28.428 115.777H25.428V118.777H28.428V115.777ZM51 115.777H54V112.777H51V115.777ZM51 121.015V124.015H54V121.015H51ZM28.428 121.015V118.015H25.428V121.015H28.428ZM28.428 131.329H25.428V134.329H28.428V131.329ZM51 131.329H54V128.329H51V131.329ZM51 136.567V139.567H54V136.567H51ZM23.73 136.567H20.73V139.567H23.73V136.567ZM23.73 132.625L22.2145 130.036L20.73 130.905V132.625H23.73ZM25.944 131.329L27.4595 133.918L30.0333 132.411L28.5419 129.828L25.944 131.329ZM23.73 127.495H20.73V128.299L21.1321 128.995L23.73 127.495ZM23.73 122.041L21.1356 120.534L20.73 121.233V122.041H23.73ZM26.646 117.019L29.2404 118.525L30.1104 117.027L29.2473 115.524L26.646 117.019ZM23.73 111.943H20.73L20.73 112.743L21.1287 113.437L23.73 111.943ZM23.73 106.489L21.1322 104.988L20.73 105.685V106.489H23.73ZM27.348 100.225V103.225H51V100.225V97.2247H27.348V100.225ZM51 100.225H48V105.463H51H54V100.225H51ZM51 105.463V102.463H28.428V105.463V108.463H51V105.463ZM28.428 105.463H25.428L25.428 115.777H28.428H31.428L31.428 105.463H28.428ZM28.428 115.777V118.777H51V115.777V112.777H28.428V115.777ZM51 115.777H48V121.015H51H54V115.777H51ZM51 121.015V118.015H28.428V121.015V124.015H51V121.015ZM28.428 121.015H25.428V131.329H28.428H31.428V121.015H28.428ZM28.428 131.329V134.329H51V131.329V128.329H28.428V131.329ZM51 131.329H48V136.567H51H54V131.329H51ZM51 136.567V133.567H23.73V136.567V139.567H51V136.567ZM23.73 136.567H26.73V132.625H23.73H20.73V136.567H23.73ZM23.73 132.625L25.2455 135.214L27.4595 133.918L25.944 131.329L24.4285 128.74L22.2145 130.036L23.73 132.625ZM25.944 131.329L28.5419 129.828L26.3279 125.994L23.73 127.495L21.1321 128.995L23.3461 132.829L25.944 131.329ZM23.73 127.495H26.73V122.041H23.73H20.73V127.495H23.73ZM23.73 122.041L26.3244 123.547L29.2404 118.525L26.646 117.019L24.0516 115.512L21.1356 120.534L23.73 122.041ZM26.646 117.019L29.2473 115.524L26.3313 110.448L23.73 111.943L21.1287 113.437L24.0447 118.513L26.646 117.019ZM23.73 111.943H26.73V106.489H23.73H20.73V111.943H23.73ZM23.73 106.489L26.3278 107.989L29.9458 101.725L27.348 100.225L24.7502 98.7243L21.1322 104.988L23.73 106.489ZM24 72.319V69.319H21V72.319H24ZM51 72.319H54V69.319H51V72.319ZM51 77.5569V80.5569H54V77.5569H51ZM24 77.5569H21V80.5569H24V77.5569ZM17.358 77.827V80.827H20.358V77.827H17.358ZM11.58 77.827H8.58V80.827H11.58V77.827ZM11.58 72.049L11.58 69.049H8.58L8.58 72.049H11.58ZM17.358 72.049H20.358V69.049H17.358V72.049ZM24 72.319V75.319H51V72.319V69.319H24V72.319ZM51 72.319H48V77.5569H51H54V72.319H51ZM51 77.5569V74.5569H24V77.5569V80.5569H51V77.5569ZM24 77.5569H27V72.319H24H21V77.5569H24ZM17.358 77.827V74.827H11.58V77.827V80.827H17.358V77.827ZM11.58 77.827H14.58V72.049H11.58H8.58V77.827H11.58ZM11.58 72.049V75.049H17.358V72.049V69.049H11.58L11.58 72.049ZM17.358 72.049H14.358V77.827H17.358H20.358V72.049H17.358ZM28.698 58.4498H25.698V61.4498H28.698V58.4498ZM46.302 58.4498V61.4498H49.302V58.4498H46.302ZM46.302 43.4378V40.4378H43.302V43.4378H46.302ZM51 43.4378H54V40.4378H51V43.4378ZM51 57.4238L53.5978 58.9243L54 58.228V57.4238H51ZM47.382 63.6878V66.6878H49.1137L49.9798 65.1883L47.382 63.6878ZM27.618 63.6878L25.0202 65.1883L25.8863 66.6878H27.618V63.6878ZM24 57.4238H21V58.2279L21.4022 58.9243L24 57.4238ZM24 43.4378V40.4378H21V43.4378H24ZM28.698 43.4378H31.698V40.4378H28.698V43.4378ZM28.698 58.4498V61.4498H46.302V58.4498V55.4498H28.698L28.698 58.4498ZM46.302 58.4498H49.302V43.4378H46.302H43.302V58.4498H46.302ZM46.302 43.4378V46.4378H51V43.4378V40.4378H46.302V43.4378ZM51 43.4378H48V57.4238H51H54V43.4378H51ZM51 57.4238L48.4022 55.9234L44.7842 62.1873L47.382 63.6878L49.9798 65.1883L53.5978 58.9243L51 57.4238ZM47.382 63.6878V60.6878H27.618V63.6878V66.6878H47.382V63.6878ZM27.618 63.6878L30.2158 62.1873L26.5978 55.9234L24 57.4238L21.4022 58.9243L25.0202 65.1883L27.618 63.6878ZM24 57.4238H27L27 43.4378H24H21L21 57.4238H24ZM24 43.4378V46.4378H28.698V43.4378V40.4378H24V43.4378ZM28.698 43.4378H25.698L25.698 58.4498H28.698H31.698L31.698 43.4378H28.698ZM51 30.6588H54V27.6588H51V30.6588ZM51 35.8968V38.8968H54V35.8968H51ZM11.58 35.8968H8.58V38.8968H11.58V35.8968ZM11.58 30.6588V27.6588H8.58V30.6588H11.58ZM25.944 30.6588V33.6588H31.1407L28.5419 29.1586L25.944 30.6588ZM23.73 26.8248H20.73V27.6288L21.1321 28.325L23.73 26.8248ZM23.73 18.6708L21.1322 17.1703L20.73 17.8667V18.6708H23.73ZM27.348 12.4068V9.4068H25.6163L24.7502 10.9063L27.348 12.4068ZM51 12.4068H54V9.4068H51V12.4068ZM51 17.6448V20.6448H54V17.6448H51ZM28.428 17.6448V14.6448H25.428V17.6448H28.428ZM28.428 30.6588H25.428V33.6588H28.428V30.6588ZM51 30.6588H48V35.8968H51H54V30.6588H51ZM51 35.8968V32.8968H11.58V35.8968V38.8968H51V35.8968ZM11.58 35.8968H14.58V30.6588H11.58H8.58V35.8968H11.58ZM11.58 30.6588V33.6588H25.944V30.6588V27.6588H11.58V30.6588ZM25.944 30.6588L28.5419 29.1586L26.3279 25.3246L23.73 26.8248L21.1321 28.325L23.3461 32.159L25.944 30.6588ZM23.73 26.8248H26.73V18.6708H23.73H20.73V26.8248H23.73ZM23.73 18.6708L26.3278 20.1712L29.9458 13.9073L27.348 12.4068L24.7502 10.9063L21.1322 17.1703L23.73 18.6708ZM27.348 12.4068V15.4068H51V12.4068V9.4068H27.348V12.4068ZM51 12.4068H48V17.6448H51H54V12.4068H51ZM51 17.6448V14.6448H28.428V17.6448V20.6448H51V17.6448ZM28.428 17.6448H25.428V30.6588H28.428H31.428V17.6448H28.428ZM28.428 30.6588V33.6588H51V30.6588V27.6588H28.428V30.6588Z" fill="#B5E93B" mask="url(#path-1-outside-1_3113_1919)"/>
</svg>
