<svg width="135" height="43" viewBox="0 0 135 43" fill="none" xmlns="http://www.w3.org/2000/svg">
<rect width="135" height="43" rx="21.5" fill="#B5E93B"/>
<path d="M36.79 23.55H38.19V25.132L36.566 26.07H32.884L31.26 25.132V17.068L32.884 16.13H36.566L38.19 17.068V18.65H36.79V17.39H32.66V24.81H36.79V23.55ZM46.3805 25.132L44.7565 26.07H42.0545L40.4305 25.132V19.868L42.0545 18.93H44.7565L46.3805 19.868V25.132ZM41.7885 20.148V24.852H45.0225V20.148H41.7885ZM54.57 19.868V26H53.212V20.148H49.978V26H48.62V18.93H49.642L49.978 19.504L50.972 18.93H52.946L54.57 19.868ZM56.2495 20.218V19H57.5375V17.824L58.8955 17.04V19H60.5755V20.218H58.8955V24.782H60.5755V26H59.1615L57.5375 25.062V20.218H56.2495ZM63.616 23.13V24.852H66.43V23.13H63.616ZM63.882 26.07L62.258 25.132V22.85L63.882 21.912H66.43V20.218H62.958V19H66.164L67.788 19.938V26.07H67.424L66.43 25.496L65.436 26.07H63.882ZM71.3882 20.218V24.782H75.2802V26H71.6542L70.0302 25.062V19.938L71.6542 19H75.2802V20.218H71.3882ZM76.6752 20.218V19H77.9632V17.824L79.3212 17.04V19H81.0012V20.218H79.3212V24.782H81.0012V26H79.5872L77.9632 25.062V20.218H76.6752ZM96.0225 19.868V26H94.6645V20.148H91.9905V26H90.6325V20.148H87.9585V26H86.6005V18.93H87.6225L87.9585 19.504L88.9525 18.93H90.3665L91.6685 19.686L92.9845 18.93H94.3985L96.0225 19.868ZM103.793 24.782V26H99.8866L98.2626 25.062V19.868L99.8866 18.93H102.169L103.793 19.868V22.976H99.6206V24.782H103.793ZM99.6206 20.148V21.758H102.435V20.148H99.6206Z" fill="#252525"/>
</svg>
