<svg width="45" height="286" viewBox="0 0 45 286" fill="none" xmlns="http://www.w3.org/2000/svg">
<mask id="path-1-outside-1_3113_1859" maskUnits="userSpaceOnUse" x="-0.929688" y="-0.371582" width="46" height="287" fill="black">
<rect fill="white" x="-0.929688" y="-0.371582" width="46" height="287"/>
<path d="M31.6203 261.438V256.038H37.7223L41.3403 262.302V276.504L37.7223 282.768H6.61831L3.00031 276.504L3.00031 262.302L6.61831 256.038H12.7203L12.7203 261.438H7.86031V277.368H36.4803V261.438H31.6203ZM37.7223 224.446L41.3403 230.71L41.3403 241.132L37.7223 247.396H17.4183L13.8003 241.132V230.71L17.4183 224.446H37.7223ZM18.4983 242.158H36.6423L36.6423 229.684H18.4983V242.158ZM17.4183 192.858H41.0703V198.096H18.4983L18.4983 210.57H41.0703V215.808H13.8003V211.866L16.0143 210.57L13.8003 206.736L13.8003 199.122L17.4183 192.858ZM18.7683 186.381H14.0703V181.413H9.53431L6.51031 176.175H14.0703V169.695H18.7683V176.175H36.3723V169.695H41.0703V175.149L37.4523 181.413H18.7683V186.381ZM30.0003 157.967H36.6423V147.113H30.0003V157.967ZM41.3403 156.941L37.7223 163.205H28.9203L25.3023 156.941V147.113H18.7683V160.505H14.0703V148.139L17.6883 141.875H41.3403V143.279L39.1263 147.113L41.3403 150.947V156.941ZM18.7683 127.988H36.3723L36.3723 112.976H41.0703L41.0703 126.962L37.4523 133.226H17.6883L14.0703 126.962V112.976H18.7683V127.988ZM18.7683 107.595H14.0703V102.627H9.53431L6.51031 97.3894H14.0703V90.9094H18.7683V97.3894H36.3723V90.9094H41.0703V96.3634L37.4523 102.627H18.7683V107.595ZM17.4183 32.9703H41.0703V38.2083H18.4983V48.5223H41.0703V53.7603H18.4983V64.0743H41.0703V69.3123H13.8003V65.3703L16.0143 64.0743L13.8003 60.2403V54.7863L16.7163 49.7643L13.8003 44.6883V39.2343L17.4183 32.9703ZM36.3723 2.9999H41.0703L41.0703 18.0659L37.4523 24.3299H17.4183L13.8003 18.0659V9.2639L17.4183 2.9999H29.4063L29.4063 19.0919H36.3723L36.3723 2.9999ZM18.4983 19.0919H24.7083V8.2379H18.4983V19.0919Z"/>
</mask>
<path d="M31.6203 261.438H28.6203V264.438H31.6203V261.438ZM31.6203 256.038V253.038H28.6203V256.038H31.6203ZM37.7223 256.038L40.3201 254.538L39.454 253.038H37.7223V256.038ZM41.3403 262.302H44.3403V261.498L43.9381 260.802L41.3403 262.302ZM41.3403 276.504L43.9381 278.005L44.3403 277.309V276.504H41.3403ZM37.7223 282.768V285.768H39.454L40.3201 284.269L37.7223 282.768ZM6.61831 282.768L4.0205 284.269L4.88661 285.768H6.61831V282.768ZM3.00031 276.504H0.000309944V277.309L0.402499 278.005L3.00031 276.504ZM3.00031 262.302L0.402499 260.802L0.000309944 261.498V262.302H3.00031ZM6.61831 256.038V253.038H4.88661L4.0205 254.538L6.61831 256.038ZM12.7203 256.038H15.7203V253.038H12.7203V256.038ZM12.7203 261.438V264.438H15.7203V261.438H12.7203ZM7.86031 261.438L7.86031 258.438H4.86031V261.438H7.86031ZM7.86031 277.368H4.86031V280.368H7.86031V277.368ZM36.4803 277.368V280.368H39.4803V277.368H36.4803ZM36.4803 261.438H39.4803V258.438H36.4803V261.438ZM34.6203 261.438V256.038H28.6203V261.438H34.6203ZM31.6203 259.038H37.7223V253.038H31.6203V259.038ZM35.1245 257.539L38.7425 263.803L43.9381 260.802L40.3201 254.538L35.1245 257.539ZM38.3403 262.302V276.504H44.3403V262.302H38.3403ZM38.7425 275.004L35.1245 281.268L40.3201 284.269L43.9381 278.005L38.7425 275.004ZM37.7223 279.768H6.61831V285.768H37.7223V279.768ZM9.21612 281.268L5.59812 275.004L0.402499 278.005L4.0205 284.269L9.21612 281.268ZM6.00031 276.504L6.00031 262.302H0.000309944L0.000309944 276.504H6.00031ZM5.59812 263.803L9.21612 257.539L4.0205 254.538L0.402499 260.802L5.59812 263.803ZM6.61831 259.038H12.7203V253.038H6.61831V259.038ZM9.72031 256.038L9.72031 261.438H15.7203L15.7203 256.038H9.72031ZM12.7203 258.438H7.86031L7.86031 264.438H12.7203L12.7203 258.438ZM4.86031 261.438L4.86031 277.368H10.8603V261.438H4.86031ZM7.86031 280.368H36.4803V274.368H7.86031V280.368ZM39.4803 277.368V261.438H33.4803V277.368H39.4803ZM36.4803 258.438H31.6203V264.438H36.4803V258.438ZM37.7223 224.446L40.3201 222.946L39.454 221.446H37.7223V224.446ZM41.3403 230.71H44.3403V229.906L43.9381 229.21L41.3403 230.71ZM41.3403 241.132L43.9381 242.633L44.3403 241.936V241.132H41.3403ZM37.7223 247.396V250.396H39.454L40.3201 248.897L37.7223 247.396ZM17.4183 247.396L14.8205 248.897L15.6866 250.396H17.4183V247.396ZM13.8003 241.132H10.8003V241.936L11.2025 242.633L13.8003 241.132ZM13.8003 230.71L11.2025 229.21L10.8003 229.906V230.71H13.8003ZM17.4183 224.446V221.446H15.6866L14.8205 222.946L17.4183 224.446ZM18.4983 242.158H15.4983V245.158H18.4983V242.158ZM36.6423 242.158V245.158H39.6423V242.158H36.6423ZM36.6423 229.684H39.6423V226.684H36.6423V229.684ZM18.4983 229.684V226.684H15.4983V229.684H18.4983ZM35.1245 225.947L38.7425 232.211L43.9381 229.21L40.3201 222.946L35.1245 225.947ZM38.3403 230.71L38.3403 241.132H44.3403L44.3403 230.71H38.3403ZM38.7425 239.632L35.1245 245.896L40.3201 248.897L43.9381 242.633L38.7425 239.632ZM37.7223 244.396H17.4183V250.396H37.7223V244.396ZM20.0161 245.896L16.3981 239.632L11.2025 242.633L14.8205 248.897L20.0161 245.896ZM16.8003 241.132V230.71H10.8003V241.132H16.8003ZM16.3981 232.211L20.0161 225.947L14.8205 222.946L11.2025 229.21L16.3981 232.211ZM17.4183 227.446H37.7223V221.446H17.4183V227.446ZM18.4983 245.158H36.6423V239.158H18.4983V245.158ZM39.6423 242.158L39.6423 229.684H33.6423L33.6423 242.158H39.6423ZM36.6423 226.684H18.4983V232.684H36.6423L36.6423 226.684ZM15.4983 229.684V242.158H21.4983V229.684H15.4983ZM17.4183 192.858V189.858H15.6866L14.8205 191.358L17.4183 192.858ZM41.0703 192.858H44.0703V189.858H41.0703V192.858ZM41.0703 198.096V201.096H44.0703V198.096H41.0703ZM18.4983 198.096V195.096H15.4983V198.096H18.4983ZM18.4983 210.57H15.4983V213.57H18.4983V210.57ZM41.0703 210.57H44.0703V207.57H41.0703V210.57ZM41.0703 215.808V218.808H44.0703V215.808H41.0703ZM13.8003 215.808H10.8003V218.808H13.8003V215.808ZM13.8003 211.866L12.2848 209.277L10.8003 210.146V211.866H13.8003ZM16.0143 210.57L17.5299 213.159L20.1036 211.653L18.6123 209.07L16.0143 210.57ZM13.8003 206.736H10.8003V207.54L11.2024 208.237L13.8003 206.736ZM13.8003 199.122L11.2025 197.622L10.8003 198.318V199.122H13.8003ZM17.4183 195.858H41.0703V189.858H17.4183V195.858ZM38.0703 192.858V198.096H44.0703V192.858H38.0703ZM41.0703 195.096H18.4983V201.096H41.0703V195.096ZM15.4983 198.096L15.4983 210.57H21.4983L21.4983 198.096H15.4983ZM18.4983 213.57H41.0703V207.57H18.4983V213.57ZM38.0703 210.57V215.808H44.0703V210.57H38.0703ZM41.0703 212.808H13.8003V218.808H41.0703V212.808ZM16.8003 215.808V211.866H10.8003V215.808H16.8003ZM15.3159 214.455L17.5299 213.159L14.4988 207.981L12.2848 209.277L15.3159 214.455ZM18.6123 209.07L16.3983 205.236L11.2024 208.237L13.4164 212.071L18.6123 209.07ZM16.8003 206.736L16.8003 199.122H10.8003L10.8003 206.736H16.8003ZM16.3981 200.623L20.0161 194.359L14.8205 191.358L11.2025 197.622L16.3981 200.623ZM18.7683 186.381V189.381H21.7683V186.381H18.7683ZM14.0703 186.381H11.0703V189.381H14.0703V186.381ZM14.0703 181.413H17.0703V178.413H14.0703V181.413ZM9.53431 181.413L6.9362 182.912L7.80221 184.413H9.53431V181.413ZM6.51031 176.175V173.175H1.3143L3.9122 177.674L6.51031 176.175ZM14.0703 176.175V179.175H17.0703V176.175H14.0703ZM14.0703 169.695V166.695H11.0703V169.695H14.0703ZM18.7683 169.695H21.7683V166.695H18.7683V169.695ZM18.7683 176.175H15.7683V179.175H18.7683V176.175ZM36.3723 176.175V179.175H39.3723V176.175H36.3723ZM36.3723 169.695V166.695H33.3723V169.695H36.3723ZM41.0703 169.695H44.0703V166.695H41.0703V169.695ZM41.0703 175.149L43.6681 176.649L44.0703 175.953V175.149H41.0703ZM37.4523 181.413V184.413H39.184L40.0501 182.913L37.4523 181.413ZM18.7683 181.413V178.413H15.7683V181.413H18.7683ZM18.7683 183.381H14.0703V189.381H18.7683V183.381ZM17.0703 186.381V181.413H11.0703V186.381H17.0703ZM14.0703 178.413H9.53431V184.413H14.0703V178.413ZM12.1324 179.913L9.10842 174.675L3.9122 177.674L6.9362 182.912L12.1324 179.913ZM6.51031 179.175H14.0703V173.175H6.51031V179.175ZM17.0703 176.175V169.695H11.0703V176.175H17.0703ZM14.0703 172.695H18.7683V166.695H14.0703V172.695ZM15.7683 169.695V176.175H21.7683V169.695H15.7683ZM18.7683 179.175H36.3723V173.175H18.7683V179.175ZM39.3723 176.175V169.695H33.3723V176.175H39.3723ZM36.3723 172.695H41.0703V166.695H36.3723V172.695ZM38.0703 169.695V175.149H44.0703V169.695H38.0703ZM38.4725 173.648L34.8545 179.912L40.0501 182.913L43.6681 176.649L38.4725 173.648ZM37.4523 178.413H18.7683V184.413H37.4523V178.413ZM15.7683 181.413V186.381H21.7683V181.413H15.7683ZM30.0003 157.967H27.0003V160.967H30.0003V157.967ZM36.6423 157.967V160.967H39.6423V157.967H36.6423ZM36.6423 147.113H39.6423V144.113H36.6423V147.113ZM30.0003 147.113V144.113H27.0003V147.113H30.0003ZM41.3403 156.941L43.9381 158.441L44.3403 157.745V156.941H41.3403ZM37.7223 163.205V166.205H39.454L40.3201 164.705L37.7223 163.205ZM28.9203 163.205L26.3225 164.705L27.1886 166.205H28.9203V163.205ZM25.3023 156.941H22.3023V157.745L22.7045 158.441L25.3023 156.941ZM25.3023 147.113H28.3023V144.113H25.3023V147.113ZM18.7683 147.113L18.7683 144.113H15.7683L15.7683 147.113H18.7683ZM18.7683 160.505V163.505H21.7683V160.505H18.7683ZM14.0703 160.505H11.0703V163.505H14.0703V160.505ZM14.0703 148.139L11.4725 146.638L11.0703 147.335V148.139H14.0703ZM17.6883 141.875V138.875H15.9566L15.0905 140.374L17.6883 141.875ZM41.3403 141.875H44.3403V138.875H41.3403V141.875ZM41.3403 143.279L43.9383 144.779L44.3403 144.083V143.279H41.3403ZM39.1263 147.113L36.5284 145.613L35.662 147.113L36.5284 148.613L39.1263 147.113ZM41.3403 150.947H44.3403V150.143L43.9383 149.447L41.3403 150.947ZM30.0003 160.967H36.6423V154.967H30.0003V160.967ZM39.6423 157.967V147.113H33.6423V157.967H39.6423ZM36.6423 144.113H30.0003V150.113H36.6423V144.113ZM27.0003 147.113V157.967H33.0003V147.113H27.0003ZM38.7425 155.44L35.1245 161.704L40.3201 164.705L43.9381 158.441L38.7425 155.44ZM37.7223 160.205H28.9203V166.205H37.7223V160.205ZM31.5181 161.704L27.9001 155.44L22.7045 158.441L26.3225 164.705L31.5181 161.704ZM28.3023 156.941V147.113H22.3023V156.941H28.3023ZM25.3023 144.113H18.7683L18.7683 150.113H25.3023V144.113ZM15.7683 147.113V160.505H21.7683V147.113H15.7683ZM18.7683 157.505H14.0703V163.505H18.7683V157.505ZM17.0703 160.505V148.139H11.0703V160.505H17.0703ZM16.6681 149.639L20.2861 143.375L15.0905 140.374L11.4725 146.638L16.6681 149.639ZM17.6883 144.875H41.3403V138.875H17.6883V144.875ZM38.3403 141.875V143.279H44.3403V141.875H38.3403ZM38.7424 141.779L36.5284 145.613L41.7243 148.613L43.9383 144.779L38.7424 141.779ZM36.5284 148.613L38.7424 152.447L43.9383 149.447L41.7243 145.613L36.5284 148.613ZM38.3403 150.947V156.941H44.3403V150.947H38.3403ZM18.7683 127.988H15.7683V130.988H18.7683V127.988ZM36.3723 127.988V130.988H39.3723V127.988H36.3723ZM36.3723 112.976V109.976H33.3723V112.976H36.3723ZM41.0703 112.976H44.0703V109.976H41.0703V112.976ZM41.0703 126.962L43.6681 128.463L44.0703 127.767V126.962H41.0703ZM37.4523 133.226V136.226H39.184L40.0501 134.727L37.4523 133.226ZM17.6883 133.226L15.0905 134.727L15.9566 136.226H17.6883V133.226ZM14.0703 126.962H11.0703V127.767L11.4725 128.463L14.0703 126.962ZM14.0703 112.976V109.976H11.0703V112.976H14.0703ZM18.7683 112.976H21.7683V109.976H18.7683V112.976ZM18.7683 130.988H36.3723V124.988H18.7683V130.988ZM39.3723 127.988L39.3723 112.976H33.3723L33.3723 127.988H39.3723ZM36.3723 115.976H41.0703V109.976H36.3723V115.976ZM38.0703 112.976L38.0703 126.962H44.0703L44.0703 112.976H38.0703ZM38.4725 125.462L34.8545 131.726L40.0501 134.727L43.6681 128.463L38.4725 125.462ZM37.4523 130.226H17.6883V136.226H37.4523V130.226ZM20.2861 131.726L16.6681 125.462L11.4725 128.463L15.0905 134.727L20.2861 131.726ZM17.0703 126.962V112.976H11.0703V126.962H17.0703ZM14.0703 115.976H18.7683V109.976H14.0703V115.976ZM15.7683 112.976V127.988H21.7683V112.976H15.7683ZM18.7683 107.595V110.595H21.7683V107.595H18.7683ZM14.0703 107.595H11.0703V110.595H14.0703V107.595ZM14.0703 102.627H17.0703V99.6274H14.0703V102.627ZM9.53431 102.627L6.9362 104.127L7.80221 105.627H9.53431V102.627ZM6.51031 97.3894V94.3894H1.3143L3.9122 98.8893L6.51031 97.3894ZM14.0703 97.3894V100.389H17.0703V97.3894H14.0703ZM14.0703 90.9094L14.0703 87.9094H11.0703L11.0703 90.9094H14.0703ZM18.7683 90.9094H21.7683L21.7683 87.9094H18.7683L18.7683 90.9094ZM18.7683 97.3894H15.7683V100.389H18.7683V97.3894ZM36.3723 97.3894V100.389H39.3723V97.3894H36.3723ZM36.3723 90.9094V87.9094H33.3723V90.9094H36.3723ZM41.0703 90.9094H44.0703V87.9094H41.0703V90.9094ZM41.0703 96.3634L43.6681 97.8638L44.0703 97.1675V96.3634H41.0703ZM37.4523 102.627V105.627H39.184L40.0501 104.128L37.4523 102.627ZM18.7683 102.627V99.6274H15.7683V102.627H18.7683ZM18.7683 104.595H14.0703V110.595H18.7683V104.595ZM17.0703 107.595V102.627H11.0703V107.595H17.0703ZM14.0703 99.6274H9.53431V105.627H14.0703V99.6274ZM12.1324 101.127L9.10842 95.8894L3.9122 98.8893L6.9362 104.127L12.1324 101.127ZM6.51031 100.389H14.0703V94.3894H6.51031V100.389ZM17.0703 97.3894V90.9094H11.0703V97.3894H17.0703ZM14.0703 93.9094H18.7683L18.7683 87.9094H14.0703L14.0703 93.9094ZM15.7683 90.9094V97.3894H21.7683V90.9094H15.7683ZM18.7683 100.389H36.3723V94.3894H18.7683V100.389ZM39.3723 97.3894V90.9094H33.3723V97.3894H39.3723ZM36.3723 93.9094H41.0703V87.9094H36.3723V93.9094ZM38.0703 90.9094V96.3634H44.0703V90.9094H38.0703ZM38.4725 94.8629L34.8545 101.127L40.0501 104.128L43.6681 97.8638L38.4725 94.8629ZM37.4523 99.6274H18.7683V105.627H37.4523V99.6274ZM15.7683 102.627V107.595H21.7683V102.627H15.7683ZM17.4183 32.9703V29.9703H15.6866L14.8205 31.4698L17.4183 32.9703ZM41.0703 32.9703H44.0703V29.9703H41.0703V32.9703ZM41.0703 38.2083V41.2083H44.0703V38.2083H41.0703ZM18.4983 38.2083V35.2083H15.4983V38.2083H18.4983ZM18.4983 48.5223H15.4983V51.5223H18.4983V48.5223ZM41.0703 48.5223H44.0703V45.5223H41.0703V48.5223ZM41.0703 53.7603V56.7603H44.0703V53.7603H41.0703ZM18.4983 53.7603V50.7603H15.4983V53.7603H18.4983ZM18.4983 64.0743H15.4983V67.0743H18.4983V64.0743ZM41.0703 64.0743H44.0703V61.0743H41.0703V64.0743ZM41.0703 69.3123V72.3123H44.0703V69.3123H41.0703ZM13.8003 69.3123H10.8003V72.3123H13.8003V69.3123ZM13.8003 65.3703L12.2848 62.7813L10.8003 63.6502V65.3703H13.8003ZM16.0143 64.0743L17.5299 66.6634L20.1036 65.1568L18.6123 62.5741L16.0143 64.0743ZM13.8003 60.2403H10.8003V61.0443L11.2024 61.7405L13.8003 60.2403ZM13.8003 54.7863L11.2059 53.2799L10.8003 53.9785V54.7863H13.8003ZM16.7163 49.7643L19.3107 51.2707L20.1807 49.7723L19.3176 48.2699L16.7163 49.7643ZM13.8003 44.6883H10.8003V45.4887L11.199 46.1827L13.8003 44.6883ZM13.8003 39.2343L11.2025 37.7339L10.8003 38.4302V39.2343H13.8003ZM17.4183 35.9703H41.0703V29.9703H17.4183L17.4183 35.9703ZM38.0703 32.9703V38.2083H44.0703V32.9703H38.0703ZM41.0703 35.2083H18.4983V41.2083H41.0703V35.2083ZM15.4983 38.2083V48.5223H21.4983V38.2083H15.4983ZM18.4983 51.5223H41.0703V45.5223H18.4983V51.5223ZM38.0703 48.5223V53.7603H44.0703V48.5223H38.0703ZM41.0703 50.7603H18.4983V56.7603H41.0703V50.7603ZM15.4983 53.7603V64.0743H21.4983V53.7603H15.4983ZM18.4983 67.0743H41.0703V61.0743H18.4983V67.0743ZM38.0703 64.0743V69.3123H44.0703V64.0743H38.0703ZM41.0703 66.3123H13.8003V72.3123H41.0703V66.3123ZM16.8003 69.3123V65.3703H10.8003V69.3123H16.8003ZM15.3159 67.9594L17.5299 66.6634L14.4988 61.4853L12.2848 62.7813L15.3159 67.9594ZM18.6123 62.5741L16.3983 58.7401L11.2024 61.7405L13.4164 65.5745L18.6123 62.5741ZM16.8003 60.2403V54.7863H10.8003V60.2403H16.8003ZM16.3947 56.2927L19.3107 51.2707L14.1219 48.2579L11.2059 53.2799L16.3947 56.2927ZM19.3176 48.2699L16.4016 43.194L11.199 46.1827L14.115 51.2587L19.3176 48.2699ZM16.8003 44.6883V39.2343H10.8003V44.6883H16.8003ZM16.3981 40.7348L20.0161 34.4708L14.8205 31.4698L11.2025 37.7339L16.3981 40.7348ZM36.3723 2.99991V-9.15527e-05H33.3723V2.99991H36.3723ZM41.0703 2.99991H44.0703V-9.15527e-05H41.0703V2.99991ZM41.0703 18.0659L43.6681 19.5664L44.0703 18.87V18.0659H41.0703ZM37.4523 24.3299V27.3299H39.184L40.0501 25.8304L37.4523 24.3299ZM17.4183 24.3299L14.8205 25.8304L15.6866 27.3299H17.4183V24.3299ZM13.8003 18.0659H10.8003V18.87L11.2025 19.5664L13.8003 18.0659ZM13.8003 9.26392L11.2025 7.76343L10.8003 8.45978V9.26392H13.8003ZM17.4183 2.99991V-9.15527e-05H15.6866L14.8205 1.49945L17.4183 2.99991ZM29.4063 2.99991H32.4063V-9.15527e-05H29.4063V2.99991ZM29.4063 19.0919H26.4063V22.0919H29.4063V19.0919ZM36.3723 19.0919V22.0919H39.3723V19.0919H36.3723ZM18.4983 19.0919H15.4983V22.0919H18.4983V19.0919ZM24.7083 19.0919V22.0919H27.7083V19.0919H24.7083ZM24.7083 8.23792H27.7083L27.7083 5.23792H24.7083L24.7083 8.23792ZM18.4983 8.23792V5.23792H15.4983V8.23792H18.4983ZM36.3723 5.99991H41.0703L41.0703 -9.15527e-05H36.3723L36.3723 5.99991ZM38.0703 2.99991L38.0703 18.0659H44.0703L44.0703 2.99991H38.0703ZM38.4725 16.5654L34.8545 22.8294L40.0501 25.8304L43.6681 19.5664L38.4725 16.5654ZM37.4523 21.3299H17.4183V27.3299H37.4523V21.3299ZM20.0161 22.8294L16.3981 16.5654L11.2025 19.5664L14.8205 25.8304L20.0161 22.8294ZM16.8003 18.0659V9.26392H10.8003V18.0659H16.8003ZM16.3981 10.7644L20.0161 4.50037L14.8205 1.49945L11.2025 7.76343L16.3981 10.7644ZM17.4183 5.99991H29.4063L29.4063 -9.15527e-05H17.4183V5.99991ZM26.4063 2.99991L26.4063 19.0919H32.4063L32.4063 2.99991H26.4063ZM29.4063 22.0919H36.3723V16.0919H29.4063V22.0919ZM39.3723 19.0919L39.3723 2.99991H33.3723L33.3723 19.0919H39.3723ZM18.4983 22.0919H24.7083V16.0919H18.4983V22.0919ZM27.7083 19.0919V8.23792H21.7083V19.0919H27.7083ZM24.7083 5.23792H18.4983V11.2379H24.7083L24.7083 5.23792ZM15.4983 8.23792V19.0919H21.4983V8.23792H15.4983Z" fill="#B5E93B" mask="url(#path-1-outside-1_3113_1859)"/>
</svg>
