<svg width="172" height="25" viewBox="0 0 172 25" fill="none" xmlns="http://www.w3.org/2000/svg">
<mask id="path-1-outside-1_3129_3466" maskUnits="userSpaceOnUse" x="-0.719727" y="-0.440002" width="173" height="26" fill="black">
<rect fill="white" x="-0.719727" y="-0.440002" width="173" height="26"/>
<path d="M13.0003 17H17.4803V21.576L13.7683 23.72H4.71227L1.00027 21.576V3.144L4.71227 0.999996H13.7683L17.4803 3.144V7.72H13.0003V4.84H5.48027V19.88H13.0003V17ZM36.514 21.576L32.802 23.72H25.986L22.274 21.576V9.544L25.986 7.4H32.802L36.514 9.544V21.576ZM26.658 11.144V19.976H32.13V11.144H26.658ZM55.5453 9.544V23.56H51.1613V11.144H45.6893V23.56H41.3053V7.4H44.9213L45.6893 8.712L47.9613 7.4H51.8333L55.5453 9.544ZM59.0565 11.304V7.56H62.0005V4.872L66.3845 2.344V7.56H69.9045V11.304H66.3845V19.816H69.9045V23.56H65.7125L62.0005 21.416V11.304H59.0565ZM77.7993 17.256V20.04H82.3113V17.256H77.7993ZM77.1273 23.72L73.4153 21.576V16.04L77.1273 13.896H82.3113V11.304H75.0153V7.56H82.9833L86.6953 9.704V23.72H84.5833L82.3113 22.408L80.0393 23.72H77.1273ZM95.8768 11.304V19.816H103.813V23.56H95.2048L91.4928 21.416V9.704L95.2048 7.56H103.813V11.304H95.8768ZM106.682 11.304V7.56H109.626V4.872L114.01 2.344V7.56H117.53V11.304H114.01V19.816H117.53V23.56H113.338L109.626 21.416V11.304H106.682ZM152.489 9.544V23.56H148.105V11.144H143.433V23.56H139.049V11.144H134.377V23.56H129.993V7.4H133.609L134.377 8.712L136.649 7.4H139.721L142.697 9.128L145.705 7.4H148.777L152.489 9.544ZM170.554 19.816V23.56H160.986L157.274 21.416V9.544L160.986 7.4H166.842L170.554 9.544V17.192H161.658V19.816H170.554ZM161.658 11.144V13.896H166.17V11.144H161.658Z"/>
</mask>
<path d="M13.0003 17V16H12.0003V17H13.0003ZM17.4803 17H18.4803V16H17.4803V17ZM17.4803 21.576L17.9804 22.4419L18.4803 22.1532V21.576H17.4803ZM13.7683 23.72V24.72H14.0363L14.2684 24.5859L13.7683 23.72ZM4.71227 23.72L4.21212 24.5859L4.44423 24.72H4.71227V23.72ZM1.00027 21.576H0.000273466V22.1532L0.50012 22.4419L1.00027 21.576ZM1.00027 3.144L0.50012 2.27806L0.000273466 2.56676V3.144H1.00027ZM4.71227 0.999996V-3.8147e-06H4.44423L4.21212 0.134059L4.71227 0.999996ZM13.7683 0.999996L14.2684 0.134059L14.0363 -3.8147e-06H13.7683V0.999996ZM17.4803 3.144H18.4803V2.56676L17.9804 2.27806L17.4803 3.144ZM17.4803 7.72V8.72H18.4803V7.72H17.4803ZM13.0003 7.72H12.0003V8.72H13.0003V7.72ZM13.0003 4.84H14.0003V3.84H13.0003V4.84ZM5.48027 4.84V3.84H4.48027V4.84H5.48027ZM5.48027 19.88H4.48027V20.88H5.48027V19.88ZM13.0003 19.88V20.88H14.0003V19.88H13.0003ZM13.0003 18H17.4803V16H13.0003V18ZM16.4803 17V21.576H18.4803V17H16.4803ZM16.9801 20.7101L13.2681 22.8541L14.2684 24.5859L17.9804 22.4419L16.9801 20.7101ZM13.7683 22.72H4.71227V24.72H13.7683V22.72ZM5.21243 22.8541L1.50043 20.7101L0.50012 22.4419L4.21212 24.5859L5.21243 22.8541ZM2.00027 21.576V3.144H0.000273466V21.576H2.00027ZM1.50043 4.00993L5.21243 1.86593L4.21212 0.134059L0.50012 2.27806L1.50043 4.00993ZM4.71227 2H13.7683V-3.8147e-06H4.71227V2ZM13.2681 1.86593L16.9801 4.00993L17.9804 2.27806L14.2684 0.134059L13.2681 1.86593ZM16.4803 3.144V7.72H18.4803V3.144H16.4803ZM17.4803 6.72H13.0003V8.72H17.4803V6.72ZM14.0003 7.72V4.84H12.0003V7.72H14.0003ZM13.0003 3.84H5.48027V5.84H13.0003V3.84ZM4.48027 4.84V19.88H6.48027V4.84H4.48027ZM5.48027 20.88H13.0003V18.88H5.48027V20.88ZM14.0003 19.88V17H12.0003V19.88H14.0003ZM36.514 21.576L37.0142 22.4419L37.514 22.1532V21.576H36.514ZM32.802 23.72V24.72H33.0701L33.3022 24.5859L32.802 23.72ZM25.986 23.72L25.4859 24.5859L25.718 24.72H25.986V23.72ZM22.274 21.576H21.274V22.1532L21.7739 22.4419L22.274 21.576ZM22.274 9.544L21.7739 8.67806L21.274 8.96676V9.544H22.274ZM25.986 7.4V6.4H25.718L25.4859 6.53406L25.986 7.4ZM32.802 7.4L33.3022 6.53406L33.0701 6.4H32.802V7.4ZM36.514 9.544H37.514V8.96676L37.0142 8.67806L36.514 9.544ZM26.658 11.144V10.144H25.658V11.144H26.658ZM26.658 19.976H25.658V20.976H26.658V19.976ZM32.13 19.976V20.976H33.13V19.976H32.13ZM32.13 11.144H33.13V10.144H32.13V11.144ZM36.0139 20.7101L32.3019 22.8541L33.3022 24.5859L37.0142 22.4419L36.0139 20.7101ZM32.802 22.72H25.986V24.72H32.802V22.72ZM26.4862 22.8541L22.7742 20.7101L21.7739 22.4419L25.4859 24.5859L26.4862 22.8541ZM23.274 21.576V9.544H21.274V21.576H23.274ZM22.7742 10.4099L26.4862 8.26593L25.4859 6.53406L21.7739 8.67806L22.7742 10.4099ZM25.986 8.4H32.802V6.4H25.986V8.4ZM32.3019 8.26593L36.0139 10.4099L37.0142 8.67806L33.3022 6.53406L32.3019 8.26593ZM35.514 9.544V21.576H37.514V9.544H35.514ZM25.658 11.144V19.976H27.658V11.144H25.658ZM26.658 20.976H32.13V18.976H26.658V20.976ZM33.13 19.976V11.144H31.13V19.976H33.13ZM32.13 10.144H26.658V12.144H32.13V10.144ZM55.5453 9.544H56.5453V8.96676L56.0454 8.67806L55.5453 9.544ZM55.5453 23.56V24.56H56.5453V23.56H55.5453ZM51.1613 23.56H50.1613V24.56H51.1613V23.56ZM51.1613 11.144H52.1613V10.144H51.1613V11.144ZM45.6893 11.144V10.144H44.6893V11.144H45.6893ZM45.6893 23.56V24.56H46.6893V23.56H45.6893ZM41.3053 23.56H40.3053V24.56H41.3053V23.56ZM41.3053 7.4V6.4H40.3053V7.4H41.3053ZM44.9213 7.4L45.7843 6.89482L45.4946 6.4H44.9213V7.4ZM45.6893 8.712L44.8263 9.21718L45.3285 10.0751L46.1893 9.57798L45.6893 8.712ZM47.9613 7.4V6.4H47.6933L47.4612 6.53401L47.9613 7.4ZM51.8333 7.4L52.3334 6.53406L52.1013 6.4H51.8333V7.4ZM54.5453 9.544V23.56H56.5453V9.544H54.5453ZM55.5453 22.56H51.1613V24.56H55.5453V22.56ZM52.1613 23.56V11.144H50.1613V23.56H52.1613ZM51.1613 10.144H45.6893V12.144H51.1613V10.144ZM44.6893 11.144V23.56H46.6893V11.144H44.6893ZM45.6893 22.56H41.3053V24.56H45.6893V22.56ZM42.3053 23.56V7.4H40.3053V23.56H42.3053ZM41.3053 8.4H44.9213V6.4H41.3053V8.4ZM44.0583 7.90518L44.8263 9.21718L46.5523 8.20682L45.7843 6.89482L44.0583 7.90518ZM46.1893 9.57798L48.4613 8.26598L47.4612 6.53401L45.1892 7.84601L46.1893 9.57798ZM47.9613 8.4H51.8333V6.4H47.9613V8.4ZM51.3331 8.26593L55.0451 10.4099L56.0454 8.67806L52.3334 6.53406L51.3331 8.26593ZM59.0565 11.304H58.0565V12.304H59.0565V11.304ZM59.0565 7.56V6.56H58.0565V7.56H59.0565ZM62.0005 7.56V8.56H63.0005V7.56H62.0005ZM62.0005 4.872L61.501 4.0057L61.0005 4.29429V4.872H62.0005ZM66.3845 2.344H67.3845V0.613007L65.885 1.47771L66.3845 2.344ZM66.3845 7.56H65.3845V8.56H66.3845V7.56ZM69.9045 7.56H70.9045V6.56H69.9045V7.56ZM69.9045 11.304V12.304H70.9045V11.304H69.9045ZM66.3845 11.304V10.304H65.3845V11.304H66.3845ZM66.3845 19.816H65.3845V20.816H66.3845V19.816ZM69.9045 19.816H70.9045V18.816H69.9045V19.816ZM69.9045 23.56V24.56H70.9045V23.56H69.9045ZM65.7125 23.56L65.2124 24.4259L65.4445 24.56H65.7125V23.56ZM62.0005 21.416H61.0005V21.9932L61.5004 22.2819L62.0005 21.416ZM62.0005 11.304H63.0005V10.304H62.0005V11.304ZM60.0565 11.304V7.56H58.0565V11.304H60.0565ZM59.0565 8.56H62.0005V6.56H59.0565V8.56ZM63.0005 7.56V4.872H61.0005V7.56H63.0005ZM62.5001 5.73829L66.8841 3.21029L65.885 1.47771L61.501 4.0057L62.5001 5.73829ZM65.3845 2.344V7.56H67.3845V2.344H65.3845ZM66.3845 8.56H69.9045V6.56H66.3845V8.56ZM68.9045 7.56V11.304H70.9045V7.56H68.9045ZM69.9045 10.304H66.3845V12.304H69.9045V10.304ZM65.3845 11.304V19.816H67.3845V11.304H65.3845ZM66.3845 20.816H69.9045V18.816H66.3845V20.816ZM68.9045 19.816V23.56H70.9045V19.816H68.9045ZM69.9045 22.56H65.7125V24.56H69.9045V22.56ZM66.2127 22.6941L62.5007 20.5501L61.5004 22.2819L65.2124 24.4259L66.2127 22.6941ZM63.0005 21.416V11.304H61.0005V21.416H63.0005ZM62.0005 10.304H59.0565V12.304H62.0005V10.304ZM77.7993 17.256V16.256H76.7993V17.256H77.7993ZM77.7993 20.04H76.7993V21.04H77.7993V20.04ZM82.3113 20.04V21.04H83.3113V20.04H82.3113ZM82.3113 17.256H83.3113V16.256H82.3113V17.256ZM77.1273 23.72L76.6271 24.5859L76.8592 24.72H77.1273V23.72ZM73.4153 21.576H72.4153V22.1532L72.9151 22.4419L73.4153 21.576ZM73.4153 16.04L72.9151 15.1741L72.4153 15.4628V16.04H73.4153ZM77.1273 13.896V12.896H76.8592L76.6271 13.0301L77.1273 13.896ZM82.3113 13.896V14.896H83.3113V13.896H82.3113ZM82.3113 11.304H83.3113V10.304H82.3113V11.304ZM75.0153 11.304H74.0153V12.304H75.0153V11.304ZM75.0153 7.56V6.56H74.0153V7.56H75.0153ZM82.9833 7.56L83.4834 6.69406L83.2513 6.56H82.9833V7.56ZM86.6953 9.704H87.6953V9.12676L87.1954 8.83806L86.6953 9.704ZM86.6953 23.72V24.72H87.6953V23.72H86.6953ZM84.5833 23.72L84.0832 24.586L84.3153 24.72H84.5833V23.72ZM82.3113 22.408L82.8113 21.542L82.3113 21.2532L81.8112 21.542L82.3113 22.408ZM80.0393 23.72V24.72H80.3073L80.5394 24.586L80.0393 23.72ZM76.7993 17.256V20.04H78.7993V17.256H76.7993ZM77.7993 21.04H82.3113V19.04H77.7993V21.04ZM83.3113 20.04V17.256H81.3113V20.04H83.3113ZM82.3113 16.256H77.7993V18.256H82.3113V16.256ZM77.6274 22.8541L73.9154 20.7101L72.9151 22.4419L76.6271 24.5859L77.6274 22.8541ZM74.4153 21.576V16.04H72.4153V21.576H74.4153ZM73.9154 16.9059L77.6274 14.7619L76.6271 13.0301L72.9151 15.1741L73.9154 16.9059ZM77.1273 14.896H82.3113V12.896H77.1273V14.896ZM83.3113 13.896V11.304H81.3113V13.896H83.3113ZM82.3113 10.304H75.0153V12.304H82.3113V10.304ZM76.0153 11.304V7.56H74.0153V11.304H76.0153ZM75.0153 8.56H82.9833V6.56H75.0153V8.56ZM82.4831 8.42593L86.1951 10.5699L87.1954 8.83806L83.4834 6.69406L82.4831 8.42593ZM85.6953 9.704V23.72H87.6953V9.704H85.6953ZM86.6953 22.72H84.5833V24.72H86.6953V22.72ZM85.0834 22.854L82.8113 21.542L81.8112 23.274L84.0832 24.586L85.0834 22.854ZM81.8112 21.542L79.5392 22.854L80.5394 24.586L82.8113 23.274L81.8112 21.542ZM80.0393 22.72H77.1273V24.72H80.0393V22.72ZM95.8768 11.304V10.304H94.8768V11.304H95.8768ZM95.8768 19.816H94.8768V20.816H95.8768V19.816ZM103.813 19.816H104.813V18.816H103.813V19.816ZM103.813 23.56V24.56H104.813V23.56H103.813ZM95.2048 23.56L94.7046 24.4259L94.9367 24.56H95.2048V23.56ZM91.4928 21.416H90.4928V21.9932L90.9926 22.2819L91.4928 21.416ZM91.4928 9.704L90.9926 8.83806L90.4928 9.12676V9.704H91.4928ZM95.2048 7.56V6.56H94.9367L94.7046 6.69406L95.2048 7.56ZM103.813 7.56H104.813V6.56H103.813V7.56ZM103.813 11.304V12.304H104.813V11.304H103.813ZM94.8768 11.304V19.816H96.8768V11.304H94.8768ZM95.8768 20.816H103.813V18.816H95.8768V20.816ZM102.813 19.816V23.56H104.813V19.816H102.813ZM103.813 22.56H95.2048V24.56H103.813V22.56ZM95.7049 22.6941L91.9929 20.5501L90.9926 22.2819L94.7046 24.4259L95.7049 22.6941ZM92.4928 21.416V9.704H90.4928V21.416H92.4928ZM91.9929 10.5699L95.7049 8.42593L94.7046 6.69406L90.9926 8.83806L91.9929 10.5699ZM95.2048 8.56H103.813V6.56H95.2048V8.56ZM102.813 7.56V11.304H104.813V7.56H102.813ZM103.813 10.304H95.8768V12.304H103.813V10.304ZM106.682 11.304H105.682V12.304H106.682V11.304ZM106.682 7.56V6.56H105.682V7.56H106.682ZM109.626 7.56V8.56H110.626V7.56H109.626ZM109.626 4.872L109.126 4.0057L108.626 4.29429V4.872H109.626ZM114.01 2.344H115.01V0.613007L113.51 1.47771L114.01 2.344ZM114.01 7.56H113.01V8.56H114.01V7.56ZM117.53 7.56H118.53V6.56H117.53V7.56ZM117.53 11.304V12.304H118.53V11.304H117.53ZM114.01 11.304V10.304H113.01V11.304H114.01ZM114.01 19.816H113.01V20.816H114.01V19.816ZM117.53 19.816H118.53V18.816H117.53V19.816ZM117.53 23.56V24.56H118.53V23.56H117.53ZM113.338 23.56L112.837 24.4259L113.069 24.56H113.338V23.56ZM109.626 21.416H108.626V21.9932L109.125 22.2819L109.626 21.416ZM109.626 11.304H110.626V10.304H109.626V11.304ZM107.682 11.304V7.56H105.682V11.304H107.682ZM106.682 8.56H109.626V6.56H106.682V8.56ZM110.626 7.56V4.872H108.626V7.56H110.626ZM110.125 5.73829L114.509 3.21029L113.51 1.47771L109.126 4.0057L110.125 5.73829ZM113.01 2.344V7.56H115.01V2.344H113.01ZM114.01 8.56H117.53V6.56H114.01V8.56ZM116.53 7.56V11.304H118.53V7.56H116.53ZM117.53 10.304H114.01V12.304H117.53V10.304ZM113.01 11.304V19.816H115.01V11.304H113.01ZM114.01 20.816H117.53V18.816H114.01V20.816ZM116.53 19.816V23.56H118.53V19.816H116.53ZM117.53 22.56H113.338V24.56H117.53V22.56ZM113.838 22.6941L110.126 20.5501L109.125 22.2819L112.837 24.4259L113.838 22.6941ZM110.626 21.416V11.304H108.626V21.416H110.626ZM109.626 10.304H106.682V12.304H109.626V10.304ZM152.489 9.544H153.489V8.96676L152.989 8.67806L152.489 9.544ZM152.489 23.56V24.56H153.489V23.56H152.489ZM148.105 23.56H147.105V24.56H148.105V23.56ZM148.105 11.144H149.105V10.144H148.105V11.144ZM143.433 11.144V10.144H142.433V11.144H143.433ZM143.433 23.56V24.56H144.433V23.56H143.433ZM139.049 23.56H138.049V24.56H139.049V23.56ZM139.049 11.144H140.049V10.144H139.049V11.144ZM134.377 11.144V10.144H133.377V11.144H134.377ZM134.377 23.56V24.56H135.377V23.56H134.377ZM129.993 23.56H128.993V24.56H129.993V23.56ZM129.993 7.4V6.4H128.993V7.4H129.993ZM133.609 7.4L134.472 6.89482L134.182 6.4H133.609V7.4ZM134.377 8.712L133.514 9.21718L134.016 10.0751L134.877 9.57798L134.377 8.712ZM136.649 7.4V6.4H136.381L136.149 6.53401L136.649 7.4ZM139.721 7.4L140.223 6.53521L139.99 6.4H139.721V7.4ZM142.697 9.128L142.195 9.99279L142.694 10.2828L143.195 9.9951L142.697 9.128ZM145.705 7.4V6.4H145.438L145.207 6.53289L145.705 7.4ZM148.777 7.4L149.277 6.53406L149.045 6.4H148.777V7.4ZM151.489 9.544V23.56H153.489V9.544H151.489ZM152.489 22.56H148.105V24.56H152.489V22.56ZM149.105 23.56V11.144H147.105V23.56H149.105ZM148.105 10.144H143.433V12.144H148.105V10.144ZM142.433 11.144V23.56H144.433V11.144H142.433ZM143.433 22.56H139.049V24.56H143.433V22.56ZM140.049 23.56V11.144H138.049V23.56H140.049ZM139.049 10.144H134.377V12.144H139.049V10.144ZM133.377 11.144V23.56H135.377V11.144H133.377ZM134.377 22.56H129.993V24.56H134.377V22.56ZM130.993 23.56V7.4H128.993V23.56H130.993ZM129.993 8.4H133.609V6.4H129.993V8.4ZM132.746 7.90518L133.514 9.21718L135.24 8.20682L134.472 6.89482L132.746 7.90518ZM134.877 9.57798L137.149 8.26598L136.149 6.53401L133.877 7.84601L134.877 9.57798ZM136.649 8.4H139.721V6.4H136.649V8.4ZM139.219 8.26479L142.195 9.99279L143.199 8.26321L140.223 6.53521L139.219 8.26479ZM143.195 9.9951L146.203 8.2671L145.207 6.53289L142.199 8.26089L143.195 9.9951ZM145.705 8.4H148.777V6.4H145.705V8.4ZM148.277 8.26593L151.989 10.4099L152.989 8.67806L149.277 6.53406L148.277 8.26593ZM170.554 19.816H171.554V18.816H170.554V19.816ZM170.554 23.56V24.56H171.554V23.56H170.554ZM160.986 23.56L160.486 24.4259L160.718 24.56H160.986V23.56ZM157.274 21.416H156.274V21.9932L156.774 22.2819L157.274 21.416ZM157.274 9.544L156.774 8.67806L156.274 8.96676V9.544H157.274ZM160.986 7.4V6.4H160.718L160.486 6.53406L160.986 7.4ZM166.842 7.4L167.342 6.53406L167.11 6.4H166.842V7.4ZM170.554 9.544H171.554V8.96676L171.054 8.67806L170.554 9.544ZM170.554 17.192V18.192H171.554V17.192H170.554ZM161.658 17.192V16.192H160.658V17.192H161.658ZM161.658 19.816H160.658V20.816H161.658V19.816ZM161.658 11.144V10.144H160.658V11.144H161.658ZM161.658 13.896H160.658V14.896H161.658V13.896ZM166.17 13.896V14.896H167.17V13.896H166.17ZM166.17 11.144H167.17V10.144H166.17V11.144ZM169.554 19.816V23.56H171.554V19.816H169.554ZM170.554 22.56H160.986V24.56H170.554V22.56ZM161.486 22.6941L157.774 20.5501L156.774 22.2819L160.486 24.4259L161.486 22.6941ZM158.274 21.416V9.544H156.274V21.416H158.274ZM157.774 10.4099L161.486 8.26593L160.486 6.53406L156.774 8.67806L157.774 10.4099ZM160.986 8.4H166.842V6.4H160.986V8.4ZM166.342 8.26593L170.054 10.4099L171.054 8.67806L167.342 6.53406L166.342 8.26593ZM169.554 9.544V17.192H171.554V9.544H169.554ZM170.554 16.192H161.658V18.192H170.554V16.192ZM160.658 17.192V19.816H162.658V17.192H160.658ZM161.658 20.816H170.554V18.816H161.658V20.816ZM160.658 11.144V13.896H162.658V11.144H160.658ZM161.658 14.896H166.17V12.896H161.658V14.896ZM167.17 13.896V11.144H165.17V13.896H167.17ZM166.17 10.144H161.658V12.144H166.17V10.144Z" fill="#B5E93B" mask="url(#path-1-outside-1_3129_3466)"/>
</svg>
