<svg width="87" height="34" viewBox="0 0 87 34" fill="none" xmlns="http://www.w3.org/2000/svg">
<path d="M-7.80821e-05 33.6001V9.53674e-05H6.71992V33.6001H-7.80821e-05ZM32.464 24.1441V28.3201H39.232V24.1441H32.464ZM31.456 33.8401L25.888 30.6241V22.3201L31.456 19.1041H39.232V15.2161H28.288V9.6001H40.24L45.808 12.8161V33.8401H42.64L39.232 31.8721L35.824 33.8401H31.456ZM86.7483 12.5761V33.6001H80.1723V14.9761H73.1643V33.6001H66.5883V14.9761H59.5803V33.6001H53.0043V9.3601H58.4283L59.5803 11.3281L62.9883 9.3601H67.5963L72.0603 11.9521L76.5723 9.3601H81.1803L86.7483 12.5761Z" fill="#B5E93B"/>
</svg>
