<svg width="558" height="97" viewBox="0 0 558 97" fill="none" xmlns="http://www.w3.org/2000/svg">
<path d="M73 39.6266C73 47.6113 82.1099 57.3381 89.3097 63C95.6278 57.7736 104.811 49.4259 105.472 39.6266C105.972 32.2258 99.6685 22.7859 89.3097 23.0037C76.8937 23.2647 73 33.0209 73 39.6266Z" fill="#B5E93B"/>
<path d="M93.0312 37.7778C92.9651 39.9256 91.2524 41.6169 89.2057 41.5555C87.1591 41.4941 85.5535 39.7032 85.6196 37.5555C85.6857 35.4078 87.3984 33.7164 89.445 33.7778C91.4917 33.8392 93.0972 35.6301 93.0312 37.7778Z" fill="#4A4A4A"/>
<path d="M8.9782 92L6.8902 90.794V78.86H8.6362V90.434H10.7962V92H8.9782ZM20.2531 90.884L18.1651 92.09H14.6911L12.6031 90.884V84.116L14.6911 82.91H18.1651L20.2531 84.116V90.884ZM14.3491 84.476V90.524H18.5071V84.476H14.3491ZM24.8784 84.566V90.434H29.8824V92H25.2204L23.1324 90.794V84.206L25.2204 83H29.8824V84.566H24.8784ZM33.7821 88.31V90.524H37.4001V88.31H33.7821ZM34.1241 92.09L32.0361 90.884V87.95L34.1241 86.744H37.4001V84.566H32.9361V83H37.0581L39.1461 84.206V92.09H38.6781L37.4001 91.352L36.1221 92.09H34.1241ZM41.3089 84.566V83H42.9649V81.488L44.7109 80.48V83H46.8709V84.566H44.7109V90.434H46.8709V92H45.0529L42.9649 90.794V84.566H41.3089ZM56.5041 90.434V92H51.4821L49.3941 90.794V84.116L51.4821 82.91H54.4161L56.5041 84.116V88.112H51.1401V90.434H56.5041ZM51.1401 84.476V86.546H54.7581V84.476H51.1401ZM61.4665 82.91H64.1845L65.4625 83.648V78.86H67.2085V92.09H65.8945L65.4625 91.352L64.1845 92.09H61.4665L59.3785 90.884V84.116L61.4665 82.91ZM65.4625 90.524V84.476H61.1245V90.524H65.4625ZM76.5053 83V92H74.7593V83H76.5053ZM74.6693 80.786V78.86H76.5953V80.786H74.6693ZM87.0324 84.116V92H85.2864V84.476H81.1284V92H79.3824V82.91H80.6964L81.1284 83.648L82.4064 82.91H84.9444L87.0324 84.116ZM96.3335 84.566V90.434H101.337V92H96.6755L94.5875 90.794V84.206L96.6755 83H101.337V84.566H96.3335ZM105.597 83V92H103.851V83H105.597ZM103.761 80.786V78.86H105.687V80.786H103.761ZM107.754 84.566V83H109.41V81.488L111.156 80.48V83H113.316V84.566H111.156V90.434H113.316V92H111.498L109.41 90.794V84.566H107.754ZM116.667 95.6L118.233 91.586L114.759 83H116.505L119.061 89.408H119.097L121.635 83H123.381L118.377 95.6H116.667ZM137.499 84.116V92H135.753V84.476H131.595V92H129.849V82.91H131.163L131.595 83.648L132.873 82.91H135.411L137.499 84.116ZM141.764 88.31V90.524H145.382V88.31H141.764ZM142.106 92.09L140.018 90.884V87.95L142.106 86.744H145.382V84.566H140.918V83H145.04L147.128 84.206V92.09H146.66L145.382 91.352L144.104 92.09H142.106ZM162.125 84.116V92H160.379V84.476H156.941V92H155.195V84.476H151.757V92H150.011V82.91H151.325L151.757 83.648L153.035 82.91H154.853L156.527 83.882L158.219 82.91H160.037L162.125 84.116ZM172.115 90.434V92H167.093L165.005 90.794V84.116L167.093 82.91H170.027L172.115 84.116V88.112H166.751V90.434H172.115ZM166.751 84.476V86.546H170.369V84.476H166.751Z" fill="#FFFDFD"/>
<path d="M216.973 91.884L214.885 93.09H211.411L209.323 91.884V85.116L211.411 83.91H214.885L216.973 85.116V91.884ZM211.069 85.476V91.524H215.227V85.476H211.069ZM225.594 93.09H222.876L221.598 92.352V96.6H219.852V83.91H221.166L221.598 84.648L222.876 83.91H225.594L227.682 85.116V91.884L225.594 93.09ZM221.598 85.476V91.524H225.936V85.476H221.598ZM237.667 91.434V93H232.645L230.557 91.794V85.116L232.645 83.91H235.579L237.667 85.116V89.112H232.303V91.434H237.667ZM232.303 85.476V87.546H235.921V85.476H232.303ZM248.192 85.116V93H246.446V85.476H242.288V93H240.542V83.91H241.856L242.288 84.648L243.566 83.91H246.104L248.192 85.116ZM255.027 85.566V84H256.683V82.488L258.429 81.48V84H260.589V85.566H258.429V91.434H260.589V93H258.771L256.683 91.794V85.566H255.027ZM270.762 91.884L268.674 93.09H265.2L263.112 91.884V85.116L265.2 83.91H268.674L270.762 85.116V91.884ZM264.858 85.476V91.524H269.016V85.476H264.858ZM285.643 93L283.699 86.124H283.663L281.737 93H279.667L277.417 84H279.037L280.747 91.038H280.783L282.763 84H284.617L286.597 91.038H286.633L288.343 84H289.963L287.713 93H285.643ZM299.59 91.884L297.502 93.09H294.028L291.94 91.884V85.116L294.028 83.91H297.502L299.59 85.116V91.884ZM293.686 85.476V91.524H297.844V85.476H293.686ZM307.491 85.566H304.215V93H302.469V84H303.783L304.215 84.738L305.493 84H307.491V85.566ZM311.211 79.86V88.482H311.247L314.955 84H317.043L313.569 88.068L317.583 93H315.441L312.525 89.31L311.211 90.858V93H309.465V79.86H311.211ZM328.726 85.566H325.45V93H323.704V84H325.018L325.45 84.738L326.728 84H328.726V85.566ZM337.81 91.434V93H332.788L330.7 91.794V85.116L332.788 83.91H335.722L337.81 85.116V89.112H332.446V91.434H337.81ZM332.446 85.476V87.546H336.064V85.476H332.446ZM352.798 85.116V93H351.052V85.476H347.614V93H345.868V85.476H342.43V93H340.684V83.91H341.998L342.43 84.648L343.708 83.91H345.526L347.2 84.882L348.892 83.91H350.71L352.798 85.116ZM363.328 91.884L361.24 93.09H357.766L355.678 91.884V85.116L357.766 83.91H361.24L363.328 85.116V91.884ZM357.424 85.476V91.524H361.582V85.476H357.424ZM365.488 85.566V84H367.144V82.488L368.89 81.48V84H371.05V85.566H368.89V91.434H371.05V93H369.232L367.144 91.794V85.566H365.488ZM380.683 91.434V93H375.661L373.573 91.794V85.116L375.661 83.91H378.595L380.683 85.116V89.112H375.319V91.434H380.683ZM375.319 85.476V87.546H378.937V85.476H375.319Z" fill="#FFFDFD"/>
<path d="M280.861 40.8879H307.335C308.025 40.8879 308.585 41.4476 308.585 42.1379V59.176H279.611V42.1379C279.611 41.4476 280.171 40.8879 280.861 40.8879Z" fill="#4A4A4A" stroke="#B5E93B" stroke-width="1.5"/>
<path d="M275.489 61.4932H312.58V62.989C312.58 64.6459 311.237 65.989 309.58 65.989H278.489C276.832 65.989 275.489 64.6459 275.489 62.989V61.4932Z" fill="#B5E93B"/>
<rect x="291.225" y="62.6172" width="6.74379" height="1.12396" rx="0.561982" fill="#140754"/>
<path d="M281.489 32.5133C274.989 31.5133 272.489 35.0132 271.715 41.0278" stroke="#FFFDFD" stroke-width="2" stroke-linecap="round"/>
<path d="M281.989 27.0132C271.926 26.0474 266.231 32.0162 265.828 40.8931" stroke="#FFFDFD" stroke-width="2" stroke-linecap="round"/>
<path d="M426.859 91.884L424.771 93.09H421.297L419.209 91.884V85.116L421.297 83.91H424.771L426.859 85.116V91.884ZM420.955 85.476V91.524H425.113V85.476H420.955ZM435.48 93.09H432.762L431.484 92.352V96.6H429.738V83.91H431.052L431.484 84.648L432.762 83.91H435.48L437.568 85.116V91.884L435.48 93.09ZM431.484 85.476V91.524H435.822V85.476H431.484ZM447.553 91.434V93H442.531L440.443 91.794V85.116L442.531 83.91H445.465L447.553 85.116V89.112H442.189V91.434H447.553ZM442.189 85.476V87.546H445.807V85.476H442.189ZM458.077 85.116V93H456.331V85.476H452.173V93H450.427V83.91H451.741L452.173 84.648L453.451 83.91H455.989L458.077 85.116ZM464.912 85.566V84H466.568V82.488L468.314 81.48V84H470.474V85.566H468.314V91.434H470.474V93H468.656L466.568 91.794V85.566H464.912ZM480.648 91.884L478.56 93.09H475.086L472.998 91.884V85.116L475.086 83.91H478.56L480.648 85.116V91.884ZM474.744 85.476V91.524H478.902V85.476H474.744ZM493.225 85.566H489.949V93H488.203V84H489.517L489.949 84.738L491.227 84H493.225V85.566ZM502.309 91.434V93H497.287L495.199 91.794V85.116L497.287 83.91H500.221L502.309 85.116V89.112H496.945V91.434H502.309ZM496.945 85.476V87.546H500.563V85.476H496.945ZM507.271 93L505.183 91.794V79.86H506.929V91.434H509.089V93H507.271ZM518.546 91.884L516.458 93.09H512.984L510.896 91.884V85.116L512.984 83.91H516.458L518.546 85.116V91.884ZM512.642 85.476V91.524H516.8V85.476H512.642ZM523.171 85.566V91.434H528.175V93H523.513L521.425 91.794V85.206L523.513 84H528.175V85.566H523.171ZM532.075 89.31V91.524H535.693V89.31H532.075ZM532.417 93.09L530.329 91.884V88.95L532.417 87.744H535.693V85.566H531.229V84H535.351L537.439 85.206V93.09H536.971L535.693 92.352L534.415 93.09H532.417ZM539.602 85.566V84H541.258V82.488L543.004 81.48V84H545.164V85.566H543.004V91.434H545.164V93H543.346L541.258 91.794V85.566H539.602ZM554.797 91.434V93H549.775L547.687 91.794V85.116L549.775 83.91H552.709L554.797 85.116V89.112H549.433V91.434H554.797ZM549.433 85.476V87.546H553.051V85.476H549.433Z" fill="#FFFDFD"/>
<ellipse cx="3.46154" cy="3.30082" rx="3.46154" ry="3.30082" transform="matrix(0.990909 0.134535 -0.169599 0.985513 475.429 60.5386)" fill="#FFFDFD"/>
<ellipse cx="3.46154" cy="3.30082" rx="3.46154" ry="3.30082" transform="matrix(0.990909 0.134535 -0.169599 0.985513 492.639 60.5386)" fill="#FFFDFD"/>
<rect x="480" y="20" width="14.1538" height="13.525" rx="1" stroke="#FFFDFD" stroke-width="2"/>
<rect x="472" y="28.8796" width="30" height="33.8728" rx="2" fill="#B5E93B"/>
</svg>
