<svg width="181" height="122" viewBox="0 0 181 122" fill="none" xmlns="http://www.w3.org/2000/svg">
<path d="M73 39.6266C73 47.6113 82.1099 57.3381 89.3097 63C95.6278 57.7736 104.811 49.4259 105.472 39.6266C105.972 32.2258 99.6685 22.7859 89.3097 23.0037C76.8937 23.2647 73 33.0209 73 39.6266Z" fill="#B5E93B"/>
<path d="M93.0312 37.7778C92.9651 39.9256 91.2524 41.6169 89.2057 41.5555C87.1591 41.4941 85.5535 39.7032 85.6196 37.5555C85.6857 35.4078 87.3984 33.7164 89.445 33.7778C91.4917 33.8392 93.0972 35.6301 93.0312 37.7778Z" fill="#4A4A4A"/>
<path d="M35.7768 83V92H34.0308V83H35.7768ZM33.9408 80.786V78.86H35.8668V80.786H33.9408ZM46.3039 84.116V92H44.5579V84.476H40.3999V92H38.6539V82.91H39.9679L40.3999 83.648L41.6779 82.91H44.2159L46.3039 84.116ZM55.8389 86.33V90.38H61.2209V92H54.0389V79.4H61.2209V81.02H55.8389V84.71H60.1409V86.33H55.8389ZM63.5621 90.884V83H65.3081V90.524H69.4661V83H71.2121V92.09H69.8981L69.4661 91.352L68.1881 92.09H65.6501L63.5621 90.884ZM79.1134 84.566H75.8374V92H74.0914V83H75.4054L75.8374 83.738L77.1154 83H79.1134V84.566ZM88.7375 90.884L86.6495 92.09H83.1755L81.0875 90.884V84.116L83.1755 82.91H86.6495L88.7375 84.116V90.884ZM82.8335 84.476V90.524H86.9915V84.476H82.8335ZM97.3588 92.09H94.6408L93.3628 91.352V95.6H91.6168V82.91H92.9308L93.3628 83.648L94.6408 82.91H97.3588L99.4468 84.116V90.884L97.3588 92.09ZM93.3628 84.476V90.524H97.7008V84.476H93.3628ZM109.432 90.434V92H104.41L102.322 90.794V84.116L104.41 82.91H107.344L109.432 84.116V88.112H104.068V90.434H109.432ZM104.068 84.476V86.546H107.686V84.476H104.068ZM118.368 88.31V90.524H121.986V88.31H118.368ZM118.71 92.09L116.622 90.884V87.95L118.71 86.744H121.986V84.566H117.522V83H121.644L123.732 84.206V92.09H123.264L121.986 91.352L120.708 92.09H118.71ZM134.265 84.116V92H132.519V84.476H128.361V92H126.615V82.91H127.929L128.361 83.648L129.639 82.91H132.177L134.265 84.116ZM139.232 82.91H141.95L143.228 83.648V78.86H144.974V92.09H143.66L143.228 91.352L141.95 92.09H139.232L137.144 90.884V84.116L139.232 82.91ZM143.228 90.524V84.476H138.89V90.524H143.228ZM33.1825 114V101.4H34.9825V112.38H39.6445V114H33.1825ZM43.0018 110.31V112.524H46.6198V110.31H43.0018ZM43.3438 114.09L41.2558 112.884V109.95L43.3438 108.744H46.6198V106.566H42.1558V105H46.2778L48.3658 106.206V114.09H47.8978L46.6198 113.352L45.3418 114.09H43.3438ZM50.5286 106.566V105H52.1846V103.488L53.9306 102.48V105H56.0906V106.566H53.9306V112.434H56.0906V114H54.2726L52.1846 112.794V106.566H50.5286ZM65.7238 112.434V114H60.7018L58.6138 112.794V106.116L60.7018 104.91H63.6358L65.7238 106.116V110.112H60.3598V112.434H65.7238ZM60.3598 106.476V108.546H63.9778V106.476H60.3598ZM70.3442 105V114H68.5982V105H70.3442ZM68.5082 102.786V100.86H70.4342V102.786H68.5082ZM80.8712 106.116V114H79.1253V106.476H74.9673V114H73.2213V104.91H74.5353L74.9673 105.648L76.2453 104.91H78.7833L80.8712 106.116ZM85.1365 110.31V112.524H88.7545V110.31H85.1365ZM85.4785 114.09L83.3905 112.884V109.95L85.4785 108.744H88.7545V106.566H84.2905V105H88.4125L90.5005 106.206V114.09H90.0325L88.7545 113.352L87.4765 114.09H85.4785ZM105.497 106.116V114H103.751V106.476H100.313V114H98.5674V106.476H95.1294V114H93.3834V104.91H94.6974L95.1294 105.648L96.4074 104.91H98.2254L99.8994 105.882L101.591 104.91H103.409L105.497 106.116ZM115.488 112.434V114H110.466L108.378 112.794V106.116L110.466 104.91H113.4L115.488 106.116V110.112H110.124V112.434H115.488ZM110.124 106.476V108.546H113.742V106.476H110.124ZM123.384 106.566H120.108V114H118.362V105H119.676L120.108 105.738L121.386 105H123.384V106.566ZM127.104 105V114H125.358V105H127.104ZM125.268 102.786V100.86H127.194V102.786H125.268ZM131.727 106.566V112.434H136.731V114H132.069L129.981 112.794V106.206L132.069 105H136.731V106.566H131.727ZM140.631 110.31V112.524H144.249V110.31H140.631ZM140.973 114.09L138.885 112.884V109.95L140.973 108.744H144.249V106.566H139.785V105H143.907L145.995 106.206V114.09H145.527L144.249 113.352L142.971 114.09H140.973Z" fill="#FFFDFD"/>
</svg>
