<svg width="57" height="228" viewBox="0 0 57 228" fill="none" xmlns="http://www.w3.org/2000/svg">
<mask id="path-1-outside-1_3113_1878" maskUnits="userSpaceOnUse" x="-0.580078" y="-0.0065918" width="57" height="228" fill="black">
<rect fill="white" x="-0.580078" y="-0.0065918" width="57" height="228"/>
<path d="M42.4199 191.193H11.6399V191.301L42.4199 202.425V207.825L11.6399 218.895V219.003H42.4199V224.133H4.61992V216.519L36.1559 205.179V205.071L4.61992 193.677L4.61992 186.063H42.4199V191.193ZM53.2199 174.412L41.1779 169.714L15.4199 180.136V174.898L34.6439 167.23V167.122L15.4199 159.508V154.27L53.2199 169.282L53.2199 174.412ZM4.61992 89.1828L42.4199 98.9028V105.329L12.1259 113.321V113.429L42.4199 121.421V127.847L4.61992 137.567V132.329L35.5079 124.661V124.553L4.61992 116.399V110.351L35.5079 102.251V102.143L4.61992 94.4208V89.1828ZM39.0719 60.2898L42.6899 66.5538V76.9758L39.0719 83.2398H18.7679L15.1499 76.9758V66.5538L18.7679 60.2898H39.0719ZM19.8479 78.0018H37.9919V65.5278H19.8479V78.0018ZM20.1179 36.5859V46.4139H42.4199V51.6519H15.4199V47.7099L17.6339 46.4139L15.4199 42.5799V36.5859H20.1179ZM2.99992 25.4256H28.8659V25.3176L15.4199 14.1936V7.92964L27.6239 18.3516L42.4199 6.30964V12.7356L31.3499 21.4836L35.9939 25.4256H42.4199V30.6636H2.99992V25.4256Z"/>
</mask>
<path d="M42.4199 191.193V194.193H45.4199V191.193H42.4199ZM11.6399 191.193V188.193H8.63992V191.193H11.6399ZM11.6399 191.301H8.63992V193.407L10.6203 194.123L11.6399 191.301ZM42.4199 202.425H45.4199V200.32L43.4396 199.604L42.4199 202.425ZM42.4199 207.825L43.4352 210.648L45.4199 209.935V207.825H42.4199ZM11.6399 218.895L10.6246 216.072L8.63992 216.786V218.895H11.6399ZM11.6399 219.003H8.63992V222.003H11.6399V219.003ZM42.4199 219.003H45.4199V216.003H42.4199V219.003ZM42.4199 224.133V227.133H45.4199V224.133H42.4199ZM4.61992 224.133H1.61992V227.133H4.61992V224.133ZM4.61992 216.519L3.60479 213.696L1.61992 214.41L1.61992 216.519H4.61992ZM36.1559 205.179L37.1711 208.002L39.1559 207.289V205.179H36.1559ZM36.1559 205.071H39.1559V202.966L37.1753 202.25L36.1559 205.071ZM4.61992 193.677H1.61992V195.783L3.60051 196.499L4.61992 193.677ZM4.61992 186.063V183.063H1.61992V186.063H4.61992ZM42.4199 186.063H45.4199V183.063H42.4199V186.063ZM42.4199 191.193V188.193H11.6399V191.193V194.193H42.4199V191.193ZM11.6399 191.193H8.63992V191.301H11.6399H14.6399V191.193H11.6399ZM11.6399 191.301L10.6203 194.123L41.4003 205.247L42.4199 202.425L43.4396 199.604L12.6596 188.48L11.6399 191.301ZM42.4199 202.425H39.4199V207.825H42.4199H45.4199V202.425H42.4199ZM42.4199 207.825L41.4046 205.002L10.6246 216.072L11.6399 218.895L12.6552 221.718L43.4352 210.648L42.4199 207.825ZM11.6399 218.895H8.63992V219.003H11.6399H14.6399V218.895H11.6399ZM11.6399 219.003V222.003H42.4199V219.003V216.003H11.6399V219.003ZM42.4199 219.003H39.4199V224.133H42.4199H45.4199V219.003H42.4199ZM42.4199 224.133V221.133H4.61992V224.133V227.133H42.4199V224.133ZM4.61992 224.133H7.61992V216.519H4.61992H1.61992V224.133H4.61992ZM4.61992 216.519L5.63505 219.342L37.1711 208.002L36.1559 205.179L35.1408 202.356L3.60479 213.696L4.61992 216.519ZM36.1559 205.179H39.1559V205.071H36.1559H33.1559V205.179H36.1559ZM36.1559 205.071L37.1753 202.25L5.63933 190.856L4.61992 193.677L3.60051 196.499L35.1365 207.893L36.1559 205.071ZM4.61992 193.677H7.61992V186.063H4.61992H1.61992L1.61992 193.677H4.61992ZM4.61992 186.063L4.61992 189.063H42.4199V186.063V183.063H4.61992V186.063ZM42.4199 186.063H39.4199V191.193H42.4199H45.4199V186.063H42.4199ZM53.2199 174.412L52.1296 177.207L56.2199 178.803V174.412H53.2199ZM41.1779 169.714L42.2683 166.919L41.1577 166.486L40.0527 166.933L41.1779 169.714ZM15.4199 180.136H12.4199V184.586L16.5451 182.917L15.4199 180.136ZM15.4199 174.898L14.3084 172.112L12.4199 172.865V174.898H15.4199ZM34.6439 167.23L35.7554 170.017L37.6439 169.263V167.23H34.6439ZM34.6439 167.122H37.6439V165.084L35.7486 164.333L34.6439 167.122ZM15.4199 159.508H12.4199V161.547L14.3152 162.297L15.4199 159.508ZM15.4199 154.27L16.5272 151.482L12.4199 149.851V154.27H15.4199ZM53.2199 169.282H56.2199V167.246L54.3272 166.494L53.2199 169.282ZM53.2199 174.412L54.3103 171.617L42.2683 166.919L41.1779 169.714L40.0876 172.509L52.1296 177.207L53.2199 174.412ZM41.1779 169.714L40.0527 166.933L14.2947 177.355L15.4199 180.136L16.5451 182.917L42.3031 172.495L41.1779 169.714ZM15.4199 180.136H18.4199V174.898H15.4199H12.4199V180.136H15.4199ZM15.4199 174.898L16.5314 177.685L35.7554 170.017L34.6439 167.23L33.5324 164.444L14.3084 172.112L15.4199 174.898ZM34.6439 167.23H37.6439V167.122H34.6439H31.6439V167.23H34.6439ZM34.6439 167.122L35.7486 164.333L16.5246 156.719L15.4199 159.508L14.3152 162.297L33.5392 169.911L34.6439 167.122ZM15.4199 159.508H18.4199V154.27H15.4199H12.4199V159.508H15.4199ZM15.4199 154.27L14.3126 157.058L52.1126 172.07L53.2199 169.282L54.3272 166.494L16.5272 151.482L15.4199 154.27ZM53.2199 169.282H50.2199L50.2199 174.412H53.2199H56.2199V169.282H53.2199ZM4.61992 89.1828L5.36704 86.2773L1.61992 85.3137V89.1828H4.61992ZM42.4199 98.9028H45.4199V96.5766L43.167 95.9973L42.4199 98.9028ZM42.4199 105.329L43.1852 108.23L45.4199 107.64V105.329H42.4199ZM12.1259 113.321L11.3607 110.42L9.12592 111.01V113.321H12.1259ZM12.1259 113.429H9.12592V115.74L11.3607 116.33L12.1259 113.429ZM42.4199 121.421H45.4199V119.11L43.1852 118.52L42.4199 121.421ZM42.4199 127.847L43.167 130.752L45.4199 130.173V127.847H42.4199ZM4.61992 137.567H1.61992V141.436L5.36704 140.472L4.61992 137.567ZM4.61992 132.329L3.8971 129.417L1.61992 129.982L1.61992 132.329H4.61992ZM35.5079 124.661L36.2307 127.572L38.5079 127.007V124.661H35.5079ZM35.5079 124.553H38.5079V122.242L36.2736 121.652L35.5079 124.553ZM4.61992 116.399H1.61992V118.71L3.85419 119.299L4.61992 116.399ZM4.61992 110.351L3.85894 107.449L1.61992 108.036V110.351H4.61992ZM35.5079 102.251L36.2689 105.153L38.5079 104.565V102.251H35.5079ZM35.5079 102.143H38.5079V99.8004L36.2355 99.2323L35.5079 102.143ZM4.61992 94.4208H1.61992V96.7631L3.89231 97.3312L4.61992 94.4208ZM4.61992 89.1828L3.8728 92.0882L41.6728 101.808L42.4199 98.9028L43.167 95.9973L5.36704 86.2773L4.61992 89.1828ZM42.4199 98.9028H39.4199V105.329H42.4199H45.4199V98.9028H42.4199ZM42.4199 105.329L41.6547 102.428L11.3607 110.42L12.1259 113.321L12.8912 116.222L43.1852 108.23L42.4199 105.329ZM12.1259 113.321H9.12592V113.429H12.1259H15.1259V113.321H12.1259ZM12.1259 113.429L11.3607 116.33L41.6547 124.322L42.4199 121.421L43.1852 118.52L12.8912 110.528L12.1259 113.429ZM42.4199 121.421H39.4199V127.847H42.4199H45.4199V121.421H42.4199ZM42.4199 127.847L41.6728 124.941L3.8728 134.661L4.61992 137.567L5.36704 140.472L43.167 130.752L42.4199 127.847ZM4.61992 137.567H7.61992V132.329H4.61992H1.61992V137.567H4.61992ZM4.61992 132.329L5.34273 135.24L36.2307 127.572L35.5079 124.661L34.7851 121.749L3.8971 129.417L4.61992 132.329ZM35.5079 124.661H38.5079V124.553H35.5079H32.5079V124.661H35.5079ZM35.5079 124.553L36.2736 121.652L5.38564 113.498L4.61992 116.399L3.85419 119.299L34.7422 127.453L35.5079 124.553ZM4.61992 116.399H7.61992V110.351H4.61992H1.61992V116.399H4.61992ZM4.61992 110.351L5.3809 113.253L36.2689 105.153L35.5079 102.251L34.7469 99.3489L3.85894 107.449L4.61992 110.351ZM35.5079 102.251H38.5079V102.143H35.5079H32.5079V102.251H35.5079ZM35.5079 102.143L36.2355 99.2323L5.34753 91.5103L4.61992 94.4208L3.89231 97.3312L34.7803 105.053L35.5079 102.143ZM4.61992 94.4208H7.61992V89.1828H4.61992H1.61992V94.4208H4.61992ZM39.0719 60.2898L41.6697 58.7894L40.8036 57.2898H39.0719L39.0719 60.2898ZM42.6899 66.5538H45.6899V65.7497L45.2877 65.0534L42.6899 66.5538ZM42.6899 76.9758L45.2877 78.4763L45.6899 77.78V76.9758H42.6899ZM39.0719 83.2398V86.2398H40.8036L41.6697 84.7403L39.0719 83.2398ZM18.7679 83.2398L16.1701 84.7403L17.0362 86.2398H18.7679V83.2398ZM15.1499 76.9758H12.1499V77.78L12.5521 78.4763L15.1499 76.9758ZM15.1499 66.5538L12.5521 65.0534L12.1499 65.7497V66.5538H15.1499ZM18.7679 60.2898V57.2898H17.0362L16.1701 58.7894L18.7679 60.2898ZM19.8479 78.0018H16.8479V81.0018H19.8479V78.0018ZM37.9919 78.0018V81.0018H40.9919V78.0018H37.9919ZM37.9919 65.5278H40.9919V62.5278H37.9919V65.5278ZM19.8479 65.5278V62.5278H16.8479V65.5278H19.8479ZM39.0719 60.2898L36.4741 61.7903L40.0921 68.0543L42.6899 66.5538L45.2877 65.0534L41.6697 58.7894L39.0719 60.2898ZM42.6899 66.5538H39.6899V76.9758H42.6899H45.6899V66.5538H42.6899ZM42.6899 76.9758L40.0921 75.4754L36.4741 81.7393L39.0719 83.2398L41.6697 84.7403L45.2877 78.4763L42.6899 76.9758ZM39.0719 83.2398V80.2398H18.7679V83.2398V86.2398H39.0719V83.2398ZM18.7679 83.2398L21.3657 81.7393L17.7477 75.4754L15.1499 76.9758L12.5521 78.4763L16.1701 84.7403L18.7679 83.2398ZM15.1499 76.9758H18.1499V66.5538H15.1499H12.1499V76.9758H15.1499ZM15.1499 66.5538L17.7477 68.0543L21.3657 61.7903L18.7679 60.2898L16.1701 58.7894L12.5521 65.0534L15.1499 66.5538ZM18.7679 60.2898V63.2898H39.0719V60.2898L39.0719 57.2898H18.7679V60.2898ZM19.8479 78.0018V81.0018H37.9919V78.0018V75.0018H19.8479V78.0018ZM37.9919 78.0018H40.9919V65.5278H37.9919H34.9919V78.0018H37.9919ZM37.9919 65.5278V62.5278H19.8479V65.5278V68.5278H37.9919V65.5278ZM19.8479 65.5278H16.8479V78.0018H19.8479H22.8479V65.5278H19.8479ZM20.1179 36.5859H23.1179V33.5859H20.1179V36.5859ZM20.1179 46.4139H17.1179V49.4139H20.1179V46.4139ZM42.4199 46.4139H45.4199V43.4139H42.4199V46.4139ZM42.4199 51.6519V54.6519H45.4199V51.6519H42.4199ZM15.4199 51.6519H12.4199V54.6519H15.4199V51.6519ZM15.4199 47.7099L13.9044 45.1209L12.4199 45.9898V47.7099H15.4199ZM17.6339 46.4139L19.1495 49.003L21.7233 47.4964L20.2319 44.9137L17.6339 46.4139ZM15.4199 42.5799H12.4199V43.3839L12.822 44.0801L15.4199 42.5799ZM15.4199 36.5859V33.5859H12.4199V36.5859H15.4199ZM20.1179 36.5859H17.1179V46.4139H20.1179H23.1179V36.5859H20.1179ZM20.1179 46.4139V49.4139H42.4199V46.4139V43.4139H20.1179V46.4139ZM42.4199 46.4139H39.4199V51.6519H42.4199H45.4199V46.4139H42.4199ZM42.4199 51.6519V48.6519H15.4199V51.6519V54.6519H42.4199V51.6519ZM15.4199 51.6519H18.4199V47.7099H15.4199H12.4199V51.6519H15.4199ZM15.4199 47.7099L16.9355 50.299L19.1495 49.003L17.6339 46.4139L16.1184 43.8249L13.9044 45.1209L15.4199 47.7099ZM17.6339 46.4139L20.2319 44.9137L18.0179 41.0797L15.4199 42.5799L12.822 44.0801L15.036 47.9141L17.6339 46.4139ZM15.4199 42.5799H18.4199V36.5859H15.4199H12.4199V42.5799H15.4199ZM15.4199 36.5859V39.5859H20.1179V36.5859V33.5859H15.4199V36.5859ZM2.99992 25.4256V22.4256H-7.9155e-05V25.4256H2.99992ZM28.8659 25.4256V28.4256H31.8659V25.4256H28.8659ZM28.8659 25.3176H31.8659V23.906L30.7782 23.0061L28.8659 25.3176ZM15.4199 14.1936H12.4199V15.6053L13.5076 16.5051L15.4199 14.1936ZM15.4199 7.92964L17.3681 5.64832L12.4199 1.42262V7.92964H15.4199ZM27.6239 18.3516L25.6757 20.633L27.5777 22.2572L29.5176 20.6784L27.6239 18.3516ZM42.4199 6.30965H45.4199V3.05176e-05L40.5262 3.98286L42.4199 6.30965ZM42.4199 12.7356L44.28 15.0894L45.4199 14.1886V12.7356H42.4199ZM31.3499 21.4836L29.4899 19.1299L26.6163 21.4007L29.4085 23.7708L31.3499 21.4836ZM35.9939 25.4256L34.0525 27.7128L34.8923 28.4256H35.9939V25.4256ZM42.4199 25.4256H45.4199V22.4256H42.4199V25.4256ZM42.4199 30.6636V33.6636H45.4199V30.6636H42.4199ZM2.99992 30.6636H-7.9155e-05V33.6636H2.99992V30.6636ZM2.99992 25.4256V28.4256H28.8659V25.4256V22.4256H2.99992V25.4256ZM28.8659 25.4256H31.8659V25.3176H28.8659H25.8659V25.4256H28.8659ZM28.8659 25.3176L30.7782 23.0061L17.3322 11.8821L15.4199 14.1936L13.5076 16.5051L26.9536 27.6291L28.8659 25.3176ZM15.4199 14.1936H18.4199V7.92964H15.4199H12.4199V14.1936H15.4199ZM15.4199 7.92964L13.4717 10.211L25.6757 20.633L27.6239 18.3516L29.5721 16.0703L17.3681 5.64832L15.4199 7.92964ZM27.6239 18.3516L29.5176 20.6784L44.3136 8.63643L42.4199 6.30965L40.5262 3.98286L25.7302 16.0249L27.6239 18.3516ZM42.4199 6.30965H39.4199V12.7356H42.4199H45.4199V6.30965H42.4199ZM42.4199 12.7356L40.5599 10.3819L29.4899 19.1299L31.3499 21.4836L33.21 23.8374L44.28 15.0894L42.4199 12.7356ZM31.3499 21.4836L29.4085 23.7708L34.0525 27.7128L35.9939 25.4256L37.9353 23.1385L33.2913 19.1965L31.3499 21.4836ZM35.9939 25.4256V28.4256H42.4199V25.4256V22.4256H35.9939V25.4256ZM42.4199 25.4256H39.4199V30.6636H42.4199H45.4199V25.4256H42.4199ZM42.4199 30.6636V27.6636H2.99992V30.6636V33.6636H42.4199V30.6636ZM2.99992 30.6636H5.99992V25.4256H2.99992H-7.9155e-05V30.6636H2.99992Z" fill="#B5E93B" mask="url(#path-1-outside-1_3113_1878)"/>
</svg>
