<svg width="136" height="32" viewBox="0 0 136 32" fill="none" xmlns="http://www.w3.org/2000/svg">
<mask id="path-1-outside-1_3129_3479" maskUnits="userSpaceOnUse" x="-0.719727" y="-0.639893" width="136" height="33" fill="black">
<rect fill="white" x="-0.719727" y="-0.639893" width="136" height="33"/>
<path d="M19.8483 24.3601V9.57611H19.7843L14.7283 24.3601H10.4723L5.38427 9.38411H5.32027V24.3601H1.00027V1.96011H6.95227L12.5843 18.4401H12.6483L18.2483 1.96011H24.1683V24.3601H19.8483ZM30.522 30.7601L33.466 23.2401L27.354 8.36011H31.738L35.674 17.7681H35.738L39.45 8.36011H43.834L34.842 30.7601H30.522ZM82.544 1.96011L76.848 24.3601H72.048L68.016 9.22411H67.952L63.92 24.3601H59.12L53.424 1.96011H57.776L61.552 17.3201H61.616L65.712 1.96011H70.256L74.352 17.2561H74.416L78.192 1.96011H82.544ZM99.9828 22.3761L96.2708 24.5201H89.4548L85.7428 22.3761V10.3441L89.4548 8.20011H96.2708L99.9828 10.3441V22.3761ZM90.1268 11.9441V20.7761H95.5988V11.9441H90.1268ZM114.662 12.1041H109.158V24.3601H104.774V8.36011H108.39L109.158 9.67211L111.43 8.36011H114.662V12.1041ZM122.252 1.00011V14.7921H122.316L127.276 8.36011H132.3L126.572 15.4961L133.26 24.3601H128.172L124.012 18.6961L122.252 20.9041V24.3601H117.868V1.00011H122.252Z"/>
</mask>
<path d="M19.8483 24.3601H18.8483V25.3601H19.8483V24.3601ZM19.8483 9.57611H20.8483V8.57611H19.8483V9.57611ZM19.7843 9.57611V8.57611H19.0694L18.8381 9.25252L19.7843 9.57611ZM14.7283 24.3601V25.3601H15.4431L15.6745 24.6837L14.7283 24.3601ZM10.4723 24.3601L9.52543 24.6818L9.75588 25.3601H10.4723V24.3601ZM5.38427 9.38411L6.33112 9.06242L6.10067 8.38411H5.38427V9.38411ZM5.32027 9.38411V8.38411H4.32027V9.38411H5.32027ZM5.32027 24.3601V25.3601H6.32027V24.3601H5.32027ZM1.00027 24.3601H0.000273466V25.3601H1.00027V24.3601ZM1.00027 1.96011V0.960106H0.000273466V1.96011H1.00027ZM6.95227 1.96011L7.89854 1.63672L7.66731 0.960106H6.95227V1.96011ZM12.5843 18.4401L11.638 18.7635L11.8692 19.4401H12.5843V18.4401ZM12.6483 18.4401V19.4401H13.3646L13.5951 18.7618L12.6483 18.4401ZM18.2483 1.96011V0.960106H17.5319L17.3014 1.63837L18.2483 1.96011ZM24.1683 1.96011H25.1683V0.960106H24.1683V1.96011ZM24.1683 24.3601V25.3601H25.1683V24.3601H24.1683ZM19.8483 24.3601H20.8483V9.57611H19.8483H18.8483V24.3601H19.8483ZM19.8483 9.57611V8.57611H19.7843V9.57611V10.5761H19.8483V9.57611ZM19.7843 9.57611L18.8381 9.25252L13.7821 24.0365L14.7283 24.3601L15.6745 24.6837L20.7305 9.8997L19.7843 9.57611ZM14.7283 24.3601V23.3601H10.4723V24.3601V25.3601H14.7283V24.3601ZM10.4723 24.3601L11.4191 24.0384L6.33112 9.06242L5.38427 9.38411L4.43743 9.70579L9.52543 24.6818L10.4723 24.3601ZM5.38427 9.38411V8.38411H5.32027V9.38411V10.3841H5.38427V9.38411ZM5.32027 9.38411H4.32027V24.3601H5.32027H6.32027V9.38411H5.32027ZM5.32027 24.3601V23.3601H1.00027V24.3601V25.3601H5.32027V24.3601ZM1.00027 24.3601H2.00027V1.96011H1.00027H0.000273466V24.3601H1.00027ZM1.00027 1.96011V2.96011H6.95227V1.96011V0.960106H1.00027V1.96011ZM6.95227 1.96011L6.00601 2.28349L11.638 18.7635L12.5843 18.4401L13.5305 18.1167L7.89854 1.63672L6.95227 1.96011ZM12.5843 18.4401V19.4401H12.6483V18.4401V17.4401H12.5843V18.4401ZM12.6483 18.4401L13.5951 18.7618L19.1951 2.28184L18.2483 1.96011L17.3014 1.63837L11.7014 18.1184L12.6483 18.4401ZM18.2483 1.96011V2.96011H24.1683V1.96011V0.960106H18.2483V1.96011ZM24.1683 1.96011H23.1683V24.3601H24.1683H25.1683V1.96011H24.1683ZM24.1683 24.3601V23.3601H19.8483V24.3601V25.3601H24.1683V24.3601ZM30.522 30.7601L29.5908 30.3956L29.0566 31.7601H30.522V30.7601ZM33.466 23.2401L34.3972 23.6047L34.5434 23.2312L34.391 22.8602L33.466 23.2401ZM27.354 8.36011V7.36011H25.8622L26.429 8.74006L27.354 8.36011ZM31.738 8.36011L32.6605 7.97416L32.4036 7.36011H31.738V8.36011ZM35.674 17.7681L34.7515 18.1541L35.0084 18.7681H35.674V17.7681ZM35.738 17.7681V18.7681H36.4185L36.6682 18.1351L35.738 17.7681ZM39.45 8.36011V7.36011H38.7696L38.5198 7.99309L39.45 8.36011ZM43.834 8.36011L44.762 8.73264L45.313 7.36011H43.834V8.36011ZM34.842 30.7601V31.7601H35.5182L35.77 31.1326L34.842 30.7601ZM30.522 30.7601L31.4532 31.1247L34.3972 23.6047L33.466 23.2401L32.5348 22.8756L29.5908 30.3956L30.522 30.7601ZM33.466 23.2401L34.391 22.8602L28.279 7.98016L27.354 8.36011L26.429 8.74006L32.541 23.6201L33.466 23.2401ZM27.354 8.36011V9.36011H31.738V8.36011V7.36011H27.354V8.36011ZM31.738 8.36011L30.8155 8.74606L34.7515 18.1541L35.674 17.7681L36.5965 17.3822L32.6605 7.97416L31.738 8.36011ZM35.674 17.7681V18.7681H35.738V17.7681V16.7681H35.674V17.7681ZM35.738 17.7681L36.6682 18.1351L40.3802 8.72713L39.45 8.36011L38.5198 7.99309L34.8078 17.4011L35.738 17.7681ZM39.45 8.36011V9.36011H43.834V8.36011V7.36011H39.45V8.36011ZM43.834 8.36011L42.906 7.98757L33.914 30.3876L34.842 30.7601L35.77 31.1326L44.762 8.73264L43.834 8.36011ZM34.842 30.7601V29.7601H30.522V30.7601V31.7601H34.842V30.7601ZM82.544 1.96011L83.5132 2.20655L83.8301 0.960106H82.544V1.96011ZM76.848 24.3601V25.3601H77.6256L77.8172 24.6066L76.848 24.3601ZM72.048 24.3601L71.0817 24.6175L71.2795 25.3601H72.048V24.3601ZM68.016 9.22411L68.9823 8.9667L68.7845 8.22411H68.016V9.22411ZM67.952 9.22411V8.22411H67.1835L66.9857 8.9667L67.952 9.22411ZM63.92 24.3601V25.3601H64.6885L64.8863 24.6175L63.92 24.3601ZM59.12 24.3601L58.1509 24.6066L58.3425 25.3601H59.12V24.3601ZM53.424 1.96011V0.960106H52.1379L52.4549 2.20655L53.424 1.96011ZM57.776 1.96011L58.7471 1.72138L58.56 0.960106H57.776V1.96011ZM61.552 17.3201L60.5809 17.5588L60.7681 18.3201H61.552V17.3201ZM61.616 17.3201V18.3201H62.3843L62.5823 17.5778L61.616 17.3201ZM65.712 1.96011V0.960106H64.9437L64.7458 1.70244L65.712 1.96011ZM70.256 1.96011L71.222 1.70144L71.0235 0.960106H70.256V1.96011ZM74.352 17.2561L73.3861 17.5148L73.5846 18.2561H74.352V17.2561ZM74.416 17.2561V18.2561H75.1992L75.3869 17.4958L74.416 17.2561ZM78.192 1.96011V0.960106H77.4089L77.2212 1.72044L78.192 1.96011ZM82.544 1.96011L81.5749 1.71366L75.8789 24.1137L76.848 24.3601L77.8172 24.6066L83.5132 2.20655L82.544 1.96011ZM76.848 24.3601V23.3601H72.048V24.3601V25.3601H76.848V24.3601ZM72.048 24.3601L73.0143 24.1027L68.9823 8.9667L68.016 9.22411L67.0497 9.48151L71.0817 24.6175L72.048 24.3601ZM68.016 9.22411V8.22411H67.952V9.22411V10.2241H68.016V9.22411ZM67.952 9.22411L66.9857 8.9667L62.9537 24.1027L63.92 24.3601L64.8863 24.6175L68.9183 9.48151L67.952 9.22411ZM63.92 24.3601V23.3601H59.12V24.3601V25.3601H63.92V24.3601ZM59.12 24.3601L60.0892 24.1137L54.3932 1.71366L53.424 1.96011L52.4549 2.20655L58.1509 24.6066L59.12 24.3601ZM53.424 1.96011V2.96011H57.776V1.96011V0.960106H53.424V1.96011ZM57.776 1.96011L56.8049 2.19883L60.5809 17.5588L61.552 17.3201L62.5231 17.0814L58.7471 1.72138L57.776 1.96011ZM61.552 17.3201V18.3201H61.616V17.3201V16.3201H61.552V17.3201ZM61.616 17.3201L62.5823 17.5778L66.6783 2.21777L65.712 1.96011L64.7458 1.70244L60.6498 17.0624L61.616 17.3201ZM65.712 1.96011V2.96011H70.256V1.96011V0.960106H65.712V1.96011ZM70.256 1.96011L69.2901 2.21877L73.3861 17.5148L74.352 17.2561L75.318 16.9974L71.222 1.70144L70.256 1.96011ZM74.352 17.2561V18.2561H74.416V17.2561V16.2561H74.352V17.2561ZM74.416 17.2561L75.3869 17.4958L79.1629 2.19977L78.192 1.96011L77.2212 1.72044L73.4452 17.0164L74.416 17.2561ZM78.192 1.96011V2.96011H82.544V1.96011V0.960106H78.192V1.96011ZM99.9828 22.3761L100.483 23.242L100.983 22.9533V22.3761H99.9828ZM96.2708 24.5201V25.5201H96.5388L96.7709 25.386L96.2708 24.5201ZM89.4548 24.5201L88.9546 25.386L89.1867 25.5201H89.4548V24.5201ZM85.7428 22.3761H84.7428V22.9533L85.2426 23.242L85.7428 22.3761ZM85.7428 10.3441L85.2426 9.47817L84.7428 9.76687V10.3441H85.7428ZM89.4548 8.20011V7.20011H89.1867L88.9546 7.33417L89.4548 8.20011ZM96.2708 8.20011L96.7709 7.33417L96.5388 7.20011H96.2708V8.20011ZM99.9828 10.3441H100.983V9.76687L100.483 9.47817L99.9828 10.3441ZM90.1268 11.9441V10.9441H89.1268V11.9441H90.1268ZM90.1268 20.7761H89.1268V21.7761H90.1268V20.7761ZM95.5988 20.7761V21.7761H96.5988V20.7761H95.5988ZM95.5988 11.9441H96.5988V10.9441H95.5988V11.9441ZM99.9828 22.3761L99.4826 21.5102L95.7706 23.6542L96.2708 24.5201L96.7709 25.386L100.483 23.242L99.9828 22.3761ZM96.2708 24.5201V23.5201H89.4548V24.5201V25.5201H96.2708V24.5201ZM89.4548 24.5201L89.9549 23.6542L86.2429 21.5102L85.7428 22.3761L85.2426 23.242L88.9546 25.386L89.4548 24.5201ZM85.7428 22.3761H86.7428V10.3441H85.7428H84.7428V22.3761H85.7428ZM85.7428 10.3441L86.2429 11.21L89.9549 9.06604L89.4548 8.20011L88.9546 7.33417L85.2426 9.47817L85.7428 10.3441ZM89.4548 8.20011V9.20011H96.2708V8.20011V7.20011H89.4548V8.20011ZM96.2708 8.20011L95.7706 9.06604L99.4826 11.21L99.9828 10.3441L100.483 9.47817L96.7709 7.33417L96.2708 8.20011ZM99.9828 10.3441H98.9828V22.3761H99.9828H100.983V10.3441H99.9828ZM90.1268 11.9441H89.1268V20.7761H90.1268H91.1268V11.9441H90.1268ZM90.1268 20.7761V21.7761H95.5988V20.7761V19.7761H90.1268V20.7761ZM95.5988 20.7761H96.5988V11.9441H95.5988H94.5988V20.7761H95.5988ZM95.5988 11.9441V10.9441H90.1268V11.9441V12.9441H95.5988V11.9441ZM114.662 12.1041V13.1041H115.662V12.1041H114.662ZM109.158 12.1041V11.1041H108.158V12.1041H109.158ZM109.158 24.3601V25.3601H110.158V24.3601H109.158ZM104.774 24.3601H103.774V25.3601H104.774V24.3601ZM104.774 8.36011V7.36011H103.774V8.36011H104.774ZM108.39 8.36011L109.253 7.85493L108.963 7.36011H108.39V8.36011ZM109.158 9.67211L108.295 10.1773L108.797 11.0352L109.658 10.5381L109.158 9.67211ZM111.43 8.36011V7.36011H111.162L110.93 7.49413L111.43 8.36011ZM114.662 8.36011H115.662V7.36011H114.662V8.36011ZM114.662 12.1041V11.1041H109.158V12.1041V13.1041H114.662V12.1041ZM109.158 12.1041H108.158V24.3601H109.158H110.158V12.1041H109.158ZM109.158 24.3601V23.3601H104.774V24.3601V25.3601H109.158V24.3601ZM104.774 24.3601H105.774V8.36011H104.774H103.774V24.3601H104.774ZM104.774 8.36011V9.36011H108.39V8.36011V7.36011H104.774V8.36011ZM108.39 8.36011L107.527 8.86529L108.295 10.1773L109.158 9.67211L110.021 9.16693L109.253 7.85493L108.39 8.36011ZM109.158 9.67211L109.658 10.5381L111.93 9.22609L111.43 8.36011L110.93 7.49413L108.658 8.80612L109.158 9.67211ZM111.43 8.36011V9.36011H114.662V8.36011V7.36011H111.43V8.36011ZM114.662 8.36011H113.662V12.1041H114.662H115.662V8.36011H114.662ZM122.252 1.00011H123.252V0.000106812H122.252V1.00011ZM122.252 14.7921H121.252V15.7921H122.252V14.7921ZM122.316 14.7921V15.7921H122.807L123.108 15.4028L122.316 14.7921ZM127.276 8.36011V7.36011H126.784L126.484 7.74944L127.276 8.36011ZM132.3 8.36011L133.08 8.98608L134.385 7.36011H132.3V8.36011ZM126.572 15.4961L125.792 14.8701L125.305 15.4771L125.774 16.0984L126.572 15.4961ZM133.26 24.3601V25.3601H135.267L134.058 23.7578L133.26 24.3601ZM128.172 24.3601L127.366 24.9521L127.665 25.3601H128.172V24.3601ZM124.012 18.6961L124.818 18.1042L124.044 17.051L123.23 18.0728L124.012 18.6961ZM122.252 20.9041L121.47 20.2808L121.252 20.5543V20.9041H122.252ZM122.252 24.3601V25.3601H123.252V24.3601H122.252ZM117.868 24.3601H116.868V25.3601H117.868V24.3601ZM117.868 1.00011V0.000106812H116.868V1.00011H117.868ZM122.252 1.00011H121.252V14.7921H122.252H123.252V1.00011H122.252ZM122.252 14.7921V15.7921H122.316V14.7921V13.7921H122.252V14.7921ZM122.316 14.7921L123.108 15.4028L128.068 8.97077L127.276 8.36011L126.484 7.74944L121.524 14.1814L122.316 14.7921ZM127.276 8.36011V9.36011H132.3V8.36011V7.36011H127.276V8.36011ZM132.3 8.36011L131.52 7.73413L125.792 14.8701L126.572 15.4961L127.352 16.1221L133.08 8.98608L132.3 8.36011ZM126.572 15.4961L125.774 16.0984L132.462 24.9624L133.26 24.3601L134.058 23.7578L127.37 14.8938L126.572 15.4961ZM133.26 24.3601V23.3601H128.172V24.3601V25.3601H133.26V24.3601ZM128.172 24.3601L128.978 23.7682L124.818 18.1042L124.012 18.6961L123.206 19.2881L127.366 24.9521L128.172 24.3601ZM124.012 18.6961L123.23 18.0728L121.47 20.2808L122.252 20.9041L123.034 21.5274L124.794 19.3194L124.012 18.6961ZM122.252 20.9041H121.252V24.3601H122.252H123.252V20.9041H122.252ZM122.252 24.3601V23.3601H117.868V24.3601V25.3601H122.252V24.3601ZM117.868 24.3601H118.868V1.00011H117.868H116.868V24.3601H117.868ZM117.868 1.00011V2.00011H122.252V1.00011V0.000106812H117.868V1.00011Z" fill="#B5E93B" mask="url(#path-1-outside-1_3129_3479)"/>
</svg>
