<svg width="201" height="21" viewBox="0 0 201 21" fill="none" xmlns="http://www.w3.org/2000/svg">
<path d="M2.19953 4.422V16.06H-0.000468671V0.659997H2.00153L9.96553 12.298H10.0095V0.659997H12.2095V16.06H10.2075L2.24353 4.422H2.19953ZM24.6473 14.146V16.06H18.5093L15.9573 14.586V6.424L18.5093 4.95H22.0953L24.6473 6.424V11.308H18.0913V14.146H24.6473ZM18.0913 6.864V9.394H22.5133V6.864H18.0913ZM36.8504 14.146V16.06H30.7124L28.1604 14.586V6.424L30.7124 4.95H34.2984L36.8504 6.424V11.308H30.2944V14.146H36.8504ZM30.2944 6.864V9.394H34.7164V6.864H30.2944ZM42.9155 4.95H46.2375L47.7995 5.852V-2.86102e-06H49.9335V16.17H48.3275L47.7995 15.268L46.2375 16.17H42.9155L40.3635 14.696V6.424L42.9155 4.95ZM47.7995 14.256V6.864H42.4975V14.256H47.7995ZM60.8563 11.55V14.256H65.2783V11.55H60.8563ZM61.2743 16.17L58.7223 14.696V11.11L61.2743 9.636H65.2783V6.974H59.8223V5.06H64.8603L67.4123 6.534V16.17H66.8403L65.2783 15.268L63.7163 16.17H61.2743ZM75.7706 6.974V5.06H77.7946V3.212L79.9286 1.98V5.06H82.5686V6.974H79.9286V14.146H82.5686V16.06H80.3466L77.7946 14.586V6.974H75.7706ZM94.3426 14.146V16.06H88.2046L85.6526 14.586V6.424L88.2046 4.95H91.7906L94.3426 6.424V11.308H87.7866V14.146H94.3426ZM87.7866 6.864V9.394H92.2086V6.864H87.7866ZM99.5497 11.55V14.256H103.972V11.55H99.5497ZM99.9677 16.17L97.4157 14.696V11.11L99.9677 9.636H103.972V6.974H98.5157V5.06H103.554L106.106 6.534V16.17H105.534L103.972 15.268L102.41 16.17H99.9677ZM124.435 6.424V16.06H122.301V6.864H118.099V16.06H115.965V6.864H111.763V16.06H109.629V4.95H111.235L111.763 5.852L113.325 4.95H115.547L117.593 6.138L119.661 4.95H121.883L124.435 6.424ZM134.973 16.17H131.651L130.089 15.268V20.46H127.955V4.95H129.561L130.089 5.852L131.651 4.95H134.973L137.525 6.424V14.696L134.973 16.17ZM130.089 6.864V14.256H135.391V6.864H130.089ZM143.591 16.06L141.039 14.586V-2.86102e-06H143.173V14.146H145.813V16.06H143.591ZM149.716 11.55V14.256H154.138V11.55H149.716ZM150.134 16.17L147.582 14.696V11.11L150.134 9.636H154.138V6.974H148.682V5.06H153.72L156.272 6.534V16.17H155.7L154.138 15.268L152.576 16.17H150.134ZM160.807 20.46L162.721 15.554L158.475 5.06H160.609L163.733 12.892H163.777L166.879 5.06H169.013L162.897 20.46H160.807ZM179.893 14.146V16.06H173.755L171.203 14.586V6.424L173.755 4.95H177.341L179.893 6.424V11.308H173.337V14.146H179.893ZM173.337 6.864V9.394H177.759V6.864H173.337ZM189.544 6.974H185.54V16.06H183.406V5.06H185.012L185.54 5.962L187.102 5.06H189.544V6.974ZM196.731 7.458L196.533 10.164H194.773L194.553 6.952L197.105 5.478H198.777V1.98H194.377V3.96H192.177V1.474L194.729 -2.86102e-06H198.425L200.977 1.474V5.984L198.425 7.458H196.731ZM194.003 16.06V12.76H197.303V16.06H194.003Z" fill="#B5E93B"/>
</svg>
