<svg width="46" height="283" viewBox="0 0 46 283" fill="none" xmlns="http://www.w3.org/2000/svg">
<mask id="path-1-outside-1_3113_1862" maskUnits="userSpaceOnUse" x="-0.580078" y="-0.823242" width="46" height="284" fill="black">
<rect fill="white" x="-0.580078" y="-0.823242" width="46" height="284"/>
<path d="M27.3539 265.763V273.917H42.4199V279.317H4.61992L4.61992 259.931L8.23792 253.667H23.7359L27.3539 259.931L42.4199 251.237V257.231L27.3539 265.763ZM9.47992 273.917H22.4939V259.067H9.47992V273.917ZM37.7219 223.142H42.4199L42.4199 238.208L38.8019 244.472H18.7679L15.1499 238.208V229.406L18.7679 223.142H30.7559L30.7559 239.234H37.7219L37.7219 223.142ZM19.8479 239.234H26.0579V228.38H19.8479V239.234ZM20.1179 216.679H15.4199V211.711H6.61792L2.99992 205.447V199.993H7.69792V206.473H15.4199V199.993H20.1179V206.473H42.4199V211.711H20.1179V216.679ZM37.7219 172.201H42.4199V187.267L38.8019 193.531H18.7679L15.1499 187.267V178.465L18.7679 172.201H30.7559V188.293H37.7219V172.201ZM19.8479 188.293H26.0579V177.439H19.8479V188.293ZM20.1179 148.511V158.339H42.4199V163.577H15.4199V159.635L17.6339 158.339L15.4199 154.505V148.511H20.1179ZM37.7219 121.259H42.4199V136.325L38.8019 142.589H18.7679L15.1499 136.325V127.523L18.7679 121.259H30.7559V137.351H37.7219V121.259ZM19.8479 137.351H26.0579V126.497H19.8479V137.351ZM18.7679 89.6861H42.4199V94.9241H19.8479V107.398H42.4199V112.636H15.1499V108.694L17.3639 107.398L15.1499 103.564V95.9501L18.7679 89.6861ZM20.1179 75.8102H37.7219V60.7982H42.4199V74.7842L38.8019 81.0482H19.0379L15.4199 74.7842V60.7982H20.1179V75.8102ZM37.7219 31.9271H42.4199V46.9931L38.8019 53.2571H18.7679L15.1499 46.9931V38.1911L18.7679 31.9271H30.7559V48.0191H37.7219V31.9271ZM19.8479 48.0191H26.0579V37.1651H19.8479V48.0191ZM29.9999 3.00002H38.8019L42.4199 9.26402V23.304H37.7219V8.23802H31.0799V17.04L27.4619 23.304H19.0379L15.4199 17.04V3.54002H20.1179V18.066H26.3819V9.26402L29.9999 3.00002Z"/>
</mask>
<path d="M27.3539 265.763L25.8756 263.152L24.3539 264.014V265.763H27.3539ZM27.3539 273.917H24.3539V276.917H27.3539V273.917ZM42.4199 273.917H45.4199V270.917H42.4199V273.917ZM42.4199 279.317V282.317H45.4199V279.317H42.4199ZM4.61992 279.317H1.61992V282.317H4.61992V279.317ZM4.61992 259.931L2.02211 258.43L1.61992 259.127V259.931H4.61992ZM8.23792 253.667V250.667H6.50622L5.64011 252.166L8.23792 253.667ZM23.7359 253.667L26.3337 252.166L25.4676 250.667H23.7359V253.667ZM27.3539 259.931L24.7561 261.431L26.256 264.028L28.8534 262.529L27.3539 259.931ZM42.4199 251.237H45.4199V246.042L40.9205 248.638L42.4199 251.237ZM42.4199 257.231L43.8983 259.841L45.4199 258.979V257.231H42.4199ZM9.47992 273.917H6.47992V276.917H9.47992V273.917ZM22.4939 273.917V276.917H25.4939V273.917H22.4939ZM22.4939 259.067H25.4939V256.067H22.4939V259.067ZM9.47992 259.067V256.067H6.47992V259.067H9.47992ZM24.3539 265.763V273.917H30.3539V265.763H24.3539ZM27.3539 276.917H42.4199V270.917H27.3539V276.917ZM39.4199 273.917V279.317H45.4199V273.917H39.4199ZM42.4199 276.317H4.61992V282.317H42.4199V276.317ZM7.61992 279.317V259.931H1.61992L1.61992 279.317H7.61992ZM7.21773 261.431L10.8357 255.167L5.64011 252.166L2.02211 258.43L7.21773 261.431ZM8.23792 256.667H23.7359V250.667H8.23792L8.23792 256.667ZM21.1381 255.167L24.7561 261.431L29.9517 258.43L26.3337 252.166L21.1381 255.167ZM28.8534 262.529L43.9194 253.835L40.9205 248.638L25.8545 257.332L28.8534 262.529ZM39.4199 251.237V257.231H45.4199V251.237H39.4199ZM40.9416 254.62L25.8756 263.152L28.8322 268.373L43.8983 259.841L40.9416 254.62ZM9.47992 276.917H22.4939V270.917H9.47992V276.917ZM25.4939 273.917V259.067H19.4939V273.917H25.4939ZM22.4939 256.067H9.47992V262.067H22.4939V256.067ZM6.47992 259.067L6.47992 273.917H12.4799V259.067H6.47992ZM37.7219 223.142V220.142H34.7219V223.142H37.7219ZM42.4199 223.142H45.4199V220.142H42.4199V223.142ZM42.4199 238.208L45.0177 239.708L45.4199 239.012V238.208H42.4199ZM38.8019 244.472V247.472H40.5336L41.3997 245.972L38.8019 244.472ZM18.7679 244.472L16.1701 245.972L17.0362 247.472H18.7679V244.472ZM15.1499 238.208H12.1499V239.012L12.5521 239.708L15.1499 238.208ZM15.1499 229.406L12.5521 227.906L12.1499 228.602V229.406H15.1499ZM18.7679 223.142V220.142H17.0362L16.1701 221.642L18.7679 223.142ZM30.7559 223.142H33.7559V220.142H30.7559V223.142ZM30.7559 239.234H27.7559V242.234H30.7559V239.234ZM37.7219 239.234V242.234H40.7219V239.234H37.7219ZM19.8479 239.234H16.8479V242.234H19.8479V239.234ZM26.0579 239.234V242.234H29.0579V239.234H26.0579ZM26.0579 228.38H29.0579L29.0579 225.38H26.0579L26.0579 228.38ZM19.8479 228.38V225.38H16.8479V228.38H19.8479ZM37.7219 226.142H42.4199V220.142H37.7219V226.142ZM39.4199 223.142L39.4199 238.208H45.4199L45.4199 223.142H39.4199ZM39.8221 236.708L36.2041 242.972L41.3997 245.972L45.0177 239.708L39.8221 236.708ZM38.8019 241.472H18.7679V247.472H38.8019V241.472ZM21.3657 242.972L17.7477 236.708L12.5521 239.708L16.1701 245.972L21.3657 242.972ZM18.1499 238.208V229.406H12.1499V238.208H18.1499ZM17.7477 230.906L21.3657 224.642L16.1701 221.642L12.5521 227.906L17.7477 230.906ZM18.7679 226.142H30.7559V220.142H18.7679V226.142ZM27.7559 223.142L27.7559 239.234H33.7559L33.7559 223.142H27.7559ZM30.7559 242.234H37.7219V236.234H30.7559V242.234ZM40.7219 239.234L40.7219 223.142H34.7219L34.7219 239.234H40.7219ZM19.8479 242.234H26.0579V236.234H19.8479V242.234ZM29.0579 239.234V228.38H23.0579V239.234H29.0579ZM26.0579 225.38H19.8479V231.38H26.0579L26.0579 225.38ZM16.8479 228.38V239.234H22.8479V228.38H16.8479ZM20.1179 216.679V219.679H23.1179V216.679H20.1179ZM15.4199 216.679H12.4199V219.679H15.4199V216.679ZM15.4199 211.711H18.4199V208.711H15.4199V211.711ZM6.61792 211.711L4.02011 213.211L4.88622 214.711H6.61792L6.61792 211.711ZM2.99992 205.447H-7.9155e-05V206.251L0.40211 206.947L2.99992 205.447ZM2.99992 199.993V196.993H-7.9155e-05V199.993H2.99992ZM7.69792 199.993H10.6979L10.6979 196.993H7.69792L7.69792 199.993ZM7.69792 206.473H4.69792V209.473H7.69792V206.473ZM15.4199 206.473V209.473H18.4199V206.473H15.4199ZM15.4199 199.993L15.4199 196.993H12.4199L12.4199 199.993H15.4199ZM20.1179 199.993H23.1179L23.1179 196.993H20.1179L20.1179 199.993ZM20.1179 206.473H17.1179V209.473H20.1179V206.473ZM42.4199 206.473H45.4199V203.473H42.4199V206.473ZM42.4199 211.711V214.711H45.4199V211.711H42.4199ZM20.1179 211.711V208.711H17.1179V211.711H20.1179ZM20.1179 213.679H15.4199V219.679H20.1179V213.679ZM18.4199 216.679V211.711H12.4199V216.679H18.4199ZM15.4199 208.711H6.61792L6.61792 214.711H15.4199V208.711ZM9.21573 210.21L5.59773 203.946L0.40211 206.947L4.02011 213.211L9.21573 210.21ZM5.99992 205.447V199.993H-7.9155e-05V205.447H5.99992ZM2.99992 202.993H7.69792L7.69792 196.993H2.99992V202.993ZM4.69792 199.993V206.473H10.6979V199.993H4.69792ZM7.69792 209.473H15.4199V203.473H7.69792V209.473ZM18.4199 206.473V199.993H12.4199V206.473H18.4199ZM15.4199 202.993H20.1179L20.1179 196.993H15.4199L15.4199 202.993ZM17.1179 199.993V206.473H23.1179V199.993H17.1179ZM20.1179 209.473H42.4199V203.473H20.1179V209.473ZM39.4199 206.473V211.711H45.4199V206.473H39.4199ZM42.4199 208.711H20.1179V214.711H42.4199V208.711ZM17.1179 211.711V216.679H23.1179V211.711H17.1179ZM37.7219 172.201V169.201H34.7219V172.201H37.7219ZM42.4199 172.201H45.4199V169.201H42.4199V172.201ZM42.4199 187.267L45.0177 188.767L45.4199 188.071V187.267H42.4199ZM38.8019 193.531V196.531H40.5336L41.3997 195.031L38.8019 193.531ZM18.7679 193.531L16.1701 195.031L17.0362 196.531H18.7679V193.531ZM15.1499 187.267H12.1499V188.071L12.5521 188.767L15.1499 187.267ZM15.1499 178.465L12.5521 176.964L12.1499 177.66V178.465H15.1499ZM18.7679 172.201V169.201H17.0362L16.1701 170.7L18.7679 172.201ZM30.7559 172.201H33.7559V169.201H30.7559V172.201ZM30.7559 188.293H27.7559V191.293H30.7559V188.293ZM37.7219 188.293V191.293H40.7219V188.293H37.7219ZM19.8479 188.293H16.8479V191.293H19.8479V188.293ZM26.0579 188.293V191.293H29.0579V188.293H26.0579ZM26.0579 177.439H29.0579V174.439H26.0579V177.439ZM19.8479 177.439V174.439H16.8479V177.439H19.8479ZM37.7219 175.201H42.4199V169.201H37.7219V175.201ZM39.4199 172.201V187.267H45.4199V172.201H39.4199ZM39.8221 185.766L36.2041 192.03L41.3997 195.031L45.0177 188.767L39.8221 185.766ZM38.8019 190.531H18.7679V196.531H38.8019V190.531ZM21.3657 192.03L17.7477 185.766L12.5521 188.767L16.1701 195.031L21.3657 192.03ZM18.1499 187.267V178.465H12.1499V187.267H18.1499ZM17.7477 179.965L21.3657 173.701L16.1701 170.7L12.5521 176.964L17.7477 179.965ZM18.7679 175.201H30.7559V169.201H18.7679V175.201ZM27.7559 172.201V188.293H33.7559V172.201H27.7559ZM30.7559 191.293H37.7219V185.293H30.7559V191.293ZM40.7219 188.293V172.201H34.7219V188.293H40.7219ZM19.8479 191.293H26.0579V185.293H19.8479V191.293ZM29.0579 188.293V177.439H23.0579V188.293H29.0579ZM26.0579 174.439H19.8479V180.439H26.0579V174.439ZM16.8479 177.439V188.293H22.8479V177.439H16.8479ZM20.1179 148.511H23.1179V145.511H20.1179V148.511ZM20.1179 158.339H17.1179V161.339H20.1179V158.339ZM42.4199 158.339H45.4199V155.339H42.4199V158.339ZM42.4199 163.577V166.577H45.4199V163.577H42.4199ZM15.4199 163.577H12.4199V166.577H15.4199V163.577ZM15.4199 159.635L13.9044 157.046L12.4199 157.915V159.635H15.4199ZM17.6339 158.339L19.1495 160.929L21.7233 159.422L20.2319 156.839L17.6339 158.339ZM15.4199 154.505H12.4199V155.309L12.822 156.006L15.4199 154.505ZM15.4199 148.511V145.511H12.4199V148.511H15.4199ZM17.1179 148.511V158.339H23.1179V148.511H17.1179ZM20.1179 161.339H42.4199V155.339H20.1179V161.339ZM39.4199 158.339V163.577H45.4199V158.339H39.4199ZM42.4199 160.577H15.4199V166.577H42.4199V160.577ZM18.4199 163.577V159.635H12.4199V163.577H18.4199ZM16.9355 162.225L19.1495 160.929L16.1184 155.75L13.9044 157.046L16.9355 162.225ZM20.2319 156.839L18.0179 153.005L12.822 156.006L15.036 159.84L20.2319 156.839ZM18.4199 154.505V148.511H12.4199V154.505H18.4199ZM15.4199 151.511H20.1179V145.511H15.4199V151.511ZM37.7219 121.259V118.259H34.7219V121.259H37.7219ZM42.4199 121.259H45.4199V118.259H42.4199V121.259ZM42.4199 136.325L45.0177 137.826L45.4199 137.129V136.325H42.4199ZM38.8019 142.589V145.589H40.5336L41.3997 144.09L38.8019 142.589ZM18.7679 142.589L16.1701 144.09L17.0362 145.589H18.7679L18.7679 142.589ZM15.1499 136.325H12.1499V137.129L12.5521 137.826L15.1499 136.325ZM15.1499 127.523L12.5521 126.023L12.1499 126.719V127.523H15.1499ZM18.7679 121.259V118.259H17.0362L16.1701 119.759L18.7679 121.259ZM30.7559 121.259H33.7559V118.259H30.7559V121.259ZM30.7559 137.351H27.7559V140.351H30.7559V137.351ZM37.7219 137.351V140.351H40.7219V137.351H37.7219ZM19.8479 137.351H16.8479V140.351H19.8479V137.351ZM26.0579 137.351V140.351H29.0579V137.351H26.0579ZM26.0579 126.497H29.0579V123.497H26.0579V126.497ZM19.8479 126.497V123.497H16.8479V126.497H19.8479ZM37.7219 124.259H42.4199V118.259H37.7219V124.259ZM39.4199 121.259V136.325H45.4199V121.259H39.4199ZM39.8221 134.825L36.2041 141.089L41.3997 144.09L45.0177 137.826L39.8221 134.825ZM38.8019 139.589H18.7679L18.7679 145.589H38.8019V139.589ZM21.3657 141.089L17.7477 134.825L12.5521 137.826L16.1701 144.09L21.3657 141.089ZM18.1499 136.325V127.523H12.1499V136.325H18.1499ZM17.7477 129.024L21.3657 122.76L16.1701 119.759L12.5521 126.023L17.7477 129.024ZM18.7679 124.259H30.7559V118.259H18.7679V124.259ZM27.7559 121.259V137.351H33.7559V121.259H27.7559ZM30.7559 140.351H37.7219V134.351H30.7559V140.351ZM40.7219 137.351V121.259H34.7219V137.351H40.7219ZM19.8479 140.351H26.0579V134.351H19.8479V140.351ZM29.0579 137.351V126.497H23.0579V137.351H29.0579ZM26.0579 123.497H19.8479V129.497H26.0579V123.497ZM16.8479 126.497V137.351H22.8479V126.497H16.8479ZM18.7679 89.6861L18.7679 86.6861H17.0362L16.1701 88.1856L18.7679 89.6861ZM42.4199 89.6861H45.4199V86.6861H42.4199V89.6861ZM42.4199 94.9241V97.9241H45.4199V94.9241H42.4199ZM19.8479 94.9241V91.9241H16.8479V94.9241H19.8479ZM19.8479 107.398H16.8479V110.398H19.8479V107.398ZM42.4199 107.398H45.4199V104.398H42.4199V107.398ZM42.4199 112.636L42.4199 115.636H45.4199L45.4199 112.636H42.4199ZM15.1499 112.636H12.1499V115.636H15.1499V112.636ZM15.1499 108.694L13.6344 106.105L12.1499 106.974V108.694H15.1499ZM17.3639 107.398L18.8795 109.987L21.4533 108.48L19.9619 105.898L17.3639 107.398ZM15.1499 103.564H12.1499V104.368L12.552 105.064L15.1499 103.564ZM15.1499 95.9501L12.5521 94.4496L12.1499 95.1459V95.9501H15.1499ZM18.7679 92.6861H42.4199V86.6861H18.7679L18.7679 92.6861ZM39.4199 89.6861V94.9241H45.4199V89.6861H39.4199ZM42.4199 91.9241H19.8479V97.9241H42.4199V91.9241ZM16.8479 94.9241V107.398H22.8479V94.9241H16.8479ZM19.8479 110.398H42.4199V104.398H19.8479V110.398ZM39.4199 107.398V112.636H45.4199V107.398H39.4199ZM42.4199 109.636H15.1499V115.636H42.4199L42.4199 109.636ZM18.1499 112.636V108.694H12.1499V112.636H18.1499ZM16.6655 111.283L18.8795 109.987L15.8484 104.809L13.6344 106.105L16.6655 111.283ZM19.9619 105.898L17.7479 102.064L12.552 105.064L14.766 108.898L19.9619 105.898ZM18.1499 103.564V95.9501H12.1499V103.564H18.1499ZM17.7477 97.4505L21.3657 91.1865L16.1701 88.1856L12.5521 94.4496L17.7477 97.4505ZM20.1179 75.8102H17.1179V78.8102H20.1179V75.8102ZM37.7219 75.8102V78.8102H40.7219V75.8102H37.7219ZM37.7219 60.7982V57.7982H34.7219V60.7982H37.7219ZM42.4199 60.7982H45.4199V57.7982H42.4199V60.7982ZM42.4199 74.7842L45.0177 76.2846L45.4199 75.5883V74.7842H42.4199ZM38.8019 81.0482V84.0482H40.5336L41.3997 82.5486L38.8019 81.0482ZM19.0379 81.0482L16.4401 82.5486L17.3062 84.0482H19.0379V81.0482ZM15.4199 74.7842H12.4199V75.5883L12.8221 76.2846L15.4199 74.7842ZM15.4199 60.7982V57.7982H12.4199V60.7982H15.4199ZM20.1179 60.7982H23.1179V57.7982H20.1179V60.7982ZM20.1179 78.8102H37.7219V72.8102H20.1179V78.8102ZM40.7219 75.8102V60.7982H34.7219V75.8102H40.7219ZM37.7219 63.7982H42.4199V57.7982H37.7219V63.7982ZM39.4199 60.7982V74.7842H45.4199V60.7982H39.4199ZM39.8221 73.2837L36.2041 79.5477L41.3997 82.5486L45.0177 76.2846L39.8221 73.2837ZM38.8019 78.0482H19.0379V84.0482H38.8019V78.0482ZM21.6357 79.5477L18.0177 73.2837L12.8221 76.2846L16.4401 82.5486L21.6357 79.5477ZM18.4199 74.7842V60.7982H12.4199V74.7842H18.4199ZM15.4199 63.7982H20.1179V57.7982H15.4199V63.7982ZM17.1179 60.7982V75.8102H23.1179V60.7982H17.1179ZM37.7219 31.9272V28.9272H34.7219V31.9272H37.7219ZM42.4199 31.9272H45.4199V28.9272H42.4199V31.9272ZM42.4199 46.9931L45.0177 48.4936L45.4199 47.7973V46.9931H42.4199ZM38.8019 53.2571V56.2571H40.5336L41.3997 54.7576L38.8019 53.2571ZM18.7679 53.2571L16.1701 54.7576L17.0362 56.2571H18.7679V53.2571ZM15.1499 46.9931H12.1499V47.7973L12.5521 48.4936L15.1499 46.9931ZM15.1499 38.1911L12.5521 36.6907L12.1499 37.387V38.1911H15.1499ZM18.7679 31.9272L18.7679 28.9272H17.0362L16.1701 30.4267L18.7679 31.9272ZM30.7559 31.9272H33.7559V28.9272H30.7559V31.9272ZM30.7559 48.0191H27.7559V51.0191H30.7559V48.0191ZM37.7219 48.0191V51.0191H40.7219V48.0191H37.7219ZM19.8479 48.0191H16.8479V51.0191H19.8479V48.0191ZM26.0579 48.0191V51.0191H29.0579V48.0191H26.0579ZM26.0579 37.1651H29.0579V34.1651H26.0579V37.1651ZM19.8479 37.1651V34.1651H16.8479V37.1651H19.8479ZM37.7219 34.9272H42.4199V28.9272H37.7219V34.9272ZM39.4199 31.9272V46.9931H45.4199V31.9272H39.4199ZM39.8221 45.4927L36.2041 51.7567L41.3997 54.7576L45.0177 48.4936L39.8221 45.4927ZM38.8019 50.2571H18.7679V56.2571H38.8019V50.2571ZM21.3657 51.7567L17.7477 45.4927L12.5521 48.4936L16.1701 54.7576L21.3657 51.7567ZM18.1499 46.9931V38.1911H12.1499V46.9931H18.1499ZM17.7477 39.6916L21.3657 33.4276L16.1701 30.4267L12.5521 36.6907L17.7477 39.6916ZM18.7679 34.9272H30.7559V28.9272H18.7679L18.7679 34.9272ZM27.7559 31.9272V48.0191H33.7559V31.9272H27.7559ZM30.7559 51.0191H37.7219V45.0191H30.7559V51.0191ZM40.7219 48.0191V31.9272H34.7219V48.0191H40.7219ZM19.8479 51.0191H26.0579V45.0191H19.8479V51.0191ZM29.0579 48.0191V37.1651H23.0579V48.0191H29.0579ZM26.0579 34.1651H19.8479V40.1651H26.0579V34.1651ZM16.8479 37.1651V48.0191H22.8479V37.1651H16.8479ZM29.9999 3.00003L29.9999 3.05176e-05H28.2682L27.4021 1.49957L29.9999 3.00003ZM38.8019 3.00003L41.3997 1.49957L40.5336 3.05176e-05H38.8019L38.8019 3.00003ZM42.4199 9.26404H45.4199V8.4599L45.0177 7.76355L42.4199 9.26404ZM42.4199 23.304V26.304H45.4199V23.304H42.4199ZM37.7219 23.304H34.7219V26.304H37.7219V23.304ZM37.7219 8.23804H40.7219V5.23804H37.7219V8.23804ZM31.0799 8.23804V5.23804H28.0799V8.23804H31.0799ZM31.0799 17.04L33.6777 18.5405L34.0799 17.8441V17.04H31.0799ZM27.4619 23.304V26.304H29.1936L30.0597 24.8045L27.4619 23.304ZM19.0379 23.304L16.4401 24.8045L17.3062 26.304H19.0379V23.304ZM15.4199 17.04H12.4199V17.8441L12.8221 18.5405L15.4199 17.04ZM15.4199 3.54001V0.540009H12.4199V3.54001H15.4199ZM20.1179 3.54001H23.1179V0.540009H20.1179V3.54001ZM20.1179 18.066H17.1179V21.066H20.1179V18.066ZM26.3819 18.066V21.066H29.3819V18.066H26.3819ZM26.3819 9.26404L23.7841 7.76355L23.3819 8.4599V9.26404H26.3819ZM29.9999 6.00003H38.8019L38.8019 3.05176e-05H29.9999L29.9999 6.00003ZM36.2041 4.50049L39.8221 10.7645L45.0177 7.76355L41.3997 1.49957L36.2041 4.50049ZM39.4199 9.26404V23.304H45.4199V9.26404H39.4199ZM42.4199 20.304H37.7219V26.304H42.4199V20.304ZM40.7219 23.304V8.23804H34.7219V23.304H40.7219ZM37.7219 5.23804H31.0799V11.238H37.7219V5.23804ZM28.0799 8.23804V17.04H34.0799V8.23804H28.0799ZM28.4821 15.5396L24.8641 21.8036L30.0597 24.8045L33.6777 18.5405L28.4821 15.5396ZM27.4619 20.304H19.0379V26.304H27.4619V20.304ZM21.6357 21.8036L18.0177 15.5396L12.8221 18.5405L16.4401 24.8045L21.6357 21.8036ZM18.4199 17.04V3.54001H12.4199V17.04H18.4199ZM15.4199 6.54001H20.1179V0.540009H15.4199V6.54001ZM17.1179 3.54001V18.066H23.1179V3.54001H17.1179ZM20.1179 21.066H26.3819V15.066H20.1179V21.066ZM29.3819 18.066V9.26404H23.3819V18.066H29.3819ZM28.9797 10.7645L32.5977 4.50049L27.4021 1.49957L23.7841 7.76355L28.9797 10.7645Z" fill="#B5E93B" mask="url(#path-1-outside-1_3113_1862)"/>
</svg>
