<svg width="182" height="32" viewBox="0 0 182 32" fill="none" xmlns="http://www.w3.org/2000/svg">
<mask id="path-1-outside-1_3129_3500" maskUnits="userSpaceOnUse" x="-0.719727" y="-0.639893" width="183" height="33" fill="black">
<rect fill="white" x="-0.719727" y="-0.639893" width="183" height="33"/>
<path d="M19.8483 24.3601V9.57611H19.7843L14.7283 24.3601H10.4723L5.38427 9.38411H5.32027V24.3601H1.00027V1.96011H6.95227L12.5843 18.4401H12.6483L18.2483 1.96011H24.1683V24.3601H19.8483ZM30.522 30.7601L33.466 23.2401L27.354 8.36011H31.738L35.674 17.7681H35.738L39.45 8.36011H43.834L34.842 30.7601H30.522ZM55.344 13.0001V3.94411L59.056 1.80011H67.152L70.864 3.94411V8.20011H66.384V5.64011H59.824V10.9841H67.152L70.864 13.1281V22.3761L67.152 24.5201H58.736L55.024 22.3761V18.1201H59.504V20.6801H66.384V15.1441H59.056L55.344 13.0001ZM80.3768 1.00011V14.7921H80.4408L85.4008 8.36011H90.4248L84.6968 15.4961L91.3848 24.3601H86.2968L82.1368 18.6961L80.3768 20.9041V24.3601H75.9928V1.00011H80.3768ZM98.0018 8.36011V24.3601H93.6178V8.36011H98.0018ZM93.4578 5.38411V1.00011H98.1618V5.38411H93.4578ZM106.517 24.3601L102.805 22.2161V1.00011H107.189V20.6161H110.389V24.3601H106.517ZM116.986 24.3601L113.274 22.2161V1.00011H117.658V20.6161H120.858V24.3601H116.986ZM132.375 13.0001V3.94411L136.087 1.80011H144.183L147.895 3.94411V8.20011H143.415V5.64011H136.855V10.9841H144.183L147.895 13.1281V22.3761L144.183 24.5201H135.767L132.055 22.3761V18.1201H136.535V20.6801H143.415V15.1441H136.087L132.375 13.0001ZM166.304 20.6161V24.3601H156.736L153.024 22.2161V10.3441L156.736 8.20011H162.592L166.304 10.3441V17.9921H157.408V20.6161H166.304ZM157.408 11.9441V14.6961H161.92V11.9441H157.408ZM169.838 12.1041V8.36011H172.782V5.67211L177.166 3.14411V8.36011H180.686V12.1041H177.166V20.6161H180.686V24.3601H176.494L172.782 22.2161V12.1041H169.838Z"/>
</mask>
<path d="M19.8483 24.3601H18.8483V25.3601H19.8483V24.3601ZM19.8483 9.57611H20.8483V8.57611H19.8483V9.57611ZM19.7843 9.57611V8.57611H19.0694L18.8381 9.25252L19.7843 9.57611ZM14.7283 24.3601V25.3601H15.4431L15.6745 24.6837L14.7283 24.3601ZM10.4723 24.3601L9.52543 24.6818L9.75588 25.3601H10.4723V24.3601ZM5.38427 9.38411L6.33112 9.06242L6.10067 8.38411H5.38427V9.38411ZM5.32027 9.38411V8.38411H4.32027V9.38411H5.32027ZM5.32027 24.3601V25.3601H6.32027V24.3601H5.32027ZM1.00027 24.3601H0.000273466V25.3601H1.00027V24.3601ZM1.00027 1.96011V0.960106H0.000273466V1.96011H1.00027ZM6.95227 1.96011L7.89854 1.63672L7.66731 0.960106H6.95227V1.96011ZM12.5843 18.4401L11.638 18.7635L11.8692 19.4401H12.5843V18.4401ZM12.6483 18.4401V19.4401H13.3646L13.5951 18.7618L12.6483 18.4401ZM18.2483 1.96011V0.960106H17.5319L17.3014 1.63837L18.2483 1.96011ZM24.1683 1.96011H25.1683V0.960106H24.1683V1.96011ZM24.1683 24.3601V25.3601H25.1683V24.3601H24.1683ZM20.8483 24.3601V9.57611H18.8483V24.3601H20.8483ZM19.8483 8.57611H19.7843V10.5761H19.8483V8.57611ZM18.8381 9.25252L13.7821 24.0365L15.6745 24.6837L20.7305 9.8997L18.8381 9.25252ZM14.7283 23.3601H10.4723V25.3601H14.7283V23.3601ZM11.4191 24.0384L6.33112 9.06242L4.43743 9.70579L9.52543 24.6818L11.4191 24.0384ZM5.38427 8.38411H5.32027V10.3841H5.38427V8.38411ZM4.32027 9.38411V24.3601H6.32027V9.38411H4.32027ZM5.32027 23.3601H1.00027V25.3601H5.32027V23.3601ZM2.00027 24.3601V1.96011H0.000273466V24.3601H2.00027ZM1.00027 2.96011H6.95227V0.960106H1.00027V2.96011ZM6.00601 2.28349L11.638 18.7635L13.5305 18.1167L7.89854 1.63672L6.00601 2.28349ZM12.5843 19.4401H12.6483V17.4401H12.5843V19.4401ZM13.5951 18.7618L19.1951 2.28184L17.3014 1.63837L11.7014 18.1184L13.5951 18.7618ZM18.2483 2.96011H24.1683V0.960106H18.2483V2.96011ZM23.1683 1.96011V24.3601H25.1683V1.96011H23.1683ZM24.1683 23.3601H19.8483V25.3601H24.1683V23.3601ZM30.522 30.7601L29.5908 30.3956L29.0566 31.7601H30.522V30.7601ZM33.466 23.2401L34.3972 23.6047L34.5434 23.2312L34.391 22.8602L33.466 23.2401ZM27.354 8.36011V7.36011H25.8622L26.429 8.74006L27.354 8.36011ZM31.738 8.36011L32.6605 7.97416L32.4036 7.36011H31.738V8.36011ZM35.674 17.7681L34.7515 18.1541L35.0084 18.7681H35.674V17.7681ZM35.738 17.7681V18.7681H36.4185L36.6682 18.1351L35.738 17.7681ZM39.45 8.36011V7.36011H38.7696L38.5198 7.99308L39.45 8.36011ZM43.834 8.36011L44.762 8.73264L45.313 7.36011H43.834V8.36011ZM34.842 30.7601V31.7601H35.5182L35.77 31.1326L34.842 30.7601ZM31.4532 31.1247L34.3972 23.6047L32.5348 22.8756L29.5908 30.3956L31.4532 31.1247ZM34.391 22.8602L28.279 7.98016L26.429 8.74006L32.541 23.6201L34.391 22.8602ZM27.354 9.36011H31.738V7.36011H27.354V9.36011ZM30.8155 8.74606L34.7515 18.1541L36.5965 17.3822L32.6605 7.97416L30.8155 8.74606ZM35.674 18.7681H35.738V16.7681H35.674V18.7681ZM36.6682 18.1351L40.3802 8.72713L38.5198 7.99308L34.8078 17.4011L36.6682 18.1351ZM39.45 9.36011H43.834V7.36011H39.45V9.36011ZM42.906 7.98757L33.914 30.3876L35.77 31.1326L44.762 8.73264L42.906 7.98757ZM34.842 29.7601H30.522V31.7601H34.842V29.7601ZM55.344 13.0001H54.344V13.5773L54.8439 13.866L55.344 13.0001ZM55.344 3.94411L54.8439 3.07817L54.344 3.36687V3.94411H55.344ZM59.056 1.80011V0.800106H58.788L58.5559 0.934169L59.056 1.80011ZM67.152 1.80011L67.6522 0.934169L67.4201 0.800106H67.152V1.80011ZM70.864 3.94411H71.864V3.36687L71.3642 3.07817L70.864 3.94411ZM70.864 8.20011V9.20011H71.864V8.20011H70.864ZM66.384 8.20011H65.384V9.20011H66.384V8.20011ZM66.384 5.64011H67.384V4.64011H66.384V5.64011ZM59.824 5.64011V4.64011H58.824V5.64011H59.824ZM59.824 10.9841H58.824V11.9841H59.824V10.9841ZM67.152 10.9841L67.6522 10.1182L67.4201 9.98411H67.152V10.9841ZM70.864 13.1281H71.864V12.5509L71.3642 12.2622L70.864 13.1281ZM70.864 22.3761L71.3642 23.242L71.864 22.9533V22.3761H70.864ZM67.152 24.5201V25.5201H67.4201L67.6522 25.386L67.152 24.5201ZM58.736 24.5201L58.2359 25.386L58.468 25.5201H58.736V24.5201ZM55.024 22.3761H54.024V22.9533L54.5239 23.242L55.024 22.3761ZM55.024 18.1201V17.1201H54.024V18.1201H55.024ZM59.504 18.1201H60.504V17.1201H59.504V18.1201ZM59.504 20.6801H58.504V21.6801H59.504V20.6801ZM66.384 20.6801V21.6801H67.384V20.6801H66.384ZM66.384 15.1441H67.384V14.1441H66.384V15.1441ZM59.056 15.1441L58.5559 16.01L58.788 16.1441H59.056V15.1441ZM56.344 13.0001V3.94411H54.344V13.0001H56.344ZM55.8442 4.81004L59.5562 2.66604L58.5559 0.934169L54.8439 3.07817L55.8442 4.81004ZM59.056 2.80011H67.152V0.800106H59.056V2.80011ZM66.6519 2.66604L70.3639 4.81004L71.3642 3.07817L67.6522 0.934169L66.6519 2.66604ZM69.864 3.94411V8.20011H71.864V3.94411H69.864ZM70.864 7.20011H66.384V9.20011H70.864V7.20011ZM67.384 8.20011V5.64011H65.384V8.20011H67.384ZM66.384 4.64011H59.824V6.64011H66.384V4.64011ZM58.824 5.64011V10.9841H60.824V5.64011H58.824ZM59.824 11.9841H67.152V9.98411H59.824V11.9841ZM66.6519 11.85L70.3639 13.994L71.3642 12.2622L67.6522 10.1182L66.6519 11.85ZM69.864 13.1281V22.3761H71.864V13.1281H69.864ZM70.3639 21.5102L66.6519 23.6542L67.6522 25.386L71.3642 23.242L70.3639 21.5102ZM67.152 23.5201H58.736V25.5201H67.152V23.5201ZM59.2362 23.6542L55.5242 21.5102L54.5239 23.242L58.2359 25.386L59.2362 23.6542ZM56.024 22.3761V18.1201H54.024V22.3761H56.024ZM55.024 19.1201H59.504V17.1201H55.024V19.1201ZM58.504 18.1201V20.6801H60.504V18.1201H58.504ZM59.504 21.6801H66.384V19.6801H59.504V21.6801ZM67.384 20.6801V15.1441H65.384V20.6801H67.384ZM66.384 14.1441H59.056V16.1441H66.384V14.1441ZM59.5562 14.2782L55.8442 12.1342L54.8439 13.866L58.5559 16.01L59.5562 14.2782ZM80.3768 1.00011H81.3768V0.000106812H80.3768V1.00011ZM80.3768 14.7921H79.3768V15.7921H80.3768V14.7921ZM80.4408 14.7921V15.7921H80.9324L81.2327 15.4028L80.4408 14.7921ZM85.4008 8.36011V7.36011H84.9091L84.6089 7.74944L85.4008 8.36011ZM90.4248 8.36011L91.2046 8.98608L92.5098 7.36011H90.4248V8.36011ZM84.6968 15.4961L83.9169 14.8701L83.4297 15.4771L83.8985 16.0984L84.6968 15.4961ZM91.3848 24.3601V25.3601H93.392L92.183 23.7578L91.3848 24.3601ZM86.2968 24.3601L85.4908 24.9521L85.7905 25.3601H86.2968V24.3601ZM82.1368 18.6961L82.9427 18.1042L82.1693 17.051L81.3548 18.0728L82.1368 18.6961ZM80.3768 20.9041L79.5948 20.2808L79.3768 20.5543V20.9041H80.3768ZM80.3768 24.3601V25.3601H81.3768V24.3601H80.3768ZM75.9928 24.3601H74.9928V25.3601H75.9928V24.3601ZM75.9928 1.00011V0.000106812H74.9928V1.00011H75.9928ZM79.3768 1.00011V14.7921H81.3768V1.00011H79.3768ZM80.3768 15.7921H80.4408V13.7921H80.3768V15.7921ZM81.2327 15.4028L86.1927 8.97077L84.6089 7.74944L79.6489 14.1814L81.2327 15.4028ZM85.4008 9.36011H90.4248V7.36011H85.4008V9.36011ZM89.6449 7.73413L83.9169 14.8701L85.4766 16.1221L91.2046 8.98608L89.6449 7.73413ZM83.8985 16.0984L90.5865 24.9624L92.183 23.7578L85.495 14.8938L83.8985 16.0984ZM91.3848 23.3601H86.2968V25.3601H91.3848V23.3601ZM87.1027 23.7682L82.9427 18.1042L81.3308 19.2881L85.4908 24.9521L87.1027 23.7682ZM81.3548 18.0728L79.5948 20.2808L81.1587 21.5274L82.9187 19.3194L81.3548 18.0728ZM79.3768 20.9041V24.3601H81.3768V20.9041H79.3768ZM80.3768 23.3601H75.9928V25.3601H80.3768V23.3601ZM76.9928 24.3601V1.00011H74.9928V24.3601H76.9928ZM75.9928 2.00011H80.3768V0.000106812H75.9928V2.00011ZM98.0018 8.36011H99.0018V7.36011H98.0018V8.36011ZM98.0018 24.3601V25.3601H99.0018V24.3601H98.0018ZM93.6178 24.3601H92.6178V25.3601H93.6178V24.3601ZM93.6178 8.36011V7.36011H92.6178V8.36011H93.6178ZM93.4578 5.38411H92.4578V6.38411H93.4578V5.38411ZM93.4578 1.00011V0.000106812H92.4578V1.00011H93.4578ZM98.1618 1.00011H99.1618V0.000106812H98.1618V1.00011ZM98.1618 5.38411V6.38411H99.1618V5.38411H98.1618ZM97.0018 8.36011V24.3601H99.0018V8.36011H97.0018ZM98.0018 23.3601H93.6178V25.3601H98.0018V23.3601ZM94.6178 24.3601V8.36011H92.6178V24.3601H94.6178ZM93.6178 9.36011H98.0018V7.36011H93.6178V9.36011ZM94.4578 5.38411V1.00011H92.4578V5.38411H94.4578ZM93.4578 2.00011H98.1618V0.000106812H93.4578V2.00011ZM97.1618 1.00011V5.38411H99.1618V1.00011H97.1618ZM98.1618 4.38411H93.4578V6.38411H98.1618V4.38411ZM106.517 24.3601L106.017 25.226L106.249 25.3601H106.517V24.3601ZM102.805 22.2161H101.805V22.7933L102.305 23.082L102.805 22.2161ZM102.805 1.00011V0.000106812H101.805V1.00011H102.805ZM107.189 1.00011H108.189V0.000106812H107.189V1.00011ZM107.189 20.6161H106.189V21.6161H107.189V20.6161ZM110.389 20.6161H111.389V19.6161H110.389V20.6161ZM110.389 24.3601V25.3601H111.389V24.3601H110.389ZM107.017 23.4942L103.305 21.3502L102.305 23.082L106.017 25.226L107.017 23.4942ZM103.805 22.2161V1.00011H101.805V22.2161H103.805ZM102.805 2.00011H107.189V0.000106812H102.805V2.00011ZM106.189 1.00011V20.6161H108.189V1.00011H106.189ZM107.189 21.6161H110.389V19.6161H107.189V21.6161ZM109.389 20.6161V24.3601H111.389V20.6161H109.389ZM110.389 23.3601H106.517V25.3601H110.389V23.3601ZM116.986 24.3601L116.486 25.226L116.718 25.3601H116.986V24.3601ZM113.274 22.2161H112.274V22.7933L112.774 23.082L113.274 22.2161ZM113.274 1.00011V0.000106812H112.274V1.00011H113.274ZM117.658 1.00011H118.658V0.000106812H117.658V1.00011ZM117.658 20.6161H116.658V21.6161H117.658V20.6161ZM120.858 20.6161H121.858V19.6161H120.858V20.6161ZM120.858 24.3601V25.3601H121.858V24.3601H120.858ZM117.486 23.4942L113.774 21.3502L112.774 23.082L116.486 25.226L117.486 23.4942ZM114.274 22.2161V1.00011H112.274V22.2161H114.274ZM113.274 2.00011H117.658V0.000106812H113.274V2.00011ZM116.658 1.00011V20.6161H118.658V1.00011H116.658ZM117.658 21.6161H120.858V19.6161H117.658V21.6161ZM119.858 20.6161V24.3601H121.858V20.6161H119.858ZM120.858 23.3601H116.986V25.3601H120.858V23.3601ZM132.375 13.0001H131.375V13.5773L131.875 13.866L132.375 13.0001ZM132.375 3.94411L131.875 3.07817L131.375 3.36687V3.94411H132.375ZM136.087 1.80011V0.800106H135.819L135.587 0.934169L136.087 1.80011ZM144.183 1.80011L144.683 0.934169L144.451 0.800106H144.183V1.80011ZM147.895 3.94411H148.895V3.36687L148.395 3.07817L147.895 3.94411ZM147.895 8.20011V9.20011H148.895V8.20011H147.895ZM143.415 8.20011H142.415V9.20011H143.415V8.20011ZM143.415 5.64011H144.415V4.64011H143.415V5.64011ZM136.855 5.64011V4.64011H135.855V5.64011H136.855ZM136.855 10.9841H135.855V11.9841H136.855V10.9841ZM144.183 10.9841L144.683 10.1182L144.451 9.98411H144.183V10.9841ZM147.895 13.1281H148.895V12.5509L148.395 12.2622L147.895 13.1281ZM147.895 22.3761L148.395 23.242L148.895 22.9533V22.3761H147.895ZM144.183 24.5201V25.5201H144.451L144.683 25.386L144.183 24.5201ZM135.767 24.5201L135.267 25.386L135.499 25.5201H135.767V24.5201ZM132.055 22.3761H131.055V22.9533L131.555 23.242L132.055 22.3761ZM132.055 18.1201V17.1201H131.055V18.1201H132.055ZM136.535 18.1201H137.535V17.1201H136.535V18.1201ZM136.535 20.6801H135.535V21.6801H136.535V20.6801ZM143.415 20.6801V21.6801H144.415V20.6801H143.415ZM143.415 15.1441H144.415V14.1441H143.415V15.1441ZM136.087 15.1441L135.587 16.01L135.819 16.1441H136.087V15.1441ZM133.375 13.0001V3.94411H131.375V13.0001H133.375ZM132.875 4.81004L136.587 2.66604L135.587 0.934169L131.875 3.07817L132.875 4.81004ZM136.087 2.80011H144.183V0.800106H136.087V2.80011ZM143.683 2.66604L147.395 4.81004L148.395 3.07817L144.683 0.934169L143.683 2.66604ZM146.895 3.94411V8.20011H148.895V3.94411H146.895ZM147.895 7.20011H143.415V9.20011H147.895V7.20011ZM144.415 8.20011V5.64011H142.415V8.20011H144.415ZM143.415 4.64011H136.855V6.64011H143.415V4.64011ZM135.855 5.64011V10.9841H137.855V5.64011H135.855ZM136.855 11.9841H144.183V9.98411H136.855V11.9841ZM143.683 11.85L147.395 13.994L148.395 12.2622L144.683 10.1182L143.683 11.85ZM146.895 13.1281V22.3761H148.895V13.1281H146.895ZM147.395 21.5102L143.683 23.6542L144.683 25.386L148.395 23.242L147.395 21.5102ZM144.183 23.5201H135.767V25.5201H144.183V23.5201ZM136.267 23.6542L132.555 21.5102L131.555 23.242L135.267 25.386L136.267 23.6542ZM133.055 22.3761V18.1201H131.055V22.3761H133.055ZM132.055 19.1201H136.535V17.1201H132.055V19.1201ZM135.535 18.1201V20.6801H137.535V18.1201H135.535ZM136.535 21.6801H143.415V19.6801H136.535V21.6801ZM144.415 20.6801V15.1441H142.415V20.6801H144.415ZM143.415 14.1441H136.087V16.1441H143.415V14.1441ZM136.587 14.2782L132.875 12.1342L131.875 13.866L135.587 16.01L136.587 14.2782ZM166.304 20.6161H167.304V19.6161H166.304V20.6161ZM166.304 24.3601V25.3601H167.304V24.3601H166.304ZM156.736 24.3601L156.236 25.226L156.468 25.3601H156.736V24.3601ZM153.024 22.2161H152.024V22.7933L152.524 23.082L153.024 22.2161ZM153.024 10.3441L152.524 9.47817L152.024 9.76687V10.3441H153.024ZM156.736 8.20011V7.20011H156.468L156.236 7.33417L156.736 8.20011ZM162.592 8.20011L163.092 7.33417L162.86 7.20011H162.592V8.20011ZM166.304 10.3441H167.304V9.76687L166.804 9.47817L166.304 10.3441ZM166.304 17.9921V18.9921H167.304V17.9921H166.304ZM157.408 17.9921V16.9921H156.408V17.9921H157.408ZM157.408 20.6161H156.408V21.6161H157.408V20.6161ZM157.408 11.9441V10.9441H156.408V11.9441H157.408ZM157.408 14.6961H156.408V15.6961H157.408V14.6961ZM161.92 14.6961V15.6961H162.92V14.6961H161.92ZM161.92 11.9441H162.92V10.9441H161.92V11.9441ZM165.304 20.6161V24.3601H167.304V20.6161H165.304ZM166.304 23.3601H156.736V25.3601H166.304V23.3601ZM157.236 23.4942L153.524 21.3502L152.524 23.082L156.236 25.226L157.236 23.4942ZM154.024 22.2161V10.3441H152.024V22.2161H154.024ZM153.524 11.21L157.236 9.06604L156.236 7.33417L152.524 9.47817L153.524 11.21ZM156.736 9.20011H162.592V7.20011H156.736V9.20011ZM162.092 9.06604L165.804 11.21L166.804 9.47817L163.092 7.33417L162.092 9.06604ZM165.304 10.3441V17.9921H167.304V10.3441H165.304ZM166.304 16.9921H157.408V18.9921H166.304V16.9921ZM156.408 17.9921V20.6161H158.408V17.9921H156.408ZM157.408 21.6161H166.304V19.6161H157.408V21.6161ZM156.408 11.9441V14.6961H158.408V11.9441H156.408ZM157.408 15.6961H161.92V13.6961H157.408V15.6961ZM162.92 14.6961V11.9441H160.92V14.6961H162.92ZM161.92 10.9441H157.408V12.9441H161.92V10.9441ZM169.838 12.1041H168.838V13.1041H169.838V12.1041ZM169.838 8.36011V7.36011H168.838V8.36011H169.838ZM172.782 8.36011V9.36011H173.782V8.36011H172.782ZM172.782 5.67211L172.282 4.80581L171.782 5.0944V5.67211H172.782ZM177.166 3.14411H178.166V1.41312L176.666 2.27781L177.166 3.14411ZM177.166 8.36011H176.166V9.36011H177.166V8.36011ZM180.686 8.36011H181.686V7.36011H180.686V8.36011ZM180.686 12.1041V13.1041H181.686V12.1041H180.686ZM177.166 12.1041V11.1041H176.166V12.1041H177.166ZM177.166 20.6161H176.166V21.6161H177.166V20.6161ZM180.686 20.6161H181.686V19.6161H180.686V20.6161ZM180.686 24.3601V25.3601H181.686V24.3601H180.686ZM176.494 24.3601L175.994 25.226L176.226 25.3601H176.494V24.3601ZM172.782 22.2161H171.782V22.7933L172.282 23.082L172.782 22.2161ZM172.782 12.1041H173.782V11.1041H172.782V12.1041ZM170.838 12.1041V8.36011H168.838V12.1041H170.838ZM169.838 9.36011H172.782V7.36011H169.838V9.36011ZM173.782 8.36011V5.67211H171.782V8.36011H173.782ZM173.281 6.5384L177.665 4.0104L176.666 2.27781L172.282 4.80581L173.281 6.5384ZM176.166 3.14411V8.36011H178.166V3.14411H176.166ZM177.166 9.36011H180.686V7.36011H177.166V9.36011ZM179.686 8.36011V12.1041H181.686V8.36011H179.686ZM180.686 11.1041H177.166V13.1041H180.686V11.1041ZM176.166 12.1041V20.6161H178.166V12.1041H176.166ZM177.166 21.6161H180.686V19.6161H177.166V21.6161ZM179.686 20.6161V24.3601H181.686V20.6161H179.686ZM180.686 23.3601H176.494V25.3601H180.686V23.3601ZM176.994 23.4942L173.282 21.3502L172.282 23.082L175.994 25.226L176.994 23.4942ZM173.782 22.2161V12.1041H171.782V22.2161H173.782ZM172.782 11.1041H169.838V13.1041H172.782V11.1041Z" fill="#B5E93B" mask="url(#path-1-outside-1_3129_3500)"/>
</svg>
