<svg width="121" height="32" viewBox="0 0 121 32" fill="none" xmlns="http://www.w3.org/2000/svg">
<mask id="path-1-outside-1_3129_3505" maskUnits="userSpaceOnUse" x="-0.513672" y="-0.639893" width="121" height="33" fill="black">
<rect fill="white" x="-0.513672" y="-0.639893" width="121" height="33"/>
<path d="M30.4063 1.96011L24.7103 24.3601H19.9103L15.8783 9.22411H15.8143L11.7823 24.3601H6.98233L1.28633 1.96011H5.63833L9.41433 17.3201H9.47833L13.5743 1.96011H18.1183L22.2143 17.2561H22.2783L26.0543 1.96011H30.4063ZM37.9891 24.3601H33.6051V1.00011H37.9891V9.51211L40.2611 8.20011H44.4531L48.1651 10.3441V24.3601H43.7811V11.9441H37.9891V24.3601ZM54.2281 30.7601L57.1721 23.2401L51.0601 8.36011H55.4441L59.3801 17.7681H59.4441L63.1561 8.36011H67.5401L58.5481 30.7601H54.2281ZM101.226 10.3441V24.3601H96.8421V11.9441H92.1701V24.3601H87.7861V11.9441H83.1141V24.3601H78.7301V8.20011H82.3461L83.1141 9.51211L85.3861 8.20011H88.4581L91.4341 9.92811L94.4421 8.20011H97.5141L101.226 10.3441ZM119.291 20.6161V24.3601H109.723L106.011 22.2161V10.3441L109.723 8.20011H115.579L119.291 10.3441V17.9921H110.395V20.6161H119.291ZM110.395 11.9441V14.6961H114.907V11.9441H110.395Z"/>
</mask>
<path d="M30.4063 1.96011L31.3755 2.20655L31.6924 0.960106H30.4063V1.96011ZM24.7103 24.3601V25.3601H25.4879L25.6795 24.6066L24.7103 24.3601ZM19.9103 24.3601L18.944 24.6175L19.1418 25.3601H19.9103V24.3601ZM15.8783 9.22411L16.8446 8.9667L16.6468 8.22411H15.8783V9.22411ZM15.8143 9.22411V8.22411H15.0458L14.848 8.9667L15.8143 9.22411ZM11.7823 24.3601V25.3601H12.5508L12.7486 24.6175L11.7823 24.3601ZM6.98233 24.3601L6.01317 24.6066L6.20479 25.3601H6.98233V24.3601ZM1.28633 1.96011V0.960106H0.000218213L0.317171 2.20655L1.28633 1.96011ZM5.63833 1.96011L6.60942 1.72138L6.42227 0.960106H5.63833V1.96011ZM9.41433 17.3201L8.44324 17.5588L8.63039 18.3201H9.41433V17.3201ZM9.47833 17.3201V18.3201H10.2466L10.4446 17.5778L9.47833 17.3201ZM13.5743 1.96011V0.960106H12.8061L12.6081 1.70244L13.5743 1.96011ZM18.1183 1.96011L19.0843 1.70144L18.8858 0.960106H18.1183V1.96011ZM22.2143 17.2561L21.2484 17.5148L21.4469 18.2561H22.2143V17.2561ZM22.2783 17.2561V18.2561H23.0615L23.2492 17.4958L22.2783 17.2561ZM26.0543 1.96011V0.960106H25.2712L25.0835 1.72044L26.0543 1.96011ZM29.4372 1.71366L23.7412 24.1137L25.6795 24.6066L31.3755 2.20655L29.4372 1.71366ZM24.7103 23.3601H19.9103V25.3601H24.7103V23.3601ZM20.8766 24.1027L16.8446 8.9667L14.912 9.48151L18.944 24.6175L20.8766 24.1027ZM15.8783 8.22411H15.8143V10.2241H15.8783V8.22411ZM14.848 8.9667L10.816 24.1027L12.7486 24.6175L16.7806 9.48151L14.848 8.9667ZM11.7823 23.3601H6.98233V25.3601H11.7823V23.3601ZM7.95149 24.1137L2.25549 1.71366L0.317171 2.20655L6.01317 24.6066L7.95149 24.1137ZM1.28633 2.96011H5.63833V0.960106H1.28633V2.96011ZM4.66724 2.19883L8.44324 17.5588L10.3854 17.0814L6.60942 1.72138L4.66724 2.19883ZM9.41433 18.3201H9.47833V16.3201H9.41433V18.3201ZM10.4446 17.5778L14.5406 2.21777L12.6081 1.70244L8.51209 17.0624L10.4446 17.5778ZM13.5743 2.96011H18.1183V0.960106H13.5743V2.96011ZM17.1524 2.21877L21.2484 17.5148L23.1803 16.9974L19.0843 1.70144L17.1524 2.21877ZM22.2143 18.2561H22.2783V16.2561H22.2143V18.2561ZM23.2492 17.4958L27.0252 2.19977L25.0835 1.72044L21.3075 17.0164L23.2492 17.4958ZM26.0543 2.96011H30.4063V0.960106H26.0543V2.96011ZM37.9891 24.3601V25.3601H38.9891V24.3601H37.9891ZM33.6051 24.3601H32.6051V25.3601H33.6051V24.3601ZM33.6051 1.00011V0.000106812H32.6051V1.00011H33.6051ZM37.9891 1.00011H38.9891V0.000106812H37.9891V1.00011ZM37.9891 9.51211H36.9891V11.2443L38.4892 10.3781L37.9891 9.51211ZM40.2611 8.20011V7.20011H39.9931L39.761 7.33412L40.2611 8.20011ZM44.4531 8.20011L44.9532 7.33417L44.7211 7.20011H44.4531V8.20011ZM48.1651 10.3441H49.1651V9.76687L48.6652 9.47817L48.1651 10.3441ZM48.1651 24.3601V25.3601H49.1651V24.3601H48.1651ZM43.7811 24.3601H42.7811V25.3601H43.7811V24.3601ZM43.7811 11.9441H44.7811V10.9441H43.7811V11.9441ZM37.9891 11.9441V10.9441H36.9891V11.9441H37.9891ZM37.9891 23.3601H33.6051V25.3601H37.9891V23.3601ZM34.6051 24.3601V1.00011H32.6051V24.3601H34.6051ZM33.6051 2.00011H37.9891V0.000106812H33.6051V2.00011ZM36.9891 1.00011V9.51211H38.9891V1.00011H36.9891ZM38.4892 10.3781L40.7612 9.06609L39.761 7.33412L37.489 8.64612L38.4892 10.3781ZM40.2611 9.20011H44.4531V7.20011H40.2611V9.20011ZM43.9529 9.06604L47.6649 11.21L48.6652 9.47817L44.9532 7.33417L43.9529 9.06604ZM47.1651 10.3441V24.3601H49.1651V10.3441H47.1651ZM48.1651 23.3601H43.7811V25.3601H48.1651V23.3601ZM44.7811 24.3601V11.9441H42.7811V24.3601H44.7811ZM43.7811 10.9441H37.9891V12.9441H43.7811V10.9441ZM36.9891 11.9441V24.3601H38.9891V11.9441H36.9891ZM54.2281 30.7601L53.2969 30.3956L52.7627 31.7601H54.2281V30.7601ZM57.1721 23.2401L58.1033 23.6047L58.2495 23.2312L58.0971 22.8602L57.1721 23.2401ZM51.0601 8.36011V7.36011H49.5683L50.1351 8.74006L51.0601 8.36011ZM55.4441 8.36011L56.3666 7.97416L56.1097 7.36011H55.4441V8.36011ZM59.3801 17.7681L58.4576 18.1541L58.7145 18.7681H59.3801V17.7681ZM59.4441 17.7681V18.7681H60.1245L60.3743 18.1351L59.4441 17.7681ZM63.1561 8.36011V7.36011H62.4756L62.2259 7.99308L63.1561 8.36011ZM67.5401 8.36011L68.4681 8.73264L69.0191 7.36011H67.5401V8.36011ZM58.5481 30.7601V31.7601H59.2242L59.4761 31.1326L58.5481 30.7601ZM55.1593 31.1247L58.1033 23.6047L56.2409 22.8756L53.2969 30.3956L55.1593 31.1247ZM58.0971 22.8602L51.9851 7.98016L50.1351 8.74006L56.2471 23.6201L58.0971 22.8602ZM51.0601 9.36011H55.4441V7.36011H51.0601V9.36011ZM54.5216 8.74606L58.4576 18.1541L60.3026 17.3822L56.3666 7.97416L54.5216 8.74606ZM59.3801 18.7681H59.4441V16.7681H59.3801V18.7681ZM60.3743 18.1351L64.0863 8.72713L62.2259 7.99308L58.5139 17.4011L60.3743 18.1351ZM63.1561 9.36011H67.5401V7.36011H63.1561V9.36011ZM66.6121 7.98757L57.6201 30.3876L59.4761 31.1326L68.4681 8.73264L66.6121 7.98757ZM58.5481 29.7601H54.2281V31.7601H58.5481V29.7601ZM101.226 10.3441H102.226V9.76687L101.726 9.47817L101.226 10.3441ZM101.226 24.3601V25.3601H102.226V24.3601H101.226ZM96.8421 24.3601H95.8421V25.3601H96.8421V24.3601ZM96.8421 11.9441H97.8421V10.9441H96.8421V11.9441ZM92.1701 11.9441V10.9441H91.1701V11.9441H92.1701ZM92.1701 24.3601V25.3601H93.1701V24.3601H92.1701ZM87.7861 24.3601H86.7861V25.3601H87.7861V24.3601ZM87.7861 11.9441H88.7861V10.9441H87.7861V11.9441ZM83.1141 11.9441V10.9441H82.1141V11.9441H83.1141ZM83.1141 24.3601V25.3601H84.1141V24.3601H83.1141ZM78.7301 24.3601H77.7301V25.3601H78.7301V24.3601ZM78.7301 8.20011V7.20011H77.7301V8.20011H78.7301ZM82.3461 8.20011L83.2091 7.69493L82.9194 7.20011H82.3461V8.20011ZM83.1141 9.51211L82.2511 10.0173L82.7533 10.8752L83.6142 10.3781L83.1141 9.51211ZM85.3861 8.20011V7.20011H85.1181L84.886 7.33412L85.3861 8.20011ZM88.4581 8.20011L88.9602 7.33532L88.7273 7.20011H88.4581V8.20011ZM91.4341 9.92811L90.9319 10.7929L91.4314 11.0829L91.9322 10.7952L91.4341 9.92811ZM94.4421 8.20011V7.20011H94.1753L93.944 7.333L94.4421 8.20011ZM97.5141 8.20011L98.0142 7.33417L97.7821 7.20011H97.5141V8.20011ZM100.226 10.3441V24.3601H102.226V10.3441H100.226ZM101.226 23.3601H96.8421V25.3601H101.226V23.3601ZM97.8421 24.3601V11.9441H95.8421V24.3601H97.8421ZM96.8421 10.9441H92.1701V12.9441H96.8421V10.9441ZM91.1701 11.9441V24.3601H93.1701V11.9441H91.1701ZM92.1701 23.3601H87.7861V25.3601H92.1701V23.3601ZM88.7861 24.3601V11.9441H86.7861V24.3601H88.7861ZM87.7861 10.9441H83.1141V12.9441H87.7861V10.9441ZM82.1141 11.9441V24.3601H84.1141V11.9441H82.1141ZM83.1141 23.3601H78.7301V25.3601H83.1141V23.3601ZM79.7301 24.3601V8.20011H77.7301V24.3601H79.7301ZM78.7301 9.20011H82.3461V7.20011H78.7301V9.20011ZM81.4831 8.70529L82.2511 10.0173L83.9771 9.00693L83.2091 7.69493L81.4831 8.70529ZM83.6142 10.3781L85.8862 9.06609L84.886 7.33412L82.614 8.64612L83.6142 10.3781ZM85.3861 9.20011H88.4581V7.20011H85.3861V9.20011ZM87.9559 9.0649L90.9319 10.7929L91.9362 9.06332L88.9602 7.33532L87.9559 9.0649ZM91.9322 10.7952L94.9402 9.06721L93.944 7.333L90.936 9.061L91.9322 10.7952ZM94.4421 9.20011H97.5141V7.20011H94.4421V9.20011ZM97.0139 9.06604L100.726 11.21L101.726 9.47817L98.0142 7.33417L97.0139 9.06604ZM119.291 20.6161H120.291V19.6161H119.291V20.6161ZM119.291 24.3601V25.3601H120.291V24.3601H119.291ZM109.723 24.3601L109.223 25.226L109.455 25.3601H109.723V24.3601ZM106.011 22.2161H105.011V22.7933L105.511 23.082L106.011 22.2161ZM106.011 10.3441L105.511 9.47817L105.011 9.76687V10.3441H106.011ZM109.723 8.20011V7.20011H109.455L109.223 7.33417L109.723 8.20011ZM115.579 8.20011L116.079 7.33417L115.847 7.20011H115.579V8.20011ZM119.291 10.3441H120.291V9.76687L119.791 9.47817L119.291 10.3441ZM119.291 17.9921V18.9921H120.291V17.9921H119.291ZM110.395 17.9921V16.9921H109.395V17.9921H110.395ZM110.395 20.6161H109.395V21.6161H110.395V20.6161ZM110.395 11.9441V10.9441H109.395V11.9441H110.395ZM110.395 14.6961H109.395V15.6961H110.395V14.6961ZM114.907 14.6961V15.6961H115.907V14.6961H114.907ZM114.907 11.9441H115.907V10.9441H114.907V11.9441ZM118.291 20.6161V24.3601H120.291V20.6161H118.291ZM119.291 23.3601H109.723V25.3601H119.291V23.3601ZM110.223 23.4942L106.511 21.3502L105.511 23.082L109.223 25.226L110.223 23.4942ZM107.011 22.2161V10.3441H105.011V22.2161H107.011ZM106.511 11.21L110.223 9.06604L109.223 7.33417L105.511 9.47817L106.511 11.21ZM109.723 9.20011H115.579V7.20011H109.723V9.20011ZM115.079 9.06604L118.791 11.21L119.791 9.47817L116.079 7.33417L115.079 9.06604ZM118.291 10.3441V17.9921H120.291V10.3441H118.291ZM119.291 16.9921H110.395V18.9921H119.291V16.9921ZM109.395 17.9921V20.6161H111.395V17.9921H109.395ZM110.395 21.6161H119.291V19.6161H110.395V21.6161ZM109.395 11.9441V14.6961H111.395V11.9441H109.395ZM110.395 15.6961H114.907V13.6961H110.395V15.6961ZM115.907 14.6961V11.9441H113.907V14.6961H115.907ZM114.907 10.9441H110.395V12.9441H114.907V10.9441Z" fill="#B5E93B" mask="url(#path-1-outside-1_3129_3505)"/>
</svg>
