<svg width="388" height="43" viewBox="0 0 388 43" fill="none" xmlns="http://www.w3.org/2000/svg">
<rect x="133" width="122" height="43" rx="21.5" fill="#B5E93B"/>
<path d="M164.26 26V16.2H165.66V24.74H169.286V26H164.26ZM176.349 24.782V26H172.443L170.819 25.062V19.868L172.443 18.93H174.725L176.349 19.868V22.976H172.177V24.782H176.349ZM172.177 20.148V21.758H174.991V20.148H172.177ZM178.025 20.218V19H179.313V17.824L180.671 17.04V19H182.351V20.218H180.671V24.782H182.351V26H180.937L179.313 25.062V20.218H178.025ZM184.453 20.68V15.78H186.553V16.368L185.041 20.68H184.453ZM194.198 22.78V25.062L192.574 26H188.934V24.782H192.84V23.06H190.558L188.934 22.122V19.938L190.558 19H194.058V20.218H190.292V21.842H192.574L194.198 22.78ZM199.517 20.218V19H200.805V17.824L202.163 17.04V19H203.843V20.218H202.163V24.782H203.843V26H202.429L200.805 25.062V20.218H199.517ZM206.884 23.13V24.852H209.698V23.13H206.884ZM207.15 26.07L205.526 25.132V22.85L207.15 21.912H209.698V20.218H206.226V19H209.432L211.056 19.938V26.07H210.692L209.698 25.496L208.704 26.07H207.15ZM214.922 26L213.298 25.062V15.78H214.656V24.782H216.336V26H214.922ZM219.099 15.78V22.486H219.127L222.011 19H223.635L220.933 22.164L224.055 26H222.389L220.121 23.13L219.099 24.334V26H217.741V15.78H219.099Z" fill="#4A4A4A"/>
</svg>
